<svg width="58" height="79" viewBox="0 0 58 79" fill="none" xmlns="http://www.w3.org/2000/svg">
<path fill-rule="evenodd" clip-rule="evenodd" d="M27.461 55.419C42.529 55.419 54.818 43.129 54.818 28.062C54.818 12.995 42.528 0.704956 27.461 0.704956C12.394 0.704956 0.104004 12.995 0.104004 28.062C0.104004 43.129 12.394 55.419 27.461 55.419Z" fill="#4298CA"/>
<path fill-rule="evenodd" clip-rule="evenodd" d="M19.093 21.6459C19.215 21.5239 19.343 21.4299 19.53 21.5119C19.716 21.5929 19.96 21.8479 20.147 21.8479C20.333 21.8479 20.461 21.5919 20.851 21.2489C21.241 20.9059 21.893 20.4749 22.183 20.1259C22.474 19.7769 22.404 19.5099 22.247 19.4749C22.09 19.4399 21.846 19.6379 21.624 19.6829C21.403 19.7299 21.206 19.6249 21.042 19.4849C20.879 19.3459 20.751 19.1709 20.867 18.9789C20.984 18.7869 21.344 18.5779 21.501 18.3039C21.658 18.0309 21.612 17.6929 21.28 17.6239C20.949 17.5539 20.332 17.7519 19.832 18.1059C19.332 18.4609 18.947 18.9729 18.773 19.0839C18.598 19.1939 18.633 18.9029 18.837 18.6299C19.041 18.3569 19.413 18.1009 19.89 17.8389C20.367 17.5769 20.949 17.3089 21.536 17.0769C22.123 16.8439 22.717 16.6449 23.176 16.5359C23.636 16.4249 23.962 16.4019 23.904 16.0759C23.846 15.7499 23.404 15.1219 22.979 14.5749C22.555 14.0279 22.147 13.5629 21.775 13.0159C21.402 12.4689 21.065 11.8399 20.786 11.5789C20.507 11.3169 20.286 11.4219 20.082 11.6599C19.878 11.8989 19.692 12.2709 19.512 12.4749C19.332 12.6779 19.157 12.7129 19.134 12.5619C19.111 12.4109 19.238 12.0729 19.297 11.8119C19.356 11.5499 19.344 11.3629 19.193 11.1249C19.042 10.8859 18.751 10.5959 18.529 10.4849C18.308 10.3739 18.156 10.4439 17.913 10.8049C17.668 11.1659 17.33 11.8169 17.203 12.3179C17.075 12.8179 17.156 13.1669 17.18 13.4399C17.203 13.7139 17.168 13.9119 17.005 14.0919C16.842 14.2719 16.551 14.4349 16.354 14.6799C16.156 14.9239 16.052 15.2499 15.976 15.6389C15.9 16.0279 15.853 16.4819 15.784 16.7029C15.714 16.9239 15.621 16.9129 15.557 16.7669C15.493 16.6219 15.457 16.3429 15.376 15.9699C15.295 15.5979 15.167 15.1329 14.8 14.7829C14.433 14.4329 13.828 14.2019 13.479 14.0679C13.13 13.9339 13.037 13.8989 13.002 13.7539C12.967 13.6079 12.99 13.3519 13.007 13.1139C13.025 12.8749 13.036 12.6539 13.123 12.4269C13.211 12.1999 13.373 11.9679 13.606 11.7639C13.839 11.5599 14.141 11.3859 14.304 11.2289C14.468 11.0719 14.491 10.9319 14.653 10.6929C14.816 10.4549 15.119 10.1169 15.345 9.99492C15.573 9.87292 15.724 9.96593 15.928 10.0589C16.131 10.1519 16.387 10.2459 16.643 10.1229C16.899 10.0009 17.155 9.66393 17.172 9.40793C17.189 9.15193 16.968 8.97592 16.875 8.83192C16.782 8.68592 16.817 8.56992 17.003 8.51192C17.19 8.45292 17.527 8.45292 17.742 8.35992C17.957 8.26692 18.05 8.08092 18.12 7.82492C18.19 7.56892 18.237 7.24293 18.376 7.05693C18.516 6.87093 18.749 6.82392 18.958 6.85892C19.167 6.89392 19.354 7.01093 19.406 7.26093C19.458 7.51193 19.377 7.89492 19.33 8.21492C19.284 8.53492 19.271 8.79093 19.132 9.02393C18.993 9.25593 18.725 9.46593 18.719 9.60593C18.714 9.74493 18.969 9.81492 19.254 9.97192C19.539 10.1289 19.854 10.3729 20.115 10.5069C20.377 10.6409 20.587 10.6639 20.744 10.4369C20.901 10.2099 21.006 9.73292 21.145 9.35492C21.285 8.97692 21.459 8.69793 21.529 8.38893C21.599 8.08093 21.564 7.74393 21.389 7.55193C21.215 7.35993 20.9 7.31292 20.766 7.20792C20.632 7.10392 20.679 6.94092 20.626 6.78392C20.574 6.62692 20.422 6.47493 20.364 6.32993C20.305 6.18493 20.341 6.04492 20.335 5.86392C20.329 5.68392 20.283 5.46293 20.167 5.29993C20.05 5.13693 19.864 5.03292 19.527 4.99792C19.189 4.96292 18.7 4.99792 18.299 5.02692C17.897 5.05592 17.584 5.07892 17.513 4.95692C17.443 4.83492 17.617 4.56693 17.403 4.46793C17.188 4.36793 16.583 4.43893 16.082 4.68393C15.582 4.92793 15.186 5.34692 14.947 5.70792C14.709 6.06792 14.627 6.37093 14.493 6.47493C14.359 6.57993 14.173 6.48692 14.079 6.35892C13.987 6.23092 13.987 6.06792 13.87 5.96892C13.754 5.86992 13.521 5.83493 13.271 5.82393C13.021 5.81193 12.753 5.82392 13.033 5.63792C13.312 5.45092 14.138 5.06792 14.37 4.81192C14.589 4.57092 14.279 4.44493 13.93 4.27393C10.73 6.09793 7.934 8.54893 5.71 11.4599C5.958 11.5469 6.196 11.5179 6.511 11.2259C6.865 10.8969 7.32 10.2339 7.541 9.98392C7.762 9.73292 7.75 9.89592 7.634 10.1119C7.517 10.3269 7.297 10.5949 7.174 10.8039C7.052 11.0129 7.029 11.1649 6.965 11.3859C6.901 11.6069 6.796 11.8979 6.686 12.1139C6.575 12.3289 6.458 12.4679 6.156 13.0619C5.854 13.6559 5.365 14.7029 5.033 15.3889C4.7 16.0759 4.527 16.4019 4.439 16.6869C4.352 16.9719 4.352 17.2159 4.352 17.4779C4.352 17.7399 4.352 18.0189 4.113 18.5019C3.875 18.9849 3.398 19.6719 3.083 20.4919C2.769 21.3119 2.618 22.2659 2.543 22.9879C2.467 23.7089 2.467 24.1979 2.577 24.5699C2.688 24.9429 2.909 25.1979 3.025 25.4199C3.141 25.6409 3.153 25.8269 3.101 26.1579C3.049 26.4899 2.933 26.9669 2.88 27.3049C2.828 27.6419 2.839 27.8399 2.973 28.1079C3.107 28.3749 3.363 28.7119 3.445 29.2939C3.526 29.8759 3.433 30.7019 3.48 31.1499C3.526 31.5979 3.712 31.6679 3.852 31.9299C3.992 32.1919 4.084 32.6449 4.352 33.1979C4.62 33.7509 5.062 34.4019 5.295 34.6359C5.527 34.8689 5.55 34.6819 5.458 34.2989C5.365 33.9149 5.155 33.3329 4.963 32.7569C4.771 32.1809 4.596 31.6109 4.48 30.9589C4.364 30.3079 4.306 29.5749 4.317 29.2599C4.328 28.9459 4.41 29.0509 4.439 29.3299C4.468 29.6099 4.445 30.0629 4.637 30.9009C4.829 31.7389 5.237 32.9609 5.562 33.9789C5.888 34.9969 6.132 35.8109 6.37 36.1899C6.609 36.5679 6.842 36.5089 7.138 36.7479C7.435 36.9869 7.796 37.5219 8.168 37.9119C8.54 38.3009 8.924 38.5459 9.32 38.6739C9.716 38.8019 10.123 38.8129 10.478 38.8129C10.833 38.8129 11.136 38.8019 11.461 39.0059C11.787 39.2089 12.136 39.6279 12.549 39.8839C12.962 40.1399 13.439 40.2329 13.881 40.5759C14.323 40.9199 14.731 41.5129 15.068 41.9029C15.405 42.2929 15.673 42.4789 15.958 42.5539C16.243 42.6299 16.546 42.5939 16.657 42.6939C16.767 42.7929 16.686 43.0259 16.803 43.0659C16.919 43.1069 17.233 42.9559 17.483 42.8219C17.733 42.6879 17.92 42.5719 18.246 42.7229C18.571 42.8729 19.037 43.2929 19.264 43.6829C19.491 44.0729 19.479 44.4339 19.381 44.7999C19.282 45.1669 19.096 45.5389 19.055 45.9229C19.014 46.3069 19.119 46.7029 19.235 46.9989C19.352 47.2959 19.48 47.4939 19.573 47.7729C19.666 48.0519 19.724 48.4129 19.8 48.6279C19.876 48.8439 19.968 48.9129 20.091 48.9599C20.214 49.0059 20.365 49.0299 20.516 49.2919C20.667 49.5529 20.819 50.0539 21.33 50.4439C21.842 50.8329 22.715 51.1119 23.523 51.3629C24.332 51.6129 25.076 51.8339 25.547 52.1249C26.019 52.4149 26.216 52.7759 26.391 53.1199C26.565 53.4629 26.717 53.7889 27.049 54.1659C27.382 54.5439 27.896 54.9729 28.081 55.3219L28.123 55.4099C29.027 55.3879 29.92 55.3229 30.8 55.2159L30.806 55.2029C30.893 55.0049 31.045 54.7869 31.295 54.5439C31.545 54.3009 31.894 54.0329 32.15 53.6779C32.406 53.3229 32.569 52.8809 32.994 52.5029C33.418 52.1249 34.105 51.8109 34.494 51.4439C34.884 51.0779 34.977 50.6589 35.145 50.1409C35.314 49.6219 35.559 49.0059 35.989 48.3669C36.419 47.7269 37.036 47.0629 37.309 46.6789C37.582 46.2949 37.513 46.1909 37.141 46.0159C36.769 45.8419 36.094 45.5969 35.599 45.4689C35.104 45.3409 34.79 45.3299 34.465 45.3179C34.139 45.3059 33.802 45.2949 33.523 45.1959C33.244 45.0969 33.023 44.9109 32.673 44.8819C32.324 44.8519 31.847 44.9799 31.451 45.1029C31.055 45.2249 30.741 45.3409 30.561 45.3299C30.38 45.3179 30.334 45.1779 30.317 45.0559C30.299 44.9339 30.311 44.8279 30.358 44.6779C30.404 44.5269 30.486 44.3279 30.462 44.0609C30.439 43.7939 30.311 43.4559 30.107 43.2409C29.903 43.0259 29.624 42.9329 29.153 42.9089C28.982 42.9009 28.785 42.9019 28.577 42.9019C28.211 42.9039 27.809 42.9049 27.443 42.8569C26.867 42.7809 26.379 42.5829 26.07 42.4209C25.762 42.2579 25.634 42.1299 25.512 41.8389C25.389 41.5479 25.273 41.0939 25.081 40.8209C24.889 40.5469 24.621 40.4539 24.342 40.5009C24.063 40.5469 23.772 40.7329 23.493 40.8609C23.214 40.9889 22.946 41.0589 22.737 41.0589C22.528 41.0589 22.376 40.9889 22.283 40.8949C22.19 40.8019 22.155 40.6869 22.015 40.5519C21.875 40.4179 21.631 40.2669 21.486 40.3429C21.34 40.4179 21.294 40.7209 21.213 40.6919C21.131 40.6619 21.015 40.3019 20.863 40.1209C20.712 39.9409 20.526 39.9409 20.223 40.1039C19.92 40.2669 19.501 40.5929 19.263 40.8369C19.024 41.0819 18.967 41.2439 18.914 41.4949C18.861 41.7449 18.815 42.0819 18.774 42.2389C18.733 42.3959 18.698 42.3729 18.547 42.2739C18.396 42.1749 18.128 42.0009 17.948 41.9719C17.767 41.9429 17.674 42.0589 17.558 42.1109C17.442 42.1639 17.302 42.1519 17.099 42.0819C16.895 42.0119 16.628 41.8839 16.378 41.7039C16.128 41.5239 15.895 41.2909 15.732 41.0519C15.569 40.8139 15.476 40.5699 15.458 40.2489C15.441 39.9299 15.499 39.5339 15.528 39.2309C15.557 38.9289 15.557 38.7189 15.313 38.6789C15.069 38.6379 14.58 38.7659 14.231 38.8299C13.882 38.8939 13.672 38.8939 13.533 38.8359C13.393 38.7779 13.323 38.6609 13.259 38.4579C13.195 38.2539 13.137 37.9629 13.172 37.6079C13.208 37.2529 13.335 36.8339 13.376 36.4969C13.416 36.1589 13.37 35.9039 13.108 35.8049C12.846 35.7059 12.37 35.7639 12.02 35.9439C11.671 36.1249 11.45 36.4269 11.311 36.7409C11.171 37.0549 11.113 37.3809 10.921 37.3929C10.729 37.4049 10.403 37.1019 10.072 36.6719C9.74 36.2409 9.403 35.6819 9.193 35.2749C8.984 34.8679 8.902 34.6119 8.955 34.0129C9.007 33.4129 9.193 32.4709 9.519 31.9819C9.845 31.4939 10.31 31.4589 10.717 31.5109C11.125 31.5629 11.473 31.7029 11.689 31.5869C11.904 31.4699 11.986 31.0979 12.16 30.8239C12.334 30.5509 12.602 30.3759 12.951 30.4459C13.3 30.5159 13.731 30.8299 14.063 31.1439C14.395 31.4579 14.627 31.7729 14.866 32.1679C15.104 32.5639 15.349 33.0409 15.5 33.1629C15.651 33.2849 15.709 33.0529 15.663 32.7729C15.617 32.4939 15.465 32.1679 15.326 31.7959C15.186 31.4239 15.058 31.0049 15.029 30.5979C15 30.1899 15.07 29.7949 15.407 29.3289C15.745 28.8639 16.35 28.3289 16.647 27.8049C16.943 27.2809 16.932 26.7689 16.897 26.3619C16.862 25.9549 16.804 25.6519 16.793 25.4369C16.781 25.2219 16.816 25.0939 16.886 25.0119C16.956 24.9309 17.06 24.8959 17.142 24.7679C17.223 24.6399 17.281 24.4189 17.398 24.1509C17.514 23.8839 17.689 23.5689 17.968 23.4359C18.247 23.3019 18.631 23.3479 18.776 23.1509C18.922 22.9529 18.829 22.5109 18.84 22.2139C18.854 21.9189 18.971 21.7679 19.093 21.6459Z" fill="#BAC448"/>
<path fill-rule="evenodd" clip-rule="evenodd" d="M22.662 18.6469C22.671 18.8239 22.746 18.9809 22.857 18.9759C22.967 18.9699 23.112 18.8019 23.258 18.7609C23.404 18.7199 23.549 18.8079 23.764 18.9209C23.979 19.0349 24.264 19.1739 24.535 19.2029C24.806 19.2319 25.061 19.1509 25.172 19.0079C25.282 18.8659 25.248 18.6619 25.131 18.4789C25.014 18.2959 24.817 18.1329 24.729 17.9469C24.642 17.7599 24.666 17.5509 24.558 17.4079C24.45 17.2659 24.212 17.1899 24.061 17.1349C23.91 17.0799 23.846 17.0449 23.726 16.9869C23.607 16.9279 23.433 16.8469 23.316 16.9279C23.2 17.0099 23.142 17.2539 23.061 17.4719C22.979 17.6909 22.874 17.8829 22.792 18.0779C22.711 18.2709 22.653 18.4689 22.662 18.6469Z" fill="#BAC448"/>
<path fill-rule="evenodd" clip-rule="evenodd" d="M25.039 10.3089C25.464 10.4739 25.976 10.5569 26.223 10.5019C26.471 10.4459 26.453 10.2539 26.398 10.0009C26.342 9.74794 26.25 9.43393 26.2 9.02693C26.151 8.61893 26.145 8.11893 26.162 7.81593C26.179 7.51393 26.22 7.40894 26.342 7.34494C26.465 7.28094 26.668 7.25793 26.773 7.17993C26.877 7.10093 26.883 6.96693 26.855 6.76893C26.826 6.57193 26.762 6.30993 26.858 6.12893C26.954 5.94893 27.21 5.84993 27.379 5.73693C27.548 5.62293 27.629 5.49493 27.588 5.31193C27.547 5.12893 27.384 4.88993 27.204 4.71293C27.024 4.53493 26.826 4.41893 26.59 4.31393C26.355 4.20893 26.081 4.11593 25.944 4.04693C25.807 3.97693 25.807 3.92994 25.915 3.88594C26.023 3.84294 26.238 3.80193 26.296 3.72393C26.354 3.64493 26.255 3.52894 26.049 3.44694C25.842 3.36594 25.528 3.31893 25.406 3.23193C25.283 3.14493 25.354 3.01694 25.24 2.94694C25.127 2.87694 24.83 2.86493 24.443 2.83093C24.056 2.79593 23.579 2.73694 23.358 2.64294C23.137 2.54994 23.172 2.42194 23.355 2.35794C23.538 2.29394 23.87 2.29394 24.501 2.29094C25.132 2.28894 26.063 2.28294 26.654 2.22694C27.245 2.17194 27.495 2.06693 26.991 2.02993C26.67 2.00493 26.041 2.00893 25.443 2.01193C25.105 2.01293 24.777 2.01493 24.521 2.01193C23.811 2.00293 23.648 1.95694 23.555 1.87794C23.462 1.79994 23.439 1.68894 23.337 1.61694C23.236 1.54394 23.055 1.50893 22.959 1.52293C22.863 1.53793 22.852 1.60193 22.817 1.68893L22.666 1.95994C22.608 2.03294 22.55 2.06694 22.433 2.09094C22.317 2.11394 22.142 2.12594 22.029 2.16894C21.916 2.21294 21.863 2.28894 21.8 2.41394C21.736 2.53894 21.66 2.71293 21.497 2.76893C21.393 2.80393 21.252 2.78993 21.12 2.77693C21.045 2.76893 20.973 2.76194 20.91 2.76294C20.736 2.76594 20.637 2.83494 20.55 2.91694L20.3 3.15794C20.213 3.22494 20.114 3.26593 19.907 3.31193C19.7 3.35893 19.386 3.41194 19.151 3.43794C18.915 3.46394 18.759 3.46394 18.616 3.57994C18.473 3.69594 18.345 3.92893 18.217 4.12693C18.089 4.32493 17.962 4.48793 17.976 4.57493C17.991 4.66193 18.148 4.67393 18.392 4.67393C18.636 4.67393 18.968 4.66194 19.314 4.65094C19.66 4.63894 20.021 4.62693 20.283 4.60093C20.545 4.57493 20.707 4.53394 20.885 4.38894C21.062 4.24294 21.255 3.99294 21.502 3.82394C21.749 3.65594 22.052 3.56793 22.212 3.64393C22.372 3.71993 22.389 3.95794 22.386 4.21394C22.383 4.46994 22.36 4.74394 22.415 5.01094C22.47 5.27894 22.604 5.54093 22.644 5.73593C22.685 5.92993 22.633 6.05894 22.594 6.14894C22.557 6.23894 22.533 6.29093 22.667 6.33793C22.801 6.38393 23.092 6.42493 23.24 6.48893C23.389 6.55293 23.395 6.63993 23.275 6.77693C23.155 6.91393 22.911 7.09993 22.888 7.34693C22.865 7.59394 23.063 7.90293 23.275 8.29493C23.488 8.68793 23.714 9.16494 23.997 9.52894C24.276 9.89294 24.614 10.1439 25.039 10.3089Z" fill="#BAC448"/>
<path fill-rule="evenodd" clip-rule="evenodd" d="M39.596 9.983C39.703 10.228 39.774 10.443 39.808 10.644C39.843 10.844 39.843 11.03 39.898 11.17C39.953 11.31 40.064 11.403 40.215 11.54C40.366 11.676 40.558 11.857 40.707 12.014C40.855 12.171 40.96 12.304 41.053 12.415C41.146 12.526 41.228 12.613 41.324 12.639C41.42 12.665 41.531 12.63 41.629 12.479C41.729 12.328 41.816 12.06 41.926 11.967C42.037 11.874 42.171 11.956 42.269 12.084C42.368 12.212 42.432 12.386 42.502 12.514C42.572 12.641 42.648 12.723 42.758 12.686C42.868 12.648 43.014 12.491 43.125 12.322C43.235 12.153 43.311 11.973 43.366 11.79C43.422 11.607 43.456 11.42 42.927 10.897C42.397 10.373 41.303 9.512 40.603 9.015C39.902 8.517 39.593 8.38299 39.32 8.32499C39.046 8.26699 38.808 8.28399 38.717 8.38299C38.627 8.48199 38.685 8.66299 38.653 8.77299C38.621 8.88399 38.499 8.92399 38.447 8.97999C38.394 9.03499 38.412 9.105 38.549 9.143C38.686 9.18 38.941 9.186 39.142 9.326C39.343 9.465 39.488 9.739 39.596 9.983Z" fill="#BAC448"/>
<path fill-rule="evenodd" clip-rule="evenodd" d="M43.095 10.0529C43.217 10.3269 43.45 10.6759 43.601 10.9839C43.752 11.2919 43.822 11.5599 43.857 11.9029C43.892 12.2459 43.892 12.6649 43.834 13.0139C43.776 13.3629 43.66 13.6429 43.764 13.6889C43.868 13.7359 44.195 13.5499 44.41 13.5319C44.625 13.5149 44.729 13.6659 44.806 13.8119C44.882 13.9569 44.928 14.0969 45.073 14.2879C45.219 14.4799 45.463 14.7249 45.638 14.9049C45.812 15.0859 45.917 15.2019 45.9 15.3239C45.883 15.4459 45.743 15.5739 45.493 15.6969C45.242 15.8189 44.882 15.9349 44.62 16.0509C44.358 16.1679 44.195 16.2839 44.388 16.6329C44.579 16.9819 45.126 17.5639 45.429 18.0289C45.732 18.4949 45.789 18.8439 45.86 19.1639C45.93 19.4839 46.011 19.7749 46.284 19.9319C46.558 20.0889 47.023 20.1119 47.396 20.0079C47.768 19.9029 48.047 19.6699 48.204 19.2979C48.361 18.9249 48.396 18.4129 48.344 17.9189C48.292 17.4239 48.152 16.9469 48.025 16.5399C47.897 16.1329 47.78 15.7949 47.716 15.5169C47.652 15.2379 47.64 15.0159 47.669 14.7899C47.698 14.5619 47.768 14.3299 47.989 14.3829C48.21 14.4349 48.582 14.7719 48.85 15.0339C49.118 15.2959 49.28 15.4819 49.432 15.6919C49.584 15.9009 49.723 16.1339 49.81 16.3079C49.897 16.4829 49.933 16.5989 50.014 16.6409C50.095 16.6809 50.223 16.6469 50.253 16.4719C50.282 16.2979 50.211 15.9839 50.16 15.7389C50.108 15.4949 50.073 15.3199 50.178 15.3839C50.282 15.4479 50.527 15.7509 50.684 15.9719C50.841 16.1929 50.911 16.3329 51.05 16.3849C51.19 16.4369 51.4 16.4019 51.537 16.2519C51.665 16.1119 51.731 15.8719 51.759 15.4749C48.378 8.96293 42.456 3.98292 35.307 1.84692C34.737 1.92792 34.167 2.00893 33.701 2.00893C33.236 2.00893 32.875 1.92792 32.777 1.99692C32.678 2.06692 32.84 2.28793 32.707 2.39893C32.573 2.50893 32.142 2.50893 32.131 2.64893C32.119 2.78893 32.527 3.06792 32.945 3.29492C33.364 3.52092 33.795 3.69592 34.208 3.90492C34.621 4.11492 35.017 4.35893 35.668 4.91193C36.319 5.46493 37.227 6.32592 37.82 6.65192C38.413 6.97692 38.693 6.76793 38.955 6.71593C39.217 6.66293 39.461 6.76792 39.636 6.99492C39.81 7.22192 39.915 7.57092 40.072 7.83292C40.229 8.09392 40.439 8.26892 40.567 8.05992C40.695 7.84992 40.741 7.25693 40.852 7.07593C40.963 6.89593 41.137 7.12893 41.242 7.41393C41.347 7.69893 41.382 8.03593 41.591 8.29193C41.8 8.54793 42.185 8.72293 42.441 8.89093C42.697 9.05993 42.825 9.22392 42.895 9.40292C42.961 9.58192 42.973 9.77992 43.095 10.0529Z" fill="#BAC448"/>
<path fill-rule="evenodd" clip-rule="evenodd" d="M48.477 19.926C48.337 20.072 48.174 20.095 48.023 20.141C47.872 20.188 47.732 20.258 47.656 20.495C47.58 20.734 47.569 21.141 47.586 21.554C47.603 21.967 47.649 22.386 47.708 22.817C47.767 23.247 47.836 23.689 47.9 23.969C47.964 24.248 48.022 24.364 47.976 24.504C47.929 24.644 47.778 24.806 47.65 25.01C47.523 25.214 47.418 25.458 47.377 25.731C47.336 26.005 47.359 26.307 47.354 26.569C47.348 26.831 47.313 27.052 47.261 27.209C47.208 27.366 47.139 27.459 47.069 27.576C46.999 27.692 46.929 27.832 47.011 28.245C47.093 28.658 47.325 29.344 47.412 29.979C47.499 30.613 47.441 31.195 47.342 31.788C47.243 32.381 47.103 32.986 47.115 33.516C47.127 34.045 47.29 34.499 47.43 34.819C47.57 35.139 47.686 35.325 47.797 35.639C47.907 35.954 48.012 36.396 48.274 36.78C48.536 37.164 48.955 37.489 49.199 37.722C49.443 37.955 49.512 38.095 49.618 38.118C49.723 38.141 49.862 38.048 50.002 37.815C50.141 37.583 50.281 37.21 50.508 36.861C50.735 36.512 51.049 36.186 51.322 36C51.596 35.814 51.828 35.768 52.003 35.907C52.178 36.047 52.294 36.373 52.271 36.652C52.248 36.931 52.085 37.164 51.951 37.751C51.817 38.339 51.712 39.281 51.3 40.271C50.887 41.259 50.165 42.295 49.741 42.935C49.316 43.575 49.188 43.819 48.99 44.099C48.792 44.378 48.525 44.692 48.315 44.995C48.105 45.297 47.954 45.588 47.832 46.024C47.797 46.15 47.764 46.287 47.734 46.432C51.275 42.526 53.705 37.592 54.519 32.131V23.99C54.223 22.005 53.713 20.089 53.015 18.267H52.347C52.085 18.267 51.934 18.267 51.946 18.372C51.958 18.476 52.132 18.686 52.26 18.895C52.388 19.105 52.469 19.314 52.51 19.477C52.551 19.64 52.551 19.756 52.411 19.832C52.271 19.908 51.992 19.943 51.736 19.873C51.48 19.803 51.247 19.628 51.067 19.413C50.886 19.198 50.758 18.942 50.63 18.634C50.502 18.325 50.374 17.964 50.234 17.749C50.094 17.534 49.943 17.464 49.769 17.61C49.594 17.755 49.397 18.116 49.24 18.424C49.082 18.733 48.966 18.988 48.85 19.25C48.733 19.513 48.617 19.781 48.477 19.926Z" fill="#BAC448"/>
<path fill-rule="evenodd" clip-rule="evenodd" d="M33.938 7.69997C34.171 7.64997 34.276 7.48697 34.331 7.30097C34.386 7.11497 34.392 6.90597 34.258 6.67897C34.124 6.45197 33.851 6.20698 33.583 6.06498C33.315 5.92198 33.054 5.88197 32.87 5.86997C32.687 5.85797 32.582 5.87598 32.567 5.97498C32.553 6.07498 32.628 6.25397 32.611 6.35297C32.593 6.45197 32.483 6.46897 32.265 6.46897C32.046 6.46897 31.721 6.45197 31.61 6.55597C31.499 6.66097 31.604 6.88797 31.869 7.08597C32.134 7.28397 32.559 7.45197 32.951 7.56897C33.344 7.68497 33.705 7.74897 33.938 7.69997Z" fill="#BAC448"/>
<path fill-rule="evenodd" clip-rule="evenodd" d="M21.15 36.624C21.15 36.513 21.08 36.397 20.67 36.292C20.26 36.187 19.509 36.094 18.898 35.969C18.287 35.844 17.816 35.687 17.487 35.492C17.158 35.297 16.972 35.064 16.643 34.846C16.314 34.628 15.843 34.424 15.5 34.328C15.157 34.232 14.941 34.244 14.717 34.331C14.493 34.418 14.26 34.581 14.077 34.782C13.894 34.983 13.761 35.221 13.723 35.335C13.685 35.448 13.744 35.437 13.921 35.367C14.098 35.297 14.395 35.169 14.628 35.117C14.861 35.064 15.029 35.088 15.271 35.181C15.512 35.274 15.827 35.437 16.19 35.608C16.554 35.78 16.967 35.96 17.266 36.082C17.566 36.205 17.752 36.269 18.031 36.309C18.311 36.35 18.683 36.367 18.872 36.359C19.061 36.35 19.067 36.315 19.107 36.35C19.148 36.385 19.224 36.49 19.206 36.579C19.188 36.669 19.078 36.746 18.95 36.838C18.822 36.931 18.676 37.041 18.892 37.114C19.107 37.187 19.683 37.222 20.096 37.187C20.509 37.152 20.759 37.047 20.919 36.942C21.08 36.839 21.15 36.734 21.15 36.624Z" fill="#BAC448"/>
<path fill-rule="evenodd" clip-rule="evenodd" d="M18.017 37.2719C18.02 37.1529 17.927 37.1009 17.848 37.0279C17.769 36.9549 17.705 36.8619 17.519 36.8329C17.332 36.8039 17.024 36.8389 16.882 36.9669C16.739 37.0949 16.763 37.3159 16.835 37.4579C16.908 37.6019 17.03 37.6649 17.202 37.7039C17.374 37.7419 17.595 37.7529 17.755 37.6659C17.915 37.5779 18.014 37.3919 18.017 37.2719Z" fill="#BAC448"/>
<path fill-rule="evenodd" clip-rule="evenodd" d="M16.708 34.218C16.915 34.238 17.078 34.203 17.098 34.093C17.118 33.982 16.996 33.796 16.912 33.7C16.828 33.604 16.781 33.598 16.679 33.563C16.577 33.528 16.42 33.464 16.298 33.54C16.175 33.616 16.088 33.831 16.17 33.976C16.251 34.122 16.501 34.197 16.708 34.218Z" fill="#BAC448"/>
<path fill-rule="evenodd" clip-rule="evenodd" d="M16.432 32.8429C16.635 32.8359 16.728 32.6559 16.624 32.4839C16.519 32.3119 16.216 32.1499 16.013 32.1559C15.809 32.1629 15.704 32.3389 15.809 32.5099C15.914 32.6819 16.228 32.8489 16.432 32.8429Z" fill="#BAC448"/>
<path fill-rule="evenodd" clip-rule="evenodd" d="M22.101 36.56C21.946 36.507 21.731 36.542 21.653 36.667C21.574 36.792 21.633 37.008 21.778 37.115C21.924 37.223 22.156 37.223 22.282 37.168C22.407 37.112 22.425 37.002 22.386 36.877C22.347 36.752 22.255 36.612 22.101 36.56Z" fill="#BAC448"/>
<path fill-rule="evenodd" clip-rule="evenodd" d="M23.433 36.827L23.459 37.08C23.54 37.141 23.697 37.147 23.796 37.127C23.895 37.106 23.936 37.06 23.918 36.981C23.901 36.903 23.825 36.792 23.723 36.754C23.622 36.717 23.494 36.752 23.433 36.827Z" fill="#BAC448"/>
<path fill-rule="evenodd" clip-rule="evenodd" d="M24.722 38.3309C24.618 38.2179 24.437 38.2519 24.423 38.3719C24.408 38.4909 24.559 38.695 24.664 38.808C24.769 38.922 24.827 38.945 24.842 38.826C24.855 38.706 24.827 38.4449 24.722 38.3309Z" fill="#BAC448"/>
<path fill-rule="evenodd" clip-rule="evenodd" d="M28.763 34.377C32.379 34.377 35.996 34.377 39.613 34.377C39.733 34.169 39.853 33.961 39.809 33.754C39.766 33.547 39.559 33.34 39.32 33.237C39.081 33.133 38.809 33.133 38.598 33.177C38.386 33.221 38.232 33.309 38.079 33.397C38.165 33.005 38.251 32.6129 38.166 32.2489C38.082 31.8839 37.826 31.546 37.487 31.42C37.146 31.295 36.721 31.382 36.47 31.561C36.22 31.74 36.143 32.011 36.105 32.218C36.067 32.425 36.067 32.568 36.081 32.316C36.096 32.063 36.125 31.414 35.989 30.933C35.854 30.451 35.554 30.138 35.199 29.975C34.843 29.811 34.431 29.798 34.101 29.921C33.771 30.044 33.523 30.304 33.411 30.605C33.301 30.906 33.328 31.2499 33.372 31.5269C33.416 31.8049 33.479 32.016 33.541 32.228C33.488 32.139 33.434 32.049 33.3 31.936C33.166 31.823 32.951 31.687 32.711 31.646C32.471 31.604 32.206 31.659 32.023 31.767C31.839 31.875 31.737 32.038 31.693 32.196C31.648 32.354 31.661 32.507 31.687 32.621C31.713 32.735 31.752 32.811 31.791 32.886C31.752 32.811 31.713 32.7349 31.446 32.6239C31.178 32.5129 30.682 32.368 30.327 32.439C29.972 32.51 29.757 32.799 29.724 33.051C29.691 33.302 29.841 33.517 29.943 33.635C30.045 33.753 30.099 33.774 30.153 33.796C29.997 33.754 29.841 33.711 29.567 33.663C29.292 33.615 28.897 33.561 28.681 33.66C28.466 33.759 28.43 34.011 28.473 34.156C28.516 34.301 28.64 34.339 28.763 34.377Z" fill="white"/>
<path fill-rule="evenodd" clip-rule="evenodd" d="M27.409 55.419C27.399 55.419 27.389 55.419 27.378 55.419C27.388 55.419 27.399 55.419 27.409 55.419ZM27.367 55.419C27.356 55.419 27.344 55.419 27.333 55.419C27.345 55.419 27.355 55.419 27.367 55.419ZM27.327 55.418C15.053 55.359 4.687 47.215 1.286 36.038C1.299 36.073 1.312 36.107 1.326 36.141C4.773 47.245 15.128 55.359 27.327 55.418ZM28.643 55.394C28.65 55.393 28.658 55.393 28.665 55.393C28.658 55.393 28.649 55.393 28.643 55.394ZM28.722 55.39C28.734 55.39 28.746 55.389 28.759 55.389C28.747 55.389 28.734 55.39 28.722 55.39ZM28.762 55.388C29.406 55.358 30.044 55.305 30.676 55.232C30.044 55.306 29.405 55.358 28.762 55.388ZM30.727 55.226C30.732 55.225 30.737 55.225 30.742 55.224C30.736 55.225 30.732 55.225 30.727 55.226ZM30.804 55.217L30.805 55.215C37.486 54.395 43.436 51.149 47.742 46.391C47.739 46.405 47.736 46.419 47.733 46.433C51.274 42.527 53.704 37.593 54.518 32.132V32.117C54.716 30.793 54.819 29.439 54.819 28.061C54.819 42.039 44.336 53.568 30.804 55.217ZM54.819 28.008C54.819 27.997 54.819 27.988 54.819 27.977C54.819 27.986 54.819 27.998 54.819 28.008ZM54.819 27.965C54.819 27.954 54.819 27.944 54.819 27.933C54.818 27.943 54.818 27.954 54.819 27.965ZM54.818 27.882C54.809 26.566 54.707 25.273 54.518 24.007V23.991C54.236 22.1 53.76 20.271 53.111 18.527C54.196 21.443 54.797 24.593 54.818 27.882Z" fill="#002847"/>
<path fill-rule="evenodd" clip-rule="evenodd" d="M27.461 55.419C27.447 55.419 27.434 55.419 27.42 55.419C27.417 55.419 27.413 55.419 27.409 55.419C27.399 55.419 27.388 55.419 27.378 55.419C27.375 55.419 27.371 55.419 27.367 55.419C27.355 55.419 27.345 55.419 27.333 55.419C27.331 55.418 27.33 55.418 27.327 55.418C15.128 55.359 4.773 47.245 1.325 36.141C2.591 39.409 3.887 42.6719 8.158 45.4799C12.526 48.3519 16.928 49.8659 21.164 50.3009C21.215 50.3499 21.271 50.398 21.332 50.445C21.844 50.834 22.717 51.113 23.525 51.364C24.334 51.614 25.078 51.835 25.549 52.126C26.021 52.416 26.218 52.777 26.393 53.121C26.567 53.464 26.719 53.79 27.051 54.167C27.384 54.545 27.898 54.974 28.083 55.323L28.125 55.4109C27.905 55.4159 27.684 55.419 27.461 55.419ZM30.805 55.215L30.81 55.2039C30.897 55.0059 31.049 54.788 31.299 54.545C31.549 54.302 31.898 54.034 32.154 53.679C32.41 53.324 32.573 52.882 32.998 52.504C33.422 52.126 34.109 51.812 34.498 51.445C34.888 51.079 34.981 50.66 35.149 50.142C35.318 49.623 35.563 49.007 35.993 48.368C36.423 47.728 37.04 47.0639 37.313 46.6799C37.348 46.6309 37.377 46.587 37.401 46.546C41.788 43.884 45.405 40.047 47.797 35.649C47.907 35.962 48.012 36.4 48.272 36.781C48.534 37.165 48.953 37.49 49.197 37.723C49.441 37.956 49.51 38.096 49.616 38.119C49.626 38.121 49.637 38.1219 49.648 38.1219C49.748 38.1219 49.874 38.0259 50 37.8159C50.139 37.5839 50.279 37.211 50.506 36.862C50.733 36.513 51.047 36.187 51.32 36.001C51.485 35.888 51.636 35.828 51.768 35.828C51.854 35.828 51.932 35.854 52 35.909C52.175 36.049 52.291 36.375 52.268 36.654C52.245 36.933 52.082 37.166 51.948 37.753C51.814 38.341 51.709 39.2829 51.297 40.2729C50.884 41.261 50.162 42.297 49.738 42.937C49.313 43.577 49.185 43.821 48.987 44.101C48.789 44.38 48.522 44.6939 48.312 44.9969C48.102 45.2989 47.951 45.59 47.829 46.026C47.797 46.139 47.768 46.262 47.74 46.392C43.436 51.149 37.486 54.395 30.805 55.215ZM54.518 32.117V24.007C54.707 25.273 54.81 26.566 54.818 27.882C54.818 27.884 54.818 27.886 54.818 27.888C54.818 27.9 54.818 27.911 54.818 27.924C54.818 27.927 54.818 27.929 54.818 27.933C54.818 27.944 54.818 27.954 54.818 27.965C54.818 27.969 54.818 27.972 54.818 27.977C54.818 27.988 54.818 27.9969 54.818 28.0079C54.818 28.012 54.818 28.015 54.818 28.019C54.818 28.033 54.818 28.048 54.818 28.062C54.819 29.439 54.716 30.793 54.518 32.117Z" fill="#397BA8"/>
<path fill-rule="evenodd" clip-rule="evenodd" d="M28.126 55.4109L28.084 55.3229C27.898 54.9739 27.384 54.5449 27.052 54.1669C26.719 53.7899 26.568 53.4639 26.394 53.1209C26.219 52.7769 26.021 52.4159 25.55 52.1259C25.079 51.8349 24.335 51.6139 23.526 51.3639C22.717 51.1129 21.845 50.8339 21.333 50.4449C21.272 50.3979 21.216 50.3499 21.165 50.3009C22.042 50.3909 22.913 50.4349 23.773 50.4349C28.731 50.4349 33.389 48.9829 37.402 46.5459C37.378 46.5869 37.349 46.6309 37.314 46.6799C37.041 47.0639 36.424 47.7279 35.994 48.3679C35.563 49.0069 35.319 49.6229 35.15 50.1419C34.982 50.6599 34.888 51.0789 34.499 51.4449C34.109 51.8119 33.423 52.1259 32.999 52.5039C32.574 52.8819 32.411 53.3239 32.155 53.6789C31.899 54.0339 31.551 54.3019 31.3 54.5449C31.05 54.7879 30.898 55.0059 30.811 55.2039L30.806 55.2149L30.805 55.2169C30.797 55.2179 30.788 55.2189 30.78 55.2199C30.778 55.2199 30.776 55.2199 30.773 55.2209C30.763 55.2219 30.752 55.2229 30.743 55.2239C30.738 55.2249 30.734 55.2249 30.728 55.2259C30.722 55.2269 30.714 55.2279 30.708 55.2279C30.7 55.2289 30.691 55.2299 30.683 55.2309C30.681 55.2319 30.679 55.2319 30.677 55.2319C30.046 55.3059 29.407 55.3579 28.763 55.3879C28.761 55.3879 28.762 55.3879 28.76 55.3879C28.747 55.3879 28.735 55.3889 28.723 55.3889C28.72 55.3889 28.716 55.3899 28.713 55.3899C28.703 55.3899 28.693 55.3909 28.683 55.3909C28.676 55.3909 28.673 55.3919 28.666 55.3919C28.659 55.3919 28.651 55.3919 28.644 55.3929C28.635 55.3929 28.626 55.3929 28.619 55.3939C28.614 55.3939 28.609 55.3939 28.603 55.3939C28.592 55.3949 28.58 55.3949 28.569 55.3959C28.567 55.3959 28.565 55.3959 28.562 55.3959C28.417 55.4029 28.271 55.4069 28.126 55.4109Z" fill="#598F65"/>
<path fill-rule="evenodd" clip-rule="evenodd" d="M53.014 18.2679H53.003C52.637 17.3199 52.22 16.3969 51.755 15.5019C51.756 15.4929 51.756 15.4829 51.757 15.4729C52.226 16.3759 52.646 17.3099 53.014 18.2679Z" fill="#002847"/>
<path fill-rule="evenodd" clip-rule="evenodd" d="M52.025 19.912C51.931 19.912 51.831 19.9 51.735 19.874C51.479 19.804 51.246 19.629 51.066 19.414C50.885 19.199 50.757 18.943 50.629 18.635C50.501 18.326 50.373 17.965 50.233 17.75C50.198 17.697 50.163 17.652 50.126 17.618C49.953 17.015 49.75 16.415 49.52 15.82C49.635 15.992 49.739 16.168 49.808 16.307C49.895 16.482 49.931 16.598 50.012 16.64C50.032 16.65 50.054 16.655 50.078 16.655C50.15 16.655 50.229 16.603 50.251 16.471C50.28 16.297 50.209 15.983 50.158 15.738C50.113 15.528 50.081 15.37 50.139 15.37C50.149 15.37 50.16 15.374 50.176 15.383C50.28 15.447 50.525 15.75 50.682 15.971C50.839 16.192 50.909 16.332 51.048 16.384C51.089 16.399 51.134 16.407 51.182 16.407C51.302 16.407 51.437 16.358 51.535 16.251C51.66 16.115 51.726 15.883 51.755 15.503C52.22 16.398 52.637 17.321 53.003 18.269H52.346C52.084 18.269 51.933 18.269 51.945 18.374C51.957 18.478 52.131 18.688 52.259 18.897C52.387 19.107 52.468 19.316 52.509 19.479C52.55 19.642 52.55 19.758 52.41 19.834C52.323 19.88 52.182 19.912 52.025 19.912Z" fill="#397BA8"/>
<path fill-rule="evenodd" clip-rule="evenodd" d="M35.287 1.84796C34.233 1.53296 33.153 1.27795 32.051 1.08995C32.036 1.08695 32.021 1.08396 32.007 1.07996C33.13 1.26796 34.232 1.52496 35.304 1.84496C35.299 1.84596 35.293 1.84696 35.287 1.84796Z" fill="#002847"/>
<path fill-rule="evenodd" clip-rule="evenodd" d="M35.07 1.87798C34.042 1.55298 33.046 1.32097 32.051 1.08997C33.153 1.27797 34.233 1.53198 35.287 1.84798C35.215 1.85798 35.142 1.86798 35.07 1.87798Z" fill="#397BA8"/>
<path fill-rule="evenodd" clip-rule="evenodd" d="M50.079 16.654C50.056 16.654 50.033 16.649 50.013 16.639C49.932 16.597 49.896 16.482 49.809 16.306C49.74 16.167 49.636 15.991 49.521 15.819C47.963 11.798 45.097 7.98 40.653 4.73C38.6 3.229 36.789 2.422 35.07 1.877C35.142 1.867 35.215 1.857 35.287 1.847C35.293 1.846 35.299 1.84499 35.305 1.84399C42.455 3.97999 48.376 8.96 51.757 15.472C51.757 15.482 51.756 15.493 51.755 15.501C51.727 15.881 51.66 16.113 51.535 16.249C51.437 16.356 51.302 16.405 51.182 16.405C51.134 16.405 51.088 16.397 51.048 16.382C50.909 16.33 50.839 16.19 50.682 15.969C50.525 15.748 50.28 15.445 50.176 15.381C50.161 15.372 50.149 15.368 50.139 15.368C50.081 15.368 50.113 15.526 50.158 15.736C50.21 15.981 50.28 16.295 50.251 16.469C50.229 16.602 50.151 16.654 50.079 16.654Z" fill="#598F65"/>
<path fill-rule="evenodd" clip-rule="evenodd" d="M53.108 18.5199C53.105 18.5089 53.101 18.4989 53.097 18.4879C53.101 18.4979 53.105 18.5099 53.108 18.5199ZM53.036 18.3269C53.035 18.3259 53.035 18.3249 53.035 18.3229C53.035 18.3239 53.036 18.3259 53.036 18.3269ZM53.022 18.2899C53.022 18.2889 53.021 18.2889 53.021 18.2889L53.022 18.2899Z" fill="#002847"/>
<path fill-rule="evenodd" clip-rule="evenodd" d="M47.733 46.4329C47.735 46.4189 47.738 46.4049 47.742 46.3909C47.77 46.2609 47.8 46.1389 47.831 46.0249C47.953 45.5889 48.104 45.2979 48.314 44.9959C48.523 44.6929 48.791 44.3789 48.989 44.0999C49.187 43.8199 49.315 43.5759 49.74 42.9359C50.164 42.2959 50.886 41.2599 51.299 40.2719C51.712 39.2819 51.817 38.3399 51.95 37.7519C52.084 37.1649 52.247 36.9319 52.27 36.6529C52.294 36.3739 52.177 36.0479 52.002 35.9079C51.933 35.8529 51.856 35.8269 51.77 35.8269C51.638 35.8269 51.487 35.8879 51.322 35.9999C51.049 36.1859 50.734 36.5119 50.508 36.8609C50.281 37.2099 50.141 37.5829 50.002 37.8149C49.875 38.0249 49.75 38.1209 49.65 38.1209C49.639 38.1209 49.628 38.1199 49.618 38.1179C49.513 38.0949 49.444 37.9549 49.199 37.7219C48.954 37.4889 48.536 37.1639 48.274 36.7799C48.014 36.3989 47.909 35.9609 47.799 35.6479C50.808 30.1179 51.884 23.7009 50.127 17.6169C50.164 17.6509 50.199 17.6959 50.234 17.7489C50.374 17.9639 50.502 18.3249 50.63 18.6339C50.758 18.9419 50.886 19.1979 51.067 19.4129C51.247 19.6279 51.48 19.8029 51.736 19.8729C51.832 19.8989 51.932 19.9109 52.026 19.9109C52.182 19.9109 52.323 19.8789 52.41 19.8319C52.55 19.7559 52.55 19.6399 52.509 19.4769C52.468 19.3139 52.387 19.1049 52.259 18.8949C52.131 18.6859 51.957 18.4759 51.945 18.3719C51.933 18.2669 52.085 18.2669 52.346 18.2669H53.014C53.017 18.2739 53.019 18.2799 53.022 18.2879L53.023 18.2889C53.027 18.2999 53.031 18.3109 53.036 18.3219C53.037 18.3239 53.037 18.3259 53.037 18.3259C53.047 18.3539 53.058 18.3819 53.069 18.4089C53.072 18.4169 53.075 18.4249 53.078 18.4329C53.08 18.4379 53.082 18.4429 53.084 18.4479C53.087 18.4569 53.09 18.4659 53.094 18.4739C53.096 18.4789 53.097 18.4829 53.099 18.4869C53.103 18.4979 53.107 18.5079 53.11 18.5189C53.112 18.5209 53.112 18.5239 53.113 18.5259C53.762 20.2699 54.238 22.0989 54.52 23.9899V32.1309C53.704 37.5929 51.274 42.5269 47.733 46.4329Z" fill="#598F65"/>
<path fill-rule="evenodd" clip-rule="evenodd" d="M2.791 42.441C7.119 42.441 11.447 42.441 15.776 42.441C15.92 42.192 16.063 41.943 16.011 41.695C15.959 41.447 15.711 41.2 15.426 41.076C15.14 40.952 14.815 40.952 14.562 41.005C14.308 41.058 14.124 41.163 13.941 41.268C14.044 40.799 14.147 40.33 14.045 39.894C13.944 39.457 13.639 39.053 13.232 38.903C12.825 38.753 12.316 38.858 12.016 39.072C11.716 39.286 11.625 39.61 11.579 39.858C11.534 40.106 11.534 40.277 11.551 39.975C11.569 39.672 11.603 38.895 11.441 38.319C11.279 37.743 10.92 37.368 10.494 37.173C10.068 36.977 9.576 36.961 9.181 37.109C8.785 37.256 8.489 37.567 8.356 37.927C8.223 38.288 8.255 38.699 8.309 39.031C8.362 39.363 8.437 39.617 8.512 39.87C8.448 39.763 8.384 39.656 8.223 39.521C8.062 39.385 7.805 39.222 7.518 39.173C7.231 39.123 6.914 39.188 6.694 39.318C6.474 39.448 6.352 39.643 6.299 39.832C6.245 40.021 6.26 40.203 6.291 40.34C6.322 40.477 6.368 40.567 6.415 40.658C6.369 40.567 6.322 40.477 6.002 40.344C5.682 40.211 5.088 40.037 4.663 40.122C4.237 40.208 3.98 40.553 3.941 40.854C3.902 41.155 4.081 41.412 4.203 41.553C4.325 41.694 4.39 41.72 4.455 41.746C4.269 41.696 4.082 41.645 3.753 41.587C3.424 41.529 2.951 41.465 2.693 41.584C2.435 41.702 2.393 42.004 2.445 42.177C2.496 42.349 2.643 42.395 2.791 42.441Z" fill="white"/>
<path fill-rule="evenodd" clip-rule="evenodd" d="M33.648 48.2059C38.349 48.2059 43.05 48.2059 47.751 48.2059C47.907 47.9359 48.063 47.666 48.006 47.397C47.949 47.127 47.681 46.859 47.37 46.724C47.059 46.59 46.706 46.59 46.431 46.647C46.156 46.704 45.957 46.818 45.758 46.933C45.87 46.423 45.982 45.915 45.871 45.44C45.762 44.965 45.43 44.526 44.988 44.363C44.546 44.2 43.993 44.3139 43.667 44.5469C43.341 44.7789 43.242 45.1309 43.193 45.3999C43.143 45.6689 43.143 45.8549 43.162 45.5269C43.181 45.1979 43.219 44.355 43.043 43.729C42.867 43.104 42.477 42.6959 42.015 42.4839C41.552 42.2719 41.017 42.254 40.588 42.414C40.159 42.574 39.836 42.9119 39.692 43.3029C39.548 43.6949 39.583 44.141 39.642 44.502C39.7 44.863 39.781 45.1379 39.863 45.4129C39.793 45.2969 39.723 45.1809 39.549 45.0339C39.375 44.8869 39.095 44.709 38.783 44.656C38.471 44.602 38.127 44.6729 37.888 44.8139C37.65 44.9549 37.517 45.1669 37.459 45.3719C37.401 45.5769 37.417 45.7749 37.451 45.9239C37.485 46.0719 37.535 46.1699 37.585 46.2689C37.535 46.1699 37.484 46.0719 37.137 45.9279C36.789 45.7839 36.144 45.5939 35.682 45.6869C35.22 45.7799 34.941 46.1549 34.899 46.4819C34.857 46.8089 35.051 47.0879 35.183 47.2409C35.315 47.3949 35.386 47.423 35.456 47.451C35.254 47.396 35.052 47.34 34.694 47.278C34.336 47.215 33.822 47.146 33.543 47.274C33.263 47.403 33.217 47.73 33.273 47.919C33.329 48.107 33.488 48.1569 33.648 48.2059Z" fill="white"/>
<path fill-rule="evenodd" clip-rule="evenodd" d="M46.36 22.143C49.977 22.143 53.593 22.143 57.21 22.143C57.33 21.935 57.45 21.728 57.406 21.52C57.363 21.312 57.156 21.106 56.916 21.003C56.677 20.9 56.406 20.8999 56.194 20.9429C55.982 20.9869 55.829 21.075 55.676 21.163C55.762 20.771 55.848 20.379 55.763 20.015C55.678 19.65 55.423 19.312 55.083 19.186C54.743 19.061 54.318 19.148 54.067 19.327C53.816 19.506 53.741 19.7769 53.702 19.9839C53.664 20.1909 53.664 20.334 53.679 20.082C53.694 19.829 53.723 19.18 53.587 18.698C53.452 18.217 53.152 17.904 52.796 17.741C52.441 17.577 52.028 17.564 51.698 17.687C51.368 17.81 51.12 18.07 51.009 18.371C50.898 18.672 50.925 19.015 50.97 19.293C51.015 19.571 51.078 19.782 51.14 19.994C51.086 19.905 51.033 19.815 50.898 19.702C50.764 19.589 50.549 19.453 50.309 19.411C50.069 19.37 49.804 19.424 49.621 19.533C49.437 19.642 49.335 19.805 49.29 19.962C49.246 20.12 49.258 20.2729 49.284 20.3869C49.31 20.5009 49.348 20.5769 49.388 20.6519C49.349 20.5769 49.31 20.501 49.043 20.39C48.776 20.279 48.28 20.1329 47.924 20.2059C47.569 20.2769 47.354 20.5659 47.321 20.8179C47.288 21.0689 47.438 21.283 47.54 21.401C47.642 21.52 47.695 21.541 47.75 21.563C47.595 21.52 47.439 21.4779 47.164 21.4299C46.889 21.3819 46.494 21.328 46.279 21.427C46.063 21.526 46.028 21.778 46.071 21.923C46.114 22.067 46.237 22.105 46.36 22.143Z" fill="white"/>
<path fill-rule="evenodd" clip-rule="evenodd" d="M26.946 11.8609C31.647 11.8609 36.347 11.8609 41.048 11.8609C41.204 11.5919 41.36 11.3219 41.303 11.0519C41.246 10.7829 40.977 10.5139 40.667 10.3799C40.356 10.2449 40.004 10.2449 39.729 10.3029C39.453 10.3599 39.254 10.4739 39.055 10.5879C39.166 10.0789 39.278 9.56889 39.168 9.09489C39.058 8.62089 38.727 8.18189 38.284 8.01889C37.842 7.85589 37.289 7.96889 36.964 8.20289C36.638 8.43589 36.539 8.7879 36.49 9.0569C36.441 9.3249 36.441 9.51089 36.459 9.18289C36.478 8.85489 36.516 8.01089 36.34 7.38589C36.164 6.75989 35.774 6.3529 35.311 6.1409C34.849 5.9279 34.314 5.91089 33.884 6.07089C33.455 6.23089 33.132 6.5679 32.988 6.9599C32.843 7.3519 32.879 7.7979 32.937 8.1579C32.995 8.5189 33.077 8.7939 33.158 9.0699C33.088 8.9529 33.018 8.83689 32.844 8.68989C32.67 8.54289 32.39 8.36589 32.078 8.31189C31.766 8.25889 31.422 8.32889 31.183 8.46989C30.944 8.61089 30.812 8.82289 30.754 9.02789C30.696 9.23289 30.712 9.43189 30.746 9.57989C30.779 9.72789 30.83 9.82689 30.88 9.92489C30.83 9.82689 30.779 9.72789 30.432 9.58389C30.084 9.43989 29.439 9.25089 28.977 9.34289C28.515 9.43589 28.236 9.8119 28.193 10.1389C28.151 10.4649 28.345 10.7439 28.477 10.8979C28.609 11.0509 28.68 11.0789 28.75 11.1079C28.548 11.0519 28.346 10.9969 27.988 10.9339C27.63 10.8719 27.117 10.8019 26.836 10.9319C26.556 11.0609 26.51 11.3879 26.566 11.5759C26.626 11.7629 26.786 11.8119 26.946 11.8609Z" fill="white"/>
<path fill-rule="evenodd" clip-rule="evenodd" d="M15.658 16.8759C15.621 16.8759 15.586 16.8379 15.556 16.7699C15.492 16.6249 15.456 16.3459 15.375 15.9729C15.294 15.6009 15.166 15.1359 14.799 14.7859C14.432 14.4359 13.827 14.2049 13.478 14.0709C13.129 13.9369 13.036 13.9019 13.001 13.7569C12.966 13.6109 12.989 13.3549 13.006 13.1169C13.024 12.8779 13.035 12.6569 13.122 12.4299C13.21 12.2029 13.372 11.9709 13.605 11.7669C13.838 11.5629 14.14 11.3889 14.303 11.2319C14.467 11.0749 14.49 10.9349 14.652 10.6959C14.815 10.4579 15.118 10.1199 15.344 9.99792C15.422 9.95592 15.491 9.93993 15.556 9.93993C15.681 9.93993 15.792 10.0009 15.927 10.0619C16.061 10.1229 16.217 10.1849 16.382 10.1849C16.467 10.1849 16.555 10.1679 16.643 10.1259C16.899 10.0039 17.155 9.66692 17.172 9.41092C17.189 9.15492 16.968 8.97893 16.875 8.83493C16.782 8.68893 16.817 8.57292 17.003 8.51492C17.19 8.45592 17.527 8.45593 17.742 8.36293C17.957 8.26993 18.05 8.08393 18.12 7.82793C18.19 7.57193 18.237 7.24592 18.376 7.05992C18.488 6.91092 18.659 6.85193 18.831 6.85193C18.874 6.85193 18.916 6.85492 18.958 6.86192C19.167 6.89692 19.354 7.01393 19.406 7.26393C19.458 7.51493 19.377 7.89793 19.33 8.21793C19.284 8.53793 19.271 8.79392 19.132 9.02692C18.993 9.25892 18.725 9.46892 18.719 9.60892C18.714 9.74792 18.969 9.81793 19.254 9.97493C19.539 10.1319 19.854 10.3759 20.115 10.5099C20.238 10.5729 20.349 10.6109 20.448 10.6109C20.561 10.6109 20.66 10.5609 20.743 10.4399C20.9 10.2129 21.005 9.73593 21.144 9.35793C21.284 8.97993 21.458 8.70092 21.528 8.39192C21.598 8.08392 21.563 7.74692 21.388 7.55492C21.214 7.36292 20.899 7.31592 20.765 7.21092C20.631 7.10692 20.678 6.94393 20.625 6.78693C20.573 6.62993 20.421 6.47792 20.363 6.33292C20.304 6.18792 20.34 6.04793 20.334 5.86693C20.328 5.68693 20.282 5.46592 20.166 5.30292C20.049 5.13992 19.863 5.03593 19.526 5.00093C19.425 4.98993 19.311 4.98592 19.189 4.98592C18.904 4.98592 18.58 5.00892 18.298 5.02992C18.131 5.04192 17.979 5.05292 17.853 5.05292C17.728 5.05292 17.63 5.04193 17.569 5.01093C17.821 4.89293 18.072 4.78093 18.322 4.67493C18.343 4.67493 18.364 4.67493 18.385 4.67493C18.629 4.67493 18.961 4.66292 19.307 4.65192C19.653 4.63992 20.014 4.62793 20.276 4.60193C20.538 4.57593 20.7 4.53492 20.878 4.38992C21.055 4.24392 21.248 3.99392 21.495 3.82492C21.681 3.69892 21.898 3.61792 22.062 3.61792C22.117 3.61792 22.165 3.62593 22.205 3.64493C22.365 3.72093 22.382 3.95892 22.379 4.21492C22.376 4.47092 22.353 4.74492 22.408 5.01192C22.463 5.27992 22.597 5.54192 22.637 5.73692C22.678 5.93092 22.626 6.05992 22.587 6.14992C22.55 6.23992 22.526 6.29193 22.66 6.33893C22.794 6.38493 23.085 6.42593 23.233 6.48993C23.382 6.55393 23.388 6.64092 23.268 6.77792C23.148 6.91492 22.904 7.10093 22.881 7.34793C22.858 7.59493 23.056 7.90393 23.268 8.29593C23.481 8.68893 23.707 9.16592 23.99 9.52992C24.272 9.89292 24.61 10.1439 25.034 10.3089C25.369 10.4399 25.759 10.5189 26.03 10.5189C26.059 10.5189 26.087 10.5179 26.114 10.5159C25.199 11.6949 23.986 12.8979 22.538 14.0279C22.27 13.6959 22.013 13.3739 21.77 13.0179C21.397 12.4709 21.06 11.8419 20.781 11.5809C20.667 11.4729 20.561 11.4279 20.464 11.4279C20.324 11.4279 20.197 11.5219 20.078 11.6619C19.874 11.9009 19.688 12.2729 19.508 12.4769C19.403 12.5959 19.299 12.6569 19.226 12.6569C19.175 12.6569 19.139 12.6269 19.129 12.5639C19.106 12.4129 19.233 12.0749 19.292 11.8139C19.351 11.5519 19.339 11.3649 19.188 11.1269C19.037 10.8879 18.746 10.5979 18.524 10.4869C18.462 10.4559 18.405 10.4389 18.35 10.4389C18.21 10.4389 18.082 10.5479 17.908 10.8079C17.663 11.1689 17.325 11.8199 17.198 12.3209C17.07 12.8209 17.151 13.1699 17.175 13.4429C17.198 13.7169 17.163 13.9149 17 14.0949C16.837 14.2749 16.546 14.4379 16.349 14.6829C16.151 14.9269 16.047 15.2529 15.971 15.6419C15.895 16.0309 15.848 16.4849 15.779 16.7059C15.745 16.8249 15.701 16.8759 15.658 16.8759ZM26.419 10.1139C27.935 8.01192 28.464 6.02392 27.635 4.70692C27.336 4.23192 26.883 3.87893 26.306 3.64293C26.315 3.67193 26.312 3.69993 26.295 3.72293C26.237 3.80093 26.022 3.84192 25.914 3.88492C25.806 3.92892 25.806 3.97593 25.943 4.04593C26.08 4.11493 26.353 4.20793 26.589 4.31293C26.825 4.41793 27.023 4.53393 27.203 4.71193C27.384 4.88893 27.547 5.12793 27.587 5.31093C27.628 5.49393 27.546 5.62192 27.378 5.73592C27.209 5.84892 26.954 5.94793 26.857 6.12793C26.761 6.30893 26.825 6.57093 26.854 6.76793C26.883 6.96593 26.877 7.10092 26.772 7.17892C26.667 7.25692 26.464 7.27992 26.341 7.34392C26.219 7.40792 26.178 7.51293 26.161 7.81493C26.144 8.11793 26.149 8.61792 26.199 9.02592C26.249 9.43292 26.342 9.74692 26.397 9.99992C26.406 10.0399 26.413 10.0779 26.419 10.1139Z" fill="#85B0B2"/>
<path fill-rule="evenodd" clip-rule="evenodd" d="M10.903 18.856C9.281 18.856 8.038 18.394 7.432 17.431C5.87 14.951 9.127 10.093 14.707 6.57799C15.664 5.97499 16.627 5.45198 17.574 5.00998C17.636 5.04098 17.734 5.05199 17.858 5.05199C17.983 5.05199 18.135 5.04099 18.303 5.02899C18.584 5.00799 18.909 4.98499 19.194 4.98499C19.316 4.98499 19.43 4.98898 19.531 4.99998C19.868 5.03498 20.054 5.13899 20.171 5.30199C20.287 5.46499 20.334 5.68598 20.339 5.86598C20.345 6.04698 20.31 6.18699 20.368 6.33199C20.426 6.47699 20.577 6.62898 20.63 6.78598C20.682 6.94298 20.636 7.10599 20.77 7.20999C20.904 7.31499 21.218 7.36199 21.393 7.55399C21.567 7.74599 21.602 8.08299 21.533 8.39099C21.463 8.69999 21.288 8.97898 21.149 9.35698C21.009 9.73498 20.905 10.212 20.748 10.439C20.665 10.56 20.566 10.61 20.453 10.61C20.353 10.61 20.243 10.572 20.12 10.509C19.859 10.375 19.544 10.131 19.259 9.97398C18.974 9.81698 18.718 9.74699 18.724 9.60799C18.73 9.46799 18.998 9.25799 19.137 9.02599C19.277 8.79299 19.289 8.53698 19.335 8.21698C19.381 7.89698 19.462 7.51299 19.411 7.26299C19.358 7.01299 19.172 6.89598 18.963 6.86098C18.921 6.85398 18.879 6.85098 18.836 6.85098C18.665 6.85098 18.493 6.90999 18.381 7.05899C18.242 7.24499 18.195 7.57098 18.125 7.82698C18.055 8.08298 17.962 8.26898 17.747 8.36198C17.532 8.45498 17.194 8.45499 17.008 8.51399C16.822 8.57199 16.787 8.68798 16.88 8.83398C16.973 8.97898 17.194 9.15399 17.177 9.40999C17.159 9.66599 16.903 10.003 16.648 10.125C16.561 10.167 16.472 10.184 16.387 10.184C16.222 10.184 16.066 10.122 15.932 10.061C15.798 9.99999 15.686 9.93898 15.561 9.93898C15.496 9.93898 15.427 9.95498 15.349 9.99698C15.122 10.119 14.82 10.457 14.657 10.695C14.494 10.934 14.471 11.074 14.308 11.231C14.145 11.388 13.843 11.562 13.61 11.766C13.378 11.97 13.215 12.202 13.127 12.429C13.04 12.656 13.028 12.877 13.011 13.116C12.994 13.354 12.97 13.61 13.006 13.756C13.041 13.901 13.133 13.936 13.483 14.07C13.832 14.204 14.437 14.436 14.804 14.785C15.17 15.135 15.299 15.6 15.38 15.972C15.461 16.345 15.496 16.624 15.561 16.769C15.591 16.837 15.626 16.875 15.663 16.875C15.706 16.875 15.75 16.824 15.788 16.705C15.857 16.484 15.904 16.03 15.98 15.641C16.056 15.251 16.16 14.925 16.358 14.682C16.556 14.436 16.846 14.274 17.009 14.094C17.172 13.914 17.207 13.716 17.184 13.442C17.161 13.169 17.08 12.82 17.207 12.32C17.335 11.819 17.672 11.168 17.917 10.807C18.092 10.548 18.22 10.438 18.359 10.438C18.414 10.438 18.471 10.455 18.533 10.486C18.754 10.597 19.045 10.887 19.197 11.126C19.348 11.364 19.36 11.551 19.301 11.813C19.243 12.074 19.116 12.412 19.138 12.563C19.148 12.626 19.183 12.656 19.235 12.656C19.308 12.656 19.411 12.595 19.517 12.476C19.697 12.272 19.884 11.9 20.087 11.661C20.207 11.521 20.333 11.427 20.473 11.427C20.571 11.427 20.676 11.472 20.79 11.58C21.069 11.841 21.407 12.47 21.779 13.017C22.022 13.372 22.279 13.695 22.547 14.027C21.869 14.557 21.14 15.07 20.366 15.558C16.949 17.708 13.457 18.856 10.903 18.856Z" fill="#DACB70"/>
<path fill-rule="evenodd" clip-rule="evenodd" d="M26.035 10.519C25.764 10.519 25.374 10.44 25.039 10.309C24.615 10.144 24.277 9.892 23.995 9.53C23.713 9.166 23.486 8.68901 23.273 8.29601C23.061 7.90401 22.863 7.59501 22.886 7.34801C22.909 7.10101 23.153 6.915 23.273 6.778C23.393 6.641 23.387 6.55401 23.238 6.49001C23.09 6.42601 22.799 6.385 22.665 6.339C22.531 6.292 22.555 6.23999 22.592 6.14999C22.631 6.05999 22.683 5.931 22.642 5.737C22.601 5.542 22.468 5.27999 22.413 5.01199C22.358 4.74499 22.381 4.472 22.384 4.215C22.387 3.959 22.369 3.721 22.21 3.645C22.17 3.626 22.122 3.618 22.067 3.618C21.903 3.618 21.686 3.699 21.5 3.825C21.253 3.994 21.061 4.244 20.883 4.39C20.705 4.535 20.543 4.576 20.281 4.60201C20.019 4.62801 19.658 4.63999 19.312 4.65199C18.966 4.66299 18.634 4.675 18.39 4.675C18.369 4.675 18.348 4.675 18.327 4.675C20.481 3.759 22.519 3.28101 24.166 3.28101C24.988 3.28101 25.713 3.40001 26.308 3.64301C26.317 3.67201 26.314 3.70001 26.297 3.72301C26.239 3.80101 26.024 3.84199 25.916 3.88499C25.808 3.92899 25.808 3.97601 25.945 4.04601C26.082 4.11501 26.355 4.208 26.591 4.313C26.827 4.418 27.025 4.53401 27.205 4.71201C27.386 4.88901 27.549 5.128 27.589 5.311C27.63 5.494 27.548 5.62199 27.38 5.73599C27.211 5.84899 26.956 5.94801 26.859 6.12801C26.763 6.30901 26.827 6.57101 26.856 6.76801C26.885 6.96601 26.879 7.101 26.774 7.179C26.669 7.257 26.466 7.27999 26.343 7.34399C26.221 7.40799 26.18 7.513 26.163 7.815C26.146 8.118 26.151 8.618 26.201 9.026C26.251 9.433 26.344 9.747 26.399 10C26.407 10.039 26.415 10.077 26.421 10.113C26.325 10.246 26.224 10.381 26.12 10.515C26.092 10.518 26.064 10.519 26.035 10.519Z" fill="#DACB70"/>
<path fill-rule="evenodd" clip-rule="evenodd" d="M0.42 21.8269C5.121 21.8269 9.821 21.8269 14.522 21.8269C14.678 21.5569 14.833 21.2869 14.777 21.0179C14.72 20.7489 14.452 20.4799 14.141 20.3449C13.83 20.2109 13.478 20.2109 13.202 20.2679C12.927 20.3249 12.727 20.4389 12.528 20.5539C12.64 20.0439 12.752 19.5349 12.641 19.0609C12.531 18.5859 12.2 18.1469 11.758 17.9839C11.316 17.8209 10.763 17.9349 10.437 18.1679C10.111 18.3999 10.012 18.7519 9.963 19.0209C9.913 19.2899 9.913 19.4769 9.932 19.1479C9.951 18.8189 9.989 17.9759 9.813 17.3499C9.637 16.7249 9.248 16.3169 8.785 16.1049C8.323 15.8929 7.787 15.8749 7.358 16.0349C6.929 16.1949 6.605 16.5329 6.462 16.9239C6.318 17.3159 6.353 17.7619 6.411 18.1229C6.469 18.4839 6.551 18.7589 6.632 19.0339C6.562 18.9169 6.492 18.8019 6.318 18.6549C6.144 18.5079 5.864 18.3299 5.552 18.2769C5.24 18.2229 4.896 18.2939 4.657 18.4349C4.418 18.5759 4.285 18.7879 4.227 18.9929C4.169 19.1979 4.185 19.3959 4.219 19.5449C4.253 19.6929 4.303 19.7909 4.354 19.8899C4.303 19.7909 4.253 19.6929 3.905 19.5489C3.557 19.4049 2.913 19.2149 2.451 19.3079C1.989 19.4009 1.709 19.7759 1.667 20.1029C1.624 20.4299 1.819 20.7089 1.951 20.8619C2.083 21.0159 2.154 21.0439 2.224 21.0719C2.022 21.0169 1.819 20.9619 1.462 20.8989C1.104 20.8359 0.591001 20.7669 0.311001 20.8949C0.0310009 21.0239 -0.0159995 21.3509 0.0410005 21.5399C0.1 21.7279 0.26 21.7769 0.42 21.8269Z" fill="white"/>
</svg>

