<?xml version="1.0" encoding="UTF-8" standalone="no"?>
<svg
   width="57.39558"
   height="54.714043"
   viewBox="0 0 57.39558 54.714043"
   fill="none"
   version="1.1"
   id="svg70"
   sodipodi:docname="earth.svg"
   inkscape:version="1.2.2 (b0a8486541, 2022-12-01)"
   xmlns:inkscape="http://www.inkscape.org/namespaces/inkscape"
   xmlns:sodipodi="http://sodipodi.sourceforge.net/DTD/sodipodi-0.dtd"
   xmlns="http://www.w3.org/2000/svg"
   xmlns:svg="http://www.w3.org/2000/svg">
  <defs
     id="defs74" />
  <sodipodi:namedview
     id="namedview72"
     pagecolor="#ffffff"
     bordercolor="#000000"
     borderopacity="0.25"
     inkscape:showpageshadow="2"
     inkscape:pageopacity="0.0"
     inkscape:pagecheckerboard="0"
     inkscape:deskcolor="#d1d1d1"
     showgrid="false"
     inkscape:zoom="6.0632911"
     inkscape:cx="5.1127349"
     inkscape:cy="38.922756"
     inkscape:window-width="1280"
     inkscape:window-height="651"
     inkscape:window-x="0"
     inkscape:window-y="32"
     inkscape:window-maximized="1"
     inkscape:current-layer="svg70" />
  <path
     fill-rule="evenodd"
     clip-rule="evenodd"
     d="m 27.441286,54.714044 c 15.068,0 27.357,-12.29 27.357,-27.357 C 54.798286,12.290044 42.508286,0 27.441286,0 12.374286,0 0.08428963,12.290044 0.08428963,27.357044 c 0,15.067 12.28999637,27.357 27.35699637,27.357 z"
     fill="#4298ca"
     id="path2" />
  <path
     fill-rule="evenodd"
     clip-rule="evenodd"
     d="m 19.073286,20.940944 c 0.122,-0.122 0.25,-0.216 0.437,-0.134 0.186,0.081 0.43,0.336 0.617,0.336 0.186,0 0.314,-0.256 0.704,-0.599 0.39,-0.343 1.042,-0.774 1.332,-1.123 0.291,-0.349 0.221,-0.616 0.064,-0.651 -0.157,-0.035 -0.401,0.163 -0.623,0.208 -0.221,0.047 -0.418,-0.058 -0.582,-0.198 -0.163,-0.139 -0.291,-0.314 -0.175,-0.506 0.117,-0.192 0.477,-0.401 0.634,-0.675 0.157,-0.273 0.111,-0.611 -0.221,-0.68 -0.331,-0.07 -0.948,0.128 -1.448,0.482 -0.5,0.355 -0.885,0.867 -1.059,0.978 -0.175,0.11 -0.14,-0.181 0.064,-0.454 0.204,-0.273 0.576,-0.529 1.053,-0.791 0.477,-0.262 1.059,-0.53 1.646,-0.762 0.587,-0.233 1.181,-0.432 1.64,-0.541 0.46,-0.111 0.786,-0.134 0.728,-0.46 -0.058,-0.326 -0.5,-0.954 -0.925,-1.501 -0.424,-0.547 -0.832,-1.012 -1.204,-1.559 -0.373,-0.547 -0.71,-1.176 -0.989,-1.437 -0.279,-0.262 -0.5,-0.157 -0.704,0.081 -0.204,0.239 -0.39,0.611 -0.57,0.815 -0.18,0.203 -0.355,0.238 -0.378,0.087 -0.023,-0.151 0.104,-0.489 0.163,-0.75 0.059,-0.262 0.047,-0.449 -0.104,-0.687 -0.151,-0.239 -0.442,-0.529 -0.664,-0.64 -0.221,-0.111 -0.373,-0.041 -0.616,0.32 -0.245,0.361 -0.583,1.012 -0.71,1.513 -0.128,0.5 -0.047,0.849 -0.023,1.122 0.023,0.274 -0.012,0.472 -0.175,0.652 -0.163,0.18 -0.454,0.343 -0.651,0.588 -0.198,0.244 -0.302,0.57 -0.378,0.959 -0.076,0.389 -0.123,0.843 -0.192,1.064 -0.07,0.221 -0.163,0.21 -0.227,0.064 -0.064,-0.145 -0.1,-0.424 -0.181,-0.797 -0.081,-0.372 -0.209,-0.837 -0.576,-1.187 -0.367,-0.35 -0.972,-0.581 -1.321,-0.715 -0.349,-0.134 -0.442,-0.169 -0.477,-0.314 -0.035,-0.146 -0.012,-0.402 0.005,-0.64 0.018,-0.239 0.029,-0.46 0.116,-0.687 0.088,-0.227 0.25,-0.459 0.483,-0.663 0.233,-0.204 0.535,-0.378 0.698,-0.535 0.164,-0.157 0.187,-0.297 0.349,-0.536 0.163,-0.238 0.466,-0.576 0.692,-0.69798 0.228,-0.122 0.379,-0.02899 0.583,0.06398 0.203,0.093 0.459,0.187 0.715,0.064 0.256,-0.122 0.512,-0.45897 0.529,-0.71497 0.017,-0.256 -0.204,-0.43201 -0.297,-0.57601 -0.093,-0.146 -0.058,-0.262 0.128,-0.32 0.187,-0.059 0.524,-0.059 0.739,-0.152 0.215,-0.093 0.308,-0.279 0.378,-0.535 0.07,-0.256 0.117,-0.58199 0.256,-0.76799 0.14,-0.186 0.373,-0.23301 0.582,-0.19801 0.209,0.035 0.396,0.15201 0.448,0.40201 0.052,0.251 -0.029,0.63399 -0.076,0.95399 -0.046,0.32 -0.059,0.57601 -0.198,0.80901 -0.139,0.232 -0.407,0.442 -0.413,0.582 -0.005,0.139 0.25,0.20899 0.535,0.36599 0.285,0.15698 0.6,0.40098 0.861,0.53498 0.262,0.134 0.472,0.157 0.629,-0.07 0.157,-0.227 0.262,-0.70398 0.401,-1.08198 0.14,-0.378 0.314,-0.65699 0.384,-0.96599 0.07,-0.308 0.035,-0.645 -0.14,-0.837 -0.174,-0.192 -0.489,-0.23901 -0.623,-0.34401 -0.134,-0.104 -0.087,-0.267 -0.14,-0.424 -0.052,-0.157 -0.204,-0.30899 -0.262,-0.45399 -0.059,-0.145 -0.023,-0.28501 -0.029,-0.46601 -0.006,-0.18 -0.052,-0.40099 -0.168,-0.56399 -0.117,-0.163 -0.303,-0.26701 -0.64,-0.30201 -0.338,-0.035 -0.827,0 -1.228,0.029 -0.402,0.029 -0.715,0.052 -0.786,-0.07 -0.07,-0.122 0.104,-0.38999 -0.11,-0.48899 -0.215,-0.1 -0.82,-0.029 -1.321,0.216 -0.5,0.244 -0.896,0.66299 -1.135,1.02399 -0.238,0.36 -0.32,0.66301 -0.454,0.76701 -0.134,0.105 -0.32,0.01199 -0.414,-0.11601 -0.092,-0.128 -0.092,-0.291 -0.209,-0.39 -0.116,-0.099 -0.349,-0.13399 -0.599,-0.14499 -0.25,-0.012 -0.518,-10e-6 -0.238,-0.18601 0.279,-0.187 1.105,-0.57 1.337,-0.826 0.219,-0.241 -0.091,-0.36699 -0.44,-0.53799 -3.2,1.824 -5.9960004,4.275 -8.2200004,7.18597 0.248,0.087 0.486,0.058 0.801,-0.234 0.354,-0.329 0.809,-0.992 1.03,-1.24198 0.221,-0.251 0.209,-0.088 0.093,0.12798 -0.117,0.215 -0.337,0.483 -0.46,0.692 -0.122,0.209 -0.145,0.361 -0.209,0.582 -0.064,0.221 -0.169,0.512 -0.279,0.728 -0.111,0.215 -0.228,0.354 -0.53,0.948 -0.302,0.594 -0.791,1.641 -1.123,2.327 -0.333,0.687 -0.506,1.013 -0.594,1.298 -0.087,0.285 -0.087,0.529 -0.087,0.791 0,0.262 0,0.541 -0.239,1.024 -0.238,0.483 -0.715,1.17 -1.03,1.99 -0.314,0.82 -0.465,1.774 -0.54,2.496 -0.076,0.721 -0.076,1.21 0.034,1.582 0.111,0.373 0.332,0.628 0.448,0.85 0.116,0.221 0.128,0.407 0.076,0.738 -0.052,0.332 -0.168,0.809 -0.221,1.147 -0.052,0.337 -0.041,0.535 0.093,0.803 0.134,0.267 0.39,0.604 0.472,1.186 0.081,0.582 -0.012,1.408 0.035,1.856 0.046,0.448 0.232,0.518 0.372,0.78 0.14,0.262 0.232,0.715 0.5,1.268 0.268,0.553 0.71,1.204 0.943,1.438 0.232,0.233 0.255,0.046 0.163,-0.337 -0.093,-0.384 -0.303,-0.966 -0.495,-1.542 -0.192,-0.576 -0.367,-1.146 -0.483,-1.798 -0.116,-0.651 -0.174,-1.384 -0.163,-1.699 0.011,-0.314 0.093,-0.209 0.122,0.07 0.029,0.28 0.006,0.733 0.198,1.571 0.192,0.838 0.6,2.06 0.925,3.078 0.326,1.018 0.57,1.832 0.808,2.211 0.239,0.378 0.472,0.319 0.768,0.558 0.297,0.239 0.658,0.774 1.03,1.164 0.372,0.389 0.756,0.634 1.152,0.762 0.396,0.128 0.8030004,0.139 1.1580004,0.139 0.355,0 0.658,-0.011 0.983,0.193 0.326,0.203 0.675,0.622 1.088,0.878 0.413,0.256 0.89,0.349 1.332,0.692 0.442,0.344 0.85,0.937 1.187,1.327 0.337,0.39 0.605,0.576 0.89,0.651 0.285,0.076 0.588,0.04 0.699,0.14 0.11,0.099 0.029,0.332 0.146,0.372 0.116,0.041 0.43,-0.11 0.68,-0.244 0.25,-0.134 0.437,-0.25 0.763,-0.099 0.325,0.15 0.791,0.57 1.018,0.96 0.227,0.39 0.215,0.751 0.117,1.117 -0.099,0.367 -0.285,0.739 -0.326,1.123 -0.041,0.384 0.064,0.78 0.18,1.076 0.117,0.297 0.245,0.495 0.338,0.774 0.093,0.279 0.151,0.64 0.227,0.855 0.076,0.216 0.168,0.285 0.291,0.332 0.123,0.046 0.274,0.07 0.425,0.332 0.151,0.261 0.303,0.762 0.814,1.152 0.512,0.389 1.385,0.668 2.193,0.919 0.809,0.25 1.553,0.471 2.024,0.762 0.472,0.29 0.669,0.651 0.844,0.995 0.174,0.343 0.326,0.669 0.658,1.046 0.333,0.378 0.847,0.807 1.032,1.156 l 0.042,0.088 c 0.904,-0.022 1.797,-0.087 2.677,-0.194 l 0.006,-0.013 c 0.087,-0.198 0.239,-0.416 0.489,-0.659 0.25,-0.243 0.599,-0.511 0.855,-0.866 0.256,-0.355 0.419,-0.797 0.844,-1.175 0.424,-0.378 1.111,-0.692 1.5,-1.059 0.39,-0.366 0.483,-0.785 0.651,-1.303 0.169,-0.519 0.414,-1.135 0.844,-1.774 0.43,-0.64 1.047,-1.304 1.32,-1.688 0.273,-0.384 0.204,-0.488 -0.168,-0.663 -0.372,-0.174 -1.047,-0.419 -1.542,-0.547 -0.495,-0.128 -0.809,-0.139 -1.134,-0.151 -0.326,-0.012 -0.663,-0.023 -0.942,-0.122 -0.279,-0.099 -0.5,-0.285 -0.85,-0.314 -0.349,-0.03 -0.826,0.098 -1.222,0.221 -0.396,0.122 -0.71,0.238 -0.89,0.227 -0.181,-0.012 -0.227,-0.152 -0.244,-0.274 -0.018,-0.122 -0.006,-0.228 0.041,-0.378 0.046,-0.151 0.128,-0.35 0.104,-0.617 -0.023,-0.267 -0.151,-0.605 -0.355,-0.82 -0.204,-0.215 -0.483,-0.308 -0.954,-0.332 -0.171,-0.008 -0.368,-0.007 -0.576,-0.007 -0.366,0.002 -0.768,0.003 -1.134,-0.045 -0.576,-0.076 -1.064,-0.274 -1.373,-0.436 -0.308,-0.163 -0.436,-0.291 -0.558,-0.582 -0.123,-0.291 -0.239,-0.745 -0.431,-1.018 -0.192,-0.274 -0.46,-0.367 -0.739,-0.32 -0.279,0.046 -0.57,0.232 -0.849,0.36 -0.279,0.128 -0.547,0.198 -0.756,0.198 -0.209,0 -0.361,-0.07 -0.454,-0.164 -0.093,-0.093 -0.128,-0.208 -0.268,-0.343 -0.14,-0.134 -0.384,-0.285 -0.529,-0.209 -0.146,0.075 -0.192,0.378 -0.273,0.349 -0.082,-0.03 -0.198,-0.39 -0.35,-0.571 -0.151,-0.18 -0.337,-0.18 -0.64,-0.017 -0.303,0.163 -0.722,0.489 -0.96,0.733 -0.239,0.245 -0.296,0.407 -0.349,0.658 -0.053,0.25 -0.099,0.587 -0.14,0.744 -0.041,0.157 -0.076,0.134 -0.227,0.035 -0.151,-0.099 -0.419,-0.273 -0.599,-0.302 -0.181,-0.029 -0.274,0.087 -0.39,0.139 -0.116,0.053 -0.256,0.041 -0.459,-0.029 -0.204,-0.07 -0.471,-0.198 -0.721,-0.378 -0.25,-0.18 -0.483,-0.413 -0.646,-0.652 -0.163,-0.238 -0.256,-0.482 -0.274,-0.803 -0.017,-0.319 0.041,-0.715 0.07,-1.018 0.029,-0.302 0.029,-0.512 -0.215,-0.552 -0.244,-0.041 -0.733,0.087 -1.082,0.151 -0.349,0.064 -0.559,0.064 -0.698,0.006 -0.14,-0.058 -0.21,-0.175 -0.274,-0.378 -0.064,-0.204 -0.122,-0.495 -0.087,-0.85 0.036,-0.355 0.163,-0.774 0.204,-1.111 0.04,-0.338 -0.006,-0.593 -0.268,-0.692 -0.262,-0.099 -0.738,-0.041 -1.088,0.139 -0.349,0.181 -0.57,0.483 -0.709,0.797 -0.14,0.314 -0.198,0.64 -0.39,0.652 -0.192,0.012 -0.518,-0.291 -0.849,-0.721 -0.3320004,-0.431 -0.6690004,-0.99 -0.8790004,-1.397 -0.209,-0.407 -0.291,-0.663 -0.238,-1.262 0.052,-0.6 0.238,-1.542 0.564,-2.031 0.326,-0.488 0.7910004,-0.523 1.1980004,-0.471 0.408,0.052 0.756,0.192 0.972,0.076 0.215,-0.117 0.297,-0.489 0.471,-0.763 0.174,-0.273 0.442,-0.448 0.791,-0.378 0.349,0.07 0.78,0.384 1.112,0.698 0.332,0.314 0.564,0.629 0.803,1.024 0.238,0.396 0.483,0.873 0.634,0.995 0.151,0.122 0.209,-0.11 0.163,-0.39 -0.046,-0.279 -0.198,-0.605 -0.337,-0.977 -0.14,-0.372 -0.268,-0.791 -0.297,-1.198 -0.029,-0.408 0.041,-0.803 0.378,-1.269 0.338,-0.465 0.943,-1 1.24,-1.524 0.296,-0.524 0.285,-1.036 0.25,-1.443 -0.035,-0.407 -0.093,-0.71 -0.104,-0.925 -0.012,-0.215 0.023,-0.343 0.093,-0.425 0.07,-0.081 0.174,-0.116 0.256,-0.244 0.081,-0.128 0.139,-0.349 0.256,-0.617 0.116,-0.267 0.291,-0.582 0.57,-0.715 0.279,-0.134 0.663,-0.088 0.808,-0.285 0.146,-0.198 0.053,-0.64 0.064,-0.937 0.014,-0.295 0.131,-0.446 0.253,-0.568 z"
     fill="#bac448"
     id="path4" />
  <path
     fill-rule="evenodd"
     clip-rule="evenodd"
     d="m 22.642286,17.941944 c 0.009,0.177 0.084,0.334 0.195,0.329 0.11,-0.006 0.255,-0.174 0.401,-0.215 0.146,-0.041 0.291,0.047 0.506,0.16 0.215,0.114 0.5,0.253 0.771,0.282 0.271,0.029 0.526,-0.052 0.637,-0.195 0.11,-0.142 0.076,-0.346 -0.041,-0.529 -0.117,-0.183 -0.314,-0.346 -0.402,-0.532 -0.087,-0.187 -0.063,-0.396 -0.171,-0.539 -0.108,-0.142 -0.346,-0.218 -0.497,-0.273 -0.151,-0.055 -0.215,-0.09 -0.335,-0.148 -0.119,-0.059 -0.293,-0.14 -0.41,-0.059 -0.116,0.082 -0.174,0.326 -0.255,0.544 -0.082,0.219 -0.187,0.411 -0.269,0.606 -0.081,0.193 -0.139,0.391 -0.13,0.569 z"
     fill="#bac448"
     id="path6" />
  <path
     fill-rule="evenodd"
     clip-rule="evenodd"
     d="m 25.019286,9.603944 c 0.425,0.165 0.937,0.248 1.184,0.193 0.248,-0.056 0.23,-0.248 0.175,-0.501 -0.056,-0.25296 -0.148,-0.56697 -0.198,-0.97397 -0.049,-0.408 -0.055,-0.908 -0.038,-1.211 0.017,-0.302 0.058,-0.40699 0.18,-0.47099 0.123,-0.064 0.326,-0.08701 0.431,-0.16501 0.104,-0.079 0.11,-0.213 0.082,-0.411 -0.029,-0.197 -0.093,-0.459 0.003,-0.64 0.096,-0.18 0.352,-0.279 0.521,-0.392 0.169,-0.114 0.25,-0.242 0.209,-0.425 -0.041,-0.183 -0.204,-0.422 -0.384,-0.599 -0.18,-0.178 -0.378,-0.294 -0.614,-0.399 -0.235,-0.105 -0.509,-0.198 -0.646,-0.267 -0.137,-0.07 -0.137,-0.11699 -0.029,-0.16099 0.108,-0.043 0.323,-0.08401 0.381,-0.16201 0.058,-0.079 -0.041,-0.19499 -0.247,-0.27699 -0.207,-0.081 -0.521,-0.12801 -0.643,-0.21501 -0.123,-0.087 -0.052,-0.21499 -0.166,-0.28499 -0.113,-0.07 -0.41,-0.08201 -0.797,-0.11601 -0.387,-0.035 -0.864,-0.09399 -1.085,-0.18799 -0.221,-0.093 -0.186,-0.221 -0.003,-0.285 0.183,-0.064 0.515,-0.064 1.146,-0.067 0.631,-0.002 1.562,-0.008 2.153,-0.064 0.591,-0.055 0.841,-0.16001 0.337,-0.19701 -0.321,-0.025 -0.95,-0.021 -1.548,-0.018 -0.338,10e-4 -0.666,0.003 -0.922,0 -0.71,-0.009 -0.873,-0.05499 -0.966,-0.13399 -0.093,-0.078 -0.116,-0.189 -0.218,-0.261 -0.101,-0.073 -0.282,-0.10801 -0.378,-0.09401 -0.096,0.015 -0.107,0.079 -0.142,0.166 l -0.151,0.27101 c -0.058,0.073 -0.116,0.107 -0.233,0.131 -0.116,0.023 -0.291,0.035 -0.404,0.078 -0.113,0.044 -0.166,0.12 -0.229,0.245 -0.064,0.125 -0.14,0.29899 -0.303,0.35499 -0.104,0.035 -0.245,0.021 -0.377,0.008 -0.075,-0.008 -0.147,-0.01499 -0.21,-0.01399 -0.174,0.003 -0.273,0.072 -0.36,0.154 l -0.25,0.241 c -0.087,0.067 -0.186,0.10799 -0.393,0.15399 -0.207,0.047 -0.521,0.10001 -0.756,0.12601 -0.236,0.026 -0.392,0.026 -0.535,0.142 -0.143,0.116 -0.271,0.34899 -0.399,0.54699 -0.128,0.198 -0.255,0.361 -0.241,0.448 0.015,0.087 0.172,0.099 0.416,0.099 0.244,0 0.576,-0.01199 0.922,-0.02299 0.346,-0.012 0.707,-0.02401 0.969,-0.05001 0.262,-0.026 0.424,-0.06699 0.602,-0.21199 0.177,-0.146 0.37,-0.396 0.617,-0.565 0.247,-0.168 0.55,-0.25601 0.71,-0.18001 0.16,0.076 0.177,0.31401 0.174,0.57001 -0.003,0.256 -0.026,0.53 0.029,0.797 0.055,0.268 0.189,0.52999 0.229,0.72499 0.041,0.194 -0.011,0.32301 -0.05,0.41301 -0.037,0.09 -0.061,0.14199 0.073,0.18899 0.134,0.046 0.425,0.087 0.573,0.151 0.149,0.064 0.155,0.151 0.035,0.288 -0.12,0.137 -0.364,0.323 -0.387,0.57 -0.023,0.24701 0.175,0.556 0.387,0.948 0.213,0.393 0.439,0.87001 0.722,1.23401 0.279,0.364 0.617,0.61496 1.042,0.77996 z"
     fill="#bac448"
     id="path8" />
  <path
     fill-rule="evenodd"
     clip-rule="evenodd"
     d="m 39.576286,9.278044 c 0.107,0.245 0.178,0.46 0.212,0.661 0.035,0.2 0.035,0.386 0.09,0.526 0.055,0.14 0.166,0.233 0.317,0.37 0.151,0.136 0.343,0.317 0.492,0.474 0.148,0.157 0.253,0.29 0.346,0.401 0.093,0.111 0.175,0.198 0.271,0.224 0.096,0.026 0.207,-0.009 0.305,-0.16 0.1,-0.151 0.187,-0.419 0.297,-0.512 0.111,-0.093 0.245,-0.011 0.343,0.117 0.099,0.128 0.163,0.302 0.233,0.43 0.07,0.127 0.146,0.209 0.256,0.172 0.11,-0.038 0.256,-0.195 0.367,-0.364 0.11,-0.169 0.186,-0.349 0.241,-0.532 0.056,-0.183 0.09,-0.37 -0.439,-0.893 -0.53,-0.524 -1.624,-1.385 -2.324,-1.882 -0.701,-0.498 -1.01,-0.63201 -1.283,-0.69001 -0.274,-0.058 -0.512,-0.041 -0.603,0.058 -0.09,0.099 -0.032,0.28 -0.064,0.39 -0.032,0.111 -0.154,0.151 -0.206,0.207 -0.053,0.055 -0.035,0.12501 0.102,0.16301 0.137,0.037 0.392,0.043 0.593,0.183 0.201,0.139 0.346,0.413 0.454,0.657 z"
     fill="#bac448"
     id="path10" />
  <path
     fill-rule="evenodd"
     clip-rule="evenodd"
     d="m 43.075286,9.347944 c 0.122,0.274 0.355,0.623 0.506,0.931 0.151,0.308 0.221,0.576 0.256,0.919 0.035,0.343 0.035,0.762 -0.023,1.111 -0.058,0.349 -0.174,0.629 -0.07,0.675 0.104,0.047 0.431,-0.139 0.646,-0.157 0.215,-0.017 0.319,0.134 0.396,0.28 0.076,0.145 0.122,0.285 0.267,0.476 0.146,0.192 0.39,0.437 0.565,0.617 0.174,0.181 0.279,0.297 0.262,0.419 -0.017,0.122 -0.157,0.25 -0.407,0.373 -0.251,0.122 -0.611,0.238 -0.873,0.354 -0.262,0.117 -0.425,0.233 -0.232,0.582 0.191,0.349 0.738,0.931 1.041,1.396 0.303,0.466 0.36,0.815 0.431,1.135 0.07,0.32 0.151,0.611 0.424,0.768 0.274,0.157 0.739,0.18 1.112,0.076 0.372,-0.105 0.651,-0.338 0.808,-0.71 0.157,-0.373 0.192,-0.885 0.14,-1.379 -0.052,-0.495 -0.192,-0.972 -0.319,-1.379 -0.128,-0.407 -0.245,-0.745 -0.309,-1.023 -0.064,-0.279 -0.076,-0.501 -0.047,-0.727 0.029,-0.228 0.099,-0.46 0.32,-0.407 0.221,0.052 0.593,0.389 0.861,0.651 0.268,0.262 0.43,0.448 0.582,0.658 0.152,0.209 0.291,0.442 0.378,0.616 0.087,0.175 0.123,0.291 0.204,0.333 0.081,0.04 0.209,0.006 0.239,-0.169 0.029,-0.174 -0.042,-0.488 -0.093,-0.733 -0.052,-0.244 -0.087,-0.419 0.018,-0.355 0.104,0.064 0.349,0.367 0.506,0.588 0.157,0.221 0.227,0.361 0.366,0.413 0.14,0.052 0.35,0.017 0.487,-0.133 0.128,-0.14 0.194,-0.38 0.222,-0.777 -3.381,-6.51197 -9.303,-11.49198 -16.452,-13.62798 -0.57,0.081 -1.14,0.16201 -1.606,0.16201 -0.465,0 -0.826,-0.08101 -0.924,-0.01201 -0.099,0.07 0.063,0.29101 -0.07,0.40201 -0.134,0.11 -0.565,0.11 -0.576,0.25 -0.012,0.14 0.396,0.41899 0.814,0.64599 0.419,0.226 0.85,0.401 1.263,0.61 0.413,0.21 0.809,0.45401 1.46,1.00701 0.651,0.553 1.559,1.41399 2.152,1.73999 0.593,0.325 0.873,0.11601 1.135,0.06401 0.262,-0.053 0.506,0.05199 0.681,0.27899 0.174,0.227 0.279,0.576 0.436,0.838 0.157,0.261 0.367,0.436 0.495,0.227 0.128,-0.21 0.174,-0.80299 0.285,-0.98399 0.111,-0.18 0.285,0.053 0.39,0.338 0.105,0.285 0.14,0.622 0.349,0.878 0.209,0.256 0.594,0.431 0.85,0.599 0.256,0.169 0.384,0.33299 0.454,0.51199 0.066,0.179 0.078,0.377 0.2,0.64998 z"
     fill="#bac448"
     id="path12" />
  <path
     fill-rule="evenodd"
     clip-rule="evenodd"
     d="m 48.457286,19.221044 c -0.14,0.146 -0.303,0.169 -0.454,0.215 -0.151,0.047 -0.291,0.117 -0.367,0.354 -0.076,0.239 -0.087,0.646 -0.07,1.059 0.017,0.413 0.063,0.832 0.122,1.263 0.059,0.43 0.128,0.872 0.192,1.152 0.064,0.279 0.122,0.395 0.076,0.535 -0.047,0.14 -0.198,0.302 -0.326,0.506 -0.127,0.204 -0.232,0.448 -0.273,0.721 -0.041,0.274 -0.018,0.576 -0.023,0.838 -0.006,0.262 -0.041,0.483 -0.093,0.64 -0.053,0.157 -0.122,0.25 -0.192,0.367 -0.07,0.116 -0.14,0.256 -0.058,0.669 0.082,0.413 0.314,1.099 0.401,1.734 0.087,0.634 0.029,1.216 -0.07,1.809 -0.099,0.593 -0.239,1.198 -0.227,1.728 0.012,0.529 0.175,0.983 0.315,1.303 0.14,0.32 0.256,0.506 0.367,0.82 0.11,0.315 0.215,0.757 0.477,1.141 0.262,0.384 0.681,0.709 0.925,0.942 0.244,0.233 0.313,0.373 0.419,0.396 0.105,0.023 0.244,-0.07 0.384,-0.303 0.139,-0.232 0.279,-0.605 0.506,-0.954 0.227,-0.349 0.541,-0.675 0.814,-0.861 0.274,-0.186 0.506,-0.232 0.681,-0.093 0.175,0.14 0.291,0.466 0.268,0.745 -0.023,0.279 -0.186,0.512 -0.32,1.099 -0.134,0.588 -0.239,1.53 -0.651,2.52 -0.413,0.988 -1.135,2.024 -1.559,2.664 -0.425,0.64 -0.553,0.884 -0.751,1.164 -0.198,0.279 -0.465,0.593 -0.675,0.896 -0.21,0.302 -0.361,0.593 -0.483,1.029 -0.035,0.126 -0.068,0.263 -0.098,0.408 3.541,-3.906 5.971,-8.84 6.785,-14.301 v -8.141 c -0.296,-1.985 -0.806,-3.901 -1.504,-5.723 h -0.668 c -0.262,0 -0.413,0 -0.401,0.105 0.012,0.104 0.186,0.314 0.314,0.523 0.128,0.21 0.209,0.419 0.25,0.582 0.041,0.163 0.041,0.279 -0.099,0.355 -0.14,0.076 -0.419,0.111 -0.675,0.041 -0.256,-0.07 -0.489,-0.245 -0.669,-0.46 -0.181,-0.215 -0.309,-0.471 -0.437,-0.779 -0.128,-0.309 -0.256,-0.67 -0.396,-0.885 -0.14,-0.215 -0.291,-0.285 -0.465,-0.139 -0.175,0.145 -0.372,0.506 -0.529,0.814 -0.158,0.309 -0.274,0.564 -0.39,0.826 -0.117,0.263 -0.233,0.531 -0.373,0.676 z"
     fill="#bac448"
     id="path14" />
  <path
     fill-rule="evenodd"
     clip-rule="evenodd"
     d="m 33.918286,6.995014 c 0.233,-0.05 0.338,-0.213 0.393,-0.399 0.055,-0.186 0.061,-0.395 -0.073,-0.622 -0.134,-0.227 -0.407,-0.47199 -0.675,-0.61399 -0.268,-0.143 -0.529,-0.18301 -0.713,-0.19501 -0.183,-0.012 -0.288,0.00601 -0.303,0.10501 -0.014,0.1 0.061,0.27899 0.044,0.37799 -0.018,0.099 -0.128,0.116 -0.346,0.116 -0.219,0 -0.544,-0.017 -0.655,0.087 -0.111,0.105 -0.006,0.332 0.259,0.53 0.265,0.198 0.69,0.366 1.082,0.483 0.393,0.116 0.754,0.18 0.987,0.131 z"
     fill="#bac448"
     id="path16" />
  <path
     fill-rule="evenodd"
     clip-rule="evenodd"
     d="m 21.130286,35.919044 c 0,-0.111 -0.07,-0.227 -0.48,-0.332 -0.41,-0.105 -1.161,-0.198 -1.772,-0.323 -0.611,-0.125 -1.082,-0.282 -1.411,-0.477 -0.329,-0.195 -0.515,-0.428 -0.844,-0.646 -0.329,-0.218 -0.8,-0.422 -1.143,-0.518 -0.343,-0.096 -0.559,-0.084 -0.783,0.003 -0.224,0.087 -0.457,0.25 -0.64,0.451 -0.183,0.201 -0.316,0.439 -0.354,0.553 -0.038,0.113 0.021,0.102 0.198,0.032 0.177,-0.07 0.474,-0.198 0.707,-0.25 0.233,-0.053 0.401,-0.029 0.643,0.064 0.241,0.093 0.556,0.256 0.919,0.427 0.364,0.172 0.777,0.352 1.076,0.474 0.3,0.123 0.486,0.187 0.765,0.227 0.28,0.041 0.652,0.058 0.841,0.05 0.189,-0.009 0.195,-0.044 0.235,-0.009 0.041,0.035 0.117,0.14 0.099,0.229 -0.018,0.09 -0.128,0.167 -0.256,0.259 -0.128,0.093 -0.274,0.203 -0.058,0.276 0.215,0.073 0.791,0.108 1.204,0.073 0.413,-0.035 0.663,-0.14 0.823,-0.245 0.161,-0.103 0.231,-0.208 0.231,-0.318 z"
     fill="#bac448"
     id="path18" />
  <path
     fill-rule="evenodd"
     clip-rule="evenodd"
     d="m 17.997286,36.566944 c 0.003,-0.119 -0.09,-0.171 -0.169,-0.244 -0.079,-0.073 -0.143,-0.166 -0.329,-0.195 -0.187,-0.029 -0.495,0.006 -0.637,0.134 -0.143,0.128 -0.119,0.349 -0.047,0.491 0.073,0.144 0.195,0.207 0.367,0.246 0.172,0.038 0.393,0.049 0.553,-0.038 0.16,-0.088 0.259,-0.274 0.262,-0.394 z"
     fill="#bac448"
     id="path20" />
  <path
     fill-rule="evenodd"
     clip-rule="evenodd"
     d="m 16.688286,33.513044 c 0.207,0.02 0.37,-0.015 0.39,-0.125 0.02,-0.111 -0.102,-0.297 -0.186,-0.393 -0.084,-0.096 -0.131,-0.102 -0.233,-0.137 -0.102,-0.035 -0.259,-0.099 -0.381,-0.023 -0.123,0.076 -0.21,0.291 -0.128,0.436 0.081,0.146 0.331,0.221 0.538,0.242 z"
     fill="#bac448"
     id="path22" />
  <path
     fill-rule="evenodd"
     clip-rule="evenodd"
     d="m 16.412286,32.137944 c 0.203,-0.007 0.296,-0.187 0.192,-0.359 -0.105,-0.172 -0.408,-0.334 -0.611,-0.328 -0.204,0.007 -0.309,0.183 -0.204,0.354 0.105,0.172 0.419,0.339 0.623,0.333 z"
     fill="#bac448"
     id="path24" />
  <path
     fill-rule="evenodd"
     clip-rule="evenodd"
     d="m 22.081286,35.855044 c -0.155,-0.053 -0.37,-0.018 -0.448,0.107 -0.079,0.125 -0.02,0.341 0.125,0.448 0.146,0.108 0.378,0.108 0.504,0.053 0.125,-0.056 0.143,-0.166 0.104,-0.291 -0.039,-0.125 -0.131,-0.265 -0.285,-0.317 z"
     fill="#bac448"
     id="path26" />
  <path
     fill-rule="evenodd"
     clip-rule="evenodd"
     d="m 23.413286,36.122044 0.026,0.253 c 0.081,0.061 0.238,0.067 0.337,0.047 0.099,-0.021 0.14,-0.067 0.122,-0.146 -0.017,-0.078 -0.093,-0.189 -0.195,-0.227 -0.101,-0.037 -0.229,-0.002 -0.29,0.073 z"
     fill="#bac448"
     id="path28" />
  <path
     fill-rule="evenodd"
     clip-rule="evenodd"
     d="m 24.702286,37.625944 c -0.104,-0.113 -0.285,-0.079 -0.299,0.041 -0.015,0.119 0.136,0.3231 0.241,0.4361 0.105,0.114 0.163,0.137 0.178,0.018 0.013,-0.12 -0.015,-0.3811 -0.12,-0.4951 z"
     fill="#bac448"
     id="path30" />
  <path
     fill-rule="evenodd"
     clip-rule="evenodd"
     d="m 28.743286,33.672044 c 3.616,0 7.233,0 10.85,0 0.12,-0.208 0.24,-0.416 0.196,-0.623 -0.043,-0.207 -0.25,-0.414 -0.489,-0.517 -0.239,-0.104 -0.511,-0.104 -0.722,-0.06 -0.212,0.044 -0.366,0.132 -0.519,0.22 0.086,-0.392 0.172,-0.7841 0.087,-1.1481 -0.084,-0.365 -0.34,-0.7029 -0.679,-0.8289 -0.341,-0.125 -0.766,-0.038 -1.017,0.141 -0.25,0.179 -0.327,0.45 -0.365,0.657 -0.038,0.207 -0.038,0.35 -0.024,0.098 0.015,-0.253 0.044,-0.902 -0.092,-1.383 -0.135,-0.482 -0.435,-0.795 -0.79,-0.958 -0.356,-0.164 -0.768,-0.177 -1.098,-0.054 -0.33,0.123 -0.578,0.383 -0.69,0.684 -0.11,0.301 -0.083,0.6449 -0.039,0.9219 0.044,0.278 0.107,0.4891 0.169,0.7011 -0.053,-0.089 -0.107,-0.179 -0.241,-0.292 -0.134,-0.113 -0.349,-0.249 -0.589,-0.29 -0.24,-0.042 -0.505,0.013 -0.688,0.121 -0.184,0.108 -0.286,0.271 -0.33,0.429 -0.045,0.158 -0.032,0.311 -0.006,0.425 0.026,0.114 0.065,0.19 0.104,0.265 -0.039,-0.075 -0.078,-0.1511 -0.345,-0.2621 -0.268,-0.111 -0.764,-0.2559 -1.119,-0.1849 -0.355,0.071 -0.57,0.36 -0.603,0.612 -0.033,0.251 0.117,0.466 0.219,0.584 0.102,0.118 0.156,0.139 0.21,0.161 -0.156,-0.042 -0.312,-0.085 -0.586,-0.133 -0.275,-0.048 -0.67,-0.102 -0.886,-0.003 -0.215,0.099 -0.251,0.351 -0.208,0.496 0.043,0.145 0.167,0.183 0.29,0.221 z"
     fill="#ffffff"
     id="path32" />
  <path
     fill-rule="evenodd"
     clip-rule="evenodd"
     d="m 27.389286,54.714044 c -0.01,0 -0.02,0 -0.031,0 0.01,0 0.021,0 0.031,0 z m -0.042,0 c -0.011,0 -0.023,0 -0.034,0 0.012,0 0.022,0 0.034,0 z m -0.04,-0.001 c -12.274,-0.059 -22.6400004,-8.203 -26.0410004,-19.38 0.013,0.035 0.026,0.069 0.04,0.103 3.447,11.104 13.8020004,19.218 26.0010004,19.277 z m 1.316,-0.024 c 0.007,-0.001 0.015,-0.001 0.022,-0.001 -0.007,0 -0.016,0 -0.022,0.001 z m 0.079,-0.004 c 0.012,0 0.024,-10e-4 0.037,-10e-4 -0.012,0 -0.025,10e-4 -0.037,10e-4 z m 0.04,-0.002 c 0.644,-0.03 1.282,-0.083 1.914,-0.156 -0.632,0.074 -1.271,0.126 -1.914,0.156 z m 1.965,-0.162 c 0.005,-0.001 0.01,-0.001 0.015,-0.002 -0.006,10e-4 -0.01,10e-4 -0.015,0.002 z m 0.077,-0.009 10e-4,-0.002 c 6.681,-0.82 12.631,-4.066 16.937,-8.824 -0.003,0.014 -0.006,0.028 -0.009,0.042 3.541,-3.906 5.971,-8.84 6.785,-14.301 v -0.015 c 0.198,-1.324 0.301,-2.678 0.301,-4.056 0,13.978 -10.483,25.507 -24.015,27.156 z m 24.015,-27.209 c 0,-0.011 0,-0.02 0,-0.031 0,0.009 0,0.021 0,0.031 z m 0,-0.043 c 0,-0.011 0,-0.021 0,-0.032 -0.001,0.01 -0.001,0.021 0,0.032 z m -0.001,-0.083 c -0.009,-1.316 -0.111,-2.609 -0.3,-3.875 v -0.016 c -0.282,-1.891 -0.758,-3.72 -1.407,-5.464 1.085,2.916 1.686,6.066 1.707,9.355 z"
     fill="#002847"
     id="path34" />
  <path
     fill-rule="evenodd"
     clip-rule="evenodd"
     d="m 27.441286,54.714044 c -0.014,0 -0.027,0 -0.041,0 -0.003,0 -0.007,0 -0.011,0 -0.01,0 -0.021,0 -0.031,0 -0.003,0 -0.007,0 -0.011,0 -0.012,0 -0.022,0 -0.034,0 -0.002,-0.001 -0.003,-0.001 -0.006,-0.001 -12.199,-0.059 -22.5540004,-8.173 -26.0020004,-19.277 1.266,3.268 2.562,6.5309 6.833,9.3389 4.3680004,2.872 8.7700004,4.386 13.0060004,4.821 0.051,0.049 0.107,0.0971 0.168,0.1441 0.512,0.389 1.385,0.668 2.193,0.919 0.809,0.25 1.553,0.471 2.024,0.762 0.472,0.29 0.669,0.651 0.844,0.995 0.174,0.343 0.326,0.669 0.658,1.046 0.333,0.378 0.847,0.807 1.032,1.156 l 0.042,0.0879 c -0.22,0.005 -0.441,0.0081 -0.664,0.0081 z m 3.344,-0.204 0.005,-0.0111 c 0.087,-0.198 0.239,-0.4159 0.489,-0.6589 0.25,-0.243 0.599,-0.511 0.855,-0.866 0.256,-0.355 0.419,-0.797 0.844,-1.175 0.424,-0.378 1.111,-0.692 1.5,-1.059 0.39,-0.366 0.483,-0.785 0.651,-1.303 0.169,-0.519 0.414,-1.135 0.844,-1.774 0.43,-0.64 1.047,-1.3041 1.32,-1.6881 0.035,-0.049 0.064,-0.0929 0.088,-0.1339 4.387,-2.662 8.004,-6.499 10.396,-10.897 0.11,0.313 0.215,0.751 0.475,1.132 0.262,0.384 0.681,0.709 0.925,0.942 0.244,0.233 0.313,0.373 0.419,0.396 0.01,0.002 0.021,0.0029 0.032,0.0029 0.1,0 0.226,-0.096 0.352,-0.306 0.139,-0.232 0.279,-0.6049 0.506,-0.9539 0.227,-0.349 0.541,-0.675 0.814,-0.861 0.165,-0.113 0.316,-0.173 0.448,-0.173 0.086,0 0.164,0.026 0.232,0.081 0.175,0.14 0.291,0.466 0.268,0.745 -0.023,0.279 -0.186,0.512 -0.32,1.099 -0.134,0.588 -0.239,1.5299 -0.651,2.5199 -0.413,0.9881 -1.135,2.0241 -1.559,2.6641 -0.425,0.64 -0.553,0.884 -0.751,1.164 -0.198,0.279 -0.465,0.5929 -0.675,0.8959 -0.21,0.302 -0.361,0.5931 -0.483,1.0291 -0.032,0.113 -0.061,0.236 -0.089,0.366 -4.304,4.757 -10.254,8.003 -16.935,8.823 z m 23.713,-23.098 v -8.11 c 0.189,1.266 0.292,2.559 0.3,3.875 0,0.002 0,0.004 0,0.006 0,0.012 0,0.023 0,0.036 0,0.003 0,0.005 0,0.009 0,0.011 0,0.021 0,0.032 0,0.004 0,0.007 0,0.012 0,0.011 0,0.0199 0,0.0309 0,0.0041 0,0.0071 0,0.0111 0,0.014 0,0.029 0,0.043 0.001,1.377 -0.102,2.731 -0.3,4.055 z"
     fill="#397ba8"
     id="path36" />
  <path
     fill-rule="evenodd"
     clip-rule="evenodd"
     d="m 28.106286,54.705944 -0.042,-0.088 c -0.186,-0.349 -0.7,-0.778 -1.032,-1.156 -0.333,-0.377 -0.484,-0.703 -0.658,-1.046 -0.175,-0.344 -0.373,-0.705 -0.844,-0.995 -0.471,-0.291 -1.215,-0.512 -2.024,-0.762 -0.809,-0.251 -1.681,-0.53 -2.193,-0.919 -0.061,-0.047 -0.117,-0.095 -0.168,-0.144 0.877,0.09 1.748,0.134 2.608,0.134 4.958,0 9.616,-1.452 13.629,-3.889 -0.024,0.041 -0.053,0.085 -0.088,0.134 -0.273,0.384 -0.89,1.048 -1.32,1.688 -0.431,0.639 -0.675,1.255 -0.844,1.774 -0.168,0.518 -0.262,0.937 -0.651,1.303 -0.39,0.367 -1.076,0.681 -1.5,1.059 -0.425,0.378 -0.588,0.82 -0.844,1.175 -0.256,0.355 -0.604,0.623 -0.855,0.866 -0.25,0.243 -0.402,0.461 -0.489,0.659 l -0.005,0.011 -0.001,0.002 c -0.008,10e-4 -0.017,0.002 -0.025,0.003 -0.002,0 -0.004,0 -0.007,10e-4 -0.01,0.001 -0.021,0.002 -0.03,0.003 -0.005,0.001 -0.009,0.001 -0.015,0.002 -0.006,10e-4 -0.014,0.002 -0.02,0.002 -0.008,10e-4 -0.017,0.002 -0.025,0.003 -0.002,10e-4 -0.004,10e-4 -0.006,10e-4 -0.631,0.074 -1.27,0.126 -1.914,0.156 -0.002,0 -0.001,0 -0.003,0 -0.013,0 -0.025,10e-4 -0.037,10e-4 -0.003,0 -0.007,0.001 -0.01,0.001 -0.01,0 -0.02,10e-4 -0.03,10e-4 -0.007,0 -0.01,10e-4 -0.017,10e-4 -0.007,0 -0.015,0 -0.022,0.001 -0.009,0 -0.018,0 -0.025,10e-4 -0.005,0 -0.01,0 -0.016,0 -0.011,10e-4 -0.023,10e-4 -0.034,0.002 -0.002,0 -0.004,0 -0.007,0 -0.145,0.007 -0.291,0.011 -0.436,0.015 z"
     fill="#598f65"
     id="path38" />
  <path
     fill-rule="evenodd"
     clip-rule="evenodd"
     d="m 52.994286,17.562944 h -0.011 c -0.366,-0.948 -0.783,-1.871 -1.248,-2.766 10e-4,-0.009 10e-4,-0.019 0.002,-0.029 0.469,0.903 0.889,1.837 1.257,2.795 z"
     fill="#002847"
     id="path40" />
  <path
     fill-rule="evenodd"
     clip-rule="evenodd"
     d="m 52.005286,19.207044 c -0.094,0 -0.194,-0.012 -0.29,-0.038 -0.256,-0.07 -0.489,-0.245 -0.669,-0.46 -0.181,-0.215 -0.309,-0.471 -0.437,-0.779 -0.128,-0.309 -0.256,-0.67 -0.396,-0.885 -0.035,-0.053 -0.07,-0.098 -0.107,-0.132 -0.173,-0.603 -0.376,-1.203 -0.606,-1.798 0.115,0.172 0.219,0.348 0.288,0.487 0.087,0.175 0.123,0.291 0.204,0.333 0.02,0.01 0.042,0.015 0.066,0.015 0.072,0 0.151,-0.052 0.173,-0.184 0.029,-0.174 -0.042,-0.488 -0.093,-0.733 -0.045,-0.21 -0.077,-0.368 -0.019,-0.368 0.01,0 0.021,0.004 0.037,0.013 0.104,0.064 0.349,0.367 0.506,0.588 0.157,0.221 0.227,0.361 0.366,0.413 0.041,0.015 0.086,0.023 0.134,0.023 0.12,0 0.255,-0.049 0.353,-0.156 0.125,-0.136 0.191,-0.368 0.22,-0.748 0.465,0.895 0.882,1.818 1.248,2.766 h -0.657 c -0.262,0 -0.413,0 -0.401,0.105 0.012,0.104 0.186,0.314 0.314,0.523 0.128,0.21 0.209,0.419 0.25,0.582 0.041,0.163 0.041,0.279 -0.099,0.355 -0.087,0.046 -0.228,0.078 -0.385,0.078 z"
     fill="#397ba8"
     id="path42" />
  <path
     fill-rule="evenodd"
     clip-rule="evenodd"
     d="m 35.267286,1.143004 c -1.054,-0.315 -2.134,-0.57001 -3.236,-0.75801 -0.015,-0.003 -0.03,-0.00599 -0.044,-0.00999 1.123,0.188 2.225,0.445 3.297,0.765 -0.005,10e-4 -0.011,0.002 -0.017,0.003 z"
     fill="#002847"
     id="path44" />
  <path
     fill-rule="evenodd"
     clip-rule="evenodd"
     d="m 35.050286,1.173024 c -1.028,-0.325 -2.024,-0.55701 -3.019,-0.78801 1.102,0.188 2.182,0.44201 3.236,0.75801 -0.072,0.01 -0.145,0.02 -0.217,0.03 z"
     fill="#397ba8"
     id="path46" />
  <path
     fill-rule="evenodd"
     clip-rule="evenodd"
     d="m 50.059286,15.949044 c -0.023,0 -0.046,-0.005 -0.066,-0.015 -0.081,-0.042 -0.117,-0.157 -0.204,-0.333 -0.069,-0.139 -0.173,-0.315 -0.288,-0.487 -1.558,-4.021 -4.424,-7.839 -8.868,-11.089 -2.053,-1.501 -3.864,-2.308 -5.583,-2.853 0.072,-0.01 0.145,-0.02 0.217,-0.03 0.006,-0.001 0.012,-0.00201 0.018,-0.00301 7.15,2.136 13.071,7.11601 16.452,13.62801 0,0.01 -10e-4,0.021 -0.002,0.029 -0.028,0.38 -0.095,0.612 -0.22,0.748 -0.098,0.107 -0.233,0.156 -0.353,0.156 -0.048,0 -0.094,-0.008 -0.134,-0.023 -0.139,-0.052 -0.209,-0.192 -0.366,-0.413 -0.157,-0.221 -0.402,-0.524 -0.506,-0.588 -0.015,-0.009 -0.027,-0.013 -0.037,-0.013 -0.058,0 -0.026,0.158 0.019,0.368 0.052,0.245 0.122,0.559 0.093,0.733 -0.022,0.133 -0.1,0.185 -0.172,0.185 z"
     fill="#598f65"
     id="path48" />
  <path
     fill-rule="evenodd"
     clip-rule="evenodd"
     d="m 53.088286,17.814944 c -0.003,-0.011 -0.007,-0.021 -0.011,-0.032 0.004,0.01 0.008,0.022 0.011,0.032 z m -0.072,-0.193 c -10e-4,-10e-4 -10e-4,-0.002 -10e-4,-0.004 0,10e-4 10e-4,0.003 10e-4,0.004 z m -0.014,-0.037 c 0,-0.001 -10e-4,-0.001 -10e-4,-0.001 z"
     fill="#002847"
     id="path50" />
  <path
     fill-rule="evenodd"
     clip-rule="evenodd"
     d="m 47.713286,45.727944 c 0.002,-0.014 0.005,-0.028 0.009,-0.042 0.028,-0.13 0.058,-0.252 0.089,-0.366 0.122,-0.436 0.273,-0.727 0.483,-1.029 0.209,-0.303 0.477,-0.617 0.675,-0.896 0.198,-0.28 0.326,-0.524 0.751,-1.164 0.424,-0.64 1.146,-1.676 1.559,-2.664 0.413,-0.99 0.518,-1.932 0.651,-2.52 0.134,-0.587 0.297,-0.82 0.32,-1.099 0.024,-0.279 -0.093,-0.605 -0.268,-0.745 -0.069,-0.055 -0.146,-0.081 -0.232,-0.081 -0.132,0 -0.283,0.061 -0.448,0.173 -0.273,0.186 -0.588,0.512 -0.814,0.861 -0.227,0.349 -0.367,0.722 -0.506,0.954 -0.127,0.21 -0.252,0.306 -0.352,0.306 -0.011,0 -0.022,-0.001 -0.032,-0.003 -0.105,-0.023 -0.174,-0.163 -0.419,-0.396 -0.245,-0.233 -0.663,-0.558 -0.925,-0.942 -0.26,-0.381 -0.365,-0.819 -0.475,-1.132 3.009,-5.53 4.085,-11.947 2.328,-18.031 0.037,0.034 0.072,0.079 0.107,0.132 0.14,0.215 0.268,0.576 0.396,0.885 0.128,0.308 0.256,0.564 0.437,0.779 0.18,0.215 0.413,0.39 0.669,0.46 0.096,0.026 0.196,0.038 0.29,0.038 0.156,0 0.297,-0.032 0.384,-0.079 0.14,-0.076 0.14,-0.192 0.099,-0.355 -0.041,-0.163 -0.122,-0.372 -0.25,-0.582 -0.128,-0.209 -0.302,-0.419 -0.314,-0.523 -0.012,-0.105 0.14,-0.105 0.401,-0.105 h 0.668 c 0.003,0.007 0.005,0.013 0.008,0.021 l 0.001,10e-4 c 0.004,0.011 0.008,0.022 0.013,0.033 10e-4,0.002 10e-4,0.004 10e-4,0.004 0.01,0.028 0.021,0.056 0.032,0.083 0.003,0.008 0.006,0.016 0.009,0.024 0.002,0.005 0.004,0.01 0.006,0.015 0.003,0.009 0.006,0.018 0.01,0.026 0.002,0.005 0.003,0.009 0.005,0.013 0.004,0.011 0.008,0.021 0.011,0.032 0.002,0.002 0.002,0.005 0.003,0.007 0.649,1.744 1.125,3.573 1.407,5.464 v 8.141 c -0.816,5.462 -3.246,10.396 -6.787,14.302 z"
     fill="#598f65"
     id="path52" />
  <path
     fill-rule="evenodd"
     clip-rule="evenodd"
     d="m 2.7712856,41.736044 c 4.328,0 8.6560004,0 12.9850004,0 0.144,-0.249 0.287,-0.498 0.235,-0.746 -0.052,-0.248 -0.3,-0.495 -0.585,-0.619 -0.286,-0.124 -0.611,-0.124 -0.864,-0.071 -0.254,0.053 -0.438,0.158 -0.621,0.263 0.103,-0.469 0.206,-0.938 0.104,-1.374 -0.101,-0.437 -0.406,-0.841 -0.813,-0.991 -0.407,-0.15 -0.916,-0.045 -1.216,0.169 -0.3,0.214 -0.391,0.538 -0.437,0.786 -0.045,0.248 -0.045,0.419 -0.028,0.117 0.018,-0.303 0.052,-1.08 -0.11,-1.656 -0.162,-0.576 -0.521,-0.951 -0.947,-1.146 -0.426,-0.196 -0.9180004,-0.212 -1.3130004,-0.064 -0.396,0.147 -0.692,0.458 -0.825,0.818 -0.133,0.361 -0.101,0.772 -0.047,1.104 0.053,0.332 0.128,0.586 0.203,0.839 -0.064,-0.107 -0.128,-0.214 -0.289,-0.349 -0.161,-0.136 -0.418,-0.299 -0.705,-0.348 -0.287,-0.05 -0.604,0.015 -0.824,0.145 -0.22,0.13 -0.342,0.325 -0.395,0.514 -0.054,0.189 -0.039,0.371 -0.008,0.508 0.031,0.137 0.077,0.227 0.124,0.318 -0.046,-0.091 -0.093,-0.181 -0.413,-0.314 -0.32,-0.133 -0.914,-0.307 -1.339,-0.222 -0.426,0.086 -0.683,0.431 -0.722,0.732 -0.039,0.301 0.14,0.558 0.262,0.699 0.122,0.141 0.187,0.167 0.252,0.193 -0.186,-0.05 -0.373,-0.101 -0.702,-0.159 -0.329,-0.058 -0.802,-0.122 -1.06,-0.003 -0.258,0.118 -0.3,0.42 -0.248,0.593 0.051,0.172 0.198,0.218 0.346,0.264 z"
     fill="#ffffff"
     id="path54" />
  <path
     fill-rule="evenodd"
     clip-rule="evenodd"
     d="m 33.628286,47.500944 c 4.701,0 9.402,0 14.103,0 0.156,-0.27 0.312,-0.5399 0.255,-0.8089 -0.057,-0.27 -0.325,-0.538 -0.636,-0.673 -0.311,-0.134 -0.664,-0.134 -0.939,-0.077 -0.275,0.057 -0.474,0.171 -0.673,0.286 0.112,-0.51 0.224,-1.018 0.113,-1.493 -0.109,-0.475 -0.441,-0.914 -0.883,-1.077 -0.442,-0.163 -0.995,-0.0491 -1.321,0.1839 -0.326,0.232 -0.425,0.584 -0.474,0.853 -0.05,0.269 -0.05,0.455 -0.031,0.127 0.019,-0.329 0.057,-1.1719 -0.119,-1.7979 -0.176,-0.625 -0.566,-1.0331 -1.028,-1.2451 -0.463,-0.212 -0.998,-0.2299 -1.427,-0.0699 -0.429,0.16 -0.752,0.4979 -0.896,0.8889 -0.144,0.392 -0.109,0.8381 -0.05,1.1991 0.058,0.361 0.139,0.6359 0.221,0.9109 -0.07,-0.116 -0.14,-0.232 -0.314,-0.379 -0.174,-0.147 -0.454,-0.3249 -0.766,-0.3779 -0.312,-0.054 -0.656,0.0169 -0.895,0.1579 -0.238,0.141 -0.371,0.353 -0.429,0.558 -0.058,0.205 -0.042,0.403 -0.008,0.552 0.034,0.148 0.084,0.246 0.134,0.345 -0.05,-0.099 -0.101,-0.197 -0.448,-0.341 -0.348,-0.144 -0.993,-0.334 -1.455,-0.241 -0.462,0.093 -0.741,0.468 -0.783,0.795 -0.042,0.327 0.152,0.606 0.284,0.759 0.132,0.154 0.203,0.1821 0.273,0.2101 -0.202,-0.055 -0.404,-0.111 -0.762,-0.173 -0.358,-0.063 -0.872,-0.132 -1.151,-0.004 -0.28,0.129 -0.326,0.456 -0.27,0.645 0.056,0.188 0.215,0.2379 0.375,0.2869 z"
     fill="#ffffff"
     id="path56" />
  <path
     fill-rule="evenodd"
     clip-rule="evenodd"
     d="m 46.340286,21.438044 c 3.617,0 7.233,0 10.85,0 0.12,-0.208 0.24,-0.415 0.196,-0.623 -0.043,-0.208 -0.25,-0.414 -0.49,-0.517 -0.239,-0.103 -0.51,-0.1031 -0.722,-0.0601 -0.212,0.044 -0.365,0.1321 -0.518,0.2201 0.086,-0.392 0.172,-0.784 0.087,-1.148 -0.085,-0.365 -0.34,-0.703 -0.68,-0.829 -0.34,-0.125 -0.765,-0.038 -1.016,0.141 -0.251,0.179 -0.326,0.4499 -0.365,0.6569 -0.038,0.207 -0.038,0.3501 -0.023,0.0981 0.015,-0.253 0.044,-0.902 -0.092,-1.384 -0.135,-0.481 -0.435,-0.794 -0.791,-0.957 -0.355,-0.164 -0.768,-0.177 -1.098,-0.054 -0.33,0.123 -0.578,0.383 -0.689,0.684 -0.111,0.301 -0.084,0.644 -0.039,0.922 0.045,0.278 0.108,0.489 0.17,0.701 -0.054,-0.089 -0.107,-0.179 -0.242,-0.292 -0.134,-0.113 -0.349,-0.249 -0.589,-0.291 -0.24,-0.041 -0.505,0.013 -0.688,0.122 -0.184,0.109 -0.286,0.272 -0.331,0.429 -0.044,0.158 -0.032,0.3109 -0.006,0.4249 0.026,0.114 0.064,0.19 0.104,0.265 -0.039,-0.075 -0.078,-0.1509 -0.345,-0.2619 -0.267,-0.111 -0.763,-0.2571 -1.119,-0.1841 -0.355,0.071 -0.57,0.36 -0.603,0.612 -0.033,0.251 0.117,0.4651 0.219,0.5831 0.102,0.119 0.155,0.14 0.21,0.162 -0.155,-0.043 -0.311,-0.0851 -0.586,-0.1331 -0.275,-0.048 -0.67,-0.1019 -0.885,-0.0029 -0.216,0.099 -0.251,0.351 -0.208,0.496 0.043,0.144 0.166,0.182 0.289,0.22 z"
     fill="#ffffff"
     id="path58" />
  <path
     fill-rule="evenodd"
     clip-rule="evenodd"
     d="m 26.926286,11.155944 c 4.701,0 9.401,0 14.102,0 0.156,-0.269 0.312,-0.539 0.255,-0.809 -0.057,-0.269 -0.326,-0.538 -0.636,-0.672 -0.311,-0.135 -0.663,-0.135 -0.938,-0.077 -0.276,0.057 -0.475,0.171 -0.674,0.285 0.111,-0.509 0.223,-1.01901 0.113,-1.49301 -0.11,-0.474 -0.441,-0.913 -0.884,-1.076 -0.442,-0.163 -0.995,-0.05 -1.32,0.184 -0.326,0.233 -0.425,0.58501 -0.474,0.85401 -0.049,0.268 -0.049,0.45399 -0.031,0.12599 0.019,-0.328 0.057,-1.172 -0.119,-1.797 -0.176,-0.626 -0.566,-1.03299 -1.029,-1.24499 -0.462,-0.213 -0.997,-0.23001 -1.427,-0.07001 -0.429,0.16 -0.752,0.49701 -0.896,0.88901 -0.145,0.392 -0.109,0.838 -0.051,1.198 0.058,0.361 0.14,0.636 0.221,0.912 -0.07,-0.117 -0.14,-0.23301 -0.314,-0.38001 -0.174,-0.147 -0.454,-0.324 -0.766,-0.378 -0.312,-0.053 -0.656,0.017 -0.895,0.158 -0.239,0.141 -0.371,0.353 -0.429,0.558 -0.058,0.205 -0.042,0.404 -0.008,0.552 0.033,0.148 0.084,0.247 0.134,0.345 -0.05,-0.098 -0.101,-0.197 -0.448,-0.341 -0.348,-0.144 -0.993,-0.333 -1.455,-0.241 -0.462,0.093 -0.741,0.46901 -0.784,0.79601 -0.042,0.326 0.152,0.605 0.284,0.759 0.132,0.153 0.203,0.181 0.273,0.21 -0.202,-0.056 -0.404,-0.111 -0.762,-0.174 -0.358,-0.062 -0.871,-0.132 -1.152,-0.002 -0.28,0.129 -0.326,0.456 -0.27,0.644 0.06,0.187 0.22,0.236 0.38,0.285 z"
     fill="#ffffff"
     id="path60" />
  <path
     fill-rule="evenodd"
     clip-rule="evenodd"
     d="m 15.638286,16.170944 c -0.037,0 -0.072,-0.038 -0.102,-0.106 -0.064,-0.145 -0.1,-0.424 -0.181,-0.797 -0.081,-0.372 -0.209,-0.837 -0.576,-1.187 -0.367,-0.35 -0.972,-0.581 -1.321,-0.715 -0.349,-0.134 -0.442,-0.169 -0.477,-0.314 -0.035,-0.146 -0.012,-0.402 0.005,-0.64 0.018,-0.239 0.029,-0.46 0.116,-0.687 0.088,-0.227 0.25,-0.459 0.483,-0.663 0.233,-0.204 0.535,-0.378 0.698,-0.535 0.164,-0.157 0.187,-0.297 0.349,-0.536 0.163,-0.238 0.466,-0.576 0.692,-0.69798 0.078,-0.042 0.147,-0.05799 0.212,-0.05799 0.125,0 0.236,0.06097 0.371,0.12197 0.134,0.061 0.29,0.123 0.455,0.123 0.085,0 0.173,-0.017 0.261,-0.059 0.256,-0.122 0.512,-0.45898 0.529,-0.71498 0.017,-0.256 -0.204,-0.43199 -0.297,-0.57599 -0.093,-0.146 -0.058,-0.26201 0.128,-0.32001 0.187,-0.059 0.524,-0.05899 0.739,-0.15199 0.215,-0.093 0.308,-0.279 0.378,-0.535 0.07,-0.256 0.117,-0.58201 0.256,-0.76801 0.112,-0.149 0.283,-0.20799 0.455,-0.20799 0.043,0 0.085,0.00299 0.127,0.00999 0.209,0.035 0.396,0.15201 0.448,0.40201 0.052,0.251 -0.029,0.634 -0.076,0.954 -0.046,0.32 -0.059,0.57599 -0.198,0.80899 -0.139,0.232 -0.407,0.442 -0.413,0.582 -0.005,0.139 0.25,0.20901 0.535,0.36601 0.285,0.15697 0.6,0.40097 0.861,0.53497 0.123,0.063 0.234,0.101 0.333,0.101 0.113,0 0.212,-0.05 0.295,-0.171 0.157,-0.227 0.262,-0.70397 0.401,-1.08197 0.14,-0.378 0.314,-0.65701 0.384,-0.96601 0.07,-0.308 0.035,-0.645 -0.14,-0.837 -0.174,-0.192 -0.489,-0.239 -0.623,-0.344 -0.134,-0.104 -0.087,-0.26699 -0.14,-0.42399 -0.052,-0.157 -0.204,-0.30901 -0.262,-0.45401 -0.059,-0.145 -0.023,-0.28499 -0.029,-0.46599 -0.006,-0.18 -0.052,-0.40101 -0.168,-0.56401 -0.117,-0.163 -0.303,-0.26699 -0.64,-0.30199 -0.101,-0.011 -0.215,-0.01501 -0.337,-0.01501 -0.285,0 -0.609,0.023 -0.891,0.044 -0.167,0.012 -0.319,0.023 -0.445,0.023 -0.125,0 -0.223,-0.01099 -0.284,-0.04199 0.252,-0.118 0.503,-0.23 0.753,-0.336 0.021,0 0.042,0 0.063,0 0.244,0 0.576,-0.01201 0.922,-0.02301 0.346,-0.012 0.707,-0.02399 0.969,-0.04999 0.262,-0.026 0.424,-0.06701 0.602,-0.21201 0.177,-0.146 0.37,-0.396 0.617,-0.565 0.186,-0.126 0.403,-0.207 0.567,-0.207 0.055,0 0.103,0.00801 0.143,0.02701 0.16,0.076 0.177,0.31399 0.174,0.56999 -0.003,0.256 -0.026,0.53 0.029,0.797 0.055,0.268 0.189,0.53 0.229,0.725 0.041,0.194 -0.011,0.323 -0.05,0.413 -0.037,0.09 -0.061,0.14201 0.073,0.18901 0.134,0.046 0.425,0.087 0.573,0.151 0.149,0.064 0.155,0.15099 0.035,0.28799 -0.12,0.137 -0.364,0.32301 -0.387,0.57001 -0.023,0.247 0.175,0.556 0.387,0.948 0.213,0.393 0.439,0.86999 0.722,1.23399 0.282,0.363 0.62,0.61398 1.044,0.77898 0.335,0.131 0.725,0.21 0.996,0.21 0.029,0 0.057,-10e-4 0.084,-0.003 -0.915,1.179 -2.128,2.382 -3.576,3.512 -0.268,-0.332 -0.525,-0.654 -0.768,-1.01 -0.373,-0.547 -0.71,-1.176 -0.989,-1.437 -0.114,-0.108 -0.22,-0.153 -0.317,-0.153 -0.14,0 -0.267,0.094 -0.386,0.234 -0.204,0.239 -0.39,0.611 -0.57,0.815 -0.105,0.119 -0.209,0.18 -0.282,0.18 -0.051,0 -0.087,-0.03 -0.097,-0.093 -0.023,-0.151 0.104,-0.489 0.163,-0.75 0.059,-0.262 0.047,-0.449 -0.104,-0.687 -0.151,-0.239 -0.442,-0.529 -0.664,-0.64 -0.062,-0.031 -0.119,-0.048 -0.174,-0.048 -0.14,0 -0.268,0.109 -0.442,0.369 -0.245,0.361 -0.583,1.012 -0.71,1.513 -0.128,0.5 -0.047,0.849 -0.023,1.122 0.023,0.274 -0.012,0.472 -0.175,0.652 -0.163,0.18 -0.454,0.343 -0.651,0.588 -0.198,0.244 -0.302,0.57 -0.378,0.959 -0.076,0.389 -0.123,0.843 -0.192,1.064 -0.034,0.119 -0.078,0.17 -0.121,0.17 z m 10.761,-6.762 c 1.516,-2.10198 2.045,-4.08998 1.216,-5.40698 -0.299,-0.475 -0.752,-0.82799 -1.329,-1.06399 0.009,0.029 0.006,0.057 -0.011,0.08 -0.058,0.078 -0.273,0.11899 -0.381,0.16199 -0.108,0.044 -0.108,0.09101 0.029,0.16101 0.137,0.069 0.41,0.162 0.646,0.267 0.236,0.105 0.434,0.221 0.614,0.399 0.181,0.177 0.344,0.416 0.384,0.599 0.041,0.183 -0.041,0.31099 -0.209,0.42499 -0.169,0.113 -0.424,0.21201 -0.521,0.39201 -0.096,0.181 -0.032,0.443 -0.003,0.64 0.029,0.198 0.023,0.33299 -0.082,0.41099 -0.105,0.078 -0.308,0.101 -0.431,0.165 -0.122,0.064 -0.163,0.16901 -0.18,0.47101 -0.017,0.303 -0.012,0.80299 0.038,1.21099 0.05,0.407 0.143,0.721 0.198,0.974 0.009,0.03998 0.016,0.07798 0.022,0.11398 z"
     fill="#85b0b2"
     id="path62" />
  <path
     fill-rule="evenodd"
     clip-rule="evenodd"
     d="m 10.883286,18.151044 c -1.6220004,0 -2.8650004,-0.462 -3.4710004,-1.425 -1.562,-2.48 1.695,-7.338 7.2750004,-10.85301 0.957,-0.603 1.92,-1.12601 2.867,-1.56801 0.062,0.031 0.16,0.04201 0.284,0.04201 0.125,0 0.277,-0.011 0.445,-0.023 0.281,-0.021 0.606,-0.044 0.891,-0.044 0.122,0 0.236,0.00399 0.337,0.01499 0.337,0.035 0.523,0.13901 0.64,0.30201 0.116,0.163 0.163,0.38399 0.168,0.56399 0.006,0.181 -0.029,0.32101 0.029,0.46601 0.058,0.145 0.209,0.29699 0.262,0.45399 0.052,0.157 0.006,0.32001 0.14,0.42401 0.134,0.105 0.448,0.152 0.623,0.344 0.174,0.192 0.209,0.529 0.14,0.837 -0.07,0.309 -0.245,0.58799 -0.384,0.96599 -0.14,0.378 -0.244,0.85502 -0.401,1.08202 -0.083,0.121 -0.182,0.171 -0.295,0.171 -0.1,0 -0.21,-0.038 -0.333,-0.101 -0.261,-0.134 -0.576,-0.378 -0.861,-0.53502 -0.285,-0.157 -0.541,-0.22699 -0.535,-0.36599 0.006,-0.14 0.274,-0.35 0.413,-0.582 0.14,-0.233 0.152,-0.48901 0.198,-0.80901 0.046,-0.32 0.127,-0.70399 0.076,-0.95399 -0.053,-0.25 -0.239,-0.36701 -0.448,-0.40201 -0.042,-0.007 -0.084,-0.01 -0.127,-0.01 -0.171,0 -0.343,0.05901 -0.455,0.20801 -0.139,0.186 -0.186,0.51199 -0.256,0.76799 -0.07,0.256 -0.163,0.442 -0.378,0.535 -0.215,0.093 -0.553,0.09301 -0.739,0.15201 -0.186,0.058 -0.221,0.17399 -0.128,0.31999 0.093,0.145 0.314,0.32001 0.297,0.57601 -0.018,0.256 -0.274,0.59301 -0.529,0.71501 -0.087,0.042 -0.176,0.059 -0.261,0.059 -0.165,0 -0.321,-0.062 -0.455,-0.123 -0.134,-0.06101 -0.246,-0.12202 -0.371,-0.12202 -0.065,0 -0.134,0.016 -0.212,0.058 -0.227,0.12202 -0.529,0.46002 -0.692,0.69802 -0.163,0.239 -0.186,0.379 -0.349,0.536 -0.163,0.157 -0.465,0.331 -0.698,0.535 -0.232,0.204 -0.395,0.436 -0.483,0.663 -0.087,0.227 -0.099,0.448 -0.116,0.687 -0.017,0.238 -0.041,0.494 -0.005,0.64 0.035,0.145 0.127,0.18 0.477,0.314 0.349,0.134 0.954,0.366 1.321,0.715 0.366,0.35 0.495,0.815 0.576,1.187 0.081,0.373 0.116,0.652 0.181,0.797 0.03,0.068 0.065,0.106 0.102,0.106 0.043,0 0.087,-0.051 0.125,-0.17 0.069,-0.221 0.116,-0.675 0.192,-1.064 0.076,-0.39 0.18,-0.716 0.378,-0.959 0.198,-0.246 0.488,-0.408 0.651,-0.588 0.163,-0.18 0.198,-0.378 0.175,-0.652 -0.023,-0.273 -0.104,-0.622 0.023,-1.122 0.128,-0.501 0.465,-1.152 0.71,-1.513 0.175,-0.259 0.303,-0.369 0.442,-0.369 0.055,0 0.112,0.017 0.174,0.048 0.221,0.111 0.512,0.401 0.664,0.64 0.151,0.238 0.163,0.425 0.104,0.687 -0.058,0.261 -0.185,0.599 -0.163,0.75 0.01,0.063 0.045,0.093 0.097,0.093 0.073,0 0.176,-0.061 0.282,-0.18 0.18,-0.204 0.367,-0.576 0.57,-0.815 0.12,-0.14 0.246,-0.234 0.386,-0.234 0.098,0 0.203,0.045 0.317,0.153 0.279,0.261 0.617,0.89 0.989,1.437 0.243,0.355 0.5,0.678 0.768,1.01 -0.678,0.53 -1.407,1.043 -2.181,1.531 -3.417,2.15 -6.909,3.298 -9.463,3.298 z"
     fill="#dacb70"
     id="path64" />
  <path
     fill-rule="evenodd"
     clip-rule="evenodd"
     d="m 26.015286,9.814044 c -0.271,0 -0.661,-0.079 -0.996,-0.21 -0.424,-0.165 -0.762,-0.417 -1.044,-0.779 -0.282,-0.364 -0.509,-0.84099 -0.722,-1.23399 -0.212,-0.392 -0.41,-0.701 -0.387,-0.948 0.023,-0.247 0.267,-0.43301 0.387,-0.57001 0.12,-0.137 0.114,-0.22399 -0.035,-0.28799 -0.148,-0.064 -0.439,-0.10501 -0.573,-0.15101 -0.134,-0.047 -0.11,-0.09901 -0.073,-0.18901 0.039,-0.09 0.091,-0.21899 0.05,-0.41299 -0.041,-0.195 -0.174,-0.45701 -0.229,-0.72501 -0.055,-0.267 -0.032,-0.53999 -0.029,-0.79699 0.003,-0.256 -0.015,-0.494 -0.174,-0.57 -0.04,-0.019 -0.088,-0.027 -0.143,-0.027 -0.164,0 -0.381,0.081 -0.567,0.207 -0.247,0.169 -0.439,0.419 -0.617,0.565 -0.178,0.145 -0.34,0.186 -0.602,0.21201 -0.262,0.026 -0.623,0.03798 -0.969,0.04998 -0.346,0.011 -0.678,0.02301 -0.922,0.02301 -0.021,0 -0.042,0 -0.063,0 2.154,-0.916 4.192,-1.39399 5.839,-1.39399 0.822,0 1.547,0.119 2.142,0.362 0.009,0.029 0.006,0.057 -0.011,0.08 -0.058,0.078 -0.273,0.11898 -0.381,0.16198 -0.108,0.044 -0.108,0.09102 0.029,0.16102 0.137,0.069 0.41,0.16199 0.646,0.26699 0.236,0.105 0.434,0.22101 0.614,0.39901 0.181,0.177 0.344,0.41599 0.384,0.59899 0.041,0.183 -0.041,0.31099 -0.209,0.42499 -0.169,0.113 -0.424,0.21202 -0.521,0.39202 -0.096,0.181 -0.032,0.443 -0.003,0.64 0.029,0.198 0.023,0.33299 -0.082,0.41099 -0.105,0.078 -0.308,0.10099 -0.431,0.16499 -0.122,0.064 -0.163,0.16901 -0.18,0.47101 -0.017,0.303 -0.012,0.803 0.038,1.211 0.05,0.407 0.143,0.721 0.198,0.974 0.008,0.039 0.016,0.077 0.022,0.113 -0.096,0.133 -0.197,0.268 -0.301,0.402 -0.028,0.003 -0.056,0.004 -0.085,0.004 z"
     fill="#dacb70"
     id="path66" />
  <path
     fill-rule="evenodd"
     clip-rule="evenodd"
     d="m 0.40028563,21.121944 c 4.70099997,0 9.40099997,0 14.10200037,0 0.156,-0.27 0.311,-0.54 0.255,-0.809 -0.057,-0.269 -0.325,-0.538 -0.636,-0.673 -0.311,-0.134 -0.663,-0.134 -0.939,-0.077 -0.275,0.057 -0.475,0.171 -0.674,0.286 0.112,-0.51 0.224,-1.019 0.113,-1.493 -0.11,-0.475 -0.441,-0.914 -0.883,-1.077 -0.442,-0.163 -0.995,-0.049 -1.321,0.184 -0.326,0.232 -0.4250004,0.584 -0.4740004,0.853 -0.05,0.269 -0.05,0.456 -0.031,0.127 0.019,-0.329 0.057,-1.172 -0.119,-1.798 -0.176,-0.625 -0.565,-1.033 -1.028,-1.245 -0.462,-0.212 -0.998,-0.23 -1.427,-0.07 -0.429,0.16 -0.753,0.498 -0.896,0.889 -0.144,0.392 -0.109,0.838 -0.051,1.199 0.058,0.361 0.14,0.636 0.221,0.911 -0.07,-0.117 -0.14,-0.232 -0.314,-0.379 -0.174,-0.147 -0.454,-0.325 -0.766,-0.378 -0.312,-0.054 -0.656,0.017 -0.895,0.158 -0.239,0.141 -0.372,0.353 -0.43,0.558 -0.058,0.205 -0.042,0.403 -0.008,0.552 0.034,0.148 0.084,0.246 0.135,0.345 -0.051,-0.099 -0.101,-0.197 -0.449,-0.341 -0.348,-0.144 -0.992,-0.334 -1.454,-0.241 -0.462,0.093 -0.742,0.468 -0.784,0.795 -0.043,0.327 0.152,0.606 0.284,0.759 0.132,0.154 0.203,0.182 0.273,0.21 -0.202,-0.055 -0.405,-0.11 -0.762,-0.173 -0.358,-0.063 -0.87099897,-0.132 -1.15099897,-0.004 -0.2800001,0.129 -0.3270005,0.456 -0.2700005,0.645 0.0589995,0.188 0.2189995,0.237 0.3789995,0.287 z"
     fill="#ffffff"
     id="path68" />
</svg>
