<?xml version="1.0" encoding="UTF-8" standalone="no"?>
<svg
   width="60.312"
   height="60.312012"
   viewBox="0 0 60.312 60.312012"
   fill="none"
   version="1.1"
   id="svg108"
   sodipodi:docname="jupiter.svg"
   inkscape:version="1.2.2 (b0a8486541, 2022-12-01)"
   xmlns:inkscape="http://www.inkscape.org/namespaces/inkscape"
   xmlns:sodipodi="http://sodipodi.sourceforge.net/DTD/sodipodi-0.dtd"
   xmlns="http://www.w3.org/2000/svg"
   xmlns:svg="http://www.w3.org/2000/svg">
  <defs
     id="defs112" />
  <sodipodi:namedview
     id="namedview110"
     pagecolor="#ffffff"
     bordercolor="#000000"
     borderopacity="0.25"
     inkscape:showpageshadow="2"
     inkscape:pageopacity="0.0"
     inkscape:pagecheckerboard="0"
     inkscape:deskcolor="#d1d1d1"
     showgrid="false"
     inkscape:zoom="5.702381"
     inkscape:cx="4.7348643"
     inkscape:cy="41.386221"
     inkscape:window-width="1280"
     inkscape:window-height="651"
     inkscape:window-x="0"
     inkscape:window-y="32"
     inkscape:window-maximized="1"
     inkscape:current-layer="svg108" />
  <path
     fill-rule="evenodd"
     clip-rule="evenodd"
     d="m 30.155999,0 c -3.114,0 -6.117,0.472002 -8.942,1.348002 2.376,0.304 4.749,0.521 7.115,0.569 3.535,0.075 7.057,-0.225 10.576,-0.629 C 36.135999,0.451002 33.198999,0 30.155999,0 Z"
     fill="#f98b54"
     id="path2" />
  <path
     fill-rule="evenodd"
     clip-rule="evenodd"
     d="m 38.904999,1.288942 c -3.519,0.404 -7.041,0.704 -10.576,0.629 -2.367,-0.048 -4.74,-0.266 -7.115,-0.569 -2.26,0.701 -4.407,1.661 -6.405,2.844 2.685,0.194 5.387,0.322 8.133,0.292 4.694,-0.051 9.517,-0.565 14.468,-0.385 3.136,0.114 6.323,0.505 9.528,0.999 -2.447,-1.644 -5.149,-2.938 -8.033,-3.81 z"
     fill="#f18056"
     id="path4" />
  <path
     fill-rule="evenodd"
     clip-rule="evenodd"
     d="m 37.409999,4.098982 c -4.951,-0.18 -9.774,0.334 -14.468,0.385 -2.746,0.03 -5.449,-0.098 -8.133,-0.292 -1.77,1.049 -3.423,2.273 -4.936,3.649 4.16,-0.708 8.32,-1.417 13.427,-1.156 5.106,0.262 11.16,1.493 16.188,1.544 3.706,0.038 6.855,-0.566 9.857,-1.337 -0.771,-0.637 -1.574,-1.236 -2.407,-1.794 -3.205,-0.494 -6.392,-0.885 -9.528,-0.999 z"
     fill="#f98b54"
     id="path6" />
  <path
     fill-rule="evenodd"
     clip-rule="evenodd"
     d="m 49.344999,6.891952 c -3.002,0.771 -6.151,1.375 -9.857,1.337 -5.028,-0.051 -11.082,-1.282 -16.188,-1.544 -5.107,-0.261 -9.267,0.448 -13.427,1.156 -0.37099,0.338 -0.733,0.684 -1.087,1.039 1.242,0.292 2.474,0.51896 3.69,0.65696 4.284,0.488 8.388,-0.128 12.108,-0.23096 3.72,-0.102 7.055,0.30796 10.774,0.30796 3.719,0 7.824,-0.41096 11.133,-0.61596 1.859,-0.116 3.468,-0.166 4.966,-0.188 -0.673,-0.672 -1.378,-1.312 -2.112,-1.918 z"
     fill="#f77747"
     id="path8" />
  <path
     fill-rule="evenodd"
     clip-rule="evenodd"
     d="m 51.456999,8.811032 c -1.498,0.022 -3.107,0.072 -4.966,0.188 -3.309,0.205 -7.414,0.61598 -11.133,0.61598 -3.72,0 -7.055,-0.41098 -10.774,-0.30798 -3.72,0.10198 -7.824,0.71798 -12.108,0.23098 -1.217,-0.138 -2.449,-0.36498 -3.69,-0.65698 -0.603,0.60598 -1.18,1.23698 -1.73,1.89098 1.505,-0.007 3.099,0.038 4.856,0.177 3.874,0.308 8.543,1.078 13.365,1.257 4.823,0.18 9.8,-0.231 13.237,-0.615 3.437,-0.385 5.336,-0.744 9.799,-0.436 1.608,0.111 3.551,0.308 5.706,0.561 -0.792,-1.023 -1.648,-1.993 -2.562,-2.90498 z"
     fill="#f98b54"
     id="path10" />
  <path
     fill-rule="evenodd"
     clip-rule="evenodd"
     d="m 54.017999,11.714912 c -2.155,-0.253 -4.097,-0.45 -5.706,-0.561 -4.464,-0.308 -6.362,0.051 -9.799,0.436 -3.438,0.384 -8.415,0.795 -13.237,0.615 -4.822,-0.179 -9.491,-0.949 -13.365,-1.257 -1.757,-0.139 -3.352,-0.184 -4.856,-0.177 -1.183,1.409 -2.24,2.928 -3.153,4.539 3.221,0.469 6.555,0.789 10.165,0.744 6.131,-0.077 13.057,-1.207 18.624,-1.411 5.567,-0.205 9.773,0.513 14.776,0.693 2.768,0.099 5.779,0.034 8.899,-0.106 -0.702,-1.229 -1.487,-2.403 -2.348,-3.515 z"
     fill="#feb790"
     id="path12" />
  <path
     fill-rule="evenodd"
     clip-rule="evenodd"
     d="m 47.465999,15.334912 c -5.002,-0.18 -9.209,-0.898 -14.776,-0.693 -5.566,0.205 -12.493,1.334 -18.624,1.411 -3.61,0.046 -6.944,-0.274 -10.165,-0.744 -0.355,0.628 -0.69,1.271 -1.002,1.926 2.512,0.029 5.056,0.137 7.678,0.433 4.54,0.513 9.312,1.591 13.416,1.616 4.104,0.026 7.542,-1 11.595,-1.487 4.053,-0.488 8.722,-0.437 13.288,-0.411 2.906,0.017 5.769,0.021 8.619,0.023 -0.348,-0.744 -0.726,-1.472 -1.13,-2.182 -3.12,0.142 -6.131,0.207 -8.899,0.108 z"
     fill="#ffc59a"
     id="path14" />
  <path
     fill-rule="evenodd"
     clip-rule="evenodd"
     d="m 48.876999,17.387012 c -4.566,-0.026 -9.235,-0.077 -13.288,0.411 -4.053,0.487 -7.491,1.513 -11.595,1.4869 -4.104,-0.025 -8.876,-1.103 -13.416,-1.616 -2.622,-0.296 -5.166,-0.4039 -7.678,-0.4329 -0.601,1.266 -1.116,2.581 -1.539,3.937 5.641,0.907 11.392,1.643 17.708,1.499 7.85,-0.18 16.572,-1.719 24.344,-1.36 5.864,0.271 11.188,1.6219 16.379,3.2389 -0.47,-2.502 -1.25,-4.896 -2.297,-7.14 -2.849,-0.002 -5.713,-0.0069 -8.618,-0.0239 z"
     fill="#983527"
     id="path16" />
  <path
     fill-rule="evenodd"
     clip-rule="evenodd"
     d="m 59.791999,24.551012 c -5.191,-1.617 -10.515,-2.968 -16.379,-3.239 -7.772,-0.359 -16.495,1.18 -24.344,1.36 -6.316,0.144 -12.067,-0.592 -17.708,-1.499 -0.593,1.903 -1.003,3.887 -1.208,5.931 2.181,-0.018 4.575,-0.102 7.936,-0.482 4.31,-0.487 10.21,-1.462 16.803,-1.385 6.593,0.077 13.878,1.205 20.292,1.744 5.455,0.459 10.278,0.489 15.008,0.457 -0.088,-0.976 -0.222,-1.939 -0.4,-2.887 z"
     fill="#f77c47"
     id="path18" />
  <path
     fill-rule="evenodd"
     clip-rule="evenodd"
     d="m 60.190999,27.438012 c -4.73,0.032 -9.554,0.002 -15.008,-0.457 -6.413,-0.539 -13.699,-1.667 -20.292,-1.744 -6.593,-0.077 -12.493,0.898 -16.803,1.385 -3.361,0.38 -5.755,0.464 -7.936001,0.482 -0.101,1.004 -0.151998,2.022 -0.151998,3.052 0,0.87 0.036999,1.731 0.108999,2.582 2.204,-0.155 4.438,-0.383 6.723,-0.729 5.926,-0.898 12.185,-2.591 17.495,-2.642 5.31,-0.052 9.671,1.539 16.187,2.462 5.46,0.774 12.434,1.08 19.653,1.309 0.096,-0.98 0.145,-1.976 0.145,-2.982 0,-0.916 -0.04,-1.823 -0.121,-2.718 z"
     fill="#f98b61"
     id="path20" />
  <path
     fill-rule="evenodd"
     clip-rule="evenodd"
     d="m 60.166999,33.138012 c -7.219,-0.229 -14.193,-0.535 -19.653,-1.309 -6.516,-0.923 -10.877,-2.514 -16.187,-2.462 -5.31,0.051 -11.569,1.744 -17.495,2.642 -2.284,0.346 -4.519,0.574 -6.722998,0.729 0.04,0.477 0.091999,0.951 0.153999,1.421 3.108999,-0.357 6.232999,-0.605 9.409999,-0.479 4.515,0.179 9.135,1.113 14.344,1.247 2.532,0.065 5.202,-0.059 8.032,-0.183 2.993,-0.132 6.165,-0.263 9.541,-0.171 5.624,0.154 11.812,0.928 18.081,1.792 0.222,-1.055 0.389,-2.132 0.496,-3.227 z"
     fill="#f77849"
     id="path22" />
  <path
     fill-rule="evenodd"
     clip-rule="evenodd"
     d="m 59.671999,36.367012 c -6.269,-0.865 -12.458,-1.639 -18.081,-1.792 -3.376,-0.092 -6.548,0.039 -9.541,0.171 -2.83,0.124 -5.5,0.248 -8.032,0.183 -5.21,-0.134 -9.83,-1.068 -14.344,-1.247 -3.177,-0.127 -6.301,0.121 -9.41,0.479 0.149,1.13 0.362,2.24 0.633,3.327 3.385,-0.109 6.879,-0.161 10.912,0.064 5.053,0.282 10.954,1.001 16.905,1.385 5.952,0.385 11.955,0.436 18.111,0.257 4.044,-0.118 8.154,-0.336 12.288,-0.588 0.214,-0.736 0.401,-1.483 0.559,-2.239 z"
     fill="#983527"
     id="path24" />
  <path
     fill-rule="evenodd"
     clip-rule="evenodd"
     d="m 59.112999,38.604012 c -4.134,0.252 -8.244,0.47 -12.288,0.588 -6.157,0.179 -12.16,0.128 -18.111,-0.257 -5.951,-0.384 -11.852,-1.103 -16.905,-1.385 -4.03301,-0.225 -7.526,-0.173 -10.912,-0.064 0.191,0.766 0.412,1.52 0.661,2.262 6.095,0.773 12.286,1.431 18.871,1.624 3.834,0.113 7.801,0.068 11.645,0.022 4.925,-0.058 9.646,-0.116 13.623,0.158 4.612,0.317 8.223,1.081 11.485,2.001 0.781,-1.576 1.431,-3.231 1.931,-4.949 z"
     fill="#be5c41"
     id="path26" />
  <path
     fill-rule="evenodd"
     clip-rule="evenodd"
     d="m 57.180999,43.553012 c -3.262,-0.92 -6.873,-1.684 -11.485,-2.001 -3.977,-0.274 -8.698,-0.216 -13.623,-0.158 -3.843,0.046 -7.811,0.091 -11.645,-0.022 -6.584,-0.192 -12.776,-0.851 -18.871,-1.624 0.584,1.742 1.322,3.413 2.199,4.996 4.51,-0.627 9.033,-1.197 13.619,-1.499 5.849,-0.385 11.8,-0.334 18.829,0.462 5.832,0.66 12.405,1.831 19.105,3.09 0.688,-1.038 1.314,-2.121 1.872,-3.244 z"
     fill="#ffc59a"
     id="path28" />
  <path
     fill-rule="evenodd"
     clip-rule="evenodd"
     d="m 53.936999,48.701912 c -3.572,-0.444 -7.212,-0.7909 -11.139,-0.7109 -5.105,0.102 -10.697,0.923 -15.212,0.641 -4.515,-0.282 -7.952,-1.667 -12.826,-1.847 -2.743,-0.101 -5.94,0.1799 -9.336,0.6269 0.454,0.65 0.93301,1.281 1.43501,1.891 2.28,-0.205 4.60399,-0.2879 7.02899,-0.0809 4.207,0.359 8.722,1.59 12.903,1.796 4.182,0.205 8.03,-0.616 11.775,-0.975 3.745,-0.359 7.388,-0.2571 10.03,0.3589 1.134,0.264 2.084,0.6231 2.927,1.0351 0.857,-0.861 1.664,-1.7751 2.414,-2.7351 z"
     fill="#ffc59a"
     id="path30" />
  <path
     fill-rule="evenodd"
     clip-rule="evenodd"
     d="m 48.593999,50.402012 c -2.642,-0.616 -6.285,-0.718 -10.03,-0.359 -3.745,0.359 -7.593,1.18 -11.775,0.975 -4.181,-0.206 -8.696,-1.437 -12.903,-1.796 -2.426,-0.207 -4.749,-0.124 -7.029,0.081 0.912,1.108 1.901,2.15 2.959,3.117 5.84,0.078 11.423,0.148 15.87,0.188 5.746,0.051 9.594,0.051 13.596,0.282 3.148,0.182 6.391,0.506 9.654,0.861 0.905,-0.722 1.769,-1.494 2.585,-2.314 -0.843,-0.412 -1.793,-0.771 -2.927,-1.035 z"
     fill="#feb790"
     id="path32" />
  <path
     fill-rule="evenodd"
     clip-rule="evenodd"
     d="m 48.936999,53.751012 c -3.263,-0.355 -6.506,-0.679 -9.654,-0.861 -4.002,-0.231 -7.85,-0.231 -13.596,-0.282 -4.447,-0.04 -10.03,-0.11 -15.87,-0.188 1.101,1.007 2.277,1.933 3.519,2.77 2.693,0.516 5.37,0.964 7.99,1.138 3.489,0.229 6.875,-0.026 9.774,-0.231 2.899,-0.205 5.31,-0.359 7.336,-0.334 2.026,0.025 3.668,0.231 5.233,0.667 0.281,0.079 0.56,0.163 0.836,0.256 1.566,-0.849 3.049,-1.832 4.432,-2.935 z"
     fill="#f18056"
     id="path34" />
  <path
     fill-rule="evenodd"
     clip-rule="evenodd"
     d="m 43.668999,56.429912 c -1.565,-0.436 -3.207,-0.642 -5.233,-0.667 -2.027,-0.025 -4.437,0.129 -7.336,0.334 -2.899,0.204 -6.285,0.46 -9.774,0.231 -2.62,-0.174 -5.297,-0.622 -7.99,-1.138 1.976,1.33 4.119,2.432 6.389,3.269 4.254,-0.171 9.171,-0.632 13.171,-0.746 3.469,-0.099 6.249,0.062 8.872,0.283 0.938,-0.392 1.851,-0.829 2.737,-1.31 -0.276,-0.092 -0.555,-0.177 -0.836,-0.256 z"
     fill="#f98b54"
     id="path36" />
  <path
     fill-rule="evenodd"
     clip-rule="evenodd"
     d="m 41.767999,57.996012 c -2.623,-0.221 -5.403,-0.382 -8.872,-0.283 -4,0.114 -8.917,0.575 -13.171,0.746 3.251,1.199 6.764,1.853 10.431,1.853 4.115,0 8.038,-0.824 11.612,-2.316 z"
     fill="#f98b61"
     id="path38" />
  <path
     fill-rule="evenodd"
     clip-rule="evenodd"
     d="m 27.584999,48.632012 c 4.515,0.282 10.107,-0.539 15.212,-0.641 3.927,-0.08 7.567,0.267 11.139,0.711 0.481,-0.616 0.939,-1.251 1.372,-1.905 -6.699,-1.259 -13.273,-2.43 -19.105,-3.09 -7.029,-0.796 -12.98,-0.847 -18.829,-0.462 -4.586,0.302 -9.109,0.872 -13.619,1.499 0.51,0.92 1.066,1.81 1.666,2.668 3.397,-0.447 6.594,-0.728 9.336,-0.627 4.876,0.18 8.313,1.565 12.828,1.847 z"
     fill="#f98b54"
     id="path40" />
  <path
     fill-rule="evenodd"
     clip-rule="evenodd"
     d="m 30.349999,60.310912 c 0.007,0 0.014,0 0.021,0 -0.007,0 -0.015,0 -0.021,0 z m 0.048,0 c 0.007,0 0.014,0 0.02,0 -0.005,0 -0.014,0 -0.02,0 z m 0.049,0 c 0.006,0 0.012,0 0.018,0 -0.005,0 -0.013,0 -0.018,0 z m 0.049,-0.001 c 0.005,0 0.01,0 0.016,0 -0.005,0 -0.011,0 -0.016,0 z m 0.047,0 c 0.007,0 0.014,-10e-4 0.021,-10e-4 -0.006,0 -0.013,10e-4 -0.021,10e-4 z m 0.049,-10e-4 c 0.007,0 0.015,0 0.021,0 -0.007,0 -0.014,0 -0.021,0 z m -0.909,-10e-4 c -0.01,0 -0.021,0 -0.031,0 0.01,0 0.02,0 0.031,0 z m 0.958,0 c 0.007,0 0.015,0 0.022,0 -0.008,0 -0.016,0 -0.022,0 z m 0.048,0 c 0.008,0 0.015,-0.001 0.022,-0.001 -0.006,0 -0.015,0.001 -0.022,0.001 z m -1.094,-0.001 c -0.012,0 -0.024,0 -0.037,-10e-4 0.012,10e-4 0.025,10e-4 0.037,10e-4 z m 1.19,-10e-4 c 0.008,0 0.017,0 0.024,0 -0.008,-10e-4 -0.016,0 -0.024,0 z m -1.286,-10e-4 c -0.007,0 -0.016,0 -0.023,0 0.008,0 0.016,0 0.023,0 z m 1.335,0 c 0.008,-0.002 0.015,-0.002 0.023,-0.002 -0.007,10e-4 -0.016,10e-4 -0.023,0.002 z m 0.048,-0.001 c 0.007,0 0.014,-10e-4 0.021,-10e-4 -0.006,0 -0.014,10e-4 -0.021,10e-4 z m 0.048,-0.002 c 0.007,0 0.015,0 0.021,0 -0.006,0 -0.013,0 -0.021,0 z m 0.049,-0.001 c 0.007,0 0.014,0 0.021,0 -0.007,0 -0.015,0 -0.021,0 z m -1.646,0 c -0.007,0 -0.014,0 -0.021,0 0.006,0 0.013,0 0.021,0 z m -0.041,-10e-4 c -0.007,0 -0.016,0 -0.023,-10e-4 0.007,10e-4 0.015,10e-4 0.023,10e-4 z m 1.735,0 c 0.007,0 0.014,-10e-4 0.021,-10e-4 -0.006,0 -0.015,10e-4 -0.021,10e-4 z m -1.776,-10e-4 c -0.008,0 -0.015,0 -0.023,-0.001 0.006,0.001 0.015,0.001 0.023,0.001 z m 1.824,0 c 0.007,-0.001 0.014,-0.001 0.021,-0.001 -0.008,0 -0.013,0 -0.021,0.001 z m 0.049,-0.002 c 0.006,0 0.013,0 0.02,-10e-4 -0.007,10e-4 -0.013,10e-4 -0.02,10e-4 z m 0.047,-0.002 c 0.007,0 0.014,0 0.021,0 -0.007,0 -0.013,0 -0.021,0 z m 0.049,-10e-4 c 0.006,-10e-4 0.013,-10e-4 0.02,-10e-4 -0.007,0 -0.013,0 -0.02,10e-4 z m 0.048,-0.002 c 0.007,0 0.013,0 0.019,0 -0.007,0 -0.012,0 -0.019,0 z m 0.048,-0.002 c 0.006,0 0.013,0 0.02,0 -0.007,0 -0.013,0 -0.02,0 z m -2.331,0 c -0.007,0 -0.016,-10e-4 -0.023,-10e-4 0.009,0 0.016,10e-4 0.023,10e-4 z m -0.083,-0.004 c -0.007,0 -0.014,0 -0.021,0 0.007,0 0.015,0 0.021,0 z m 2.511,0 c 0.006,0 0.013,0 0.019,0 -0.006,0 -0.014,0 -0.019,0 z m -2.553,-0.001 c -0.006,-10e-4 -0.014,-10e-4 -0.02,-10e-4 0.007,0 0.014,0 0.02,10e-4 z m -0.041,-0.002 c -0.006,0 -0.013,0 -0.019,-0.001 0.007,0.001 0.013,0.001 0.019,0.001 z m -0.042,-0.002 c -0.006,0 -0.011,0 -0.017,0 0.006,0 0.012,0 0.017,0 z m 2.78,-10e-4 c 0.006,0 0.012,0 0.018,-0.001 -0.007,0.001 -0.011,0.001 -0.018,0.001 z m -2.82,-0.001 c -0.007,0 -0.012,0 -0.019,0 0.007,0 0.013,0 0.019,0 z m -0.042,-0.002 c -0.005,0 -0.011,0 -0.016,0 0.006,0 0.011,0 0.016,0 z m 2.958,-0.001 c 0.005,0 0.012,-10e-4 0.018,-10e-4 -0.006,0 -0.012,10e-4 -0.018,10e-4 z m -2.998,0 c -0.005,-10e-4 -0.01,-10e-4 -0.016,-10e-4 0.006,0 0.01,0 0.016,10e-4 z m 3.191,-0.01 c 0.005,0 0.01,0 0.016,0 -0.005,-10e-4 -0.011,-10e-4 -0.016,0 z m 0.048,-0.003 c 0.006,0 0.011,-0.002 0.016,-0.002 -0.005,0.001 -0.011,0.002 -0.016,0.002 z m -3.506,-0.002 c -0.006,0 -0.01,0 -0.016,-10e-4 0.005,10e-4 0.01,10e-4 0.016,10e-4 z m -0.04,-0.002 c -0.005,0 -0.011,-0.001 -0.017,-0.001 0.006,0 0.011,0 0.017,0.001 z m -0.041,-0.003 c -0.005,0 -0.01,0 -0.015,0 0.005,0 0.009,0 0.015,0 z m -0.082,-0.005 c -0.004,0 -0.008,0 -0.012,0 0.003,0 0.008,0 0.012,0 z m -0.081,-0.005 c -0.003,0 -0.007,-0.002 -0.01,-0.002 0.003,0.002 0.006,0.002 0.01,0.002 z m 4.039,-10e-4 c 0.004,0 0.008,0 0.013,-10e-4 -0.005,10e-4 -0.01,10e-4 -0.013,10e-4 z m -4.274,-0.015 c 0,0 -0.002,-10e-4 -0.003,-10e-4 10e-4,0 0.002,10e-4 0.003,10e-4 z m 4.562,-0.005 c 0.003,-0.002 0.007,-0.002 0.01,-0.002 -0.004,10e-4 -0.006,10e-4 -0.01,0.002 z m -4.716,-0.007 c -0.003,0 -0.005,-10e-4 -0.009,-10e-4 0.003,0 0.006,10e-4 0.009,10e-4 z m 4.861,-0.005 c 10e-4,0 0.004,0 0.006,0 -0.002,0 -0.004,0 -0.006,0 z m -4.94,-0.002 c -0.004,0 -0.006,0 -0.01,0 0.003,0 0.006,0 0.01,0 z m 5.035,-0.006 c 0.002,0 0.004,0 0.006,0 -0.001,0 -0.004,0 -0.006,0 z m -5.116,0 c -0.001,0 -0.002,0 -0.003,0 0,0 0.002,0 0.003,0 z m -0.389,-0.035 h -0.002 c 0.001,0 0.001,0 0.002,0 z m -7.541,-1.733 c -0.014,-0.005 -0.029,-0.011 -0.043,-0.016 0.014,0.006 0.029,0.011 0.043,0.016 z m -0.054,-0.02 c -0.014,-0.005 -0.027,-0.01 -0.041,-0.015 0.014,0.005 0.028,0.01 0.041,0.015 z m -0.048,-0.018 c -0.017,-0.006 -0.033,-0.012 -0.05,-0.019 0.017,0.006 0.033,0.013 0.05,0.019 z m -0.053,-0.02 c -0.017,-0.006 -0.034,-0.012 -0.051,-0.019 0.018,0.007 0.035,0.013 0.051,0.019 z m 22.22,-0.387 c -0.01,0 -0.02,-10e-4 -0.03,-0.002 0.01,0.001 0.019,0.002 0.03,0.002 z m -0.454,-0.037 c -1.933,-0.155 -3.967,-0.272 -6.31,-0.272 2.344,0 4.378,0.117 6.31,0.272 z m -25.502,-1.287 c -0.016,-0.008 -0.03,-0.016 -0.045,-0.024 0.016,0.008 0.031,0.016 0.045,0.024 z m -0.05,-0.027 c -0.015,-0.009 -0.029,-0.016 -0.045,-0.025 0.015,0.008 0.03,0.017 0.045,0.025 z m -0.1,-0.055 c -0.014,-0.008 -0.027,-0.015 -0.041,-0.023 0.013,0.008 0.026,0.015 0.041,0.023 z m -0.101,-0.055 c -0.012,-0.007 -0.025,-0.014 -0.037,-0.022 0.013,0.008 0.025,0.015 0.037,0.022 z m -0.055,-0.032 c -0.007,-0.004 -0.015,-0.008 -0.022,-0.012 0.007,0.004 0.014,0.008 0.022,0.012 z m -0.044,-0.024 c -0.011,-0.006 -0.023,-0.013 -0.033,-0.019 0.011,0.007 0.022,0.013 0.033,0.019 z m 8.802,-0.056 c 10e-4,0 0.003,0 0.005,0 -0.002,0 -0.003,0 -0.005,0 z m -0.002,0 c -0.928,0 -1.873,-0.026 -2.825,-0.086 0.952,0.06 1.896,0.086 2.825,0.086 z m -8.959,-0.034 c -0.002,-0.002 -0.004,-0.002 -0.006,-0.004 0.001,0.002 0.004,0.003 0.006,0.004 z m 16.041,-0.303 c 0.021,-0.001 0.041,-0.003 0.062,-0.004 -0.021,0.001 -0.042,0.003 -0.062,0.004 z m 0.522,-0.036 c 0.007,-0.001 0.014,-0.001 0.021,-0.002 -0.008,10e-4 -0.015,10e-4 -0.021,0.002 z m -22.938,-4.509 c 0,-10e-4 0,-10e-4 0,0 -10e-4,-10e-4 0,-10e-4 0,0 z m 42.608,-0.075 c 0.007,-0.007 0.013,-0.013 0.02,-0.02 -0.008,0.007 -0.014,0.013 -0.02,0.02 z m -2.903,-1.06 c -0.043,-0.01 -0.086,-0.02 -0.129,-0.03 0.043,0.01 0.086,0.021 0.129,0.03 z m -39.823,1.017 c -0.323,-0.325 -0.638,-0.656 -0.946,-0.996 0.308,0.339 0.623,0.671 0.946,0.996 z m 42.803,-0.035 c 0,0 0.002,-0.001 0.002,-0.002 -10e-4,10e-4 -0.002,0.002 -0.002,0.002 z m -43.75,-0.962 c -0.006,-0.007 -0.012,-0.013 -0.018,-0.02 0.006,0.007 0.011,0.013 0.018,0.02 z m -0.025,-0.027 c -0.005,-0.006 -0.009,-0.011 -0.015,-0.016 0.005,0.005 0.01,0.01 0.015,0.016 z m -0.025,-0.027 c -0.004,-0.005 -0.008,-0.01 -0.012,-0.014 0.004,0.004 0.009,0.009 0.012,0.014 z m -0.079,-0.089 c 0,0 0,0 -10e-4,-10e-4 0,10e-4 10e-4,10e-4 10e-4,10e-4 z m 35.05,-0.443 c 0.001,0 0.003,0 0.003,0 -10e-4,0 -0.002,0 -0.003,0 z m -35.727,-0.547 c 0.018,-0.002 0.035,-0.004 0.053,-0.005 -0.018,0.002 -0.035,0.004 -0.053,0.005 z m 0.077,-0.006 c 0.025,-0.003 0.051,-0.005 0.077,-0.007 -0.026,0.002 -0.051,0.004 -0.077,0.007 z m -0.613,-0.443 c -0.293,-0.372 -0.579,-0.751 -0.855,-1.136 0.277,0.385 0.562,0.764 0.855,1.136 z m -1.011,-1.434 c 0.021,-0.003 0.042,-0.006 0.063,-0.008 -0.022,0.002 -0.043,0.005 -0.063,0.008 z"
     fill="#4c0202"
     id="path42" />
  <path
     fill-rule="evenodd"
     clip-rule="evenodd"
     d="m 51.521999,51.437012 c -0.844,-0.412 -1.793,-0.771 -2.927,-1.035 -0.043,-0.01 -0.086,-0.02 -0.129,-0.03 -0.007,0 -0.014,-0.002 -0.021,-0.004 -0.003,-10e-4 -0.006,-10e-4 -0.009,-0.002 -0.007,-0.002 -0.016,-0.004 -0.024,-0.005 -1.602,-0.353 -3.552,-0.525 -5.659,-0.525 -0.002,0 -0.004,0 -0.004,0 h -0.003 c -0.18,0 -0.361,0.002 -0.543,0.004 0.868,-0.577 1.707,-1.198 2.511,-1.855 3.208,0.043 6.238,0.346 9.223,0.717 -0.733,0.939 -1.522,1.835 -2.36,2.68 l -10e-4,0.002 c -0.009,0.009 -0.016,0.016 -0.025,0.025 -0.006,0.006 -0.012,0.012 -0.018,0.018 -0.004,0.004 -0.008,0.007 -0.011,0.01 z m -44.664,-2.134 c -0.126,-0.153 -0.251,-0.308 -0.375,-0.463 -0.293,-0.372 -0.579,-0.751 -0.855,-1.136 -0.07,-0.097 -0.138,-0.195 -0.206,-0.292 0.016,-0.002 0.033,-0.004 0.049,-0.006 0.021,-0.003 0.042,-0.006 0.063,-0.008 0.247,-0.033 0.493,-0.064 0.737,-0.095 0.672,0.64 1.441,1.264 2.332,1.87 -0.466,0.027 -0.93,0.061 -1.392,0.099 -0.009,0.001 -0.018,0.002 -0.027,0.003 -0.004,0 -0.008,0.001 -0.012,0.001 -0.026,0.002 -0.052,0.004 -0.077,0.007 -0.008,0 -0.017,10e-4 -0.024,10e-4 -0.018,0.002 -0.035,0.004 -0.053,0.005 l -0.003,10e-4 c -0.036,0.002 -0.072,0.006 -0.107,0.009 -0.016,0.002 -0.033,0.003 -0.05,0.004 z"
     fill="#c87464"
     id="path44" />
  <path
     fill-rule="evenodd"
     clip-rule="evenodd"
     d="m 48.936999,53.750912 c -3.263,-0.355 -6.506,-0.679 -9.654,-0.861 -0.881,-0.05 -1.754,-0.09 -2.643,-0.121 1.96,-0.783 3.821,-1.769 5.563,-2.928 0.182,-0.002 0.363,-0.004 0.543,-0.004 h 0.003 c 0.002,0 0.002,0 0.004,0 2.107,0 4.058,0.172 5.659,0.525 0.008,0.001 0.017,0.003 0.024,0.005 0.003,10e-4 0.006,10e-4 0.009,0.002 0.006,0.002 0.014,0.003 0.021,0.004 0.043,0.01 0.086,0.021 0.129,0.03 1.134,0.264 2.084,0.623 2.927,1.035 l -0.004,0.005 c -0.007,0.007 -0.013,0.013 -0.02,0.02 -0.006,0.006 -0.012,0.012 -0.018,0.017 l -10e-4,10e-4 c -0.804,0.803 -1.652,1.561 -2.542,2.27 z m -34.211,-1.267 c -1.602,-0.02 -3.245,-0.041 -4.909,-0.064 -0.315,-0.287 -0.625,-0.582 -0.927,-0.883 -0.008,-0.008 -0.016,-0.016 -0.023,-0.023 -0.003,-0.004 -0.007,-0.007 -0.01,-0.01 -0.004,-0.004 -0.01,-0.01 -0.014,-0.014 -0.005,-0.005 -0.009,-0.009 -0.014,-0.014 -0.003,-0.003 -0.007,-0.007 -0.01,-0.01 -0.005,-0.006 -0.011,-0.011 -0.017,-0.017 -0.002,-0.002 -0.004,-0.004 -0.006,-0.006 -0.007,-0.007 -0.013,-0.013 -0.02,-0.02 l -0.003,-0.003 c -0.323,-0.325 -0.638,-0.657 -0.946,-0.996 l -10e-4,-0.001 c -0.006,-0.007 -0.012,-0.013 -0.018,-0.02 -0.002,-0.002 -0.005,-0.005 -0.007,-0.007 -0.005,-0.006 -0.01,-0.011 -0.015,-0.016 -0.003,-0.004 -0.006,-0.008 -0.01,-0.011 -0.004,-0.005 -0.008,-0.01 -0.012,-0.014 -0.004,-0.005 -0.009,-0.01 -0.013,-0.014 -0.003,-0.004 -0.006,-0.007 -0.009,-0.011 -0.006,-0.006 -0.011,-0.012 -0.017,-0.019 -0.002,-0.002 -0.003,-0.004 -0.006,-0.006 -0.007,-0.008 -0.015,-0.017 -0.021,-0.025 l -0.001,-0.001 c -0.286,-0.319 -0.565,-0.644 -0.837,-0.975 0.017,0 0.034,-0.002 0.051,-0.004 0.035,-0.003 0.071,-0.007 0.107,-0.009 l 0.003,-10e-4 c 0.018,-0.002 0.035,-0.004 0.053,-0.005 0.008,0 0.016,-10e-4 0.024,-10e-4 0.025,-0.003 0.051,-0.005 0.077,-0.007 0.004,0 0.008,-0.001 0.012,-0.001 0.009,-10e-4 0.018,-0.002 0.027,-0.003 0.462,-0.038 0.926,-0.072 1.392,-0.099 0.09,0.062 0.182,0.123 0.275,0.184 1.946,1.28 3.898,2.315 5.845,3.126 z"
     fill="#c67060"
     id="path46" />
  <path
     fill-rule="evenodd"
     clip-rule="evenodd"
     d="m 44.504999,56.686012 c -0.276,-0.092 -0.555,-0.177 -0.836,-0.256 -1.565,-0.436 -3.207,-0.642 -5.233,-0.667 -0.016,0 -0.031,0 -0.047,0 -0.133,-0.002 -0.268,-0.002 -0.404,-0.002 -0.003,0 -0.008,0 -0.012,0 -1.691,0 -3.642,0.112 -5.906,0.268 -0.022,0.002 -0.044,0.003 -0.066,0.005 -0.05,0.002 -0.102,0.007 -0.152,0.01 -0.007,10e-4 -0.014,10e-4 -0.021,0.002 -0.096,0.006 -0.192,0.013 -0.289,0.02 -0.003,0 -0.007,0 -0.01,10e-4 -0.011,0 -0.021,0.001 -0.032,0.002 -0.029,0.002 -0.058,0.004 -0.086,0.006 -0.014,10e-4 -0.029,0.002 -0.043,0.003 -0.021,0 -0.041,0.002 -0.062,0.004 -0.068,0.005 -0.137,0.01 -0.206,0.015 -0.045,0.003 -0.09,0.006 -0.136,0.009 -2.05,0.146 -4.34,0.312 -6.733,0.313 -0.002,0 -0.003,0 -0.005,0 h -0.002 c -0.928,0 -1.873,-0.026 -2.825,-0.086 -0.024,-0.002 -0.048,-0.004 -0.073,-0.004 -2.62,-0.174 -5.297,-0.622 -7.99,-1.138 -1.242,-0.837 -2.417,-1.763 -3.519,-2.77 1.664,0.023 3.307,0.044 4.909,0.064 3.859,1.609 7.687,2.335 11.365,2.335 3.707,0 7.264,-0.738 10.549,-2.051 0.888,0.032 1.761,0.072 2.643,0.121 3.148,0.182 6.391,0.506 9.654,0.861 -1.383,1.103 -2.866,2.087 -4.432,2.935 z"
     fill="#bd5940"
     id="path48" />
  <path
     fill-rule="evenodd"
     clip-rule="evenodd"
     d="m 19.724999,58.458912 c -0.005,-10e-4 -0.011,-0.004 -0.016,-0.005 -0.008,-0.003 -0.018,-0.007 -0.026,-0.01 -0.007,-0.002 -0.012,-0.004 -0.018,-0.007 -0.014,-0.005 -0.029,-0.01 -0.043,-0.016 -0.004,-0.001 -0.007,-0.003 -0.01,-0.004 -0.014,-0.005 -0.027,-0.01 -0.041,-0.015 -0.002,-0.001 -0.006,-0.002 -0.008,-0.003 -0.017,-0.006 -0.033,-0.013 -0.05,-0.019 0,0 -0.001,0 -0.002,-10e-4 -0.017,-0.006 -0.034,-0.012 -0.051,-0.019 -1.271,-0.483 -2.501,-1.049 -3.684,-1.691 -0.015,-0.008 -0.03,-0.017 -0.045,-0.025 -0.001,-10e-4 -0.004,-0.002 -0.005,-0.003 -0.015,-0.008 -0.03,-0.017 -0.045,-0.025 -0.002,-0.001 -0.005,-0.003 -0.007,-0.004 -0.013,-0.007 -0.025,-0.013 -0.038,-0.02 -0.002,-0.002 -0.007,-0.005 -0.01,-0.006 -0.014,-0.008 -0.027,-0.015 -0.041,-0.023 -0.004,-0.002 -0.009,-0.005 -0.013,-0.007 -0.01,-0.005 -0.02,-0.011 -0.03,-0.017 -0.005,-0.003 -0.01,-0.004 -0.016,-0.008 -0.012,-0.007 -0.025,-0.014 -0.037,-0.022 -0.006,-0.003 -0.012,-0.006 -0.019,-0.01 -0.008,-0.004 -0.015,-0.008 -0.022,-0.012 -0.007,-0.004 -0.014,-0.008 -0.021,-0.012 -0.011,-0.006 -0.022,-0.012 -0.033,-0.019 -0.009,-0.005 -0.017,-0.009 -0.025,-0.014 -0.005,-0.002 -0.01,-0.005 -0.014,-0.008 -0.029,-0.016 -0.058,-0.033 -0.087,-0.049 -0.002,-10e-4 -0.004,-0.002 -0.006,-0.004 -0.656,-0.373 -1.298,-0.771 -1.921,-1.191 2.692,0.516 5.369,0.964 7.989,1.138 0.024,0 0.048,0.002 0.073,0.004 0.952,0.061 1.897,0.086 2.825,0.086 0.001,0 0.002,0 0.002,0 0.001,0 0.003,0 0.005,0 2.393,-10e-4 4.683,-0.167 6.733,-0.313 0.045,-0.003 0.09,-0.006 0.136,-0.009 0.069,-0.005 0.138,-0.01 0.206,-0.015 0.021,-10e-4 0.041,-0.003 0.062,-0.004 0.014,-0.002 0.029,-0.002 0.043,-0.003 0.029,-0.002 0.058,-0.004 0.086,-0.006 0.011,-10e-4 0.021,-0.002 0.032,-0.002 0.003,-10e-4 0.007,-10e-4 0.01,-10e-4 0.097,-0.007 0.193,-0.014 0.289,-0.02 0.007,-10e-4 0.014,-10e-4 0.021,-0.002 0.051,-0.003 0.102,-0.007 0.152,-0.01 0.022,-0.002 0.044,-0.003 0.066,-0.005 2.264,-0.156 4.214,-0.268 5.906,-0.268 0.004,0 0.008,0 0.011,0 0.136,0 0.272,0 0.405,0.002 0.016,0 0.031,0 0.047,0 2.026,0.025 3.668,0.231 5.233,0.667 0.281,0.079 0.56,0.163 0.836,0.256 -0.887,0.481 -1.8,0.918 -2.737,1.31 -0.013,0 -0.025,-0.002 -0.038,-0.004 -0.01,0 -0.02,-0.001 -0.03,-0.002 -0.003,0 -0.006,0 -0.008,-10e-4 -0.092,-0.007 -0.184,-0.015 -0.276,-0.022 -0.007,-0.001 -0.014,-0.002 -0.02,-0.002 -0.036,-0.003 -0.072,-0.006 -0.108,-0.009 -0.004,0 -0.008,0 -0.012,0 -1.933,-0.155 -3.967,-0.272 -6.31,-0.272 -0.001,0 -0.003,0 -0.004,0 -0.621,0 -1.264,0.008 -1.932,0.026 -0.001,0 -0.003,0 -0.004,0 -0.027,0.001 -0.055,0.002 -0.082,0.002 -0.016,10e-4 -0.032,10e-4 -0.048,0.002 -4.004,0.114 -8.921,0.575 -13.175,0.746 z"
     fill="#cb6143"
     id="path50" />
  <path
     fill-rule="evenodd"
     clip-rule="evenodd"
     d="m 5.032999,46.842012 c -1.147,-1.724 -2.121,-3.571 -2.898,-5.52 0.47,1.179 1.013,2.321 1.622,3.422 0.397,0.718 0.823,1.418 1.276,2.098 z m -2.9,-5.525 c -0.005,-0.011 -0.009,-0.022 -0.013,-0.033 0.004,0.011 0.008,0.021 0.013,0.033 z m -0.032,-0.081 c -0.004,-0.01 -0.007,-0.018 -0.011,-0.028 0.003,0.009 0.007,0.019 0.011,0.028 z m -0.031,-0.077 c -0.004,-0.013 -0.01,-0.025 -0.015,-0.037 0.006,0.012 0.011,0.024 0.015,0.037 z m -0.019,-0.048 c -0.003,-0.009 -0.007,-0.018 -0.01,-0.027 0.004,0.009 0.007,0.018 0.01,0.027 z m -0.016,-0.043 c -0.002,-0.007 -0.005,-0.015 -0.008,-0.021 0.002,0.007 0.005,0.014 0.008,0.021 z m -0.031,-0.079 c -10e-4,-0.005 -0.004,-0.01 -0.006,-0.015 0.003,0.005 0.004,0.01 0.006,0.015 z m -0.015,-0.038 c -0.002,-0.004 -0.003,-0.008 -0.004,-0.013 0.002,0.005 0.003,0.009 0.004,0.013 z m -0.013,-0.038 c -0.001,-0.002 -0.002,-0.006 -0.004,-0.009 10e-4,0.003 0.002,0.006 0.004,0.009 z m -0.054,-0.139 c 0,0 -0.001,-0.003 -0.001,-0.004 0,10e-4 0.001,0.003 0.001,0.004 z m -0.156,-0.425 c -0.001,-0.004 -0.002,-0.005 -0.003,-0.008 0.001,0.003 0.002,0.005 0.003,0.008 z m -0.048,-0.134 c -0.002,-0.004 -0.003,-0.009 -0.004,-0.013 0.002,0.005 0.003,0.009 0.004,0.013 z m -0.012,-0.036 c -0.001,-0.005 -0.003,-0.01 -0.005,-0.015 0.001,0.005 0.003,0.01 0.005,0.015 z m -0.039,-0.11 c -0.003,-0.01 -0.006,-0.018 -0.009,-0.028 0.003,0.009 0.006,0.018 0.009,0.028 z m -0.068,-0.199 c -0.029,-0.085 -0.058,-0.172 -0.086,-0.257 0.015,0.045 0.03,0.09 0.045,0.135 0.013,0.04 0.026,0.081 0.041,0.122 z m -0.1,-0.301 c -0.002,-0.006 -0.004,-0.012 -0.006,-0.018 0.001,0.006 0.003,0.012 0.006,0.018 z m -0.013,-0.038 c -0.001,-0.004 -0.002,-0.008 -0.004,-0.012 10e-4,0.004 0.002,0.008 0.004,0.012 z m -0.036,-0.111 c -0.001,-10e-4 -0.001,-0.002 -0.001,-0.003 0,10e-4 0.001,0.002 0.001,0.003 z"
     fill="#4c0202"
     id="path52" />
  <path
     fill-rule="evenodd"
     clip-rule="evenodd"
     d="m 1.614999,39.755012 c -0.019,-0.002 -0.038,-0.005 -0.058,-0.007 -0.015,-0.045 -0.03,-0.09 -0.045,-0.135 0,-0.002 -0.001,-0.004 -0.002,-0.006 -0.003,-0.008 -0.005,-0.016 -0.008,-0.024 -0.001,-0.005 -0.003,-0.009 -0.004,-0.014 -0.003,-0.006 -0.004,-0.012 -0.006,-0.018 -0.002,-0.007 -0.004,-0.013 -0.006,-0.02 -0.001,-0.004 -0.002,-0.008 -0.004,-0.012 -0.003,-0.008 -0.005,-0.017 -0.008,-0.025 -0.001,-0.002 -0.002,-0.006 -0.003,-0.009 -0.003,-0.01 -0.006,-0.018 -0.009,-0.028 0,-0.002 -0.001,-0.004 -0.002,-0.006 -0.003,-0.01 -0.006,-0.021 -0.009,-0.031 l -10e-4,-0.003 c -0.05,-0.156 -0.099,-0.312 -0.146,-0.468 0.102,0.269 0.206,0.537 0.311,0.806 z"
     fill="#ad4a36"
     id="path54" />
  <path
     fill-rule="evenodd"
     clip-rule="evenodd"
     d="m 3.756999,44.744012 c -0.609,-1.101 -1.152,-2.243 -1.622,-3.422 -10e-4,-0.002 -0.002,-0.004 -0.002,-0.005 -0.005,-0.012 -0.009,-0.022 -0.013,-0.033 -10e-4,-0.003 -0.002,-0.006 -0.003,-0.008 -0.004,-0.01 -0.008,-0.02 -0.012,-0.03 -10e-4,-0.004 -0.002,-0.006 -0.004,-0.01 -0.004,-0.009 -0.007,-0.019 -0.011,-0.028 -0.002,-0.004 -0.003,-0.007 -0.004,-0.011 -0.003,-0.009 -0.007,-0.018 -0.011,-0.027 -10e-4,-0.004 -0.003,-0.008 -0.004,-0.011 -0.004,-0.013 -0.01,-0.025 -0.015,-0.037 -0.002,-0.004 -0.003,-0.007 -0.004,-0.011 -0.003,-0.009 -0.006,-0.018 -0.01,-0.027 -0.002,-0.006 -0.004,-0.01 -0.006,-0.016 -0.003,-0.007 -0.005,-0.014 -0.008,-0.021 -0.002,-0.007 -0.005,-0.013 -0.007,-0.02 -0.002,-0.005 -0.004,-0.01 -0.006,-0.016 -0.003,-0.007 -0.006,-0.015 -0.009,-0.022 -0.002,-0.005 -0.004,-0.01 -0.006,-0.015 -0.003,-0.008 -0.006,-0.015 -0.009,-0.023 -10e-4,-0.004 -0.003,-0.008 -0.004,-0.013 -0.003,-0.007 -0.007,-0.017 -0.01,-0.025 -10e-4,-0.002 -0.002,-0.006 -0.004,-0.009 -0.017,-0.044 -0.033,-0.086 -0.049,-0.13 0,-10e-4 -0.001,-0.003 -0.001,-0.004 -0.004,-0.01 -0.007,-0.02 -0.011,-0.03 -0.001,-0.002 -0.002,-0.004 -0.002,-0.007 -0.004,-0.01 -0.008,-0.019 -0.012,-0.029 0,-0.002 -10e-4,-0.005 -0.002,-0.007 -0.004,-0.01 -0.007,-0.02 -0.011,-0.03 0,-0.002 -0.001,-0.003 -0.001,-0.004 -0.021,-0.058 -0.042,-0.116 -0.064,-0.173 0,-10e-4 0,-10e-4 0,-0.002 -0.004,-0.01 -0.007,-0.02 -0.011,-0.03 -0.001,-0.003 -0.002,-0.005 -0.003,-0.007 -0.004,-0.01 -0.007,-0.019 -0.011,-0.029 0,-0.003 -0.002,-0.005 -0.003,-0.009 -0.003,-0.009 -0.006,-0.018 -0.01,-0.027 -0.001,-0.003 -0.002,-0.006 -0.003,-0.009 -0.003,-0.01 -0.006,-0.019 -0.01,-0.028 -10e-4,-0.003 -0.002,-0.005 -0.003,-0.008 -0.015,-0.042 -0.03,-0.084 -0.045,-0.126 -0.002,-0.004 -0.003,-0.008 -0.004,-0.013 -0.003,-0.008 -0.005,-0.014 -0.008,-0.023 -10e-4,-0.005 -0.003,-0.01 -0.005,-0.015 -0.002,-0.007 -0.004,-0.014 -0.007,-0.021 -0.003,-0.006 -0.004,-0.012 -0.007,-0.018 -0.002,-0.007 -0.004,-0.013 -0.007,-0.019 -0.002,-0.007 -0.004,-0.014 -0.007,-0.021 -0.002,-0.005 -0.004,-0.011 -0.006,-0.016 -0.003,-0.01 -0.006,-0.019 -0.009,-0.028 -10e-4,-0.003 -0.003,-0.007 -0.003,-0.01 -0.014,-0.04 -0.028,-0.08 -0.042,-0.12 -0.004,-0.013 -0.009,-0.027 -0.013,-0.041 -0.014,-0.041 -0.028,-0.083 -0.041,-0.122 0.02,0.002 0.039,0.005 0.058,0.007 0.657,1.673 1.366,3.338 2.453,4.946 -0.108,0.014 -0.212,0.029 -0.316,0.043 z"
     fill="#c87464"
     id="path56" />
  <path
     fill-rule="evenodd"
     clip-rule="evenodd"
     d="m 59.103999,38.635912 c 0,-0.002 10e-4,-0.003 10e-4,-0.004 0,10e-4 -10e-4,0.003 -10e-4,0.004 z m 0.737,-3.138 c 0,-0.002 0.001,-0.005 0.001,-0.007 -0.001,0.002 -0.001,0.005 -0.001,0.007 z m 0.024,-0.142 c 0.001,-0.002 0.001,-0.003 0.001,-0.005 0,10e-4 -0.001,0.004 -0.001,0.005 z m 0.009,-0.047 c 0,0 0.001,-0.002 0.001,-0.005 -0.001,0.001 -0.001,0.004 -0.001,0.005 z m 0.061,-0.37 c 0,-0.002 0.001,-0.003 0.001,-0.005 0,0.002 0,0.003 -0.001,0.005 z m 0.007,-0.049 c 0,0 10e-4,0 10e-4,-0.002 0,10e-4 0,0.002 -10e-4,0.002 z m 0.008,-0.047 c 0,0 0,-10e-4 0,-0.002 z m 0.288,-2.556 c 0,-10e-4 0,-0.003 0,-0.005 0,0.002 0,0.003 0,0.005 z m 0.009,-0.137 c 0,-0.005 10e-4,-0.01 10e-4,-0.016 0,0.005 0,0.011 -10e-4,0.016 z m 0.006,-0.091 c 0,-0.006 10e-4,-0.014 0.002,-0.021 -10e-4,0.006 -0.002,0.014 -0.002,0.021 z m 0.006,-0.09 c 10e-4,-0.01 10e-4,-0.019 0.002,-0.029 -10e-4,0.011 -0.002,0.019 -0.002,0.029 z m 0.002,-0.044 c 0,-0.011 0.001,-0.022 0.002,-0.033 -10e-4,0.011 -10e-4,0.022 -0.002,0.033 z m 0.003,-0.043 c 0,-0.012 0.001,-0.025 0.002,-0.037 -10e-4,0.013 -0.002,0.024 -0.002,0.037 z m 0.002,-0.046 c 10e-4,-0.012 0.002,-0.026 0.002,-0.039 0,0.014 -0.001,0.026 -0.002,0.039 z m 0.002,-0.039 c 0.01,-0.17 0.017,-0.342 0.023,-0.513 -0.006,0.171 -0.014,0.343 -0.023,0.513 z m 0.027,-0.609 c 0.001,-0.013 0.001,-0.027 0.001,-0.04 0,0.014 -0.001,0.026 -0.001,0.04 z m 0.001,-0.047 c 0,-0.013 10e-4,-0.026 10e-4,-0.039 0,0.014 0,0.026 -10e-4,0.039 z m 0.002,-0.048 c 0.001,-0.012 0.001,-0.025 0.001,-0.037 0,0.012 -0.001,0.025 -0.001,0.037 z m 0.003,-0.095 c 0.001,-0.012 0.001,-0.024 0.001,-0.035 -0.001,0.012 -0.001,0.023 -0.001,0.035 z m 0.001,-0.048 c 10e-4,-0.011 10e-4,-0.022 10e-4,-0.033 0,0.01 -10e-4,0.022 -10e-4,0.033 z m 10e-4,-0.048 c 0,-0.011 10e-4,-0.022 10e-4,-0.033 0,0.011 0,0.022 -10e-4,0.033 z m 10e-4,-0.048 c 0.001,-0.01 0.001,-0.021 0.001,-0.032 0,0.011 0,0.021 -0.001,0.032 z m 0.002,-0.047 c 0,-0.011 0,-0.022 0,-0.032 0,0.011 0,0.02 0,0.032 z m 0.002,-0.144 c 0,-0.01 0,-0.019 10e-4,-0.03 -10e-4,0.01 -10e-4,0.02 -10e-4,0.03 z m 0.002,-0.148 c 0,-0.008 0,-0.016 0.001,-0.023 -0.001,0.008 -0.001,0.015 -0.001,0.023 z m 0.002,-0.195 c 0,-0.007 0,-0.013 0,-0.02 0,0.008 0,0.013 0,0.02 z m 0,-0.05 c 0,-0.005 0,-0.012 0,-0.018 0,0.007 0,0.011 0,0.018 z m 0,-0.157 c 0,-0.004 0,-0.007 0,-0.01 0,0.003 0,0.007 0,0.01 z m 0,-0.087 c 0,-0.004 0,-0.007 0,-0.01 0,0.003 0,0.007 0,0.01 z m 0,-0.131 c 0,-0.003 0,-0.005 0,-0.007 -10e-4,0.002 0,0.005 0,0.007 z m -10e-4,-0.044 c 0,-0.002 0,-0.004 0,-0.004 0,0.001 0,0.003 0,0.004 z m -0.001,-0.088 c 0,-0.001 0,-0.001 0,-0.002 z m -5.104,-16.402 c -0.002,-0.002 -0.002,-0.003 -0.003,-0.005 0.001,0.002 0.002,0.003 0.003,0.005 z m -0.023,-0.034 c 0,-10e-4 -0.001,-0.002 -0.002,-0.003 0,0 0.002,0.002 0.002,0.003 z m -0.065,-0.097 c -0.003,-0.004 -0.006,-0.009 -0.01,-0.013 0.003,0.004 0.007,0.009 0.01,0.013 z m -0.021,-0.03 c -0.003,-0.005 -0.006,-0.01 -0.01,-0.016 0.003,0.006 0.007,0.011 0.01,0.016 z m -0.05,-0.073 c -0.004,-0.006 -0.009,-0.012 -0.013,-0.019 0.005,0.006 0.009,0.013 0.013,0.019 z m -0.039,-0.058 c -0.005,-0.007 -0.01,-0.015 -0.015,-0.022 0.005,0.008 0.01,0.014 0.015,0.022 z m -0.092,-0.132 c -0.289,-0.415 -0.589,-0.822 -0.898,-1.222 -0.062,-0.079 -0.123,-0.159 -0.186,-0.238 0.376,0.475 0.737,0.963 1.084,1.46 z m -1.164,-1.562 c -0.009,-0.011 -0.018,-0.022 -0.027,-0.033 0.008,0.011 0.017,0.022 0.027,0.033 z m -0.037,-0.045 c -0.01,-0.013 -0.021,-0.026 -0.031,-0.039 0.011,0.013 0.021,0.026 0.031,0.039 z m -0.123,-0.153 c -0.004,-0.005 -0.009,-0.011 -0.014,-0.016 0.005,0.006 0.009,0.01 0.014,0.016 z m -0.08,-0.098 c -0.003,-0.003 -0.005,-0.007 -0.008,-0.01 0.003,0.004 0.005,0.007 0.008,0.01 z m -0.081,-0.099 c -10e-4,-0.001 -10e-4,-0.001 0,0 z m -2.294,-2.48397 c -0.576,-0.558 -1.174,-1.093 -1.792,-1.604 -0.446,-0.368 -0.902,-0.724 -1.369,-1.066 1.115,0.818 2.171,1.71 3.161,2.67 z m -3.202,-2.701 c -0.01,-0.007 -0.02,-0.014 -0.03,-0.021 0.011,0.007 0.019,0.014 0.03,0.021 z m -0.038,-0.027 c -0.009,-0.007 -0.019,-0.014 -0.028,-0.021 0.009,0.007 0.018,0.014 0.028,0.021 z m -0.074,-0.054 c -0.012,-0.008 -0.024,-0.017 -0.037,-0.026 0.012,0.009 0.025,0.018 0.037,0.026 z m -0.089,-0.063 c -0.006,-0.005 -0.012,-0.009 -0.018,-0.013 0.006,0.004 0.013,0.009 0.018,0.013 z m -0.037,-0.027 c -0.005,-0.004 -0.01,-0.007 -0.015,-0.011 0.006,0.004 0.01,0.007 0.015,0.011 z m -8.136,-4.129 c -0.001,0 -0.002,0 -0.002,0 z m -0.038,-0.012 c -0.002,0 -0.003,-10e-4 -0.004,-10e-4 0.002,10e-4 0.003,10e-4 0.004,10e-4 z m -0.119,-0.038 c -0.003,-0.002 -0.007,-0.003 -0.011,-0.004 0.004,0.001 0.008,0.003 0.011,0.004 z m -0.036,-0.012 c -0.005,-0.002 -0.01,-0.002 -0.015,-0.005 0.006,0.002 0.009,0.003 0.015,0.005 z m -0.035,-0.011 c -0.007,-0.002 -0.013,-0.004 -0.019,-0.006 0.006,0.002 0.013,0.004 0.019,0.006 z m -0.066,-0.021 c -0.03,-0.01 -0.061,-0.02 -0.091,-0.029 0.029,0.009 0.061,0.019 0.091,0.029 z m -0.093,-0.029 c -0.01,-0.004 -0.021,-0.007 -0.031,-0.01 0.011,0.003 0.022,0.006 0.031,0.01 z m -0.035,-0.011 c -0.01,-0.003 -0.021,-0.007 -0.03,-0.01 0.01,0.003 0.019,0.006 0.03,0.01 z m -0.034,-0.01 c -0.067,-0.022 -0.134,-0.042 -0.201,-0.063 -1.215,-0.368 -2.463,-0.661 -3.738,-0.874 1.347,0.226 2.661,0.539 3.939,0.937 z"
     fill="#4c0202"
     id="path58" />
  <path
     fill-rule="evenodd"
     clip-rule="evenodd"
     d="m 38.624999,1.320042 c -1.179,-0.378 -2.319,-0.642 -3.458,-0.905 1.275,0.213 2.523,0.506 3.738,0.874 -0.094,0.01 -0.187,0.021 -0.28,0.031 z"
     fill="#cb6143"
     id="path60" />
  <path
     fill-rule="evenodd"
     clip-rule="evenodd"
     d="m 46.938999,5.097942 c -0.565,-0.087 -1.13,-0.171 -1.693,-0.251 -0.181,-0.137 -0.363,-0.273 -0.548,-0.408 -2.23,-1.631 -4.201,-2.519 -6.072,-3.119 0.093,-0.01 0.186,-0.021 0.28,-0.031 0.067,0.021 0.134,0.041 0.201,0.063 h 0.003 c 0.01,0.003 0.02,0.007 0.03,0.01 0.002,0 0.003,0 0.005,0.001 0.01,0.003 0.021,0.006 0.031,0.01 0.031,0.009 0.062,0.019 0.092,0.029 0.004,10e-4 0.006,0.002 0.01,0.003 0.007,0.002 0.015,0.005 0.022,0.007 0.006,0.002 0.01,0.002 0.015,0.005 0.006,0.002 0.013,0.004 0.019,0.006 0.006,0.002 0.013,0.004 0.02,0.006 0.005,0.003 0.01,0.003 0.015,0.005 0.008,0.003 0.017,0.005 0.025,0.008 0.003,10e-4 0.007,0.002 0.011,0.004 0.013,0.004 0.024,0.007 0.036,0.011 l 0.001,0.001 c 0.013,0.004 0.026,0.008 0.039,0.012 0.013,0.004 0.026,0.009 0.039,0.013 0.001,0 0.002,0.001 0.004,0.001 0.012,0.004 0.023,0.008 0.036,0.012 0,0 0.001,0 0.002,0 2.638,0.865 5.115,2.084 7.377,3.602 z"
     fill="#bd5940"
     id="path62" />
  <path
     fill-rule="evenodd"
     clip-rule="evenodd"
     d="m 48.027999,7.215042 c -0.854,-0.814 -1.779,-1.604 -2.783,-2.368 0.563,0.081 1.128,0.164 1.693,0.251 0.228,0.153 0.454,0.309 0.677,0.468 0.003,0.002 0.005,0.004 0.009,0.006 0.008,0.006 0.016,0.011 0.024,0.017 0.004,0.003 0.007,0.006 0.011,0.008 0.007,0.005 0.015,0.011 0.022,0.016 0.005,0.004 0.009,0.007 0.015,0.011 0.006,0.004 0.013,0.009 0.02,0.014 0.006,0.004 0.012,0.00801 0.018,0.01301 0.006,0.004 0.012,0.00799 0.018,0.01199 0.01,0.007 0.02,0.014 0.03,0.022 l 0.004,0.003 c 0.012,0.009 0.024,0.018 0.037,0.026 0.002,0.002 0.005,0.00401 0.008,0.00601 0.01,0.007 0.019,0.014 0.029,0.021 0.002,0.002 0.006,0.00399 0.008,0.00599 0.01,0.007 0.019,0.014 0.028,0.021 0.002,0.002 0.006,0.004 0.008,0.006 0.01,0.007 0.02,0.014 0.03,0.021 0.002,0.002 0.004,0.00401 0.006,0.00501 0.011,0.008 0.023,0.01699 0.034,0.02499 l 0.002,0.001 c 0.466,0.342 0.922,0.698 1.369,1.066 -0.073,0.018 -0.146,0.037 -0.219,0.055 -0.014,0.004 -0.027,0.007 -0.041,0.011 -0.009,0.002 -0.019,0.005 -0.028,0.007 -0.012,0.003 -0.024,0.006 -0.036,0.009 -0.329,0.083 -0.66,0.164 -0.993,0.241 z"
     fill="#cb6143"
     id="path64" />
  <path
     fill-rule="evenodd"
     clip-rule="evenodd"
     d="m 49.616999,8.851972 c -0.498,-0.554 -1.028,-1.101 -1.589,-1.637 0.333,-0.077 0.664,-0.158 0.993,-0.241 0.012,-0.003 0.024,-0.006 0.036,-0.009 0.009,-0.002 0.019,-0.005 0.028,-0.007 0.014,-0.004 0.027,-0.007 0.041,-0.011 0.073,-0.018 0.146,-0.037 0.219,-0.055 0.618,0.511 1.216,1.046 1.792,1.604 0.002,10e-4 0.002,0.002 0.004,0.003 0.007,0.008 0.016,0.016 0.024,0.023 0.003,0.004 0.006,0.006 0.008,0.009 0.005,0.005 0.01,0.009 0.015,0.014 0.09,0.088 0.181,0.177 0.27,0.266 -0.594,0.009 -1.204,0.022 -1.841,0.041 z"
     fill="#c25639"
     id="path66" />
  <path
     fill-rule="evenodd"
     clip-rule="evenodd"
     d="m 54.017999,11.715012 c -0.81,-0.095 -1.589,-0.182 -2.332,-0.26 -0.619,-0.886 -1.307,-1.754 -2.069,-2.60298 0.637,-0.019 1.247,-0.032 1.84,-0.041 0.692,0.68998 1.35,1.41298 1.972,2.16798 l 0.001,10e-4 c 0.025,0.03 0.049,0.059 0.074,0.089 0.002,0.003 0.005,0.007 0.008,0.01 0.014,0.017 0.028,0.035 0.042,0.052 0.002,0.002 0.004,0.004 0.005,0.006 0.006,0.008 0.013,0.015 0.02,0.024 0.004,0.005 0.009,0.011 0.014,0.016 0.006,0.007 0.012,0.015 0.018,0.022 0.009,0.011 0.018,0.024 0.028,0.034 0.004,0.006 0.009,0.012 0.014,0.018 0.007,0.008 0.014,0.017 0.021,0.026 0.004,0.005 0.007,0.01 0.011,0.014 0.01,0.013 0.021,0.026 0.031,0.039 0.003,0.004 0.006,0.008 0.009,0.012 0.009,0.011 0.018,0.022 0.027,0.033 0.002,0.003 0.005,0.007 0.007,0.009 0.011,0.015 0.022,0.029 0.034,0.043 0.002,0.002 0.003,0.004 0.004,0.006 0.011,0.014 0.022,0.028 0.033,0.042 l 0.002,0.002 c 0.063,0.079 0.125,0.159 0.186,0.238 z"
     fill="#cb6143"
     id="path68" />
  <path
     fill-rule="evenodd"
     clip-rule="evenodd"
     d="m 53.905999,15.322912 c -0.604,-1.317 -1.342,-2.61 -2.22,-3.868 0.743,0.078 1.522,0.165 2.332,0.26 0.309,0.4 0.609,0.807 0.898,1.222 l 10e-4,0.002 c 0.024,0.035 0.049,0.069 0.072,0.104 10e-4,0.002 0.003,0.004 0.003,0.004 0.005,0.007 0.01,0.015 0.015,0.022 10e-4,0.002 0.004,0.006 0.005,0.008 0.005,0.007 0.01,0.014 0.014,0.021 0.003,0.003 0.005,0.006 0.007,0.01 0.004,0.007 0.009,0.013 0.013,0.019 0.002,0.004 0.004,0.007 0.007,0.01 0.008,0.012 0.016,0.023 0.023,0.034 0.004,0.005 0.006,0.008 0.009,0.013 0.004,0.006 0.007,0.011 0.01,0.016 0.004,0.005 0.008,0.011 0.011,0.017 0.003,0.004 0.006,0.009 0.01,0.013 0.004,0.006 0.008,0.013 0.013,0.019 0.003,0.004 0.005,0.008 0.008,0.012 0.006,0.009 0.013,0.019 0.019,0.028 l 10e-4,0.002 c 0.008,0.011 0.015,0.021 0.022,0.033 l 0.002,0.003 c 0.007,0.01 0.013,0.02 0.02,0.029 10e-4,0.002 10e-4,0.003 0.003,0.005 0.006,0.009 0.013,0.02 0.02,0.03 0,0 10e-4,0 10e-4,0.002 0.401,0.598 0.78,1.209 1.138,1.836 -0.038,0.002 -0.075,0.004 -0.113,0.005 -0.018,10e-4 -0.036,0.002 -0.054,0.003 -0.77,0.033 -1.534,0.063 -2.29,0.086 z"
     fill="#c67060"
     id="path70" />
  <path
     fill-rule="evenodd"
     clip-rule="evenodd"
     d="m 57.494999,17.411012 c -0.915,0 -1.83,-0.001 -2.749,-0.003 -0.244,-0.7 -0.524,-1.396 -0.84,-2.085 0.756,-0.023 1.52,-0.053 2.292,-0.086 0.017,-10e-4 0.036,-0.002 0.054,-0.003 0.038,-10e-4 0.075,-0.003 0.113,-0.005 0.405,0.71 0.782,1.438 1.13,2.182 z"
     fill="#c87464"
     id="path72" />
  <path
     fill-rule="evenodd"
     clip-rule="evenodd"
     d="m 59.791999,24.550912 c -1.253,-0.39 -2.514,-0.765 -3.789,-1.113 -0.154,-2.025 -0.565,-4.05 -1.256,-6.03 0.919,0.002 1.834,0.003 2.749,0.003 1.046,2.244 1.826,4.638 2.296,7.14 z"
     fill="#983527"
     id="path74" />
  <path
     fill-rule="evenodd"
     clip-rule="evenodd"
     d="m 57.755999,27.447012 c -0.002,0 -0.004,0 -0.006,0 -0.586,0 -1.175,-0.002 -1.769,-0.006 0.114,-1.33 0.124,-2.666 0.022,-4.003 1.275,0.348 2.536,0.723 3.789,1.113 0.178,0.948 0.312,1.911 0.399,2.887 -0.101,0.001 -0.202,0.002 -0.303,0.002 -0.708,0.005 -1.418,0.007 -2.132,0.007 z"
     fill="#c7593a"
     id="path76" />
  <path
     fill-rule="evenodd"
     clip-rule="evenodd"
     d="m 60.166999,33.138012 c -1.772,-0.056 -3.53,-0.117 -5.253,-0.188 0.545,-1.801 0.908,-3.646 1.067,-5.509 0.594,0.004 1.183,0.006 1.769,0.006 0.002,0 0.004,0 0.006,0 0.714,0 1.424,-0.002 2.132,-0.007 0.101,0 0.203,-10e-4 0.303,-0.002 0.068,0.767 0.108,1.541 0.118,2.323 0,10e-4 0,10e-4 0,0.002 0,0.014 0,0.027 0,0.041 0,0 0,0.002 0,0.003 10e-4,0.013 10e-4,0.026 10e-4,0.04 0,0 0,0.002 0,0.004 0,0.012 0,0.024 0,0.037 0,0.002 0,0.004 0,0.007 0,0.012 0,0.025 0,0.038 0,10e-4 0,0.003 0,0.005 0,0.012 0,0.024 0,0.036 0,0.002 0,0.004 0,0.008 0,0.012 0,0.022 0,0.034 0,0.003 0,0.006 0,0.01 0,0.011 0,0.022 0,0.034 0,0.003 0,0.006 0,0.009 0,0.012 0,0.023 0,0.034 0,0.003 0,0.006 0,0.01 0,0.014 0,0.029 0,0.043 0,0.016 0,0.032 0,0.048 0,0.005 0,0.01 0,0.015 0,0.01 0,0.023 0,0.033 0,0.006 0,0.013 0,0.018 0,0.01 0,0.021 0,0.03 0,0.007 0,0.013 0,0.02 0,0.009 0,0.019 0,0.028 0,0.008 0,0.016 0,0.025 0,0.008 0,0.015 0,0.023 0,0.009 0,0.017 0,0.025 0,0.007 0,0.016 0,0.023 0,0.008 0,0.016 0,0.024 0,0.009 0,0.016 0,0.025 -10e-4,0.007 -10e-4,0.015 -10e-4,0.023 0,0.008 0,0.016 0,0.025 0,0.009 0,0.017 0,0.026 0,0.007 0,0.014 0,0.021 -10e-4,0.009 -10e-4,0.018 -10e-4,0.027 0,0.007 0,0.013 0,0.02 -0.001,0.01 -0.001,0.02 -0.001,0.03 0,0.005 0,0.011 0,0.017 0,0.01 0,0.02 0,0.03 -10e-4,0.006 -10e-4,0.012 -10e-4,0.018 0,0.01 0,0.021 -10e-4,0.031 0,0.005 0,0.011 0,0.016 0,0.01 0,0.021 0,0.032 -0.001,0.005 -0.001,0.01 -0.001,0.015 0,0.011 0,0.022 -10e-4,0.032 0,0.005 0,0.011 0,0.015 0,0.011 -10e-4,0.022 -10e-4,0.033 0,0.005 0,0.009 0,0.015 0,0.011 -0.001,0.022 -0.001,0.033 0,0.004 0,0.009 0,0.013 0,0.011 0,0.023 -10e-4,0.035 0,0.004 0,0.008 0,0.012 0,0.012 -10e-4,0.024 -10e-4,0.036 0,0.003 0,0.006 0,0.01 0,0.012 -0.001,0.025 -0.001,0.037 0,0.003 0,0.007 0,0.009 0,0.013 -10e-4,0.026 -10e-4,0.039 0,0.002 0,0.005 -10e-4,0.007 0,0.013 0,0.027 -0.001,0.04 0,0.002 0,0.004 0,0.006 -10e-4,0.014 -10e-4,0.028 -10e-4,0.042 0,10e-4 -10e-4,0.002 -10e-4,0.003 -0.001,0.015 -0.001,0.029 -0.002,0.044 -0.006,0.171 -0.014,0.342 -0.023,0.512 0,0.013 -0.001,0.028 -0.002,0.04 0,0.002 0,0.007 0,0.009 0,0.012 -10e-4,0.025 -0.002,0.037 -10e-4,0.003 -10e-4,0.007 -10e-4,0.01 -10e-4,0.011 -0.002,0.023 -0.002,0.033 0,0.005 -10e-4,0.01 -10e-4,0.015 -10e-4,0.01 -10e-4,0.019 -0.002,0.029 0,0.006 -10e-4,0.014 -10e-4,0.019 0,0.009 -10e-4,0.017 -10e-4,0.025 0,0.009 -0.001,0.015 -0.001,0.024 -10e-4,0.008 -10e-4,0.015 -0.002,0.021 0,0.008 -0.001,0.019 -0.001,0.026 -10e-4,0.007 -10e-4,0.013 -10e-4,0.02 -10e-4,0.01 -10e-4,0.019 -0.002,0.029 0,0.006 -10e-4,0.011 -10e-4,0.016 -10e-4,0.011 -10e-4,0.022 -0.002,0.033 -10e-4,0.004 -10e-4,0.009 -10e-4,0.012 -10e-4,0.014 -0.002,0.025 -0.003,0.038 0,0.003 -10e-4,0.005 -10e-4,0.008 -0.001,0.014 -0.002,0.027 -0.003,0.041 0,0.002 0,0.004 0,0.005 -0.02,0.285 -0.044,0.569 -0.071,0.851 z"
     fill="#ca624a"
     id="path78" />
  <path
     fill-rule="evenodd"
     clip-rule="evenodd"
     d="m 59.671999,36.366912 c -1.916,-0.265 -3.824,-0.52 -5.711,-0.752 0.362,-0.875 0.68,-1.764 0.953,-2.665 1.723,0.071 3.481,0.132 5.253,0.188 -0.057,0.573 -0.129,1.14 -0.217,1.703 v 0.002 c -0.002,0.016 -0.004,0.029 -0.007,0.045 v 0.002 c -0.002,0.014 -0.005,0.03 -0.007,0.044 0,0.002 -0.001,0.003 -0.001,0.005 -0.02,0.122 -0.04,0.243 -0.061,0.365 0,0.002 -10e-4,0.005 -10e-4,0.005 -0.002,0.015 -0.004,0.027 -0.007,0.042 0,0.002 0,0.003 -0.001,0.005 -0.002,0.014 -0.004,0.027 -0.006,0.041 -10e-4,0.002 -10e-4,0.005 -0.002,0.007 -0.003,0.014 -0.005,0.026 -0.007,0.04 -10e-4,0.002 -0.002,0.005 -0.002,0.007 -0.002,0.014 -0.005,0.026 -0.007,0.041 0,0.002 -10e-4,0.004 -10e-4,0.007 -0.003,0.015 -0.005,0.027 -0.008,0.042 l -0.001,0.002 c -0.048,0.275 -0.102,0.55 -0.159,0.824 z"
     fill="#c2563a"
     id="path80" />
  <path
     fill-rule="evenodd"
     clip-rule="evenodd"
     d="m 52.319999,38.978012 c 0.618,-1.091 1.167,-2.215 1.641,-3.363 1.887,0.232 3.795,0.487 5.711,0.752 -0.158,0.751 -0.343,1.492 -0.555,2.222 l -10e-4,0.003 c -0.001,0.004 -0.002,0.008 -0.003,0.012 -2.274,0.139 -4.541,0.267 -6.793,0.374 z"
     fill="#983527"
     id="path82" />
  <path
     fill-rule="evenodd"
     clip-rule="evenodd"
     d="m 57.180999,43.553012 c -2.084,-0.588 -4.311,-1.112 -6.851,-1.496 0.725,-0.991 1.39,-2.02 1.99,-3.079 2.252,-0.107 4.519,-0.235 6.793,-0.374 -0.003,0.01 -0.005,0.018 -0.008,0.028 0,10e-4 -10e-4,0.002 -10e-4,0.004 -0.021,0.074 -0.043,0.147 -0.066,0.222 -0.009,0.029 -0.018,0.059 -0.027,0.088 -0.486,1.595 -1.099,3.135 -1.83,4.607 z"
     fill="#ad4a36"
     id="path84" />
  <path
     fill-rule="evenodd"
     clip-rule="evenodd"
     d="m 55.308999,46.797012 c -2.624,-0.493 -5.227,-0.972 -7.775,-1.413 1.008,-1.048 1.944,-2.162 2.796,-3.327 2.54,0.384 4.767,0.908 6.851,1.496 -0.558,1.123 -1.184,2.206 -1.872,3.244 z"
     fill="#c87464"
     id="path86" />
  <path
     fill-rule="evenodd"
     clip-rule="evenodd"
     d="m 30.155999,60.312012 c -0.014,0 -0.028,0 -0.042,0 -0.004,0 -0.008,0 -0.012,0 -0.01,0 -0.02,0 -0.029,0 -0.005,0 -0.01,0 -0.016,0 -0.008,0 -0.017,0 -0.026,0 -0.006,0 -0.011,0 -0.016,0 -0.009,0 -0.017,0 -0.025,0 -0.006,0 -0.012,0 -0.018,-0.001 -0.008,0 -0.016,0 -0.024,0 -0.005,0 -0.011,0 -0.016,0 -0.009,0 -0.017,0 -0.026,0 -0.005,0 -0.011,0 -0.017,0 -0.008,0 -0.016,0 -0.024,0 -0.006,0 -0.011,0 -0.017,0 -0.008,0 -0.016,0 -0.024,-10e-4 -0.006,0 -0.012,0 -0.018,0 -0.008,0 -0.016,0 -0.024,0 -0.005,0 -0.011,0 -0.017,0 -0.009,-10e-4 -0.017,-10e-4 -0.026,-10e-4 -0.004,0 -0.011,0 -0.016,0 -0.009,0 -0.018,0 -0.027,0 -0.005,0 -0.009,0 -0.014,-0.001 -0.01,0 -0.021,0 -0.031,0 -0.004,0 -0.007,0 -0.011,0 -0.014,0 -0.028,0 -0.042,-10e-4 -0.002,0 -0.003,0 -0.004,0 -0.012,0 -0.024,0 -0.037,-10e-4 -0.005,0 -0.009,0 -0.015,0 -0.009,0 -0.018,0 -0.027,0 -0.006,0 -0.012,0 -0.018,0 -0.007,0 -0.015,0 -0.023,0 -0.006,-0.002 -0.014,-0.002 -0.021,-0.002 -0.007,0 -0.014,0 -0.021,0 -0.006,0 -0.014,-10e-4 -0.021,-10e-4 -0.006,0 -0.014,0 -0.021,0 -0.006,-0.001 -0.013,-0.001 -0.02,-0.001 -0.007,0 -0.015,0 -0.022,0 -0.007,0 -0.013,-10e-4 -0.019,-10e-4 -0.007,0 -0.014,0 -0.021,0 -0.006,0 -0.014,-10e-4 -0.02,-10e-4 -0.007,0 -0.016,0 -0.023,-0.001 -0.005,0 -0.012,0 -0.018,0 -0.008,0 -0.016,0 -0.023,-10e-4 -0.006,0 -0.012,0 -0.018,0 -0.008,-10e-4 -0.017,-10e-4 -0.025,-10e-4 -0.005,0 -0.011,0 -0.017,-0.001 -0.007,0 -0.015,0 -0.022,-10e-4 -0.006,0 -0.014,0 -0.02,0 -0.008,0 -0.017,-10e-4 -0.024,-10e-4 -0.006,0 -0.011,0 -0.016,-0.001 -0.013,0 -0.027,0 -0.041,-10e-4 -0.005,0 -0.01,0 -0.015,0 -0.009,-10e-4 -0.017,-10e-4 -0.026,-10e-4 -0.007,-0.001 -0.012,-0.001 -0.018,-0.001 -0.007,0 -0.015,-10e-4 -0.023,-10e-4 -0.007,0 -0.013,0 -0.021,0 -0.006,0 -0.013,0 -0.02,-0.002 -0.007,0 -0.014,0 -0.02,-10e-4 -0.007,0 -0.014,0 -0.021,0 -0.006,0 -0.014,-10e-4 -0.021,-10e-4 -0.007,-0.001 -0.013,-0.001 -0.02,-0.001 -0.008,0 -0.015,-10e-4 -0.022,-10e-4 -0.006,0 -0.012,0 -0.019,-10e-4 -0.008,0 -0.015,0 -0.023,-0.001 -0.005,0 -0.011,0 -0.017,0 -0.008,-10e-4 -0.016,-10e-4 -0.023,-0.002 -0.006,0 -0.012,0 -0.019,0 -0.007,-0.001 -0.016,-0.001 -0.023,-0.002 -0.005,0 -0.011,0 -0.016,0 -0.008,-10e-4 -0.016,-10e-4 -0.024,-10e-4 -0.005,-0.001 -0.01,-0.001 -0.016,-0.001 -0.008,-10e-4 -0.018,-10e-4 -0.025,-10e-4 -0.004,-10e-4 -0.009,-10e-4 -0.013,-10e-4 -0.009,-0.001 -0.019,-0.001 -0.028,-0.002 -0.003,0 -0.007,0 -0.01,0 -0.034,-0.002 -0.067,-0.004 -0.101,-0.006 -0.003,0 -0.006,0 -0.008,0 -0.009,0 -0.018,-10e-4 -0.027,-0.002 -0.004,0 -0.009,0 -0.014,0 -0.008,-0.002 -0.017,-0.002 -0.025,-0.002 -0.005,0 -0.01,0 -0.016,-10e-4 -0.008,0 -0.016,-0.001 -0.024,-0.001 -0.006,-10e-4 -0.01,-10e-4 -0.017,-10e-4 -0.008,0 -0.016,-10e-4 -0.024,-0.002 -0.005,0 -0.01,0 -0.015,0 -0.009,-10e-4 -0.017,-0.002 -0.026,-0.002 -0.005,0 -0.01,-0.001 -0.015,-0.001 -0.009,-10e-4 -0.017,-10e-4 -0.026,-0.002 -0.004,0 -0.008,0 -0.012,0 -0.009,-0.001 -0.019,-0.002 -0.028,-0.002 -0.004,0 -0.008,-10e-4 -0.013,-10e-4 -0.01,-0.001 -0.018,-0.001 -0.028,-0.002 -0.003,0 -0.006,0 -0.01,-0.002 -0.01,0 -0.021,-10e-4 -0.03,-0.002 -0.002,0 -0.004,0 -0.006,0 -0.063,-0.004 -0.125,-0.009 -0.188,-0.013 -0.001,0 -0.002,-10e-4 -0.003,-10e-4 -0.011,0 -0.021,-10e-4 -0.033,-0.002 -0.003,0 -0.005,0 -0.008,0 -0.009,-10e-4 -0.021,-0.002 -0.031,-0.003 -0.003,0 -0.006,0 -0.009,0 -0.01,0 -0.021,-10e-4 -0.031,-0.003 -0.003,0 -0.006,-10e-4 -0.009,-10e-4 -0.011,0 -0.021,-10e-4 -0.031,-0.002 -0.003,0 -0.006,-10e-4 -0.009,-10e-4 -0.01,0 -0.02,-10e-4 -0.031,-0.002 -0.004,0 -0.006,-10e-4 -0.009,-10e-4 -0.01,-10e-4 -0.021,-0.002 -0.03,-0.003 -0.003,0 -0.007,0 -0.01,0 -0.01,-10e-4 -0.02,-0.002 -0.03,-0.003 -0.003,0 -0.006,0 -0.009,0 -0.01,-10e-4 -0.021,-0.002 -0.032,-0.003 -10e-4,0 -0.002,0 -0.003,0 -0.09,-0.008 -0.18,-0.016 -0.27,-0.024 -0.025,-0.003 -0.051,-0.005 -0.077,-0.007 l -0.001,-10e-4 c -0.013,-0.001 -0.024,-0.002 -0.037,-0.003 -0.001,0 -0.001,0 -0.002,0 -0.012,-0.002 -0.024,-0.003 -0.037,-0.004 -10e-4,0 -0.002,0 -0.003,0 -0.012,-10e-4 -0.024,-0.002 -0.037,-0.004 -2.577,-0.257 -5.058,-0.838 -7.402,-1.703 4.254,-0.171 9.17,-0.632 13.17,-0.746 0.016,-0.001 0.032,-0.001 0.048,-0.002 0.027,0 0.055,-10e-4 0.082,-0.002 0.002,0 0.003,0 0.004,0 0.668,-0.018 1.31,-0.026 1.931,-0.026 0.001,0 0.004,0 0.005,0 2.343,0 4.377,0.117 6.31,0.272 0.003,0 0.008,0 0.012,0 0.036,0.003 0.072,0.006 0.108,0.009 0.006,0 0.013,10e-4 0.02,0.002 0.092,0.007 0.184,0.015 0.276,0.022 0.002,10e-4 0.005,10e-4 0.008,10e-4 0.01,0.001 0.02,0.002 0.03,0.002 0.013,10e-4 0.025,0.003 0.038,0.004 -2.727,1.138 -5.656,1.888 -8.718,2.179 -0.032,0.003 -0.063,0.006 -0.095,0.009 -10e-4,0 -0.002,0 -0.002,0 -0.015,0.002 -0.031,0.003 -0.045,0.004 h 0.003 c -0.015,0.002 -0.031,0.003 -0.046,0.005 -0.001,0 -0.002,0 -0.004,0 -0.015,10e-4 -0.028,0.002 -0.043,0.004 0,0 -0.002,0 -0.003,0 -0.014,0.002 -0.029,0.003 -0.043,0.004 -0.002,0 -0.003,0 -0.005,0 -0.014,10e-4 -0.028,0.003 -0.042,0.004 -0.002,0 -0.004,0 -0.006,0 -0.014,0.002 -0.027,0.003 -0.041,0.004 -0.003,0 -0.005,0 -0.008,0 -0.013,0.002 -0.028,0.003 -0.041,0.004 -0.002,0 -0.004,0 -0.006,0 -0.014,0.002 -0.027,0.002 -0.041,0.004 -0.003,0 -0.006,0 -0.009,0 -0.013,10e-4 -0.026,0.002 -0.039,0.003 -0.003,0 -0.007,10e-4 -0.01,10e-4 -0.012,0.002 -0.026,0.002 -0.038,0.003 -0.003,0 -0.007,0 -0.01,0.002 -0.012,10e-4 -0.026,0.002 -0.038,0.002 -0.003,0.001 -0.007,0.001 -0.011,0.001 -0.012,10e-4 -0.024,0.002 -0.036,0.003 -0.004,0 -0.008,10e-4 -0.012,10e-4 -0.012,10e-4 -0.024,0.002 -0.036,0.002 -0.004,10e-4 -0.008,10e-4 -0.012,10e-4 -0.012,10e-4 -0.023,0.002 -0.035,0.003 -0.004,0 -0.009,0 -0.013,10e-4 -0.012,0.001 -0.023,0.001 -0.035,0.002 -0.005,10e-4 -0.008,10e-4 -0.013,10e-4 -0.012,0.001 -0.023,0.001 -0.035,0.002 -0.005,10e-4 -0.009,10e-4 -0.013,10e-4 -0.012,0.002 -0.023,0.002 -0.036,0.002 -0.004,10e-4 -0.008,10e-4 -0.012,10e-4 -0.012,0.001 -0.022,0.002 -0.035,0.003 -0.005,0 -0.009,0 -0.014,0 -0.012,0.001 -0.023,0.002 -0.035,0.003 -0.004,0 -0.009,0 -0.013,0 -0.011,0.001 -0.023,0.002 -0.034,0.002 -0.005,10e-4 -0.009,10e-4 -0.014,10e-4 -0.011,0.001 -0.022,0.002 -0.033,0.002 -0.005,0 -0.01,10e-4 -0.015,10e-4 -0.011,0.001 -0.021,0.001 -0.032,0.002 -0.005,0 -0.01,0.002 -0.016,0.002 -0.011,0 -0.021,0 -0.032,0.002 -0.006,0 -0.011,0 -0.016,0 -0.011,0 -0.02,0.002 -0.031,0.002 -0.006,10e-4 -0.011,10e-4 -0.017,10e-4 -0.011,10e-4 -0.021,10e-4 -0.031,0.002 -0.006,0 -0.012,0 -0.017,10e-4 -0.01,0 -0.021,10e-4 -0.031,10e-4 -0.006,0.001 -0.012,0.001 -0.018,0.001 -0.01,10e-4 -0.021,10e-4 -0.03,0.002 -0.006,0 -0.012,0.001 -0.018,0.001 -0.01,0 -0.02,10e-4 -0.03,10e-4 -0.006,0 -0.012,10e-4 -0.018,10e-4 -0.01,0.001 -0.021,0.001 -0.031,0.001 -0.006,10e-4 -0.011,10e-4 -0.018,10e-4 -0.01,10e-4 -0.02,10e-4 -0.03,0.002 -0.006,0 -0.012,0 -0.018,10e-4 -0.01,0 -0.021,0 -0.03,10e-4 -0.007,0 -0.013,0 -0.019,0 -0.01,0.001 -0.019,0.001 -0.029,0.002 -0.006,0 -0.013,0 -0.019,0 -0.01,10e-4 -0.019,10e-4 -0.029,0.002 -0.006,0 -0.012,0 -0.019,0 -0.009,0 -0.019,0 -0.028,0.002 -0.006,0 -0.013,0 -0.02,0 -0.009,0.001 -0.02,0.001 -0.029,0.002 -0.007,0 -0.013,0 -0.019,0 -0.009,0 -0.019,10e-4 -0.028,10e-4 -0.006,0 -0.014,0 -0.02,0.001 -0.009,0 -0.02,0 -0.028,10e-4 -0.007,0 -0.013,0 -0.021,0 -0.009,10e-4 -0.018,10e-4 -0.028,10e-4 -0.006,0.001 -0.013,0.001 -0.02,0.001 -0.01,0 -0.02,10e-4 -0.029,10e-4 -0.007,0 -0.013,0 -0.021,10e-4 -0.009,0 -0.018,0 -0.027,0 -0.007,0 -0.014,0.001 -0.021,0.001 -0.01,0 -0.018,10e-4 -0.027,10e-4 -0.007,0 -0.014,0 -0.021,0 -0.009,0 -0.018,10e-4 -0.027,10e-4 -0.007,0 -0.014,0 -0.021,0 -0.009,0.001 -0.018,0.001 -0.027,0.001 -0.007,0 -0.015,10e-4 -0.021,10e-4 -0.009,0 -0.016,0 -0.025,0 -0.008,0 -0.015,0 -0.023,0.002 -0.008,0 -0.016,0 -0.024,0 -0.008,0 -0.016,0 -0.024,0 -0.008,0 -0.016,0 -0.023,0 -0.008,0 -0.016,10e-4 -0.024,10e-4 -0.009,0 -0.017,0 -0.026,0 -0.007,0 -0.015,10e-4 -0.022,10e-4 -0.009,0 -0.017,0 -0.026,0 -0.007,0 -0.015,0 -0.022,0 -0.009,0 -0.017,0.001 -0.027,0.001 -0.007,0 -0.015,0 -0.021,0 -0.009,0 -0.018,0 -0.027,0 -0.007,0 -0.014,10e-4 -0.021,10e-4 -0.009,0 -0.021,0 -0.031,0 -0.006,0 -0.011,0 -0.016,0 -0.011,0 -0.02,10e-4 -0.031,10e-4 -0.006,0 -0.012,0 -0.018,0 -0.01,0 -0.019,0 -0.029,0 -0.006,0 -0.013,0 -0.02,0 -0.01,0 -0.018,0 -0.028,0 -0.007,0 -0.014,0 -0.021,0 -0.011,0.001 -0.02,0.001 -0.032,0.001 -0.006,0 -0.011,0 -0.017,0 -0.01,0 -0.021,0 -0.03,0 -0.006,0 -0.013,0 -0.019,0 -0.01,0 -0.021,0 -0.031,0 -0.006,0 -0.011,0 -0.018,0 -0.015,0 -0.031,0 -0.047,0 z"
     fill="#ca624a"
     id="path88" />
  <path
     fill-rule="evenodd"
     clip-rule="evenodd"
     d="m 53.936999,48.702012 c -2.984,-0.371 -6.015,-0.674 -9.223,-0.717 0.993,-0.812 1.934,-1.681 2.82,-2.601 2.548,0.441 5.151,0.92 7.775,1.413 -0.434,0.654 -0.891,1.289 -1.372,1.905 z m -48.515,-1.29 c -0.107,-0.151 -0.211,-0.304 -0.313,-0.457 v -0.001 c -0.01,-0.014 -0.02,-0.028 -0.03,-0.042 -0.004,-0.007 -0.009,-0.014 -0.014,-0.021 -0.003,-0.004 -0.006,-0.009 -0.008,-0.013 -0.007,-0.009 -0.013,-0.019 -0.02,-0.028 -10e-4,-0.002 -0.003,-0.005 -0.004,-0.007 -0.453,-0.68 -0.879,-1.38 -1.276,-2.098 0.104,-0.014 0.208,-0.029 0.312,-0.043 0.601,0.888 1.317,1.758 2.203,2.603 -0.244,0.031 -0.49,0.062 -0.737,0.095 -0.021,0.002 -0.042,0.005 -0.063,0.008 -0.017,0 -0.033,0.002 -0.05,0.004 z"
     fill="#cb6143"
     id="path90" />
  <path
     fill-rule="evenodd"
     clip-rule="evenodd"
     d="m 13.377999,16.058012 c -1.984,0 -3.88599,-0.109 -5.73399,-0.289 1.848,0.18 3.75099,0.288 5.73399,0.289 z m 14.314,-3.809 c 0.002,0 0.003,0 0.005,0 -0.001,0 -0.003,0 -0.005,0 z m -15.849,-1.306 c -0.006,-10e-4 -0.014,-10e-4 -0.021,-10e-4 0.008,0 0.015,0 0.021,10e-4 z m -0.066,-0.005 c -0.258,-0.02 -0.513,-0.038 -0.764,-0.054 0.252,0.016 0.506,0.034 0.764,0.054 z m 4.214,-1.215 c -1.135,0 -2.289,-0.049 -3.455,-0.179 1.166,0.13 2.319,0.179 3.455,0.179 z m -3.469,-0.18 c -0.015,-0.002 -0.031,-0.004 -0.047,-0.006 0.017,0.002 0.032,0.004 0.047,0.006 z m 12.062,-0.23598 c 0.021,0 0.041,0 0.061,-0.002 -0.021,10e-4 -0.041,10e-4 -0.061,0.002 z m -2.453,-4.819 c -0.326,0 -0.65,-0.002 -0.975,-0.006 0.325,0.004 0.65,0.006 0.975,0.006 z"
     fill="#6c6158"
     id="path92" />
  <path
     fill-rule="evenodd"
     clip-rule="evenodd"
     d="m 22.138999,4.487942 c -0.002,0 -0.005,0 -0.007,0 -0.326,0 -0.65,-0.002 -0.975,-0.006 1.851,-0.653 3.581,-0.99 5.035,-0.99 1.243,0 2.285,0.246 3.029,0.754 -0.408,0.021 -0.815,0.04 -1.221,0.06 -1.702,0.083 -3.388,0.16 -5.058,0.178 -0.268,0.003 -0.536,0.004 -0.803,0.004 z"
     fill="#f9a577"
     id="path94" />
  <path
     fill-rule="evenodd"
     clip-rule="evenodd"
     d="m 30.380999,7.404972 c -2.432,-0.305 -4.848,-0.606 -7.082,-0.72 -0.024,-0.001 -0.047,-0.002 -0.07,-0.003 -0.717,-0.036 -1.415,-0.052 -2.098,-0.052 -0.002,0 -0.005,0 -0.006,0 -1.763,0 -3.419,0.11 -5.014,0.282 1.706,-1.042 3.423,-1.857 5.046,-2.43 0.325,0.004 0.649,0.006 0.975,0.006 0.002,0 0.005,0 0.007,0 0.267,0 0.536,-0.001 0.803,-0.004 1.67,-0.018 3.356,-0.095 5.058,-0.178 0.406,-0.021 0.813,-0.04 1.221,-0.06 0.326,0.222 0.594,0.494 0.797,0.817 0.41,0.65 0.518,1.45 0.363,2.342 z"
     fill="#fdab77"
     id="path96" />
  <path
     fill-rule="evenodd"
     clip-rule="evenodd"
     d="m 15.992999,9.723012 h -0.002 c -1.135,0 -2.289,-0.049 -3.455,-0.179 -0.005,0 -0.009,-0.001 -0.014,-0.001 -0.015,-0.002 -0.031,-0.004 -0.047,-0.006 h -0.003 c 0.986,-0.84001 2.09,-1.65301 3.293,-2.41101 0.115,-0.072 0.23,-0.143 0.345,-0.214 1.595,-0.172 3.251,-0.282 5.014,-0.282 0,0 0.003,0 0.005,0 h 0.001 c 0.683,0 1.381,0.016 2.098,0.052 0.023,0 0.046,0.002 0.07,0.003 2.234,0.114 4.65,0.415 7.082,0.72 -0.109,0.628 -0.349,1.301 -0.706,2.00201 -1.271,-0.063 -2.545,-0.11701 -3.858,-0.11701 -0.002,0 -0.005,0 -0.005,0 h -10e-4 c -0.386,0 -0.774,0.005 -1.167,0.015 -0.021,10e-4 -0.041,10e-4 -0.061,0.002 -0.038,0.002 -0.076,0.002 -0.114,0.003 -0.023,10e-4 -0.045,10e-4 -0.068,0.002 -0.043,0.00101 -0.086,0.00301 -0.129,0.00401 -0.008,10e-4 -0.016,10e-4 -0.023,10e-4 -0.044,0.002 -0.089,0.003 -0.133,0.005 -0.013,0 -0.026,10e-4 -0.039,0.002 -0.736,0.028 -1.486,0.073 -2.248,0.124 -1.874,0.123 -3.826,0.275 -5.832,0.275 0,0 -10e-4,0 -0.003,0 z"
     fill="#fc9e70"
     id="path98" />
  <path
     fill-rule="evenodd"
     clip-rule="evenodd"
     d="m 27.691999,12.249012 c 0,0 0,0 -10e-4,0 -0.778,0 -1.559,-0.013 -2.337,-0.041 -0.026,-10e-4 -0.052,-0.002 -0.078,-0.003 -4.822,-0.179 -9.491,-0.949 -13.365,-1.257 -0.022,-10e-4 -0.045,-0.003 -0.068,-0.005 -0.006,-10e-4 -0.014,-10e-4 -0.021,-10e-4 -0.015,-0.002 -0.03,-0.003 -0.045,-0.004 -0.258,-0.02 -0.513,-0.038 -0.764,-0.054 0.452,-0.453 0.939,-0.904 1.459,-1.347 10e-4,0 0.002,0 0.003,0 0.016,0.002 0.032,0.004 0.047,0.006 0.005,0 0.009,0.001 0.014,0.001 1.166,0.13 2.319,0.179 3.455,0.179 10e-4,0 10e-4,0 0.002,0 0.002,0 0.003,0 0.005,0 2.006,0 3.958,-0.152 5.832,-0.275 0.763,-0.051 1.512,-0.096 2.248,-0.124 0.013,-10e-4 0.026,-0.002 0.039,-0.002 0.044,-0.002 0.088,-0.003 0.133,-0.005 0.008,0 0.016,0 0.023,-10e-4 0.043,-0.001 0.086,-0.003 0.129,-0.004 0.022,-9.7e-4 0.045,-9.7e-4 0.068,-0.00197 0.038,-10e-4 0.076,-0.002 0.114,-0.003 0.021,0 0.041,0 0.061,-0.002 0.393,-0.01 0.781,-0.015 1.167,-0.015 0.001,0 0.004,0 0.006,0 1.312,0 2.587,0.05397 3.858,0.11697 -0.467,0.916 -1.134,1.877 -1.974,2.842 -0.001,0 -0.002,0 -0.003,0 -0.003,0 -0.005,0 -0.007,0 z"
     fill="#fdab77"
     id="path100" />
  <path
     fill-rule="evenodd"
     clip-rule="evenodd"
     d="m 13.383999,16.058012 c -0.002,0 -0.003,0 -0.005,0 -1.984,0 -3.886,-0.109 -5.734,-0.289 0.536,-1.516 1.709,-3.218 3.369,-4.885 0.251,0.016 0.506,0.034 0.764,0.054 0.015,10e-4 0.03,0.002 0.045,0.004 0.007,0 0.015,0 0.021,10e-4 0.022,0.002 0.045,0.004 0.068,0.005 3.874,0.308 8.543,1.078 13.365,1.257 0.026,0 0.052,0.002 0.078,0.003 0.777,0.028 1.559,0.041 2.337,0.041 0.002,0 0.004,0 0.006,0 0.001,0 0.002,0 0.003,0 -0.901,1.035 -2.001,2.073 -3.263,3.062 -3.461,0.347 -7.034,0.7 -10.372,0.742 -0.228,0.003 -0.456,0.005 -0.682,0.005 z"
     fill="#ffc598"
     id="path102" />
  <path
     fill-rule="evenodd"
     clip-rule="evenodd"
     d="m 18.664999,18.834012 c -2.653,-0.364 -5.411,-0.862 -8.087,-1.165 -1.099,-0.124 -2.185,-0.215 -3.261,-0.281 0.014,-0.505 0.125,-1.048 0.327,-1.619 1.849,0.18 3.75,0.288 5.734,0.289 0.002,0 0.005,0 0.005,0 0.226,0 0.454,-0.002 0.683,-0.004 3.337,-0.042 6.91,-0.396 10.372,-0.742 -0.757,0.593 -1.573,1.168 -2.439,1.714 -1.113,0.7 -2.235,1.304 -3.334,1.808 z"
     fill="#ffcc9e"
     id="path104" />
  <path
     fill-rule="evenodd"
     clip-rule="evenodd"
     d="m 11.572999,20.658912 c -1.788,0 -3.158,-0.509 -3.826,-1.571 -0.309,-0.49 -0.447,-1.065 -0.43,-1.7 1.076,0.066 2.162,0.157 3.261,0.281 2.677,0.303 5.434,0.801 8.087,1.165 -2.615,1.198 -5.11,1.825 -7.092,1.825 z"
     fill="#c97866"
     id="path106" />
</svg>
