<svg width="61" height="84" viewBox="0 0 61 84" fill="none" xmlns="http://www.w3.org/2000/svg">
<path fill-rule="evenodd" clip-rule="evenodd" d="M30.53 0.687988C27.416 0.687988 24.413 1.15999 21.588 2.03599C23.964 2.33999 26.337 2.55699 28.703 2.60499C32.238 2.67999 35.76 2.37999 39.279 1.97599C36.51 1.13899 33.573 0.687988 30.53 0.687988Z" fill="#F98B54"/>
<path fill-rule="evenodd" clip-rule="evenodd" d="M39.279 1.97693C35.76 2.38093 32.238 2.68093 28.703 2.60593C26.336 2.55793 23.963 2.33993 21.588 2.03693C19.328 2.73793 17.181 3.69793 15.183 4.88093C17.868 5.07493 20.57 5.20293 23.316 5.17293C28.01 5.12193 32.833 4.60793 37.784 4.78793C40.92 4.90193 44.107 5.29293 47.312 5.78693C44.865 4.14293 42.163 2.84893 39.279 1.97693Z" fill="#F18056"/>
<path fill-rule="evenodd" clip-rule="evenodd" d="M37.784 4.78697C32.833 4.60697 28.01 5.12097 23.316 5.17197C20.57 5.20197 17.867 5.07397 15.183 4.87997C13.413 5.92897 11.76 7.15297 10.247 8.52897C14.407 7.82097 18.567 7.11197 23.674 7.37297C28.78 7.63497 34.834 8.86597 39.862 8.91697C43.568 8.95497 46.717 8.35097 49.719 7.57997C48.948 6.94297 48.145 6.34397 47.312 5.78597C44.107 5.29197 40.92 4.90097 37.784 4.78697Z" fill="#F98B54"/>
<path fill-rule="evenodd" clip-rule="evenodd" d="M49.719 7.57994C46.717 8.35094 43.568 8.95494 39.862 8.91694C34.834 8.86594 28.78 7.63494 23.674 7.37294C18.567 7.11194 14.407 7.82094 10.247 8.52894C9.87601 8.86694 9.514 9.21294 9.16 9.56794C10.402 9.85994 11.634 10.0869 12.85 10.2249C17.134 10.7129 21.238 10.0969 24.958 9.99394C28.678 9.89194 32.013 10.3019 35.732 10.3019C39.451 10.3019 43.556 9.89094 46.865 9.68594C48.724 9.56994 50.333 9.51994 51.831 9.49794C51.158 8.82594 50.453 8.18594 49.719 7.57994Z" fill="#F77747"/>
<path fill-rule="evenodd" clip-rule="evenodd" d="M51.831 9.49902C50.333 9.52102 48.724 9.57102 46.865 9.68702C43.556 9.89202 39.451 10.303 35.732 10.303C32.012 10.303 28.677 9.89202 24.958 9.99502C21.238 10.097 17.134 10.713 12.85 10.226C11.633 10.088 10.401 9.86102 9.16 9.56902C8.557 10.175 7.98 10.806 7.43 11.46C8.935 11.453 10.529 11.498 12.286 11.637C16.16 11.945 20.829 12.715 25.651 12.894C30.474 13.074 35.451 12.663 38.888 12.279C42.325 11.894 44.224 11.535 48.687 11.843C50.295 11.954 52.238 12.151 54.393 12.404C53.601 11.381 52.745 10.411 51.831 9.49902Z" fill="#F98B54"/>
<path fill-rule="evenodd" clip-rule="evenodd" d="M54.392 12.4029C52.237 12.1499 50.295 11.9529 48.686 11.8419C44.222 11.5339 42.324 11.8929 38.887 12.2779C35.449 12.6619 30.472 13.0729 25.65 12.8929C20.828 12.7139 16.159 11.9439 12.285 11.6359C10.528 11.4969 8.933 11.4519 7.429 11.4589C6.246 12.8679 5.189 14.3869 4.276 15.9979C7.497 16.4669 10.831 16.7869 14.441 16.7419C20.572 16.6649 27.498 15.5349 33.065 15.3309C38.632 15.1259 42.838 15.8439 47.841 16.0239C50.609 16.1229 53.62 16.0579 56.74 15.9179C56.038 14.6889 55.253 13.5149 54.392 12.4029Z" fill="#FEB790"/>
<path fill-rule="evenodd" clip-rule="evenodd" d="M47.84 16.0229C42.838 15.8429 38.631 15.1249 33.064 15.3299C27.498 15.5349 20.571 16.6639 14.44 16.7409C10.83 16.7869 7.496 16.4669 4.275 15.9969C3.92 16.6249 3.585 17.2679 3.273 17.9229C5.785 17.9519 8.329 18.0599 10.951 18.3559C15.491 18.8689 20.263 19.9469 24.367 19.9719C28.471 19.9979 31.909 18.9719 35.962 18.4849C40.015 17.9969 44.684 18.0479 49.25 18.0739C52.156 18.0909 55.019 18.0949 57.869 18.0969C57.521 17.3529 57.143 16.6249 56.739 15.9149C53.619 16.0569 50.608 16.1219 47.84 16.0229Z" fill="#FFC59A"/>
<path fill-rule="evenodd" clip-rule="evenodd" d="M49.251 18.075C44.685 18.049 40.016 17.998 35.963 18.486C31.91 18.973 28.472 19.999 24.368 19.9729C20.264 19.9479 15.492 18.8699 10.952 18.3569C8.33 18.0609 5.786 17.953 3.274 17.924C2.673 19.19 2.158 20.505 1.735 21.861C7.376 22.768 13.127 23.504 19.443 23.36C27.293 23.18 36.015 21.641 43.787 22C49.651 22.271 54.975 23.6219 60.166 25.2389C59.696 22.7369 58.916 20.3429 57.869 18.0989C55.02 18.0969 52.156 18.092 49.251 18.075Z" fill="#983527"/>
<path fill-rule="evenodd" clip-rule="evenodd" d="M60.166 25.239C54.975 23.622 49.651 22.271 43.787 22C36.015 21.641 27.292 23.18 19.443 23.36C13.127 23.504 7.376 22.768 1.735 21.861C1.142 23.764 0.732 25.748 0.527 27.792C2.708 27.774 5.102 27.69 8.463 27.31C12.773 26.823 18.673 25.848 25.266 25.925C31.859 26.002 39.144 27.13 45.558 27.669C51.013 28.128 55.836 28.158 60.566 28.126C60.478 27.15 60.344 26.187 60.166 25.239Z" fill="#F77C47"/>
<path fill-rule="evenodd" clip-rule="evenodd" d="M60.565 28.126C55.835 28.158 51.011 28.128 45.557 27.669C39.144 27.13 31.858 26.002 25.265 25.925C18.672 25.848 12.772 26.823 8.462 27.31C5.101 27.69 2.707 27.774 0.525999 27.792C0.424999 28.796 0.374001 29.814 0.374001 30.844C0.374001 31.714 0.411 32.575 0.483 33.426C2.687 33.271 4.921 33.043 7.206 32.697C13.132 31.799 19.391 30.106 24.701 30.055C30.011 30.003 34.372 31.594 40.888 32.517C46.348 33.291 53.322 33.597 60.541 33.826C60.637 32.846 60.686 31.85 60.686 30.844C60.686 29.928 60.646 29.021 60.565 28.126Z" fill="#F98B61"/>
<path fill-rule="evenodd" clip-rule="evenodd" d="M60.541 33.826C53.322 33.597 46.348 33.291 40.888 32.517C34.372 31.594 30.011 30.003 24.701 30.055C19.391 30.106 13.132 31.799 7.206 32.697C4.922 33.043 2.687 33.271 0.483002 33.426C0.523002 33.903 0.575001 34.377 0.637001 34.847C3.746 34.49 6.87 34.242 10.047 34.368C14.562 34.547 19.182 35.481 24.391 35.615C26.923 35.68 29.593 35.556 32.423 35.432C35.416 35.3 38.588 35.169 41.964 35.261C47.588 35.415 53.776 36.189 60.045 37.053C60.267 35.998 60.434 34.921 60.541 33.826Z" fill="#F77849"/>
<path fill-rule="evenodd" clip-rule="evenodd" d="M60.046 37.055C53.777 36.19 47.588 35.416 41.965 35.263C38.589 35.171 35.417 35.302 32.424 35.434C29.594 35.558 26.924 35.682 24.392 35.617C19.182 35.483 14.562 34.549 10.048 34.37C6.871 34.243 3.747 34.491 0.638 34.849C0.787 35.979 1 37.089 1.271 38.176C4.656 38.067 8.15 38.015 12.183 38.24C17.236 38.522 23.137 39.241 29.088 39.625C35.04 40.01 41.043 40.061 47.199 39.882C51.243 39.764 55.353 39.546 59.487 39.294C59.701 38.558 59.888 37.811 60.046 37.055Z" fill="#983527"/>
<path fill-rule="evenodd" clip-rule="evenodd" d="M59.487 39.292C55.353 39.544 51.243 39.762 47.199 39.88C41.042 40.059 35.039 40.008 29.088 39.623C23.137 39.239 17.236 38.52 12.183 38.238C8.14999 38.013 4.657 38.065 1.271 38.174C1.462 38.94 1.683 39.694 1.932 40.436C8.027 41.209 14.218 41.867 20.803 42.06C24.637 42.173 28.604 42.128 32.448 42.082C37.373 42.024 42.094 41.966 46.071 42.24C50.683 42.557 54.294 43.321 57.556 44.241C58.337 42.665 58.987 41.01 59.487 39.292Z" fill="#BE5C41"/>
<path fill-rule="evenodd" clip-rule="evenodd" d="M57.555 44.241C54.293 43.321 50.682 42.557 46.07 42.24C42.093 41.966 37.372 42.024 32.447 42.082C28.604 42.128 24.636 42.173 20.802 42.06C14.218 41.868 8.026 41.209 1.931 40.436C2.515 42.178 3.253 43.849 4.13 45.432C8.64 44.805 13.163 44.235 17.749 43.933C23.598 43.548 29.549 43.599 36.578 44.395C42.41 45.055 48.983 46.226 55.683 47.485C56.371 46.447 56.997 45.364 57.555 44.241Z" fill="#FFC59A"/>
<path fill-rule="evenodd" clip-rule="evenodd" d="M54.311 49.3899C50.739 48.9459 47.099 48.599 43.172 48.679C38.067 48.781 32.475 49.602 27.96 49.32C23.445 49.038 20.008 47.653 15.134 47.473C12.391 47.372 9.194 47.6529 5.798 48.0999C6.252 48.7499 6.73101 49.3809 7.23301 49.9909C9.51301 49.7859 11.837 49.703 14.262 49.91C18.469 50.269 22.984 51.5 27.165 51.706C31.347 51.911 35.195 51.09 38.94 50.731C42.685 50.372 46.328 50.4739 48.97 51.0899C50.104 51.3539 51.054 51.713 51.897 52.125C52.754 51.264 53.561 50.3499 54.311 49.3899Z" fill="#FFC59A"/>
<path fill-rule="evenodd" clip-rule="evenodd" d="M48.968 51.09C46.326 50.474 42.683 50.372 38.938 50.731C35.193 51.09 31.345 51.911 27.163 51.706C22.982 51.5 18.467 50.269 14.26 49.91C11.834 49.703 9.511 49.786 7.231 49.991C8.143 51.099 9.132 52.141 10.19 53.108C16.03 53.186 21.613 53.256 26.06 53.296C31.806 53.347 35.654 53.347 39.656 53.578C42.804 53.76 46.047 54.084 49.31 54.439C50.215 53.717 51.079 52.945 51.895 52.125C51.052 51.713 50.102 51.354 48.968 51.09Z" fill="#FEB790"/>
<path fill-rule="evenodd" clip-rule="evenodd" d="M49.311 54.439C46.048 54.084 42.805 53.76 39.657 53.578C35.655 53.347 31.807 53.347 26.061 53.296C21.614 53.256 16.031 53.186 10.191 53.108C11.292 54.115 12.468 55.041 13.71 55.878C16.403 56.394 19.08 56.842 21.7 57.016C25.189 57.245 28.575 56.99 31.474 56.785C34.373 56.58 36.784 56.426 38.81 56.451C40.836 56.476 42.478 56.682 44.043 57.118C44.324 57.197 44.603 57.281 44.879 57.374C46.445 56.525 47.928 55.542 49.311 54.439Z" fill="#F18056"/>
<path fill-rule="evenodd" clip-rule="evenodd" d="M44.043 57.1179C42.478 56.6819 40.836 56.4759 38.81 56.4509C36.783 56.4259 34.373 56.5799 31.474 56.7849C28.575 56.9889 25.189 57.2449 21.7 57.0159C19.08 56.8419 16.403 56.3939 13.71 55.8779C15.686 57.2079 17.829 58.3099 20.099 59.1469C24.353 58.9759 29.27 58.5149 33.27 58.4009C36.739 58.3019 39.519 58.4629 42.142 58.6839C43.08 58.2919 43.993 57.8549 44.879 57.3739C44.603 57.2819 44.324 57.1969 44.043 57.1179Z" fill="#F98B54"/>
<path fill-rule="evenodd" clip-rule="evenodd" d="M42.142 58.684C39.519 58.463 36.739 58.302 33.27 58.401C29.27 58.515 24.353 58.976 20.099 59.147C23.35 60.346 26.863 61 30.53 61C34.645 61 38.568 60.176 42.142 58.684Z" fill="#F98B61"/>
<path fill-rule="evenodd" clip-rule="evenodd" d="M27.959 49.32C32.474 49.602 38.066 48.781 43.171 48.679C47.098 48.599 50.738 48.946 54.31 49.39C54.791 48.774 55.249 48.139 55.682 47.485C48.983 46.226 42.409 45.055 36.577 44.395C29.548 43.599 23.597 43.548 17.748 43.933C13.162 44.235 8.639 44.805 4.129 45.432C4.639 46.352 5.195 47.242 5.795 48.1C9.192 47.653 12.389 47.372 15.131 47.473C20.007 47.653 23.444 49.038 27.959 49.32Z" fill="#F98B54"/>
<path fill-rule="evenodd" clip-rule="evenodd" d="M30.724 60.9989C30.731 60.9989 30.738 60.9989 30.745 60.9989C30.738 60.9989 30.73 60.9989 30.724 60.9989ZM30.772 60.9989C30.779 60.9989 30.786 60.9989 30.792 60.9989C30.787 60.9989 30.778 60.9989 30.772 60.9989ZM30.821 60.9989C30.827 60.9989 30.833 60.9989 30.839 60.9989C30.834 60.9989 30.826 60.9989 30.821 60.9989ZM30.87 60.9979C30.875 60.9979 30.88 60.9979 30.886 60.9979C30.881 60.9979 30.875 60.9979 30.87 60.9979ZM30.917 60.9979C30.924 60.9979 30.931 60.9969 30.938 60.9969C30.932 60.9969 30.925 60.9979 30.917 60.9979ZM30.966 60.9969C30.973 60.9969 30.981 60.9969 30.987 60.9969C30.98 60.9969 30.973 60.9969 30.966 60.9969ZM30.057 60.9959C30.047 60.9959 30.036 60.9959 30.026 60.9959C30.036 60.9959 30.046 60.9959 30.057 60.9959ZM31.015 60.9959C31.022 60.9959 31.03 60.9959 31.037 60.9959C31.029 60.9959 31.021 60.9959 31.015 60.9959ZM31.063 60.9959C31.071 60.9959 31.078 60.9949 31.085 60.9949C31.079 60.9949 31.07 60.9959 31.063 60.9959ZM29.969 60.9949C29.957 60.9949 29.945 60.9949 29.932 60.9939C29.944 60.9949 29.957 60.9949 29.969 60.9949ZM31.159 60.9939C31.167 60.9939 31.176 60.9939 31.183 60.9939C31.175 60.9929 31.167 60.9939 31.159 60.9939ZM29.873 60.9929C29.866 60.9929 29.857 60.9929 29.85 60.9929C29.858 60.9929 29.866 60.9929 29.873 60.9929ZM31.208 60.9929C31.216 60.9909 31.223 60.9909 31.231 60.9909C31.224 60.9919 31.215 60.9919 31.208 60.9929ZM31.256 60.9919C31.263 60.9919 31.27 60.9909 31.277 60.9909C31.271 60.9909 31.263 60.9919 31.256 60.9919ZM31.304 60.9899C31.311 60.9899 31.319 60.9899 31.325 60.9899C31.319 60.9899 31.312 60.9899 31.304 60.9899ZM31.353 60.9889C31.36 60.9889 31.367 60.9889 31.374 60.9889C31.367 60.9889 31.359 60.9889 31.353 60.9889ZM29.707 60.9889C29.7 60.9889 29.693 60.9889 29.686 60.9889C29.692 60.9889 29.699 60.9889 29.707 60.9889ZM29.666 60.9879C29.659 60.9879 29.65 60.9879 29.643 60.9869C29.65 60.9879 29.658 60.9879 29.666 60.9879ZM31.401 60.9879C31.408 60.9879 31.415 60.9869 31.422 60.9869C31.416 60.9869 31.407 60.9879 31.401 60.9879ZM29.625 60.9869C29.617 60.9869 29.61 60.9869 29.602 60.9859C29.608 60.9869 29.617 60.9869 29.625 60.9869ZM31.449 60.9869C31.456 60.9859 31.463 60.9859 31.47 60.9859C31.462 60.9859 31.457 60.9859 31.449 60.9869ZM31.498 60.9849C31.504 60.9849 31.511 60.9849 31.518 60.9839C31.511 60.9849 31.505 60.9849 31.498 60.9849ZM31.545 60.9829C31.552 60.9829 31.559 60.9829 31.566 60.9829C31.559 60.9829 31.553 60.9829 31.545 60.9829ZM31.594 60.9819C31.6 60.9809 31.607 60.9809 31.614 60.9809C31.607 60.9809 31.601 60.9809 31.594 60.9819ZM31.642 60.9799C31.649 60.9799 31.655 60.9799 31.661 60.9799C31.654 60.9799 31.649 60.9799 31.642 60.9799ZM31.69 60.9779C31.696 60.9779 31.703 60.9779 31.71 60.9779C31.703 60.9779 31.697 60.9779 31.69 60.9779ZM29.359 60.9779C29.352 60.9779 29.343 60.9769 29.336 60.9769C29.345 60.9769 29.352 60.9779 29.359 60.9779ZM29.276 60.9739C29.269 60.9739 29.262 60.9739 29.255 60.9739C29.262 60.9739 29.27 60.9739 29.276 60.9739ZM31.787 60.9739C31.793 60.9739 31.8 60.9739 31.806 60.9739C31.8 60.9739 31.792 60.9739 31.787 60.9739ZM29.234 60.9729C29.228 60.9719 29.22 60.9719 29.214 60.9719C29.221 60.9719 29.228 60.9719 29.234 60.9729ZM29.193 60.9709C29.187 60.9709 29.18 60.9709 29.174 60.9699C29.181 60.9709 29.187 60.9709 29.193 60.9709ZM29.151 60.9689C29.145 60.9689 29.14 60.9689 29.134 60.9689C29.14 60.9689 29.146 60.9689 29.151 60.9689ZM31.931 60.9679C31.937 60.9679 31.943 60.9679 31.949 60.9669C31.942 60.9679 31.938 60.9679 31.931 60.9679ZM29.111 60.9669C29.104 60.9669 29.099 60.9669 29.092 60.9669C29.099 60.9669 29.105 60.9669 29.111 60.9669ZM29.069 60.9649C29.064 60.9649 29.058 60.9649 29.053 60.9649C29.059 60.9649 29.064 60.9649 29.069 60.9649ZM32.027 60.9639C32.032 60.9639 32.039 60.9629 32.045 60.9629C32.039 60.9629 32.033 60.9639 32.027 60.9639ZM29.029 60.9639C29.024 60.9629 29.019 60.9629 29.013 60.9629C29.019 60.9629 29.023 60.9629 29.029 60.9639ZM32.22 60.9539C32.225 60.9539 32.23 60.9539 32.236 60.9539C32.231 60.9529 32.225 60.9529 32.22 60.9539ZM32.268 60.9509C32.274 60.9509 32.279 60.9489 32.284 60.9489C32.279 60.9499 32.273 60.9509 32.268 60.9509ZM28.762 60.9489C28.756 60.9489 28.752 60.9489 28.746 60.9479C28.751 60.9489 28.756 60.9489 28.762 60.9489ZM28.722 60.9469C28.717 60.9469 28.711 60.9459 28.705 60.9459C28.711 60.9459 28.716 60.9459 28.722 60.9469ZM28.681 60.9439C28.676 60.9439 28.671 60.9439 28.666 60.9439C28.671 60.9439 28.675 60.9439 28.681 60.9439ZM28.599 60.9389C28.595 60.9389 28.591 60.9389 28.587 60.9389C28.59 60.9389 28.595 60.9389 28.599 60.9389ZM28.518 60.9339C28.515 60.9339 28.511 60.9319 28.508 60.9319C28.511 60.9339 28.514 60.9339 28.518 60.9339ZM32.557 60.9329C32.561 60.9329 32.565 60.9329 32.57 60.9319C32.565 60.9329 32.56 60.9329 32.557 60.9329ZM28.283 60.9179C28.283 60.9179 28.281 60.9169 28.28 60.9169C28.281 60.9169 28.282 60.9179 28.283 60.9179ZM32.845 60.9129C32.848 60.9109 32.852 60.9109 32.855 60.9109C32.851 60.9119 32.849 60.9119 32.845 60.9129ZM28.129 60.9059C28.126 60.9059 28.124 60.9049 28.12 60.9049C28.123 60.9049 28.126 60.9059 28.129 60.9059ZM32.99 60.9009C32.991 60.9009 32.994 60.9009 32.996 60.9009C32.994 60.9009 32.992 60.9009 32.99 60.9009ZM28.05 60.8989C28.046 60.8989 28.044 60.8989 28.04 60.8989C28.043 60.8989 28.046 60.8989 28.05 60.8989ZM33.085 60.8929C33.087 60.8929 33.089 60.8929 33.091 60.8929C33.09 60.8929 33.087 60.8929 33.085 60.8929ZM27.969 60.8929C27.968 60.8929 27.967 60.8929 27.966 60.8929C27.966 60.8929 27.968 60.8929 27.969 60.8929ZM27.58 60.8579H27.578C27.579 60.8579 27.579 60.8579 27.58 60.8579ZM20.039 59.1249C20.025 59.1199 20.01 59.1139 19.996 59.1089C20.01 59.1149 20.025 59.1199 20.039 59.1249ZM19.985 59.1049C19.971 59.0999 19.958 59.0949 19.944 59.0899C19.958 59.0949 19.972 59.0999 19.985 59.1049ZM19.937 59.0869C19.92 59.0809 19.904 59.0749 19.887 59.0679C19.904 59.0739 19.92 59.0809 19.937 59.0869ZM19.884 59.0669C19.867 59.0609 19.85 59.0549 19.833 59.0479C19.851 59.0549 19.868 59.0609 19.884 59.0669ZM42.104 58.6799C42.094 58.6799 42.084 58.6789 42.074 58.6779C42.084 58.6789 42.093 58.6799 42.104 58.6799ZM41.65 58.6429C39.717 58.4879 37.683 58.3709 35.34 58.3709C37.684 58.3709 39.718 58.4879 41.65 58.6429ZM16.148 57.3559C16.132 57.3479 16.118 57.3399 16.103 57.3319C16.119 57.3399 16.134 57.3479 16.148 57.3559ZM16.098 57.3289C16.083 57.3199 16.069 57.3129 16.053 57.3039C16.068 57.3119 16.083 57.3209 16.098 57.3289ZM15.998 57.2739C15.984 57.2659 15.971 57.2589 15.957 57.2509C15.97 57.2589 15.983 57.2659 15.998 57.2739ZM15.897 57.2189C15.885 57.2119 15.872 57.2049 15.86 57.1969C15.873 57.2049 15.885 57.2119 15.897 57.2189ZM15.842 57.1869C15.835 57.1829 15.827 57.1789 15.82 57.1749C15.827 57.1789 15.834 57.1829 15.842 57.1869ZM15.798 57.1629C15.787 57.1569 15.775 57.1499 15.765 57.1439C15.776 57.1509 15.787 57.1569 15.798 57.1629ZM24.6 57.1069C24.601 57.1069 24.603 57.1069 24.605 57.1069C24.603 57.1069 24.602 57.1069 24.6 57.1069ZM24.598 57.1069C23.67 57.1069 22.725 57.0809 21.773 57.0209C22.725 57.0809 23.669 57.1069 24.598 57.1069ZM15.639 57.0729C15.637 57.0709 15.635 57.0709 15.633 57.0689C15.634 57.0709 15.637 57.0719 15.639 57.0729ZM31.68 56.7699C31.701 56.7689 31.721 56.7669 31.742 56.7659C31.721 56.7669 31.7 56.7689 31.68 56.7699ZM32.202 56.7339C32.209 56.7329 32.216 56.7329 32.223 56.7319C32.215 56.7329 32.208 56.7329 32.202 56.7339ZM9.264 52.2249C9.264 52.2239 9.264 52.2239 9.264 52.2249C9.263 52.2239 9.264 52.2239 9.264 52.2249ZM51.872 52.1499C51.879 52.1429 51.885 52.1369 51.892 52.1299C51.884 52.1369 51.878 52.1429 51.872 52.1499ZM48.969 51.0899C48.926 51.0799 48.883 51.0699 48.84 51.0599C48.883 51.0699 48.926 51.0809 48.969 51.0899ZM9.146 52.1069C8.823 51.7819 8.508 51.4509 8.2 51.1109C8.508 51.4499 8.823 51.7819 9.146 52.1069ZM51.949 52.0719C51.949 52.0719 51.951 52.0709 51.951 52.0699C51.95 52.0709 51.949 52.0719 51.949 52.0719ZM8.199 51.1099C8.193 51.1029 8.187 51.0969 8.181 51.0899C8.187 51.0969 8.192 51.1029 8.199 51.1099ZM8.174 51.0829C8.169 51.0769 8.165 51.0719 8.159 51.0669C8.164 51.0719 8.169 51.0769 8.174 51.0829ZM8.149 51.0559C8.145 51.0509 8.141 51.0459 8.137 51.0419C8.141 51.0459 8.146 51.0509 8.149 51.0559ZM8.07 50.9669C8.07 50.9669 8.07 50.9669 8.069 50.9659C8.069 50.9669 8.07 50.9669 8.07 50.9669ZM43.12 50.5239C43.121 50.5239 43.123 50.5239 43.123 50.5239C43.122 50.5239 43.121 50.5239 43.12 50.5239ZM7.393 49.9769C7.411 49.9749 7.428 49.9729 7.446 49.9719C7.428 49.9739 7.411 49.9759 7.393 49.9769ZM7.47 49.9709C7.495 49.9679 7.521 49.9659 7.547 49.9639C7.521 49.9659 7.496 49.9679 7.47 49.9709ZM6.857 49.5279C6.564 49.1559 6.278 48.7769 6.002 48.3919C6.279 48.7769 6.564 49.1559 6.857 49.5279ZM5.846 48.0939C5.867 48.0909 5.888 48.0879 5.909 48.0859C5.887 48.0879 5.866 48.0909 5.846 48.0939Z" fill="#4C0202"/>
<path fill-rule="evenodd" clip-rule="evenodd" d="M51.896 52.125C51.052 51.713 50.103 51.354 48.969 51.09C48.926 51.08 48.883 51.07 48.84 51.06C48.833 51.06 48.826 51.058 48.819 51.056C48.816 51.055 48.813 51.055 48.81 51.054C48.803 51.052 48.794 51.05 48.786 51.049C47.184 50.696 45.234 50.524 43.127 50.524C43.125 50.524 43.123 50.524 43.123 50.524H43.12C42.94 50.524 42.759 50.526 42.577 50.528C43.445 49.951 44.284 49.33 45.088 48.673C48.296 48.716 51.326 49.019 54.311 49.39C53.578 50.329 52.789 51.225 51.951 52.07L51.95 52.072C51.941 52.081 51.934 52.088 51.925 52.097C51.919 52.103 51.913 52.109 51.907 52.115C51.903 52.119 51.899 52.122 51.896 52.125ZM7.232 49.991C7.106 49.838 6.981 49.683 6.857 49.528C6.564 49.156 6.278 48.777 6.002 48.392C5.932 48.295 5.864 48.197 5.796 48.1C5.812 48.098 5.829 48.096 5.845 48.094C5.866 48.091 5.887 48.088 5.908 48.086C6.155 48.053 6.401 48.022 6.645 47.991C7.317 48.631 8.086 49.255 8.977 49.861C8.511 49.888 8.047 49.922 7.585 49.96C7.576 49.961 7.567 49.962 7.558 49.963C7.554 49.963 7.55 49.964 7.546 49.964C7.52 49.966 7.494 49.968 7.469 49.971C7.461 49.971 7.452 49.972 7.445 49.972C7.427 49.974 7.41 49.976 7.392 49.977L7.389 49.978C7.353 49.98 7.317 49.984 7.282 49.987C7.266 49.989 7.249 49.99 7.232 49.991Z" fill="#C87464"/>
<path fill-rule="evenodd" clip-rule="evenodd" d="M49.311 54.4389C46.048 54.0839 42.805 53.7599 39.657 53.5779C38.776 53.5279 37.903 53.4879 37.014 53.4569C38.974 52.6739 40.835 51.6879 42.577 50.5289C42.759 50.5269 42.94 50.5249 43.12 50.5249H43.123C43.125 50.5249 43.125 50.5249 43.127 50.5249C45.234 50.5249 47.185 50.6969 48.786 51.0499C48.794 51.0509 48.803 51.0529 48.81 51.0549C48.813 51.0559 48.816 51.0559 48.819 51.0569C48.825 51.0589 48.833 51.0599 48.84 51.0609C48.883 51.0709 48.926 51.0819 48.969 51.0909C50.103 51.3549 51.053 51.7139 51.896 52.1259L51.892 52.1309C51.885 52.1379 51.879 52.1439 51.872 52.1509C51.866 52.1569 51.86 52.1629 51.854 52.1679L51.853 52.1689C51.049 52.9719 50.201 53.7299 49.311 54.4389ZM15.1 53.1719C13.498 53.1519 11.855 53.1309 10.191 53.1079C9.876 52.8209 9.566 52.5259 9.264 52.2249C9.256 52.2169 9.248 52.2089 9.241 52.2019C9.238 52.1979 9.234 52.1949 9.231 52.1919C9.227 52.1879 9.221 52.1819 9.217 52.1779C9.212 52.1729 9.208 52.1689 9.203 52.1639C9.2 52.1609 9.196 52.1569 9.193 52.1539C9.188 52.1479 9.182 52.1429 9.176 52.1369C9.174 52.1349 9.172 52.1329 9.17 52.1309C9.163 52.1239 9.157 52.1179 9.15 52.1109L9.147 52.1079C8.824 51.7829 8.509 51.4509 8.201 51.1119L8.2 51.1109C8.194 51.1039 8.188 51.0979 8.182 51.0909C8.18 51.0889 8.177 51.0859 8.175 51.0839C8.17 51.0779 8.165 51.0729 8.16 51.0679C8.157 51.0639 8.154 51.0599 8.15 51.0569C8.146 51.0519 8.142 51.0469 8.138 51.0429C8.134 51.0379 8.129 51.0329 8.125 51.0289C8.122 51.0249 8.119 51.0219 8.116 51.0179C8.11 51.0119 8.105 51.0059 8.099 50.9989C8.097 50.9969 8.096 50.9949 8.093 50.9929C8.086 50.9849 8.078 50.9759 8.072 50.9679L8.071 50.9669C7.785 50.6479 7.506 50.3229 7.234 49.9919C7.251 49.9919 7.268 49.9899 7.285 49.9879C7.32 49.9849 7.356 49.9809 7.392 49.9789L7.395 49.9779C7.413 49.9759 7.43 49.9739 7.448 49.9729C7.456 49.9729 7.464 49.9719 7.472 49.9719C7.497 49.9689 7.523 49.9669 7.549 49.9649C7.553 49.9649 7.557 49.9639 7.561 49.9639C7.57 49.9629 7.579 49.9619 7.588 49.9609C8.05 49.9229 8.514 49.8889 8.98 49.8619C9.07 49.9239 9.162 49.9849 9.255 50.0459C11.201 51.3259 13.153 52.3609 15.1 53.1719Z" fill="#C67060"/>
<path fill-rule="evenodd" clip-rule="evenodd" d="M44.879 57.374C44.603 57.282 44.324 57.197 44.043 57.118C42.478 56.682 40.836 56.476 38.81 56.451C38.794 56.451 38.779 56.451 38.763 56.451C38.63 56.449 38.495 56.449 38.359 56.449C38.356 56.449 38.351 56.449 38.347 56.449C36.656 56.449 34.705 56.561 32.441 56.717C32.419 56.719 32.397 56.72 32.375 56.722C32.325 56.724 32.273 56.729 32.223 56.732C32.216 56.733 32.209 56.733 32.202 56.734C32.106 56.74 32.01 56.747 31.913 56.754C31.91 56.754 31.906 56.754 31.903 56.755C31.892 56.755 31.882 56.756 31.871 56.757C31.842 56.759 31.813 56.761 31.785 56.763C31.771 56.764 31.756 56.765 31.742 56.766C31.721 56.766 31.701 56.768 31.68 56.77C31.612 56.775 31.543 56.78 31.474 56.785C31.429 56.788 31.384 56.791 31.338 56.794C29.288 56.94 26.998 57.106 24.605 57.107C24.603 57.107 24.602 57.107 24.6 57.107H24.598C23.67 57.107 22.725 57.081 21.773 57.021C21.749 57.019 21.725 57.017 21.7 57.017C19.08 56.843 16.403 56.395 13.71 55.879C12.468 55.042 11.293 54.116 10.191 53.109C11.855 53.132 13.498 53.153 15.1 53.173C18.959 54.782 22.787 55.508 26.465 55.508C30.172 55.508 33.729 54.77 37.014 53.457C37.902 53.489 38.775 53.529 39.657 53.578C42.805 53.76 46.048 54.084 49.311 54.439C47.928 55.542 46.445 56.526 44.879 57.374Z" fill="#BD5940"/>
<path fill-rule="evenodd" clip-rule="evenodd" d="M20.099 59.1469C20.094 59.1459 20.088 59.1429 20.083 59.1419C20.075 59.1389 20.065 59.1349 20.057 59.1319C20.05 59.1299 20.045 59.1279 20.039 59.1249C20.025 59.1199 20.01 59.1149 19.996 59.1089C19.992 59.1079 19.989 59.1059 19.986 59.1049C19.972 59.0999 19.959 59.0949 19.945 59.0899C19.943 59.0889 19.939 59.0879 19.937 59.0869C19.92 59.0809 19.904 59.0739 19.887 59.0679C19.887 59.0679 19.886 59.0679 19.885 59.0669C19.868 59.0609 19.851 59.0549 19.834 59.0479C18.563 58.5649 17.333 57.9989 16.15 57.3569C16.135 57.3489 16.12 57.3399 16.105 57.3319C16.104 57.3309 16.101 57.3299 16.1 57.3289C16.085 57.3209 16.07 57.3119 16.055 57.3039C16.053 57.3029 16.05 57.3009 16.048 57.2999C16.035 57.2929 16.023 57.2869 16.01 57.2799C16.008 57.2779 16.003 57.2749 16 57.2739C15.986 57.2659 15.973 57.2589 15.959 57.2509C15.955 57.2489 15.95 57.2459 15.946 57.2439C15.936 57.2389 15.926 57.2329 15.916 57.2269C15.911 57.2239 15.906 57.2229 15.9 57.2189C15.888 57.2119 15.875 57.2049 15.863 57.1969C15.857 57.1939 15.851 57.1909 15.844 57.1869C15.836 57.1829 15.829 57.1789 15.822 57.1749C15.815 57.1709 15.808 57.1669 15.801 57.1629C15.79 57.1569 15.779 57.1509 15.768 57.1439C15.759 57.1389 15.751 57.1349 15.743 57.1299C15.738 57.1279 15.733 57.1249 15.729 57.1219C15.7 57.1059 15.671 57.0889 15.642 57.0729C15.64 57.0719 15.638 57.0709 15.636 57.0689C14.98 56.6959 14.338 56.2979 13.715 55.8779C16.407 56.3939 19.084 56.8419 21.704 57.0159C21.728 57.0159 21.752 57.0179 21.777 57.0199C22.729 57.0809 23.674 57.1059 24.602 57.1059C24.603 57.1059 24.604 57.1059 24.604 57.1059C24.605 57.1059 24.607 57.1059 24.609 57.1059C27.002 57.1049 29.292 56.9389 31.342 56.7929C31.387 56.7899 31.432 56.7869 31.478 56.7839C31.547 56.7789 31.616 56.7739 31.684 56.7689C31.705 56.7679 31.725 56.7659 31.746 56.7649C31.76 56.7629 31.775 56.7629 31.789 56.7619C31.818 56.7599 31.847 56.7579 31.875 56.7559C31.886 56.7549 31.896 56.7539 31.907 56.7539C31.91 56.7529 31.914 56.7529 31.917 56.7529C32.014 56.7459 32.11 56.7389 32.206 56.7329C32.213 56.7319 32.22 56.7319 32.227 56.7309C32.278 56.7279 32.329 56.7239 32.379 56.7209C32.401 56.7189 32.423 56.7179 32.445 56.7159C34.709 56.5599 36.659 56.4479 38.351 56.4479C38.355 56.4479 38.359 56.4479 38.362 56.4479C38.498 56.4479 38.634 56.4479 38.767 56.4499C38.783 56.4499 38.798 56.4499 38.814 56.4499C40.84 56.4749 42.482 56.6809 44.047 57.1169C44.328 57.1959 44.607 57.2799 44.883 57.3729C43.996 57.8539 43.083 58.2909 42.146 58.6829C42.133 58.6829 42.121 58.6809 42.108 58.6789C42.098 58.6789 42.088 58.6779 42.078 58.6769C42.075 58.6769 42.072 58.6769 42.07 58.6759C41.978 58.6689 41.886 58.6609 41.794 58.6539C41.787 58.6529 41.78 58.6519 41.774 58.6519C41.738 58.6489 41.702 58.6459 41.666 58.6429C41.662 58.6429 41.658 58.6429 41.654 58.6429C39.721 58.4879 37.687 58.3709 35.344 58.3709C35.343 58.3709 35.341 58.3709 35.34 58.3709C34.719 58.3709 34.076 58.3789 33.408 58.3969C33.407 58.3969 33.405 58.3969 33.404 58.3969C33.377 58.3979 33.349 58.3989 33.322 58.3989C33.306 58.3999 33.29 58.3999 33.274 58.4009C29.27 58.5149 24.353 58.9759 20.099 59.1469Z" fill="#CB6143"/>
<path fill-rule="evenodd" clip-rule="evenodd" d="M5.407 47.53C4.26 45.806 3.286 43.959 2.509 42.01C2.979 43.189 3.522 44.331 4.131 45.432C4.528 46.15 4.954 46.85 5.407 47.53ZM2.507 42.005C2.502 41.994 2.498 41.983 2.494 41.972C2.498 41.983 2.502 41.993 2.507 42.005ZM2.475 41.924C2.471 41.914 2.468 41.906 2.464 41.896C2.467 41.905 2.471 41.915 2.475 41.924ZM2.444 41.847C2.44 41.834 2.434 41.822 2.429 41.81C2.435 41.822 2.44 41.834 2.444 41.847ZM2.425 41.799C2.422 41.79 2.418 41.781 2.415 41.772C2.419 41.781 2.422 41.79 2.425 41.799ZM2.409 41.756C2.407 41.749 2.404 41.741 2.401 41.735C2.403 41.742 2.406 41.749 2.409 41.756ZM2.378 41.677C2.377 41.672 2.374 41.667 2.372 41.662C2.375 41.667 2.376 41.672 2.378 41.677ZM2.363 41.639C2.361 41.635 2.36 41.631 2.359 41.626C2.361 41.631 2.362 41.635 2.363 41.639ZM2.35 41.601C2.349 41.599 2.348 41.595 2.346 41.592C2.347 41.595 2.348 41.598 2.35 41.601ZM2.296 41.462C2.296 41.462 2.295 41.459 2.295 41.458C2.295 41.459 2.296 41.461 2.296 41.462ZM2.14 41.037C2.139 41.033 2.138 41.032 2.137 41.029C2.138 41.032 2.139 41.034 2.14 41.037ZM2.092 40.903C2.09 40.899 2.089 40.894 2.088 40.89C2.09 40.895 2.091 40.899 2.092 40.903ZM2.08 40.867C2.079 40.862 2.077 40.857 2.075 40.852C2.076 40.857 2.078 40.862 2.08 40.867ZM2.041 40.757C2.038 40.747 2.035 40.739 2.032 40.729C2.035 40.738 2.038 40.747 2.041 40.757ZM1.973 40.558C1.944 40.473 1.915 40.386 1.887 40.301C1.902 40.346 1.917 40.391 1.932 40.436C1.945 40.476 1.958 40.517 1.973 40.558ZM1.873 40.257C1.871 40.251 1.869 40.245 1.867 40.239C1.868 40.245 1.87 40.251 1.873 40.257ZM1.86 40.219C1.859 40.215 1.858 40.211 1.856 40.207C1.857 40.211 1.858 40.215 1.86 40.219ZM1.824 40.108C1.823 40.107 1.823 40.106 1.823 40.105C1.823 40.106 1.824 40.107 1.824 40.108Z" fill="#4C0202"/>
<path fill-rule="evenodd" clip-rule="evenodd" d="M1.989 40.443C1.97 40.441 1.951 40.438 1.931 40.436C1.916 40.391 1.901 40.346 1.886 40.301C1.886 40.299 1.885 40.297 1.884 40.295C1.881 40.287 1.879 40.279 1.876 40.271C1.875 40.266 1.873 40.262 1.872 40.257C1.869 40.251 1.868 40.245 1.866 40.239C1.864 40.232 1.862 40.226 1.86 40.219C1.859 40.215 1.858 40.211 1.856 40.207C1.853 40.199 1.851 40.19 1.848 40.182C1.847 40.18 1.846 40.176 1.845 40.173C1.842 40.163 1.839 40.155 1.836 40.145C1.836 40.143 1.835 40.141 1.834 40.139C1.831 40.129 1.828 40.118 1.825 40.108L1.824 40.105C1.774 39.949 1.725 39.793 1.678 39.637C1.78 39.906 1.884 40.174 1.989 40.443Z" fill="#AD4A36"/>
<path fill-rule="evenodd" clip-rule="evenodd" d="M4.131 45.432C3.522 44.331 2.979 43.189 2.509 42.01C2.508 42.008 2.507 42.006 2.507 42.005C2.502 41.993 2.498 41.983 2.494 41.972C2.493 41.969 2.492 41.966 2.491 41.964C2.487 41.954 2.483 41.944 2.479 41.934C2.478 41.93 2.477 41.928 2.475 41.924C2.471 41.915 2.468 41.905 2.464 41.896C2.462 41.892 2.461 41.889 2.46 41.885C2.457 41.876 2.453 41.867 2.449 41.858C2.448 41.854 2.446 41.85 2.445 41.847C2.441 41.834 2.435 41.822 2.43 41.81C2.428 41.806 2.427 41.803 2.426 41.799C2.423 41.79 2.42 41.781 2.416 41.772C2.414 41.766 2.412 41.762 2.41 41.756C2.407 41.749 2.405 41.742 2.402 41.735C2.4 41.728 2.397 41.722 2.395 41.715C2.393 41.71 2.391 41.705 2.389 41.699C2.386 41.692 2.383 41.684 2.38 41.677C2.378 41.672 2.376 41.667 2.374 41.662C2.371 41.654 2.368 41.647 2.365 41.639C2.364 41.635 2.362 41.631 2.361 41.626C2.358 41.619 2.354 41.609 2.351 41.601C2.35 41.599 2.349 41.595 2.347 41.592C2.33 41.548 2.314 41.506 2.298 41.462C2.298 41.461 2.297 41.459 2.297 41.458C2.293 41.448 2.29 41.438 2.286 41.428C2.285 41.426 2.284 41.424 2.284 41.421C2.28 41.411 2.276 41.402 2.272 41.392C2.272 41.39 2.271 41.387 2.27 41.385C2.266 41.375 2.263 41.365 2.259 41.355C2.259 41.353 2.258 41.352 2.258 41.351C2.237 41.293 2.216 41.235 2.194 41.178C2.194 41.177 2.194 41.177 2.194 41.176C2.19 41.166 2.187 41.156 2.183 41.146C2.182 41.143 2.181 41.141 2.18 41.139C2.176 41.129 2.173 41.12 2.169 41.11C2.169 41.107 2.167 41.105 2.166 41.101C2.163 41.092 2.16 41.083 2.156 41.074C2.155 41.071 2.154 41.068 2.153 41.065C2.15 41.055 2.147 41.046 2.143 41.037C2.142 41.034 2.141 41.032 2.14 41.029C2.125 40.987 2.11 40.945 2.095 40.903C2.093 40.899 2.092 40.895 2.091 40.89C2.088 40.882 2.086 40.876 2.083 40.867C2.082 40.862 2.08 40.857 2.078 40.852C2.076 40.845 2.074 40.838 2.071 40.831C2.068 40.825 2.067 40.819 2.064 40.813C2.062 40.806 2.06 40.8 2.057 40.794C2.055 40.787 2.053 40.78 2.05 40.773C2.048 40.768 2.046 40.762 2.044 40.757C2.041 40.747 2.038 40.738 2.035 40.729C2.034 40.726 2.032 40.722 2.032 40.719C2.018 40.679 2.004 40.639 1.99 40.599C1.986 40.586 1.981 40.572 1.977 40.558C1.963 40.517 1.949 40.475 1.936 40.436C1.956 40.438 1.975 40.441 1.994 40.443C2.651 42.116 3.36 43.781 4.447 45.389C4.339 45.403 4.235 45.418 4.131 45.432Z" fill="#C87464"/>
<path fill-rule="evenodd" clip-rule="evenodd" d="M59.478 39.3239C59.478 39.3219 59.479 39.3209 59.479 39.3199C59.479 39.3209 59.478 39.3229 59.478 39.3239ZM60.215 36.1859C60.215 36.1839 60.216 36.1809 60.216 36.1789C60.215 36.1809 60.215 36.1839 60.215 36.1859ZM60.239 36.0439C60.24 36.0419 60.24 36.0409 60.24 36.0389C60.24 36.0399 60.239 36.0429 60.239 36.0439ZM60.248 35.9969C60.248 35.9969 60.249 35.9949 60.249 35.9919C60.248 35.9929 60.248 35.9959 60.248 35.9969ZM60.309 35.6269C60.309 35.6249 60.31 35.6239 60.31 35.6219C60.31 35.6239 60.31 35.6249 60.309 35.6269ZM60.316 35.5779C60.316 35.5779 60.317 35.5779 60.317 35.5759C60.317 35.5769 60.317 35.5779 60.316 35.5779ZM60.324 35.5309C60.324 35.5309 60.324 35.5299 60.324 35.5289V35.5309ZM60.612 32.9749C60.612 32.9739 60.612 32.9719 60.612 32.9699C60.612 32.9719 60.612 32.9729 60.612 32.9749ZM60.621 32.8379C60.621 32.8329 60.622 32.8279 60.622 32.8219C60.622 32.8269 60.622 32.8329 60.621 32.8379ZM60.627 32.7469C60.627 32.7409 60.628 32.7329 60.629 32.7259C60.628 32.7319 60.627 32.7399 60.627 32.7469ZM60.633 32.6569C60.634 32.6469 60.634 32.6379 60.635 32.6279C60.634 32.6389 60.633 32.6469 60.633 32.6569ZM60.635 32.6129C60.635 32.6019 60.636 32.5909 60.637 32.5799C60.636 32.5909 60.636 32.6019 60.635 32.6129ZM60.638 32.5699C60.638 32.5579 60.639 32.5449 60.64 32.5329C60.639 32.5459 60.638 32.5569 60.638 32.5699ZM60.64 32.5239C60.641 32.5119 60.642 32.4979 60.642 32.4849C60.642 32.4989 60.641 32.5109 60.64 32.5239ZM60.642 32.4849C60.652 32.3149 60.659 32.1429 60.665 31.9719C60.659 32.1429 60.651 32.3149 60.642 32.4849ZM60.669 31.8759C60.67 31.8629 60.67 31.8489 60.67 31.8359C60.67 31.8499 60.669 31.8619 60.669 31.8759ZM60.67 31.8289C60.67 31.8159 60.671 31.8029 60.671 31.7899C60.671 31.8039 60.671 31.8159 60.67 31.8289ZM60.672 31.7809C60.673 31.7689 60.673 31.7559 60.673 31.7439C60.673 31.7559 60.672 31.7689 60.672 31.7809ZM60.675 31.6859C60.676 31.6739 60.676 31.6619 60.676 31.6509C60.675 31.6629 60.675 31.6739 60.675 31.6859ZM60.676 31.6379C60.677 31.6269 60.677 31.6159 60.677 31.6049C60.677 31.6149 60.676 31.6269 60.676 31.6379ZM60.677 31.5899C60.677 31.5789 60.678 31.5679 60.678 31.5569C60.678 31.5679 60.678 31.5789 60.677 31.5899ZM60.678 31.5419C60.679 31.5319 60.679 31.5209 60.679 31.5099C60.679 31.5209 60.679 31.5309 60.678 31.5419ZM60.68 31.4949C60.68 31.4839 60.68 31.4729 60.68 31.4629C60.68 31.4739 60.68 31.4829 60.68 31.4949ZM60.682 31.3509C60.682 31.3409 60.682 31.3319 60.683 31.3209C60.682 31.3309 60.682 31.3409 60.682 31.3509ZM60.684 31.2029C60.684 31.1949 60.684 31.1869 60.685 31.1799C60.684 31.1879 60.684 31.1949 60.684 31.2029ZM60.686 31.0079C60.686 31.0009 60.686 30.9949 60.686 30.9879C60.686 30.9959 60.686 31.0009 60.686 31.0079ZM60.686 30.9579C60.686 30.9529 60.686 30.9459 60.686 30.9399C60.686 30.9469 60.686 30.9509 60.686 30.9579ZM60.686 30.8009C60.686 30.7969 60.686 30.7939 60.686 30.7909C60.686 30.7939 60.686 30.7979 60.686 30.8009ZM60.686 30.7139C60.686 30.7099 60.686 30.7069 60.686 30.7039C60.686 30.7069 60.686 30.7109 60.686 30.7139ZM60.686 30.5829C60.686 30.5799 60.686 30.5779 60.686 30.5759C60.685 30.5779 60.686 30.5809 60.686 30.5829ZM60.685 30.5389C60.685 30.5369 60.685 30.5349 60.685 30.5349C60.685 30.5359 60.685 30.5379 60.685 30.5389ZM60.684 30.4509C60.684 30.4499 60.684 30.4499 60.684 30.4489V30.4509ZM55.58 14.0489C55.578 14.0469 55.578 14.0459 55.577 14.0439C55.578 14.0459 55.579 14.0469 55.58 14.0489ZM55.557 14.0149C55.557 14.0139 55.556 14.0129 55.555 14.0119C55.555 14.0119 55.557 14.0139 55.557 14.0149ZM55.492 13.9179C55.489 13.9139 55.486 13.9089 55.482 13.9049C55.485 13.9089 55.489 13.9139 55.492 13.9179ZM55.471 13.8879C55.468 13.8829 55.465 13.8779 55.461 13.8719C55.464 13.8779 55.468 13.8829 55.471 13.8879ZM55.421 13.8149C55.417 13.8089 55.412 13.8029 55.408 13.7959C55.413 13.8019 55.417 13.8089 55.421 13.8149ZM55.382 13.7569C55.377 13.7499 55.372 13.7419 55.367 13.7349C55.372 13.7429 55.377 13.7489 55.382 13.7569ZM55.29 13.6249C55.001 13.2099 54.701 12.8029 54.392 12.4029C54.33 12.3239 54.269 12.2439 54.206 12.1649C54.582 12.6399 54.943 13.1279 55.29 13.6249ZM54.126 12.0629C54.117 12.0519 54.108 12.0409 54.099 12.0299C54.107 12.0409 54.116 12.0519 54.126 12.0629ZM54.089 12.0179C54.079 12.0049 54.068 11.9919 54.058 11.9789C54.069 11.9919 54.079 12.0049 54.089 12.0179ZM53.966 11.8649C53.962 11.8599 53.957 11.8539 53.952 11.8489C53.957 11.8549 53.961 11.8589 53.966 11.8649ZM53.886 11.7669C53.883 11.7639 53.881 11.7599 53.878 11.7569C53.881 11.7609 53.883 11.7639 53.886 11.7669ZM53.805 11.6679C53.804 11.6669 53.804 11.6669 53.805 11.6679V11.6679ZM51.511 9.18393C50.935 8.62593 50.337 8.09093 49.719 7.57993C49.273 7.21193 48.817 6.85593 48.35 6.51393C49.465 7.33193 50.521 8.22393 51.511 9.18393ZM48.309 6.48293C48.299 6.47593 48.289 6.46893 48.279 6.46193C48.29 6.46893 48.298 6.47593 48.309 6.48293ZM48.271 6.45593C48.262 6.44893 48.252 6.44193 48.243 6.43493C48.252 6.44193 48.261 6.44893 48.271 6.45593ZM48.197 6.40193C48.185 6.39393 48.173 6.38493 48.16 6.37593C48.172 6.38493 48.185 6.39393 48.197 6.40193ZM48.108 6.33893C48.102 6.33393 48.096 6.32993 48.09 6.32593C48.096 6.32993 48.103 6.33493 48.108 6.33893ZM48.071 6.31193C48.066 6.30793 48.061 6.30493 48.056 6.30093C48.062 6.30493 48.066 6.30793 48.071 6.31193ZM39.935 2.18293C39.934 2.18293 39.933 2.18293 39.933 2.18293H39.935ZM39.897 2.17093C39.895 2.17093 39.894 2.16993 39.893 2.16993C39.895 2.17093 39.896 2.17093 39.897 2.17093ZM39.778 2.13293C39.775 2.13093 39.771 2.12993 39.767 2.12893C39.771 2.12993 39.775 2.13193 39.778 2.13293ZM39.742 2.12093C39.737 2.11893 39.732 2.11893 39.727 2.11593C39.733 2.11793 39.736 2.11893 39.742 2.12093ZM39.707 2.10993C39.7 2.10793 39.694 2.10593 39.688 2.10393C39.694 2.10593 39.701 2.10793 39.707 2.10993ZM39.641 2.08893C39.611 2.07893 39.58 2.06893 39.55 2.05993C39.579 2.06893 39.611 2.07893 39.641 2.08893ZM39.548 2.05993C39.538 2.05593 39.527 2.05293 39.517 2.04993C39.528 2.05293 39.539 2.05593 39.548 2.05993ZM39.513 2.04893C39.503 2.04593 39.492 2.04193 39.483 2.03893C39.493 2.04193 39.502 2.04493 39.513 2.04893ZM39.479 2.03893C39.412 2.01693 39.345 1.99693 39.278 1.97593C38.063 1.60793 36.815 1.31493 35.54 1.10193C36.887 1.32793 38.201 1.64093 39.479 2.03893Z" fill="#4C0202"/>
<path fill-rule="evenodd" clip-rule="evenodd" d="M38.999 2.00803C37.82 1.63003 36.68 1.36603 35.541 1.10303C36.816 1.31603 38.064 1.60903 39.279 1.97703C39.185 1.98703 39.092 1.99803 38.999 2.00803Z" fill="#CB6143"/>
<path fill-rule="evenodd" clip-rule="evenodd" d="M47.313 5.78593C46.748 5.69893 46.183 5.61493 45.62 5.53493C45.439 5.39793 45.257 5.26193 45.072 5.12693C42.842 3.49593 40.871 2.60793 39 2.00793C39.093 1.99793 39.186 1.98693 39.28 1.97693C39.347 1.99793 39.414 2.01793 39.481 2.03993H39.484C39.494 2.04293 39.504 2.04693 39.514 2.04993C39.516 2.04993 39.517 2.04993 39.519 2.05093C39.529 2.05393 39.54 2.05693 39.55 2.06093C39.581 2.06993 39.612 2.07993 39.642 2.08993C39.646 2.09093 39.648 2.09193 39.652 2.09293C39.659 2.09493 39.667 2.09793 39.674 2.09993C39.68 2.10193 39.684 2.10193 39.689 2.10493C39.695 2.10693 39.702 2.10893 39.708 2.11093C39.714 2.11293 39.721 2.11493 39.728 2.11693C39.733 2.11993 39.738 2.11993 39.743 2.12193C39.751 2.12493 39.76 2.12693 39.768 2.12993C39.771 2.13093 39.775 2.13193 39.779 2.13393C39.792 2.13793 39.803 2.14093 39.815 2.14493L39.816 2.14593C39.829 2.14993 39.842 2.15393 39.855 2.15793C39.868 2.16193 39.881 2.16693 39.894 2.17093C39.895 2.17093 39.896 2.17193 39.898 2.17193C39.91 2.17593 39.921 2.17993 39.934 2.18393C39.934 2.18393 39.935 2.18393 39.936 2.18393C42.574 3.04893 45.051 4.26793 47.313 5.78593Z" fill="#BD5940"/>
<path fill-rule="evenodd" clip-rule="evenodd" d="M48.402 7.90303C47.548 7.08903 46.623 6.29903 45.619 5.53503C46.182 5.61603 46.747 5.69903 47.312 5.78603C47.54 5.93903 47.766 6.09503 47.989 6.25403C47.992 6.25603 47.994 6.25803 47.998 6.26003C48.006 6.26603 48.014 6.27103 48.022 6.27703C48.026 6.28003 48.029 6.28303 48.033 6.28503C48.04 6.29003 48.048 6.29603 48.055 6.30103C48.06 6.30503 48.064 6.30803 48.07 6.31203C48.076 6.31603 48.083 6.32103 48.09 6.32603C48.096 6.33003 48.102 6.33404 48.108 6.33904C48.114 6.34304 48.12 6.34703 48.126 6.35103C48.136 6.35803 48.146 6.36503 48.156 6.37303L48.16 6.37603C48.172 6.38503 48.184 6.39403 48.197 6.40203C48.199 6.40403 48.202 6.40604 48.205 6.40804C48.215 6.41504 48.224 6.42204 48.234 6.42904C48.236 6.43104 48.24 6.43303 48.242 6.43503C48.252 6.44203 48.261 6.44903 48.27 6.45603C48.272 6.45803 48.276 6.46003 48.278 6.46203C48.288 6.46903 48.298 6.47603 48.308 6.48303C48.31 6.48503 48.312 6.48704 48.314 6.48804C48.325 6.49604 48.337 6.50503 48.348 6.51303L48.35 6.51403C48.816 6.85603 49.272 7.21203 49.719 7.58003C49.646 7.59803 49.573 7.61703 49.5 7.63503C49.486 7.63903 49.473 7.64203 49.459 7.64603C49.45 7.64803 49.44 7.65103 49.431 7.65303C49.419 7.65603 49.407 7.65903 49.395 7.66203C49.066 7.74503 48.735 7.82603 48.402 7.90303Z" fill="#CB6143"/>
<path fill-rule="evenodd" clip-rule="evenodd" d="M49.991 9.53996C49.493 8.98596 48.963 8.43896 48.402 7.90296C48.735 7.82596 49.066 7.74496 49.395 7.66196C49.407 7.65896 49.419 7.65596 49.431 7.65296C49.44 7.65096 49.45 7.64796 49.459 7.64596C49.473 7.64196 49.486 7.63896 49.5 7.63496C49.573 7.61696 49.646 7.59796 49.719 7.57996C50.337 8.09096 50.935 8.62596 51.511 9.18396C51.513 9.18496 51.513 9.18596 51.515 9.18696C51.522 9.19496 51.531 9.20296 51.539 9.20996C51.542 9.21396 51.545 9.21596 51.547 9.21896C51.552 9.22396 51.557 9.22796 51.562 9.23296C51.652 9.32096 51.743 9.40996 51.832 9.49896C51.238 9.50796 50.628 9.52096 49.991 9.53996Z" fill="#C25639"/>
<path fill-rule="evenodd" clip-rule="evenodd" d="M54.392 12.403C53.582 12.308 52.803 12.221 52.06 12.143C51.441 11.257 50.753 10.389 49.991 9.54002C50.628 9.52102 51.238 9.50802 51.831 9.49902C52.523 10.189 53.181 10.912 53.803 11.667L53.804 11.668C53.829 11.698 53.853 11.727 53.878 11.757C53.88 11.76 53.883 11.764 53.886 11.767C53.9 11.784 53.914 11.802 53.928 11.819C53.93 11.821 53.932 11.823 53.933 11.825C53.939 11.833 53.946 11.84 53.953 11.849C53.957 11.854 53.962 11.86 53.967 11.865C53.973 11.872 53.979 11.88 53.985 11.887C53.994 11.898 54.003 11.911 54.013 11.921C54.017 11.927 54.022 11.933 54.027 11.939C54.034 11.947 54.041 11.956 54.048 11.965C54.052 11.97 54.055 11.975 54.059 11.979C54.069 11.992 54.08 12.005 54.09 12.018C54.093 12.022 54.096 12.026 54.099 12.03C54.108 12.041 54.117 12.052 54.126 12.063C54.128 12.066 54.131 12.07 54.133 12.072C54.144 12.087 54.155 12.101 54.167 12.115C54.169 12.117 54.17 12.119 54.171 12.121C54.182 12.135 54.193 12.149 54.204 12.163L54.206 12.165C54.269 12.244 54.331 12.324 54.392 12.403Z" fill="#CB6143"/>
<path fill-rule="evenodd" clip-rule="evenodd" d="M54.28 16.0109C53.676 14.6939 52.938 13.4009 52.06 12.1429C52.803 12.2209 53.582 12.3079 54.392 12.4029C54.701 12.8029 55.001 13.2099 55.29 13.6249L55.291 13.6269C55.315 13.6619 55.34 13.6959 55.363 13.7309C55.364 13.7329 55.366 13.7349 55.366 13.7349C55.371 13.7419 55.376 13.7499 55.381 13.7569C55.382 13.7589 55.385 13.7629 55.386 13.7649C55.391 13.7719 55.396 13.7789 55.4 13.7859C55.403 13.7889 55.405 13.7919 55.407 13.7959C55.411 13.8029 55.416 13.8089 55.42 13.8149C55.422 13.8189 55.424 13.8219 55.427 13.8249C55.435 13.8369 55.443 13.8479 55.45 13.8589C55.454 13.8639 55.456 13.8669 55.459 13.8719C55.463 13.8779 55.466 13.8829 55.469 13.8879C55.473 13.8929 55.477 13.8989 55.48 13.9049C55.483 13.9089 55.486 13.9139 55.49 13.9179C55.494 13.9239 55.498 13.9309 55.503 13.9369C55.506 13.9409 55.508 13.9449 55.511 13.9489C55.517 13.9579 55.524 13.9679 55.53 13.9769L55.531 13.9789C55.539 13.9899 55.546 13.9999 55.553 14.0119L55.555 14.0149C55.562 14.0249 55.568 14.0349 55.575 14.0439C55.576 14.0459 55.576 14.0469 55.578 14.0489C55.584 14.0579 55.591 14.0689 55.598 14.0789C55.598 14.0789 55.599 14.0789 55.599 14.0809C56 14.6789 56.379 15.2899 56.737 15.9169C56.699 15.9189 56.662 15.9209 56.624 15.9219C56.606 15.9229 56.588 15.9239 56.57 15.9249C55.8 15.9579 55.036 15.9879 54.28 16.0109Z" fill="#C67060"/>
<path fill-rule="evenodd" clip-rule="evenodd" d="M57.869 18.099C56.954 18.099 56.039 18.098 55.12 18.096C54.876 17.396 54.596 16.7 54.28 16.011C55.036 15.988 55.8 15.958 56.572 15.925C56.589 15.924 56.608 15.923 56.626 15.922C56.664 15.921 56.701 15.919 56.739 15.917C57.144 16.627 57.521 17.355 57.869 18.099Z" fill="#C87464"/>
<path fill-rule="evenodd" clip-rule="evenodd" d="M60.166 25.2389C58.913 24.8489 57.652 24.4739 56.377 24.1259C56.223 22.1009 55.812 20.0759 55.121 18.0959C56.04 18.0979 56.955 18.0989 57.87 18.0989C58.916 20.3429 59.696 22.7369 60.166 25.2389Z" fill="#983527"/>
<path fill-rule="evenodd" clip-rule="evenodd" d="M58.13 28.135C58.128 28.135 58.126 28.135 58.124 28.135C57.538 28.135 56.949 28.133 56.355 28.129C56.469 26.799 56.479 25.463 56.377 24.126C57.652 24.474 58.913 24.849 60.166 25.239C60.344 26.187 60.478 27.15 60.565 28.126C60.464 28.127 60.363 28.128 60.262 28.128C59.554 28.133 58.844 28.135 58.13 28.135Z" fill="#C7593A"/>
<path fill-rule="evenodd" clip-rule="evenodd" d="M60.541 33.826C58.769 33.77 57.011 33.709 55.288 33.638C55.833 31.837 56.196 29.992 56.355 28.129C56.949 28.133 57.538 28.135 58.124 28.135C58.126 28.135 58.128 28.135 58.13 28.135C58.844 28.135 59.554 28.133 60.262 28.128C60.363 28.128 60.465 28.127 60.565 28.126C60.633 28.893 60.673 29.667 60.683 30.449C60.683 30.45 60.683 30.45 60.683 30.451C60.683 30.465 60.683 30.478 60.683 30.492C60.683 30.492 60.683 30.494 60.683 30.495C60.684 30.508 60.684 30.521 60.684 30.535C60.684 30.535 60.684 30.537 60.684 30.539C60.684 30.551 60.684 30.563 60.684 30.576C60.684 30.578 60.684 30.58 60.684 30.583C60.684 30.595 60.684 30.608 60.684 30.621C60.684 30.622 60.684 30.624 60.684 30.626C60.684 30.638 60.684 30.65 60.684 30.662C60.684 30.664 60.684 30.666 60.684 30.67C60.684 30.682 60.684 30.692 60.684 30.704C60.684 30.707 60.684 30.71 60.684 30.714C60.684 30.725 60.684 30.736 60.684 30.748C60.684 30.751 60.684 30.754 60.684 30.757C60.684 30.769 60.684 30.78 60.684 30.791C60.684 30.794 60.684 30.797 60.684 30.801C60.684 30.815 60.684 30.83 60.684 30.844C60.684 30.86 60.684 30.876 60.684 30.892C60.684 30.897 60.684 30.902 60.684 30.907C60.684 30.917 60.684 30.93 60.684 30.94C60.684 30.946 60.684 30.953 60.684 30.958C60.684 30.968 60.684 30.979 60.684 30.988C60.684 30.995 60.684 31.001 60.684 31.008C60.684 31.017 60.684 31.027 60.684 31.036C60.684 31.044 60.684 31.052 60.684 31.061C60.684 31.069 60.684 31.076 60.684 31.084C60.684 31.093 60.684 31.101 60.684 31.109C60.684 31.116 60.684 31.125 60.684 31.132C60.684 31.14 60.684 31.148 60.684 31.156C60.684 31.165 60.684 31.172 60.684 31.181C60.683 31.188 60.683 31.196 60.683 31.204C60.683 31.212 60.683 31.22 60.683 31.229C60.683 31.238 60.683 31.246 60.683 31.255C60.683 31.262 60.683 31.269 60.683 31.276C60.682 31.285 60.682 31.294 60.682 31.303C60.682 31.31 60.682 31.316 60.682 31.323C60.681 31.333 60.681 31.343 60.681 31.353C60.681 31.358 60.681 31.364 60.681 31.37C60.681 31.38 60.681 31.39 60.681 31.4C60.68 31.406 60.68 31.412 60.68 31.418C60.68 31.428 60.68 31.439 60.679 31.449C60.679 31.454 60.679 31.46 60.679 31.465C60.679 31.475 60.679 31.486 60.679 31.497C60.678 31.502 60.678 31.507 60.678 31.512C60.678 31.523 60.678 31.534 60.677 31.544C60.677 31.549 60.677 31.555 60.677 31.559C60.677 31.57 60.676 31.581 60.676 31.592C60.676 31.597 60.676 31.601 60.676 31.607C60.676 31.618 60.675 31.629 60.675 31.64C60.675 31.644 60.675 31.649 60.675 31.653C60.675 31.664 60.675 31.676 60.674 31.688C60.674 31.692 60.674 31.696 60.674 31.7C60.674 31.712 60.673 31.724 60.673 31.736C60.673 31.739 60.673 31.742 60.673 31.746C60.673 31.758 60.672 31.771 60.672 31.783C60.672 31.786 60.672 31.79 60.672 31.792C60.672 31.805 60.671 31.818 60.671 31.831C60.671 31.833 60.671 31.836 60.67 31.838C60.67 31.851 60.67 31.865 60.669 31.878C60.669 31.88 60.669 31.882 60.669 31.884C60.668 31.898 60.668 31.912 60.668 31.926C60.668 31.927 60.667 31.928 60.667 31.929C60.666 31.944 60.666 31.958 60.665 31.973C60.659 32.144 60.651 32.315 60.642 32.485C60.642 32.498 60.641 32.513 60.64 32.525C60.64 32.527 60.64 32.532 60.64 32.534C60.64 32.546 60.639 32.559 60.638 32.571C60.637 32.574 60.637 32.578 60.637 32.581C60.636 32.592 60.635 32.604 60.635 32.614C60.635 32.619 60.634 32.624 60.634 32.629C60.633 32.639 60.633 32.648 60.632 32.658C60.632 32.664 60.631 32.672 60.631 32.677C60.631 32.686 60.63 32.694 60.63 32.702C60.63 32.711 60.629 32.717 60.629 32.726C60.628 32.734 60.628 32.741 60.627 32.747C60.627 32.755 60.626 32.766 60.626 32.773C60.625 32.78 60.625 32.786 60.625 32.793C60.624 32.803 60.624 32.812 60.623 32.822C60.623 32.828 60.622 32.833 60.622 32.838C60.621 32.849 60.621 32.86 60.62 32.871C60.619 32.875 60.619 32.88 60.619 32.883C60.618 32.897 60.617 32.908 60.616 32.921C60.616 32.924 60.615 32.926 60.615 32.929C60.614 32.943 60.613 32.956 60.612 32.97C60.612 32.972 60.612 32.974 60.612 32.975C60.592 33.26 60.568 33.544 60.541 33.826Z" fill="#CA624A"/>
<path fill-rule="evenodd" clip-rule="evenodd" d="M60.046 37.0549C58.13 36.7899 56.222 36.5349 54.335 36.3029C54.697 35.4279 55.015 34.5389 55.288 33.6379C57.011 33.7089 58.769 33.7699 60.541 33.8259C60.484 34.3989 60.412 34.9659 60.324 35.5289V35.5309C60.322 35.5469 60.32 35.5599 60.317 35.5759V35.5779C60.315 35.5919 60.312 35.6079 60.31 35.6219C60.31 35.6239 60.309 35.6249 60.309 35.6269C60.289 35.7489 60.269 35.8699 60.248 35.9919C60.248 35.9939 60.247 35.9969 60.247 35.9969C60.245 36.0119 60.243 36.0239 60.24 36.0389C60.24 36.0409 60.24 36.0419 60.239 36.0439C60.237 36.0579 60.235 36.0709 60.233 36.0849C60.232 36.0869 60.232 36.0899 60.231 36.0919C60.228 36.1059 60.226 36.1179 60.224 36.1319C60.223 36.1339 60.222 36.1369 60.222 36.1389C60.22 36.1529 60.217 36.1649 60.215 36.1799C60.215 36.1819 60.214 36.1839 60.214 36.1869C60.211 36.2019 60.209 36.2139 60.206 36.2289L60.205 36.2309C60.157 36.5059 60.103 36.7809 60.046 37.0549Z" fill="#C2563A"/>
<path fill-rule="evenodd" clip-rule="evenodd" d="M52.694 39.666C53.312 38.575 53.861 37.451 54.335 36.303C56.222 36.535 58.13 36.79 60.046 37.055C59.888 37.806 59.703 38.547 59.491 39.277L59.49 39.28C59.489 39.284 59.488 39.288 59.487 39.292C57.213 39.431 54.946 39.559 52.694 39.666Z" fill="#983527"/>
<path fill-rule="evenodd" clip-rule="evenodd" d="M57.555 44.241C55.471 43.653 53.244 43.129 50.704 42.745C51.429 41.754 52.094 40.725 52.694 39.666C54.946 39.559 57.213 39.431 59.487 39.292C59.484 39.302 59.482 39.31 59.479 39.32C59.479 39.321 59.478 39.322 59.478 39.324C59.457 39.398 59.435 39.471 59.412 39.546C59.403 39.575 59.394 39.605 59.385 39.634C58.899 41.229 58.286 42.769 57.555 44.241Z" fill="#AD4A36"/>
<path fill-rule="evenodd" clip-rule="evenodd" d="M55.683 47.485C53.059 46.992 50.456 46.513 47.908 46.072C48.916 45.024 49.852 43.91 50.704 42.745C53.244 43.129 55.471 43.653 57.555 44.241C56.997 45.364 56.371 46.447 55.683 47.485Z" fill="#C87464"/>
<path fill-rule="evenodd" clip-rule="evenodd" d="M30.53 61C30.516 61 30.502 61 30.488 61C30.484 61 30.48 61 30.476 61C30.466 61 30.456 61 30.447 61C30.442 61 30.437 61 30.431 61C30.423 61 30.414 61 30.405 61C30.399 61 30.394 61 30.389 61C30.38 61 30.372 61 30.364 61C30.358 61 30.352 61 30.346 60.999C30.338 60.999 30.33 60.999 30.322 60.999C30.317 60.999 30.311 60.999 30.306 60.999C30.297 60.999 30.289 60.999 30.28 60.999C30.275 60.999 30.269 60.999 30.263 60.999C30.255 60.999 30.247 60.999 30.239 60.999C30.233 60.999 30.228 60.999 30.222 60.999C30.214 60.999 30.206 60.999 30.198 60.998C30.192 60.998 30.186 60.998 30.18 60.998C30.172 60.998 30.164 60.998 30.156 60.998C30.151 60.998 30.145 60.998 30.139 60.998C30.13 60.997 30.122 60.997 30.113 60.997C30.109 60.997 30.102 60.997 30.097 60.997C30.088 60.997 30.079 60.997 30.07 60.997C30.065 60.997 30.061 60.997 30.056 60.996C30.046 60.996 30.035 60.996 30.025 60.996C30.021 60.996 30.018 60.996 30.014 60.996C30 60.996 29.986 60.996 29.972 60.995C29.97 60.995 29.969 60.995 29.968 60.995C29.956 60.995 29.944 60.995 29.931 60.994C29.926 60.994 29.922 60.994 29.916 60.994C29.907 60.994 29.898 60.994 29.889 60.994C29.883 60.994 29.877 60.994 29.871 60.994C29.864 60.994 29.856 60.994 29.848 60.994C29.842 60.992 29.834 60.992 29.827 60.992C29.82 60.992 29.813 60.992 29.806 60.992C29.8 60.992 29.792 60.991 29.785 60.991C29.779 60.991 29.771 60.991 29.764 60.991C29.758 60.99 29.751 60.99 29.744 60.99C29.737 60.99 29.729 60.99 29.722 60.99C29.715 60.99 29.709 60.989 29.703 60.989C29.696 60.989 29.689 60.989 29.682 60.989C29.676 60.989 29.668 60.988 29.662 60.988C29.655 60.988 29.646 60.988 29.639 60.987C29.634 60.987 29.627 60.987 29.621 60.987C29.613 60.987 29.605 60.987 29.598 60.986C29.592 60.986 29.586 60.986 29.58 60.986C29.572 60.985 29.563 60.985 29.555 60.985C29.55 60.985 29.544 60.985 29.538 60.984C29.531 60.984 29.523 60.984 29.516 60.983C29.51 60.983 29.502 60.983 29.496 60.983C29.488 60.983 29.479 60.982 29.472 60.982C29.466 60.982 29.461 60.982 29.456 60.981C29.443 60.981 29.429 60.981 29.415 60.98C29.41 60.98 29.405 60.98 29.4 60.98C29.391 60.979 29.383 60.979 29.374 60.979C29.367 60.978 29.362 60.978 29.356 60.978C29.349 60.978 29.341 60.977 29.333 60.977C29.326 60.977 29.32 60.977 29.312 60.977C29.306 60.977 29.299 60.977 29.292 60.975C29.285 60.975 29.278 60.975 29.272 60.974C29.265 60.974 29.258 60.974 29.251 60.974C29.245 60.974 29.237 60.973 29.23 60.973C29.223 60.972 29.217 60.972 29.21 60.972C29.202 60.972 29.195 60.971 29.188 60.971C29.182 60.971 29.176 60.971 29.169 60.97C29.161 60.97 29.154 60.97 29.146 60.969C29.141 60.969 29.135 60.969 29.129 60.969C29.121 60.968 29.113 60.968 29.106 60.967C29.1 60.967 29.094 60.967 29.087 60.967C29.08 60.966 29.071 60.966 29.064 60.965C29.059 60.965 29.053 60.965 29.048 60.965C29.04 60.964 29.032 60.964 29.024 60.964C29.019 60.963 29.014 60.963 29.008 60.963C29 60.962 28.99 60.962 28.983 60.962C28.979 60.961 28.974 60.961 28.97 60.961C28.961 60.96 28.951 60.96 28.942 60.959C28.939 60.959 28.935 60.959 28.932 60.959C28.898 60.957 28.865 60.955 28.831 60.953C28.828 60.953 28.825 60.953 28.823 60.953C28.814 60.953 28.805 60.952 28.796 60.951C28.792 60.951 28.787 60.951 28.782 60.951C28.774 60.949 28.765 60.949 28.757 60.949C28.752 60.949 28.747 60.949 28.741 60.948C28.733 60.948 28.725 60.947 28.717 60.947C28.711 60.946 28.707 60.946 28.7 60.946C28.692 60.946 28.684 60.945 28.676 60.944C28.671 60.944 28.666 60.944 28.661 60.944C28.652 60.943 28.644 60.942 28.635 60.942C28.63 60.942 28.625 60.941 28.62 60.941C28.611 60.94 28.603 60.94 28.594 60.939C28.59 60.939 28.586 60.939 28.582 60.939C28.573 60.938 28.563 60.937 28.554 60.937C28.55 60.937 28.546 60.936 28.541 60.936C28.531 60.935 28.523 60.935 28.513 60.934C28.51 60.934 28.507 60.934 28.503 60.932C28.493 60.932 28.482 60.931 28.473 60.93C28.471 60.93 28.469 60.93 28.467 60.93C28.404 60.926 28.342 60.921 28.279 60.917C28.278 60.917 28.277 60.916 28.276 60.916C28.265 60.916 28.255 60.915 28.243 60.914C28.24 60.914 28.238 60.914 28.235 60.914C28.226 60.913 28.214 60.912 28.204 60.911C28.201 60.911 28.198 60.911 28.195 60.911C28.185 60.911 28.174 60.91 28.164 60.908C28.161 60.908 28.158 60.907 28.155 60.907C28.144 60.907 28.134 60.906 28.124 60.905C28.121 60.905 28.118 60.904 28.115 60.904C28.105 60.904 28.095 60.903 28.084 60.902C28.08 60.902 28.078 60.901 28.075 60.901C28.065 60.9 28.054 60.899 28.045 60.898C28.042 60.898 28.038 60.898 28.035 60.898C28.025 60.897 28.015 60.896 28.005 60.895C28.002 60.895 27.999 60.895 27.996 60.895C27.986 60.894 27.975 60.893 27.964 60.892C27.963 60.892 27.962 60.892 27.961 60.892C27.871 60.884 27.781 60.876 27.691 60.868C27.666 60.865 27.64 60.863 27.614 60.861L27.613 60.86C27.6 60.859 27.589 60.858 27.576 60.857C27.575 60.857 27.575 60.857 27.574 60.857C27.562 60.855 27.55 60.854 27.537 60.853C27.536 60.853 27.535 60.853 27.534 60.853C27.522 60.852 27.51 60.851 27.497 60.849C24.92 60.592 22.439 60.011 20.095 59.146C24.349 58.975 29.265 58.514 33.265 58.4C33.281 58.399 33.297 58.399 33.313 58.398C33.34 58.398 33.368 58.397 33.395 58.396C33.397 58.396 33.398 58.396 33.399 58.396C34.067 58.378 34.709 58.37 35.33 58.37C35.331 58.37 35.334 58.37 35.335 58.37C37.678 58.37 39.712 58.487 41.645 58.642C41.648 58.642 41.653 58.642 41.657 58.642C41.693 58.645 41.729 58.648 41.765 58.651C41.771 58.651 41.778 58.652 41.785 58.653C41.877 58.66 41.969 58.668 42.061 58.675C42.063 58.676 42.066 58.676 42.069 58.676C42.079 58.677 42.089 58.678 42.099 58.678C42.112 58.679 42.124 58.681 42.137 58.682C39.41 59.82 36.481 60.57 33.419 60.861C33.387 60.864 33.356 60.867 33.324 60.87C33.323 60.87 33.322 60.87 33.322 60.87C33.307 60.872 33.291 60.873 33.277 60.874H33.28C33.265 60.876 33.249 60.877 33.234 60.879C33.233 60.879 33.232 60.879 33.23 60.879C33.215 60.88 33.202 60.881 33.187 60.883C33.187 60.883 33.185 60.883 33.184 60.883C33.17 60.885 33.155 60.886 33.141 60.887C33.139 60.887 33.138 60.887 33.136 60.887C33.122 60.888 33.108 60.89 33.094 60.891C33.092 60.891 33.09 60.891 33.088 60.891C33.074 60.893 33.061 60.894 33.047 60.895C33.044 60.895 33.042 60.895 33.039 60.895C33.026 60.897 33.011 60.898 32.998 60.899C32.996 60.899 32.994 60.899 32.992 60.899C32.978 60.901 32.965 60.901 32.951 60.903C32.948 60.903 32.945 60.903 32.942 60.903C32.929 60.904 32.916 60.905 32.903 60.906C32.9 60.906 32.896 60.907 32.893 60.907C32.881 60.909 32.867 60.909 32.855 60.91C32.852 60.91 32.848 60.91 32.845 60.912C32.833 60.913 32.819 60.914 32.807 60.914C32.804 60.915 32.8 60.915 32.796 60.915C32.784 60.916 32.772 60.917 32.76 60.918C32.756 60.918 32.752 60.919 32.748 60.919C32.736 60.92 32.724 60.921 32.712 60.921C32.708 60.922 32.704 60.922 32.7 60.922C32.688 60.923 32.677 60.924 32.665 60.925C32.661 60.925 32.656 60.925 32.652 60.926C32.64 60.927 32.629 60.927 32.617 60.928C32.612 60.929 32.609 60.929 32.604 60.929C32.592 60.93 32.581 60.93 32.569 60.931C32.564 60.932 32.56 60.932 32.556 60.932C32.544 60.934 32.533 60.934 32.52 60.934C32.516 60.935 32.512 60.935 32.508 60.935C32.496 60.936 32.486 60.937 32.473 60.938C32.468 60.938 32.464 60.938 32.459 60.938C32.447 60.939 32.436 60.94 32.424 60.941C32.42 60.941 32.415 60.941 32.411 60.941C32.4 60.942 32.388 60.943 32.377 60.943C32.372 60.944 32.368 60.944 32.363 60.944C32.352 60.945 32.341 60.946 32.33 60.946C32.325 60.946 32.32 60.947 32.315 60.947C32.304 60.948 32.294 60.948 32.283 60.949C32.278 60.949 32.273 60.951 32.267 60.951C32.256 60.951 32.246 60.951 32.235 60.953C32.229 60.953 32.224 60.953 32.219 60.953C32.208 60.953 32.199 60.955 32.188 60.955C32.182 60.956 32.177 60.956 32.171 60.956C32.16 60.957 32.15 60.957 32.14 60.958C32.134 60.958 32.128 60.958 32.123 60.959C32.113 60.959 32.102 60.96 32.092 60.96C32.086 60.961 32.08 60.961 32.074 60.961C32.064 60.962 32.053 60.962 32.044 60.963C32.038 60.963 32.032 60.964 32.026 60.964C32.016 60.964 32.006 60.965 31.996 60.965C31.99 60.965 31.984 60.966 31.978 60.966C31.968 60.967 31.957 60.967 31.947 60.967C31.941 60.968 31.936 60.968 31.929 60.968C31.919 60.969 31.909 60.969 31.899 60.97C31.893 60.97 31.887 60.97 31.881 60.971C31.871 60.971 31.86 60.971 31.851 60.972C31.844 60.972 31.838 60.972 31.832 60.972C31.822 60.973 31.813 60.973 31.803 60.974C31.797 60.974 31.79 60.974 31.784 60.974C31.774 60.975 31.765 60.975 31.755 60.976C31.749 60.976 31.743 60.976 31.736 60.976C31.727 60.976 31.717 60.976 31.708 60.978C31.702 60.978 31.695 60.978 31.688 60.978C31.679 60.979 31.668 60.979 31.659 60.98C31.652 60.98 31.646 60.98 31.64 60.98C31.631 60.98 31.621 60.981 31.612 60.981C31.606 60.981 31.598 60.981 31.592 60.982C31.583 60.982 31.572 60.982 31.564 60.983C31.557 60.983 31.551 60.983 31.543 60.983C31.534 60.984 31.525 60.984 31.515 60.984C31.509 60.985 31.502 60.985 31.495 60.985C31.485 60.985 31.475 60.986 31.466 60.986C31.459 60.986 31.453 60.986 31.445 60.987C31.436 60.987 31.427 60.987 31.418 60.987C31.411 60.987 31.404 60.988 31.397 60.988C31.387 60.988 31.379 60.989 31.37 60.989C31.363 60.989 31.356 60.989 31.349 60.989C31.34 60.989 31.331 60.99 31.322 60.99C31.315 60.99 31.308 60.99 31.301 60.99C31.292 60.991 31.283 60.991 31.274 60.991C31.267 60.991 31.259 60.992 31.253 60.992C31.244 60.992 31.237 60.992 31.228 60.992C31.22 60.992 31.213 60.992 31.205 60.994C31.197 60.994 31.189 60.994 31.181 60.994C31.173 60.994 31.165 60.994 31.157 60.994C31.149 60.994 31.141 60.994 31.134 60.994C31.126 60.994 31.118 60.995 31.11 60.995C31.101 60.995 31.093 60.995 31.084 60.995C31.077 60.995 31.069 60.996 31.062 60.996C31.053 60.996 31.045 60.996 31.036 60.996C31.029 60.996 31.021 60.996 31.014 60.996C31.005 60.996 30.997 60.997 30.987 60.997C30.98 60.997 30.972 60.997 30.966 60.997C30.957 60.997 30.948 60.997 30.939 60.997C30.932 60.997 30.925 60.998 30.918 60.998C30.909 60.998 30.897 60.998 30.887 60.998C30.881 60.998 30.876 60.998 30.871 60.998C30.86 60.998 30.851 60.999 30.84 60.999C30.834 60.999 30.828 60.999 30.822 60.999C30.812 60.999 30.803 60.999 30.793 60.999C30.787 60.999 30.78 60.999 30.773 60.999C30.763 60.999 30.755 60.999 30.745 60.999C30.738 60.999 30.731 60.999 30.724 60.999C30.713 61 30.704 61 30.692 61C30.686 61 30.681 61 30.675 61C30.665 61 30.654 61 30.645 61C30.639 61 30.632 61 30.626 61C30.616 61 30.605 61 30.595 61C30.589 61 30.584 61 30.577 61C30.562 61 30.546 61 30.53 61Z" fill="#CA624A"/>
<path fill-rule="evenodd" clip-rule="evenodd" d="M54.311 49.39C51.327 49.019 48.296 48.716 45.088 48.673C46.081 47.861 47.022 46.992 47.908 46.072C50.456 46.513 53.059 46.992 55.683 47.485C55.249 48.139 54.792 48.774 54.311 49.39ZM5.796 48.1C5.689 47.949 5.585 47.796 5.483 47.643V47.642C5.473 47.628 5.463 47.614 5.453 47.6C5.449 47.593 5.444 47.586 5.439 47.579C5.436 47.575 5.433 47.57 5.431 47.566C5.424 47.557 5.418 47.547 5.411 47.538C5.41 47.536 5.408 47.533 5.407 47.531C4.954 46.851 4.528 46.151 4.131 45.433C4.235 45.419 4.339 45.404 4.443 45.39C5.044 46.278 5.76 47.148 6.646 47.993C6.402 48.024 6.156 48.055 5.909 48.088C5.888 48.09 5.867 48.093 5.846 48.096C5.829 48.096 5.813 48.098 5.796 48.1Z" fill="#CB6143"/>
<path fill-rule="evenodd" clip-rule="evenodd" d="M13.752 16.746C11.768 16.746 9.86601 16.637 8.01801 16.457C9.86601 16.637 11.769 16.745 13.752 16.746ZM28.066 12.937C28.068 12.937 28.069 12.937 28.071 12.937C28.07 12.937 28.068 12.937 28.066 12.937ZM12.217 11.631C12.211 11.63 12.203 11.63 12.196 11.63C12.204 11.63 12.211 11.63 12.217 11.631ZM12.151 11.626C11.893 11.606 11.638 11.588 11.387 11.572C11.639 11.588 11.893 11.606 12.151 11.626ZM16.365 10.411C15.23 10.411 14.076 10.362 12.91 10.232C14.076 10.362 15.229 10.411 16.365 10.411ZM12.896 10.231C12.881 10.229 12.865 10.227 12.849 10.225C12.866 10.227 12.881 10.229 12.896 10.231ZM24.958 9.99502C24.979 9.99502 24.999 9.99502 25.019 9.99302C24.998 9.99402 24.978 9.99402 24.958 9.99502ZM22.505 5.17602C22.179 5.17602 21.855 5.17402 21.53 5.17002C21.855 5.17402 22.18 5.17602 22.505 5.17602Z" fill="#6C6158"/>
<path fill-rule="evenodd" clip-rule="evenodd" d="M22.513 5.17593C22.511 5.17593 22.508 5.17593 22.506 5.17593C22.18 5.17593 21.856 5.17393 21.531 5.16993C23.382 4.51693 25.112 4.17993 26.566 4.17993C27.809 4.17993 28.851 4.42593 29.595 4.93393C29.187 4.95493 28.78 4.97393 28.374 4.99393C26.672 5.07693 24.986 5.15393 23.316 5.17193C23.048 5.17493 22.78 5.17593 22.513 5.17593Z" fill="#F9A577"/>
<path fill-rule="evenodd" clip-rule="evenodd" d="M30.755 8.09296C28.323 7.78796 25.907 7.48696 23.673 7.37296C23.649 7.37196 23.626 7.37096 23.603 7.36996C22.886 7.33396 22.188 7.31796 21.505 7.31796C21.503 7.31796 21.5 7.31796 21.499 7.31796C19.736 7.31796 18.08 7.42796 16.485 7.59996C18.191 6.55796 19.908 5.74296 21.531 5.16996C21.856 5.17396 22.18 5.17596 22.506 5.17596C22.508 5.17596 22.511 5.17596 22.513 5.17596C22.78 5.17596 23.049 5.17496 23.316 5.17196C24.986 5.15396 26.672 5.07696 28.374 4.99396C28.78 4.97296 29.187 4.95396 29.595 4.93396C29.921 5.15596 30.189 5.42796 30.392 5.75096C30.802 6.40096 30.91 7.20096 30.755 8.09296Z" fill="#FDAB77"/>
<path fill-rule="evenodd" clip-rule="evenodd" d="M16.367 10.411H16.365C15.23 10.411 14.076 10.362 12.91 10.232C12.905 10.232 12.901 10.231 12.896 10.231C12.881 10.229 12.865 10.227 12.849 10.225H12.846C13.832 9.38499 14.936 8.57199 16.139 7.81399C16.254 7.74199 16.369 7.67099 16.484 7.59999C18.079 7.42799 19.735 7.31799 21.498 7.31799C21.498 7.31799 21.501 7.31799 21.503 7.31799H21.504C22.187 7.31799 22.885 7.33399 23.602 7.36999C23.625 7.36999 23.648 7.37199 23.672 7.37299C25.906 7.48699 28.322 7.78799 30.754 8.09299C30.645 8.72099 30.405 9.39399 30.048 10.095C28.777 10.032 27.503 9.97799 26.19 9.97799C26.188 9.97799 26.185 9.97799 26.185 9.97799H26.184C25.798 9.97799 25.41 9.98299 25.017 9.99299C24.996 9.99399 24.976 9.99399 24.956 9.99499C24.918 9.99699 24.88 9.99699 24.842 9.99799C24.819 9.99899 24.797 9.99899 24.774 9.99999C24.731 10.001 24.688 10.003 24.645 10.004C24.637 10.005 24.629 10.005 24.622 10.005C24.578 10.007 24.533 10.008 24.489 10.01C24.476 10.01 24.463 10.011 24.45 10.012C23.714 10.04 22.964 10.085 22.202 10.136C20.328 10.259 18.376 10.411 16.37 10.411C16.37 10.411 16.369 10.411 16.367 10.411Z" fill="#FC9E70"/>
<path fill-rule="evenodd" clip-rule="evenodd" d="M28.066 12.937C28.066 12.937 28.066 12.937 28.065 12.937C27.287 12.937 26.506 12.924 25.728 12.896C25.702 12.895 25.676 12.894 25.65 12.893C20.828 12.714 16.159 11.944 12.285 11.636C12.263 11.635 12.24 11.633 12.217 11.631C12.211 11.63 12.203 11.63 12.196 11.63C12.181 11.628 12.166 11.627 12.151 11.626C11.893 11.606 11.638 11.588 11.387 11.572C11.839 11.119 12.326 10.668 12.846 10.225C12.847 10.225 12.848 10.225 12.849 10.225C12.865 10.227 12.881 10.229 12.896 10.231C12.901 10.231 12.905 10.232 12.91 10.232C14.076 10.362 15.229 10.411 16.365 10.411C16.366 10.411 16.366 10.411 16.367 10.411C16.369 10.411 16.37 10.411 16.372 10.411C18.378 10.411 20.33 10.259 22.204 10.136C22.967 10.085 23.716 10.04 24.452 10.012C24.465 10.011 24.478 10.01 24.491 10.01C24.535 10.008 24.579 10.007 24.624 10.005C24.632 10.005 24.64 10.005 24.647 10.004C24.69 10.003 24.733 10.001 24.776 10C24.798 9.99903 24.821 9.99903 24.844 9.99803C24.882 9.99703 24.92 9.99603 24.958 9.99503C24.979 9.99503 24.999 9.99503 25.019 9.99303C25.412 9.98303 25.8 9.97803 26.186 9.97803C26.187 9.97803 26.19 9.97803 26.192 9.97803C27.504 9.97803 28.779 10.032 30.05 10.095C29.583 11.011 28.916 11.972 28.076 12.937C28.075 12.937 28.074 12.937 28.073 12.937C28.07 12.937 28.068 12.937 28.066 12.937Z" fill="#FDAB77"/>
<path fill-rule="evenodd" clip-rule="evenodd" d="M13.758 16.746C13.756 16.746 13.755 16.746 13.753 16.746C11.769 16.746 9.867 16.637 8.019 16.457C8.555 14.941 9.728 13.239 11.388 11.572C11.639 11.588 11.894 11.606 12.152 11.626C12.167 11.627 12.182 11.628 12.197 11.63C12.204 11.63 12.212 11.63 12.218 11.631C12.24 11.633 12.263 11.635 12.286 11.636C16.16 11.944 20.829 12.714 25.651 12.893C25.677 12.893 25.703 12.895 25.729 12.896C26.506 12.924 27.288 12.937 28.066 12.937C28.068 12.937 28.07 12.937 28.072 12.937C28.073 12.937 28.074 12.937 28.075 12.937C27.174 13.972 26.074 15.01 24.812 15.999C21.351 16.346 17.778 16.699 14.44 16.741C14.212 16.744 13.984 16.746 13.758 16.746Z" fill="#FFC598"/>
<path fill-rule="evenodd" clip-rule="evenodd" d="M19.039 19.522C16.386 19.158 13.628 18.66 10.952 18.357C9.853 18.233 8.767 18.142 7.691 18.076C7.705 17.571 7.816 17.028 8.018 16.457C9.867 16.637 11.768 16.745 13.752 16.746C13.754 16.746 13.757 16.746 13.757 16.746C13.983 16.746 14.211 16.744 14.44 16.742C17.777 16.7 21.35 16.346 24.812 16C24.055 16.593 23.239 17.168 22.373 17.714C21.26 18.414 20.138 19.018 19.039 19.522Z" fill="#FFCC9E"/>
<path fill-rule="evenodd" clip-rule="evenodd" d="M11.947 21.3469C10.159 21.3469 8.789 20.8379 8.121 19.7759C7.812 19.2859 7.674 18.7109 7.691 18.0759C8.767 18.1419 9.853 18.2329 10.952 18.3569C13.629 18.6599 16.386 19.1579 19.039 19.5219C16.424 20.7199 13.929 21.3469 11.947 21.3469Z" fill="#C97866"/>
</svg>

