<?xml version="1.0" encoding="UTF-8" standalone="no"?>
<svg
   width="55.082993"
   height="55.082081"
   viewBox="0 0 55.082993 55.082081"
   fill="none"
   version="1.1"
   id="svg331"
   sodipodi:docname="mars.svg"
   inkscape:version="1.2.2 (b0a8486541, 2022-12-01)"
   xmlns:inkscape="http://www.inkscape.org/namespaces/inkscape"
   xmlns:sodipodi="http://sodipodi.sourceforge.net/DTD/sodipodi-0.dtd"
   xmlns="http://www.w3.org/2000/svg"
   xmlns:svg="http://www.w3.org/2000/svg">
  <defs
     id="defs335" />
  <sodipodi:namedview
     id="namedview333"
     pagecolor="#ffffff"
     bordercolor="#000000"
     borderopacity="0.25"
     inkscape:showpageshadow="2"
     inkscape:pageopacity="0.0"
     inkscape:pagecheckerboard="0"
     inkscape:deskcolor="#d1d1d1"
     showgrid="false"
     inkscape:zoom="6.0632911"
     inkscape:cx="3.9582463"
     inkscape:cy="39.087683"
     inkscape:window-width="1280"
     inkscape:window-height="651"
     inkscape:window-x="0"
     inkscape:window-y="32"
     inkscape:window-maximized="1"
     inkscape:current-layer="svg331" />
  <path
     fill-rule="evenodd"
     clip-rule="evenodd"
     d="m 27.541993,55.081982 c 15.169,0 27.541,-12.372 27.541,-27.541 C 55.082993,12.371982 42.710993,0 27.541993,0 12.371993,0 0,12.371982 0,27.540982 c 0,15.169 12.371993,27.541 27.541993,27.541 z"
     fill="#fa8e45"
     id="path287" />
  <path
     fill-rule="evenodd"
     clip-rule="evenodd"
     d="m 12.139993,19.833982 c -0.773,0.375 -1.241,0.234 -1.897,0 -0.65599,-0.235 -1.5,-0.562 -1.945,-1.078 -0.445,-0.515 -0.492,-1.218 -0.164,-2.062 0.328,-0.843 1.03101,-1.8269 1.17201,-2.5769 0.14,-0.749 -0.28201,-1.2651 -0.72701,-1.2881 -0.445,-0.024 -0.91299,0.445 -1.40499,0.937 -0.492,0.492 -1.008,1.007 -1.493,0.847 -0.486,-0.16 -0.94201,-0.995 -0.28401,-2.434 0.657,-1.44 2.427,-3.48396 4.197,-5.52896 -4.995,4.29396 -8.432,10.34996 -9.348995,17.20496 -0.059,0.6 -0.120995,1.2001 0.171005,1.1781 0.292,-0.022 0.93599,-0.666 1.74899,-1.011 0.814,-0.346 1.798,-0.393 2.431,-0.112 0.632,0.282 0.913,0.8909 1.054,1.4529 0.14,0.562 0.14001,1.078 0.09301,1.499 -0.046,0.422 -0.14001,0.751 -0.42101,1.101 -0.281,0.352 -0.74999,0.727 -1.35899,1.265 -0.609,0.539 -1.359,1.2421 -1.664,1.7811 -0.304,0.538 -0.163,0.9129 0.024,1.1479 0.187,0.234 0.422,0.328 0.75,0.515 0.328,0.188 0.74899,0.469 1.07699,0.914 0.328,0.445 0.56301,1.054 0.49201,1.687 -0.07,0.633 -0.44501,1.288 -0.65601,1.804 -0.21,0.515 -0.257,0.89 0,1.382 0.258,0.492 0.82,1.101 1.336,1.64 0.515,0.539 0.984,1.0081 1.405,1.6171 0.422,0.609 0.79701,1.3589 1.05701,1.6239 0.152,0.156 0.26399,0.1461 0.36499,0.1371 0.071,-0.007 0.136,-0.0131 0.205,0.0389 0.166,0.126 0.353,0.594 0.556,1.123 0.202,0.528 0.42,1.116 0.699,1.552 0.279,0.437 0.62,0.721 1.05,0.802 0.43,0.081 0.95,-0.042 1.816,0.239 0.867,0.281 2.082,0.967 2.829,1.778 0.748,0.811 1.029,1.748 1.365,2.485 0.335,0.736 0.725,1.272 1.193,0.92 0.469,-0.351 1.016,-1.5899 1.665,-2.3259 0.648,-0.737 1.398,-0.971 1.867,-1.649 0.468,-0.68 0.656,-1.8051 0.491,-2.9061 -0.164,-1.101 -0.679,-2.1779 -1.311,-2.9279 -0.633,-0.749 -1.383,-1.1711 -2.203,-1.7101 -0.82,-0.539 -1.71,-1.1949 -1.874,-2.1089 -0.164,-0.913 0.398,-2.0851 1.476,-2.2721 1.078,-0.188 2.671,0.6091 4.217,0.6321 1.546,0.024 3.046,-0.7261 3.585,-1.3821 0.539,-0.656 0.117,-1.2179 -0.586,-1.5229 -0.703,-0.305 -1.688,-0.3511 -2.437,-0.6091 -0.749,-0.258 -1.265,-0.726 -1.429,-1.476 -0.164,-0.75 0.024,-1.78 0.164,-3.139 0.141,-1.359 0.234,-3.0459 0.047,-3.9829 -0.187,-0.937 -0.656,-1.1251 -1.124,-0.0471 -0.469,1.078 -0.938,3.42 -1.64,4.686 -0.703,1.265 -1.64,1.452 -2.46,1.452 -0.82,0 -1.523,-0.187 -2.578,-0.539 -1.054,-0.351 -2.46,-0.866 -3.373,-1.499 -0.914,-0.633 -1.33599,-1.382 -1.47599,-2.226 -0.141,-0.843 0,-1.78 1.07799,-2.6 1.077,-0.82 3.092,-1.523 4.591,-2.694 1.5,-1.172 2.484,-2.812 2.484,-3.538 0,-0.726 -0.984,-0.539 -2.015,0 -1.03,0.539 -2.109,1.429 -2.881,1.804 z"
     fill="#492220"
     id="path289" />
  <path
     fill-rule="evenodd"
     clip-rule="evenodd"
     d="m 12.444993,13.976982 c 0.188,0.257 0.703,0.257 1.125,0.187 0.421,-0.07 0.749,-0.211 1.124,-0.726 0.375,-0.515 0.797,-1.406 1.078,-2.132 0.281,-0.726 0.422,-1.289 0.797,-1.57 0.374,-0.28099 0.984,-0.28099 1.639,-0.30399 0.656,-0.024 1.359,-0.07099 1.476,-0.49199 0.118,-0.422 -0.351,-1.21901 -0.984,-1.68701 -0.632,-0.469 -1.429,-0.60899 -1.991,-0.86699 -0.562,-0.258 -0.89,-0.632 -1.031,-1.101 -0.14,-0.469 -0.094,-1.03101 0.024,-1.10101 0.117,-0.07 0.304,0.351 1.101,0.468 0.796,0.118 2.202,-0.07 2.788,-0.211 0.586,-0.14 0.351,-0.23399 -0.15,-0.64499 -0.502,-0.412 -1.271,-1.14 -1.463,-1.576 -0.192,-0.436 0.192,-0.578 0.576,-0.72 -2.904,1.002 -5.588,2.476 -7.96,4.33 0.3,-0.225 0.601,-0.45 0.855,-0.338 0.253,0.112 0.461,0.56199 0.424,0.92699 -0.037,0.365 -0.318,0.64601 -0.623,1.23201 -0.304,0.585 -0.632,1.47599 -0.726,1.89798 -0.094,0.421 0.047,0.375 0.328,0.351 0.281,-0.023 0.703,-0.023 1.031,0.233 0.328,0.258 0.562,0.774 0.656,1.242 0.094,0.469 0.047,0.89 -0.047,1.359 -0.094,0.47 -0.234,0.985 -0.047,1.243 z"
     fill="#492220"
     id="path291" />
  <path
     fill-rule="evenodd"
     clip-rule="evenodd"
     d="m 30.905993,5.471972 c 1.406,-0.047 2.624,0.141 3.843,0.328 1.218,0.188 2.436,0.37599 3.467,0.46899 1.031,0.094 1.874,0.094 2.58,-0.216 0.706,-0.311 1.274,-0.93099 1.842,-1.55099 -1.273,-0.836 -2.619,-1.56901 -4.028,-2.18801 -2.13,0.506 -4.261,1.013 -6.263,1.172 -2.003,0.159 -3.877,-0.028 -5.236,-0.123 -1.359,-0.094 -2.202,-0.09399 -2.999,-0.04599 -0.796,0.046 -1.546,0.14099 -1.171,0.60899 0.375,0.469 1.874,1.312 3.42,1.593 1.546,0.281 3.14,10e-6 4.545,-0.04699 z"
     fill="#492220"
     id="path293" />
  <path
     fill-rule="evenodd"
     clip-rule="evenodd"
     d="m 47.867993,14.281082 c -0.844,-0.093 -1.922,-0.281 -2.765,-0.164 -0.844,0.117 -1.453,0.539 -1.429,1.008 0.023,0.468 0.679,0.984 1.429,1.241 0.75,0.258 1.593,0.258 2.273,0.61 0.679,0.351 1.194,1.054 1.944,1.241 0.75,0.188 1.734,-0.14 2.272,-0.281 0.539,-0.141 0.633,-0.094 0.996,0.39 0.362,0.484 0.994,1.405 1.625,2.326 -0.974,-3.781 -2.73,-7.248 -5.086,-10.217 0.267,1.314 0.535,2.627 0.364,3.283 -0.17,0.657 -0.779,0.657 -1.623,0.563 z"
     fill="#492220"
     id="path295" />
  <path
     fill-rule="evenodd"
     clip-rule="evenodd"
     d="m 26.265993,11.539982 c -0.093,-0.468 -0.374,-0.89 -0.234,-1.195 0.141,-0.304 0.703,-0.492 0.609,-0.702 -0.093,-0.21101 -0.843,-0.446 -1.593,-0.492 -0.749,-0.047 -1.499,0.093 -1.968,0.468 -0.468,0.375 -0.656,0.984 -0.398,1.289 0.258,0.304 0.96,0.304 1.101,0.632 0.141,0.328 -0.281,0.984 -0.351,1.5 -0.071,0.515 0.21,0.89 0.726,0.866 0.515,-0.023 1.265,-0.445 1.687,-0.913 0.421,-0.469 0.516,-0.984 0.421,-1.453 z"
     fill="#492220"
     id="path297" />
  <path
     fill-rule="evenodd"
     clip-rule="evenodd"
     d="m 28.281993,19.575982 c -0.702,-0.469 -1.686,-0.656 -2.506,-0.75 -0.82,-0.093 -1.476,-0.093 -1.945,0.047 -0.468,0.141 -0.75,0.422 -0.773,0.937 -0.023,0.516 0.21,1.265 0,1.734 -0.211,0.469 -0.867,0.656 -1.007,1.031 -0.141,0.375 0.234,0.937 0.82,1.242 0.585,0.304 1.382,0.351 2.225,0.374 0.844,0.024 1.734,0.024 2.437,-0.164 0.703,-0.188 1.218,-0.563 1.57,-1.007 0.351,-0.445 0.538,-0.961 0.421,-1.593 -0.117,-0.633 -0.539,-1.382 -1.242,-1.851 z"
     fill="#492220"
     id="path299" />
  <path
     fill-rule="evenodd"
     clip-rule="evenodd"
     d="m 27.541993,55.081982 c -0.014,0 -0.028,0 -0.042,0 0.013,0 0.028,0 0.042,0 15.169,0 27.541,-12.372 27.541,-27.541 0,15.211 -12.331,27.541 -27.541,27.541 z m -0.053,0 c -0.011,0 -0.02,0 -0.031,0 0.01,0 0.019,0 0.031,0 z m -0.083,0 c -12.357,-0.06 -22.79201,-8.259 -26.21601,-19.511 0.013,0.035 0.02601,0.069 0.03901,0.103 3.471,11.179 13.896,19.348 26.177,19.408 z m 27.677,-27.597 c 0,-0.01 0,-0.019 0,-0.03 0,0.01 0,0.02 0,0.03 z m -0.002,-0.042 c 0,-0.011 0,-0.02 0,-0.031 0,0.01 0,0.02 0,0.031 z m 0,-0.042 c 0,-0.012 0,-0.022 0,-0.034 0,0.012 0,0.023 0,0.034 z m 0,-0.042 c 0,-0.014 0,-0.026 0,-0.04 0,0.013 0,0.027 0,0.04 z m 0,-0.04 c -0.019,-2.304 -0.323,-4.542 -0.878,-6.682 0.003,0.005 0.006,0.01 0.01,0.014 0.549,2.134 0.851,4.367 0.868,6.668 z"
     fill="#200014"
     id="path301" />
  <path
     fill-rule="evenodd"
     clip-rule="evenodd"
     d="m 27.541993,55.082082 c -0.014,0 -0.028,0 -0.042,0 -0.003,0 -0.008,0 -0.011,0 -0.011,0 -0.021,0 -0.031,0 -0.004,0 -0.008,0 -0.011,0 -0.011,0 -0.023,0 -0.035,0 -0.002,0 -0.004,0 -0.006,0 -12.281,-0.06 -22.706,-8.229 -26.177,-19.408 1.274,3.29 2.579,6.575 6.88,9.403 0.446,0.293 0.895,0.574 1.342,0.84 0.051,0.096 0.10401,0.189 0.15901,0.275 0.27899,0.437 0.61999,0.721 1.04999,0.802 0.241,0.045 0.51,0.027 0.852,0.051 1.039,0.52 2.075,0.968 3.11,1.348 0.25,0.193 0.483,0.401 0.683,0.618 0.748,0.811 1.029,1.748 1.365,2.485 0.263,0.577 0.559,1.031 0.9,1.031 0.094,0 0.192,-0.035 0.293,-0.111 0.469,-0.351 1.016,-1.59 1.665,-2.326 0.109,-0.123 0.22,-0.233 0.333,-0.332 1.338,0.207 2.664,0.308 3.967,0.308 16.874,0 30.314,-16.725 26.829,-31.889 0.361,-0.075 0.694,-0.177 0.936,-0.24 0.168,-0.044 0.292,-0.069 0.395,-0.069 0.229,0 0.351,0.126 0.601,0.459 0.36,0.481 0.987,1.395 1.615,2.311 0.555,2.139 0.859,4.378 0.878,6.682 0,0.014 0,0.026 0,0.04 0,0.003 0,0.005 0,0.008 0,0.012 0,0.022 0,0.034 0,0.004 0,0.007 0,0.011 0,0.011 0,0.02 0,0.031 0.001,0.004 0.001,0.008 0.001,0.012 0,0.011 0,0.02 0,0.03 0,0.004 0,0.01 0,0.014 0,0.014 0,0.028 0,0.042 0,15.168 -12.372,27.54 -27.541,27.54 z"
     fill="#9f5b36"
     id="path303" />
  <path
     fill-rule="evenodd"
     clip-rule="evenodd"
     d="m 17.569993,52.526982 c -0.341,0 -0.637,-0.454 -0.9,-1.031 -0.336,-0.737 -0.617,-1.674 -1.365,-2.485 -0.2,-0.217 -0.433,-0.425 -0.683,-0.618 1.761,0.647 3.511,1.096 5.239,1.364 -0.113,0.1 -0.224,0.209 -0.333,0.332 -0.649,0.736 -1.196,1.975 -1.665,2.326 -0.102,0.077 -0.199,0.112 -0.293,0.112 z m -6.059,-5.482 c -0.342,-0.024 -0.611,-0.006 -0.852,-0.051 -0.43,-0.081 -0.771,-0.365 -1.05,-0.802 -0.055,-0.086 -0.108,-0.179 -0.159,-0.275 0.688,0.409 1.375,0.783 2.061,1.128 z"
     fill="#492220"
     id="path305" />
  <path
     fill-rule="evenodd"
     clip-rule="evenodd"
     d="m 52.696993,16.312982 c 0,-0.001 0,-0.002 0,-0.002 z m -0.015,-0.035 c 0,-0.001 -10e-4,-0.001 -10e-4,-0.001 z m -0.077,-0.167 c -10e-4,-0.003 -0.002,-0.005 -0.003,-0.008 10e-4,0.003 0.003,0.005 0.003,0.008 z m -0.125,-0.273 c -0.003,-0.006 -0.006,-0.012 -0.009,-0.018 0.003,0.006 0.005,0.012 0.009,0.018 z m -0.042,-0.088 c -0.003,-0.007 -0.007,-0.015 -0.01,-0.022 0.002,0.007 0.006,0.015 0.01,0.022 z m -0.036,-0.076 c -0.004,-0.008 -0.007,-0.015 -0.011,-0.021 0.004,0.006 0.008,0.014 0.011,0.021 z m -0.036,-0.075 c -0.006,-0.012 -0.012,-0.024 -0.018,-0.037 0.005,0.012 0.012,0.025 0.018,0.037 z m -0.043,-0.087 c -0.004,-0.009 -0.008,-0.017 -0.013,-0.026 0.006,0.009 0.01,0.017 0.013,0.026 z m -0.019,-0.039 c -0.004,-0.008 -0.008,-0.017 -0.013,-0.026 0.005,0.009 0.01,0.018 0.013,0.026 z m -0.037,-0.075 c -0.012,-0.025 -0.025,-0.051 -0.038,-0.077 0.013,0.026 0.027,0.051 0.038,0.077 z m -0.041,-0.084 c -0.005,-0.01 -0.011,-0.021 -0.016,-0.031 0.007,0.011 0.011,0.021 0.016,0.031 z m -0.019,-0.04 c -0.005,-0.01 -0.01,-0.02 -0.015,-0.03 0.005,0.011 0.009,0.02 0.015,0.03 z m -0.019,-0.038 c -0.006,-0.012 -0.012,-0.023 -0.018,-0.035 0.006,0.011 0.012,0.023 0.018,0.035 z m -0.06,-0.118 c -0.006,-0.012 -0.012,-0.025 -0.018,-0.037 0.006,0.012 0.011,0.025 0.018,0.037 z m -0.021,-0.041 c -0.006,-0.012 -0.012,-0.024 -0.018,-0.036 0.005,0.012 0.011,0.024 0.018,0.036 z m -0.101,-0.197 c -0.556,-1.074 -1.181,-2.105 -1.869,-3.09 0.688,0.985 1.313,2.017 1.869,3.09 z m -2.87,-4.399 c -1.836,-2.31796 -4.036,-4.33598 -6.512,-5.96498 0.004,-0.004 0.009,-0.00899 0.013,-0.01399 -0.298,-0.196 -0.6,-0.38601 -0.906,-0.57001 2.84,1.71 5.344,3.91801 7.396,6.50298 0.004,0.015 0.007,0.03 0.009,0.046 z"
     fill="#200014"
     id="path307" />
  <path
     fill-rule="evenodd"
     clip-rule="evenodd"
     d="m 49.280993,14.099982 c -1.465,-3.235 -3.803,-6.31399 -7.161,-9.04499 0.171,-0.174 0.338,-0.356 0.505,-0.539 2.476,1.629 4.676,3.64701 6.512,5.96499 0.264,1.298 0.524,2.587 0.355,3.237 -0.044,0.167 -0.115,0.291 -0.211,0.382 z"
     fill="#9f5b36"
     id="path309" />
  <path
     fill-rule="evenodd"
     clip-rule="evenodd"
     d="m 41.730993,3.930942 c -0.01,-0.005 -0.021,-0.011 -0.029,-0.017 0.008,0.006 0.018,0.012 0.029,0.017 z m -0.033,-0.01801 c -0.009,-0.006 -0.018,-0.012 -0.028,-0.017 0.009,0.005 0.02,0.011 0.028,0.017 z m -0.029,-0.019 c -0.01,-0.005 -0.019,-0.011 -0.028,-0.016 0.01,0.005 0.018,0.01 0.028,0.016 z m -0.033,-0.01899 c -0.009,-0.005 -0.018,-0.01001 -0.027,-0.01601 0.009,0.005 0.018,0.01101 0.027,0.01601 z m -0.063,-0.03701 c -0.008,-0.005 -0.017,-0.01 -0.025,-0.015 0.01,0.005 0.017,0.01 0.025,0.015 z m -0.062,-0.03799 c -0.008,-0.004 -0.016,-0.00901 -0.024,-0.01401 0.007,0.005 0.015,0.00901 0.024,0.01401 z m -0.032,-0.01801 c -0.008,-0.005 -0.016,-0.009 -0.023,-0.014 0.008,0.005 0.015,0.009 0.023,0.014 z m -0.031,-0.018 c -0.008,-0.005 -0.016,-0.01 -0.025,-0.015 0.008,0.005 0.018,0.01 0.025,0.015 z m -0.028,-0.017 c -0.009,-0.005 -0.018,-0.00999 -0.027,-0.01599 0.009,0.006 0.017,0.01099 0.027,0.01599 z m -0.033,-0.019 c -0.019,-0.011 -0.038,-0.022 -0.057,-0.033 0.02,0.011 0.038,0.022 0.057,0.033 z m -0.058,-0.03399 c -0.04,-0.023 -0.08,-0.046 -0.121,-0.069 0.04,0.023 0.081,0.046 0.121,0.069 z m -0.187,-0.10701 c -0.007,-0.004 -0.015,-0.00799 -0.023,-0.01299 0.009,0.004 0.017,0.00899 0.023,0.01299 z m -0.03,-0.01799 c -0.008,-0.004 -0.015,-0.00801 -0.022,-0.01201 0.006,0.004 0.014,0.00801 0.022,0.01201 z m -0.033,-0.01801 c -0.007,-0.003 -0.015,-0.00799 -0.021,-0.01199 0.008,0.004 0.014,0.00799 0.021,0.01199 z m -0.064,-0.035 c -0.007,-0.004 -0.014,-0.008 -0.021,-0.012 0.009,0.004 0.015,0.007 0.021,0.012 z m -0.03,-0.01799 c -0.007,-0.004 -0.014,-0.00801 -0.021,-0.01201 0.006,0.004 0.013,0.00801 0.021,0.01201 z m -0.033,-0.01801 c -0.007,-0.004 -0.014,-0.00899 -0.021,-0.01199 0.008,0.004 0.015,0.00799 0.021,0.01199 z m -0.062,-0.035 c -0.008,-0.004 -0.015,-0.00799 -0.022,-0.01199 0.007,0.004 0.015,0.00799 0.022,0.01199 z m -0.032,-0.01799 c -0.007,-0.004 -0.014,-0.00801 -0.022,-0.01201 0.008,0.004 0.014,0.00801 0.022,0.01201 z m -0.033,-0.017 c -0.007,-0.004 -0.015,-0.00801 -0.022,-0.01201 0.009,0.004 0.016,0.00801 0.022,0.01201 z m -0.03,-0.01701 c -0.007,-0.005 -0.015,-0.00899 -0.023,-0.01299 0.008,0.004 0.015,0.00899 0.023,0.01299 z m -0.032,-0.017 c -0.008,-0.005 -0.016,-0.00899 -0.024,-0.01399 0.008,0.005 0.017,0.00899 0.024,0.01399 z m -0.03,-0.017 c -0.008,-0.005 -0.016,-0.00899 -0.025,-0.01399 0.008,0.004 0.016,0.00899 0.025,0.01399 z m -0.033,-0.01799 c -0.008,-0.004 -0.017,-0.00901 -0.025,-0.01401 0.008,0.005 0.018,0.01001 0.025,0.01401 z m -0.059,-0.03201 c -0.662,-0.358 -1.339,-0.69 -2.032,-0.995 -0.006,0.002 -0.013,0.00401 -0.02,0.00501 -2.028,-0.893 -4.182,-1.54801 -6.427,-1.930011 -0.015,-0.004 -0.03,-0.007002 -0.045,-0.011002 3.039,0.508003 5.91,1.514003 8.524,2.931003 z"
     fill="#200014"
     id="path311" />
  <path
     fill-rule="evenodd"
     clip-rule="evenodd"
     d="m 38.193993,2.413042 c -2.167,-1.124 -4.1,-1.577 -6.031,-2.024004 2.245,0.382004 4.399,1.037004 6.427,1.930004 -0.133,0.032 -0.265,0.063 -0.396,0.094 z"
     fill="#9f5b36"
     id="path313" />
  <path
     fill-rule="evenodd"
     clip-rule="evenodd"
     d="m 42.118993,5.054962 c -0.417,-0.339 -0.85,-0.673 -1.298,-1.002 -0.92,-0.672 -1.791,-1.206 -2.628,-1.64 0.132,-0.031 0.264,-0.06199 0.396,-0.09399 0.007,-10e-4 0.014,-0.00301 0.02,-0.00501 0.693,0.305 1.37,0.637 2.032,0.995 l 0.002,10e-4 c 0.009,0.005 0.019,0.01 0.028,0.015 0,0 0.002,0.002 0.004,0.002 0.008,0.005 0.017,0.01001 0.025,0.01401 0.003,0.002 0.005,0.003 0.007,0.004 0.009,0.005 0.017,0.00899 0.025,0.01399 0.002,10e-4 0.005,0.00201 0.007,0.00301 0.008,0.005 0.016,0.00899 0.024,0.01399 0.003,10e-4 0.005,0.00201 0.008,0.00401 0.008,0.004 0.016,0.00799 0.023,0.01299 0.003,0.001 0.006,0.003 0.009,0.005 0.007,0.004 0.015,0.00801 0.022,0.01201 0.004,0.002 0.007,0.00299 0.01,0.00499 0.008,0.004 0.015,0.00801 0.022,0.01201 0.003,0.002 0.007,0.004 0.01,0.006 0.007,0.004 0.014,0.00799 0.022,0.01199 0.003,0.002 0.007,0.00401 0.01,0.00601 0.007,0.004 0.014,0.00699 0.021,0.01099 0.004,0.002 0.008,0.00401 0.011,0.00601 0.007,0.004 0.014,0.00799 0.021,0.01199 0.004,0.002 0.007,0.004 0.011,0.006 0.007,0.004 0.014,0.00801 0.021,0.01201 0.003,0.002 0.007,0.00399 0.01,0.00599 0.007,0.004 0.014,0.008 0.021,0.012 0.004,0.002 0.008,0.00401 0.011,0.00601 0.007,0.004 0.014,0.00799 0.021,0.01199 0.004,0.001 0.007,0.00301 0.01,0.00501 0.006,0.004 0.015,0.00799 0.021,0.01199 0.003,0.002 0.006,0.004 0.01,0.006 0.007,0.004 0.014,0.00801 0.022,0.01201 0.003,0.002 0.005,0.004 0.008,0.005 0.008,0.005 0.016,0.00899 0.023,0.01299 0.003,0.002 0.006,0.003 0.008,0.005 0.008,0.004 0.016,0.00901 0.024,0.01401 0,0 0.003,10e-4 0.005,0.002 0.009,0.005 0.018,0.01 0.026,0.015 0.002,0.001 0.002,0.002 0.002,0.002 0.042,0.023 0.081,0.046 0.121,0.069 l 10e-4,9.9e-4 c 0.019,0.011 0.038,0.022 0.057,0.033 0.002,10e-4 0.003,0.00201 0.005,0.00301 0.009,0.006 0.018,0.01099 0.027,0.01599 l 0.004,0.002 c 0.009,0.005 0.017,0.01 0.025,0.015 0.003,0.002 0.004,0.002 0.007,0.004 0.008,0.005 0.016,0.009 0.023,0.014 0.002,10e-4 0.005,0.003 0.007,0.004 0.008,0.005 0.016,0.01001 0.024,0.01401 0.002,0.002 0.005,0.00299 0.008,0.00499 0.008,0.005 0.016,0.00901 0.024,0.01401 0.002,10e-4 0.004,0.003 0.006,0.004 0.008,0.005 0.017,0.00999 0.025,0.01499 0.002,0 0.004,0.002 0.006,0.002 0.008,0.005 0.017,0.01 0.026,0.015 0.002,0.002 0.002,0.00201 0.004,0.00301 0.009,0.006 0.018,0.01099 0.027,0.01599 l 0.004,0.00301 c 0.009,0.004 0.018,0.01099 0.028,0.01599 l 0.002,0.00201 c 0.01,0.005 0.019,0.011 0.028,0.017 0.002,0 0.001,-1e-5 0.003,9.9e-4 0.009,0.006 0.019,0.012 0.029,0.017 l 10e-4,0.00101 c 0.306,0.184 0.608,0.37399 0.906,0.56999 -0.004,0.005 -0.009,0.01001 -0.013,0.01401 -0.163,0.184 -0.331,0.36599 -0.502,0.53999 z"
     fill="#492220"
     id="path315" />
  <path
     fill-rule="evenodd"
     clip-rule="evenodd"
     d="m 50.135993,11.789982 c -0.008,-0.012 -0.017,-0.024 -0.025,-0.036 0.008,0.012 0.018,0.024 0.025,0.036 z m -0.025,-0.038 c -0.034,-0.047 -0.067,-0.095 -0.101,-0.142 0.033,0.048 0.066,0.094 0.101,0.142 z m -0.104,-0.147 c -0.007,-0.01 -0.015,-0.02 -0.022,-0.03 0.006,0.01 0.015,0.02 0.022,0.03 z m -0.026,-0.036 c -0.007,-0.01 -0.014,-0.021 -0.023,-0.03 0.009,0.01 0.015,0.02 0.023,0.03 z m -0.078,-0.108 c -0.007,-0.01 -0.014,-0.021 -0.022,-0.031 0.007,0.011 0.015,0.02 0.022,0.031 z m -0.028,-0.04 c -0.006,-0.008 -0.012,-0.016 -0.018,-0.025 0.006,0.009 0.011,0.016 0.018,0.025 z m -0.184,-0.251 c -0.003,-0.005 -0.006,-0.009 -0.009,-0.013 0.001,0.004 0.005,0.009 0.009,0.013 z m -0.064,-0.086 c -0.002,-0.003 -0.004,-0.005 -0.006,-0.008 0.001,0.003 0.004,0.005 0.006,0.008 z m -0.023,-0.031 c -0.002,-0.002 -0.004,-0.004 -0.006,-0.008 10e-4,0.003 0.003,0.005 0.006,0.008 z m -0.025,-0.032 c -0.002,-0.002 -0.003,-0.004 -0.005,-0.006 0.002,10e-4 0.005,0.004 0.005,0.006 z"
     fill="#200014"
     id="path317" />
  <path
     fill-rule="evenodd"
     clip-rule="evenodd"
     d="m 54.213993,20.651082 c -0.003,-0.004 -0.007,-0.009 -0.01,-0.014 -0.628,-0.916 -1.255,-1.83 -1.615,-2.311 -0.25,-0.333 -0.372,-0.459 -0.601,-0.459 -0.103,0 -0.227,0.025 -0.395,0.069 -0.242,0.063 -0.575,0.165 -0.936,0.24 -0.316,-1.376 -0.772,-2.739 -1.376,-4.076 0.096,-0.091 0.168,-0.215 0.211,-0.382 0.169,-0.649 -0.091,-1.939 -0.355,-3.237 -0.003,-0.017 -0.006,-0.031 -0.009,-0.046 0.151,0.191 0.301,0.385 0.447,0.58 0.002,0.002 0.003,0.004 0.005,0.006 0.006,0.008 0.012,0.016 0.018,0.024 0.002,0.003 0.004,0.005 0.006,0.008 0.006,0.008 0.012,0.017 0.017,0.023 0.002,0.003 0.004,0.005 0.006,0.008 0.018,0.024 0.036,0.048 0.055,0.073 0.004,0.004 0.006,0.008 0.009,0.013 0.005,0.006 0.009,0.012 0.014,0.018 0.003,0.005 0.007,0.01 0.01,0.015 0.005,0.006 0.009,0.011 0.013,0.018 0.004,0.005 0.008,0.01 0.012,0.015 0.004,0.006 0.008,0.011 0.012,0.017 0.005,0.006 0.009,0.012 0.014,0.018 0.003,0.005 0.007,0.01 0.01,0.015 0.008,0.01 0.016,0.021 0.024,0.032 0.002,0.003 0.004,0.006 0.007,0.009 0.006,0.008 0.012,0.016 0.017,0.025 0.003,0.003 0.006,0.007 0.008,0.01 0.006,0.008 0.012,0.016 0.018,0.024 0.002,0.003 0.004,0.007 0.007,0.01 0.006,0.009 0.012,0.017 0.018,0.025 0.002,0.003 0.005,0.007 0.006,0.009 0.008,0.01 0.015,0.021 0.022,0.031 l 0.003,0.003 c 0.016,0.023 0.033,0.047 0.05,0.07 10e-4,0.002 0.002,0.003 0.002,0.005 0.008,0.01 0.015,0.02 0.023,0.03 0.001,0.002 0.003,0.004 0.004,0.006 0.007,0.01 0.015,0.02 0.022,0.03 0,0 0.002,0.003 0.003,0.005 0.034,0.047 0.067,0.095 0.101,0.142 l 10e-4,0.002 c 0.008,0.012 0.017,0.024 0.025,0.036 0.688,0.985 1.313,2.016 1.869,3.09 0.028,0.052 0.055,0.105 0.082,0.158 l 0.001,0.003 c 0.006,0.012 0.012,0.024 0.018,0.036 0,0 0.002,0.002 0.003,0.004 0.006,0.012 0.012,0.025 0.018,0.037 l 0.001,0.001 c 0.013,0.027 0.027,0.053 0.04,0.08 l 10e-4,0.002 c 0.006,0.011 0.012,0.023 0.018,0.035 0.001,0.003 0.002,0.005 0.004,0.008 0.005,0.01 0.01,0.02 0.015,0.03 0.001,0.003 0.003,0.006 0.004,0.009 0.005,0.01 0.011,0.021 0.016,0.031 10e-4,0.002 0.002,0.005 0.003,0.007 0.013,0.026 0.026,0.052 0.038,0.077 0.001,0.002 0.003,0.004 0.004,0.007 0.005,0.01 0.01,0.021 0.015,0.031 0.002,0.004 0.003,0.007 0.005,0.011 0.005,0.009 0.009,0.018 0.013,0.026 0.002,0.005 0.004,0.009 0.006,0.013 0.005,0.009 0.009,0.017 0.013,0.026 0.002,0.004 0.004,0.008 0.006,0.012 0.004,0.01 0.009,0.02 0.014,0.029 0.002,0.004 0.003,0.006 0.004,0.009 0.006,0.013 0.012,0.025 0.018,0.037 0.002,0.004 0.004,0.008 0.006,0.012 0.004,0.008 0.008,0.017 0.012,0.025 0.002,0.005 0.005,0.011 0.007,0.016 0.004,0.007 0.007,0.014 0.011,0.021 0.003,0.005 0.005,0.011 0.008,0.016 0.003,0.007 0.006,0.014 0.01,0.021 0.002,0.006 0.005,0.012 0.008,0.017 0.003,0.007 0.007,0.015 0.01,0.022 0.003,0.006 0.005,0.01 0.008,0.016 0.005,0.011 0.011,0.023 0.016,0.034 0.003,0.007 0.006,0.013 0.009,0.02 0.003,0.006 0.006,0.012 0.009,0.018 0.003,0.007 0.006,0.014 0.01,0.021 0.002,0.005 0.004,0.01 0.007,0.015 0.003,0.007 0.007,0.015 0.01,0.022 0.002,0.005 0.004,0.01 0.007,0.015 0.003,0.007 0.007,0.015 0.01,0.023 0.002,0.003 0.004,0.007 0.005,0.01 0.014,0.03 0.028,0.059 0.041,0.089 0.001,0.002 0.002,0.004 0.003,0.006 0.005,0.01 0.009,0.019 0.013,0.028 10e-4,0.002 0.003,0.006 0.004,0.008 0.004,0.009 0.009,0.019 0.013,0.028 0.001,0.003 0.002,0.005 0.003,0.008 0.005,0.01 0.009,0.019 0.015,0.029 v 0.001 c 0.02,0.046 0.041,0.09 0.061,0.136 l 0.001,0.001 c 0.005,0.011 0.009,0.021 0.015,0.033 v 0.002 c 0.621,1.39 1.129,2.839 1.516,4.339 z"
     fill="#492220"
     id="path319" />
  <path
     fill-rule="evenodd"
     clip-rule="evenodd"
     d="m 11.227993,17.903982 c -1.377,0 -2.48401,-0.332 -3.16301,-1.018 0.021,-0.063 0.044,-0.127 0.069,-0.192 0.328,-0.843 1.03102,-1.827 1.17202,-2.577 0.14,-0.749 -0.28201,-1.265 -0.72701,-1.288 -0.01,-10e-4 -0.02,-10e-4 -0.032,-10e-4 -0.271,0 -0.55101,0.178 -0.84001,0.428 0.512,-1.328 1.54402,-2.802 2.97601,-4.24599 -0.072,0.212 -0.128,0.4 -0.159,0.53899 -0.068,0.307 -0.012,0.366 0.132,0.366 0.054,0 0.12,-0.008 0.196,-0.015 0.065,-0.005 0.138,-0.009 0.215,-0.009 0.256,0 0.564,0.045 0.816,0.243 0.328,0.258 0.562,0.774 0.656,1.242 0.094,0.469 0.047,0.89 -0.047,1.359 -0.094,0.469 -0.234,0.984 -0.047,1.242 0.123,0.169 0.388,0.227 0.675,0.227 0.148,0 0.305,-0.016 0.45,-0.04 0.421,-0.07 0.749,-0.211 1.124,-0.726 0.375,-0.515 0.797,-1.406 1.078,-2.132 0.281,-0.726 0.422,-1.289 0.797,-1.57 0.374,-0.28099 0.984,-0.28099 1.639,-0.30399 0.656,-0.024 1.359,-0.07099 1.476,-0.49199 0.118,-0.422 -0.351,-1.21901 -0.984,-1.68701 -0.632,-0.469 -1.429,-0.60899 -1.991,-0.86699 -0.562,-0.258 -0.89,-0.632 -1.031,-1.101 -0.01,-0.034 -0.019,-0.069 -0.028,-0.104 0.329,-0.196 0.658,-0.38201 0.986,-0.55901 0.053,0.011 0.108,0.022 0.167,0.03 0.175,0.026 0.38,0.037 0.599,0.037 0.777,0 1.732,-0.138 2.189,-0.248 0.586,-0.14 0.351,-0.23399 -0.15,-0.64499 -0.114,-0.093 -0.241,-0.203 -0.373,-0.322 2.033,-0.822 3.946,-1.25 5.511,-1.25 1.492,0 2.667,0.38999 3.324,1.19799 -0.28,-0.021 -0.544,-0.042 -0.792,-0.059 -0.796,-0.055 -1.415,-0.07799 -1.952,-0.07799 -0.379,0 -0.717,0.01199 -1.047,0.03099 -0.796,0.046 -1.546,0.14101 -1.171,0.60901 0.375,0.469 1.874,1.31199 3.42,1.59299 0.502,0.092 1.009,0.12401 1.513,0.12401 0.187,0 0.373,-0.005 0.557,-0.012 -0.157,1.164 -0.825,2.514 -1.9,3.896 -0.254,-0.174 -0.868,-0.33801 -1.482,-0.37601 -0.092,-0.006 -0.184,-0.009 -0.276,-0.009 -0.654,0 -1.281,0.148 -1.692,0.47699 -0.468,0.375 -0.656,0.984 -0.398,1.289 0.258,0.304 0.96,0.304 1.101,0.632 0.098,0.228 -0.075,0.613 -0.214,1 -0.853,0.711 -1.798,1.4 -2.82,2.044 -3.436,2.165 -6.951,3.321 -9.522,3.321 z"
     fill="#fda568"
     id="path321" />
  <path
     fill-rule="evenodd"
     clip-rule="evenodd"
     d="m 8.064993,16.885982 c -0.125,-0.127 -0.23601,-0.266 -0.33201,-0.417 -0.532,-0.845 -0.508,-1.965 -0.026,-3.213 0.289,-0.25 0.56902,-0.428 0.84002,-0.428 0.011,0 0.02199,0 0.03199,10e-4 0.445,0.023 0.86701,0.539 0.72701,1.288 -0.141,0.75 -0.84401,1.734 -1.17201,2.577 -0.025,0.065 -0.048,0.129 -0.069,0.192 z"
     fill="#a17160"
     id="path323" />
  <path
     fill-rule="evenodd"
     clip-rule="evenodd"
     d="m 13.119993,14.203982 c -0.287,0 -0.552,-0.058 -0.675,-0.227 -0.187,-0.258 -0.047,-0.773 0.047,-1.242 0.094,-0.469 0.141,-0.89 0.047,-1.359 -0.094,-0.468 -0.328,-0.984 -0.656,-1.242 -0.252,-0.198 -0.56,-0.243 -0.816,-0.243 -0.077,0 -0.15,0.004 -0.215,0.009 -0.076,0.007 -0.142,0.015 -0.196,0.015 -0.144,0 -0.2,-0.059 -0.132,-0.366 0.031,-0.13899 0.087,-0.32699 0.159,-0.53899 1.199,-1.21 2.68,-2.399 4.374,-3.466 0.197,-0.125 0.395,-0.24599 0.593,-0.36299 0.009,0.035 0.018,0.07 0.028,0.104 0.141,0.469 0.469,0.843 1.031,1.101 0.562,0.258 1.359,0.39799 1.991,0.86699 0.633,0.468 1.102,1.26501 0.984,1.68701 -0.117,0.421 -0.82,0.46799 -1.476,0.49199 -0.655,0.023 -1.265,0.023 -1.639,0.30399 -0.375,0.281 -0.516,0.844 -0.797,1.57 -0.281,0.726 -0.703,1.617 -1.078,2.132 -0.375,0.515 -0.703,0.656 -1.124,0.726 -0.145,0.024 -0.302,0.04 -0.45,0.04 z m 4.282,-9.51499 c -0.219,0 -0.424,-0.011 -0.599,-0.037 -0.059,-0.008 -0.114,-0.019 -0.167,-0.03 0.82,-0.442 1.635,-0.82499 2.432,-1.14799 0.132,0.119 0.259,0.229 0.373,0.322 0.501,0.411 0.736,0.50499 0.15,0.64499 -0.457,0.11 -1.413,0.248 -2.189,0.248 z"
     fill="#a17160"
     id="path325" />
  <path
     fill-rule="evenodd"
     clip-rule="evenodd"
     d="m 27.872993,5.643002 c -0.504,0 -1.011,-0.03199 -1.513,-0.12399 -1.546,-0.281 -3.045,-1.124 -3.42,-1.593 -0.375,-0.468 0.375,-0.562 1.171,-0.609 0.33,-0.019 0.668,-0.031 1.047,-0.031 0.537,0 1.156,0.023 1.952,0.078 0.248,0.017 0.512,0.03801 0.792,0.05901 0.061,0.075 0.118,0.154 0.17,0.237 0.348,0.553 0.459,1.224 0.358,1.972 -0.184,0.006 -0.37,0.01098 -0.557,0.01098 z"
     fill="#a17160"
     id="path327" />
  <path
     fill-rule="evenodd"
     clip-rule="evenodd"
     d="m 23.569993,12.539982 c 0.139,-0.387 0.312,-0.772 0.214,-1 -0.14,-0.328 -0.843,-0.328 -1.101,-0.632 -0.258,-0.305 -0.07,-0.914 0.398,-1.289 0.411,-0.32901 1.038,-0.47701 1.692,-0.47701 0.092,0 0.184,0.003 0.276,0.009 0.614,0.038 1.228,0.20199 1.482,0.37599 -0.784,1.00702 -1.785,2.03102 -2.961,3.01302 z"
     fill="#a17160"
     id="path329" />
</svg>
