<svg width="56" height="79" viewBox="0 0 56 79" fill="none" xmlns="http://www.w3.org/2000/svg">
<path fill-rule="evenodd" clip-rule="evenodd" d="M27.696 55.55C42.865 55.55 55.237 43.178 55.237 28.009C55.237 12.84 42.865 0.468018 27.696 0.468018C12.526 0.468018 0.154007 12.84 0.154007 28.009C0.154007 43.178 12.526 55.55 27.696 55.55Z" fill="#FA8E45"/>
<path fill-rule="evenodd" clip-rule="evenodd" d="M12.294 20.302C11.521 20.677 11.053 20.536 10.397 20.302C9.74101 20.067 8.897 19.74 8.452 19.224C8.007 18.709 7.96 18.006 8.288 17.162C8.616 16.319 9.31901 15.3351 9.46001 14.5851C9.60001 13.8361 9.178 13.32 8.733 13.297C8.288 13.273 7.82001 13.742 7.32801 14.234C6.83601 14.726 6.32001 15.241 5.83501 15.081C5.34901 14.921 4.893 14.086 5.551 12.647C6.208 11.207 7.978 9.16304 9.748 7.11804C4.753 11.412 1.316 17.468 0.399005 24.323C0.340005 24.923 0.27801 25.5231 0.57001 25.5011C0.86201 25.4791 1.506 24.8351 2.319 24.4901C3.133 24.1441 4.117 24.0971 4.75 24.3781C5.382 24.6601 5.663 25.269 5.804 25.831C5.944 26.393 5.94401 26.909 5.89701 27.33C5.85101 27.752 5.757 28.081 5.476 28.431C5.195 28.783 4.72601 29.158 4.11701 29.696C3.50801 30.235 2.75801 30.9381 2.45301 31.4771C2.14901 32.0151 2.29001 32.39 2.47701 32.625C2.66401 32.859 2.89901 32.953 3.22701 33.14C3.55501 33.328 3.976 33.609 4.304 34.054C4.632 34.499 4.86701 35.108 4.79601 35.741C4.72601 36.374 4.351 37.029 4.14 37.545C3.93 38.06 3.883 38.435 4.14 38.927C4.398 39.419 4.96 40.028 5.476 40.567C5.991 41.106 6.46 41.5751 6.881 42.1841C7.303 42.7931 7.67801 43.543 7.93801 43.808C8.09001 43.964 8.202 43.9541 8.303 43.9451C8.374 43.9381 8.439 43.932 8.508 43.984C8.674 44.11 8.861 44.578 9.064 45.107C9.266 45.635 9.484 46.223 9.763 46.659C10.042 47.096 10.383 47.38 10.813 47.461C11.243 47.542 11.763 47.419 12.629 47.7C13.496 47.981 14.711 48.667 15.458 49.478C16.206 50.289 16.487 51.226 16.823 51.963C17.158 52.699 17.548 53.235 18.016 52.883C18.485 52.532 19.032 51.2931 19.681 50.5571C20.329 49.8201 21.079 49.5861 21.548 48.9081C22.016 48.2281 22.204 47.103 22.039 46.002C21.875 44.901 21.36 43.8241 20.728 43.0741C20.095 42.3251 19.345 41.903 18.525 41.364C17.705 40.825 16.815 40.1691 16.651 39.2551C16.487 38.3421 17.049 37.17 18.127 36.983C19.205 36.795 20.798 37.5921 22.344 37.6151C23.89 37.6391 25.39 36.889 25.929 36.233C26.468 35.577 26.046 35.0151 25.343 34.7101C24.64 34.4051 23.655 34.359 22.906 34.101C22.157 33.843 21.641 33.375 21.477 32.625C21.313 31.875 21.501 30.845 21.641 29.486C21.782 28.127 21.875 26.4401 21.688 25.5031C21.501 24.5661 21.032 24.378 20.564 25.456C20.095 26.534 19.626 28.876 18.924 30.142C18.221 31.407 17.284 31.594 16.464 31.594C15.644 31.594 14.941 31.407 13.886 31.055C12.832 30.704 11.426 30.189 10.513 29.556C9.599 28.923 9.17701 28.174 9.03701 27.33C8.89601 26.487 9.03701 25.55 10.115 24.73C11.192 23.91 13.207 23.207 14.706 22.036C16.206 20.864 17.19 19.224 17.19 18.498C17.19 17.772 16.206 17.959 15.175 18.498C14.145 19.037 13.066 19.927 12.294 20.302Z" fill="#492220"/>
<path fill-rule="evenodd" clip-rule="evenodd" d="M12.599 14.445C12.787 14.702 13.302 14.702 13.724 14.632C14.145 14.562 14.473 14.421 14.848 13.906C15.223 13.391 15.645 12.5 15.926 11.774C16.207 11.048 16.348 10.485 16.723 10.204C17.097 9.92301 17.707 9.92301 18.362 9.90001C19.018 9.87601 19.721 9.82902 19.838 9.40802C19.956 8.98602 19.487 8.18901 18.854 7.72101C18.222 7.25201 17.425 7.11202 16.863 6.85402C16.301 6.59602 15.973 6.22202 15.832 5.75302C15.692 5.28402 15.738 4.72201 15.856 4.65201C15.973 4.58201 16.16 5.00301 16.957 5.12001C17.753 5.23801 19.159 5.05001 19.745 4.90901C20.331 4.76901 20.096 4.67502 19.595 4.26402C19.093 3.85202 18.324 3.12402 18.132 2.68802C17.94 2.25202 18.324 2.11002 18.708 1.96802C15.804 2.97002 13.12 4.44402 10.748 6.29802C11.048 6.07302 11.349 5.84802 11.603 5.96002C11.856 6.07202 12.064 6.52201 12.027 6.88701C11.99 7.25201 11.709 7.53302 11.404 8.11902C11.1 8.70402 10.772 9.59501 10.678 10.017C10.584 10.438 10.725 10.392 11.006 10.368C11.287 10.345 11.709 10.345 12.037 10.601C12.365 10.859 12.599 11.375 12.693 11.843C12.787 12.312 12.74 12.733 12.646 13.202C12.552 13.672 12.412 14.187 12.599 14.445Z" fill="#492220"/>
<path fill-rule="evenodd" clip-rule="evenodd" d="M31.06 5.93999C32.466 5.89299 33.684 6.08099 34.903 6.26799C36.121 6.45599 37.339 6.64398 38.37 6.73698C39.401 6.83098 40.244 6.83098 40.95 6.52098C41.656 6.20998 42.224 5.58999 42.792 4.96999C41.519 4.13399 40.173 3.40098 38.764 2.78198C36.634 3.28798 34.503 3.79498 32.501 3.95398C30.498 4.11298 28.624 3.92598 27.265 3.83098C25.906 3.73698 25.063 3.73699 24.266 3.78499C23.47 3.83099 22.72 3.92598 23.095 4.39398C23.47 4.86298 24.969 5.70598 26.515 5.98698C28.061 6.26798 29.655 5.98699 31.06 5.93999Z" fill="#492220"/>
<path fill-rule="evenodd" clip-rule="evenodd" d="M48.022 14.7491C47.178 14.6561 46.1 14.4681 45.257 14.5851C44.413 14.7021 43.804 15.1241 43.828 15.5931C43.851 16.0611 44.507 16.5771 45.257 16.8341C46.007 17.0921 46.85 17.0921 47.53 17.4441C48.209 17.7951 48.724 18.4981 49.474 18.6851C50.224 18.8731 51.208 18.5451 51.746 18.4041C52.285 18.2631 52.379 18.3101 52.742 18.7941C53.104 19.2781 53.736 20.1991 54.367 21.1201C53.393 17.3391 51.637 13.8721 49.281 10.9031C49.548 12.2171 49.816 13.5301 49.645 14.1861C49.475 14.8431 48.866 14.8431 48.022 14.7491Z" fill="#492220"/>
<path fill-rule="evenodd" clip-rule="evenodd" d="M26.42 12.008C26.327 11.54 26.046 11.118 26.186 10.813C26.327 10.509 26.889 10.321 26.795 10.111C26.702 9.89999 25.952 9.665 25.202 9.619C24.453 9.572 23.703 9.712 23.234 10.087C22.766 10.462 22.578 11.071 22.836 11.376C23.094 11.68 23.796 11.68 23.937 12.008C24.078 12.336 23.656 12.992 23.586 13.508C23.515 14.023 23.796 14.398 24.312 14.374C24.827 14.351 25.577 13.929 25.999 13.461C26.42 12.992 26.515 12.477 26.42 12.008Z" fill="#492220"/>
<path fill-rule="evenodd" clip-rule="evenodd" d="M28.436 20.044C27.734 19.575 26.75 19.388 25.93 19.294C25.11 19.201 24.454 19.201 23.985 19.341C23.517 19.482 23.235 19.763 23.212 20.278C23.189 20.794 23.422 21.543 23.212 22.012C23.001 22.481 22.345 22.668 22.205 23.043C22.064 23.418 22.439 23.98 23.025 24.285C23.61 24.589 24.407 24.636 25.25 24.659C26.094 24.683 26.984 24.683 27.687 24.495C28.39 24.307 28.905 23.932 29.257 23.488C29.608 23.043 29.795 22.527 29.678 21.895C29.561 21.262 29.139 20.513 28.436 20.044Z" fill="#492220"/>
<path fill-rule="evenodd" clip-rule="evenodd" d="M27.696 55.55C27.682 55.55 27.668 55.55 27.654 55.55C27.667 55.55 27.682 55.55 27.696 55.55C42.865 55.55 55.237 43.178 55.237 28.009C55.237 43.22 42.906 55.55 27.696 55.55ZM27.643 55.55C27.632 55.55 27.623 55.55 27.612 55.55C27.622 55.55 27.631 55.55 27.643 55.55ZM27.56 55.55C15.203 55.49 4.76799 47.291 1.34399 36.039C1.35699 36.074 1.37 36.108 1.383 36.142C4.854 47.321 15.279 55.49 27.56 55.55ZM55.237 27.953C55.237 27.943 55.237 27.934 55.237 27.923C55.237 27.933 55.237 27.943 55.237 27.953ZM55.235 27.911C55.235 27.9 55.235 27.891 55.235 27.88C55.235 27.89 55.235 27.9 55.235 27.911ZM55.235 27.869C55.235 27.857 55.235 27.847 55.235 27.835C55.235 27.847 55.235 27.858 55.235 27.869ZM55.235 27.827C55.235 27.813 55.235 27.801 55.235 27.787C55.235 27.8 55.235 27.814 55.235 27.827ZM55.235 27.787C55.216 25.483 54.912 23.245 54.357 21.105C54.36 21.11 54.363 21.115 54.367 21.119C54.916 23.253 55.218 25.486 55.235 27.787Z" fill="#200014"/>
<path fill-rule="evenodd" clip-rule="evenodd" d="M27.696 55.5501C27.682 55.5501 27.668 55.5501 27.654 55.5501C27.651 55.5501 27.646 55.5501 27.643 55.5501C27.632 55.5501 27.622 55.5501 27.612 55.5501C27.608 55.5501 27.604 55.5501 27.601 55.5501C27.59 55.5501 27.578 55.5501 27.566 55.5501C27.564 55.5501 27.562 55.5501 27.56 55.5501C15.279 55.4901 4.854 47.3211 1.383 36.1421C2.657 39.4321 3.962 42.7171 8.263 45.5451C8.709 45.8381 9.158 46.1191 9.605 46.3851C9.656 46.4811 9.70901 46.5741 9.76401 46.6601C10.043 47.0971 10.384 47.3811 10.814 47.4621C11.055 47.5071 11.324 47.4891 11.666 47.5131C12.705 48.0331 13.741 48.4811 14.776 48.8611C15.026 49.0541 15.259 49.2621 15.459 49.4791C16.207 50.2901 16.488 51.2271 16.824 51.9641C17.087 52.5411 17.383 52.9951 17.724 52.9951C17.818 52.9951 17.916 52.9601 18.017 52.8841C18.486 52.5331 19.033 51.2941 19.682 50.5581C19.791 50.4351 19.902 50.3251 20.015 50.2261C21.353 50.4331 22.679 50.5341 23.982 50.5341C40.856 50.5341 54.296 33.8091 50.811 18.6451C51.172 18.5701 51.505 18.4681 51.747 18.4051C51.915 18.3611 52.039 18.3361 52.142 18.3361C52.371 18.3361 52.493 18.4621 52.743 18.7951C53.103 19.2761 53.73 20.1901 54.358 21.1061C54.913 23.2451 55.217 25.4841 55.236 27.7881C55.236 27.8021 55.236 27.8141 55.236 27.8281C55.236 27.8311 55.236 27.8331 55.236 27.8361C55.236 27.8481 55.236 27.8581 55.236 27.8701C55.236 27.8741 55.236 27.8771 55.236 27.8811C55.236 27.8921 55.236 27.9011 55.236 27.9121C55.237 27.9161 55.237 27.9201 55.237 27.9241C55.237 27.9351 55.237 27.9441 55.237 27.9541C55.237 27.9581 55.237 27.9641 55.237 27.9681C55.237 27.9821 55.237 27.9961 55.237 28.0101C55.237 43.1781 42.865 55.5501 27.696 55.5501Z" fill="#9F5B36"/>
<path fill-rule="evenodd" clip-rule="evenodd" d="M17.724 52.995C17.383 52.995 17.087 52.541 16.824 51.964C16.488 51.227 16.207 50.29 15.459 49.479C15.259 49.262 15.026 49.054 14.776 48.861C16.537 49.508 18.287 49.957 20.015 50.225C19.902 50.325 19.791 50.434 19.682 50.557C19.033 51.293 18.486 52.532 18.017 52.883C17.915 52.96 17.818 52.995 17.724 52.995ZM11.665 47.513C11.323 47.489 11.054 47.507 10.813 47.462C10.383 47.381 10.042 47.097 9.763 46.66C9.708 46.574 9.655 46.481 9.604 46.385C10.292 46.794 10.979 47.168 11.665 47.513Z" fill="#492220"/>
<path fill-rule="evenodd" clip-rule="evenodd" d="M52.851 16.781C52.851 16.78 52.851 16.779 52.851 16.779V16.781ZM52.836 16.746C52.836 16.745 52.835 16.745 52.835 16.745L52.836 16.746ZM52.759 16.579C52.758 16.576 52.757 16.574 52.756 16.571C52.757 16.574 52.759 16.576 52.759 16.579ZM52.634 16.306C52.631 16.3 52.628 16.294 52.625 16.288C52.628 16.294 52.63 16.3 52.634 16.306ZM52.592 16.218C52.589 16.211 52.585 16.203 52.582 16.196C52.584 16.203 52.588 16.211 52.592 16.218ZM52.556 16.142C52.552 16.134 52.549 16.127 52.545 16.121C52.549 16.127 52.553 16.135 52.556 16.142ZM52.52 16.067C52.514 16.055 52.508 16.043 52.502 16.03C52.507 16.042 52.514 16.055 52.52 16.067ZM52.477 15.98C52.473 15.971 52.469 15.963 52.464 15.954C52.47 15.963 52.474 15.971 52.477 15.98ZM52.458 15.941C52.454 15.933 52.45 15.924 52.445 15.915C52.45 15.924 52.455 15.933 52.458 15.941ZM52.421 15.866C52.409 15.841 52.396 15.815 52.383 15.789C52.396 15.815 52.41 15.84 52.421 15.866ZM52.38 15.782C52.375 15.772 52.369 15.761 52.364 15.751C52.371 15.762 52.375 15.772 52.38 15.782ZM52.361 15.742C52.356 15.732 52.351 15.722 52.346 15.712C52.351 15.723 52.355 15.732 52.361 15.742ZM52.342 15.704C52.336 15.692 52.33 15.681 52.324 15.669C52.33 15.68 52.336 15.692 52.342 15.704ZM52.282 15.586C52.276 15.574 52.27 15.561 52.264 15.549C52.27 15.561 52.275 15.574 52.282 15.586ZM52.261 15.545C52.255 15.533 52.249 15.521 52.243 15.509C52.248 15.521 52.254 15.533 52.261 15.545ZM52.16 15.348C51.604 14.274 50.979 13.243 50.291 12.258C50.979 13.243 51.604 14.275 52.16 15.348ZM49.29 10.949C47.454 8.63104 45.254 6.61302 42.778 4.98402C42.782 4.98002 42.787 4.97503 42.791 4.97003C42.493 4.77403 42.191 4.58402 41.885 4.40002C44.725 6.11002 47.229 8.31803 49.281 10.903C49.285 10.918 49.288 10.933 49.29 10.949Z" fill="#200014"/>
<path fill-rule="evenodd" clip-rule="evenodd" d="M49.435 14.568C47.97 11.333 45.632 8.25401 42.274 5.52301C42.445 5.34901 42.612 5.16701 42.779 4.98401C45.255 6.61301 47.455 8.63102 49.291 10.949C49.555 12.247 49.815 13.536 49.646 14.186C49.602 14.353 49.531 14.477 49.435 14.568Z" fill="#9F5B36"/>
<path fill-rule="evenodd" clip-rule="evenodd" d="M41.885 4.39896C41.875 4.39396 41.864 4.38796 41.856 4.38196C41.864 4.38796 41.874 4.39396 41.885 4.39896ZM41.852 4.38095C41.843 4.37495 41.834 4.36895 41.824 4.36395C41.833 4.36895 41.844 4.37495 41.852 4.38095ZM41.823 4.36195C41.813 4.35695 41.804 4.35095 41.795 4.34595C41.805 4.35095 41.813 4.35595 41.823 4.36195ZM41.79 4.34296C41.781 4.33796 41.772 4.33295 41.763 4.32695C41.772 4.33195 41.781 4.33796 41.79 4.34296ZM41.727 4.30595C41.719 4.30095 41.71 4.29595 41.702 4.29095C41.712 4.29595 41.719 4.30095 41.727 4.30595ZM41.665 4.26796C41.657 4.26396 41.649 4.25895 41.641 4.25395C41.648 4.25895 41.656 4.26296 41.665 4.26796ZM41.633 4.24995C41.625 4.24495 41.617 4.24095 41.61 4.23595C41.618 4.24095 41.625 4.24495 41.633 4.24995ZM41.602 4.23195C41.594 4.22695 41.586 4.22195 41.577 4.21695C41.585 4.22195 41.595 4.22695 41.602 4.23195ZM41.574 4.21495C41.565 4.20995 41.556 4.20496 41.547 4.19896C41.556 4.20496 41.564 4.20995 41.574 4.21495ZM41.541 4.19595C41.522 4.18495 41.503 4.17395 41.484 4.16295C41.504 4.17395 41.522 4.18495 41.541 4.19595ZM41.483 4.16196C41.443 4.13896 41.403 4.11596 41.362 4.09296C41.402 4.11596 41.443 4.13896 41.483 4.16196ZM41.296 4.05495C41.289 4.05095 41.281 4.04696 41.273 4.04196C41.282 4.04596 41.29 4.05095 41.296 4.05495ZM41.266 4.03696C41.258 4.03296 41.251 4.02895 41.244 4.02495C41.25 4.02895 41.258 4.03296 41.266 4.03696ZM41.233 4.01895C41.226 4.01595 41.218 4.01096 41.212 4.00696C41.22 4.01096 41.226 4.01495 41.233 4.01895ZM41.169 3.98395C41.162 3.97995 41.155 3.97595 41.148 3.97195C41.157 3.97595 41.163 3.97895 41.169 3.98395ZM41.139 3.96596C41.132 3.96196 41.125 3.95795 41.118 3.95395C41.124 3.95795 41.131 3.96196 41.139 3.96596ZM41.106 3.94795C41.099 3.94395 41.092 3.93896 41.085 3.93596C41.093 3.93996 41.1 3.94395 41.106 3.94795ZM41.044 3.91295C41.036 3.90895 41.029 3.90496 41.022 3.90096C41.029 3.90496 41.037 3.90895 41.044 3.91295ZM41.012 3.89496C41.005 3.89096 40.998 3.88695 40.99 3.88295C40.998 3.88695 41.004 3.89096 41.012 3.89496ZM40.979 3.87796C40.972 3.87396 40.964 3.86995 40.957 3.86595C40.966 3.86995 40.973 3.87396 40.979 3.87796ZM40.949 3.86095C40.942 3.85595 40.934 3.85196 40.926 3.84796C40.934 3.85196 40.941 3.85695 40.949 3.86095ZM40.917 3.84395C40.909 3.83895 40.901 3.83496 40.893 3.82996C40.901 3.83496 40.91 3.83895 40.917 3.84395ZM40.887 3.82695C40.879 3.82195 40.871 3.81796 40.862 3.81296C40.87 3.81696 40.878 3.82195 40.887 3.82695ZM40.854 3.80896C40.846 3.80496 40.837 3.79995 40.829 3.79495C40.837 3.79995 40.847 3.80496 40.854 3.80896ZM40.795 3.77695C40.133 3.41895 39.456 3.08695 38.763 2.78195C38.757 2.78395 38.75 2.78596 38.743 2.78696C36.715 1.89396 34.561 1.23895 32.316 0.856949C32.301 0.852949 32.286 0.849947 32.271 0.845947C35.31 1.35395 38.181 2.35995 40.795 3.77695Z" fill="#200014"/>
<path fill-rule="evenodd" clip-rule="evenodd" d="M38.348 2.88106C36.181 1.75706 34.248 1.30406 32.317 0.857056C34.562 1.23906 36.716 1.89406 38.744 2.78706C38.611 2.81906 38.479 2.85006 38.348 2.88106Z" fill="#9F5B36"/>
<path fill-rule="evenodd" clip-rule="evenodd" d="M42.273 5.52298C41.856 5.18398 41.423 4.84998 40.975 4.52098C40.055 3.84898 39.184 3.31498 38.347 2.88098C38.479 2.84998 38.611 2.81899 38.743 2.78699C38.75 2.78599 38.757 2.78398 38.763 2.78198C39.456 3.08698 40.133 3.41898 40.795 3.77698L40.797 3.77798C40.806 3.78298 40.816 3.78798 40.825 3.79298C40.825 3.79298 40.827 3.79498 40.829 3.79498C40.837 3.79998 40.846 3.80499 40.854 3.80899C40.857 3.81099 40.859 3.81199 40.861 3.81299C40.87 3.81799 40.878 3.82198 40.886 3.82698C40.888 3.82798 40.891 3.82899 40.893 3.82999C40.901 3.83499 40.909 3.83898 40.917 3.84398C40.92 3.84498 40.922 3.84599 40.925 3.84799C40.933 3.85199 40.941 3.85598 40.948 3.86098C40.951 3.86198 40.954 3.86398 40.957 3.86598C40.964 3.86998 40.972 3.87399 40.979 3.87799C40.983 3.87999 40.986 3.88098 40.989 3.88298C40.997 3.88698 41.004 3.89099 41.011 3.89499C41.014 3.89699 41.018 3.89899 41.021 3.90099C41.028 3.90499 41.035 3.90898 41.043 3.91298C41.046 3.91498 41.05 3.91699 41.053 3.91899C41.06 3.92299 41.067 3.92598 41.074 3.92998C41.078 3.93198 41.082 3.93399 41.085 3.93599C41.092 3.93999 41.099 3.94398 41.106 3.94798C41.11 3.94998 41.113 3.95198 41.117 3.95398C41.124 3.95798 41.131 3.96199 41.138 3.96599C41.141 3.96799 41.145 3.96998 41.148 3.97198C41.155 3.97598 41.162 3.97998 41.169 3.98398C41.173 3.98598 41.177 3.98799 41.18 3.98999C41.187 3.99399 41.194 3.99798 41.201 4.00198C41.205 4.00298 41.208 4.00499 41.211 4.00699C41.217 4.01099 41.226 4.01498 41.232 4.01898C41.235 4.02098 41.238 4.02298 41.242 4.02498C41.249 4.02898 41.256 4.03299 41.264 4.03699C41.267 4.03899 41.269 4.04099 41.272 4.04199C41.28 4.04699 41.288 4.05098 41.295 4.05498C41.298 4.05698 41.301 4.05798 41.303 4.05998C41.311 4.06398 41.319 4.06899 41.327 4.07399C41.327 4.07399 41.33 4.07499 41.332 4.07599C41.341 4.08099 41.35 4.08599 41.358 4.09099C41.36 4.09199 41.36 4.09299 41.36 4.09299C41.402 4.11599 41.441 4.13899 41.481 4.16199L41.482 4.16298C41.501 4.17398 41.52 4.18498 41.539 4.19598C41.541 4.19698 41.542 4.19799 41.544 4.19899C41.553 4.20499 41.562 4.20998 41.571 4.21498L41.575 4.21698C41.584 4.22198 41.592 4.22698 41.6 4.23198C41.603 4.23398 41.604 4.23398 41.607 4.23598C41.615 4.24098 41.623 4.24498 41.63 4.24998C41.632 4.25098 41.635 4.25298 41.637 4.25398C41.645 4.25898 41.653 4.26399 41.661 4.26799C41.663 4.26999 41.666 4.27098 41.669 4.27298C41.677 4.27798 41.685 4.28199 41.693 4.28699C41.695 4.28799 41.697 4.28999 41.699 4.29099C41.707 4.29599 41.716 4.30098 41.724 4.30598C41.726 4.30598 41.728 4.30798 41.73 4.30798C41.738 4.31298 41.747 4.31798 41.756 4.32298C41.758 4.32498 41.758 4.32499 41.76 4.32599C41.769 4.33199 41.778 4.33698 41.787 4.34198L41.791 4.34499C41.8 4.34899 41.809 4.35598 41.819 4.36098L41.821 4.36299C41.831 4.36799 41.84 4.37399 41.849 4.37999C41.851 4.37999 41.85 4.37998 41.852 4.38098C41.861 4.38698 41.871 4.39298 41.881 4.39798L41.882 4.39899C42.188 4.58299 42.49 4.77298 42.788 4.96898C42.784 4.97398 42.779 4.97899 42.775 4.98299C42.612 5.16699 42.444 5.34898 42.273 5.52298Z" fill="#492220"/>
<path fill-rule="evenodd" clip-rule="evenodd" d="M50.29 12.258C50.282 12.246 50.273 12.234 50.265 12.222C50.273 12.234 50.283 12.246 50.29 12.258ZM50.265 12.22C50.231 12.173 50.198 12.125 50.164 12.078C50.197 12.126 50.23 12.172 50.265 12.22ZM50.161 12.073C50.154 12.063 50.146 12.053 50.139 12.043C50.145 12.053 50.154 12.063 50.161 12.073ZM50.135 12.037C50.128 12.027 50.121 12.016 50.112 12.007C50.121 12.017 50.127 12.027 50.135 12.037ZM50.057 11.929C50.05 11.919 50.043 11.908 50.035 11.898C50.042 11.909 50.05 11.918 50.057 11.929ZM50.029 11.889C50.023 11.881 50.017 11.873 50.011 11.864C50.017 11.873 50.022 11.88 50.029 11.889ZM49.845 11.638C49.842 11.633 49.839 11.629 49.836 11.625C49.837 11.629 49.841 11.634 49.845 11.638ZM49.781 11.552C49.779 11.549 49.777 11.547 49.775 11.544C49.776 11.547 49.779 11.549 49.781 11.552ZM49.758 11.521C49.756 11.519 49.754 11.517 49.752 11.513C49.753 11.516 49.755 11.518 49.758 11.521ZM49.733 11.489C49.731 11.487 49.73 11.485 49.728 11.483C49.73 11.484 49.733 11.487 49.733 11.489Z" fill="#200014"/>
<path fill-rule="evenodd" clip-rule="evenodd" d="M54.368 21.1191C54.365 21.1151 54.361 21.1101 54.358 21.1051C53.73 20.1891 53.103 19.2751 52.743 18.7941C52.493 18.4611 52.371 18.3351 52.142 18.3351C52.039 18.3351 51.915 18.3601 51.747 18.4041C51.505 18.4671 51.172 18.5691 50.811 18.6441C50.495 17.2681 50.039 15.9051 49.435 14.5681C49.531 14.4771 49.603 14.3531 49.646 14.1861C49.815 13.5371 49.555 12.2471 49.291 10.9491C49.288 10.9321 49.285 10.9181 49.282 10.9031C49.433 11.0941 49.583 11.2881 49.729 11.4831C49.731 11.4851 49.732 11.4871 49.734 11.4891C49.74 11.4971 49.746 11.5051 49.752 11.5131C49.754 11.5161 49.756 11.5181 49.758 11.5211C49.764 11.5291 49.77 11.5381 49.775 11.5441C49.777 11.5471 49.779 11.5491 49.781 11.5521C49.799 11.5761 49.817 11.6001 49.836 11.6251C49.84 11.6291 49.842 11.6331 49.845 11.6381C49.85 11.6441 49.854 11.6501 49.859 11.6561C49.862 11.6611 49.866 11.6661 49.869 11.6711C49.874 11.6771 49.878 11.6821 49.882 11.6891C49.886 11.6941 49.89 11.6991 49.894 11.7041C49.898 11.7101 49.902 11.7151 49.906 11.7211C49.911 11.7271 49.915 11.7331 49.92 11.7391C49.923 11.7441 49.927 11.7491 49.93 11.7541C49.938 11.7641 49.946 11.7751 49.954 11.7861C49.956 11.7891 49.958 11.7921 49.961 11.7951C49.967 11.8031 49.973 11.8111 49.978 11.8201C49.981 11.8231 49.984 11.8271 49.986 11.8301C49.992 11.8381 49.998 11.8461 50.004 11.8541C50.006 11.8571 50.008 11.8611 50.011 11.8641C50.017 11.8731 50.023 11.8811 50.029 11.8891C50.031 11.8921 50.034 11.8961 50.035 11.8981C50.043 11.9081 50.05 11.9191 50.057 11.9291L50.06 11.9321C50.076 11.9551 50.093 11.9791 50.11 12.0021C50.111 12.0041 50.112 12.0051 50.112 12.0071C50.12 12.0171 50.127 12.0271 50.135 12.0371C50.136 12.0391 50.138 12.0411 50.139 12.0431C50.146 12.0531 50.154 12.0631 50.161 12.0731C50.161 12.0731 50.163 12.0761 50.164 12.0781C50.198 12.1251 50.231 12.1731 50.265 12.2201L50.266 12.2221C50.274 12.2341 50.283 12.2461 50.291 12.2581C50.979 13.2431 51.604 14.2741 52.16 15.3481C52.188 15.4001 52.215 15.4531 52.242 15.5061L52.243 15.5091C52.249 15.5211 52.255 15.5331 52.261 15.5451C52.261 15.5451 52.263 15.5471 52.264 15.5491C52.27 15.5611 52.276 15.5741 52.282 15.5861L52.283 15.5871C52.296 15.6141 52.31 15.6401 52.323 15.6671L52.324 15.6691C52.33 15.6801 52.336 15.6921 52.342 15.7041C52.343 15.7071 52.344 15.7091 52.346 15.7121C52.351 15.7221 52.356 15.7321 52.361 15.7421C52.362 15.7451 52.364 15.7481 52.365 15.7511C52.37 15.7611 52.376 15.7721 52.381 15.7821C52.382 15.7841 52.383 15.7871 52.384 15.7891C52.397 15.8151 52.41 15.8411 52.422 15.8661C52.423 15.8681 52.425 15.8701 52.426 15.8731C52.431 15.8831 52.436 15.8941 52.441 15.9041C52.443 15.9081 52.444 15.9111 52.446 15.9151C52.451 15.9241 52.455 15.9331 52.459 15.9411C52.461 15.9461 52.463 15.9501 52.465 15.9541C52.47 15.9631 52.474 15.9711 52.478 15.9801C52.48 15.9841 52.482 15.9881 52.484 15.9921C52.488 16.0021 52.493 16.0121 52.498 16.0211C52.5 16.0251 52.501 16.0271 52.502 16.0301C52.508 16.0431 52.514 16.0551 52.52 16.0671C52.522 16.0711 52.524 16.0751 52.526 16.0791C52.53 16.0871 52.534 16.0961 52.538 16.1041C52.54 16.1091 52.543 16.1151 52.545 16.1201C52.549 16.1271 52.552 16.1341 52.556 16.1411C52.559 16.1461 52.561 16.1521 52.564 16.1571C52.567 16.1641 52.57 16.1711 52.574 16.1781C52.576 16.1841 52.579 16.1901 52.582 16.1951C52.585 16.2021 52.589 16.2101 52.592 16.2171C52.595 16.2231 52.597 16.2271 52.6 16.2331C52.605 16.2441 52.611 16.2561 52.616 16.2671C52.619 16.2741 52.622 16.2801 52.625 16.2871C52.628 16.2931 52.631 16.2991 52.634 16.3051C52.637 16.3121 52.64 16.3191 52.644 16.3261C52.646 16.3311 52.648 16.3361 52.651 16.3411C52.654 16.3481 52.658 16.3561 52.661 16.3631C52.663 16.3681 52.665 16.3731 52.668 16.3781C52.671 16.3851 52.675 16.3931 52.678 16.4011C52.68 16.4041 52.682 16.4081 52.683 16.4111C52.697 16.4411 52.711 16.4701 52.724 16.5001C52.725 16.5021 52.726 16.5041 52.727 16.5061C52.732 16.5161 52.736 16.5251 52.74 16.5341C52.741 16.5361 52.743 16.5401 52.744 16.5421C52.748 16.5511 52.753 16.5611 52.757 16.5701C52.758 16.5731 52.759 16.5751 52.76 16.5781C52.765 16.5881 52.769 16.5971 52.775 16.6071V16.6081C52.795 16.6541 52.816 16.6981 52.836 16.7441L52.837 16.7451C52.842 16.7561 52.846 16.7661 52.852 16.7781V16.7801C53.473 18.1701 53.981 19.6191 54.368 21.1191Z" fill="#492220"/>
<path fill-rule="evenodd" clip-rule="evenodd" d="M11.382 18.372C10.005 18.372 8.89799 18.04 8.21899 17.354C8.23999 17.291 8.26299 17.227 8.28799 17.162C8.61599 16.319 9.31901 15.335 9.46001 14.585C9.60001 13.836 9.178 13.32 8.733 13.297C8.723 13.296 8.713 13.296 8.701 13.296C8.43 13.296 8.14999 13.474 7.86099 13.724C8.37299 12.396 9.40501 10.922 10.837 9.47801C10.765 9.69001 10.709 9.87801 10.678 10.017C10.61 10.324 10.666 10.383 10.81 10.383C10.864 10.383 10.93 10.375 11.006 10.368C11.071 10.363 11.144 10.359 11.221 10.359C11.477 10.359 11.785 10.404 12.037 10.602C12.365 10.86 12.599 11.376 12.693 11.844C12.787 12.313 12.74 12.734 12.646 13.203C12.552 13.672 12.412 14.187 12.599 14.445C12.722 14.614 12.987 14.672 13.274 14.672C13.422 14.672 13.579 14.656 13.724 14.632C14.145 14.562 14.473 14.421 14.848 13.906C15.223 13.391 15.645 12.5 15.926 11.774C16.207 11.048 16.348 10.485 16.723 10.204C17.097 9.92301 17.707 9.92301 18.362 9.90001C19.018 9.87601 19.721 9.82902 19.838 9.40802C19.956 8.98602 19.487 8.18901 18.854 7.72101C18.222 7.25201 17.425 7.11202 16.863 6.85402C16.301 6.59602 15.973 6.22202 15.832 5.75302C15.822 5.71902 15.813 5.68402 15.804 5.64902C16.133 5.45302 16.462 5.26701 16.79 5.09001C16.843 5.10101 16.898 5.11201 16.957 5.12001C17.132 5.14601 17.337 5.15701 17.556 5.15701C18.333 5.15701 19.288 5.01901 19.745 4.90901C20.331 4.76901 20.096 4.67502 19.595 4.26402C19.481 4.17102 19.354 4.06102 19.222 3.94202C21.255 3.12002 23.168 2.69202 24.733 2.69202C26.225 2.69202 27.4 3.08201 28.057 3.89001C27.777 3.86901 27.513 3.84801 27.265 3.83101C26.469 3.77601 25.85 3.75302 25.313 3.75302C24.934 3.75302 24.596 3.76501 24.266 3.78401C23.47 3.83001 22.72 3.92502 23.095 4.39302C23.47 4.86202 24.969 5.70501 26.515 5.98601C27.017 6.07801 27.524 6.11002 28.028 6.11002C28.215 6.11002 28.401 6.10502 28.585 6.09802C28.428 7.26202 27.76 8.61202 26.685 9.99402C26.431 9.82002 25.817 9.65601 25.203 9.61801C25.111 9.61201 25.019 9.60901 24.927 9.60901C24.273 9.60901 23.646 9.75701 23.235 10.086C22.767 10.461 22.579 11.07 22.837 11.375C23.095 11.679 23.797 11.679 23.938 12.007C24.036 12.235 23.863 12.62 23.724 13.007C22.871 13.718 21.926 14.407 20.904 15.051C17.468 17.216 13.953 18.372 11.382 18.372Z" fill="#FDA568"/>
<path fill-rule="evenodd" clip-rule="evenodd" d="M8.219 17.354C8.094 17.227 7.98299 17.088 7.88699 16.937C7.35499 16.092 7.37899 14.972 7.86099 13.724C8.14999 13.474 8.43001 13.296 8.70101 13.296C8.71201 13.296 8.723 13.296 8.733 13.297C9.178 13.32 9.60001 13.836 9.46001 14.585C9.31901 15.335 8.616 16.319 8.288 17.162C8.263 17.227 8.24 17.291 8.219 17.354Z" fill="#A17160"/>
<path fill-rule="evenodd" clip-rule="evenodd" d="M13.274 14.672C12.987 14.672 12.722 14.614 12.599 14.445C12.412 14.187 12.552 13.672 12.646 13.203C12.74 12.734 12.787 12.313 12.693 11.844C12.599 11.376 12.365 10.86 12.037 10.602C11.785 10.404 11.477 10.359 11.221 10.359C11.144 10.359 11.071 10.363 11.006 10.368C10.93 10.375 10.864 10.383 10.81 10.383C10.666 10.383 10.61 10.324 10.678 10.017C10.709 9.87801 10.765 9.69001 10.837 9.47801C12.036 8.26801 13.517 7.07901 15.211 6.01201C15.408 5.88701 15.606 5.76602 15.804 5.64902C15.813 5.68402 15.822 5.71902 15.832 5.75302C15.973 6.22202 16.301 6.59602 16.863 6.85402C17.425 7.11202 18.222 7.25201 18.854 7.72101C19.487 8.18901 19.956 8.98602 19.838 9.40802C19.721 9.82902 19.018 9.87601 18.362 9.90001C17.707 9.92301 17.097 9.92301 16.723 10.204C16.348 10.485 16.207 11.048 15.926 11.774C15.645 12.5 15.223 13.391 14.848 13.906C14.473 14.421 14.145 14.562 13.724 14.632C13.579 14.656 13.422 14.672 13.274 14.672ZM17.556 5.15701C17.337 5.15701 17.132 5.14601 16.957 5.12001C16.898 5.11201 16.843 5.10101 16.79 5.09001C17.61 4.64801 18.425 4.26502 19.222 3.94202C19.354 4.06102 19.481 4.17102 19.595 4.26402C20.096 4.67502 20.331 4.76901 19.745 4.90901C19.288 5.01901 18.332 5.15701 17.556 5.15701Z" fill="#A17160"/>
<path fill-rule="evenodd" clip-rule="evenodd" d="M28.027 6.11102C27.523 6.11102 27.016 6.07903 26.514 5.98703C24.968 5.70603 23.469 4.86303 23.094 4.39403C22.719 3.92603 23.469 3.83203 24.265 3.78503C24.595 3.76603 24.933 3.75403 25.312 3.75403C25.849 3.75403 26.468 3.77703 27.264 3.83203C27.512 3.84903 27.776 3.87004 28.056 3.89104C28.117 3.96604 28.174 4.04504 28.226 4.12804C28.574 4.68104 28.685 5.35204 28.584 6.10004C28.4 6.10604 28.214 6.11102 28.027 6.11102Z" fill="#A17160"/>
<path fill-rule="evenodd" clip-rule="evenodd" d="M23.724 13.008C23.863 12.621 24.036 12.236 23.938 12.008C23.798 11.68 23.095 11.68 22.837 11.376C22.579 11.071 22.767 10.462 23.235 10.087C23.646 9.75799 24.273 9.60999 24.927 9.60999C25.019 9.60999 25.111 9.61299 25.203 9.61899C25.817 9.65699 26.431 9.82098 26.685 9.99498C25.901 11.002 24.9 12.026 23.724 13.008Z" fill="#A17160"/>
</svg>

