<svg width="56" height="82" viewBox="0 0 56 82" fill="none" xmlns="http://www.w3.org/2000/svg">
<path fill-rule="evenodd" clip-rule="evenodd" d="M27.781 55.238C42.819 55.238 55.084 42.972 55.084 27.934C55.084 12.896 42.819 0.630981 27.781 0.630981C12.743 0.630981 0.478027 12.896 0.478027 27.934C0.478027 42.973 12.743 55.238 27.781 55.238Z" fill="#FFBE8E"/>
<path fill-rule="evenodd" clip-rule="evenodd" d="M27.781 55.238C15.471 55.238 5.06504 47.091 1.65704 35.896C1.67004 35.929 1.68304 35.9639 1.69704 35.9979C5.15004 47.1219 15.548 55.238 27.781 55.238C42.539 55.238 54.626 43.4239 55.071 28.7699C54.629 43.4629 42.58 55.238 27.781 55.238ZM55.07 27.0539C54.652 13.9699 44.953 3.16095 32.366 1.01895C32.349 1.01495 32.334 1.01096 32.318 1.00696C44.956 3.12096 54.653 13.9159 55.07 27.0539Z" fill="#200014"/>
<path fill-rule="evenodd" clip-rule="evenodd" d="M27.781 55.238C15.549 55.238 5.15 47.122 1.698 35.999C2.961 39.26 4.255 42.516 8.517 45.319C13.778 48.777 19.091 50.263 24.1 50.263C46.476 50.263 62.76 20.601 40.947 4.64999C37.675 2.25699 35.019 1.63201 32.366 1.01801C44.953 3.16101 54.652 13.969 55.07 27.053C55.07 27.053 55.07 27.057 55.07 27.059C55.07 27.065 55.07 27.072 55.07 27.077C55.079 27.362 55.083 27.647 55.083 27.934C55.083 28.214 55.079 28.494 55.07 28.77C54.626 43.425 42.539 55.238 27.781 55.238Z" fill="#FA8D67"/>
<path fill-rule="evenodd" clip-rule="evenodd" d="M10.966 18.636C9.34801 18.636 8.10801 18.175 7.50201 17.214C5.94301 14.738 9.19401 9.88998 14.762 6.38298C18.168 4.23798 21.653 3.09198 24.201 3.09198C25.819 3.09198 27.06 3.55398 27.665 4.51498C29.224 6.99098 25.973 11.838 20.405 15.345C17 17.49 13.515 18.636 10.966 18.636Z" fill="#FFFABF"/>
</svg>
