<?xml version="1.0" encoding="UTF-8" standalone="no"?>
<svg
   width="54.605972"
   height="54.607018"
   viewBox="0 0 54.605972 54.607018"
   fill="none"
   version="1.1"
   id="svg462"
   sodipodi:docname="mercury.svg"
   inkscape:version="1.2.2 (b0a8486541, 2022-12-01)"
   xmlns:inkscape="http://www.inkscape.org/namespaces/inkscape"
   xmlns:sodipodi="http://sodipodi.sourceforge.net/DTD/sodipodi-0.dtd"
   xmlns="http://www.w3.org/2000/svg"
   xmlns:svg="http://www.w3.org/2000/svg">
  <defs
     id="defs466" />
  <sodipodi:namedview
     id="namedview464"
     pagecolor="#ffffff"
     bordercolor="#000000"
     borderopacity="0.25"
     inkscape:showpageshadow="2"
     inkscape:pageopacity="0.0"
     inkscape:pagecheckerboard="0"
     inkscape:deskcolor="#d1d1d1"
     showgrid="false"
     inkscape:zoom="5.8414634"
     inkscape:cx="2.7390397"
     inkscape:cy="40.400835"
     inkscape:window-width="1280"
     inkscape:window-height="651"
     inkscape:window-x="0"
     inkscape:window-y="32"
     inkscape:window-maximized="1"
     inkscape:current-layer="svg462" />
  <path
     fill-rule="evenodd"
     clip-rule="evenodd"
     d="m 27.302973,54.607019 c 15.038,0 27.303,-12.266 27.303,-27.304 C 54.605973,12.265019 42.340973,0 27.302973,0 12.264973,0 0,12.265019 0,27.303019 c 0,15.039 12.264973,27.304 27.302973,27.304 z"
     fill="#ffbe8e"
     id="path454" />
  <path
     fill-rule="evenodd"
     clip-rule="evenodd"
     d="m 27.302973,54.607019 c -12.31,0 -22.71596,-8.147 -26.12396,-19.342 0.013,0.033 0.026,0.0679 0.04,0.1019 3.453,11.124 13.85096,19.2401 26.08396,19.2401 14.758,0 26.845,-11.8141 27.29,-26.4681 -0.442,14.693 -12.491,26.4681 -27.29,26.4681 z m 27.289,-28.1841 c -0.418,-13.084 -10.117,-23.89295 -22.704,-26.03495 -0.017,-0.004 -0.032,-0.00799 -0.048,-0.01199 12.638,2.114 22.335,12.90894 22.752,26.04694 z"
     fill="#200014"
     id="path456" />
  <path
     fill-rule="evenodd"
     clip-rule="evenodd"
     d="m 27.302973,54.607019 c -12.232,0 -22.631,-8.116 -26.083,-19.239 1.263,3.261 2.557,6.517 6.819,9.32 5.261,3.458 10.574,4.944 15.583,4.944 22.376,0 38.66,-29.662 16.847,-45.61301 -3.272,-2.393 -5.928,-3.01798 -8.581,-3.63198 12.587,2.143 22.286,12.95099 22.704,26.03499 0,0 0,0.004 0,0.006 0,0.006 0,0.013 0,0.018 0.009,0.285 0.013,0.57 0.013,0.857 0,0.28 -0.004,0.56 -0.013,0.836 -0.444,14.655 -12.531,26.468 -27.289,26.468 z"
     fill="#fa8d67"
     id="path458" />
  <path
     fill-rule="evenodd"
     clip-rule="evenodd"
     d="m 10.487973,18.005019 c -1.61799,0 -2.85799,-0.461 -3.46399,-1.422 -1.559,-2.476 1.692,-7.32402 7.25999,-10.83102 3.406,-2.145 6.891,-3.291 9.439,-3.291 1.618,0 2.859,0.462 3.464,1.423 1.559,2.476 -1.692,7.32302 -7.26,10.83002 -3.405,2.145 -6.89,3.291 -9.439,3.291 z"
     fill="#fffabf"
     id="path460" />
</svg>
