<?xml version="1.0" encoding="UTF-8" standalone="no"?>
<svg
   width="59.987991"
   height="59.987015"
   viewBox="0 0 59.987991 59.987015"
   fill="none"
   version="1.1"
   id="svg190"
   sodipodi:docname="moon.svg"
   xml:space="preserve"
   inkscape:version="1.2.2 (b0a8486541, 2022-12-01)"
   xmlns:inkscape="http://www.inkscape.org/namespaces/inkscape"
   xmlns:sodipodi="http://sodipodi.sourceforge.net/DTD/sodipodi-0.dtd"
   xmlns="http://www.w3.org/2000/svg"
   xmlns:svg="http://www.w3.org/2000/svg"><defs
     id="defs194" /><sodipodi:namedview
     id="namedview192"
     pagecolor="#ffffff"
     bordercolor="#000000"
     borderopacity="0.25"
     inkscape:showpageshadow="2"
     inkscape:pageopacity="0.0"
     inkscape:pagecheckerboard="0"
     inkscape:deskcolor="#d1d1d1"
     showgrid="false"
     inkscape:zoom="4.1815327"
     inkscape:cx="-19.131741"
     inkscape:cy="44.720444"
     inkscape:window-width="1280"
     inkscape:window-height="651"
     inkscape:window-x="0"
     inkscape:window-y="32"
     inkscape:window-maximized="1"
     inkscape:current-layer="svg190" /><path
     fill-rule="evenodd"
     clip-rule="evenodd"
     d="m 29.99399,59.987013 c 16.52,0 29.994,-13.474 29.994,-29.994 C 59.98799,13.473013 46.51299,0 29.99399,0 13.47299,0 0,13.473013 0,29.993013 c 0,16.52 13.47299,29.994 29.99399,29.994 z"
     fill="#8bd3d4"
     id="path182"
     style="display:inline;fill:#afa8a2;fill-opacity:1" /><path
     fill-rule="evenodd"
     clip-rule="evenodd"
     d="m 29.99399,59.987013 c 16.52,0 29.994,-13.474 29.994,-29.994 0,16.566 -13.429,29.994 -29.994,29.994 z m -0.057,0 c -0.013,0 -0.022,0 -0.034,0 0.01,0 0.022,0 0.034,0 z m -0.092,0 c -13.458,-0.065 -24.81998,-8.994 -28.55098,-21.248 0.015,0.037 0.029,0.075 0.043,0.112 3.781,12.174 15.13498,21.071 28.50798,21.136 z m 30.143,-30.052 c 0,-0.012 0,-0.023 0,-0.035 0,0.012 0,0.024 0,0.035 z m 0,-0.048 c 0,-0.012 -0.001,-0.022 -0.001,-0.034 0,0.011 0.001,0.022 0.001,0.034 z m -0.001,-0.091 c -0.095,-14.718 -10.884,-26.97803 -24.961,-29.37303 -0.017,-0.004 -0.032,-0.007 -0.05,-0.011 14.132,2.363 24.916,14.60503 25.011,29.38403 z"
     fill="#02113b"
     id="path184"
     style="display:inline;fill:#02113b;fill-opacity:1" /><path
     fill-rule="evenodd"
     clip-rule="evenodd"
     d="m 29.99399,59.987013 c -0.015,0 -0.03,0 -0.045,0 -0.004,0 -0.008,0 -0.012,0 -0.012,0 -0.023,0 -0.034,0 -0.004,0 -0.009,0 -0.014,0 -0.012,0 -0.023,0 -0.035,0 -0.003,0 -0.005,0 -0.009,0 -13.373,-0.065 -24.72798,-8.962 -28.50798,-21.136 1.389,3.583 2.809,7.161 7.492,10.24 5.77998,3.8 11.61698,5.432 17.11998,5.432 24.581,0 42.47,-32.586 18.507,-50.10904 -3.596,-2.629 -6.515,-3.316 -9.431,-3.991 14.077,2.395 24.866,14.65504 24.961,29.37304 0,0.002 0,0.007 0,0.007 0,0.013 0,0.025 0,0.038 0,0.004 0,0.008 0,0.012 0,0.012 10e-4,0.022 10e-4,0.034 0,0.004 0,0.009 0,0.013 0,0.012 0,0.023 0,0.035 0,0.004 0,0.008 0,0.012 0,0.015 0,0.031 0,0.046 0.001,16.52 -13.474,29.994 -29.993,29.994 z"
     fill="#84c7c7"
     id="path186"
     style="display:inline;fill:#8d8683;fill-opacity:1" /><path
     style="fill:#5c5050;fill-opacity:1;fill-rule:evenodd;stroke-width:13.0395;stroke-linecap:round;stroke-linejoin:round;stroke-miterlimit:24"
     d="m 47.097249,44.967703 c 5.669411,0.259801 11.561481,-7.439602 10.744449,-12.943209 -0.572949,-3.859415 -6.48719,-8.665171 -9.861327,-6.596713 -2.274383,1.394272 2.421181,5.475346 1.173072,7.8024 -1.309139,2.440834 -6.846852,0.985154 -7.576576,3.648237 -0.858435,3.132805 2.213688,7.937756 5.520382,8.089285 z"
     id="path6515"
     sodipodi:nodetypes="aaaaaa" /><path
     style="fill:#5c5050;fill-opacity:1;fill-rule:evenodd;stroke-width:13.0395;stroke-linecap:round;stroke-linejoin:round;stroke-miterlimit:24"
     d="m 8.8233381,41.973498 c 0.70064,1.932339 2.1325489,3.835928 4.0168869,4.728036 1.498118,0.709261 3.985588,1.415167 4.990045,0.115427 1.187515,-1.536615 -0.31896,-9.875229 -3.762273,-12.723634 -1.319104,-1.091195 -3.851082,-1.693665 -5.1455782,-0.574532 -2.1568012,1.86462 -1.062019,5.798929 -0.099081,8.454703 z"
     id="path5485"
     sodipodi:nodetypes="aasaaa" /><path
     style="fill:#5c5050;fill-opacity:1;fill-rule:evenodd;stroke-width:13.0395;stroke-linecap:round;stroke-linejoin:round;stroke-miterlimit:24"
     d="m 10.836769,27.988601 c 1.178194,1.044402 3.313295,0.500031 4.76427,-0.134092 1.018229,-0.444997 1.207324,-2.563701 2.305395,-2.374579 1.616645,0.278439 0.565298,3.595228 1.974145,4.420578 3.007352,1.761811 8.105924,1.698008 10.477327,-0.82954 1.926813,-2.053685 -2.665402,-7.317195 -0.02862,-8.369084 2.296339,-0.916071 2.928936,6.257081 5.177278,5.233062 2.137581,-0.973573 0.70113,-5.043006 -0.708024,-6.894644 C 32.610651,16.165406 26.114632,18.237366 24.641621,14.954381 23.561789,12.547698 29.019415,9.665815 27.422681,7.5530827 26.333597,6.112042 23.464603,8.8531703 21.941669,7.8589393 21.020523,7.2575756 21.909606,5.0648454 20.838975,4.7897487 15.364419,3.3831138 5.7270697,10.703609 8.067608,15.753027 c 1.4909957,3.21663 8.006643,-3.734687 10.720123,-1.408459 0.719116,0.616487 0.42122,1.968436 0,2.80882 -1.538192,3.068899 -6.858414,3.149662 -8.28392,6.27037 -0.636021,1.392376 -0.8215292,3.541453 0.332958,4.564843 z"
     id="path6517"
     sodipodi:nodetypes="aaaaaaaaaaaaaaaaa" /><ellipse
     style="fill:#5c5050;fill-opacity:1;fill-rule:evenodd;stroke-width:15.299;stroke-linecap:round;stroke-linejoin:round;stroke-miterlimit:24"
     id="path6571"
     cx="55.524014"
     cy="37.6665"
     rx="3.5877793"
     ry="2.7916019"
     transform="matrix(0.99597428,-0.08963949,-0.38256333,0.92392927,0,0)" /><path
     style="fill:#5c5050;fill-opacity:1;fill-rule:evenodd;stroke-width:13.0395;stroke-linecap:round;stroke-linejoin:round;stroke-miterlimit:24"
     d="m 46.509441,22.738688 c -3.190236,1.751972 -8.599601,-2.302701 -9.214476,-5.835262 -0.471997,-2.711697 2.407599,-7.073942 5.158131,-6.523604 2.402985,0.4808 0.0019,5.411749 1.865508,6.974232 0.524643,0.4399 1.591684,-0.291513 2.0609,0.204878 1.197706,1.267074 1.667476,4.335394 0.129937,5.179756 z"
     id="path6573"
     sodipodi:nodetypes="aaaaaa" /><path
     fill-rule="evenodd"
     clip-rule="evenodd"
     d="m 11.27299,22.556013 c -1.98897,0 -3.51597,-0.567 -4.25997,-1.749 -1.915,-3.042 2.08102,-9.004 8.92697,-13.31397 4.186,-2.638 8.471,-4.047 11.604,-4.047 1.989,0 3.516,0.568 4.26,1.749 1.916,3.043 -2.08,9.00397 -8.927,13.31497 -4.186,2.637 -8.47,4.046 -11.604,4.046 z"
     fill="#C3E7E8"
     id="path188"
     style="fill:#c4bbc3;fill-opacity:0.665794" /></svg>
