<svg width="62" height="84" viewBox="0 0 62 84" fill="none" xmlns="http://www.w3.org/2000/svg">
<path fill-rule="evenodd" clip-rule="evenodd" d="M28.517 0.767039C45.128 -0.616961 59.716 11.725 61.102 28.336C62.487 44.947 50.144 59.536 33.533 60.921C16.923 62.306 2.334 49.963 0.948002 33.353C-0.436998 16.742 11.905 2.15304 28.517 0.767039Z" fill="#D8A36E"/>
<path fill-rule="evenodd" clip-rule="evenodd" d="M49.773 7.19408C45.256 3.61008 39.709 1.30808 33.714 0.778076C38.233 4.36208 43.78 6.66408 49.773 7.19408Z" fill="#4E7CA3"/>
<path fill-rule="evenodd" clip-rule="evenodd" d="M49.773 7.19402C43.78 6.66402 38.233 4.36202 33.714 0.778024C32.209 0.646024 30.675 0.624024 29.122 0.723024C35.068 6.87202 43.568 10.456 52.73 9.87402C51.805 8.91602 50.816 8.02102 49.773 7.19402Z" fill="#315988"/>
<path fill-rule="evenodd" clip-rule="evenodd" d="M52.731 9.87402C43.569 10.456 35.069 6.87202 29.123 0.723022C28.921 0.736022 28.719 0.750023 28.517 0.767023C27.02 0.892023 25.559 1.12402 24.139 1.45502C30.297 10.089 40.718 15.349 52.054 14.404C53.384 14.293 54.687 14.1 55.96 13.83C54.993 12.419 53.913 11.096 52.731 9.87402Z" fill="#4E7CA3"/>
<path fill-rule="evenodd" clip-rule="evenodd" d="M52.054 14.4041C40.718 15.3491 30.297 10.0891 24.139 1.45508C21.554 2.05708 19.108 2.98708 16.84 4.19608C22.63 16.2151 35.395 24.0281 49.483 22.8531C52.977 22.5621 56.298 21.7391 59.375 20.4711C58.509 18.0971 57.355 15.8711 55.961 13.8301C54.686 14.1001 53.384 14.2931 52.054 14.4041Z" fill="#2F597B"/>
<path fill-rule="evenodd" clip-rule="evenodd" d="M49.482 22.853C35.394 24.028 22.629 16.215 16.839 4.19604C16.208 4.53204 15.591 4.89005 14.989 5.26805C20.452 18.394 33.916 27.099 48.846 25.855C52.872 25.519 56.674 24.487 60.143 22.887C59.919 22.066 59.664 21.26 59.373 20.471C56.298 21.739 52.977 22.562 49.482 22.853Z" fill="#4279AD"/>
<path fill-rule="evenodd" clip-rule="evenodd" d="M48.847 25.8551C33.916 27.0991 20.452 18.3941 14.99 5.26807C13.456 6.23207 12.017 7.32907 10.689 8.54107C15.345 23.6531 30.021 34.0331 46.427 32.6651C51.779 32.2181 56.74 30.5701 61.072 28.0071C60.907 26.2481 60.593 24.5371 60.144 22.8871C56.675 24.4871 52.873 25.5191 48.847 25.8551Z" fill="#355A88"/>
<path fill-rule="evenodd" clip-rule="evenodd" d="M46.427 32.665C30.021 34.033 15.345 23.653 10.689 8.54102C10.428 8.77902 10.172 9.02201 9.91901 9.26901C14.238 24.901 29.186 35.751 45.938 34.354C51.532 33.888 56.703 32.108 61.169 29.342C61.152 29.008 61.129 28.672 61.102 28.336C61.092 28.226 61.083 28.117 61.072 28.007C56.74 30.57 51.778 32.218 46.427 32.665Z" fill="#4E7CA3"/>
<path fill-rule="evenodd" clip-rule="evenodd" d="M45.938 34.354C29.186 35.751 14.239 24.901 9.91901 9.26904C7.32401 11.809 5.19401 14.808 3.65201 18.119C5.81101 36.454 22.14 49.908 40.68 48.362C47.861 47.764 54.342 45 59.535 40.767C60.78 37.195 61.369 33.334 61.169 29.342C56.702 32.108 51.531 33.888 45.938 34.354Z" fill="#366A94"/>
<path fill-rule="evenodd" clip-rule="evenodd" d="M40.68 48.362C22.14 49.908 5.81101 36.454 3.65201 18.119C3.03501 19.442 2.512 20.816 2.091 22.23C4.212 40.605 20.562 54.099 39.127 52.551C46.087 51.971 52.389 49.357 57.498 45.344C58.3 43.885 58.982 42.354 59.535 40.767C54.342 45 47.86 47.764 40.68 48.362Z" fill="#315988"/>
<path fill-rule="evenodd" clip-rule="evenodd" d="M39.127 52.551C20.561 54.099 4.212 40.605 2.091 22.23C1.881 22.934 1.69499 23.648 1.53699 24.371C3.60699 42.8 19.984 56.351 38.587 54.799C44.786 54.283 50.464 52.152 55.242 48.856C56.072 47.74 56.827 46.567 57.498 45.344C52.389 49.357 46.087 51.971 39.127 52.551Z" fill="#4279AD"/>
<path fill-rule="evenodd" clip-rule="evenodd" d="M38.587 54.7991C19.985 56.3511 3.608 42.8001 1.537 24.3711C0.907001 27.2461 0.690004 30.2651 0.947004 33.3531C1.05 34.5691 1.22101 35.7631 1.46101 36.9301C6.75201 50.9421 20.842 60.3491 36.51 59.0421C40.186 58.7361 43.68 57.8621 46.91 56.5141C50.157 54.5001 52.981 51.8931 55.242 48.8561C50.464 52.1521 44.786 54.2831 38.587 54.7991Z" fill="#345C89"/>
<path fill-rule="evenodd" clip-rule="evenodd" d="M36.51 59.0421C20.842 60.3491 6.752 50.9421 1.461 36.9301C4.481 51.6971 18.139 62.2051 33.532 60.9211C38.446 60.5111 42.987 58.9461 46.91 56.5141C43.68 57.8621 40.185 58.7361 36.51 59.0421Z" fill="#1E3C60"/>
<path fill-rule="evenodd" clip-rule="evenodd" d="M33.605 59.1641C26.457 59.1611 19.743 56.9471 14.179 53.1241C14.181 53.1241 14.179 53.1241 14.181 53.1241C19.745 56.9471 26.459 59.1621 33.605 59.1641ZM36.464 59.0461C36.48 59.0451 36.494 59.0441 36.51 59.0421C36.494 59.0441 36.479 59.0451 36.464 59.0461Z" fill="#705F5D"/>
<path fill-rule="evenodd" clip-rule="evenodd" d="M49.715 7.18804C48.931 7.11704 48.155 7.01604 47.387 6.88604C46.185 5.88004 44.855 4.92604 43.391 4.03304C39.655 1.75404 36.722 1.27804 33.811 0.854036C33.804 0.849036 33.797 0.843036 33.79 0.837036C39.728 1.37404 45.226 3.65104 49.715 7.18804Z" fill="#415880"/>
<path fill-rule="evenodd" clip-rule="evenodd" d="M50.796 9.93502C50.794 9.93502 50.792 9.93502 50.789 9.93502C50.697 9.93502 50.604 9.93502 50.512 9.93402C49.586 8.87602 48.546 7.85702 47.387 6.88602C48.155 7.01602 48.931 7.11702 49.715 7.18802C50.767 8.01702 51.764 8.91502 52.697 9.87602C52.06 9.91502 51.426 9.93502 50.796 9.93502ZM33.81 0.854017C33.724 0.842017 33.637 0.829017 33.55 0.817017C33.629 0.823017 33.709 0.830017 33.788 0.837017C33.797 0.843017 33.804 0.849017 33.81 0.854017Z" fill="#2E4775"/>
<path fill-rule="evenodd" clip-rule="evenodd" d="M53.555 14.243C52.726 12.751 51.716 11.31 50.512 9.934C50.605 9.935 50.698 9.935 50.789 9.935C50.792 9.935 50.794 9.935 50.796 9.935C51.426 9.935 52.06 9.915 52.696 9.875C53.884 11.097 54.969 12.42 55.939 13.834C55.155 14 54.36 14.137 53.555 14.243Z" fill="#415880"/>
<path fill-rule="evenodd" clip-rule="evenodd" d="M56.175 21.6011C55.724 19.0801 54.864 16.5991 53.555 14.2431C54.361 14.1371 55.156 14.0001 55.94 13.8351C57.34 15.8741 58.497 18.1011 59.367 20.4741C58.33 20.9011 57.265 21.2781 56.175 21.6011Z" fill="#2D456D"/>
<path fill-rule="evenodd" clip-rule="evenodd" d="M56.503 24.3141C56.443 23.4051 56.336 22.5021 56.175 21.6021C57.265 21.2791 58.33 20.9021 59.366 20.4751C59.655 21.2641 59.914 22.0701 60.138 22.8911C58.963 23.4311 57.75 23.9081 56.503 24.3141Z" fill="#3A5787"/>
<path fill-rule="evenodd" clip-rule="evenodd" d="M56.177 30.4C56.519 28.385 56.635 26.344 56.503 24.314C57.75 23.908 58.963 23.431 60.138 22.891C60.589 24.541 60.904 26.25 61.07 28.009C59.517 28.928 57.882 29.729 56.177 30.4Z" fill="#314876"/>
<path fill-rule="evenodd" clip-rule="evenodd" d="M55.851 32.0241C55.976 31.4851 56.084 30.9441 56.177 30.4001C57.882 29.7291 59.517 28.9281 61.069 28.0081C61.081 28.1231 61.091 28.2371 61.1 28.3511C61.127 28.6831 61.149 29.0141 61.166 29.3431C59.488 30.3821 57.713 31.2811 55.851 32.0241Z" fill="#415880"/>
<path fill-rule="evenodd" clip-rule="evenodd" d="M47.274 47.164C51.517 42.976 54.55 37.645 55.85 32.024C57.712 31.281 59.488 30.382 61.166 29.343C61.368 33.337 60.779 37.196 59.531 40.769C55.985 43.66 51.837 45.865 47.274 47.164Z" fill="#334F79"/>
<path fill-rule="evenodd" clip-rule="evenodd" d="M40.125 52.453C42.765 51.04 45.169 49.243 47.274 47.164C51.837 45.865 55.985 43.66 59.532 40.769C58.977 42.358 58.292 43.891 57.487 45.352C52.625 49.168 46.685 51.717 40.125 52.453Z" fill="#2E4775"/>
<path fill-rule="evenodd" clip-rule="evenodd" d="M35.688 54.92C35.686 54.92 35.685 54.92 35.682 54.92C35.131 54.92 34.582 54.907 34.036 54.881C36.172 54.301 38.21 53.4781 40.124 52.4531C46.684 51.7171 52.624 49.1681 57.486 45.3521C56.812 46.5781 56.054 47.7531 55.22 48.8701C50.446 52.1581 44.775 54.2831 38.585 54.7991C37.614 54.8801 36.646 54.92 35.688 54.92Z" fill="#3A5787"/>
<path fill-rule="evenodd" clip-rule="evenodd" d="M33.611 59.164C33.609 59.164 33.607 59.164 33.605 59.164C26.459 59.161 19.745 56.947 14.181 53.124C18.475 55.016 22.683 55.862 26.677 55.862C29.227 55.862 31.691 55.517 34.036 54.881C34.582 54.907 35.131 54.92 35.682 54.92C35.685 54.92 35.686 54.92 35.688 54.92C36.646 54.92 37.614 54.88 38.586 54.799C44.776 54.283 50.446 52.158 55.221 48.87C52.94 51.924 50.087 54.543 46.806 56.557C43.604 57.88 40.146 58.739 36.509 59.042C36.493 59.044 36.479 59.045 36.463 59.046C35.506 59.125 34.555 59.164 33.611 59.164Z" fill="#314977"/>
<path fill-rule="evenodd" clip-rule="evenodd" d="M5.448 46.8811C4.486 45.3511 3.65501 43.7241 2.97601 42.0181C2.98101 42.0281 2.986 42.0391 2.992 42.0491C3.669 43.7451 4.492 45.3591 5.448 46.8811Z" fill="#02113B"/>
<path fill-rule="evenodd" clip-rule="evenodd" d="M5.87799 47.5421C5.73099 47.3241 5.589 47.1041 5.448 46.8811C4.492 45.3591 3.669 43.7451 2.992 42.0491V42.0511C3.769 43.9941 4.73799 45.8311 5.87799 47.5421Z" fill="#705F5D"/>
<path fill-rule="evenodd" clip-rule="evenodd" d="M30.983 61.005C20.637 61.005 11.327 55.722 5.87799 47.542C4.73799 45.831 3.769 43.994 2.992 42.051C4.695 45.549 6.407 49.044 11.397 51.755C12.327 52.261 13.256 52.717 14.179 53.124C19.743 56.947 26.456 59.162 33.605 59.164C33.607 59.164 33.609 59.164 33.611 59.164H33.612C34.555 59.164 35.506 59.125 36.464 59.046C36.48 59.045 36.494 59.044 36.51 59.042C40.147 58.739 43.605 57.88 46.807 56.557C42.908 58.951 38.402 60.492 33.529 60.898C32.674 60.969 31.826 61.005 30.983 61.005Z" fill="#273B64"/>
<path fill-rule="evenodd" clip-rule="evenodd" d="M18.392 21.83C15.744 18.993 13.564 15.696 11.989 12.06C13.563 15.696 15.743 18.992 18.392 21.83ZM24.932 18.515C21.5 15.746 18.614 12.31 16.479 8.38198C18.612 12.31 21.5 15.746 24.932 18.515ZM27.374 16.736C23.814 14.175 20.77 10.92 18.453 7.14898C20.77 10.92 23.814 14.175 27.375 16.735L27.374 16.736Z" fill="#AAB394"/>
<path fill-rule="evenodd" clip-rule="evenodd" d="M33.156 9.88999C30.572 8.29499 28.23 6.32799 26.214 4.05799C27.22 3.85099 28.164 3.745 29.023 3.745C31.025 3.745 32.56 4.31599 33.309 5.50499C34.024 6.64099 33.922 8.18099 33.156 9.88999Z" fill="#649EB3"/>
<path fill-rule="evenodd" clip-rule="evenodd" d="M27.375 16.735C23.814 14.175 20.77 10.92 18.453 7.14898C21.154 5.58998 23.851 4.54398 26.214 4.05798C28.231 6.32798 30.571 8.29498 33.156 9.88998C32.186 12.059 30.152 14.5 27.375 16.735Z" fill="#558C9E"/>
<path fill-rule="evenodd" clip-rule="evenodd" d="M24.932 18.515C21.5 15.746 18.613 12.31 16.479 8.38205C16.763 8.19105 17.051 8.00305 17.346 7.81705C17.714 7.58505 18.084 7.36205 18.453 7.14905C20.77 10.92 23.814 14.175 27.374 16.736C26.613 17.347 25.798 17.944 24.932 18.515Z" fill="#579BB5"/>
<path fill-rule="evenodd" clip-rule="evenodd" d="M18.392 21.8301C15.744 18.9931 13.564 15.6961 11.989 12.0601C13.251 10.7891 14.765 9.53708 16.479 8.38208C18.614 12.3101 21.501 15.7461 24.932 18.5151C24.733 18.6461 24.532 18.7761 24.328 18.9051C22.326 20.1651 20.303 21.1471 18.392 21.8301Z" fill="#5788A0"/>
<path fill-rule="evenodd" clip-rule="evenodd" d="M16.84 22.3271C14.484 19.5531 12.552 16.3891 11.16 12.9371C11.423 12.6441 11.698 12.3511 11.988 12.0591C13.563 15.6951 15.743 18.9921 18.391 21.8291C17.864 22.0181 17.347 22.1841 16.84 22.3271Z" fill="#649EB3"/>
<path fill-rule="evenodd" clip-rule="evenodd" d="M12.649 22.976C10.647 22.976 9.111 22.405 8.363 21.216C7.13 19.258 8.332 16.097 11.16 12.938C12.552 16.392 14.481 19.553 16.84 22.328C15.314 22.756 13.892 22.976 12.649 22.976Z" fill="#5595AA"/>
</svg>

