<?xml version="1.0" encoding="UTF-8" standalone="no"?>
<svg
   width="60.366798"
   height="60.366074"
   viewBox="0 0 60.366798 60.366074"
   fill="none"
   version="1.1"
   id="svg784"
   sodipodi:docname="neptune.svg"
   inkscape:version="1.2.2 (b0a8486541, 2022-12-01)"
   xmlns:inkscape="http://www.inkscape.org/namespaces/inkscape"
   xmlns:sodipodi="http://sodipodi.sourceforge.net/DTD/sodipodi-0.dtd"
   xmlns="http://www.w3.org/2000/svg"
   xmlns:svg="http://www.w3.org/2000/svg">
  <defs
     id="defs788" />
  <sodipodi:namedview
     id="namedview786"
     pagecolor="#ffffff"
     bordercolor="#000000"
     borderopacity="0.25"
     inkscape:showpageshadow="2"
     inkscape:pageopacity="0.0"
     inkscape:pagecheckerboard="0"
     inkscape:deskcolor="#d1d1d1"
     showgrid="false"
     inkscape:zoom="5.702381"
     inkscape:cx="4.7348643"
     inkscape:cy="41.386221"
     inkscape:window-width="1280"
     inkscape:window-height="651"
     inkscape:window-x="0"
     inkscape:window-y="32"
     inkscape:window-maximized="1"
     inkscape:current-layer="svg784" />
  <path
     fill-rule="evenodd"
     clip-rule="evenodd"
     d="m 27.675753,0.10590694 c 16.611,-1.38400004 31.199,10.95796106 32.585,27.56896106 1.385,16.611 -10.958,31.2 -27.569,32.585 -16.61,1.385 -31.1990002,-10.958 -32.58499819,-27.568 C -1.2782452,16.080868 11.063753,1.4919079 27.675753,0.10590694 Z"
     fill="#d8a36e"
     id="path714" />
  <path
     fill-rule="evenodd"
     clip-rule="evenodd"
     d="m 48.931753,6.5329479 c -4.517,-3.584 -10.064,-5.88599996 -16.059,-6.41600396 4.519,3.58400396 10.066,5.88600396 16.059,6.41600396 z"
     fill="#4e7ca3"
     id="path716" />
  <path
     fill-rule="evenodd"
     clip-rule="evenodd"
     d="m 48.931753,6.5328879 c -5.993,-0.53 -11.54,-2.832 -16.059,-6.41599596 -1.505,-0.132 -3.039,-0.154 -4.592,-0.055 5.946,6.14899596 14.446,9.73297596 23.608,9.15099596 -0.925,-0.958 -1.914,-1.853 -2.957,-2.68 z"
     fill="#315988"
     id="path718" />
  <path
     fill-rule="evenodd"
     clip-rule="evenodd"
     d="m 51.889753,9.2128879 c -9.162,0.58198 -17.662,-3.002 -23.608,-9.15099796 -0.202,0.013 -0.404,0.027001 -0.606,0.044001 -1.497,0.125 -2.958,0.356997 -4.378,0.687997 6.158,8.63397996 16.579,13.89398006 27.915,12.94898006 1.33,-0.111 2.633,-0.304 3.906,-0.574 -0.967,-1.411 -2.047,-2.734 -3.229,-3.9559801 z"
     fill="#4e7ca3"
     id="path720" />
  <path
     fill-rule="evenodd"
     clip-rule="evenodd"
     d="m 51.212753,13.742968 c -11.336,0.945 -21.757,-4.3150001 -27.915,-12.94902006 -2.585,0.60199996 -5.031,1.53199996 -7.299,2.74099996 5.79,12.0190201 18.555,19.8320201 32.643,18.6570201 3.494,-0.291 6.815,-1.114 9.892,-2.382 -0.866,-2.374 -2.02,-4.6 -3.414,-6.641 -1.275,0.27 -2.577,0.463 -3.907,0.574 z"
     fill="#2f597b"
     id="path722" />
  <path
     fill-rule="evenodd"
     clip-rule="evenodd"
     d="m 48.640753,22.191868 c -14.088,1.175 -26.853,-6.638 -32.643,-18.6569601 -0.631,0.336 -1.248,0.69401 -1.85,1.07201 5.463,13.1259501 18.927,21.8309501 33.857,20.5869501 4.026,-0.336 7.828,-1.368 11.297,-2.968 -0.224,-0.821 -0.479,-1.627 -0.77,-2.416 -3.075,1.268 -6.396,2.091 -9.891,2.382 z"
     fill="#4279ad"
     id="path724" />
  <path
     fill-rule="evenodd"
     clip-rule="evenodd"
     d="m 48.005753,25.193968 c -14.931,1.244 -28.395,-7.461 -33.857,-20.5870301 -1.534,0.964 -2.973,2.061 -4.3010002,3.273 C 14.503753,22.991968 29.179753,33.371968 45.585753,32.003968 c 5.352,-0.447 10.313,-2.095 14.645,-4.658 -0.165,-1.759 -0.479,-3.47 -0.928,-5.12 -3.469,1.6 -7.271,2.632 -11.297,2.968 z"
     fill="#355a88"
     id="path726" />
  <path
     fill-rule="evenodd"
     clip-rule="evenodd"
     d="m 45.585753,32.003868 c -16.406,1.368 -31.082,-9.012 -35.7380002,-24.1239801 -0.261,0.238 -0.517,0.48099 -0.76999,0.72799 C 13.396753,24.239868 28.344753,35.089868 45.096753,33.692868 c 5.594,-0.466 10.765,-2.246 15.231,-5.012 -0.017,-0.334 -0.04,-0.67 -0.067,-1.006 -0.01,-0.11 -0.019,-0.219 -0.03,-0.329 -4.332,2.563 -9.294,4.211 -14.645,4.658 z"
     fill="#4e7ca3"
     id="path728" />
  <path
     fill-rule="evenodd"
     clip-rule="evenodd"
     d="m 45.096753,33.692868 c -16.752,1.397 -31.699,-9.453 -36.0189902,-25.0849601 -2.595,2.5399601 -4.725,5.5389601 -6.267,8.8499601 2.159,18.335 18.4879902,31.789 37.0279902,30.243 7.181,-0.598 13.662,-3.362 18.855,-7.595 1.245,-3.572 1.834,-7.433 1.634,-11.425 -4.467,2.766 -9.638,4.546 -15.231,5.012 z"
     fill="#366a94"
     id="path730" />
  <path
     fill-rule="evenodd"
     clip-rule="evenodd"
     d="m 39.838753,47.700868 c -18.54,1.546 -34.8689902,-11.908 -37.0279902,-30.243 -0.617,1.323 -1.14001,2.697 -1.56101,4.111 2.121,18.375 18.4710002,31.869 37.0360002,30.321 6.96,-0.58 13.262,-3.194 18.371,-7.207 0.802,-1.459 1.484,-2.99 2.037,-4.577 -5.193,4.233 -11.675,6.997 -18.855,7.595 z"
     fill="#315988"
     id="path732" />
  <path
     fill-rule="evenodd"
     clip-rule="evenodd"
     d="m 38.285753,51.889868 c -18.566,1.548 -34.9150002,-11.946 -37.0360002,-30.321 -0.21,0.704 -0.39600999,1.418 -0.55400999,2.141 2.06999999,18.429 18.44701019,31.98 37.05001019,30.428 6.199,-0.516 11.877,-2.647 16.655,-5.943 0.83,-1.116 1.585,-2.289 2.256,-3.512 -5.109,4.013 -11.411,6.627 -18.371,7.207 z"
     fill="#4279ad"
     id="path734" />
  <path
     fill-rule="evenodd"
     clip-rule="evenodd"
     d="m 37.745753,54.137968 c -18.602,1.552 -34.9790002,-11.999 -37.05000019,-30.428 -0.629999,2.875 -0.846996,5.894 -0.589996,8.982 0.102996,1.216 0.274006,2.41 0.514006,3.577 5.29099999,14.012 19.38099019,23.419 35.04899019,22.112 3.676,-0.306 7.17,-1.18 10.4,-2.528 3.247,-2.014 6.071,-4.621 8.332,-7.658 -4.778,3.296 -10.456,5.427 -16.655,5.943 z"
     fill="#345c89"
     id="path736" />
  <path
     fill-rule="evenodd"
     clip-rule="evenodd"
     d="m 35.668753,58.380968 c -15.668,1.307 -29.7580002,-8.1 -35.04900019,-22.112 3.01999999,14.767 16.67800019,25.275 32.07100019,23.991 4.914,-0.41 9.455,-1.975 13.378,-4.407 -3.23,1.348 -6.725,2.222 -10.4,2.528 z"
     fill="#1e3c60"
     id="path738" />
  <path
     fill-rule="evenodd"
     clip-rule="evenodd"
     d="m 32.763753,58.502968 c -7.148,-0.003 -13.862,-2.217 -19.426,-6.04 0.002,0 0,0 0.002,0 5.564,3.823 12.278,6.038 19.424,6.04 z m 2.859,-0.118 c 0.016,-10e-4 0.03,-0.002 0.046,-0.004 -0.016,0.002 -0.031,0.003 -0.046,0.004 z"
     fill="#705f5d"
     id="path740" />
  <path
     fill-rule="evenodd"
     clip-rule="evenodd"
     d="m 48.873753,6.5269079 c -0.784,-0.071 -1.56,-0.172 -2.328,-0.302 -1.202,-1.006 -2.532,-1.96 -3.996,-2.853 -3.736,-2.279 -6.669,-2.75499996 -9.58,-3.17900396 -0.007,-0.005 -0.014,-0.011 -0.021,-0.017 5.938,0.537004 11.436,2.81400396 15.925,6.35100396 z"
     fill="#415880"
     id="path742" />
  <path
     fill-rule="evenodd"
     clip-rule="evenodd"
     d="m 49.954753,9.2738879 c -0.002,0 -0.004,0 -0.007,0 -0.092,0 -0.185,0 -0.277,-10e-4 -0.926,-1.058 -1.966,-2.077 -3.125,-3.048 0.768,0.13 1.544,0.231 2.328,0.302 1.052,0.829 2.049,1.727 2.982,2.688 -0.637,0.039 -1.271,0.059 -1.901,0.059 z m -16.986,-9.08100296 c -0.086,-0.012 -0.173,-0.025 -0.26,-0.037 0.079,0.006 0.159,0.013 0.238,0.02 0.009,0.006 0.016,0.012 0.022,0.017 z"
     fill="#2e4775"
     id="path744" />
  <path
     fill-rule="evenodd"
     clip-rule="evenodd"
     d="m 52.713753,13.581868 c -0.829,-1.492 -1.839,-2.933 -3.043,-4.3090001 0.093,0.001 0.186,0.001 0.277,0.001 0.003,0 0.005,0 0.007,0 0.63,0 1.264,-0.02 1.9,-0.06 1.188,1.2220001 2.273,2.5450001 3.243,3.9590001 -0.784,0.166 -1.579,0.303 -2.384,0.409 z"
     fill="#415880"
     id="path746" />
  <path
     fill-rule="evenodd"
     clip-rule="evenodd"
     d="m 55.333753,20.939968 c -0.451,-2.521 -1.311,-5.002 -2.62,-7.358 0.806,-0.106 1.601,-0.243 2.385,-0.408 1.4,2.039 2.557,4.266 3.427,6.639 -1.037,0.427 -2.102,0.804 -3.192,1.127 z"
     fill="#2d456d"
     id="path748" />
  <path
     fill-rule="evenodd"
     clip-rule="evenodd"
     d="m 55.661753,23.652968 c -0.06,-0.909 -0.167,-1.812 -0.328,-2.712 1.09,-0.323 2.155,-0.7 3.191,-1.127 0.289,0.789 0.548,1.595 0.772,2.416 -1.175,0.54 -2.388,1.017 -3.635,1.423 z"
     fill="#3a5787"
     id="path750" />
  <path
     fill-rule="evenodd"
     clip-rule="evenodd"
     d="m 55.335753,29.738868 c 0.342,-2.015 0.458,-4.056 0.326,-6.086 1.247,-0.406 2.46,-0.883 3.635,-1.423 0.451,1.65 0.766,3.359 0.932,5.118 -1.553,0.919 -3.188,1.72 -4.893,2.391 z"
     fill="#314876"
     id="path752" />
  <path
     fill-rule="evenodd"
     clip-rule="evenodd"
     d="m 55.009753,31.362968 c 0.125,-0.539 0.233,-1.08 0.326,-1.624 1.705,-0.671 3.34,-1.472 4.892,-2.392 0.012,0.115 0.022,0.229 0.031,0.343 0.027,0.332 0.049,0.663 0.066,0.992 -1.678,1.039 -3.453,1.938 -5.315,2.681 z"
     fill="#415880"
     id="path754" />
  <path
     fill-rule="evenodd"
     clip-rule="evenodd"
     d="m 46.432753,46.502868 c 4.243,-4.188 7.276,-9.519 8.576,-15.14 1.862,-0.743 3.638,-1.642 5.316,-2.681 0.202,3.994 -0.387,7.853 -1.635,11.426 -3.546,2.891 -7.694,5.096 -12.257,6.395 z"
     fill="#334f79"
     id="path756" />
  <path
     fill-rule="evenodd"
     clip-rule="evenodd"
     d="m 39.283753,51.791868 c 2.64,-1.413 5.044,-3.21 7.149,-5.289 4.563,-1.299 8.711,-3.504 12.258,-6.395 -0.555,1.589 -1.24,3.122 -2.045,4.583 -4.862,3.816 -10.802,6.365 -17.362,7.101 z"
     fill="#2e4775"
     id="path758" />
  <path
     fill-rule="evenodd"
     clip-rule="evenodd"
     d="m 34.846753,54.258868 c -0.002,0 -0.003,0 -0.006,0 -0.551,0 -1.1,-0.013 -1.646,-0.039 2.136,-0.58 4.174,-1.4029 6.088,-2.4279 6.56,-0.736 12.5,-3.285 17.362,-7.101 -0.674,1.226 -1.432,2.401 -2.266,3.518 -4.774,3.288 -10.445,5.413 -16.635,5.929 -0.971,0.081 -1.939,0.1209 -2.897,0.1209 z"
     fill="#3a5787"
     id="path760" />
  <path
     fill-rule="evenodd"
     clip-rule="evenodd"
     d="m 32.769753,58.502868 c -0.002,0 -0.004,0 -0.006,0 -7.146,-0.003 -13.86,-2.217 -19.424,-6.04 4.294,1.892 8.502,2.738 12.496,2.738 2.55,0 5.014,-0.345 7.359,-0.981 0.546,0.026 1.095,0.039 1.646,0.039 0.003,0 0.004,0 0.006,0 0.958,0 1.926,-0.04 2.898,-0.121 6.19,-0.516 11.86,-2.641 16.635,-5.929 -2.281,3.054 -5.134,5.673 -8.415,7.687 -3.202,1.323 -6.66,2.182 -10.297,2.485 -0.016,0.002 -0.03,0.003 -0.046,0.004 -0.957,0.079 -1.908,0.118 -2.852,0.118 z"
     fill="#314977"
     id="path762" />
  <path
     fill-rule="evenodd"
     clip-rule="evenodd"
     d="m 4.6067528,46.219968 c -0.962,-1.53 -1.79299,-3.157 -2.47199,-4.863 0.005,0.01 0.00999,0.021 0.01599,0.031 0.677,1.696 1.5,3.31 2.456,4.832 z"
     fill="#02113b"
     id="path764" />
  <path
     fill-rule="evenodd"
     clip-rule="evenodd"
     d="m 5.0367428,46.880968 c -0.147,-0.218 -0.28899,-0.438 -0.42999,-0.661 -0.956,-1.522 -1.779,-3.136 -2.456,-4.832 v 0.002 c 0.777,1.943 1.74599,3.78 2.88599,5.491 z"
     fill="#705f5d"
     id="path766" />
  <path
     fill-rule="evenodd"
     clip-rule="evenodd"
     d="m 30.141753,60.343868 c -10.346,0 -19.656,-5.283 -25.1050102,-13.463 -1.14,-1.711 -2.10899,-3.548 -2.88599,-5.491 1.703,3.498 3.415,6.993 8.4050002,9.704 0.93,0.506 1.859,0.962 2.782,1.369 5.564,3.823 12.277,6.038 19.426,6.04 0.002,0 0.004,0 0.006,0 h 10e-4 c 0.943,0 1.894,-0.039 2.852,-0.118 0.016,-10e-4 0.03,-0.002 0.046,-0.004 3.637,-0.303 7.095,-1.162 10.297,-2.485 -3.899,2.394 -8.405,3.935 -13.278,4.341 -0.855,0.071 -1.703,0.107 -2.546,0.107 z"
     fill="#273b64"
     id="path768" />
  <path
     fill-rule="evenodd"
     clip-rule="evenodd"
     d="m 17.550753,21.168868 c -2.648,-2.837 -4.828,-6.134 -6.403,-9.77 1.574,3.636 3.754,6.932 6.403,9.77 z m 6.54,-3.315 c -3.432,-2.769 -6.318,-6.205 -8.453,-10.1330201 2.133,3.9280201 5.021,7.3640201 8.453,10.1330201 z m 2.442,-1.779 c -3.56,-2.561 -6.604,-5.816 -8.921,-9.5870201 2.317,3.7710201 5.361,7.0260201 8.922,9.5860201 z"
     fill="#aab394"
     id="path770" />
  <path
     fill-rule="evenodd"
     clip-rule="evenodd"
     d="m 32.314753,9.2288579 c -2.584,-1.595 -4.926,-3.562 -6.942,-5.832 1.006,-0.207 1.95,-0.31299 2.809,-0.31299 2.002,0 3.537,0.57099 4.286,1.75999 0.715,1.136 0.613,2.676 -0.153,4.385 z"
     fill="#649eb3"
     id="path772" />
  <path
     fill-rule="evenodd"
     clip-rule="evenodd"
     d="m 26.533753,16.073868 c -3.561,-2.56 -6.605,-5.815 -8.922,-9.5860201 2.701,-1.559 5.398,-2.605 7.761,-3.091 2.017,2.27 4.357,4.237 6.942,5.832 -0.97,2.1690201 -3.004,4.6100201 -5.781,6.8450201 z"
     fill="#558c9e"
     id="path774" />
  <path
     fill-rule="evenodd"
     clip-rule="evenodd"
     d="m 24.090753,17.853868 c -3.432,-2.769 -6.319,-6.205 -8.453,-10.1329501 0.284,-0.191 0.572,-0.379 0.867,-0.565 0.368,-0.232 0.738,-0.455 1.107,-0.668 2.317,3.7709501 5.361,7.0259501 8.921,9.5869501 -0.761,0.611 -1.576,1.208 -2.442,1.779 z"
     fill="#579bb5"
     id="path776" />
  <path
     fill-rule="evenodd"
     clip-rule="evenodd"
     d="m 17.550753,21.168968 c -2.648,-2.837 -4.828,-6.134 -6.403,-9.77 1.262,-1.271 2.776,-2.5230201 4.49,-3.6780201 2.135,3.9280201 5.022,7.3640201 8.453,10.1330201 -0.199,0.131 -0.4,0.261 -0.604,0.39 -2.002,1.26 -4.025,2.242 -5.936,2.925 z"
     fill="#5788a0"
     id="path778" />
  <path
     fill-rule="evenodd"
     clip-rule="evenodd"
     d="m 15.998753,21.665968 c -2.356,-2.774 -4.288,-5.938 -5.68,-9.39 0.263,-0.293 0.538,-0.586 0.828,-0.878 1.575,3.636 3.755,6.933 6.403,9.77 -0.527,0.189 -1.044,0.355 -1.551,0.498 z"
     fill="#649eb3"
     id="path780" />
  <path
     fill-rule="evenodd"
     clip-rule="evenodd"
     d="m 11.807753,22.314868 c -2.0020002,0 -3.5380002,-0.571 -4.2860002,-1.76 -1.233,-1.958 -0.031,-5.119 2.7970002,-8.278 1.392,3.454 3.321,6.615 5.68,9.39 -1.526,0.428 -2.948,0.648 -4.191,0.648 z"
     fill="#5595aa"
     id="path782" />
</svg>
