<?xml version="1.0" encoding="UTF-8" standalone="no"?>
<svg
   width="55.081997"
   height="55.081982"
   viewBox="0 0 55.081997 55.081982"
   fill="none"
   version="1.1"
   id="svg929"
   sodipodi:docname="pluto.svg"
   inkscape:version="1.2.2 (b0a8486541, 2022-12-01)"
   xmlns:inkscape="http://www.inkscape.org/namespaces/inkscape"
   xmlns:sodipodi="http://sodipodi.sourceforge.net/DTD/sodipodi-0.dtd"
   xmlns="http://www.w3.org/2000/svg"
   xmlns:svg="http://www.w3.org/2000/svg">
  <defs
     id="defs933" />
  <sodipodi:namedview
     id="namedview931"
     pagecolor="#ffffff"
     bordercolor="#000000"
     borderopacity="0.25"
     inkscape:showpageshadow="2"
     inkscape:pageopacity="0.0"
     inkscape:pagecheckerboard="0"
     inkscape:deskcolor="#d1d1d1"
     showgrid="false"
     inkscape:zoom="6.0632911"
     inkscape:cx="3.6283925"
     inkscape:cy="39.087683"
     inkscape:window-width="1280"
     inkscape:window-height="651"
     inkscape:window-x="0"
     inkscape:window-y="32"
     inkscape:window-maximized="1"
     inkscape:current-layer="svg929" />
  <path
     d="m 27.540998,55.081982 c 15.2105,0 27.541,-12.3305 27.541,-27.541 C 55.081998,12.330482 42.751498,0 27.540998,0 12.330498,0 0,12.330482 0,27.540982 c 0,15.2105 12.330498,27.541 27.540998,27.541 z"
     fill="#faf28d"
     id="path907" />
  <path
     fill-rule="evenodd"
     clip-rule="evenodd"
     d="m 29.592998,12.945982 c -0.825,0.152 -1.575,0.4449 -2.023,0.7509 -0.448,0.306 -0.594,0.625 -0.601,0.871 -0.008,0.247 0.124,0.4221 0.283,0.5811 0.159,0.16 0.345,0.3049 0.53,0.4489 0.494,0.319 1.108,0.5831 1.711,0.7451 0.961,0.258 1.898,0.258 2.718,0.094 0.82,-0.164 1.524,-0.492 1.921,-1.125 0.084,-0.507 0.168,-1.0151 -0.149,-1.4381 -0.318,-0.424 -1.039,-0.7639 -1.851,-0.9279 -0.81,-0.164 -1.713,-0.152 -2.539,0 z"
     fill="#e6c49d"
     id="path909" />
  <path
     fill-rule="evenodd"
     clip-rule="evenodd"
     d="m 0.618988,33.375982 c 0.214,0.811 0.428,1.621 0.681,2.423 0.253,0.803 0.545,1.597 1.129,2.426 0.587,0.829 1.468,1.691 2.306,2.216 0.839,0.525 1.636,0.713 1.823,0.267 0.188,-0.445 -0.23398,-1.522 -0.60898,-2.811 -0.375,-1.288 -0.703,-2.788 0,-3.748 0.703,-0.961 2.43601,-1.383 3.51401,-1.898 1.07798,-0.516 1.49998,-1.125 1.99198,-1.359 0.492,-0.234 1.055,-0.094 1.757,-0.023 0.703,0.07 1.546,0.07 2.296,0.304 0.749,0.234 1.405,0.703 1.897,1.265 0.492,0.563 0.82,1.219 1.242,1.476 0.422,0.258 0.936,0.117 1.194,-0.164 0.259,-0.281 0.259,-0.703 0.234,-1.476 -0.023,-0.773 -0.07,-1.897 0.047,-2.671 0.117,-0.773 0.398,-1.194 0.539,-2.014 0.141,-0.82 0.141,-2.039 0.07,-2.835 -0.07,-0.797 -0.211,-1.172 -0.211,-1.546 0,-0.375 0.141,-0.75 0.422,-1.242 0.28,-0.492 0.703,-1.101 1.008,-1.499 0.304,-0.399 0.491,-0.586 0.819,-0.797 0.327,-0.211 0.797,-0.445 1.388,-0.78 0.591,-0.335 1.304,-0.771 1.984,-0.677 0.679,0.094 1.324,0.717 1.999,1.099 0.674,0.381 1.377,0.522 1.939,0.592 0.563,0.07 0.984,0.07 1.5,-0.07 0.515,-0.141 1.124,-0.422 0.538,-0.75 -0.585,-0.328 -2.366,-0.703 -3.912,-1.007 -1.546,-0.305 -2.857,-0.539 -4.053,-0.82 -1.195,-0.281 -2.273,-0.609 -2.227,-1.007 0.047,-0.399 1.219,-0.867 1.805,-1.476 0.586,-0.61 0.586,-1.359 0.656,-2.039 0.069,-0.679 0.211,-1.288 0.538,-1.734 0.328,-0.445 0.844,-0.725 1.359,-0.89 0.515,-0.164 1.03,-0.21 1.429,-0.351 0.398,-0.141 0.68,-0.37499 1.219,-0.49199 0.538,-0.117 1.335,-0.117 2.085,-0.094 0.75,0.023 1.453,0.07 2.015,0.258 0.562,0.18699 0.984,0.51499 1.64,0.81999 0.656,0.304 1.546,0.585 2.624,0.632 4.724,0.206 0.879,-0.15 0.468,-0.562 -0.608,-0.609 -0.561,-2.01498 -0.257,-2.88198 0.305,-0.866 0.867,-1.19401 1.335,-1.28801 0.47,-0.094 0.845,0.047 1.078,0.14 0.234,0.094 0.328,0.14101 0.844,0.25801 0.516,0.117 1.452,0.30499 2.308,0.33099 0.855,0.025 1.627,-0.111 2.054,-0.143 0.427,-0.033 0.509,0.038 0.59,0.108 C 40.864998,2.583992 34.504998,0 27.541998,0 12.330998,0 0.00101,12.329982 0.00101,27.540982 c -0.001,2.002 0.211981,3.954 0.617978,5.835 z"
     fill="#c3724e"
     id="path911" />
  <path
     fill-rule="evenodd"
     clip-rule="evenodd"
     d="m 27.569998,13.696982 c 0.448,-0.306 1.198,-0.599 2.023,-0.751 0.826,-0.152 1.728,-0.164 2.539,0 0.812,0.163 1.532,0.504 1.851,0.928 0.317,0.423 0.233,0.931 0.149,1.438 0.398,-0.632 0.492,-1.569 -0.164,-2.225 -0.655,-0.656 -2.061,-1.031 -3.42,-0.984 -1.358,0.047 -2.671,0.515 -3.326,1.077 -0.656,0.563 -0.656,1.219 -0.165,1.804 0.183,0.218 0.434,0.425 0.726,0.614 -0.186,-0.144 -0.371,-0.289 -0.53,-0.449 -0.159,-0.159 -0.291,-0.334 -0.283,-0.581 0.006,-0.246 0.151,-0.565 0.6,-0.871 z"
     fill="#9f5f4c"
     id="path913" />
  <path
     fill-rule="evenodd"
     clip-rule="evenodd"
     d="m 29.493998,16.342982 c -0.603,-0.162 -1.217,-0.426 -1.711,-0.745 -0.292,-0.189 -0.543,-0.396 -0.726,-0.614 -0.491,-0.585 -0.491,-1.241 0.165,-1.804 0.655,-0.562 1.968,-1.03 3.326,-1.077 1.358,-0.047 2.765,0.328 3.42,0.984 0.656,0.656 0.563,1.593 0.164,2.225 -0.397,0.633 -1.101,0.961 -1.921,1.125 -0.819,0.164 -1.756,0.164 -2.717,-0.094 z m 12.925,3.939 c -0.233,-0.422 -0.233,-1.124 -0.445,-1.499 -0.211,-0.375 -0.631,-0.422 -0.959,-0.492 -0.328,-0.071 -0.563,-0.164 -1.267,-0.398 -0.702,-0.235 -1.874,-0.61 -1.78,-0.961 0.095,-0.352 1.453,-0.68 2.719,-0.844 1.265,-0.164 2.436,-0.164 3.536,0.211 1.102,0.375 2.133,1.126 2.741,1.711 0.61,0.585 0.798,1.007 1.267,1.218 0.468,0.211 1.218,0.211 1.943,-0.07 0.727,-0.282 1.43,-0.844 1.759,-1.548 0.331,-0.704 0.287,-1.549 0.244,-2.395 -1.601,-3.194 -3.805,-6.033 -6.463,-8.369 -0.081,-0.07 -0.163,-0.141 -0.59,-0.108 -0.427,0.032 -1.199,0.16801 -2.054,0.14301 -0.855,-0.026 -1.792,-0.214 -2.308,-0.331 -0.516,-0.117 -0.609,-0.16401 -0.844,-0.25801 -0.233,-0.093 -0.608,-0.234 -1.078,-0.14 -0.468,0.094 -1.03,0.42201 -1.335,1.28801 -0.305,0.867 -0.352,2.27299 0.257,2.88199 0.411,0.411 4.256,0.768 -0.468,0.562 -1.078,-0.047 -1.968,-0.328 -2.624,-0.632 -0.655,-0.305 -1.078,-0.633 -1.64,-0.82 -0.561,-0.188 -1.265,-0.235 -2.015,-0.258 -0.75,-0.023 -1.547,-0.023 -2.085,0.094 -0.539,0.117 -0.82,0.351 -1.219,0.492 -0.398,0.14 -0.914,0.187 -1.429,0.351 -0.516,0.165 -1.031,0.445 -1.359,0.89 -0.327,0.446 -0.469,1.055 -0.538,1.734 -0.07,0.68 -0.07,1.429 -0.656,2.039 -0.586,0.609 -1.758,1.077 -1.805,1.476 -0.047,0.398 1.031,0.726 2.227,1.007 1.195,0.281 2.507,0.515 4.053,0.82 1.546,0.304 3.327,0.679 3.912,1.007 0.586,0.328 -0.023,0.609 -0.538,0.75 -0.516,0.14 -0.938,0.14 -1.5,0.07 -0.561,-0.07 -1.265,-0.211 -1.939,-0.592 -0.675,-0.382 -1.32,-1.005 -1.999,-1.099 -0.681,-0.094 -1.394,0.342 -1.984,0.677 -0.591,0.335 -1.061,0.569 -1.388,0.78 -0.328,0.211 -0.516,0.398 -0.819,0.797 -0.305,0.398 -0.728,1.007 -1.008,1.499 -0.281,0.492 -0.422,0.867 -0.422,1.242 0,0.374 0.141,0.749 0.211,1.546 0.07,0.796 0.07,2.015 -0.07,2.835 -0.141,0.82 -0.422,1.241 -0.539,2.014 -0.117,0.774 -0.07,1.898 -0.047,2.671 0.024,0.773 0.024,1.195 -0.234,1.476 -0.258,0.281 -0.772,0.422 -1.194,0.164 -0.422,-0.257 -0.75,-0.913 -1.242,-1.476 -0.492,-0.562 -1.148,-1.031 -1.897,-1.265 -0.75,-0.234 -1.593,-0.234 -2.296,-0.304 -0.702,-0.071 -1.265,-0.211 -1.757,0.023 -0.492,0.234 -0.914,0.843 -1.99199,1.359 -1.078,0.515 -2.81001,0.937 -3.51401,1.898 -0.703,0.96 -0.375,2.46 0,3.748 0.375,1.289 0.79701,2.366 0.60901,2.811 -0.188,0.446 -0.984,0.258 -1.823,-0.267 -0.838,-0.525 -1.719,-1.387 -2.306,-2.216 -0.584,-0.829 -0.876,-1.623 -1.129,-2.426 -0.253,-0.802 -0.467,-1.612 -0.681,-2.423 1.263,5.856 4.38798,11.019 8.72498,14.839 -0.252,-1.064 -0.503,-2.128 -0.629,-2.731 -0.126,-0.602 -0.12598,-0.743 0.39002,-0.696 0.51599,0.047 1.54699,0.281 2.08499,0.281 0.539,0 0.586,-0.234 0.633,-0.539 0.047,-0.304 0.094,-0.679 0.398,-0.843 0.305,-0.164 0.866,-0.117 1.383,-0.375 0.515,-0.258 0.983,-0.82 1.757,-1.335 0.772,-0.516 1.851,-0.984 3.817,-1.101 1.019,-0.061 2.274,-0.028 3.458,0.006 1.104,0.031 2.145,0.061 2.868,0.017 1.5,-0.094 1.641,-0.517 1.71,-1.125 0.071,-0.609 0.071,-1.405 -0.515,-2.553 -0.586,-1.148 -1.757,-2.648 -2.343,-3.819 -0.586,-1.172 -0.586,-2.015 -0.023,-2.46 0.563,-0.445 1.688,-0.492 2.315,-0.992 0.628,-0.501 0.761,-1.455 1.158,-1.97 0.398,-0.516 1.062,-0.593 1.699,-0.608 0.638,-0.015 1.246,0.032 1.785,0.407 0.539,0.375 1.007,1.078 0.984,2.062 -0.023,0.984 -0.539,2.249 0.14,2.764 0.68,0.516 2.554,0.282 3.655,0.024 1.101,-0.258 1.429,-0.539 1.898,-0.586 0.47,-0.047 1.078,0.141 1.991,0.375 0.914,0.234 2.132,0.515 3.023,0.82 0.89,0.304 1.452,0.632 2.014,0.726 0.331,0.055 0.662,0.029 1.06,0.003 0.278,-0.019 0.589,-0.036 0.956,-0.026 0.89,0.023 2.108,0.211 2.74,0.539 0.633,0.327 0.68,0.796 0.68,1.241 0,0.445 -0.047,0.867 0.415,1.149 0.463,0.283 1.433,0.425 1.911,0.514 0.48,0.088 0.467,0.123 0.121,0.829 -0.345,0.707 -1.021,2.085 -1.568,3.095 -0.55,1.01 -0.972,1.651 -1.392,2.292 2.861,-3.98 4.688,-8.755 5.083,-13.93 l 0.067,-1.774 c 0.014,-0.355 0.014,-0.355 -0.238,-0.393 -0.252,-0.039 -0.755,-0.116 -1.194,-0.271 -0.439,-0.156 -0.814,-0.39 -0.978,-0.671 -0.164,-0.281 -0.117,-0.609 0.023,-1.078 0.141,-0.468 0.376,-1.078 0.328,-1.663 -0.047,-0.586 -0.375,-1.148 -0.75,-1.429 -0.375,-0.282 -0.796,-0.282 -1.476,-0.305 -0.679,-0.023 -1.616,-0.07 -2.366,-0.211 -0.75,-0.14 -1.311,-0.375 -1.874,-0.632 -0.563,-0.258 -1.125,-0.539 -1.617,-0.586 -0.491,-0.047 -0.914,0.141 -1.358,0.164 -0.445,0.023 -0.912,-0.117 -1.148,-0.539 z"
     fill="#f0d082"
     id="path915" />
  <path
     fill-rule="evenodd"
     clip-rule="evenodd"
     d="m 27.540998,55.081982 c -0.014,0 -0.028,0 -0.041,0 0.015,0 0.028,0 0.041,0 9.397,0 17.72,-4.747 22.694,-11.966 -0.107,0.165 -0.212,0.3249 -0.317,0.4839 1.151,-1.601 2.136,-3.3309 2.926,-5.1639 -4.223,9.791 -13.963,16.646 -25.303,16.646 z m -0.052,0 c -0.011,0 -0.02,0 -0.03,0 0.009,0 0.02,0 0.03,0 z m -0.042,0 c -0.011,0 -0.023,0 -0.034,0 0.01,0 0.023,0 0.034,0 z m -0.04,0 c -6.922,-0.034 -13.241,-2.621 -18.063,-6.867 -0.003,-0.012 -0.00601,-0.024 -0.00901,-0.037 4.82801,4.2649 11.15701,6.87 18.07201,6.904 z m -23.287,-13.0421 c -0.002,-0.005 -0.00399,-0.0079 -0.00699,-0.0119 0.003,0.004 0.00599,0.0079 0.00699,0.0119 z m -0.01599,-0.028 c -0.002,-0.004 -0.006,-0.0089 -0.008,-0.0139 0.002,0.005 0.005,0.0089 0.008,0.0139 z m -0.034,-0.0549 c -0.003,-0.006 -0.00601,-0.011 -0.01001,-0.017 0.003,0.006 0.00701,0.011 0.01001,0.017 z m -0.05301,-0.085 c -0.004,-0.007 -0.00599,-0.013 -0.01099,-0.019 0.003,0.006 0.00699,0.012 0.01099,0.019 z m -0.01801,-0.029 c -0.004,-0.007 -0.00698,-0.013 -0.01098,-0.019 0.005,0.006 0.00798,0.012 0.01098,0.019 z m -0.01599,-0.029 c -0.004,-0.007 -0.00799,-0.0131 -0.01199,-0.0201 0.004,0.007 0.00799,0.0141 0.01199,0.0201 z m -0.05099,-0.085 c -0.006,-0.008 -0.01002,-0.014 -0.01502,-0.022 0.004,0.007 0.00902,0.015 0.01502,0.022 z m -0.01901,-0.029 c -0.005,-0.008 -0.009,-0.015 -0.013,-0.023 0.005,0.008 0.01,0.016 0.013,0.023 z m -0.069,-0.1151 c -0.004,-0.008 -0.00999,-0.0169 -0.01499,-0.0249 0.005,0.008 0.00999,0.0159 0.01499,0.0249 z m -0.016,-0.028 c -0.005,-0.009 -0.01099,-0.0179 -0.01599,-0.0269 0.006,0.009 0.01099,0.0179 0.01599,0.0269 z m -0.03399,-0.0569 c -0.012,-0.02 -0.02202,-0.039 -0.03302,-0.058 0.011,0.019 0.02302,0.038 0.03302,0.058 z m -0.05002,-0.088 c -1.066,-1.824 -1.92699,-3.781 -2.55399,-5.841 0.627,2.06 1.48699,4.017 2.55399,5.841 z m 49.10001,-2.977 c 0.012,-0.026 0.022,-0.052 0.033,-0.078 -0.01,0.026 -0.021,0.052 -0.033,0.078 z m 0.034,-0.081 c 0.012,-0.026 0.022,-0.052 0.033,-0.078 -0.01,0.027 -0.021,0.052 -0.033,0.078 z m 0.045,-0.106 c 0.008,-0.017 0.015,-0.033 0.021,-0.05 -0.006,0.016 -0.013,0.034 -0.021,0.05 z m 0.024,-0.054 c 0.003,-0.007 0.006,-0.014 0.009,-0.023 -0.004,0.008 -0.006,0.016 -0.009,0.023 z m 0.013,-0.034 c 0.006,-0.013 0.011,-0.026 0.017,-0.039 -0.006,0.013 -0.012,0.026 -0.017,0.039 z m 0.021,-0.046 c 0.002,-0.007 0.005,-0.014 0.008,-0.021 -0.003,0.007 -0.005,0.013 -0.008,0.021 z m 0.013,-0.034 c 0.003,-0.006 0.005,-0.012 0.008,-0.018 -0.003,0.006 -0.006,0.013 -0.008,0.018 z m 0.019,-0.047 c 0.003,-0.005 0.005,-0.0101 0.007,-0.0151 -0.002,0.006 -0.004,0.0101 -0.007,0.0151 z m 0.015,-0.0341 c 0.002,-0.005 0.004,-0.0099 0.006,-0.0149 -0.002,0.005 -0.004,0.0089 -0.006,0.0149 z m 0.033,-0.08 c 0.001,-0.004 0.003,-0.008 0.005,-0.013 -0.002,0.005 -0.003,0.008 -0.005,0.013 z m 0.016,-0.0389 c 10e-4,-0.003 0.002,-0.0051 0.003,-0.008 -0.003,0.0029 -0.003,0.005 -0.003,0.008 z m 0.031,-0.078 c 10e-4,-0.003 0.002,-0.006 0.003,-0.009 -0.001,0.004 -0.002,0.006 -0.003,0.009 z m 0.049,-0.123 10e-4,-0.002 c 0,10e-4 -10e-4,10e-4 -10e-4,0.002 z m 1.844,-8.011 10e-4,-0.017 c 0.054,-0.697 0.08,-1.4 0.08,-2.11 0,0.716 -0.026,1.425 -0.081,2.127 z m 0.081,-2.183 c 0,-0.01 0,-0.019 0,-0.03 0,0.01 0,0.02 0,0.03 z m 0,-0.0421 c 0,-0.0109 0,-0.0199 0,-0.0309 0,0.01 0,0.02 0,0.0309 z m 0,-0.0419 c 0,-0.012 -10e-4,-0.022 -10e-4,-0.034 0,0.012 10e-4,0.023 10e-4,0.034 z m -10e-4,-0.042 c 0,-0.014 0,-0.026 0,-0.04 0,0.013 0,0.0269 0,0.04 z m 0,-0.04 c -0.034,-4.33 -1.076,-8.4261 -2.902,-12.0661 0,-0.012 -0.002,-0.0249 -0.002,-0.0379 1.828,3.647 2.87,7.755 2.904,12.104 z m -2.946,-12.186 c -0.003,-0.006 -0.005,-0.011 -0.008,-0.016 0.003,0.006 0.005,0.01 0.008,0.016 z m -0.017,-0.0371 c -0.002,-0.004 -0.004,-0.007 -0.006,-0.011 0.002,0.003 0.004,0.008 0.006,0.011 z m -0.019,-0.0359 c 0,-10e-4 0,-10e-4 -0.001,-0.002 z m -19.294,-14.558045 c -0.002,0 -0.004,-7e-6 -0.005,-0.001007 0.003,0.001 0.003,0.001007 0.005,0.001007 z m -0.186,-0.035003 c -0.003,0 -0.007,10e-7 -0.01,-0.001999 0.004,0.001 0.006,9.99e-4 0.01,0.001999 z m -0.039,-0.007004 c -0.003,-0.001 -0.006,-9.99e-4 -0.008,-0.001999 0.002,0 0.005,9.99e-4 0.008,0.001999 z m -0.038,-0.006989 c -0.004,-0.001 -0.007,-0.001998 -0.01,-0.001998 0.004,0 0.006,9.98e-4 0.01,0.001998 z m -0.152,-0.027999 c -0.005,-0.001 -0.008,-9.99e-4 -0.011,-0.001999 0.003,0.001 0.007,0.001999 0.011,0.001999 z m -0.076,-0.013001 c -0.003,-0.001 -0.009,-0.001999 -0.013,-0.001999 0.004,0 0.009,9.99e-4 0.013,0.001999 z m -0.193,-0.033005 c -0.002,0 -0.003,-0.001007 -0.004,-0.001007 0.002,0 0.002,0.001007 0.004,0.001007 z"
     fill="#54434d"
     id="path917" />
  <path
     fill-rule="evenodd"
     clip-rule="evenodd"
     d="m 27.540998,55.081982 c -0.014,0 -0.026,0 -0.041,0 -0.004,0 -0.008,0 -0.012,0 -0.01,0 -0.02,0 -0.03,0 -0.004,0 -0.008,0 -0.012,0 -0.011,0 -0.023,0 -0.034,0 -0.002,0 -0.004,0 -0.006,0 -6.915,-0.034 -13.243,-2.639 -18.07101,-6.904 -0.248,-1.052 -0.49599,-2.098 -0.61999,-2.694 -0.002,-0.006 -0.003,-0.013 -0.004,-0.019 5.11,3.214 10.254,4.6 15.117,4.6 10.878,0 20.329,-6.95 24.738,-15.953 0.462,0.09 0.889,0.213 1.186,0.368 0.633,0.327 0.68,0.796 0.68,1.241 0,0.445 -0.047,0.867 0.415,1.149 0.463,0.283 1.433,0.425 1.911,0.514 0.48,0.088 0.467,0.123 0.121,0.829 -0.345,0.707 -1.021,2.085 -1.568,3.095 -0.412,0.759 -0.754,1.309 -1.075,1.808 -4.975,7.219 -13.298,11.966 -22.695,11.966 z m 27.461,-25.431 0.066,-1.755 c 0.014,-0.355 0.014,-0.355 -0.238,-0.393 -0.252,-0.039 -0.755,-0.116 -1.194,-0.271 -0.439,-0.156 -0.814,-0.39 -0.978,-0.671 -0.164,-0.281 -0.117,-0.609 0.023,-1.078 0.141,-0.468 0.376,-1.078 0.328,-1.663 -0.047,-0.586 -0.375,-1.148 -0.75,-1.429 -0.294,-0.221 -0.616,-0.268 -1.07,-0.29 -0.048,-1.088 -0.178,-2.178 -0.391,-3.26 0.483,-0.307 0.902,-0.733 1.135,-1.232 0.325,-0.694 0.288,-1.525 0.246,-2.357 1.826,3.641 2.868,7.737 2.902,12.066 0,0.014 0,0.026 0,0.04 0,0.003 0,0.005 0,0.008 0,0.012 10e-4,0.022 10e-4,0.034 0,0.004 0,0.007 0,0.011 0,0.011 0,0.02 0,0.031 0,0.004 0,0.008 0,0.012 0,0.011 0,0.02 0,0.03 0,0.004 0,0.01 0,0.014 0,0.014 0,0.028 0,0.042 0,0.711 -0.026,1.414 -0.08,2.111 z m -9.412,-22.88499 c -0.058,-0.022 -0.14,-0.03599 -0.27,-0.03699 0.131,10e-4 0.213,0.01499 0.27,0.03699 z"
     fill="#dfc190"
     id="path919" />
  <path
     fill-rule="evenodd"
     clip-rule="evenodd"
     d="m 1.854008,37.247982 c -0.178,-0.366 -0.31401,-0.727 -0.43601,-1.09 0.142,0.364 0.28501,0.728 0.43601,1.09 z m 43.85799,-30.40405 c -0.032,-0.028 -0.065,-0.056 -0.122,-0.078 -0.058,-0.022 -0.14,-0.03599 -0.27,-0.03699 h -0.003 -0.002 c -0.018,0 -0.036,9.9e-4 -0.055,9.9e-4 -0.004,0 -0.007,0 -0.01,0 -0.036,0.002 -0.075,0.00401 -0.117,0.00701 -0.003,0 -0.006,-10e-6 -0.01,9.9e-4 -0.007,0 -0.014,0.001 -0.021,0.001 -0.238,0.02 -0.579,0.06901 -0.978,0.10401 -0.988,-0.968 -2.086,-1.89901 -3.304,-2.79001 -3.321,-2.428 -6.012,-3.051 -8.704,-3.675003 0,0 0.002,0.001007 0.004,0.001007 0.008,0.001 0.02,0.002998 0.027,0.003998 0.004,0.002 0.008,0.001999 0.012,0.001999 0.008,0.002 0.018,0.003005 0.026,0.005005 0.004,0.001 0.008,9.99e-4 0.012,0.001999 0.009,0.001 0.017,0.002998 0.026,0.003998 0.004,0.001 0.009,0.002006 0.013,0.003006 0.009,0.001 0.018,0.001997 0.025,0.003997 0.005,0.001 0.008,9.99e-4 0.012,0.001999 0.009,0.002 0.019,0.003005 0.026,0.005005 0.004,0 0.01,9.99e-4 0.013,0.001999 0.01,0.001 0.018,0.00299 0.026,0.00499 0.005,0 0.007,0.001007 0.011,0.001007 0.01,0.003 0.018,0.004005 0.028,0.005005 0.003,0.001 0.006,9.99e-4 0.011,0.001999 0.009,0.002 0.019,0.003989 0.028,0.004989 0.003,0.001 0.005,9.99e-4 0.008,0.001999 0.011,0.001 0.021,0.003005 0.03,0.005005 0.003,0.001 0.006,9.99e-4 0.009,0.001999 0.011,0.001 0.02,0.002998 0.028,0.003998 0.004,0.001 0.007,0.001006 0.011,0.003006 0.009,0.001 0.019,0.003005 0.028,0.005005 0.003,0 0.006,9.98e-4 0.01,0.001998 0.011,0.002 0.018,0.00299 0.029,0.00499 0.002,0.001 0.005,9.99e-4 0.008,0.001999 0.009,0.001 0.02,0.003005 0.029,0.005005 0.003,0.002 0.007,0.001999 0.01,0.001999 0.01,0.002 0.018,0.003005 0.028,0.005005 0.004,0.001 0.006,9.99e-4 0.01,0.001999 0.009,0.002 0.02,0.004004 0.029,0.005004 0.003,0.001 0.005,9.99e-4 0.008,0.001999 0.01,0.002 0.021,0.003997 0.03,0.005997 0.003,0 0.004,-8e-6 0.006,9.92e-4 0.011,0.002 0.021,0.004012 0.032,0.006012 0.003,0 0.005,9.92e-4 0.007,9.92e-4 0.01,0.002 0.021,0.003996 0.031,0.005996 0,0 0.003,0.001007 0.005,0.001007 0.012,0.002 0.022,0.005004 0.034,0.007004 h 0.001 c 0.013,0.002 0.025,0.004989 0.037,0.006989 0.014,0.003 0.025,0.005011 0.038,0.008011 4.845,0.958001 9.232,3.184991 12.8,6.319991 z"
     fill="#c17e6c"
     id="path921" />
  <path
     fill-rule="evenodd"
     clip-rule="evenodd"
     d="m 9.343998,48.214982 c -1.955,-1.723 -3.66299,-3.718 -5.06699,-5.927 -0.012,-0.018 -0.023,-0.036 -0.034,-0.054 -10e-4,-0.002 -0.00201,-0.003 -0.00201,-0.004 -0.005,-0.008 -0.00998,-0.015 -0.01499,-0.023 -0.001,-0.002 -0.00202,-0.004 -0.00402,-0.006 -0.005,-0.007 -0.00998,-0.015 -0.01398,-0.022 -0.002,-0.002 -0.00301,-0.004 -0.00501,-0.007 -0.004,-0.007 -0.009,-0.014 -0.013,-0.021 -0.002,-0.003 -0.003,-0.005 -0.005,-0.008 -0.004,-0.006 -0.009,-0.013 -0.013,-0.019 -0.002,-0.003 -0.00401,-0.007 -0.00601,-0.01 -0.004,-0.006 -0.00699,-0.011 -0.01099,-0.017 -0.002,-0.004 -0.00499,-0.008 -0.00699,-0.012 -0.004,-0.005 -0.00802,-0.011 -0.01202,-0.016 -0.002,-0.004 -0.00399,-0.009 -0.00699,-0.013 -0.004,-0.005 -0.00699,-0.011 -0.01099,-0.016 -0.002,-0.004 -0.00502,-0.008 -0.00702,-0.012 -0.003,-0.006 -0.00598,-0.011 -0.00998,-0.016 -0.003,-0.005 -0.00602,-0.009 -0.00802,-0.014 -0.004,-0.004 -0.00698,-0.009 -0.00998,-0.014 -0.003,-0.005 -0.006,-0.01 -0.009,-0.015 -0.003,-0.004 -0.005,-0.008 -0.008,-0.012 -0.003,-0.006 -0.00701,-0.011 -0.01001,-0.017 -0.002,-0.004 -0.00599,-0.008 -0.00799,-0.012 -0.004,-0.006 -0.00702,-0.011 -0.01102,-0.017 -0.002,-0.003 -0.00499,-0.008 -0.00699,-0.011 -0.004,-0.006 -0.00699,-0.012 -0.01099,-0.019 -0.002,-0.003 -0.00401,-0.007 -0.00701,-0.01 -0.004,-0.007 -0.00799,-0.013 -0.01099,-0.019 -0.002,-0.003 -0.00502,-0.007 -0.00702,-0.01 -0.003,-0.007 -0.00699,-0.013 -0.01099,-0.019 -0.002,-0.003 -0.00401,-0.007 -0.00601,-0.01 -0.004,-0.006 -0.00799,-0.013 -0.01199,-0.02 -0.002,-0.003 -0.00401,-0.005 -0.00601,-0.008 -0.004,-0.007 -0.008,-0.014 -0.013,-0.021 -10e-4,-0.002 -0.003,-0.005 -0.004,-0.007 -0.004,-0.007 -0.009,-0.015 -0.013,-0.022 -0.002,-0.003 -0.003,-0.004 -0.004,-0.007 -0.006,-0.007 -0.01098,-0.015 -0.01498,-0.022 -10e-4,-0.002 -0.003,-0.005 -0.004,-0.007 -0.004,-0.007 -0.009,-0.015 -0.013,-0.023 -0.002,-0.002 -0.003,-0.004 -0.004,-0.006 -0.005,-0.007 -0.00902,-0.015 -0.01502,-0.023 -0.001,-0.002 -0.00199,-0.004 -0.00299,-0.005 -0.005,-0.008 -0.01001,-0.017 -0.01501,-0.025 0,-10e-4 -9.8e-4,-0.002 -0.00198,-0.003 -0.005,-0.008 -0.01002,-0.017 -0.01502,-0.025 -0.002,-0.001 -0.002,-0.003 -0.004,-0.004 -0.005,-0.009 -0.00998,-0.017 -0.01498,-0.025 0,-10e-4 -0.00101,-0.002 -0.00101,-0.003 -0.006,-0.009 -0.01099,-0.018 -0.01599,-0.027 0,0 -0.00101,-10e-4 -0.00101,-0.002 -0.006,-0.009 -0.01199,-0.018 -0.01699,-0.027 l -0.00101,-10e-4 c -0.011,-0.02 -0.02199,-0.039 -0.03299,-0.058 -0.007,-0.01 -0.013,-0.02 -0.017,-0.03 -1.066,-1.824 -1.92702,-3.78 -2.55402,-5.84 0.076,0.196 0.15,0.391 0.228,0.586 0.122,0.363 0.25901,0.724 0.43601,1.09 1.143,2.753 2.641,5.453 6.255,7.829 0.2,0.131 0.402,0.262 0.603,0.388 10e-4,0.006 0.002,0.013 0.004,0.019 0.124,0.596 0.37199,1.642 0.61999,2.694 0.012,0.013 0.01501,0.025 0.01801,0.037 z m 40.574,-4.615 c 0.105,-0.159 0.21,-0.319 0.317,-0.484 0.321,-0.499 0.663,-1.049 1.075,-1.808 0.548,-1.01 1.224,-2.388 1.568,-3.095 0.346,-0.706 0.358,-0.741 -0.121,-0.829 -0.478,-0.089 -1.448,-0.231 -1.911,-0.514 -0.462,-0.282 -0.415,-0.704 -0.415,-1.149 0,-0.445 -0.047,-0.914 -0.68,-1.241 -0.297,-0.155 -0.724,-0.278 -1.186,-0.368 1.844,-3.764 2.806,-7.887 2.622,-12.011 0.454,0.022 0.776,0.069 1.07,0.29 0.375,0.281 0.703,0.843 0.75,1.429 0.048,0.585 -0.188,1.195 -0.328,1.663 -0.141,0.469 -0.188,0.797 -0.023,1.078 0.164,0.281 0.539,0.515 0.978,0.671 0.44,0.155 0.942,0.232 1.194,0.271 0.252,0.038 0.252,0.038 0.238,0.393 l -0.066,1.755 -10e-4,0.017 c -0.211,2.765 -0.831,5.416 -1.798,7.892 -10e-4,0.001 -10e-4,0.002 -10e-4,0.003 -0.01,0.025 -0.018,0.049 -0.029,0.074 -10e-4,0.002 -0.002,0.004 -0.003,0.006 -0.004,0.011 -0.009,0.023 -0.013,0.034 l -10e-4,0.002 c -0.005,0.012 -0.01,0.024 -0.014,0.036 -10e-4,0.003 -0.002,0.005 -0.003,0.007 -0.005,0.01 -0.009,0.021 -0.013,0.031 -10e-4,0.002 -0.002,0.004 -0.003,0.006 -0.004,0.011 -0.009,0.023 -0.014,0.034 -10e-4,0.003 -0.002,0.006 -0.003,0.009 -0.004,0.009 -0.007,0.018 -0.012,0.027 0,0.003 -0.002,0.007 -0.004,0.009 -0.004,0.011 -0.009,0.024 -0.013,0.034 -10e-4,0.003 -0.002,0.005 -0.003,0.008 -0.004,0.008 -0.008,0.019 -0.011,0.026 -0.002,0.005 -0.004,0.009 -0.005,0.013 -0.004,0.008 -0.007,0.016 -0.011,0.024 -0.002,0.005 -0.004,0.01 -0.006,0.014 -0.003,0.009 -0.007,0.018 -0.011,0.027 -0.002,0.005 -0.004,0.01 -0.006,0.015 -0.002,0.006 -0.006,0.013 -0.008,0.019 -0.002,0.005 -0.004,0.01 -0.007,0.015 -0.004,0.01 -0.008,0.019 -0.012,0.029 -0.003,0.006 -0.005,0.012 -0.008,0.018 -10e-4,0.004 -0.003,0.009 -0.005,0.013 -0.003,0.007 -0.006,0.014 -0.008,0.021 -0.001,0.002 -0.003,0.005 -0.004,0.007 -0.006,0.013 -0.011,0.026 -0.017,0.039 -0.002,0.004 -0.003,0.008 -0.005,0.012 -0.003,0.008 -0.006,0.015 -0.009,0.023 -10e-4,10e-4 -10e-4,0.003 -0.002,0.004 -0.007,0.017 -0.014,0.033 -0.021,0.05 -0.004,0.009 -0.007,0.018 -0.011,0.027 l -10e-4,10e-4 c -0.011,0.026 -0.022,0.052 -0.033,0.078 0,10e-4 -10e-4,0.002 -10e-4,0.003 -0.011,0.026 -0.021,0.052 -0.033,0.078 -0.783,1.832 -1.767,3.563 -2.919,5.164 z m 0.88,-24.759 c -0.832,-4.23 -2.961,-8.361 -6.673,-11.99798 0.399,-0.035 0.74,-0.084 0.978,-0.104 0.007,0 0.014,-0.00101 0.021,-0.00101 0.004,-0.001 0.007,-9.9e-4 0.01,-9.9e-4 0.042,-0.003 0.081,-0.00501 0.117,-0.00701 0.003,0 0.006,0 0.01,0 0.019,0 0.036,-9.9e-4 0.055,-9.9e-4 10e-4,0 10e-4,0 0.002,0 h 0.003 c 0.13,10e-4 0.212,0.01499 0.27,0.03699 0.057,0.022 0.09,0.05 0.122,0.078 2.615,2.298 4.79,5.08299 6.386,8.21399 10e-4,10e-4 10e-4,10e-4 10e-4,0.002 0.005,0.009 0.009,0.016 0.013,0.025 0.002,0.004 0.004,0.007 0.006,0.011 0.003,0.007 0.007,0.014 0.01,0.021 0.003,0.005 0.005,0.01 0.008,0.016 0.004,0.004 0.006,0.012 0.01,0.017 0.003,0.006 0.006,0.013 0.009,0.018 0.003,0.006 0.006,0.011 0.009,0.016 0.003,0.007 0.007,0.014 0.01,0.021 0.002,0.003 0.003,0.006 0.005,0.009 0,0.012 0.002,0.025 0.002,0.038 0.042,0.832 0.079,1.664 -0.246,2.357 -0.235,0.499 -0.654,0.925 -1.138,1.232 z"
     fill="#d5a885"
     id="path923" />
  <path
     fill-rule="evenodd"
     clip-rule="evenodd"
     d="m 10.752998,18.646982 c -1.63201,0 -2.884,-0.466 -3.494,-1.435 -1.571,-2.496 1.706,-7.388 7.323,-10.92496 3.437,-2.163 6.951,-3.319 9.522,-3.319 1.632,0 2.884,0.46499 3.495,1.43399 0.876,1.392 0.245,3.527 -1.458,5.75697 -0.467,0.169 -0.918,0.438 -1.217,0.842 -0.205,0.28 -0.338,0.624 -0.425,1.009 -1.173,1.159 -2.601,2.295 -4.225,3.317 -3.435,2.164 -6.949,3.32 -9.521,3.32 z"
     fill="#d28454"
     id="path925" />
  <path
     fill-rule="evenodd"
     clip-rule="evenodd"
     d="m 24.499998,12.009982 c 0.087,-0.385 0.22,-0.7291 0.425,-1.0091 0.299,-0.404 0.75,-0.6729 1.217,-0.8419 -0.469,0.615 -1.02,1.236 -1.642,1.851 z"
     fill="#e7b16e"
     id="path927" />
</svg>
