<svg width="56" height="79" viewBox="0 0 56 79" fill="none" xmlns="http://www.w3.org/2000/svg">
<path d="M28.024 55.55C43.2345 55.55 55.565 43.2195 55.565 28.009C55.565 12.7985 43.2345 0.468018 28.024 0.468018C12.8135 0.468018 0.483002 12.7985 0.483002 28.009C0.483002 43.2195 12.8135 55.55 28.024 55.55Z" fill="#FAF28D"/>
<path fill-rule="evenodd" clip-rule="evenodd" d="M30.076 13.414C29.251 13.566 28.501 13.8589 28.053 14.1649C27.605 14.4709 27.459 14.7899 27.452 15.0359C27.444 15.2829 27.576 15.458 27.735 15.617C27.894 15.777 28.08 15.9219 28.265 16.0659C28.759 16.3849 29.373 16.649 29.976 16.811C30.937 17.069 31.874 17.069 32.694 16.905C33.514 16.741 34.218 16.413 34.615 15.78C34.699 15.273 34.783 14.7649 34.466 14.3419C34.148 13.9179 33.427 13.578 32.615 13.414C31.805 13.25 30.902 13.262 30.076 13.414Z" fill="#E6C49D"/>
<path fill-rule="evenodd" clip-rule="evenodd" d="M1.10199 33.844C1.31599 34.655 1.52999 35.465 1.78299 36.267C2.03599 37.07 2.32799 37.864 2.91199 38.693C3.49899 39.522 4.37999 40.384 5.21799 40.909C6.05699 41.434 6.85399 41.622 7.04099 41.176C7.22899 40.731 6.80701 39.654 6.43201 38.365C6.05701 37.077 5.72901 35.577 6.43201 34.617C7.13501 33.656 8.86802 33.234 9.94602 32.719C11.024 32.203 11.446 31.594 11.938 31.36C12.43 31.126 12.993 31.266 13.695 31.337C14.398 31.407 15.241 31.407 15.991 31.641C16.74 31.875 17.396 32.344 17.888 32.906C18.38 33.469 18.708 34.125 19.13 34.382C19.552 34.64 20.066 34.499 20.324 34.218C20.583 33.937 20.583 33.515 20.558 32.742C20.535 31.969 20.488 30.845 20.605 30.071C20.722 29.298 21.003 28.877 21.144 28.057C21.285 27.237 21.285 26.018 21.214 25.222C21.144 24.425 21.003 24.05 21.003 23.676C21.003 23.301 21.144 22.926 21.425 22.434C21.705 21.942 22.128 21.333 22.433 20.935C22.737 20.536 22.924 20.349 23.252 20.138C23.579 19.927 24.049 19.693 24.64 19.358C25.231 19.023 25.944 18.587 26.624 18.681C27.303 18.775 27.948 19.398 28.623 19.78C29.297 20.161 30 20.302 30.562 20.372C31.125 20.442 31.546 20.442 32.062 20.302C32.577 20.161 33.186 19.88 32.6 19.552C32.015 19.224 30.234 18.849 28.688 18.545C27.142 18.24 25.831 18.006 24.635 17.725C23.44 17.444 22.362 17.116 22.408 16.718C22.455 16.319 23.627 15.851 24.213 15.242C24.799 14.632 24.799 13.883 24.869 13.203C24.938 12.524 25.08 11.915 25.407 11.469C25.735 11.024 26.251 10.744 26.766 10.579C27.281 10.415 27.796 10.369 28.195 10.228C28.593 10.087 28.875 9.85301 29.414 9.73601C29.952 9.61901 30.749 9.61901 31.499 9.64201C32.249 9.66501 32.952 9.71201 33.514 9.90001C34.076 10.087 34.498 10.415 35.154 10.72C35.81 11.024 36.7 11.305 37.778 11.352C42.502 11.558 38.657 11.202 38.246 10.79C37.638 10.181 37.685 8.77502 37.989 7.90802C38.294 7.04202 38.856 6.71401 39.324 6.62001C39.794 6.52601 40.169 6.66701 40.402 6.76001C40.636 6.85401 40.73 6.90102 41.246 7.01802C41.762 7.13502 42.698 7.32301 43.554 7.34901C44.409 7.37401 45.181 7.23801 45.608 7.20601C46.035 7.17301 46.117 7.24401 46.198 7.31401C41.348 3.05201 34.988 0.468018 28.025 0.468018C12.814 0.468018 0.484012 12.798 0.484012 28.009C0.483012 30.011 0.695993 31.963 1.10199 33.844Z" fill="#C3724E"/>
<path fill-rule="evenodd" clip-rule="evenodd" d="M28.053 14.165C28.501 13.859 29.251 13.566 30.076 13.414C30.902 13.262 31.804 13.25 32.615 13.414C33.427 13.577 34.147 13.918 34.466 14.342C34.783 14.765 34.699 15.273 34.615 15.78C35.013 15.148 35.107 14.211 34.451 13.555C33.796 12.899 32.39 12.524 31.031 12.571C29.673 12.618 28.36 13.086 27.705 13.648C27.049 14.211 27.049 14.867 27.54 15.452C27.723 15.67 27.974 15.877 28.266 16.066C28.08 15.922 27.895 15.777 27.736 15.617C27.577 15.458 27.445 15.283 27.453 15.036C27.459 14.79 27.604 14.471 28.053 14.165Z" fill="#9F5F4C"/>
<path fill-rule="evenodd" clip-rule="evenodd" d="M29.977 16.811C29.374 16.649 28.76 16.385 28.266 16.066C27.974 15.877 27.723 15.67 27.54 15.452C27.049 14.867 27.049 14.211 27.705 13.648C28.36 13.086 29.673 12.618 31.031 12.571C32.389 12.524 33.796 12.899 34.451 13.555C35.107 14.211 35.014 15.148 34.615 15.78C34.218 16.413 33.514 16.741 32.694 16.905C31.875 17.069 30.938 17.069 29.977 16.811ZM42.902 20.75C42.669 20.328 42.669 19.626 42.457 19.251C42.246 18.876 41.826 18.829 41.498 18.759C41.17 18.688 40.935 18.595 40.231 18.361C39.529 18.126 38.357 17.751 38.451 17.4C38.546 17.048 39.904 16.72 41.17 16.556C42.435 16.392 43.606 16.392 44.706 16.767C45.808 17.142 46.839 17.893 47.447 18.478C48.057 19.063 48.245 19.485 48.714 19.696C49.182 19.907 49.932 19.907 50.657 19.626C51.384 19.344 52.087 18.782 52.416 18.078C52.747 17.374 52.703 16.529 52.66 15.683C51.059 12.489 48.855 9.65 46.197 7.314C46.116 7.244 46.034 7.173 45.607 7.206C45.18 7.238 44.408 7.37401 43.553 7.34901C42.698 7.32301 41.761 7.13501 41.245 7.01801C40.729 6.90101 40.636 6.854 40.401 6.76C40.168 6.667 39.793 6.526 39.323 6.62C38.855 6.714 38.293 7.04201 37.988 7.90801C37.683 8.77501 37.636 10.181 38.245 10.79C38.656 11.201 42.501 11.558 37.777 11.352C36.699 11.305 35.809 11.024 35.153 10.72C34.498 10.415 34.075 10.087 33.513 9.9C32.952 9.712 32.248 9.665 31.498 9.642C30.748 9.619 29.951 9.619 29.413 9.736C28.874 9.853 28.593 10.087 28.194 10.228C27.796 10.368 27.28 10.415 26.765 10.579C26.249 10.744 25.734 11.024 25.406 11.469C25.079 11.915 24.937 12.524 24.868 13.203C24.798 13.883 24.798 14.632 24.212 15.242C23.626 15.851 22.454 16.319 22.407 16.718C22.36 17.116 23.438 17.444 24.634 17.725C25.829 18.006 27.141 18.24 28.687 18.545C30.233 18.849 32.014 19.224 32.599 19.552C33.185 19.88 32.576 20.161 32.061 20.302C31.545 20.442 31.123 20.442 30.561 20.372C30 20.302 29.296 20.161 28.622 19.78C27.947 19.398 27.302 18.775 26.623 18.681C25.942 18.587 25.229 19.023 24.639 19.358C24.048 19.693 23.578 19.927 23.251 20.138C22.923 20.349 22.735 20.536 22.432 20.935C22.127 21.333 21.704 21.942 21.424 22.434C21.143 22.926 21.002 23.301 21.002 23.676C21.002 24.05 21.143 24.425 21.213 25.222C21.283 26.018 21.283 27.237 21.143 28.057C21.002 28.877 20.721 29.298 20.604 30.071C20.487 30.845 20.534 31.969 20.557 32.742C20.581 33.515 20.581 33.937 20.323 34.218C20.065 34.499 19.551 34.64 19.129 34.382C18.707 34.125 18.379 33.469 17.887 32.906C17.395 32.344 16.739 31.875 15.99 31.641C15.24 31.407 14.397 31.407 13.694 31.337C12.992 31.266 12.429 31.126 11.937 31.36C11.445 31.594 11.023 32.203 9.94501 32.719C8.86701 33.234 7.135 33.656 6.431 34.617C5.728 35.577 6.056 37.077 6.431 38.365C6.806 39.654 7.22801 40.731 7.04001 41.176C6.85201 41.622 6.05601 41.434 5.21701 40.909C4.37901 40.384 3.49801 39.522 2.91101 38.693C2.32701 37.864 2.03501 37.07 1.78201 36.267C1.52901 35.465 1.31501 34.655 1.10101 33.844C2.36401 39.7 5.48899 44.863 9.82599 48.683C9.57399 47.619 9.32299 46.555 9.19699 45.952C9.07099 45.35 9.07101 45.209 9.58701 45.256C10.103 45.303 11.134 45.537 11.672 45.537C12.211 45.537 12.258 45.303 12.305 44.998C12.352 44.694 12.399 44.319 12.703 44.155C13.008 43.991 13.569 44.038 14.086 43.78C14.601 43.522 15.069 42.96 15.843 42.445C16.615 41.929 17.694 41.461 19.66 41.344C20.679 41.283 21.934 41.316 23.118 41.35C24.222 41.381 25.263 41.411 25.986 41.367C27.486 41.273 27.627 40.85 27.696 40.242C27.767 39.633 27.767 38.837 27.181 37.689C26.595 36.541 25.424 35.041 24.838 33.87C24.252 32.698 24.252 31.855 24.815 31.41C25.378 30.965 26.503 30.918 27.13 30.418C27.758 29.917 27.891 28.963 28.288 28.448C28.686 27.932 29.35 27.855 29.987 27.84C30.625 27.825 31.233 27.872 31.772 28.247C32.311 28.622 32.779 29.325 32.756 30.309C32.733 31.293 32.217 32.558 32.896 33.073C33.576 33.589 35.45 33.355 36.551 33.097C37.652 32.839 37.98 32.558 38.449 32.511C38.919 32.464 39.527 32.652 40.44 32.886C41.354 33.12 42.572 33.401 43.463 33.706C44.353 34.01 44.915 34.338 45.477 34.432C45.808 34.487 46.139 34.461 46.537 34.435C46.815 34.416 47.126 34.399 47.493 34.409C48.383 34.432 49.601 34.62 50.233 34.948C50.866 35.275 50.913 35.744 50.913 36.189C50.913 36.634 50.866 37.056 51.328 37.338C51.791 37.621 52.761 37.763 53.239 37.852C53.719 37.94 53.706 37.975 53.36 38.681C53.015 39.388 52.339 40.766 51.792 41.776C51.242 42.786 50.82 43.427 50.4 44.068C53.261 40.088 55.088 35.313 55.483 30.138L55.55 28.364C55.564 28.009 55.564 28.009 55.312 27.971C55.06 27.932 54.557 27.855 54.118 27.7C53.679 27.544 53.304 27.31 53.14 27.029C52.976 26.748 53.023 26.42 53.163 25.951C53.304 25.483 53.539 24.873 53.491 24.288C53.444 23.702 53.116 23.14 52.741 22.859C52.366 22.577 51.945 22.577 51.265 22.554C50.586 22.531 49.649 22.484 48.899 22.343C48.149 22.203 47.588 21.968 47.025 21.711C46.462 21.453 45.9 21.172 45.408 21.125C44.917 21.078 44.494 21.266 44.05 21.289C43.605 21.312 43.138 21.172 42.902 20.75Z" fill="#F0D082"/>
<path fill-rule="evenodd" clip-rule="evenodd" d="M28.024 55.55C28.01 55.55 27.996 55.55 27.983 55.55C27.998 55.55 28.011 55.55 28.024 55.55C37.421 55.55 45.744 50.803 50.718 43.584C50.611 43.749 50.506 43.9089 50.401 44.0679C51.552 42.4669 52.537 40.737 53.327 38.904C49.104 48.695 39.364 55.55 28.024 55.55ZM27.972 55.55C27.961 55.55 27.952 55.55 27.942 55.55C27.951 55.55 27.962 55.55 27.972 55.55ZM27.93 55.55C27.919 55.55 27.907 55.55 27.896 55.55C27.906 55.55 27.919 55.55 27.93 55.55ZM27.89 55.55C20.968 55.516 14.649 52.929 9.827 48.683C9.824 48.671 9.82099 48.659 9.81799 48.646C14.646 52.9109 20.975 55.516 27.89 55.55ZM4.603 42.5079C4.601 42.5029 4.59901 42.5 4.59601 42.496C4.59901 42.5 4.602 42.5039 4.603 42.5079ZM4.58701 42.4799C4.58501 42.4759 4.58101 42.471 4.57901 42.466C4.58101 42.471 4.58401 42.4749 4.58701 42.4799ZM4.55301 42.425C4.55001 42.419 4.547 42.414 4.543 42.408C4.546 42.414 4.55001 42.419 4.55301 42.425ZM4.5 42.34C4.496 42.333 4.49401 42.327 4.48901 42.321C4.49201 42.327 4.496 42.333 4.5 42.34ZM4.48199 42.311C4.47799 42.304 4.47501 42.298 4.47101 42.292C4.47601 42.298 4.47899 42.304 4.48199 42.311ZM4.466 42.282C4.462 42.275 4.45801 42.2689 4.45401 42.2619C4.45801 42.2689 4.462 42.276 4.466 42.282ZM4.41501 42.197C4.40901 42.189 4.40499 42.183 4.39999 42.175C4.40399 42.182 4.40901 42.19 4.41501 42.197ZM4.396 42.168C4.391 42.16 4.387 42.153 4.383 42.145C4.388 42.153 4.393 42.161 4.396 42.168ZM4.327 42.0529C4.323 42.0449 4.31701 42.036 4.31201 42.028C4.31701 42.036 4.322 42.0439 4.327 42.0529ZM4.311 42.0249C4.306 42.0159 4.30001 42.007 4.29501 41.998C4.30101 42.007 4.306 42.0159 4.311 42.0249ZM4.27701 41.968C4.26501 41.948 4.25499 41.929 4.24399 41.91C4.25499 41.929 4.26701 41.948 4.27701 41.968ZM4.22699 41.88C3.16099 40.056 2.3 38.099 1.673 36.039C2.3 38.099 3.15999 40.056 4.22699 41.88ZM53.327 38.903C53.339 38.877 53.349 38.851 53.36 38.825C53.35 38.851 53.339 38.877 53.327 38.903ZM53.361 38.822C53.373 38.796 53.383 38.77 53.394 38.744C53.384 38.771 53.373 38.796 53.361 38.822ZM53.406 38.716C53.414 38.699 53.421 38.683 53.427 38.666C53.421 38.682 53.414 38.7 53.406 38.716ZM53.43 38.662C53.433 38.655 53.436 38.648 53.439 38.639C53.435 38.647 53.433 38.655 53.43 38.662ZM53.443 38.628C53.449 38.615 53.454 38.602 53.46 38.589C53.454 38.602 53.448 38.615 53.443 38.628ZM53.464 38.582C53.466 38.575 53.469 38.568 53.472 38.561C53.469 38.568 53.467 38.574 53.464 38.582ZM53.477 38.548C53.48 38.542 53.482 38.536 53.485 38.53C53.482 38.536 53.479 38.543 53.477 38.548ZM53.496 38.501C53.499 38.496 53.501 38.4909 53.503 38.4859C53.501 38.4919 53.499 38.496 53.496 38.501ZM53.511 38.4669C53.513 38.4619 53.515 38.457 53.517 38.452C53.515 38.457 53.513 38.4609 53.511 38.4669ZM53.544 38.3869C53.545 38.3829 53.547 38.3789 53.549 38.3739C53.547 38.3789 53.546 38.3819 53.544 38.3869ZM53.56 38.348C53.561 38.345 53.562 38.3429 53.563 38.34C53.56 38.3429 53.56 38.345 53.56 38.348ZM53.591 38.27C53.592 38.267 53.593 38.264 53.594 38.261C53.593 38.265 53.592 38.267 53.591 38.27ZM53.64 38.147L53.641 38.145C53.641 38.146 53.64 38.146 53.64 38.147ZM55.484 30.136L55.485 30.119C55.539 29.422 55.565 28.719 55.565 28.009C55.565 28.725 55.539 29.434 55.484 30.136ZM55.565 27.953C55.565 27.943 55.565 27.934 55.565 27.923C55.565 27.933 55.565 27.943 55.565 27.953ZM55.565 27.9109C55.565 27.9 55.565 27.891 55.565 27.88C55.565 27.89 55.565 27.9 55.565 27.9109ZM55.565 27.869C55.565 27.857 55.564 27.847 55.564 27.835C55.564 27.847 55.565 27.858 55.565 27.869ZM55.564 27.827C55.564 27.813 55.564 27.801 55.564 27.787C55.564 27.8 55.564 27.8139 55.564 27.827ZM55.564 27.787C55.53 23.457 54.488 19.3609 52.662 15.7209C52.662 15.7089 52.66 15.696 52.66 15.683C54.488 19.33 55.53 23.438 55.564 27.787ZM52.618 15.601C52.615 15.595 52.613 15.59 52.61 15.585C52.613 15.591 52.615 15.595 52.618 15.601ZM52.601 15.5639C52.599 15.5599 52.597 15.5569 52.595 15.5529C52.597 15.5559 52.599 15.5609 52.601 15.5639ZM52.582 15.528C52.582 15.527 52.582 15.527 52.581 15.526L52.582 15.528ZM33.288 0.969955C33.286 0.969955 33.284 0.969948 33.283 0.968948C33.286 0.969948 33.286 0.969955 33.288 0.969955ZM33.102 0.934952C33.099 0.934952 33.095 0.934953 33.092 0.932953C33.096 0.933953 33.098 0.933952 33.102 0.934952ZM33.063 0.927948C33.06 0.926948 33.057 0.926949 33.055 0.925949C33.057 0.925949 33.06 0.926948 33.063 0.927948ZM33.025 0.920959C33.021 0.919959 33.018 0.918961 33.015 0.918961C33.019 0.918961 33.021 0.919959 33.025 0.920959ZM32.873 0.89296C32.868 0.89196 32.865 0.891961 32.862 0.890961C32.865 0.891961 32.869 0.89296 32.873 0.89296ZM32.797 0.879959C32.794 0.878959 32.788 0.87796 32.784 0.87796C32.788 0.87796 32.793 0.878959 32.797 0.879959ZM32.604 0.846954C32.602 0.846954 32.601 0.845947 32.6 0.845947C32.602 0.845947 32.602 0.846954 32.604 0.846954Z" fill="#54434D"/>
<path fill-rule="evenodd" clip-rule="evenodd" d="M28.024 55.55C28.01 55.55 27.998 55.55 27.983 55.55C27.979 55.55 27.975 55.55 27.971 55.55C27.961 55.55 27.951 55.55 27.941 55.55C27.937 55.55 27.933 55.55 27.929 55.55C27.918 55.55 27.906 55.55 27.895 55.55C27.893 55.55 27.891 55.55 27.889 55.55C20.974 55.516 14.646 52.911 9.81799 48.646C9.56999 47.594 9.322 46.548 9.198 45.952C9.196 45.946 9.195 45.939 9.194 45.933C14.304 49.147 19.448 50.533 24.311 50.533C35.189 50.533 44.64 43.583 49.049 34.58C49.511 34.67 49.938 34.793 50.235 34.948C50.868 35.275 50.915 35.744 50.915 36.189C50.915 36.634 50.868 37.056 51.33 37.338C51.793 37.621 52.763 37.763 53.241 37.852C53.721 37.94 53.708 37.975 53.362 38.681C53.017 39.388 52.341 40.766 51.794 41.776C51.382 42.535 51.04 43.085 50.719 43.584C45.744 50.803 37.421 55.55 28.024 55.55ZM55.485 30.119L55.551 28.364C55.565 28.009 55.565 28.009 55.313 27.971C55.061 27.932 54.558 27.855 54.119 27.7C53.68 27.544 53.305 27.31 53.141 27.029C52.977 26.748 53.024 26.42 53.164 25.951C53.305 25.483 53.54 24.873 53.492 24.288C53.445 23.702 53.117 23.14 52.742 22.859C52.448 22.638 52.126 22.591 51.672 22.569C51.624 21.481 51.494 20.391 51.281 19.309C51.764 19.002 52.183 18.576 52.416 18.077C52.741 17.383 52.704 16.552 52.662 15.72C54.488 19.361 55.53 23.457 55.564 27.786C55.564 27.8 55.564 27.812 55.564 27.826C55.564 27.829 55.564 27.831 55.564 27.834C55.564 27.846 55.565 27.856 55.565 27.868C55.565 27.872 55.565 27.875 55.565 27.879C55.565 27.89 55.565 27.899 55.565 27.91C55.565 27.914 55.565 27.918 55.565 27.922C55.565 27.933 55.565 27.942 55.565 27.952C55.565 27.956 55.565 27.962 55.565 27.966C55.565 27.98 55.565 27.994 55.565 28.008C55.565 28.719 55.539 29.422 55.485 30.119ZM46.073 7.23401C46.015 7.21201 45.933 7.19802 45.803 7.19702C45.934 7.19802 46.016 7.21201 46.073 7.23401Z" fill="#DFC190"/>
<path fill-rule="evenodd" clip-rule="evenodd" d="M2.33701 37.716C2.15901 37.35 2.023 36.989 1.901 36.626C2.043 36.99 2.18601 37.354 2.33701 37.716ZM46.195 7.31195C46.163 7.28395 46.13 7.25595 46.073 7.23395C46.015 7.21195 45.933 7.19796 45.803 7.19696H45.8H45.798C45.78 7.19696 45.762 7.19795 45.743 7.19795C45.739 7.19795 45.736 7.19795 45.733 7.19795C45.697 7.19995 45.658 7.20196 45.616 7.20496C45.613 7.20496 45.61 7.20495 45.606 7.20595C45.599 7.20595 45.592 7.20695 45.585 7.20695C45.347 7.22695 45.006 7.27596 44.607 7.31096C43.619 6.34296 42.521 5.41195 41.303 4.52095C37.982 2.09295 35.291 1.46995 32.599 0.845947C32.599 0.845947 32.601 0.846954 32.603 0.846954C32.611 0.847954 32.623 0.849952 32.63 0.850952C32.634 0.852952 32.638 0.852951 32.642 0.852951C32.65 0.854951 32.66 0.855956 32.668 0.857956C32.672 0.858956 32.676 0.858955 32.68 0.859955C32.689 0.860955 32.697 0.862953 32.706 0.863953C32.71 0.864953 32.715 0.865959 32.719 0.866959C32.728 0.867959 32.737 0.868956 32.744 0.870956C32.749 0.871956 32.752 0.871955 32.756 0.872955C32.765 0.874955 32.775 0.87596 32.782 0.87796C32.786 0.87796 32.792 0.878959 32.795 0.879959C32.805 0.880959 32.813 0.882949 32.821 0.884949C32.826 0.884949 32.828 0.885956 32.832 0.885956C32.842 0.888956 32.85 0.889961 32.86 0.890961C32.863 0.891961 32.866 0.89196 32.871 0.89296C32.88 0.89496 32.89 0.896949 32.899 0.897949C32.902 0.898949 32.904 0.898948 32.907 0.899948C32.918 0.900948 32.928 0.902953 32.937 0.904953C32.94 0.905953 32.943 0.905952 32.946 0.906952C32.957 0.907952 32.966 0.90995 32.974 0.91095C32.978 0.91195 32.981 0.911956 32.985 0.913956C32.994 0.914956 33.004 0.916961 33.013 0.918961C33.016 0.918961 33.019 0.919959 33.023 0.920959C33.034 0.922959 33.041 0.923949 33.052 0.925949C33.054 0.926949 33.057 0.926948 33.06 0.927948C33.069 0.928948 33.08 0.930953 33.089 0.932953C33.092 0.934953 33.096 0.934952 33.099 0.934952C33.109 0.936952 33.117 0.937957 33.127 0.939957C33.131 0.940957 33.133 0.940956 33.137 0.941956C33.146 0.943956 33.157 0.94596 33.166 0.94696C33.169 0.94796 33.171 0.947959 33.174 0.948959C33.184 0.950959 33.195 0.952956 33.204 0.954956C33.207 0.954956 33.208 0.954948 33.21 0.955948C33.221 0.957948 33.231 0.95996 33.242 0.96196C33.245 0.96196 33.247 0.962952 33.249 0.962952C33.259 0.964952 33.27 0.966948 33.28 0.968948C33.28 0.968948 33.283 0.969955 33.285 0.969955C33.297 0.971955 33.307 0.974959 33.319 0.976959H33.32C33.333 0.978959 33.345 0.981948 33.357 0.983948C33.371 0.986948 33.382 0.988959 33.395 0.991959C38.24 1.94996 42.627 4.17695 46.195 7.31195Z" fill="#C17E6C"/>
<path fill-rule="evenodd" clip-rule="evenodd" d="M9.827 48.683C7.872 46.96 6.16401 44.965 4.76001 42.756C4.74801 42.738 4.73701 42.72 4.72601 42.702C4.72501 42.7 4.724 42.699 4.724 42.698C4.719 42.69 4.71402 42.683 4.70901 42.675C4.70801 42.673 4.70699 42.671 4.70499 42.669C4.69999 42.662 4.69501 42.654 4.69101 42.647C4.68901 42.645 4.688 42.643 4.686 42.64C4.682 42.633 4.677 42.626 4.673 42.619C4.671 42.616 4.67 42.614 4.668 42.611C4.664 42.605 4.659 42.598 4.655 42.592C4.653 42.589 4.65099 42.585 4.64899 42.582C4.64499 42.576 4.642 42.571 4.638 42.565C4.636 42.561 4.63301 42.557 4.63101 42.553C4.62701 42.548 4.62299 42.542 4.61899 42.537C4.61699 42.533 4.615 42.528 4.612 42.524C4.608 42.519 4.60501 42.513 4.60101 42.508C4.59901 42.504 4.59599 42.5 4.59399 42.496C4.59099 42.49 4.58801 42.485 4.58401 42.48C4.58101 42.475 4.57799 42.471 4.57599 42.466C4.57199 42.462 4.56901 42.457 4.56601 42.452C4.56301 42.447 4.56001 42.442 4.55701 42.437C4.55401 42.433 4.55201 42.429 4.54901 42.425C4.54601 42.419 4.542 42.414 4.539 42.408C4.537 42.404 4.53301 42.4 4.53101 42.396C4.52701 42.39 4.52399 42.385 4.51999 42.379C4.51799 42.376 4.515 42.371 4.513 42.368C4.509 42.362 4.50601 42.356 4.50201 42.349C4.50001 42.346 4.498 42.342 4.495 42.339C4.491 42.332 4.48701 42.326 4.48401 42.32C4.48201 42.317 4.47899 42.313 4.47699 42.31C4.47399 42.303 4.47 42.297 4.466 42.291C4.464 42.288 4.46199 42.284 4.45999 42.281C4.45599 42.275 4.452 42.268 4.448 42.261C4.446 42.258 4.44399 42.256 4.44199 42.253C4.43799 42.246 4.43399 42.239 4.42899 42.232C4.42799 42.23 4.42599 42.227 4.42499 42.225C4.42099 42.218 4.41599 42.21 4.41199 42.203C4.40999 42.2 4.40899 42.199 4.40799 42.196C4.40199 42.189 4.39701 42.181 4.39301 42.174C4.39201 42.172 4.39001 42.169 4.38901 42.167C4.38501 42.16 4.38001 42.152 4.37601 42.144C4.37401 42.142 4.37301 42.14 4.37201 42.138C4.36701 42.131 4.36299 42.123 4.35699 42.115C4.35599 42.113 4.355 42.111 4.354 42.11C4.349 42.102 4.34399 42.093 4.33899 42.085C4.33899 42.084 4.33801 42.083 4.33701 42.082C4.33201 42.074 4.32699 42.065 4.32199 42.057C4.31999 42.056 4.31999 42.054 4.31799 42.053C4.31299 42.044 4.30801 42.036 4.30301 42.028C4.30301 42.027 4.302 42.026 4.302 42.025C4.296 42.016 4.29101 42.007 4.28601 41.998C4.28601 41.998 4.285 41.997 4.285 41.996C4.279 41.987 4.27301 41.978 4.26801 41.969L4.267 41.968C4.256 41.948 4.24501 41.929 4.23401 41.91C4.22701 41.9 4.22101 41.89 4.21701 41.88C3.15101 40.056 2.28999 38.1 1.66299 36.04C1.73899 36.236 1.81299 36.431 1.89099 36.626C2.01299 36.989 2.15 37.35 2.327 37.716C3.47 40.469 4.968 43.169 8.582 45.545C8.782 45.676 8.984 45.807 9.185 45.933C9.186 45.939 9.187 45.946 9.189 45.952C9.313 46.548 9.56099 47.594 9.80899 48.646C9.82099 48.659 9.824 48.671 9.827 48.683ZM50.401 44.068C50.506 43.909 50.611 43.749 50.718 43.584C51.039 43.085 51.381 42.535 51.793 41.776C52.341 40.766 53.017 39.388 53.361 38.681C53.707 37.975 53.719 37.94 53.24 37.852C52.762 37.763 51.792 37.621 51.329 37.338C50.867 37.056 50.914 36.634 50.914 36.189C50.914 35.744 50.867 35.275 50.234 34.948C49.937 34.793 49.51 34.67 49.048 34.58C50.892 30.816 51.854 26.693 51.67 22.569C52.124 22.591 52.446 22.638 52.74 22.859C53.115 23.14 53.443 23.702 53.49 24.288C53.538 24.873 53.302 25.483 53.162 25.951C53.021 26.42 52.974 26.748 53.139 27.029C53.303 27.31 53.678 27.544 54.117 27.7C54.557 27.855 55.059 27.932 55.311 27.971C55.563 28.009 55.563 28.009 55.549 28.364L55.483 30.119L55.482 30.136C55.271 32.901 54.651 35.552 53.684 38.028C53.683 38.029 53.683 38.03 53.683 38.031C53.673 38.056 53.665 38.08 53.654 38.105C53.653 38.107 53.652 38.109 53.651 38.111C53.647 38.122 53.642 38.134 53.638 38.145L53.637 38.147C53.632 38.159 53.627 38.171 53.623 38.183C53.622 38.186 53.621 38.188 53.62 38.19C53.615 38.2 53.611 38.211 53.607 38.221C53.606 38.223 53.605 38.225 53.604 38.227C53.6 38.238 53.595 38.25 53.59 38.261C53.589 38.264 53.588 38.267 53.587 38.27C53.583 38.279 53.58 38.288 53.575 38.297C53.575 38.3 53.573 38.304 53.571 38.306C53.567 38.317 53.562 38.33 53.558 38.34C53.557 38.343 53.556 38.345 53.555 38.348C53.551 38.356 53.547 38.367 53.544 38.374C53.542 38.379 53.54 38.383 53.539 38.387C53.535 38.395 53.532 38.403 53.528 38.411C53.526 38.416 53.524 38.421 53.522 38.425C53.519 38.434 53.515 38.443 53.511 38.452C53.509 38.457 53.507 38.462 53.505 38.467C53.503 38.473 53.499 38.48 53.497 38.486C53.495 38.491 53.493 38.496 53.49 38.501C53.486 38.511 53.482 38.52 53.478 38.53C53.475 38.536 53.473 38.542 53.47 38.548C53.469 38.552 53.467 38.557 53.465 38.561C53.462 38.568 53.459 38.575 53.457 38.582C53.456 38.584 53.454 38.587 53.453 38.589C53.447 38.602 53.442 38.615 53.436 38.628C53.434 38.632 53.433 38.636 53.431 38.64C53.428 38.648 53.425 38.655 53.422 38.663C53.421 38.664 53.421 38.666 53.42 38.667C53.413 38.684 53.406 38.7 53.399 38.717C53.395 38.726 53.392 38.735 53.388 38.744L53.387 38.745C53.376 38.771 53.365 38.797 53.354 38.823C53.354 38.824 53.353 38.825 53.353 38.826C53.342 38.852 53.332 38.878 53.32 38.904C52.537 40.736 51.553 42.467 50.401 44.068ZM51.281 19.309C50.449 15.079 48.32 10.948 44.608 7.31102C45.007 7.27602 45.348 7.22702 45.586 7.20702C45.593 7.20702 45.6 7.20601 45.607 7.20601C45.611 7.20501 45.614 7.20502 45.617 7.20502C45.659 7.20202 45.698 7.20001 45.734 7.19801C45.737 7.19801 45.74 7.19801 45.744 7.19801C45.763 7.19801 45.78 7.19702 45.799 7.19702C45.8 7.19702 45.8 7.19702 45.801 7.19702H45.804C45.934 7.19802 46.016 7.21201 46.074 7.23401C46.131 7.25601 46.164 7.28401 46.196 7.31201C48.811 9.61001 50.986 12.395 52.582 15.526C52.583 15.527 52.583 15.527 52.583 15.528C52.588 15.537 52.592 15.544 52.596 15.553C52.598 15.557 52.6 15.56 52.602 15.564C52.605 15.571 52.609 15.578 52.612 15.585C52.615 15.59 52.617 15.595 52.62 15.601C52.624 15.605 52.626 15.613 52.63 15.618C52.633 15.624 52.636 15.631 52.639 15.636C52.642 15.642 52.645 15.647 52.648 15.652C52.651 15.659 52.655 15.666 52.658 15.673C52.66 15.676 52.661 15.679 52.663 15.682C52.663 15.694 52.665 15.707 52.665 15.72C52.707 16.552 52.744 17.384 52.419 18.077C52.184 18.576 51.765 19.002 51.281 19.309Z" fill="#D5A885"/>
<path fill-rule="evenodd" clip-rule="evenodd" d="M11.236 19.115C9.60399 19.115 8.352 18.649 7.742 17.68C6.171 15.184 9.448 10.292 15.065 6.75504C18.502 4.59204 22.016 3.43604 24.587 3.43604C26.219 3.43604 27.471 3.90103 28.082 4.87003C28.958 6.26203 28.327 8.39703 26.624 10.627C26.157 10.796 25.706 11.065 25.407 11.469C25.202 11.749 25.069 12.093 24.982 12.478C23.809 13.637 22.381 14.773 20.757 15.795C17.322 17.959 13.808 19.115 11.236 19.115Z" fill="#D28454"/>
<path fill-rule="evenodd" clip-rule="evenodd" d="M24.983 12.478C25.07 12.093 25.203 11.7489 25.408 11.4689C25.707 11.0649 26.158 10.796 26.625 10.627C26.156 11.242 25.605 11.863 24.983 12.478Z" fill="#E7B16E"/>
</svg>
