<?xml version="1.0" encoding="UTF-8" standalone="no"?>
<svg
   width="111.61994"
   height="60.21706"
   viewBox="0 0 111.61994 60.21706"
   fill="none"
   version="1.1"
   id="svg1130"
   sodipodi:docname="saturn.svg"
   inkscape:version="1.2.2 (b0a8486541, 2022-12-01)"
   xmlns:inkscape="http://www.inkscape.org/namespaces/inkscape"
   xmlns:sodipodi="http://sodipodi.sourceforge.net/DTD/sodipodi-0.dtd"
   xmlns="http://www.w3.org/2000/svg"
   xmlns:svg="http://www.w3.org/2000/svg">
  <defs
     id="defs1134" />
  <sodipodi:namedview
     id="namedview1132"
     pagecolor="#ffffff"
     bordercolor="#000000"
     borderopacity="0.25"
     inkscape:showpageshadow="2"
     inkscape:pageopacity="0.0"
     inkscape:pagecheckerboard="0"
     inkscape:deskcolor="#d1d1d1"
     showgrid="false"
     inkscape:zoom="5.9135802"
     inkscape:cx="31.283925"
     inkscape:cy="39.73904"
     inkscape:window-width="1280"
     inkscape:window-height="651"
     inkscape:window-x="0"
     inkscape:window-y="32"
     inkscape:window-maximized="1"
     inkscape:current-layer="svg1130" />
  <path
     fill-rule="evenodd"
     clip-rule="evenodd"
     d="m 53.677948,0.10620762 c 16.57,-1.38200002 31.123,10.93097338 32.505,27.50097338 1.381,16.57 -10.931,31.123 -27.501,32.504 -16.57,1.382 -31.123,-10.93 -32.505,-27.5 -1.382,-16.571 10.93,-31.1229704 27.501,-32.50497338 z"
     fill="#ffc68a"
     id="path1052" />
  <path
     fill-rule="evenodd"
     clip-rule="evenodd"
     d="m 74.881948,6.5161906 c -4.507,-3.575 -10.04,-5.87099998 -16.018,-6.39900298 4.507,3.57400298 10.04,5.87100298 16.018,6.39900298 z"
     fill="#b97e2f"
     id="path1054" />
  <path
     fill-rule="evenodd"
     clip-rule="evenodd"
     d="m 74.881948,6.5162306 c -5.979,-0.528 -11.512,-2.82501 -16.018,-6.39900498 -1.503,-0.133 -3.032,-0.153999 -4.583,-0.056999 5.933,6.13400398 14.413,9.70895398 23.551,9.12900398 -0.924,-0.955 -1.909,-1.84801 -2.95,-2.673 z"
     fill="#cb6f4a"
     id="path1056" />
  <path
     fill-rule="evenodd"
     clip-rule="evenodd"
     d="m 77.832948,9.1902806 c -9.138,0.58 -17.618,-2.995 -23.551,-9.12900098 -0.201,0.013 -0.402,0.028 -0.604,0.045 -1.493,0.125 -2.951,0.356001 -4.368,0.686001 6.144,8.61199998 16.539,13.86000038 27.847,12.91700038 1.327,-0.111 2.627,-0.303 3.896,-0.573 -0.964,-1.408 -2.042,-2.727 -3.22,-3.9460004 z"
     fill="#ed8043"
     id="path1058" />
  <path
     fill-rule="evenodd"
     clip-rule="evenodd"
     d="m 77.155948,13.709281 c -11.308,0.943 -21.703,-4.3050004 -27.847,-12.91704038 -2.577,0.59999998 -5.018,1.52799998 -7.28,2.73299998 5.776,11.9900404 18.509,19.7840404 32.563,18.6130404 3.485,-0.291 6.798,-1.112 9.868,-2.376 -0.865,-2.368 -2.016,-4.589 -3.408,-6.625 -1.268,0.269 -2.569,0.461 -3.896,0.572 z"
     fill="#ed9452"
     id="path1060" />
  <path
     fill-rule="evenodd"
     clip-rule="evenodd"
     d="m 74.591948,22.138281 c -14.054,1.171 -26.787,-6.622 -32.563,-18.6130104 -0.629,0.336 -1.245,0.693 -1.846,1.07 5.45,13.0940104 18.881,21.7780104 33.775,20.5360104 4.016,-0.335 7.808,-1.365 11.268,-2.96 -0.223,-0.819 -0.479,-1.622 -0.766,-2.41 -3.069,1.265 -6.383,2.086 -9.868,2.377 z"
     fill="#f5b266"
     id="path1062" />
  <path
     fill-rule="evenodd"
     clip-rule="evenodd"
     d="m 73.958948,25.131181 c -14.894,1.242 -28.325,-7.442 -33.775,-20.5359704 -1.53,0.961 -2.965,2.055 -4.29,3.265 4.645,15.0759704 19.285,25.4289704 35.651,24.0639704 5.338,-0.445 10.288,-2.089 14.608,-4.645 -0.165,-1.755 -0.478,-3.462 -0.926,-5.108 -3.46,1.595 -7.252,2.625 -11.268,2.96 z"
     fill="#f6a364"
     id="path1064" />
  <path
     fill-rule="evenodd"
     clip-rule="evenodd"
     d="m 71.544948,31.924181 c -16.366,1.365 -31.006,-8.988 -35.651,-24.0639504 -0.26,0.237 -0.516,0.48 -0.768,0.726 4.309,15.5939504 19.22,26.4169504 35.93,25.0239504 5.582,-0.465 10.738,-2.241 15.194,-4.999 -0.017,-0.334 -0.039,-0.669 -0.067,-1.0039 -0.01,-0.1101 -0.019,-0.219 -0.03,-0.328 -4.32,2.556 -9.27,4.1999 -14.608,4.6449 z"
     fill="#b97e2f"
     id="path1066" />
  <path
     fill-rule="evenodd"
     clip-rule="evenodd"
     d="m 71.054948,33.610181 c -16.709,1.393 -31.621,-9.43 -35.93,-25.0240004 -2.588,2.5340004 -4.712,5.5250004 -6.252,8.8290004 2.154,18.289 18.443,31.711 36.937,30.169 7.164,-0.598 13.629,-3.355 18.81,-7.577 1.242,-3.563 1.829,-7.414 1.629,-11.396 -4.455,2.758 -9.612,4.534 -15.194,4.999 z"
     fill="#f8b45a"
     id="path1068" />
  <path
     fill-rule="evenodd"
     clip-rule="evenodd"
     d="m 65.810948,47.584281 c -18.494,1.542 -34.783,-11.88 -36.937,-30.169 -0.615,1.32 -1.137,2.69 -1.557,4.1 2.116,18.331 18.426,31.792 36.946,30.247 6.942,-0.579 13.228,-3.186 18.325,-7.189 0.8,-1.456 1.481,-2.983 2.033,-4.566 -5.181,4.222 -11.646,6.979 -18.81,7.577 z"
     fill="#b97e2f"
     id="path1070" />
  <path
     fill-rule="evenodd"
     clip-rule="evenodd"
     d="m 64.262948,51.762281 c -18.52,1.544 -34.83,-11.916 -36.946,-30.247 -0.209,0.703 -0.393,1.415 -0.552,2.136 2.066,18.384 18.402,31.901 36.958,30.354 6.184,-0.516 11.849,-2.641 16.615,-5.929 0.828,-1.113 1.581,-2.283 2.25,-3.503 -5.097,4.003 -11.383,6.61 -18.325,7.189 z"
     fill="#f6b561"
     id="path1072" />
  <path
     fill-rule="evenodd"
     clip-rule="evenodd"
     d="m 63.722948,54.005281 c -18.556,1.547 -34.892,-11.97 -36.958,-30.354 -0.628,2.869 -0.845,5.88 -0.588,8.96 0.101,1.213 0.273,2.404 0.511,3.568 5.279,13.978 19.334,23.362 34.963,22.059 3.668,-0.306 7.152,-1.178 10.375,-2.523 3.24,-2.008 6.057,-4.609 8.312,-7.639 -4.766,3.288 -10.431,5.413 -16.615,5.929 z"
     fill="#f88646"
     id="path1074" />
  <path
     fill-rule="evenodd"
     clip-rule="evenodd"
     d="m 61.649948,58.238181 c -15.629,1.303 -29.684,-8.081 -34.963,-22.059 3.013,14.732 16.637,25.213 31.994,23.932 4.902,-0.409 9.432,-1.97 13.344,-4.396 -3.223,1.345 -6.706,2.217 -10.375,2.523 z"
     fill="#cb6f4a"
     id="path1076" />
  <path
     fill-rule="evenodd"
     clip-rule="evenodd"
     d="m 58.754948,58.358281 c -7.132,0 -13.831,-2.211 -19.382,-6.026 l 0.002,10e-4 c 5.55,3.814 12.25,6.024 19.38,6.025 z m 2.805,-0.113 c 0.031,-0.002 0.061,-0.005 0.091,-0.007 -0.03,0.002 -0.061,0.005 -0.091,0.007 z m 14.337,-48.9940204 c -0.093,0 -0.185,-10e-4 -0.278,-10e-4 0.092,0 0.185,10e-4 0.278,10e-4 z m 1.897,-0.059 c 0.002,0 0.003,0 0.005,0 -0.002,0 -0.004,0 -0.005,0 z"
     fill="#cb9264"
     id="path1078" />
  <path
     fill-rule="evenodd"
     clip-rule="evenodd"
     d="m 74.823948,6.5111706 c -0.782,-0.071 -1.557,-0.172 -2.322,-0.302 -1.199,-1.003 -2.526,-1.955 -3.987,-2.846 -3.726,-2.273 -6.652,-2.74799998 -9.555,-3.16999998 -0.008,-0.006 -0.015,-0.012 -0.022,-0.018 5.925,0.536 11.408,2.80699998 15.886,6.33599998 z"
     fill="#a96d31"
     id="path1080" />
  <path
     fill-rule="evenodd"
     clip-rule="evenodd"
     d="m 75.900948,9.2512706 c -0.001,0 -0.003,0 -0.005,0 -0.093,0 -0.185,-10e-4 -0.278,-10e-4 -0.923,-1.056 -1.961,-2.073 -3.117,-3.041 0.765,0.13 1.54,0.231 2.322,0.302 1.05,0.827 2.044,1.722 2.975,2.681 -0.002,0 -0.003,0 -0.005,0 -0.634,0.04 -1.265,0.059 -1.892,0.059 z m -16.941,-9.05799698 c -0.087,-0.013 -0.174,-0.026 -0.26,-0.038 0.079,0.006 0.159,0.013 0.238,0.021 0.006,0.005 0.014,0.011 0.022,0.017 z"
     fill="#b16840"
     id="path1082" />
  <path
     fill-rule="evenodd"
     clip-rule="evenodd"
     d="m 78.652948,13.548281 c -0.827,-1.487 -1.834,-2.925 -3.035,-4.2980204 0.093,0 0.185,10e-4 0.278,10e-4 0.002,0 0.004,0 0.005,0 0.627,0 1.258,-0.019 1.892,-0.059 0.002,0 0.003,0 0.005,0 1.184,1.2190204 2.267,2.5390204 3.235,3.9480204 -0.781,0.166 -1.574,0.302 -2.38,0.408 z"
     fill="#bf6f3e"
     id="path1084" />
  <path
     fill-rule="evenodd"
     clip-rule="evenodd"
     d="m 81.267948,20.888281 c -0.449,-2.515 -1.306,-4.989 -2.614,-7.34 0.805,-0.106 1.598,-0.242 2.38,-0.408 1.396,2.035 2.551,4.256 3.419,6.624 -1.035,0.426 -2.098,0.802 -3.185,1.124 z"
     fill="#c17b45"
     id="path1086" />
  <path
     fill-rule="evenodd"
     clip-rule="evenodd"
     d="m 81.595948,23.594181 c -0.059,-0.906 -0.168,-1.809 -0.328,-2.707 1.087,-0.322 2.15,-0.698 3.185,-1.124 0.288,0.788 0.545,1.591 0.768,2.41 -1.172,0.541 -2.382,1.016 -3.625,1.421 z"
     fill="#c5864f"
     id="path1088" />
  <path
     fill-rule="evenodd"
     clip-rule="evenodd"
     d="m 81.269948,29.665181 c 0.341,-2.009 0.457,-4.046 0.326,-6.071 1.244,-0.405 2.454,-0.88 3.624,-1.42 0.45,1.646 0.764,3.351 0.93,5.106 -1.548,0.917 -3.179,1.717 -4.88,2.385 z"
     fill="#c48050"
     id="path1090" />
  <path
     fill-rule="evenodd"
     clip-rule="evenodd"
     d="m 80.944948,31.286281 c 0.124,-0.539 0.232,-1.077 0.325,-1.621 1.701,-0.668 3.332,-1.468 4.881,-2.385 0.011,0.114 0.021,0.227 0.031,0.342 0.027,0.33 0.049,0.661 0.066,0.989 -1.674,1.036 -3.446,1.934 -5.303,2.675 z"
     fill="#a96d31"
     id="path1092" />
  <path
     fill-rule="evenodd"
     clip-rule="evenodd"
     d="m 72.390948,46.388181 c 4.231,-4.177 7.258,-9.495 8.554,-15.103 1.857,-0.741 3.629,-1.639 5.303,-2.675 0.203,3.984 -0.385,7.8341 -1.63,11.3981 -3.539,2.885 -7.678,5.0849 -12.227,6.3799 z"
     fill="#c58649"
     id="path1094" />
  <path
     fill-rule="evenodd"
     clip-rule="evenodd"
     d="m 65.258948,51.665281 c 2.632,-1.41 5.03,-3.203 7.132,-5.277 4.55,-1.295 8.688,-3.495 12.227,-6.379 -0.554,1.585 -1.238,3.115 -2.04,4.572 -4.85,3.806 -10.777,6.349 -17.319,7.084 z"
     fill="#a96d31"
     id="path1096" />
  <path
     fill-rule="evenodd"
     clip-rule="evenodd"
     d="m 60.832948,54.125181 c -0.003,0 -0.003,0 -0.005,0 -0.551,0 -1.099,-0.013 -1.644,-0.039 2.131,-0.579 4.165,-1.399 6.075,-2.421 6.542,-0.735 12.469,-3.278 17.318,-7.084 -0.673,1.223 -1.428,2.394 -2.261,3.509 -4.762,3.28 -10.419,5.4 -16.594,5.915 -0.968,0.081 -1.933,0.12 -2.889,0.12 z"
     fill="#c3864c"
     id="path1098" />
  <path
     fill-rule="evenodd"
     clip-rule="evenodd"
     d="m 58.759948,58.358181 c -0.002,0 -0.003,0 -0.005,0 -7.131,-0.001 -13.83,-2.211 -19.38,-6.025 4.286,1.889 8.482,2.732 12.468,2.732 2.543,0 5.001,-0.344 7.34,-0.979 0.545,0.026 1.093,0.039 1.644,0.039 0.002,0 0.002,0 0.005,0 0.956,0 1.921,-0.039 2.89,-0.12 6.175,-0.515 11.832,-2.635 16.594,-5.915 -2.275,3.047 -5.121,5.659 -8.394,7.668 -3.194,1.321 -6.643,2.177 -10.272,2.48 -0.03,0.002 -0.06,0.005 -0.091,0.007 -0.937,0.076 -1.872,0.113 -2.799,0.113 z"
     fill="#c5723f"
     id="path1100" />
  <path
     fill-rule="evenodd"
     clip-rule="evenodd"
     d="m 30.794948,46.309281 c -1.015,-1.585 -1.887,-3.276 -2.595,-5.054 0.005,0.01 0.01,0.021 0.015,0.031 0.707,1.767 1.573,3.447 2.58,5.023 z"
     fill="#402712"
     id="path1102" />
  <path
     fill-rule="evenodd"
     clip-rule="evenodd"
     d="m 30.967948,46.574281 c -0.058,-0.088 -0.115,-0.176 -0.172,-0.265 -1.008,-1.576 -1.874,-3.256 -2.58,-5.023 0,0.002 10e-4,0.002 10e-4,0.002 0.744,1.866 1.669,3.634 2.751,5.286 z"
     fill="#cb9264"
     id="path1104" />
  <path
     fill-rule="evenodd"
     clip-rule="evenodd"
     d="m 56.137948,60.195181 c -10.401,0 -19.753,-5.352 -25.17,-13.621 -1.082,-1.652 -2.006,-3.42 -2.751,-5.286 1.698,3.489 3.407,6.975 8.384,9.68 0.928,0.504 1.852,0.959 2.773,1.364 5.551,3.815 12.25,6.026 19.382,6.026 0.002,0 0.003,0 0.005,0 0.926,0 1.861,-0.037 2.799,-0.113 0.031,-0.002 0.061,-0.005 0.091,-0.007 3.629,-0.303 7.078,-1.159 10.272,-2.48 -3.89,2.388 -8.384,3.925 -13.245,4.331 -0.852,0.071 -1.699,0.106 -2.54,0.106 z"
     fill="#b16840"
     id="path1106" />
  <path
     fill-rule="evenodd"
     clip-rule="evenodd"
     d="m 28.912948,17.335181 c -13.098,-3.137 -22.1389897,-3.764 -23.1109897,-1.101 -1.608,4.406 19.4779897,16.148 47.0969897,26.225 27.619,10.077 51.311002,14.674 52.919002,10.268 1.027,-2.814 -7.206002,-8.622 -20.485002,-15.076 -0.091,0.353 -0.189,0.705 -0.293,1.053 11.539,5.64 18.612002,10.573 17.755002,12.92 -1.403,3.847 -23.577002,-0.709 -49.527002,-10.178 -25.949,-9.468 -45.8469897,-20.262 -44.4429897,-24.109 0.80299,-2.202 8.4139897,-1.65 19.6399897,1 0.143,-0.337 0.292,-0.672 0.448,-1.002 z"
     fill="#d07e44"
     id="path1108" />
  <path
     fill-rule="evenodd"
     clip-rule="evenodd"
     d="m 11.260948,18.226281 c 0.723,-1.981 7.253,-1.611 17.01,0.577 0.063,-0.156 0.128,-0.311 0.194,-0.466 -11.226,-2.65 -18.8369997,-3.202 -19.6399797,-1 -1.404,3.847 18.4939797,14.641 44.4429797,24.109 25.95,9.469 48.124002,14.025 49.527002,10.178 0.857,-2.347 -6.216002,-7.28 -17.755002,-12.92 -0.045,0.154 -0.093,0.307 -0.141,0.461 10.122,5.062 16.238002,9.44 15.460002,11.57 -1.331002,3.648 -22.355002,-0.672 -46.959002,-9.65 -24.605,-8.977 -43.4709997,-19.211 -42.139,-22.859 z"
     fill="#f6a364"
     id="path1110" />
  <path
     fill-rule="evenodd"
     clip-rule="evenodd"
     d="m 5.8019583,16.234181 c 0.972,-2.663 10.0129897,-2.036 23.1109897,1.101 0.086,-0.183 0.173,-0.366 0.263,-0.547 -16.446,-4.352 -28.0069897,-5.616 -29.09299474,-2.641 -1.66499996,4.563 21.93499474,17.366 52.71299474,28.595 30.777,11.229 57.076002,16.635 58.741002,12.072 1.135,-3.11 -9.465,-10.045 -26.070002,-17.701 -0.043,0.179 -0.088,0.359 -0.134,0.538 13.279,6.454 21.512002,12.262 20.485002,15.076 -1.608,4.406 -25.300002,-0.191 -52.919002,-10.268 -27.619,-10.077 -48.7059897,-21.819 -47.0969897,-26.225 z"
     fill="#b0532f"
     id="path1112" />
  <path
     fill-rule="evenodd"
     clip-rule="evenodd"
     d="m 28.270948,18.803181 c -9.756,-2.188 -16.287,-2.558 -17.01,-0.577 -1.3319997,3.648 17.535,13.882 42.139,22.859 24.604,8.978 45.628,13.298 46.959002,9.65 0.778,-2.13 -5.338002,-6.508 -15.460002,-11.57 -0.099,0.314 -0.203,0.625 -0.311,0.935 6.472,3.614 10.166,6.686 9.553,8.366 -1.232,3.378 -19.393,-0.146 -40.562,-7.87 -21.17,-7.724 -37.332,-16.724 -36.1,-20.101 0.546,-1.497 4.415,-1.637 10.395,-0.66 0.126,-0.347 0.259,-0.691 0.397,-1.032 z"
     fill="#cb6f4a"
     id="path1114" />
  <path
     fill-rule="evenodd"
     clip-rule="evenodd"
     d="m 41.169948,20.560181 c -2.016,-2.571 -3.675,-5.441 -4.899,-8.547 1.225,3.106 2.884,5.976 4.899,8.547 z m 10.197,-5.407 h 10e-4 c -3.09,-2.436 -5.745,-5.4170004 -7.81,-8.8129904 2.066,3.39599 4.72,6.3769904 7.809,8.8129904 z m 5.346,-6.9989904 c -1.867,-1.317 -3.586,-2.837 -5.123,-4.532 1.538,1.695 3.257,3.215 5.123,4.532 z"
     fill="#ffc68a"
     id="path1116" />
  <path
     fill-rule="evenodd"
     clip-rule="evenodd"
     d="m 56.712948,8.1542006 c -1.867,-1.317 -3.586,-2.837 -5.123,-4.532 0.343,-0.031 0.675,-0.04701 0.993,-0.04701 1.821,0 3.216,0.51901 3.897,1.60001 0.506,0.80399 0.563,1.831 0.233,2.979 z"
     fill="#f5a267"
     id="path1118" />
  <path
     fill-rule="evenodd"
     clip-rule="evenodd"
     d="m 51.368948,15.153181 c -3.09,-2.436 -5.745,-5.4170004 -7.81,-8.8129904 2.877,-1.575 5.715,-2.504 8.032,-2.718 1.537,1.695 3.256,3.215 5.123,4.532 -0.609,2.1279904 -2.533,4.6739904 -5.345,6.9989904 z"
     fill="#f7ab6e"
     id="path1120" />
  <path
     fill-rule="evenodd"
     clip-rule="evenodd"
     d="m 49.020948,16.899181 c -2.999,-2.635 -5.533,-5.802 -7.445,-9.3719704 0.129,-0.084 0.259,-0.168 0.392,-0.25 0.53,-0.334 1.062,-0.646 1.592,-0.937 2.065,3.39597 4.72,6.3769704 7.809,8.8129704 -0.726,0.601 -1.512,1.186 -2.348,1.746 z"
     fill="#f9bb77"
     id="path1122" />
  <path
     fill-rule="evenodd"
     clip-rule="evenodd"
     d="m 42.669948,20.104181 c -2.288,-2.655 -4.181,-5.672 -5.578,-8.965 1.244,-1.2550004 2.759,-2.4889604 4.484,-3.6119604 1.913,3.5699604 4.445,6.7369604 7.445,9.3719604 -0.232,0.155 -0.467,0.308 -0.706,0.458 -1.907,1.201 -3.835,2.123 -5.645,2.747 z"
     fill="#f8b377"
     id="path1124" />
  <path
     fill-rule="evenodd"
     clip-rule="evenodd"
     d="m 41.169948,20.559281 c -2.015,-2.57 -3.675,-5.44 -4.899,-8.546 0.258,-0.292 0.532,-0.582 0.82,-0.874 1.397,3.293 3.29,6.31 5.578,8.965 -0.509,0.176 -1.011,0.328 -1.499,0.455 z"
     fill="#daa35c"
     id="path1126" />
  <path
     fill-rule="evenodd"
     clip-rule="evenodd"
     d="m 37.695948,21.059181 c -1.82,0 -3.216,-0.519 -3.897,-1.6 -1.111,-1.764 -0.049,-4.601 2.472,-7.446 1.224,3.107 2.883,5.976 4.899,8.547 -1.259,0.33 -2.435,0.499 -3.474,0.499 z"
     fill="#fcbe71"
     id="path1128" />
</svg>
