<svg width="113" height="81" viewBox="0 0 113 81" fill="none" xmlns="http://www.w3.org/2000/svg">
<path fill-rule="evenodd" clip-rule="evenodd" d="M54.569 0.796027C71.139 -0.585973 85.692 11.727 87.074 28.297C88.455 44.867 76.143 59.42 59.573 60.801C43.003 62.183 28.45 49.871 27.068 33.301C25.686 16.73 37.998 2.17803 54.569 0.796027Z" fill="#FFC68A"/>
<path fill-rule="evenodd" clip-rule="evenodd" d="M75.773 7.20601C71.266 3.63101 65.733 1.33501 59.755 0.807007C64.262 4.38101 69.795 6.67801 75.773 7.20601Z" fill="#B97E2F"/>
<path fill-rule="evenodd" clip-rule="evenodd" d="M75.773 7.20605C69.794 6.67805 64.261 4.38104 59.755 0.807045C58.252 0.674045 56.723 0.653046 55.172 0.750046C61.105 6.88405 69.585 10.459 78.723 9.87905C77.799 8.92405 76.814 8.03104 75.773 7.20605Z" fill="#CB6F4A"/>
<path fill-rule="evenodd" clip-rule="evenodd" d="M78.724 9.8801C69.586 10.4601 61.106 6.8851 55.173 0.751099C54.972 0.764099 54.771 0.779099 54.569 0.796099C53.076 0.921099 51.618 1.1521 50.201 1.4821C56.345 10.0941 66.74 15.3421 78.048 14.3991C79.375 14.2881 80.675 14.0961 81.944 13.8261C80.98 12.4181 79.902 11.0991 78.724 9.8801Z" fill="#ED8043"/>
<path fill-rule="evenodd" clip-rule="evenodd" d="M78.047 14.3991C66.739 15.3421 56.344 10.0941 50.2 1.48206C47.623 2.08206 45.182 3.01006 42.92 4.21506C48.696 16.2051 61.429 23.9991 75.483 22.8281C78.968 22.5371 82.281 21.7161 85.351 20.4521C84.486 18.0841 83.335 15.8631 81.943 13.8271C80.675 14.0961 79.374 14.2881 78.047 14.3991Z" fill="#ED9452"/>
<path fill-rule="evenodd" clip-rule="evenodd" d="M75.483 22.8281C61.429 23.9991 48.696 16.2061 42.92 4.21509C42.291 4.55109 41.675 4.90809 41.074 5.28509C46.524 18.3791 59.955 27.0631 74.849 25.8211C78.865 25.4861 82.657 24.4561 86.117 22.8611C85.894 22.0421 85.638 21.2391 85.351 20.4511C82.282 21.7161 78.968 22.5371 75.483 22.8281Z" fill="#F5B266"/>
<path fill-rule="evenodd" clip-rule="evenodd" d="M74.85 25.821C59.956 27.063 46.525 18.379 41.075 5.28503C39.545 6.24603 38.11 7.34003 36.785 8.55003C41.43 23.626 56.07 33.979 72.436 32.614C77.774 32.169 82.724 30.525 87.044 27.969C86.879 26.214 86.566 24.507 86.118 22.861C82.658 24.456 78.866 25.486 74.85 25.821Z" fill="#F6A364"/>
<path fill-rule="evenodd" clip-rule="evenodd" d="M72.436 32.614C56.07 33.979 41.43 23.626 36.785 8.55005C36.525 8.78705 36.269 9.03005 36.017 9.27605C40.326 24.87 55.237 35.693 71.947 34.3C77.529 33.835 82.685 32.059 87.141 29.301C87.124 28.967 87.102 28.632 87.074 28.2971C87.064 28.187 87.055 28.0781 87.044 27.9691C82.724 30.5251 77.774 32.169 72.436 32.614Z" fill="#B97E2F"/>
<path fill-rule="evenodd" clip-rule="evenodd" d="M71.946 34.3C55.237 35.693 40.325 24.87 36.016 9.276C33.428 11.81 31.304 14.801 29.764 18.105C31.918 36.394 48.207 49.816 66.701 48.274C73.865 47.676 80.33 44.919 85.511 40.697C86.753 37.134 87.34 33.283 87.14 29.301C82.685 32.059 77.528 33.835 71.946 34.3Z" fill="#F8B45A"/>
<path fill-rule="evenodd" clip-rule="evenodd" d="M66.702 48.2741C48.208 49.8161 31.919 36.3941 29.765 18.1051C29.15 19.4251 28.628 20.7951 28.208 22.2051C30.324 40.5361 46.634 53.9971 65.154 52.4521C72.096 51.8731 78.382 49.2661 83.479 45.2631C84.279 43.8071 84.96 42.2801 85.512 40.6971C80.331 44.9191 73.866 47.6761 66.702 48.2741Z" fill="#B97E2F"/>
<path fill-rule="evenodd" clip-rule="evenodd" d="M65.154 52.4521C46.634 53.9961 30.324 40.5361 28.208 22.2051C27.999 22.9081 27.815 23.6201 27.656 24.3411C29.722 42.7251 46.058 56.2421 64.614 54.6951C70.798 54.1791 76.463 52.0541 81.229 48.7661C82.057 47.6531 82.81 46.4831 83.479 45.2631C78.382 49.2661 72.096 51.8731 65.154 52.4521Z" fill="#F6B561"/>
<path fill-rule="evenodd" clip-rule="evenodd" d="M64.614 54.6951C46.058 56.2421 29.722 42.7251 27.656 24.3411C27.028 27.2101 26.811 30.2211 27.068 33.3011C27.169 34.5141 27.341 35.7051 27.579 36.8691C32.858 50.8471 46.913 60.2311 62.542 58.9281C66.21 58.6221 69.694 57.7501 72.917 56.4051C76.157 54.3971 78.974 51.7961 81.229 48.7661C76.463 52.0541 70.798 54.1791 64.614 54.6951Z" fill="#F88646"/>
<path fill-rule="evenodd" clip-rule="evenodd" d="M62.541 58.928C46.912 60.231 32.857 50.847 27.578 36.869C30.591 51.601 44.215 62.082 59.572 60.801C64.474 60.392 69.004 58.831 72.916 56.405C69.693 57.75 66.21 58.622 62.541 58.928Z" fill="#CB6F4A"/>
<path fill-rule="evenodd" clip-rule="evenodd" d="M59.646 59.0481C52.514 59.0481 45.815 56.8371 40.264 53.0221L40.266 53.0231C45.816 56.8371 52.516 59.0471 59.646 59.0481ZM62.451 58.9351C62.482 58.9331 62.512 58.9301 62.542 58.9281C62.512 58.9301 62.481 58.9331 62.451 58.9351ZM76.788 9.94108C76.695 9.94108 76.603 9.94008 76.51 9.94008C76.602 9.94008 76.695 9.94108 76.788 9.94108ZM78.685 9.88208C78.687 9.88208 78.688 9.88208 78.69 9.88208C78.688 9.88208 78.686 9.88208 78.685 9.88208Z" fill="#CB9264"/>
<path fill-rule="evenodd" clip-rule="evenodd" d="M75.715 7.20099C74.933 7.12999 74.158 7.02899 73.393 6.89899C72.194 5.89599 70.867 4.94399 69.406 4.05299C65.68 1.77999 62.754 1.30499 59.851 0.88299C59.843 0.87699 59.836 0.87099 59.829 0.86499C65.754 1.40099 71.237 3.67199 75.715 7.20099Z" fill="#A96D31"/>
<path fill-rule="evenodd" clip-rule="evenodd" d="M76.792 9.94109C76.791 9.94109 76.789 9.94109 76.787 9.94109C76.694 9.94109 76.602 9.94009 76.509 9.94009C75.586 8.88409 74.548 7.86709 73.392 6.89909C74.157 7.02909 74.932 7.13009 75.714 7.20109C76.764 8.02809 77.758 8.92309 78.689 9.88209C78.687 9.88209 78.686 9.88209 78.684 9.88209C78.05 9.92209 77.419 9.94109 76.792 9.94109ZM59.851 0.883093C59.764 0.870093 59.677 0.857093 59.591 0.845093C59.67 0.851093 59.75 0.858093 59.829 0.866093C59.835 0.871093 59.843 0.877093 59.851 0.883093Z" fill="#B16840"/>
<path fill-rule="evenodd" clip-rule="evenodd" d="M79.544 14.2381C78.717 12.7511 77.71 11.3131 76.509 9.94008C76.602 9.94008 76.694 9.94108 76.787 9.94108C76.789 9.94108 76.791 9.94108 76.792 9.94108C77.419 9.94108 78.05 9.92208 78.684 9.88208C78.686 9.88208 78.687 9.88208 78.689 9.88208C79.873 11.1011 80.956 12.4211 81.924 13.8301C81.143 13.9961 80.35 14.1321 79.544 14.2381Z" fill="#BF6F3E"/>
<path fill-rule="evenodd" clip-rule="evenodd" d="M82.159 21.5781C81.71 19.0631 80.853 16.5891 79.545 14.2381C80.35 14.1321 81.143 13.9961 81.925 13.8301C83.321 15.8651 84.476 18.0861 85.344 20.4541C84.309 20.8801 83.246 21.2561 82.159 21.5781Z" fill="#C17B45"/>
<path fill-rule="evenodd" clip-rule="evenodd" d="M82.487 24.284C82.428 23.378 82.319 22.475 82.159 21.577C83.246 21.255 84.309 20.879 85.344 20.453C85.632 21.241 85.889 22.044 86.112 22.863C84.94 23.404 83.73 23.879 82.487 24.284Z" fill="#C5864F"/>
<path fill-rule="evenodd" clip-rule="evenodd" d="M82.161 30.355C82.502 28.346 82.618 26.309 82.487 24.284C83.731 23.879 84.941 23.404 86.111 22.864C86.561 24.51 86.875 26.215 87.041 27.97C85.493 28.887 83.862 29.687 82.161 30.355Z" fill="#C48050"/>
<path fill-rule="evenodd" clip-rule="evenodd" d="M81.836 31.9761C81.96 31.4371 82.068 30.8991 82.161 30.3551C83.862 29.6871 85.493 28.8871 87.042 27.9701C87.053 28.0841 87.063 28.1971 87.073 28.3121C87.1 28.6421 87.122 28.9731 87.139 29.3011C85.465 30.3371 83.693 31.2351 81.836 31.9761Z" fill="#A96D31"/>
<path fill-rule="evenodd" clip-rule="evenodd" d="M73.282 47.078C77.513 42.901 80.54 37.583 81.836 31.975C83.693 31.234 85.465 30.336 87.139 29.3C87.342 33.284 86.754 37.1341 85.509 40.6981C81.97 43.5831 77.831 45.783 73.282 47.078Z" fill="#C58649"/>
<path fill-rule="evenodd" clip-rule="evenodd" d="M66.15 52.3551C68.782 50.9451 71.18 49.1521 73.282 47.0781C77.832 45.7831 81.97 43.5831 85.509 40.6991C84.955 42.2841 84.271 43.8141 83.469 45.2711C78.619 49.0771 72.692 51.6201 66.15 52.3551Z" fill="#A96D31"/>
<path fill-rule="evenodd" clip-rule="evenodd" d="M61.724 54.815C61.721 54.815 61.721 54.815 61.719 54.815C61.168 54.815 60.62 54.802 60.075 54.776C62.206 54.197 64.24 53.377 66.15 52.355C72.692 51.62 78.619 49.077 83.468 45.271C82.795 46.494 82.04 47.665 81.207 48.78C76.445 52.06 70.788 54.18 64.613 54.695C63.645 54.776 62.68 54.815 61.724 54.815Z" fill="#C3864C"/>
<path fill-rule="evenodd" clip-rule="evenodd" d="M59.651 59.048C59.649 59.048 59.648 59.048 59.646 59.048C52.515 59.047 45.816 56.837 40.266 53.023C44.552 54.912 48.748 55.755 52.734 55.755C55.277 55.755 57.735 55.411 60.074 54.776C60.619 54.802 61.167 54.815 61.718 54.815C61.72 54.815 61.72 54.815 61.723 54.815C62.679 54.815 63.644 54.776 64.613 54.695C70.788 54.18 76.445 52.06 81.207 48.78C78.932 51.827 76.086 54.439 72.813 56.448C69.619 57.769 66.17 58.625 62.541 58.928C62.511 58.93 62.481 58.933 62.45 58.935C61.513 59.011 60.578 59.048 59.651 59.048Z" fill="#C5723F"/>
<path fill-rule="evenodd" clip-rule="evenodd" d="M31.686 46.9991C30.671 45.4141 29.799 43.7231 29.091 41.9451C29.096 41.9551 29.101 41.9661 29.106 41.9761C29.813 43.7431 30.679 45.4231 31.686 46.9991Z" fill="#402712"/>
<path fill-rule="evenodd" clip-rule="evenodd" d="M31.859 47.2641C31.801 47.1761 31.744 47.0881 31.687 46.9991C30.679 45.4231 29.813 43.7431 29.107 41.9761C29.107 41.9781 29.108 41.9781 29.108 41.9781C29.852 43.8441 30.777 45.6121 31.859 47.2641Z" fill="#CB9264"/>
<path fill-rule="evenodd" clip-rule="evenodd" d="M57.029 60.885C46.628 60.885 37.276 55.533 31.859 47.264C30.777 45.612 29.853 43.844 29.108 41.978C30.806 45.467 32.515 48.953 37.492 51.658C38.42 52.162 39.344 52.617 40.265 53.022C45.816 56.837 52.515 59.048 59.647 59.048C59.649 59.048 59.65 59.048 59.652 59.048C60.578 59.048 61.513 59.011 62.451 58.935C62.482 58.933 62.512 58.93 62.542 58.928C66.171 58.625 69.62 57.769 72.814 56.448C68.924 58.836 64.43 60.373 59.569 60.779C58.717 60.85 57.87 60.885 57.029 60.885Z" fill="#B16840"/>
<path fill-rule="evenodd" clip-rule="evenodd" d="M29.804 18.025C16.706 14.888 7.66501 14.261 6.69301 16.924C5.08501 21.33 26.171 33.072 53.79 43.149C81.409 53.226 105.101 57.823 106.709 53.417C107.736 50.603 99.503 44.795 86.224 38.341C86.133 38.694 86.035 39.046 85.931 39.394C97.47 45.034 104.543 49.967 103.686 52.314C102.283 56.161 80.109 51.605 54.159 42.136C28.21 32.668 8.31201 21.874 9.71601 18.027C10.519 15.825 18.13 16.377 29.356 19.027C29.499 18.69 29.648 18.355 29.804 18.025Z" fill="#D07E44"/>
<path fill-rule="evenodd" clip-rule="evenodd" d="M12.152 18.9161C12.875 16.9351 19.405 17.3051 29.162 19.4931C29.225 19.3371 29.29 19.1821 29.356 19.0271C18.13 16.3771 10.519 15.8251 9.71602 18.0271C8.31202 21.8741 28.21 32.6681 54.159 42.1361C80.109 51.6051 102.283 56.1611 103.686 52.3141C104.543 49.9671 97.47 45.0341 85.931 39.3941C85.886 39.5481 85.838 39.7011 85.79 39.8551C95.912 44.9171 102.028 49.2951 101.25 51.4251C99.919 55.0731 78.895 50.7531 54.291 41.7751C29.686 32.7981 10.82 22.5641 12.152 18.9161Z" fill="#F6A364"/>
<path fill-rule="evenodd" clip-rule="evenodd" d="M6.69301 16.924C7.66501 14.261 16.706 14.888 29.804 18.025C29.89 17.842 29.977 17.659 30.067 17.478C13.621 13.126 2.06001 11.862 0.974005 14.837C-0.690995 19.4 22.909 32.203 53.687 43.432C84.464 54.661 110.763 60.067 112.428 55.504C113.563 52.394 102.963 45.459 86.358 37.803C86.315 37.982 86.27 38.162 86.224 38.341C99.503 44.795 107.736 50.603 106.709 53.417C105.101 57.823 81.409 53.226 53.79 43.149C26.171 33.072 5.08401 21.33 6.69301 16.924Z" fill="#B0532F"/>
<path fill-rule="evenodd" clip-rule="evenodd" d="M29.162 19.493C19.406 17.305 12.875 16.935 12.152 18.916C10.82 22.564 29.687 32.798 54.291 41.775C78.895 50.753 99.919 55.073 101.25 51.425C102.028 49.295 95.912 44.917 85.79 39.855C85.691 40.169 85.587 40.48 85.479 40.79C91.951 44.404 95.645 47.476 95.032 49.156C93.8 52.534 75.639 49.01 54.47 41.286C33.3 33.562 17.138 24.562 18.37 21.185C18.916 19.688 22.785 19.548 28.765 20.525C28.891 20.178 29.024 19.834 29.162 19.493Z" fill="#CB6F4A"/>
<path fill-rule="evenodd" clip-rule="evenodd" d="M42.061 21.25C40.045 18.679 38.386 15.809 37.162 12.703C38.387 15.809 40.046 18.679 42.061 21.25ZM52.258 15.843H52.259C49.169 13.407 46.514 10.426 44.449 7.03001C46.515 10.426 49.169 13.407 52.258 15.843ZM57.604 8.84401C55.737 7.52701 54.018 6.00701 52.481 4.31201C54.019 6.00701 55.738 7.52701 57.604 8.84401Z" fill="#FFC68A"/>
<path fill-rule="evenodd" clip-rule="evenodd" d="M57.604 8.84402C55.737 7.52702 54.018 6.00702 52.481 4.31202C52.824 4.28102 53.156 4.26501 53.474 4.26501C55.295 4.26501 56.69 4.78402 57.371 5.86502C57.877 6.66901 57.934 7.69602 57.604 8.84402Z" fill="#F5A267"/>
<path fill-rule="evenodd" clip-rule="evenodd" d="M52.26 15.843C49.17 13.407 46.515 10.426 44.45 7.03001C47.327 5.45501 50.165 4.52601 52.482 4.31201C54.019 6.00701 55.738 7.52701 57.605 8.84401C56.996 10.972 55.072 13.518 52.26 15.843Z" fill="#F7AB6E"/>
<path fill-rule="evenodd" clip-rule="evenodd" d="M49.912 17.589C46.913 14.954 44.379 11.787 42.467 8.21703C42.596 8.13303 42.726 8.04903 42.859 7.96703C43.389 7.63303 43.921 7.32103 44.451 7.03003C46.516 10.426 49.171 13.407 52.26 15.843C51.534 16.444 50.748 17.029 49.912 17.589Z" fill="#F9BB77"/>
<path fill-rule="evenodd" clip-rule="evenodd" d="M43.561 20.794C41.273 18.139 39.38 15.122 37.983 11.829C39.227 10.574 40.742 9.34004 42.467 8.21704C44.38 11.787 46.912 14.954 49.912 17.589C49.68 17.744 49.445 17.897 49.206 18.047C47.299 19.248 45.371 20.17 43.561 20.794Z" fill="#F8B377"/>
<path fill-rule="evenodd" clip-rule="evenodd" d="M42.061 21.2491C40.046 18.6791 38.386 15.8091 37.162 12.7031C37.42 12.4111 37.694 12.1211 37.982 11.8291C39.379 15.1221 41.272 18.1391 43.56 20.7941C43.051 20.9701 42.549 21.1221 42.061 21.2491Z" fill="#DAA35C"/>
<path fill-rule="evenodd" clip-rule="evenodd" d="M38.587 21.749C36.767 21.749 35.371 21.23 34.69 20.149C33.579 18.385 34.641 15.548 37.162 12.703C38.386 15.81 40.045 18.679 42.061 21.25C40.802 21.58 39.626 21.749 38.587 21.749Z" fill="#FCBE71"/>
</svg>

