<svg width="71" height="86" viewBox="0 0 71 86" fill="none" xmlns="http://www.w3.org/2000/svg">
<path fill-rule="evenodd" clip-rule="evenodd" d="M35.688 59.7899C49.234 59.7899 60.282 48.7409 60.282 35.1939C60.282 21.6479 49.234 10.5989 35.688 10.5989C22.142 10.5989 11.092 21.6479 11.092 35.1939C11.092 48.7409 22.142 59.7899 35.688 59.7899Z" fill="#FFD03B"/>
<path fill-rule="evenodd" clip-rule="evenodd" d="M52.354 15.336C52.537 15.186 52.721 15.035 53.038 14.976C53.354 14.916 53.804 14.948 54.175 15.037C54.547 15.127 54.84 15.272 55.19 15.403C55.54 15.534 55.948 15.648 56.378 15.701C56.807 15.754 57.256 15.743 57.764 15.638C58.271 15.533 58.836 15.334 59.224 15.083C59.61 14.832 59.82 14.529 59.859 14.136C59.899 13.744 59.768 13.263 59.752 12.809C59.737 12.354 59.835 11.924 60.154 11.598C60.473 11.271 61.012 11.045 61.431 11.124C61.849 11.202 62.147 11.584 62.446 11.966C62.153 11.791 61.861 11.615 61.583 11.611C61.306 11.606 61.044 11.77 60.945 12.051C60.846 12.332 60.908 12.73 61.039 13.116C61.169 13.504 61.369 13.88 61.478 14.272C61.588 14.664 61.609 15.073 61.593 15.485C61.577 15.899 61.525 16.317 61.389 16.72C61.252 17.123 61.034 17.51 60.798 17.786C60.563 18.064 60.312 18.231 60.009 18.372C59.705 18.514 59.349 18.629 58.973 18.754C58.597 18.88 58.199 19.016 57.922 19.189C57.644 19.361 57.488 19.571 57.382 19.836C57.276 20.103 57.221 20.428 57.166 20.751C56.572 19.862 55.978 18.973 55.248 18.121C54.518 17.268 53.649 16.452 53.144 15.995C52.637 15.537 52.496 15.437 52.354 15.336Z" fill="#F56B3F"/>
<path fill-rule="evenodd" clip-rule="evenodd" d="M35.688 59.79C48.978 59.79 59.864 49.155 60.271 35.96C59.866 49.189 49.014 59.79 35.688 59.79ZM35.602 59.79C35.592 59.79 35.581 59.79 35.571 59.79C35.582 59.79 35.591 59.79 35.602 59.79ZM35.567 59.79C24.531 59.737 15.213 52.415 12.154 42.367C12.166 42.397 12.177 42.428 12.19 42.459C15.29 52.442 24.6 59.736 35.567 59.79ZM60.271 34.431C59.908 22.63 51.164 12.879 39.813 10.949C39.8 10.945 39.787 10.942 39.774 10.938C51.167 12.844 59.909 22.584 60.271 34.431Z" fill="#722F0E"/>
<path fill-rule="evenodd" clip-rule="evenodd" d="M35.688 59.79C35.675 59.79 35.663 59.79 35.651 59.79C35.647 59.79 35.644 59.79 35.64 59.79C35.631 59.79 35.622 59.79 35.613 59.79C35.609 59.79 35.605 59.79 35.602 59.79C35.591 59.79 35.582 59.79 35.571 59.79H35.566C24.599 59.736 15.289 52.442 12.19 42.459C13.327 45.397 14.493 48.33 18.333 50.855C23.072 53.97 27.858 55.309 32.371 55.309C52.527 55.309 67.197 28.588 47.546 14.219C44.598 12.063 42.204 11.5 39.813 10.948C51.164 12.879 59.908 22.63 60.271 34.43C60.279 34.684 60.282 34.938 60.282 35.194C60.282 35.451 60.279 35.706 60.271 35.96C59.864 49.155 48.979 59.79 35.688 59.79Z" fill="#F98E3C"/>
<path fill-rule="evenodd" clip-rule="evenodd" d="M20.309 26.9189C18.853 26.9189 17.734 26.5029 17.189 25.6379C15.785 23.4089 18.713 19.0399 23.73 15.8819C26.798 13.9489 29.937 12.9159 32.233 12.9159C33.691 12.9159 34.809 13.3329 35.354 14.1969C36.757 16.4259 33.83 20.7949 28.814 23.9539C25.744 25.8869 22.605 26.9189 20.309 26.9189Z" fill="#FDD968"/>
<path fill-rule="evenodd" clip-rule="evenodd" d="M46.198 11.832C46.29 11.674 46.382 11.516 46.594 11.388C46.806 11.259 47.14 11.16 47.432 11.125C47.724 11.089 47.976 11.116 48.264 11.116C48.553 11.117 48.879 11.09 49.202 11.012C49.526 10.935 49.849 10.806 50.188 10.594C50.526 10.381 50.881 10.085 51.093 9.79996C51.304 9.51496 51.374 9.23797 51.297 8.94497C51.219 8.64997 50.995 8.33796 50.862 8.01296C50.728 7.68896 50.684 7.35197 50.827 7.02897C50.97 6.70797 51.299 6.39896 51.622 6.34296C51.945 6.28696 52.263 6.48296 52.582 6.67896C52.323 6.63096 52.065 6.58397 51.863 6.65397C51.661 6.72497 51.516 6.91496 51.52 7.14396C51.524 7.37396 51.677 7.64497 51.874 7.88897C52.074 8.13397 52.318 8.35196 52.503 8.60696C52.688 8.86096 52.813 9.14996 52.913 9.45296C53.013 9.75696 53.088 10.073 53.098 10.401C53.108 10.727 53.053 11.066 52.957 11.33C52.861 11.595 52.725 11.783 52.544 11.967C52.363 12.151 52.137 12.329 51.898 12.522C51.659 12.714 51.408 12.919 51.254 13.119C51.1 13.318 51.043 13.512 51.039 13.732C51.033 13.954 51.08 14.203 51.128 14.451C50.461 13.969 49.791 13.486 49.034 13.066C48.277 12.647 47.43 12.292 46.941 12.096C46.456 11.901 46.327 11.865 46.198 11.832Z" fill="#FFD03B"/>
<path fill-rule="evenodd" clip-rule="evenodd" d="M37.423 9.54494C37.484 9.31594 37.545 9.08794 37.766 8.85494C37.989 8.62194 38.371 8.38394 38.724 8.23894C39.079 8.09394 39.401 8.04194 39.762 7.94394C40.122 7.84394 40.521 7.69994 40.9 7.49094C41.279 7.28394 41.638 7.01195 41.988 6.63195C42.339 6.24995 42.681 5.75894 42.849 5.32794C43.016 4.89794 43.008 4.52995 42.812 4.18795C42.614 3.84795 42.227 3.53395 41.948 3.17295C41.669 2.81295 41.499 2.40594 41.567 1.95494C41.635 1.50294 41.941 1.00595 42.327 0.823947C42.713 0.642947 43.178 0.779942 43.643 0.915942C43.303 0.944942 42.963 0.973939 42.735 1.13094C42.507 1.28894 42.391 1.57494 42.475 1.86194C42.558 2.14794 42.842 2.43294 43.174 2.67194C43.506 2.90894 43.887 3.09894 44.206 3.35294C44.524 3.60694 44.78 3.92594 45.008 4.27094C45.237 4.61594 45.439 4.98594 45.564 5.39194C45.689 5.79794 45.737 6.24094 45.708 6.60294C45.679 6.96594 45.573 7.24794 45.409 7.53994C45.245 7.83193 45.025 8.13294 44.792 8.45594C44.56 8.77694 44.316 9.11995 44.192 9.42295C44.067 9.72495 44.063 9.98595 44.132 10.2639C44.201 10.5419 44.346 10.8369 44.491 11.1319C43.49 10.7579 42.489 10.3829 41.398 10.1179C40.307 9.85394 39.126 9.69794 38.448 9.62194C37.77 9.54394 37.597 9.54394 37.423 9.54494Z" fill="#F56B3F"/>
<path fill-rule="evenodd" clip-rule="evenodd" d="M30.346 10.0529C30.335 9.86987 30.324 9.68788 30.429 9.46288C30.535 9.23788 30.758 8.97188 30.981 8.77888C31.205 8.58788 31.429 8.47088 31.669 8.30988C31.909 8.15088 32.166 7.94888 32.392 7.70288C32.618 7.45988 32.816 7.17388 32.979 6.80888C33.143 6.44488 33.274 6.00188 33.293 5.64688C33.311 5.29188 33.216 5.02388 32.989 4.82188C32.762 4.62088 32.401 4.48387 32.11 4.28787C31.818 4.09287 31.596 3.83688 31.535 3.48988C31.476 3.14088 31.578 2.70387 31.816 2.47787C32.055 2.25087 32.428 2.23788 32.802 2.22388C32.56 2.32788 32.318 2.43187 32.189 2.60287C32.06 2.77287 32.045 3.01188 32.176 3.20088C32.306 3.38888 32.583 3.52987 32.884 3.62387C33.185 3.71687 33.51 3.76387 33.805 3.87187C34.099 3.97987 34.363 4.15188 34.614 4.34888C34.866 4.54588 35.103 4.76788 35.293 5.03488C35.483 5.30288 35.626 5.61387 35.692 5.88687C35.758 6.15787 35.75 6.39088 35.701 6.64388C35.652 6.89888 35.563 7.17188 35.472 7.46388C35.38 7.75588 35.285 8.06587 35.268 8.31787C35.25 8.56887 35.31 8.76088 35.428 8.94788C35.547 9.13388 35.724 9.31587 35.902 9.49687C35.078 9.46587 34.255 9.43488 33.391 9.50688C32.529 9.57688 31.625 9.75187 31.111 9.85887C30.599 9.96687 30.473 10.0099 30.346 10.0529Z" fill="#FFD03B"/>
<path fill-rule="evenodd" clip-rule="evenodd" d="M21.611 13.5399C21.518 13.3209 21.425 13.1049 21.457 12.7839C21.489 12.4629 21.646 12.0409 21.835 11.7089C22.025 11.3779 22.248 11.1379 22.472 10.8389C22.696 10.5389 22.922 10.1789 23.092 9.78291C23.263 9.38591 23.38 8.95091 23.422 8.43491C23.464 7.91791 23.432 7.31991 23.3 6.87691C23.167 6.43591 22.935 6.14991 22.57 6.00191C22.204 5.85391 21.706 5.8439 21.264 5.7319C20.823 5.6189 20.44 5.40291 20.216 5.00391C19.991 4.60691 19.928 4.02591 20.12 3.64691C20.313 3.26691 20.763 3.08791 21.214 2.90991C20.963 3.14091 20.713 3.37292 20.629 3.63892C20.546 3.90392 20.631 4.20191 20.873 4.37491C21.115 4.54891 21.514 4.60091 21.922 4.58391C22.33 4.56691 22.748 4.48191 23.155 4.48691C23.562 4.49091 23.96 4.5869 24.351 4.7169C24.743 4.8489 25.131 5.0159 25.478 5.2599C25.827 5.5039 26.136 5.82291 26.336 6.12691C26.535 6.43191 26.626 6.7189 26.676 7.0509C26.726 7.3809 26.736 7.75491 26.751 8.15091C26.766 8.54791 26.784 8.96691 26.873 9.28091C26.96 9.59491 27.117 9.8049 27.343 9.9819C27.569 10.1589 27.864 10.3019 28.159 10.4469C27.139 10.7659 26.119 11.0859 25.096 11.5489C24.072 12.0099 23.045 12.6129 22.464 12.9699C21.883 13.3249 21.747 13.4329 21.611 13.5399Z" fill="#F56B3F"/>
<path fill-rule="evenodd" clip-rule="evenodd" d="M16.093 18.3009C15.969 18.1659 15.845 18.0309 15.786 17.7899C15.727 17.5499 15.73 17.2019 15.783 16.9119C15.835 16.6219 15.935 16.3909 16.021 16.1139C16.106 15.8389 16.177 15.5199 16.197 15.1869C16.219 14.8539 16.191 14.5089 16.088 14.1229C15.985 13.7369 15.807 13.3119 15.597 13.0229C15.386 12.7369 15.143 12.5889 14.84 12.5759C14.535 12.5629 14.172 12.6839 13.821 12.7169C13.471 12.7499 13.137 12.6929 12.871 12.4609C12.605 12.2289 12.408 11.8239 12.45 11.4979C12.492 11.1729 12.773 10.9269 13.054 10.6809C12.932 10.9129 12.81 11.1469 12.818 11.3609C12.826 11.5739 12.965 11.7679 13.186 11.8329C13.407 11.8969 13.71 11.8319 14.002 11.7139C14.294 11.5959 14.576 11.4259 14.873 11.3239C15.17 11.2219 15.483 11.1879 15.802 11.1809C16.121 11.1759 16.446 11.1979 16.762 11.2849C17.078 11.3719 17.386 11.5239 17.61 11.6929C17.833 11.8619 17.974 12.0479 18.095 12.2759C18.218 12.5029 18.321 12.7709 18.434 13.0549C18.548 13.3399 18.669 13.6399 18.815 13.8449C18.96 14.0519 19.128 14.1629 19.338 14.2329C19.548 14.3029 19.799 14.3319 20.052 14.3589C19.393 14.8559 18.736 15.3519 18.111 15.9519C17.487 16.5529 16.898 17.2569 16.567 17.6659C16.237 18.0739 16.165 18.1869 16.093 18.3009Z" fill="#FFD03B"/>
<path fill-rule="evenodd" clip-rule="evenodd" d="M11.654 25.6079C11.452 25.4829 11.251 25.359 11.093 25.079C10.935 24.799 10.818 24.3629 10.783 23.9819C10.747 23.6019 10.791 23.278 10.802 22.904C10.812 22.53 10.79 22.107 10.701 21.684C10.611 21.26 10.456 20.8369 10.194 20.3919C9.931 19.9459 9.561 19.475 9.198 19.19C8.835 18.905 8.47999 18.8039 8.09599 18.8939C7.71199 18.9839 7.3 19.2629 6.873 19.4239C6.448 19.5859 6.01 19.63 5.597 19.434C5.185 19.238 4.798 18.7999 4.737 18.3789C4.675 17.9579 4.94199 17.5529 5.20599 17.1479C5.13499 17.4809 5.06299 17.8149 5.14799 18.0789C5.23199 18.3439 5.472 18.5379 5.771 18.5409C6.069 18.5449 6.42499 18.3559 6.74899 18.1069C7.07399 17.8579 7.36599 17.5479 7.70199 17.3179C8.03799 17.0879 8.417 16.9359 8.813 16.8169C9.209 16.6989 9.622 16.6129 10.047 16.6119C10.472 16.6109 10.909 16.6939 11.248 16.8269C11.586 16.9599 11.826 17.1429 12.057 17.3849C12.289 17.6269 12.513 17.9269 12.754 18.2409C12.994 18.5569 13.251 18.8899 13.504 19.0959C13.757 19.3019 14.005 19.3839 14.292 19.3979C14.579 19.4129 14.903 19.359 15.227 19.307C14.578 20.156 13.928 21.0039 13.358 21.9719C12.788 22.9389 12.295 24.0249 12.025 24.6499C11.753 25.2759 11.703 25.4419 11.654 25.6079Z" fill="#F56B3F"/>
<path fill-rule="evenodd" clip-rule="evenodd" d="M9.95101 32.6439C9.77401 32.6019 9.596 32.5599 9.411 32.3919C9.227 32.2259 9.03701 31.9349 8.91901 31.6639C8.80101 31.3939 8.756 31.1449 8.672 30.8699C8.589 30.5939 8.47 30.2889 8.303 30.0009C8.136 29.7119 7.92 29.4399 7.62 29.1779C7.319 28.9139 6.93401 28.6599 6.60001 28.5369C6.26501 28.4169 5.981 28.4299 5.722 28.5869C5.462 28.7459 5.22701 29.0499 4.95501 29.2719C4.68201 29.4929 4.37201 29.6319 4.02201 29.5869C3.67201 29.5429 3.283 29.3159 3.138 29.0229C2.991 28.7289 3.08701 28.3679 3.18401 28.0059C3.21201 28.2689 3.241 28.5289 3.366 28.7019C3.493 28.8759 3.716 28.9599 3.935 28.8899C4.154 28.8209 4.369 28.5979 4.547 28.3369C4.723 28.0759 4.863 27.7779 5.053 27.5289C5.242 27.2779 5.484 27.0749 5.745 26.8929C6.007 26.7099 6.288 26.5469 6.599 26.4429C6.91 26.3389 7.25001 26.2949 7.53101 26.3109C7.81101 26.3269 8.03 26.4029 8.258 26.5229C8.486 26.6449 8.722 26.8099 8.974 26.9829C9.226 27.1569 9.495 27.3369 9.73 27.4279C9.965 27.5179 10.167 27.5169 10.38 27.4579C10.594 27.3989 10.818 27.2819 11.042 27.1649C10.772 27.9439 10.502 28.7239 10.318 29.5689C10.134 30.4149 10.036 31.3279 9.989 31.8509C9.942 32.3769 9.94601 32.5109 9.95101 32.6439Z" fill="#FFD03B"/>
<path fill-rule="evenodd" clip-rule="evenodd" d="M10.525 41.8819C10.288 41.8979 10.052 41.9129 9.75999 41.7779C9.46799 41.6409 9.121 41.3529 8.871 41.0639C8.621 40.7759 8.47 40.4859 8.261 40.1739C8.053 39.8639 7.78799 39.5309 7.47099 39.2399C7.15299 38.9469 6.78201 38.6929 6.30901 38.4819C5.83601 38.2709 5.262 38.1019 4.8 38.0809C4.34 38.0589 3.99199 38.1839 3.73199 38.4779C3.47199 38.7739 3.29701 39.2409 3.04401 39.6199C2.79101 39.9979 2.461 40.2879 2.011 40.3679C1.561 40.4469 0.991998 40.3149 0.697998 40.0069C0.403998 39.6999 0.385005 39.2159 0.365005 38.7319C0.500005 39.0449 0.636002 39.3579 0.858002 39.5249C1.081 39.6909 1.389 39.7099 1.634 39.5399C1.878 39.3699 2.059 39.0099 2.179 38.6189C2.299 38.2279 2.357 37.8059 2.496 37.4249C2.636 37.0419 2.85699 36.6979 3.11099 36.3719C3.36499 36.0459 3.65099 35.7359 3.99699 35.4879C4.34199 35.2399 4.74701 35.0539 5.10001 34.9669C5.45201 34.8799 5.75399 34.8899 6.08299 34.9519C6.41199 35.0139 6.768 35.1289 7.147 35.2469C7.526 35.3639 7.928 35.4859 8.254 35.5079C8.579 35.5289 8.829 35.4499 9.071 35.2969C9.312 35.1419 9.54601 34.9109 9.77901 34.6809C9.74301 35.7479 9.706 36.8169 9.802 37.9349C9.898 39.0539 10.127 40.2229 10.269 40.8899C10.414 41.5549 10.469 41.7179 10.525 41.8819Z" fill="#F56B3F"/>
<path fill-rule="evenodd" clip-rule="evenodd" d="M13.578 48.689C13.412 48.766 13.247 48.842 12.999 48.826C12.751 48.808 12.421 48.697 12.162 48.558C11.902 48.418 11.713 48.252 11.476 48.086C11.24 47.92 10.958 47.755 10.648 47.632C10.338 47.509 10.001 47.43 9.60201 47.407C9.20301 47.387 8.743 47.425 8.405 47.536C8.067 47.648 7.852 47.834 7.746 48.119C7.64 48.404 7.64399 48.789 7.56599 49.131C7.48899 49.474 7.332 49.775 7.03 49.956C6.728 50.138 6.282 50.199 5.985 50.059C5.689 49.919 5.54 49.576 5.392 49.232C5.577 49.421 5.761 49.609 5.967 49.667C6.173 49.726 6.40001 49.654 6.52901 49.463C6.65801 49.273 6.68901 48.964 6.66701 48.65C6.64401 48.336 6.57 48.015 6.564 47.701C6.56 47.387 6.623 47.079 6.716 46.773C6.808 46.467 6.929 46.166 7.11 45.892C7.289 45.618 7.529 45.372 7.759 45.211C7.988 45.05 8.208 44.975 8.463 44.929C8.717 44.882 9.005 44.865 9.31 44.846C9.616 44.825 9.93899 44.802 10.18 44.727C10.42 44.652 10.578 44.527 10.709 44.348C10.84 44.171 10.944 43.94 11.049 43.709C11.318 44.488 11.587 45.267 11.967 46.045C12.345 46.824 12.834 47.603 13.121 48.043C13.407 48.483 13.492 48.586 13.578 48.689Z" fill="#FFD03B"/>
<path fill-rule="evenodd" clip-rule="evenodd" d="M19.154 55.2279C18.975 55.3809 18.795 55.536 18.479 55.601C18.164 55.667 17.713 55.644 17.34 55.562C16.967 55.48 16.672 55.3389 16.318 55.2139C15.966 55.0899 15.556 54.9819 15.126 54.9389C14.696 54.8939 14.247 54.913 13.742 55.028C13.237 55.142 12.676 55.3509 12.293 55.6099C11.91 55.8669 11.707 56.1739 11.675 56.5669C11.643 56.9609 11.783 57.4389 11.806 57.8929C11.831 58.3479 11.74 58.7789 11.427 59.1119C11.114 59.4449 10.579 59.6799 10.159 59.6089C9.74 59.5389 9.434 59.1629 9.129 58.7859C9.424 58.9559 9.72099 59.1259 9.99899 59.1259C10.276 59.1259 10.534 58.957 10.629 58.674C10.722 58.391 10.652 57.9949 10.514 57.6099C10.376 57.2249 10.171 56.8519 10.054 56.4619C9.936 56.0719 9.908 55.6649 9.916 55.2509C9.924 54.8379 9.96799 54.4179 10.096 54.0139C10.225 53.6089 10.438 53.2169 10.667 52.9359C10.897 52.6549 11.146 52.4819 11.446 52.3349C11.746 52.1879 12.1 52.0659 12.474 51.9339C12.848 51.8009 13.244 51.6579 13.518 51.4799C13.792 51.3029 13.945 51.0899 14.046 50.8219C14.147 50.5539 14.195 50.2289 14.244 49.9039C14.854 50.7819 15.465 51.6589 16.211 52.4979C16.958 53.3359 17.842 54.1359 18.354 54.5849C18.868 55.0309 19.011 55.1299 19.154 55.2279Z" fill="#F56B3F"/>
<path fill-rule="evenodd" clip-rule="evenodd" d="M25.424 59.0479C25.327 59.2029 25.23 59.3579 25.014 59.4809C24.798 59.6009 24.461 59.6899 24.168 59.7169C23.874 59.7429 23.625 59.7079 23.335 59.6989C23.047 59.6899 22.72 59.7069 22.395 59.7749C22.069 59.8419 21.743 59.9609 21.398 60.1619C21.052 60.3639 20.689 60.6479 20.468 60.9289C20.247 61.2069 20.17 61.4809 20.238 61.7759C20.306 62.0729 20.521 62.3929 20.644 62.7209C20.768 63.0489 20.802 63.3869 20.648 63.7049C20.496 64.0219 20.158 64.3199 19.833 64.3659C19.508 64.4119 19.196 64.2069 18.884 64.0009C19.141 64.0559 19.399 64.1119 19.603 64.0479C19.807 63.9829 19.958 63.7989 19.961 63.5679C19.964 63.3379 19.82 63.063 19.629 62.812C19.438 62.562 19.2 62.3349 19.023 62.0759C18.846 61.8169 18.73 61.5239 18.639 61.2179C18.549 60.9129 18.484 60.5939 18.484 60.2659C18.484 59.9379 18.548 59.6009 18.652 59.3409C18.756 59.0799 18.897 58.8959 19.085 58.7169C19.272 58.5389 19.503 58.368 19.748 58.183C19.992 57.998 20.249 57.8009 20.409 57.6069C20.568 57.4129 20.632 57.2199 20.643 56.9999C20.655 56.7789 20.615 56.5279 20.576 56.2789C21.229 56.7819 21.882 57.2849 22.626 57.7269C23.37 58.1689 24.207 58.5509 24.689 58.7609C25.169 58.9709 25.295 59.0089 25.424 59.0479Z" fill="#FFD03B"/>
<path fill-rule="evenodd" clip-rule="evenodd" d="M34.317 60.89C34.273 61.122 34.228 61.354 34.023 61.603C33.818 61.851 33.452 62.114 33.109 62.284C32.767 62.452 32.447 62.527 32.094 62.65C31.741 62.774 31.354 62.946 30.99 63.179C30.627 63.413 30.287 63.708 29.964 64.113C29.641 64.518 29.334 65.033 29.196 65.473C29.058 65.913 29.092 66.281 29.312 66.607C29.533 66.933 29.941 67.221 30.243 67.56C30.546 67.9 30.744 68.293 30.707 68.748C30.671 69.204 30.399 69.722 30.028 69.929C29.657 70.136 29.182 70.032 28.71 69.929C29.047 69.876 29.385 69.825 29.601 69.651C29.817 69.478 29.914 69.185 29.809 68.905C29.706 68.626 29.404 68.36 29.056 68.145C28.708 67.93 28.315 67.768 27.98 67.537C27.645 67.306 27.368 67.005 27.116 66.677C26.864 66.349 26.637 65.994 26.484 65.598C26.332 65.201 26.254 64.763 26.257 64.4C26.261 64.036 26.347 63.747 26.49 63.444C26.633 63.142 26.833 62.826 27.043 62.489C27.252 62.151 27.471 61.793 27.574 61.483C27.676 61.172 27.664 60.912 27.575 60.639C27.487 60.367 27.322 60.082 27.157 59.798C28.181 60.102 29.207 60.406 30.313 60.595C31.421 60.784 32.609 60.857 33.291 60.886C33.972 60.915 34.145 60.902 34.317 60.89Z" fill="#F56B3F"/>
<path fill-rule="evenodd" clip-rule="evenodd" d="M41.838 60.429C41.849 60.612 41.862 60.794 41.756 61.019C41.652 61.244 41.43 61.512 41.207 61.704C40.984 61.897 40.761 62.015 40.521 62.176C40.282 62.337 40.026 62.541 39.801 62.786C39.575 63.03 39.38 63.317 39.217 63.683C39.055 64.048 38.925 64.492 38.908 64.847C38.891 65.202 38.988 65.47 39.216 65.671C39.444 65.871 39.804 66.006 40.097 66.2C40.389 66.394 40.613 66.649 40.674 66.997C40.736 67.344 40.634 67.782 40.397 68.01C40.16 68.237 39.787 68.252 39.413 68.268C39.655 68.163 39.896 68.057 40.024 67.886C40.152 67.715 40.166 67.477 40.035 67.288C39.904 67.099 39.626 66.96 39.325 66.868C39.023 66.776 38.698 66.731 38.404 66.624C38.109 66.517 37.843 66.347 37.591 66.15C37.339 65.954 37.1 65.734 36.909 65.467C36.718 65.2 36.574 64.889 36.506 64.616C36.437 64.343 36.445 64.111 36.494 63.857C36.542 63.604 36.629 63.33 36.721 63.038C36.811 62.745 36.905 62.435 36.921 62.184C36.937 61.933 36.877 61.74 36.757 61.554C36.637 61.368 36.459 61.188 36.282 61.007C37.105 61.035 37.928 61.063 38.792 60.987C39.654 60.912 40.556 60.735 41.07 60.625C41.585 60.516 41.711 60.473 41.838 60.429Z" fill="#FFD03B"/>
<path fill-rule="evenodd" clip-rule="evenodd" d="M50.001 57.006C50.095 57.223 50.189 57.44 50.159 57.761C50.129 58.081 49.975 58.505 49.787 58.837C49.599 59.169 49.377 59.411 49.155 59.712C48.933 60.012 48.709 60.372 48.541 60.771C48.372 61.168 48.258 61.604 48.219 62.121C48.179 62.637 48.214 63.235 48.349 63.677C48.484 64.117 48.717 64.403 49.084 64.549C49.45 64.695 49.949 64.702 50.39 64.812C50.832 64.923 51.216 65.137 51.443 65.534C51.669 65.932 51.737 66.512 51.545 66.892C51.354 67.272 50.905 67.454 50.456 67.634C50.705 67.401 50.954 67.167 51.036 66.903C51.117 66.638 51.032 66.341 50.788 66.169C50.545 65.995 50.145 65.945 49.737 65.965C49.329 65.984 48.913 66.071 48.506 66.069C48.098 66.066 47.701 65.973 47.308 65.844C46.915 65.715 46.527 65.549 46.178 65.307C45.828 65.066 45.517 64.747 45.315 64.445C45.114 64.142 45.023 63.855 44.97 63.525C44.918 63.194 44.906 62.82 44.889 62.423C44.873 62.027 44.851 61.607 44.762 61.292C44.673 60.978 44.515 60.77 44.288 60.594C44.061 60.419 43.764 60.278 43.469 60.134C44.487 59.81 45.505 59.485 46.526 59.017C47.547 58.55 48.571 57.94 49.15 57.581C49.73 57.221 49.865 57.113 50.001 57.006Z" fill="#F56B3F"/>
<path fill-rule="evenodd" clip-rule="evenodd" d="M54.819 52.757C54.94 52.894 55.06 53.03 55.114 53.273C55.168 53.516 55.156 53.864 55.096 54.153C55.036 54.441 54.931 54.67 54.839 54.944C54.747 55.217 54.669 55.535 54.64 55.866C54.61 56.199 54.63 56.545 54.723 56.933C54.816 57.321 54.983 57.752 55.187 58.044C55.391 58.335 55.629 58.489 55.933 58.509C56.237 58.531 56.604 58.416 56.954 58.393C57.304 58.37 57.637 58.436 57.897 58.673C58.157 58.91 58.344 59.32 58.294 59.645C58.244 59.97 57.957 60.209 57.67 60.449C57.798 60.218 57.925 59.988 57.922 59.774C57.92 59.56 57.785 59.363 57.567 59.294C57.348 59.225 57.043 59.283 56.748 59.394C56.453 59.504 56.168 59.667 55.868 59.762C55.569 59.857 55.255 59.882 54.935 59.881C54.616 59.88 54.293 59.85 53.978 59.755C53.665 59.66 53.361 59.501 53.141 59.326C52.921 59.152 52.786 58.963 52.669 58.732C52.553 58.503 52.456 58.231 52.349 57.944C52.242 57.657 52.128 57.353 51.988 57.144C51.847 56.935 51.682 56.82 51.474 56.744C51.266 56.67 51.015 56.635 50.763 56.601C51.433 56.121 52.104 55.641 52.742 55.056C53.38 54.47 53.987 53.781 54.327 53.38C54.671 52.979 54.745 52.867 54.819 52.757Z" fill="#FFD03B"/>
<path fill-rule="evenodd" clip-rule="evenodd" d="M59.498 45.548C59.696 45.677 59.896 45.806 60.048 46.09C60.201 46.373 60.307 46.812 60.335 47.193C60.363 47.574 60.312 47.897 60.293 48.27C60.275 48.644 60.289 49.068 60.369 49.493C60.448 49.918 60.595 50.343 60.848 50.795C61.101 51.247 61.462 51.726 61.818 52.018C62.174 52.311 62.527 52.419 62.913 52.337C63.299 52.256 63.718 51.985 64.146 51.832C64.575 51.68 65.014 51.644 65.422 51.85C65.831 52.054 66.207 52.5 66.259 52.923C66.311 53.345 66.037 53.744 65.763 54.144C65.841 53.812 65.92 53.481 65.841 53.215C65.762 52.948 65.526 52.749 65.228 52.74C64.93 52.73 64.57 52.91 64.241 53.152C63.912 53.394 63.613 53.698 63.272 53.922C62.932 54.145 62.549 54.288 62.151 54.399C61.753 54.508 61.337 54.586 60.913 54.578C60.488 54.571 60.052 54.478 59.716 54.338C59.381 54.198 59.145 54.009 58.919 53.763C58.693 53.517 58.475 53.213 58.241 52.892C58.008 52.571 57.757 52.233 57.51 52.021C57.261 51.809 57.014 51.723 56.728 51.704C56.442 51.683 56.117 51.728 55.792 51.774C56.459 50.939 57.126 50.104 57.717 49.15C58.308 48.195 58.823 47.12 59.107 46.5C59.392 45.878 59.446 45.714 59.498 45.548Z" fill="#F56B3F"/>
<path fill-rule="evenodd" clip-rule="evenodd" d="M61.374 38.449C61.55 38.498 61.726 38.547 61.905 38.719C62.083 38.892 62.263 39.19 62.372 39.462C62.481 39.736 62.52 39.985 62.593 40.265C62.667 40.544 62.776 40.852 62.934 41.146C63.092 41.439 63.297 41.717 63.59 41.992C63.882 42.265 64.259 42.532 64.588 42.664C64.919 42.797 65.203 42.794 65.467 42.644C65.732 42.494 65.976 42.198 66.256 41.986C66.536 41.774 66.849 41.646 67.198 41.702C67.545 41.757 67.927 41.997 68.063 42.295C68.2 42.594 68.092 42.952 67.984 43.31C67.964 43.046 67.944 42.785 67.824 42.608C67.704 42.43 67.484 42.339 67.263 42.402C67.042 42.465 66.82 42.68 66.633 42.935C66.447 43.189 66.299 43.482 66.101 43.726C65.903 43.969 65.655 44.164 65.388 44.338C65.12 44.512 64.834 44.665 64.519 44.758C64.205 44.852 63.863 44.885 63.583 44.861C63.304 44.837 63.087 44.753 62.863 44.624C62.639 44.496 62.408 44.323 62.161 44.141C61.915 43.96 61.652 43.77 61.421 43.673C61.188 43.574 60.986 43.569 60.773 43.62C60.557 43.672 60.328 43.782 60.1 43.891C60.396 43.121 60.692 42.353 60.904 41.512C61.115 40.673 61.243 39.764 61.308 39.242C61.373 38.717 61.374 38.584 61.374 38.449Z" fill="#FFD03B"/>
<path fill-rule="evenodd" clip-rule="evenodd" d="M60.606 29.3999C60.842 29.3769 61.077 29.3519 61.373 29.4779C61.669 29.6049 62.026 29.8809 62.286 30.1619C62.545 30.4409 62.707 30.7259 62.927 31.0289C63.146 31.3329 63.422 31.6549 63.748 31.9359C64.076 32.2179 64.456 32.4589 64.936 32.6539C65.416 32.8479 65.997 32.9969 66.458 33.0039C66.919 33.0099 67.262 32.8739 67.512 32.5689C67.763 32.2639 67.921 31.7919 68.161 31.4039C68.401 31.0159 68.721 30.7149 69.168 30.6219C69.615 30.5259 70.188 30.6389 70.493 30.9349C70.797 31.2329 70.833 31.7159 70.869 32.1999C70.723 31.8909 70.577 31.5829 70.349 31.4249C70.122 31.2669 69.813 31.2589 69.574 31.4369C69.336 31.6159 69.167 31.9809 69.06 32.3769C68.954 32.7699 68.91 33.1939 68.784 33.5819C68.658 33.9699 68.448 34.3199 68.205 34.6549C67.962 34.9899 67.686 35.3089 67.35 35.5679C67.013 35.8279 66.616 36.0279 66.266 36.1269C65.916 36.2279 65.615 36.2279 65.284 36.1769C64.953 36.1249 64.593 36.0239 64.21 35.9189C63.827 35.8139 63.421 35.7069 63.094 35.6959C62.768 35.6849 62.521 35.7719 62.285 35.9349C62.049 36.0979 61.823 36.3359 61.598 36.5749C61.598 35.5069 61.598 34.4379 61.463 33.3229C61.328 32.2089 61.06 31.0479 60.894 30.3859C60.729 29.7249 60.667 29.5629 60.606 29.3999Z" fill="#F56B3F"/>
<path fill-rule="evenodd" clip-rule="evenodd" d="M58.023 22.323C58.194 22.26 58.365 22.1959 58.611 22.2319C58.856 22.2689 59.176 22.4059 59.424 22.5639C59.672 22.7209 59.848 22.903 60.07 23.086C60.293 23.27 60.561 23.456 60.86 23.604C61.16 23.749 61.49 23.856 61.886 23.908C62.283 23.96 62.744 23.957 63.09 23.871C63.435 23.787 63.664 23.618 63.792 23.343C63.92 23.067 63.946 22.683 64.049 22.347C64.153 22.012 64.334 21.724 64.648 21.567C64.963 21.409 65.413 21.381 65.697 21.544C65.983 21.707 66.103 22.0599 66.224 22.4129C66.055 22.2119 65.885 22.011 65.685 21.936C65.484 21.862 65.252 21.9149 65.108 22.0959C64.965 22.2759 64.91 22.5799 64.908 22.8959C64.906 23.2109 64.955 23.536 64.936 23.849C64.917 24.163 64.83 24.465 64.713 24.763C64.598 25.06 64.455 25.3519 64.254 25.6109C64.053 25.8709 63.795 26.0959 63.554 26.2399C63.312 26.3829 63.087 26.441 62.83 26.467C62.573 26.494 62.285 26.4889 61.978 26.4849C61.672 26.4809 61.348 26.4799 61.103 26.5369C60.857 26.5929 60.69 26.7049 60.546 26.8729C60.4 27.0399 60.279 27.262 60.157 27.484C59.949 26.686 59.74 25.889 59.423 25.084C59.105 24.278 58.679 23.464 58.426 23.003C58.178 22.541 58.101 22.432 58.023 22.323Z" fill="#FFD03B"/>
</svg>

