<?xml version="1.0" encoding="UTF-8" standalone="no"?>
<svg
   width="70.503998"
   height="69.311295"
   viewBox="0 0 70.503998 69.311295"
   fill="none"
   version="1.1"
   id="svg1301"
   sodipodi:docname="sun.svg"
   inkscape:version="1.2.2 (b0a8486541, 2022-12-01)"
   xmlns:inkscape="http://www.inkscape.org/namespaces/inkscape"
   xmlns:sodipodi="http://sodipodi.sourceforge.net/DTD/sodipodi-0.dtd"
   xmlns="http://www.w3.org/2000/svg"
   xmlns:svg="http://www.w3.org/2000/svg">
  <defs
     id="defs1305" />
  <sodipodi:namedview
     id="namedview1303"
     pagecolor="#ffffff"
     bordercolor="#000000"
     borderopacity="0.25"
     inkscape:showpageshadow="2"
     inkscape:pageopacity="0.0"
     inkscape:pagecheckerboard="0"
     inkscape:deskcolor="#d1d1d1"
     showgrid="false"
     inkscape:zoom="5.5697674"
     inkscape:cx="9.1565762"
     inkscape:cy="42.192067"
     inkscape:window-width="1280"
     inkscape:window-height="651"
     inkscape:window-x="0"
     inkscape:window-y="32"
     inkscape:window-maximized="1"
     inkscape:current-layer="svg1301" />
  <path
     fill-rule="evenodd"
     clip-rule="evenodd"
     d="m 35.322995,59.05284 c 13.546,0 24.594,-11.049 24.594,-24.596 0,-13.546 -11.048,-24.5950005 -24.594,-24.5950005 -13.546,0 -24.596,11.0490005 -24.596,24.5950005 0,13.547 11.05,24.596 24.596,24.596 z"
     fill="#ffd03b"
     id="path1253" />
  <path
     fill-rule="evenodd"
     clip-rule="evenodd"
     d="m 51.988995,14.59894 c 0.183,-0.15 0.367,-0.301 0.684,-0.36 0.316,-0.06 0.766,-0.028 1.137,0.061 0.372,0.09 0.665,0.235 1.015,0.366 0.35,0.131 0.758,0.245 1.188,0.298 0.429,0.053 0.878,0.042 1.386,-0.063 0.507,-0.105 1.072,-0.304 1.46,-0.555 0.386,-0.251 0.596,-0.554 0.635,-0.947 0.04,-0.392 -0.091,-0.873 -0.107,-1.327 -0.015,-0.455 0.083,-0.885 0.402,-1.211 0.319,-0.327 0.858,-0.553 1.277,-0.474 0.418,0.078 0.716,0.46 1.015,0.842 -0.293,-0.175 -0.585,-0.351 -0.863,-0.355 -0.277,-0.005 -0.539,0.159 -0.638,0.44 -0.099,0.281 -0.037,0.679 0.094,1.065 0.13,0.388 0.33,0.764 0.439,1.156 0.11,0.392 0.131,0.801 0.115,1.213 -0.016,0.414 -0.068,0.832 -0.204,1.235 -0.137,0.403 -0.355,0.79 -0.591,1.066 -0.235,0.278 -0.486,0.445 -0.789,0.586 -0.304,0.142 -0.66,0.257 -1.036,0.382 -0.376,0.126 -0.774,0.262 -1.051,0.435 -0.278,0.172 -0.434,0.382 -0.54,0.647 -0.106,0.267 -0.161,0.592 -0.216,0.915 -0.594,-0.889 -1.188,-1.778 -1.918,-2.63 -0.73,-0.853 -1.599,-1.669 -2.104,-2.126 -0.507,-0.458 -0.648,-0.558 -0.79,-0.659 z"
     fill="#f56b3f"
     id="path1255" />
  <path
     fill-rule="evenodd"
     clip-rule="evenodd"
     d="m 35.322995,59.05294 c 13.29,0 24.176,-10.635 24.583,-23.83 -0.405,13.229 -11.257,23.83 -24.583,23.83 z m -0.086,0 c -0.01,0 -0.021,0 -0.031,0 0.011,0 0.02,0 0.031,0 z m -0.035,0 c -11.036,-0.053 -20.354,-7.375 -23.413,-17.423 0.012,0.03 0.023,0.061 0.036,0.092 3.1,9.983 12.41,17.277 23.377,17.331 z m 24.704,-25.359 c -0.363,-11.801 -9.107,-21.552 -20.458,-23.482 -0.013,-0.004 -0.026,-0.007 -0.039,-0.011 11.393,1.906 20.135,11.646 20.497,23.493 z"
     fill="#722f0e"
     id="path1257" />
  <path
     fill-rule="evenodd"
     clip-rule="evenodd"
     d="m 35.322995,59.05294 c -0.013,0 -0.025,0 -0.037,0 -0.004,0 -0.007,0 -0.011,0 -0.009,0 -0.018,0 -0.027,0 -0.004,0 -0.008,0 -0.011,0 -0.011,0 -0.02,0 -0.031,0 h -0.005 c -10.967,-0.054 -20.277,-7.348 -23.376,-17.331 1.137,2.938 2.303,5.871 6.143,8.396 4.739,3.115 9.525,4.454 14.038,4.454 20.156,0 34.826,-26.721 15.175,-41.09 -2.948,-2.156 -5.342,-2.719 -7.733,-3.271 11.351,1.931 20.095,11.682 20.458,23.482 0.008,0.254 0.011,0.508 0.011,0.764 0,0.257 -0.003,0.512 -0.011,0.766 -0.407,13.195 -11.292,23.83 -24.583,23.83 z"
     fill="#f98e3c"
     id="path1259" />
  <path
     fill-rule="evenodd"
     clip-rule="evenodd"
     d="m 19.943995,26.18184 c -1.456,0 -2.575,-0.416 -3.12,-1.281 -1.404,-2.229 1.524,-6.598 6.541,-9.756 3.068,-1.933 6.207,-2.966 8.503,-2.966 1.458,0 2.576,0.417 3.121,1.281 1.403,2.229 -1.524,6.598 -6.54,9.757 -3.07,1.933 -6.209,2.965 -8.505,2.965 z"
     fill="#fdd968"
     id="path1261" />
  <path
     fill-rule="evenodd"
     clip-rule="evenodd"
     d="m 45.832995,11.09494 c 0.092,-0.158 0.184,-0.316 0.396,-0.444 0.212,-0.129 0.546,-0.228 0.838,-0.263 0.292,-0.036 0.544,-0.009 0.832,-0.009 0.289,10e-4 0.615,-0.026 0.938,-0.104 0.324,-0.077 0.647,-0.206 0.986,-0.4180005 0.338,-0.213 0.693,-0.509 0.905,-0.79404 0.211,-0.285 0.281,-0.56199 0.204,-0.85499 -0.078,-0.295 -0.302,-0.60701 -0.435,-0.93201 -0.134,-0.324 -0.178,-0.66099 -0.035,-0.98399 0.143,-0.321 0.472,-0.63001 0.795,-0.68601 0.323,-0.056 0.641,0.14 0.96,0.336 -0.259,-0.048 -0.517,-0.09499 -0.719,-0.02499 -0.202,0.071 -0.347,0.26099 -0.343,0.48999 0.004,0.23 0.157,0.50101 0.354,0.74501 0.2,0.245 0.444,0.46299 0.629,0.71799 0.185,0.254 0.31,0.543 0.41,0.846 0.1,0.304 0.175,0.62004 0.185,0.94804 0.01,0.326 -0.045,0.6650005 -0.141,0.9290005 -0.096,0.265 -0.232,0.453 -0.413,0.637 -0.181,0.184 -0.407,0.362 -0.646,0.555 -0.239,0.192 -0.49,0.397 -0.644,0.597 -0.154,0.199 -0.211,0.393 -0.215,0.613 -0.006,0.222 0.041,0.471 0.089,0.719 -0.667,-0.482 -1.337,-0.965 -2.094,-1.385 -0.757,-0.419 -1.604,-0.774 -2.093,-0.97 -0.485,-0.195 -0.614,-0.231 -0.743,-0.264 z"
     fill="#ffd03b"
     id="path1263" />
  <path
     fill-rule="evenodd"
     clip-rule="evenodd"
     d="m 37.057995,8.8078795 c 0.061,-0.229 0.122,-0.457 0.343,-0.69 0.223,-0.233 0.605,-0.471 0.958,-0.616 0.355,-0.145 0.677,-0.197 1.038,-0.295 0.36,-0.1 0.759,-0.244 1.138,-0.453 0.379,-0.207 0.738,-0.47899 1.088,-0.85899 0.351,-0.382 0.693,-0.87301 0.861,-1.30401 0.167,-0.43 0.159,-0.79799 -0.037,-1.13999 -0.198,-0.34 -0.585,-0.654 -0.864,-1.015 -0.279,-0.36 -0.449,-0.76701 -0.381,-1.21801 0.068,-0.45199995 0.374,-0.94898995 0.76,-1.13099295 0.386,-0.181 0.851,-0.044005 1.316,0.091995 -0.34,0.029 -0.68,0.057997 -0.908,0.214998 -0.228,0.158 -0.344,0.444 -0.26,0.73099995 0.083,0.286 0.367,0.571 0.699,0.81 0.332,0.237 0.713,0.427 1.032,0.681 0.318,0.254 0.574,0.573 0.802,0.918 0.229,0.345 0.431,0.715 0.556,1.121 0.125,0.406 0.173,0.849 0.144,1.211 -0.029,0.363 -0.135,0.645 -0.299,0.937 -0.164,0.29199 -0.384,0.593 -0.617,0.916 -0.232,0.321 -0.476,0.66401 -0.6,0.96701 -0.125,0.302 -0.129,0.563 -0.06,0.84095 0.069,0.278 0.214,0.5730005 0.359,0.8680005 -1.001,-0.374 -2.002,-0.7490005 -3.093,-1.0140005 -1.091,-0.26396 -2.272,-0.41996 -2.95,-0.49596 -0.678,-0.078 -0.851,-0.078 -1.025,-0.077 z"
     fill="#f56b3f"
     id="path1265" />
  <path
     fill-rule="evenodd"
     clip-rule="evenodd"
     d="m 29.980995,9.3158395 c -0.011,-0.18303 -0.022,-0.36502 0.083,-0.59002 0.106,-0.225 0.329,-0.491 0.552,-0.684 0.224,-0.191 0.448,-0.308 0.688,-0.469 0.24,-0.159 0.497,-0.361 0.723,-0.607 0.226,-0.243 0.424,-0.529 0.587,-0.894 0.164,-0.364 0.295,-0.807 0.314,-1.162 0.018,-0.355 -0.077,-0.623 -0.304,-0.825 -0.227,-0.201 -0.588,-0.33801 -0.879,-0.53401 -0.292,-0.195 -0.514,-0.45099 -0.575,-0.79799 -0.059,-0.349 0.043,-0.78601 0.281,-1.01201 0.239,-0.227 0.612,-0.23999 0.986,-0.25399 -0.242,0.104 -0.484,0.20799 -0.613,0.37899 -0.129,0.17 -0.144,0.40901 -0.013,0.59801 0.13,0.188 0.407,0.32899 0.708,0.42299 0.301,0.093 0.626,0.14 0.921,0.248 0.294,0.108 0.558,0.28001 0.809,0.47701 0.252,0.197 0.489,0.419 0.679,0.686 0.19,0.268 0.333,0.57899 0.399,0.85199 0.066,0.271 0.058,0.50401 0.009,0.75701 -0.049,0.255 -0.138,0.528 -0.229,0.82 -0.092,0.292 -0.187,0.60199 -0.204,0.85399 -0.018,0.251 0.042,0.44301 0.16,0.63001 0.119,0.186 0.296,0.36799 0.474,0.54899 -0.824,-0.031 -1.647,-0.06199 -2.511,0.01001 -0.862,0.07 -1.766,0.24499 -2.28,0.35199 -0.512,0.108 -0.638,0.15103 -0.765,0.19403 z"
     fill="#ffd03b"
     id="path1267" />
  <path
     fill-rule="evenodd"
     clip-rule="evenodd"
     d="m 21.245995,12.80284 c -0.093,-0.219 -0.186,-0.435 -0.154,-0.756 0.032,-0.321 0.189,-0.743 0.378,-1.075 0.19,-0.331 0.413,-0.571 0.637,-0.87 0.224,-0.3000005 0.45,-0.6600005 0.62,-1.0559905 0.171,-0.397 0.288,-0.832 0.33,-1.348 0.042,-0.517 0.01,-1.115 -0.122,-1.558 -0.133,-0.441 -0.365,-0.727 -0.73,-0.875 -0.366,-0.148 -0.864,-0.15801 -1.306,-0.27001 -0.441,-0.113 -0.824,-0.32899 -1.048,-0.72799 -0.225,-0.397 -0.288,-0.978 -0.096,-1.357 0.193,-0.38 0.643,-0.559 1.094,-0.737 -0.251,0.231 -0.501,0.46301 -0.585,0.72901 -0.083,0.265 0.002,0.56299 0.244,0.73599 0.242,0.174 0.641,0.226 1.049,0.209 0.408,-0.017 0.826,-0.102 1.233,-0.097 0.407,0.004 0.805,0.09999 1.196,0.22999 0.392,0.132 0.78,0.299 1.127,0.543 0.349,0.244 0.658,0.56301 0.858,0.86701 0.199,0.305 0.29,0.59199 0.34,0.92399 0.05,0.33 0.06,0.70401 0.075,1.10001 0.015,0.397 0.033,0.816 0.122,1.13 0.087,0.314 0.244,0.52399 0.47,0.70099 0.226,0.177 0.521,0.32 0.816,0.465 -1.02,0.3190005 -2.04,0.6390005 -3.063,1.1020005 -1.024,0.461 -2.051,1.064 -2.632,1.421 -0.581,0.355 -0.717,0.463 -0.853,0.57 z"
     fill="#f56b3f"
     id="path1269" />
  <path
     fill-rule="evenodd"
     clip-rule="evenodd"
     d="m 15.727995,17.56384 c -0.124,-0.135 -0.248,-0.27 -0.307,-0.511 -0.059,-0.24 -0.056,-0.588 -0.003,-0.878 0.052,-0.29 0.152,-0.521 0.238,-0.798 0.085,-0.275 0.156,-0.594 0.176,-0.927 0.022,-0.333 -0.006,-0.678 -0.109,-1.064 -0.103,-0.386 -0.281,-0.811 -0.491,-1.1 -0.211,-0.286 -0.454,-0.434 -0.757,-0.447 -0.305,-0.013 -0.668,0.108 -1.019,0.141 -0.35,0.033 -0.684,-0.024 -0.95,-0.256 -0.266,-0.232 -0.463,-0.637 -0.421,-0.963 0.042,-0.325 0.323,-0.571 0.604,-0.8170005 -0.122,0.2320005 -0.244,0.4660005 -0.236,0.6800005 0.008,0.213 0.147,0.407 0.368,0.472 0.221,0.064 0.524,-0.001 0.816,-0.119 0.292,-0.118 0.574,-0.288 0.871,-0.39 0.297,-0.102 0.61,-0.136 0.929,-0.143 0.319,-0.005 0.644,0.017 0.96,0.104 0.316,0.087 0.624,0.239 0.848,0.408 0.223,0.169 0.364,0.355 0.485,0.583 0.123,0.227 0.226,0.495 0.339,0.779 0.114,0.285 0.235,0.585 0.381,0.79 0.145,0.207 0.313,0.318 0.523,0.388 0.21,0.07 0.461,0.099 0.714,0.126 -0.659,0.497 -1.316,0.993 -1.941,1.593 -0.624,0.601 -1.213,1.305 -1.544,1.714 -0.33,0.408 -0.402,0.521 -0.474,0.635 z"
     fill="#ffd03b"
     id="path1271" />
  <path
     fill-rule="evenodd"
     clip-rule="evenodd"
     d="m 11.288995,24.87084 c -0.202,-0.125 -0.403,-0.2489 -0.561,-0.5289 -0.158,-0.28 -0.275,-0.7161 -0.31,-1.0971 -0.036,-0.38 0.008,-0.7039 0.019,-1.0779 0.01,-0.374 -0.012,-0.797 -0.101,-1.22 -0.09,-0.424 -0.245,-0.8471 -0.507,-1.2921 -0.263,-0.446 -0.633,-0.9169 -0.996,-1.2019 -0.363,-0.285 -0.71801,-0.3861 -1.10201,-0.2961 -0.384,0.09 -0.79599,0.369 -1.22299,0.53 -0.425,0.162 -0.863,0.2061 -1.276,0.0101 -0.412,-0.196 -0.799,-0.6341 -0.86,-1.0551 -0.062,-0.421 0.20499,-0.826 0.46899,-1.231 -0.071,0.333 -0.143,0.667 -0.058,0.931 0.084,0.265 0.32401,0.459 0.62301,0.462 0.298,0.004 0.65399,-0.185 0.97799,-0.434 0.325,-0.249 0.617,-0.559 0.953,-0.789 0.336,-0.23 0.71501,-0.382 1.11101,-0.501 0.396,-0.118 0.809,-0.204 1.234,-0.205 0.425,-0.001 0.862,0.082 1.201,0.215 0.338,0.133 0.578,0.316 0.809,0.558 0.232,0.242 0.456,0.542 0.697,0.856 0.24,0.316 0.497,0.649 0.75,0.855 0.253,0.206 0.501,0.288 0.788,0.302 0.287,0.015 0.611,-0.0389 0.935,-0.0909 -0.649,0.849 -1.299,1.6969 -1.869,2.6649 -0.57,0.967 -1.063,2.053 -1.333,2.678 -0.272,0.626 -0.322,0.792 -0.371,0.958 z"
     fill="#f56b3f"
     id="path1273" />
  <path
     fill-rule="evenodd"
     clip-rule="evenodd"
     d="m 9.586005,31.90684 c -0.177,-0.042 -0.35501,-0.084 -0.54001,-0.252 -0.184,-0.166 -0.37399,-0.457 -0.49199,-0.728 -0.118,-0.27 -0.16301,-0.519 -0.24701,-0.794 -0.083,-0.276 -0.202,-0.581 -0.369,-0.869 -0.167,-0.289 -0.383,-0.561 -0.683,-0.823 -0.301,-0.264 -0.68599,-0.518 -1.01999,-0.641 -0.335,-0.12 -0.61901,-0.107 -0.87801,0.05 -0.26,0.159 -0.49499,0.463 -0.76699,0.685 -0.273,0.221 -0.583,0.36 -0.933,0.315 -0.35,-0.044 -0.73901,-0.271 -0.88401,-0.564 -0.147,-0.294 -0.05099,-0.655 0.04601,-1.017 0.028,0.263 0.05699,0.523 0.18199,0.696 0.127,0.174 0.35,0.258 0.569,0.188 0.219,-0.069 0.434,-0.292 0.612,-0.553 0.176,-0.261 0.316,-0.559 0.506,-0.808 0.189,-0.251 0.431,-0.454 0.692,-0.636 0.262,-0.183 0.543,-0.346 0.854,-0.45 0.311,-0.104 0.65101,-0.148 0.93201,-0.132 0.28,0.016 0.49899,0.092 0.72699,0.212 0.228,0.122 0.464,0.287 0.716,0.46 0.252,0.174 0.521,0.354 0.756,0.445 0.235,0.09 0.437,0.089 0.65,0.03 0.214,-0.059 0.438,-0.176 0.662,-0.293 -0.27,0.779 -0.54,1.559 -0.724,2.404 -0.184,0.846 -0.282,1.759 -0.329,2.282 -0.047,0.526 -0.04299,0.66 -0.03799,0.793 z"
     fill="#ffd03b"
     id="path1275" />
  <path
     fill-rule="evenodd"
     clip-rule="evenodd"
     d="m 10.159995,41.14484 c -0.237,0.016 -0.473,0.031 -0.76501,-0.104 -0.292,-0.137 -0.63899,-0.425 -0.88899,-0.714 -0.25,-0.288 -0.401,-0.578 -0.61,-0.89 -0.208,-0.31 -0.47301,-0.643 -0.79001,-0.934 -0.318,-0.293 -0.68898,-0.547 -1.16198,-0.758 -0.473,-0.211 -1.04701,-0.38 -1.50901,-0.401 -0.46,-0.022 -0.80801,0.103 -1.06801,0.397 -0.26,0.296 -0.43498,0.763 -0.68798,1.142 -0.253,0.378 -0.58301,0.668 -1.03301,0.748 -0.45,0.079 -1.019002,-0.053 -1.313002,-0.361 C 0.038993,38.96284 0.02,38.47884 0,37.99484 c 0.135,0.313 0.270997,0.626 0.492997,0.793 0.222998,0.166 0.530998,0.185 0.775998,0.015 0.244,-0.17 0.425,-0.53 0.545,-0.921 0.12,-0.391 0.178,-0.813 0.317,-1.194 0.14,-0.383 0.36099,-0.727 0.61499,-1.053 0.254,-0.326 0.54,-0.636 0.886,-0.884 0.345,-0.248 0.75002,-0.434 1.10302,-0.521 0.352,-0.087 0.65398,-0.077 0.98298,-0.015 0.329,0.062 0.68501,0.177 1.06401,0.295 0.379,0.117 0.781,0.239 1.107,0.261 0.325,0.021 0.575,-0.058 0.817,-0.211 0.241,-0.155 0.47501,-0.386 0.70801,-0.616 -0.036,1.067 -0.07301,2.136 0.02299,3.254 0.096,1.119 0.325,2.288 0.467,2.955 0.145,0.665 0.2,0.828 0.256,0.992 z"
     fill="#f56b3f"
     id="path1277" />
  <path
     fill-rule="evenodd"
     clip-rule="evenodd"
     d="m 13.212995,47.95194 c -0.166,0.077 -0.331,0.153 -0.579,0.137 -0.248,-0.018 -0.578,-0.129 -0.837,-0.268 -0.26,-0.14 -0.449,-0.306 -0.686,-0.472 -0.236,-0.166 -0.518,-0.331 -0.828,-0.454 -0.31,-0.123 -0.647,-0.202 -1.04599,-0.225 -0.399,-0.02 -0.85901,0.018 -1.19701,0.129 -0.338,0.112 -0.553,0.298 -0.659,0.583 -0.106,0.285 -0.10201,0.67 -0.18001,1.012 -0.077,0.343 -0.23399,0.644 -0.53599,0.825 -0.302,0.182 -0.748,0.243 -1.045,0.103 -0.296,-0.14 -0.445,-0.483 -0.593,-0.827 0.185,0.189 0.369,0.377 0.575,0.435 0.206,0.059 0.43301,-0.013 0.56201,-0.204 0.129,-0.19 0.16,-0.499 0.138,-0.813 -0.023,-0.314 -0.09701,-0.635 -0.10301,-0.949 -0.004,-0.314 0.059,-0.622 0.152,-0.928 0.092,-0.306 0.213,-0.607 0.394,-0.881 0.179,-0.274 0.419,-0.52 0.649,-0.681 0.229,-0.161 0.449,-0.236 0.704,-0.282 0.254,-0.047 0.542,-0.064 0.847,-0.083 0.306,-0.021 0.62899,-0.044 0.87,-0.119 0.24,-0.075 0.398,-0.2 0.529,-0.379 0.131,-0.177 0.235,-0.408 0.34,-0.639 0.269,0.779 0.538,1.558 0.918,2.336 0.378,0.779 0.867,1.558 1.154,1.998 0.286,0.44 0.371,0.543 0.457,0.646 z"
     fill="#ffd03b"
     id="path1279" />
  <path
     fill-rule="evenodd"
     clip-rule="evenodd"
     d="m 18.788995,54.49084 c -0.179,0.153 -0.359,0.3081 -0.675,0.3731 -0.315,0.066 -0.766,0.043 -1.139,-0.039 -0.373,-0.082 -0.668,-0.2231 -1.022,-0.3481 -0.352,-0.124 -0.762,-0.232 -1.192,-0.275 -0.43,-0.045 -0.879,-0.0259 -1.384,0.0891 -0.505,0.114 -1.066,0.3229 -1.449,0.5819 -0.383,0.257 -0.586,0.564 -0.618,0.957 -0.032,0.394 0.108,0.872 0.131,1.326 0.025,0.455 -0.066,0.886 -0.379,1.219 -0.313,0.333 -0.848,0.568 -1.268,0.497 -0.419,-0.07 -0.725,-0.446 -1.03,-0.823 0.295,0.17 0.59199,0.34 0.86999,0.34 0.27701,0 0.53501,-0.1689 0.63001,-0.4519 0.093,-0.283 0.023,-0.6791 -0.115,-1.0641 -0.138,-0.385 -0.343,-0.758 -0.46,-1.148 -0.118,-0.39 -0.146,-0.797 -0.138,-1.211 0.008,-0.413 0.05199,-0.833 0.18,-1.237 0.129,-0.405 0.342,-0.797 0.571,-1.078 0.23,-0.281 0.479,-0.454 0.779,-0.601 0.3,-0.147 0.654,-0.269 1.028,-0.401 0.374,-0.133 0.77,-0.276 1.044,-0.454 0.274,-0.177 0.427,-0.39 0.528,-0.658 0.101,-0.268 0.149,-0.593 0.198,-0.918 0.61,0.878 1.221,1.755 1.967,2.594 0.747,0.838 1.631,1.638 2.143,2.087 0.514,0.446 0.657,0.545 0.8,0.643 z"
     fill="#f56b3f"
     id="path1281" />
  <path
     fill-rule="evenodd"
     clip-rule="evenodd"
     d="m 25.058995,58.31084 c -0.097,0.155 -0.194,0.31 -0.41,0.433 -0.216,0.12 -0.553,0.209 -0.846,0.236 -0.294,0.026 -0.543,-0.009 -0.833,-0.018 -0.288,-0.009 -0.615,0.008 -0.94,0.076 -0.326,0.067 -0.652,0.186 -0.997,0.387 -0.346,0.202 -0.709,0.486 -0.93,0.767 -0.221,0.278 -0.298,0.552 -0.23,0.847 0.068,0.297 0.283,0.617 0.406,0.945 0.124,0.328 0.158,0.666 0.004,0.984 -0.152,0.317 -0.49,0.615 -0.815,0.661 -0.325,0.046 -0.637,-0.159 -0.949,-0.365 0.257,0.055 0.515,0.111 0.719,0.047 0.204,-0.065 0.355,-0.249 0.358,-0.48 0.003,-0.23 -0.141,-0.5049 -0.332,-0.7559 -0.191,-0.25 -0.429,-0.4771 -0.606,-0.7361 -0.177,-0.259 -0.293,-0.552 -0.384,-0.858 -0.09,-0.305 -0.155,-0.624 -0.155,-0.952 0,-0.328 0.064,-0.665 0.168,-0.925 0.104,-0.261 0.245,-0.445 0.433,-0.624 0.187,-0.178 0.418,-0.3489 0.663,-0.5339 0.244,-0.185 0.501,-0.3821 0.661,-0.5761 0.159,-0.194 0.223,-0.387 0.234,-0.607 0.012,-0.221 -0.028,-0.472 -0.067,-0.721 0.653,0.503 1.306,1.006 2.05,1.448 0.744,0.442 1.581,0.824 2.063,1.034 0.48,0.21 0.606,0.248 0.735,0.287 z"
     fill="#ffd03b"
     id="path1283" />
  <path
     fill-rule="evenodd"
     clip-rule="evenodd"
     d="m 33.951995,60.15294 c -0.044,0.232 -0.089,0.464 -0.294,0.713 -0.205,0.248 -0.571,0.511 -0.914,0.681 -0.342,0.168 -0.662,0.243 -1.015,0.366 -0.353,0.124 -0.74,0.296 -1.104,0.529 -0.363,0.234 -0.703,0.529 -1.026,0.934 -0.323,0.405 -0.63,0.92 -0.768,1.36 -0.138,0.44 -0.104,0.808 0.116,1.134 0.221,0.326 0.629,0.614 0.931,0.953 0.303,0.34 0.501,0.733 0.464,1.188 -0.036,0.456 -0.308,0.974 -0.679,1.181 -0.371,0.207 -0.846,0.103 -1.318,0 0.337,-0.053 0.675,-0.104 0.891,-0.278 0.216,-0.173 0.313,-0.466 0.208,-0.746 -0.103,-0.279 -0.405,-0.545 -0.753,-0.76 -0.348,-0.215 -0.741,-0.377 -1.076,-0.608 -0.335,-0.231 -0.612,-0.532 -0.864,-0.86 -0.252,-0.328 -0.479,-0.683 -0.632,-1.079 -0.152,-0.397 -0.23,-0.835 -0.227,-1.198 0.004,-0.364 0.09,-0.653 0.233,-0.956 0.143,-0.302 0.343,-0.618 0.553,-0.955 0.209,-0.338 0.428,-0.696 0.531,-1.006 0.102,-0.311 0.09,-0.571 10e-4,-0.844 -0.088,-0.272 -0.253,-0.557 -0.418,-0.841 1.024,0.304 2.05,0.608 3.156,0.797 1.108,0.189 2.296,0.262 2.978,0.291 0.681,0.029 0.854,0.016 1.026,0.004 z"
     fill="#f56b3f"
     id="path1285" />
  <path
     fill-rule="evenodd"
     clip-rule="evenodd"
     d="m 41.472995,59.69194 c 0.011,0.183 0.024,0.365 -0.082,0.59 -0.104,0.225 -0.326,0.493 -0.549,0.685 -0.223,0.193 -0.446,0.311 -0.686,0.472 -0.239,0.161 -0.495,0.365 -0.72,0.61 -0.226,0.244 -0.421,0.531 -0.584,0.897 -0.162,0.365 -0.292,0.809 -0.309,1.164 -0.017,0.355 0.08,0.623 0.308,0.824 0.228,0.2 0.588,0.335 0.881,0.529 0.292,0.194 0.516,0.449 0.577,0.797 0.062,0.347 -0.04,0.785 -0.277,1.013 -0.237,0.227 -0.61,0.242 -0.984,0.258 0.242,-0.105 0.483,-0.211 0.611,-0.382 0.128,-0.171 0.142,-0.409 0.011,-0.598 -0.131,-0.189 -0.409,-0.328 -0.71,-0.42 -0.302,-0.092 -0.627,-0.137 -0.921,-0.244 -0.295,-0.107 -0.561,-0.277 -0.813,-0.474 -0.252,-0.196 -0.491,-0.416 -0.682,-0.683 -0.191,-0.267 -0.335,-0.578 -0.403,-0.851 -0.069,-0.273 -0.061,-0.505 -0.012,-0.759 0.048,-0.253 0.135,-0.527 0.227,-0.819 0.09,-0.293 0.184,-0.603 0.2,-0.854 0.016,-0.251 -0.044,-0.444 -0.164,-0.63 -0.12,-0.186 -0.298,-0.366 -0.475,-0.547 0.823,0.028 1.646,0.056 2.51,-0.02 0.862,-0.075 1.764,-0.252 2.278,-0.362 0.515,-0.109 0.641,-0.152 0.768,-0.196 z"
     fill="#ffd03b"
     id="path1287" />
  <path
     fill-rule="evenodd"
     clip-rule="evenodd"
     d="m 49.635995,56.26894 c 0.094,0.217 0.188,0.434 0.158,0.755 -0.03,0.32 -0.184,0.744 -0.372,1.076 -0.188,0.332 -0.41,0.574 -0.632,0.875 -0.222,0.3 -0.446,0.66 -0.614,1.059 -0.169,0.397 -0.283,0.833 -0.322,1.35 -0.04,0.516 -0.005,1.114 0.13,1.556 0.135,0.44 0.368,0.726 0.735,0.872 0.366,0.146 0.865,0.153 1.306,0.263 0.442,0.111 0.826,0.325 1.053,0.722 0.226,0.398 0.294,0.978 0.102,1.358 -0.191,0.38 -0.64,0.562 -1.089,0.742 0.249,-0.233 0.498,-0.467 0.58,-0.731 0.081,-0.265 -0.004,-0.562 -0.248,-0.734 -0.243,-0.174 -0.643,-0.224 -1.051,-0.204 -0.408,0.019 -0.824,0.106 -1.231,0.104 -0.408,-0.003 -0.805,-0.096 -1.198,-0.225 -0.393,-0.129 -0.781,-0.295 -1.13,-0.537 -0.35,-0.241 -0.661,-0.56 -0.863,-0.862 -0.201,-0.303 -0.292,-0.59 -0.345,-0.92 -0.052,-0.331 -0.064,-0.705 -0.081,-1.102 -0.016,-0.396 -0.038,-0.816 -0.127,-1.131 -0.089,-0.314 -0.247,-0.522 -0.474,-0.698 -0.227,-0.175 -0.524,-0.316 -0.819,-0.46 1.018,-0.324 2.036,-0.649 3.057,-1.117 1.021,-0.467 2.045,-1.077 2.624,-1.436 0.58,-0.36 0.715,-0.468 0.851,-0.575 z"
     fill="#f56b3f"
     id="path1289" />
  <path
     fill-rule="evenodd"
     clip-rule="evenodd"
     d="m 54.453995,52.01994 c 0.121,0.137 0.241,0.273 0.295,0.516 0.054,0.243 0.042,0.591 -0.018,0.88 -0.06,0.288 -0.165,0.517 -0.257,0.791 -0.092,0.273 -0.17,0.591 -0.199,0.922 -0.03,0.333 -0.01,0.679 0.083,1.067 0.093,0.388 0.26,0.819 0.464,1.111 0.204,0.291 0.442,0.445 0.746,0.465 0.304,0.022 0.671,-0.093 1.021,-0.116 0.35,-0.023 0.683,0.043 0.943,0.28 0.26,0.237 0.447,0.647 0.397,0.972 -0.05,0.325 -0.337,0.564 -0.624,0.804 0.128,-0.231 0.255,-0.461 0.252,-0.675 -0.002,-0.214 -0.137,-0.411 -0.355,-0.48 -0.219,-0.069 -0.524,-0.011 -0.819,0.1 -0.295,0.11 -0.58,0.273 -0.88,0.368 -0.299,0.095 -0.613,0.12 -0.933,0.119 -0.319,-10e-4 -0.642,-0.031 -0.957,-0.126 -0.313,-0.095 -0.617,-0.254 -0.837,-0.429 -0.22,-0.174 -0.355,-0.363 -0.472,-0.594 -0.116,-0.229 -0.213,-0.501 -0.32,-0.788 -0.107,-0.287 -0.221,-0.591 -0.361,-0.8 -0.141,-0.209 -0.306,-0.324 -0.514,-0.4 -0.208,-0.074 -0.459,-0.109 -0.711,-0.143 0.67,-0.48 1.341,-0.96 1.979,-1.545 0.638,-0.586 1.245,-1.275 1.585,-1.676 0.344,-0.401 0.418,-0.513 0.492,-0.623 z"
     fill="#ffd03b"
     id="path1291" />
  <path
     fill-rule="evenodd"
     clip-rule="evenodd"
     d="m 59.132995,44.81094 c 0.198,0.129 0.398,0.258 0.55,0.542 0.153,0.283 0.259,0.722 0.287,1.103 0.028,0.381 -0.023,0.704 -0.042,1.077 -0.018,0.374 -0.004,0.798 0.076,1.223 0.079,0.425 0.226,0.85 0.479,1.302 0.253,0.452 0.614,0.931 0.97,1.223 0.356,0.293 0.709,0.401 1.095,0.319 0.386,-0.081 0.805,-0.352 1.233,-0.505 0.429,-0.152 0.868,-0.188 1.276,0.018 0.409,0.204 0.785,0.65 0.837,1.073 0.052,0.422 -0.222,0.821 -0.496,1.221 0.078,-0.332 0.157,-0.663 0.078,-0.929 -0.079,-0.267 -0.315,-0.466 -0.613,-0.475 -0.298,-0.01 -0.658,0.17 -0.987,0.412 -0.329,0.242 -0.628,0.546 -0.969,0.77 -0.34,0.223 -0.723,0.366 -1.121,0.477 -0.398,0.109 -0.814,0.187 -1.238,0.179 -0.425,-0.007 -0.861,-0.1 -1.197,-0.24 -0.335,-0.14 -0.571,-0.329 -0.797,-0.575 -0.226,-0.246 -0.444,-0.55 -0.678,-0.871 -0.233,-0.321 -0.484,-0.659 -0.731,-0.871 -0.249,-0.212 -0.496,-0.298 -0.782,-0.317 -0.286,-0.021 -0.611,0.024 -0.936,0.07 0.667,-0.835 1.334,-1.67 1.925,-2.624 0.591,-0.955 1.106,-2.03 1.39,-2.65 0.285,-0.622 0.339,-0.786 0.391,-0.952 z"
     fill="#f56b3f"
     id="path1293" />
  <path
     fill-rule="evenodd"
     clip-rule="evenodd"
     d="m 61.008995,37.71194 c 0.176,0.049 0.352,0.098 0.531,0.27 0.178,0.173 0.358,0.471 0.467,0.743 0.109,0.274 0.148,0.523 0.221,0.803 0.074,0.279 0.183,0.587 0.341,0.881 0.158,0.293 0.363,0.571 0.656,0.846 0.292,0.273 0.669,0.54 0.998,0.672 0.331,0.133 0.615,0.13 0.879,-0.02 0.265,-0.15 0.509,-0.446 0.789,-0.658 0.28,-0.212 0.593,-0.34 0.942,-0.284 0.347,0.055 0.729,0.295 0.865,0.593 0.137,0.299 0.029,0.657 -0.079,1.015 -0.02,-0.264 -0.04,-0.525 -0.16,-0.702 -0.12,-0.178 -0.34,-0.269 -0.561,-0.206 -0.221,0.063 -0.443,0.278 -0.63,0.533 -0.186,0.254 -0.334,0.547 -0.532,0.791 -0.198,0.243 -0.446,0.438 -0.713,0.612 -0.268,0.174 -0.554,0.327 -0.869,0.42 -0.314,0.094 -0.656,0.127 -0.936,0.103 -0.279,-0.024 -0.496,-0.108 -0.72,-0.237 -0.224,-0.128 -0.455,-0.301 -0.702,-0.483 -0.246,-0.181 -0.509,-0.371 -0.74,-0.468 -0.233,-0.099 -0.435,-0.104 -0.648,-0.053 -0.216,0.052 -0.445,0.162 -0.673,0.271 0.296,-0.77 0.592,-1.538 0.804,-2.379 0.211,-0.839 0.339,-1.748 0.404,-2.27 0.065,-0.525 0.066,-0.658 0.066,-0.793 z"
     fill="#ffd03b"
     id="path1295" />
  <path
     fill-rule="evenodd"
     clip-rule="evenodd"
     d="m 60.240995,28.66284 c 0.236,-0.023 0.471,-0.048 0.767,0.078 0.296,0.127 0.653,0.403 0.913,0.684 0.259,0.279 0.421,0.564 0.641,0.867 0.219,0.304 0.495,0.626 0.821,0.907 0.328,0.282 0.708,0.523 1.188,0.718 0.48,0.194 1.061,0.343 1.522,0.35 0.461,0.006 0.804,-0.13 1.054,-0.435 0.251,-0.305 0.409,-0.777 0.649,-1.165 0.24,-0.388 0.56,-0.689 1.007,-0.782 0.447,-0.096 1.02,0.017 1.325,0.313 0.304,0.298 0.34,0.781 0.376,1.265 -0.146,-0.309 -0.292,-0.617 -0.52,-0.775 -0.227,-0.158 -0.536,-0.166 -0.775,0.012 -0.238,0.179 -0.407,0.544 -0.514,0.94 -0.106,0.393 -0.15,0.817 -0.276,1.205 -0.126,0.388 -0.336,0.738 -0.579,1.073 -0.243,0.335 -0.519,0.654 -0.855,0.913 -0.337,0.26 -0.734,0.46 -1.084,0.559 -0.35,0.101 -0.651,0.101 -0.982,0.05 -0.331,-0.052 -0.691,-0.153 -1.074,-0.258 -0.383,-0.105 -0.789,-0.212 -1.116,-0.223 -0.326,-0.011 -0.573,0.076 -0.809,0.239 -0.236,0.163 -0.462,0.401 -0.687,0.64 0,-1.068 0,-2.137 -0.135,-3.252 -0.135,-1.114 -0.403,-2.275 -0.569,-2.937 -0.165,-0.661 -0.227,-0.823 -0.288,-0.986 z"
     fill="#f56b3f"
     id="path1297" />
  <path
     fill-rule="evenodd"
     clip-rule="evenodd"
     d="m 57.657995,21.58594 c 0.171,-0.063 0.342,-0.1271 0.588,-0.0911 0.245,0.037 0.565,0.174 0.813,0.332 0.248,0.157 0.424,0.3391 0.646,0.5221 0.223,0.184 0.491,0.37 0.79,0.518 0.3,0.145 0.63,0.252 1.026,0.304 0.397,0.052 0.858,0.049 1.204,-0.037 0.345,-0.084 0.574,-0.253 0.702,-0.528 0.128,-0.276 0.154,-0.66 0.257,-0.996 0.104,-0.335 0.285,-0.623 0.599,-0.78 0.315,-0.158 0.765,-0.186 1.049,-0.023 0.286,0.163 0.406,0.5159 0.527,0.8689 -0.169,-0.201 -0.339,-0.4019 -0.539,-0.4769 -0.201,-0.074 -0.433,-0.0211 -0.577,0.1599 -0.143,0.18 -0.198,0.484 -0.2,0.8 -0.002,0.315 0.047,0.6401 0.028,0.9531 -0.019,0.314 -0.106,0.616 -0.223,0.914 -0.115,0.297 -0.258,0.5889 -0.459,0.8479 -0.201,0.26 -0.459,0.485 -0.7,0.629 -0.242,0.143 -0.467,0.2011 -0.724,0.2271 -0.257,0.027 -0.545,0.0219 -0.852,0.0179 -0.306,-0.004 -0.63,-0.005 -0.875,0.052 -0.246,0.056 -0.413,0.168 -0.557,0.336 -0.146,0.167 -0.267,0.3891 -0.389,0.6111 -0.208,-0.798 -0.417,-1.595 -0.734,-2.4 -0.318,-0.806 -0.744,-1.62 -0.997,-2.081 -0.248,-0.462 -0.325,-0.571 -0.403,-0.68 z"
     fill="#ffd03b"
     id="path1299" />
</svg>
