<?xml version="1.0" encoding="UTF-8" standalone="no"?>
<svg
   width="59.987991"
   height="59.987015"
   viewBox="0 0 59.987991 59.987015"
   fill="none"
   version="1.1"
   id="svg1432"
   sodipodi:docname="uranus.svg"
   inkscape:version="1.2.2 (b0a8486541, 2022-12-01)"
   xmlns:inkscape="http://www.inkscape.org/namespaces/inkscape"
   xmlns:sodipodi="http://sodipodi.sourceforge.net/DTD/sodipodi-0.dtd"
   xmlns="http://www.w3.org/2000/svg"
   xmlns:svg="http://www.w3.org/2000/svg">
  <defs
     id="defs1436" />
  <sodipodi:namedview
     id="namedview1434"
     pagecolor="#ffffff"
     bordercolor="#000000"
     borderopacity="0.25"
     inkscape:showpageshadow="2"
     inkscape:pageopacity="0.0"
     inkscape:pagecheckerboard="0"
     inkscape:deskcolor="#d1d1d1"
     showgrid="false"
     inkscape:zoom="5.9135802"
     inkscape:cx="5.5803758"
     inkscape:cy="39.73904"
     inkscape:window-width="1280"
     inkscape:window-height="651"
     inkscape:window-x="0"
     inkscape:window-y="32"
     inkscape:window-maximized="1"
     inkscape:current-layer="svg1432" />
  <path
     fill-rule="evenodd"
     clip-rule="evenodd"
     d="m 29.99399,59.987013 c 16.52,0 29.994,-13.474 29.994,-29.994 C 59.98799,13.473013 46.51299,0 29.99399,0 13.47299,0 0,13.473013 0,29.993013 c 0,16.52 13.47299,29.994 29.99399,29.994 z"
     fill="#8bd3d4"
     id="path1424" />
  <path
     fill-rule="evenodd"
     clip-rule="evenodd"
     d="m 29.99399,59.987013 c 16.52,0 29.994,-13.474 29.994,-29.994 0,16.566 -13.429,29.994 -29.994,29.994 z m -0.057,0 c -0.013,0 -0.022,0 -0.034,0 0.01,0 0.022,0 0.034,0 z m -0.092,0 c -13.458,-0.065 -24.81998,-8.994 -28.55098,-21.248 0.015,0.037 0.029,0.075 0.043,0.112 3.781,12.174 15.13498,21.071 28.50798,21.136 z m 30.143,-30.052 c 0,-0.012 0,-0.023 0,-0.035 0,0.012 0,0.024 0,0.035 z m 0,-0.048 c 0,-0.012 -0.001,-0.022 -0.001,-0.034 0,0.011 0.001,0.022 0.001,0.034 z m -0.001,-0.091 c -0.095,-14.718 -10.884,-26.97803 -24.961,-29.37303 -0.017,-0.004 -0.032,-0.007 -0.05,-0.011 14.132,2.363 24.916,14.60503 25.011,29.38403 z"
     fill="#02113b"
     id="path1426" />
  <path
     fill-rule="evenodd"
     clip-rule="evenodd"
     d="m 29.99399,59.987013 c -0.015,0 -0.03,0 -0.045,0 -0.004,0 -0.008,0 -0.012,0 -0.012,0 -0.023,0 -0.034,0 -0.004,0 -0.009,0 -0.014,0 -0.012,0 -0.023,0 -0.035,0 -0.003,0 -0.005,0 -0.009,0 -13.373,-0.065 -24.72798,-8.962 -28.50798,-21.136 1.389,3.583 2.809,7.161 7.492,10.24 5.77998,3.8 11.61698,5.432 17.11998,5.432 24.581,0 42.47,-32.586 18.507,-50.10904 -3.596,-2.629 -6.515,-3.316 -9.431,-3.991 14.077,2.395 24.866,14.65504 24.961,29.37304 0,0.002 0,0.007 0,0.007 0,0.013 0,0.025 0,0.038 0,0.004 0,0.008 0,0.012 0,0.012 10e-4,0.022 10e-4,0.034 0,0.004 0,0.009 0,0.013 0,0.012 0,0.023 0,0.035 0,0.004 0,0.008 0,0.012 0,0.015 0,0.031 0,0.046 0.001,16.52 -13.474,29.994 -29.993,29.994 z"
     fill="#84c7c7"
     id="path1428" />
  <path
     fill-rule="evenodd"
     clip-rule="evenodd"
     d="m 11.27299,22.556013 c -1.98897,0 -3.51597,-0.567 -4.25997,-1.749 -1.915,-3.042 2.08102,-9.004 8.92697,-13.31397 4.186,-2.638 8.471,-4.047 11.604,-4.047 1.989,0 3.516,0.568 4.26,1.749 1.916,3.043 -2.08,9.00397 -8.927,13.31497 -4.186,2.637 -8.47,4.046 -11.604,4.046 z"
     fill="#c3e7e8"
     id="path1430" />
</svg>
