<svg width="61" height="81" viewBox="0 0 61 81" fill="none" xmlns="http://www.w3.org/2000/svg">
<path fill-rule="evenodd" clip-rule="evenodd" d="M30.267 60.649C46.787 60.649 60.261 47.175 60.261 30.655C60.261 14.135 46.786 0.661987 30.267 0.661987C13.746 0.661987 0.27301 14.135 0.27301 30.655C0.27301 47.175 13.746 60.649 30.267 60.649Z" fill="#8BD3D4"/>
<path fill-rule="evenodd" clip-rule="evenodd" d="M30.267 60.649C46.787 60.649 60.261 47.175 60.261 30.655C60.261 47.221 46.832 60.649 30.267 60.649ZM30.21 60.649C30.197 60.649 30.188 60.649 30.176 60.649C30.186 60.649 30.198 60.649 30.21 60.649ZM30.118 60.649C16.66 60.584 5.29802 51.655 1.56702 39.401C1.58202 39.438 1.59602 39.476 1.61002 39.513C5.39102 51.687 16.745 60.584 30.118 60.649ZM60.261 30.597C60.261 30.585 60.261 30.574 60.261 30.562C60.261 30.574 60.261 30.586 60.261 30.597ZM60.261 30.549C60.261 30.537 60.26 30.527 60.26 30.515C60.26 30.526 60.261 30.537 60.261 30.549ZM60.26 30.458C60.165 15.74 49.376 3.47997 35.299 1.08497C35.282 1.08097 35.267 1.07797 35.249 1.07397C49.381 3.43697 60.165 15.679 60.26 30.458Z" fill="#02113B"/>
<path fill-rule="evenodd" clip-rule="evenodd" d="M30.267 60.649C30.252 60.649 30.237 60.649 30.222 60.649C30.218 60.649 30.214 60.649 30.21 60.649C30.198 60.649 30.187 60.649 30.176 60.649C30.172 60.649 30.167 60.649 30.162 60.649C30.15 60.649 30.139 60.649 30.127 60.649C30.124 60.649 30.122 60.649 30.118 60.649C16.745 60.584 5.39002 51.687 1.61002 39.513C2.99902 43.096 4.41902 46.674 9.10202 49.753C14.882 53.553 20.719 55.185 26.222 55.185C50.803 55.185 68.692 22.599 44.729 5.07596C41.133 2.44696 38.214 1.75996 35.298 1.08496C49.375 3.47996 60.164 15.74 60.259 30.458C60.259 30.46 60.259 30.465 60.259 30.465C60.259 30.478 60.259 30.49 60.259 30.503C60.259 30.507 60.259 30.511 60.259 30.515C60.259 30.527 60.26 30.537 60.26 30.549C60.26 30.553 60.26 30.558 60.26 30.562C60.26 30.574 60.26 30.585 60.26 30.597C60.26 30.601 60.26 30.605 60.26 30.609C60.26 30.624 60.26 30.64 60.26 30.655C60.261 47.175 46.786 60.649 30.267 60.649Z" fill="#84C7C7"/>
<path fill-rule="evenodd" clip-rule="evenodd" d="M11.546 23.218C9.55703 23.218 8.03003 22.651 7.28603 21.469C5.37103 18.427 9.36705 12.465 16.213 8.15503C20.399 5.51703 24.684 4.10803 27.817 4.10803C29.806 4.10803 31.333 4.67603 32.077 5.85703C33.993 8.90003 29.997 14.861 23.15 19.172C18.964 21.809 14.68 23.218 11.546 23.218Z" fill="#C3E7E8"/>
</svg>

