<svg width="56" height="79" viewBox="0 0 56 79" fill="none" xmlns="http://www.w3.org/2000/svg">
<path d="M27.859 55.55C43.0695 55.55 55.4 43.2195 55.4 28.009C55.4 12.7985 43.0695 0.468018 27.859 0.468018C12.6485 0.468018 0.317993 12.7985 0.317993 28.009C0.317993 43.2195 12.6485 55.55 27.859 55.55Z" fill="#F98B54"/>
<path fill-rule="evenodd" clip-rule="evenodd" d="M29.673 25.336C28.735 25.242 28.127 25.008 27.354 24.82C26.581 24.633 25.644 24.492 25.011 24.867C24.378 25.242 24.05 26.132 24.073 26.671C24.096 27.21 24.471 27.397 24.331 27.796C24.19 28.194 23.535 28.803 23.019 29.108C22.503 29.412 22.128 29.412 21.098 29.061C20.067 28.709 18.38 28.007 17.513 27.374C16.646 26.741 16.599 26.179 16.974 25.617C17.349 25.055 18.146 24.492 18.567 24.071C18.989 23.649 19.037 23.368 19.34 22.852C19.645 22.337 20.207 21.587 20.676 21.025C21.145 20.463 21.519 20.088 21.004 19.572C20.487 19.057 19.083 18.401 18.427 17.768C17.771 17.136 17.864 16.527 18.075 16.058C18.285 15.59 18.613 15.262 18.941 14.957C19.269 14.652 19.597 14.371 19.902 13.973C20.207 13.575 20.487 13.058 20.651 12.403C20.815 11.747 20.862 10.951 21.026 9.967C21.19 8.983 21.471 7.81099 21.19 7.10899C20.91 6.40599 20.066 6.17199 20.511 5.77299C20.956 5.37499 22.69 4.813 23.908 4.532C25.126 4.25 25.828 4.24999 26.226 3.96899C26.625 3.68799 26.718 3.126 26.016 3.056C25.313 2.985 23.813 3.407 22.736 3.735C21.659 4.063 21.003 4.297 20.322 4.485C19.643 4.672 18.94 4.81299 18.051 5.02299C17.161 5.23399 16.083 5.51601 15.404 5.51601C14.724 5.51601 14.443 5.23399 14.299 4.95599C14.152 4.67799 14.144 4.40199 14.72 3.98199C15.297 3.56099 16.461 2.99701 17.623 2.43201C8.02197 6.27801 1.08999 15.374 0.377991 26.169C0.475991 25.307 0.572985 24.444 1.27798 24.024C1.98198 23.604 3.29298 23.626 4.20598 23.802C5.11898 23.977 5.63499 24.305 6.10199 24.703C6.57099 25.101 6.99297 25.57 7.20497 26.014C7.41597 26.459 7.416 26.881 7.321 27.303C7.227 27.724 7.04097 28.146 7.04097 28.451C7.04097 28.755 7.22699 28.943 7.83699 29.177C8.44499 29.411 9.47698 29.692 10.555 30.255C11.633 30.817 12.757 31.66 12.593 32.832C12.429 34.003 10.977 35.503 10.438 36.346C9.89897 37.189 10.274 37.377 10.999 37.541C11.726 37.705 12.804 37.845 13.577 37.939C14.349 38.033 14.818 38.08 15.521 38.056C16.223 38.033 17.162 37.939 17.91 38.033C18.661 38.127 19.223 38.408 19.691 38.736C20.159 39.064 20.535 39.438 21.12 39.626C21.706 39.813 22.503 39.813 23.089 40.001C23.675 40.188 24.049 40.563 24.143 40.891C24.237 41.219 24.049 41.5 23.979 41.898C23.91 42.297 23.956 42.812 23.979 43.07C24.003 43.328 24.003 43.328 24.307 43.562C24.612 43.796 25.221 44.265 26.228 44.499C27.236 44.733 28.641 44.733 29.883 43.984C31.125 43.234 32.201 41.734 33.725 41.196C35.248 40.657 37.216 41.078 38.622 41.242C40.026 41.407 40.871 41.313 41.409 41.172C41.948 41.032 42.182 40.844 42.697 40.68C43.214 40.516 44.01 40.376 44.22 40.001C44.431 39.626 44.056 39.017 44.126 38.665C44.196 38.314 44.712 38.22 45.04 38.056C45.368 37.892 45.509 37.658 45.462 37.26C45.414 36.861 45.181 36.299 44.97 35.877C44.759 35.456 44.572 35.175 44.548 34.893C44.525 34.612 44.665 34.331 44.595 34.003C44.525 33.675 44.243 33.3 44.103 32.855C43.962 32.41 43.962 31.895 43.495 31.356C43.025 30.817 42.089 30.255 41.432 29.95C40.776 29.645 40.401 29.599 40.144 29.388C39.886 29.177 39.746 28.802 39.839 28.404C39.933 28.006 40.261 27.584 40.261 27.209C40.261 26.834 39.933 26.506 39.534 25.967C39.136 25.429 38.668 24.679 38.105 24.14C37.542 23.601 36.886 23.273 36.044 23.507C35.199 23.742 34.17 24.538 33.021 24.96C31.874 25.383 30.609 25.429 29.673 25.336Z" fill="#C4633E"/>
<path fill-rule="evenodd" clip-rule="evenodd" d="M39.957 15.777C40.402 16.714 40.497 17.511 40.941 17.979C41.386 18.448 42.183 18.588 43.612 18.752C45.042 18.916 47.103 19.104 48.391 19.525C49.68 19.947 50.195 20.603 50.452 21.236C50.711 21.868 50.711 22.477 50.336 23.087C49.961 23.696 49.211 24.305 48.859 24.937C48.507 25.57 48.554 26.226 48.718 26.718C48.882 27.21 49.164 27.538 49.421 27.936C49.679 28.335 49.912 28.803 50.029 29.6C50.147 30.396 50.147 31.521 50.474 32.294C50.803 33.067 51.458 33.489 52.044 33.887C52.63 34.285 53.145 34.66 53.431 35.209C53.716 35.758 53.771 36.48 53.699 37.102C53.625 37.723 53.423 38.244 52.786 38.936C52.149 39.63 51.077 40.496 50.261 41.093C49.445 41.69 48.882 42.018 48.484 42.439C48.087 42.861 47.852 43.376 47.829 43.798C47.806 44.22 47.993 44.548 47.945 44.923C47.898 45.298 47.618 45.719 47.08 46.118C46.54 46.516 45.744 46.891 45.11 47.289C44.478 47.687 44.009 48.109 43.728 48.706C43.447 49.303 43.353 50.074 43.295 50.467C43.236 50.861 43.215 50.876 43.172 50.904C50.546 45.963 55.399 37.553 55.399 28.01C55.399 13.151 43.633 1.04104 28.911 0.488037C29.991 1.04004 31.073 1.59103 31.614 2.14803C32.155 2.70503 32.155 3.26702 31.85 3.90002C31.546 4.53302 30.936 5.23503 30.632 5.86803C30.326 6.50003 30.326 7.06304 30.654 7.76604C30.982 8.46804 31.638 9.31203 32.131 9.78003C32.623 10.249 32.95 10.343 32.857 10.53C32.764 10.718 32.248 10.999 32.248 11.186C32.248 11.374 32.765 11.467 33.187 11.42C33.608 11.373 33.936 11.186 34.405 10.882C34.874 10.577 35.482 10.155 35.857 9.78003C36.232 9.40603 36.374 9.07803 36.771 9.14803C37.169 9.21803 37.825 9.68703 38.06 10.343C38.294 10.999 38.107 11.842 38.411 12.803C38.717 13.762 39.513 14.84 39.957 15.777ZM43.174 50.903C42.832 51.133 42.484 51.355 42.131 51.569L42.274 51.478C42.421 51.386 42.711 51.202 42.887 51.089C43.065 50.975 43.13 50.932 43.174 50.903Z" fill="#C4633E"/>
<path fill-rule="evenodd" clip-rule="evenodd" d="M16.413 45.39C18.006 45.062 19.88 44.688 19.996 44.149C20.114 43.61 18.474 42.907 17.514 42.181C16.554 41.454 16.272 40.7051 15.218 40.3071C14.164 39.9091 12.337 39.862 11.095 40.026C9.853 40.19 9.19699 40.565 8.39999 40.659C7.60399 40.753 6.668 40.565 6.104 40.19C5.541 39.815 5.355 39.253 5.261 38.3391C5.166 37.4261 5.166 36.161 5.097 35.387C5.027 34.614 4.886 34.333 4.69901 34.731C4.511 35.13 4.27701 36.207 4.11301 36.793C3.94901 37.379 3.855 37.473 3.47 37.382C3.085 37.292 2.408 37.018 1.843 35.706C1.278 34.395 0.822995 32.045 0.369995 29.696C1.24 44.121 13.216 55.551 27.859 55.551C32.132 55.551 36.177 54.578 39.786 52.842C39.286 53.064 38.783 53.288 38.139 53.54C37.493 53.792 36.704 54.073 35.754 53.993C34.803 53.913 33.69 53.471 32.348 53.67C31.006 53.87 29.433 54.71 27.944 55.077C26.456 55.444 25.049 55.337 24.173 55.081C23.296 54.824 22.946 54.419 23.125 54.028C23.302 53.638 24.005 53.2631 24.285 53.0051C24.566 52.7481 24.426 52.607 23.466 52.678C22.505 52.748 20.725 53.029 19.717 52.771C18.71 52.513 18.476 51.7171 17.748 51.0611C17.022 50.4051 15.805 49.889 14.797 49.116C13.79 48.343 12.992 47.3121 13.25 46.6561C13.508 45.9991 14.819 45.718 16.413 45.39Z" fill="#C4633E"/>
<path fill-rule="evenodd" clip-rule="evenodd" d="M27.859 55.55C27.846 55.55 27.834 55.55 27.819 55.55C27.834 55.55 27.847 55.55 27.859 55.55C27.876 55.55 27.891 55.55 27.906 55.55C27.907 55.55 27.906 55.55 27.907 55.55C27.892 55.55 27.876 55.55 27.859 55.55ZM27.807 55.55C27.798 55.55 27.79 55.55 27.78 55.55C27.789 55.55 27.798 55.55 27.807 55.55ZM27.923 55.55C27.924 55.55 27.925 55.55 27.926 55.55C27.935 55.55 27.944 55.55 27.953 55.55H27.954C27.944 55.55 27.933 55.55 27.923 55.55ZM27.974 55.55C27.976 55.55 27.977 55.55 27.979 55.55C27.985 55.55 27.993 55.55 28 55.55C28.001 55.55 28.002 55.55 28.002 55.55C27.992 55.55 27.983 55.55 27.974 55.55ZM28.022 55.55C28.024 55.55 28.026 55.55 28.028 55.55C28.033 55.55 28.039 55.549 28.044 55.549C28.046 55.549 28.048 55.549 28.05 55.549C28.041 55.549 28.031 55.55 28.022 55.55ZM28.07 55.549C28.073 55.549 28.077 55.549 28.078 55.549C28.081 55.549 28.084 55.549 28.085 55.549C28.09 55.549 28.093 55.549 28.098 55.549C28.089 55.549 28.078 55.549 28.07 55.549ZM27.596 55.549C27.584 55.549 27.574 55.549 27.564 55.548C27.574 55.549 27.585 55.549 27.596 55.549ZM28.166 55.548C28.176 55.548 28.186 55.548 28.195 55.548C28.185 55.548 28.176 55.548 28.166 55.548ZM27.509 55.548C27.501 55.548 27.49 55.548 27.483 55.548C27.491 55.548 27.499 55.548 27.509 55.548ZM28.268 55.547C28.281 55.547 28.294 55.547 28.307 55.546C28.294 55.547 28.28 55.547 28.268 55.547ZM27.429 55.547C27.416 55.547 27.403 55.546 27.39 55.546C27.402 55.546 27.416 55.547 27.429 55.547ZM27.389 55.546C27.376 55.546 27.362 55.546 27.349 55.545C27.361 55.546 27.376 55.546 27.389 55.546ZM28.374 55.545C28.384 55.545 28.393 55.545 28.401 55.545C28.393 55.545 28.383 55.545 28.374 55.545ZM27.254 55.543C27.243 55.543 27.236 55.543 27.228 55.543C27.235 55.543 27.245 55.543 27.254 55.543ZM28.517 55.542C28.527 55.542 28.536 55.542 28.546 55.542C28.537 55.542 28.526 55.542 28.517 55.542ZM27.173 55.542C27.158 55.541 27.147 55.541 27.134 55.541C27.146 55.541 27.16 55.541 27.173 55.542ZM28.564 55.541C28.574 55.541 28.585 55.5409 28.595 55.5399C28.586 55.5409 28.574 55.541 28.564 55.541ZM27.128 55.541C27.116 55.54 27.106 55.5399 27.094 55.5399C27.104 55.5399 27.118 55.54 27.128 55.541ZM28.611 55.5399C28.623 55.5399 28.633 55.539 28.645 55.539C28.635 55.539 28.623 55.5399 28.611 55.5399ZM28.666 55.5379C28.679 55.5379 28.692 55.538 28.706 55.537C28.691 55.538 28.68 55.5379 28.666 55.5379ZM27.039 55.5379C27.029 55.5379 27.022 55.538 27.014 55.537C27.021 55.538 27.029 55.5379 27.039 55.5379ZM28.724 55.537C28.734 55.536 28.743 55.5359 28.753 55.5359C28.742 55.5359 28.733 55.536 28.724 55.537ZM26.919 55.534C26.905 55.534 26.893 55.532 26.879 55.532C26.893 55.533 26.905 55.534 26.919 55.534ZM28.821 55.534C28.829 55.532 28.838 55.532 28.846 55.532C28.838 55.533 28.829 55.533 28.821 55.534ZM26.87 55.533C26.858 55.533 26.849 55.533 26.839 55.531C26.849 55.532 26.859 55.532 26.87 55.533ZM26.826 55.531C26.816 55.531 26.807 55.53 26.799 55.53C26.809 55.53 26.815 55.531 26.826 55.531ZM28.915 55.53C28.924 55.53 28.933 55.53 28.941 55.529C28.934 55.529 28.924 55.53 28.915 55.53ZM26.785 55.529C26.776 55.529 26.766 55.529 26.758 55.528C26.767 55.529 26.775 55.529 26.785 55.529ZM28.963 55.528C28.972 55.528 28.981 55.5279 28.989 55.5269C28.98 55.5279 28.973 55.528 28.963 55.528ZM26.745 55.528C26.733 55.527 26.723 55.5269 26.712 55.5269C26.722 55.5269 26.734 55.527 26.745 55.528ZM26.705 55.526C26.692 55.526 26.679 55.5249 26.665 55.5249C26.679 55.5249 26.691 55.526 26.705 55.526ZM29.066 55.524C29.079 55.524 29.09 55.5229 29.102 55.5229C29.091 55.5229 29.079 55.524 29.066 55.524ZM29.171 55.519C29.179 55.519 29.188 55.519 29.196 55.518C29.186 55.519 29.18 55.519 29.171 55.519ZM26.531 55.519C26.522 55.518 26.512 55.518 26.504 55.517C26.514 55.518 26.521 55.518 26.531 55.519ZM29.219 55.517C29.227 55.517 29.235 55.516 29.242 55.516C29.234 55.516 29.227 55.517 29.219 55.517ZM26.49 55.517C26.479 55.516 26.468 55.515 26.457 55.515C26.469 55.516 26.478 55.516 26.49 55.517ZM26.406 55.5119C26.394 55.5119 26.383 55.5109 26.37 55.5099C26.384 55.5109 26.395 55.5119 26.406 55.5119ZM29.313 55.5119C29.321 55.5119 29.33 55.512 29.336 55.511C29.329 55.512 29.319 55.5119 29.313 55.5119ZM29.359 55.5099C29.367 55.5089 29.375 55.509 29.382 55.509C29.375 55.509 29.367 55.5099 29.359 55.5099ZM26.318 55.5079C26.309 55.507 26.299 55.507 26.29 55.506C26.3 55.507 26.31 55.507 26.318 55.5079ZM26.279 55.505C26.268 55.505 26.257 55.504 26.246 55.504C26.259 55.504 26.268 55.505 26.279 55.505ZM26.238 55.503C26.213 55.502 26.184 55.5 26.158 55.498C26.185 55.5 26.213 55.502 26.238 55.503ZM29.492 55.503C29.494 55.502 29.494 55.502 29.496 55.502C29.496 55.502 29.492 55.502 29.492 55.503ZM29.523 55.501C29.53 55.5 29.536 55.4999 29.543 55.4989C29.537 55.4999 29.529 55.5 29.523 55.501ZM26.15 55.498C26.139 55.497 26.128 55.496 26.116 55.496C26.129 55.497 26.14 55.497 26.15 55.498ZM26.109 55.4949C26.098 55.4949 26.087 55.4939 26.076 55.493C26.088 55.4939 26.099 55.4949 26.109 55.4949ZM26.067 55.493C26.056 55.491 26.047 55.49 26.036 55.49C26.047 55.491 26.057 55.492 26.067 55.493ZM29.661 55.492C29.67 55.492 29.677 55.491 29.683 55.491C29.676 55.491 29.67 55.492 29.661 55.492ZM26.026 55.49C26.014 55.489 26.002 55.488 25.989 55.488C26.002 55.488 26.015 55.489 26.026 55.49ZM25.987 55.487C25.96 55.486 25.932 55.4839 25.905 55.4819C25.933 55.4839 25.96 55.486 25.987 55.487ZM29.755 55.4859C29.762 55.4849 29.769 55.4849 29.776 55.4839C29.769 55.4849 29.763 55.4849 29.755 55.4859ZM25.897 55.481C25.886 55.48 25.877 55.48 25.865 55.479C25.876 55.48 25.888 55.48 25.897 55.481ZM25.855 55.478C25.845 55.478 25.834 55.477 25.824 55.476C25.835 55.477 25.846 55.477 25.855 55.478ZM25.814 55.475C25.804 55.475 25.793 55.474 25.781 55.473C25.793 55.474 25.805 55.474 25.814 55.475ZM29.922 55.474C29.927 55.474 29.932 55.473 29.937 55.473C29.932 55.473 29.928 55.474 29.922 55.474ZM29.965 55.4709C29.971 55.4699 29.978 55.4699 29.984 55.4689C29.977 55.4699 29.972 55.4699 29.965 55.4709ZM30.012 55.4669C30.018 55.4669 30.023 55.466 30.029 55.466C30.023 55.466 30.017 55.4669 30.012 55.4669ZM25.692 55.466C25.679 55.465 25.665 55.464 25.653 55.463C25.667 55.464 25.68 55.465 25.692 55.466ZM30.058 55.464C30.064 55.463 30.07 55.463 30.075 55.462C30.069 55.463 30.063 55.463 30.058 55.464ZM25.604 55.459C25.592 55.458 25.582 55.4569 25.569 55.4559C25.58 55.4569 25.593 55.458 25.604 55.459ZM30.149 55.4559C30.154 55.4559 30.161 55.455 30.165 55.455C30.159 55.455 30.155 55.4559 30.149 55.4559ZM30.195 55.452C30.199 55.452 30.203 55.452 30.207 55.451C30.202 55.452 30.201 55.452 30.195 55.452ZM25.436 55.445C25.424 55.444 25.413 55.443 25.401 55.442C25.413 55.443 25.426 55.444 25.436 55.445ZM30.317 55.442C30.321 55.442 30.326 55.4409 30.33 55.4409C30.324 55.4409 30.321 55.441 30.317 55.442ZM25.395 55.4409C25.384 55.4399 25.372 55.439 25.361 55.438C25.371 55.439 25.384 55.4399 25.395 55.4409ZM25.353 55.438C25.342 55.437 25.33 55.435 25.318 55.434C25.331 55.435 25.342 55.436 25.353 55.438ZM30.404 55.434C30.409 55.434 30.415 55.432 30.421 55.432C30.415 55.433 30.409 55.434 30.404 55.434ZM25.314 55.434C25.273 55.43 25.232 55.426 25.191 55.422C25.231 55.426 25.272 55.43 25.314 55.434ZM25.185 55.422C25.174 55.421 25.161 55.42 25.15 55.419C25.163 55.42 25.173 55.421 25.185 55.422ZM25.144 55.418C25.132 55.417 25.122 55.416 25.109 55.414C25.121 55.416 25.132 55.417 25.144 55.418ZM30.588 55.417C30.591 55.416 30.594 55.416 30.597 55.416C30.593 55.416 30.591 55.416 30.588 55.417ZM25.103 55.414C25.048 55.408 24.994 55.403 24.939 55.397C24.994 55.403 25.05 55.409 25.103 55.414ZM30.718 55.404C30.718 55.404 30.719 55.403 30.72 55.403C30.719 55.403 30.719 55.404 30.718 55.404ZM24.936 55.397C24.923 55.395 24.911 55.394 24.899 55.393C24.911 55.394 24.925 55.395 24.936 55.397ZM30.799 55.395C30.803 55.395 30.806 55.394 30.81 55.394C30.806 55.394 30.802 55.395 30.799 55.395ZM24.895 55.392C24.882 55.391 24.87 55.39 24.857 55.388C24.869 55.389 24.883 55.391 24.895 55.392ZM30.843 55.39C30.847 55.39 30.851 55.389 30.855 55.389C30.852 55.389 30.847 55.39 30.843 55.39ZM24.728 55.3739C24.715 55.3729 24.702 55.3709 24.688 55.3699C24.702 55.3709 24.716 55.3719 24.728 55.3739ZM24.688 55.3699C24.674 55.3689 24.662 55.366 24.648 55.365C24.661 55.366 24.674 55.3689 24.688 55.3699ZM31.15 55.3549H31.152C31.152 55.3549 31.151 55.3549 31.15 55.3549ZM31.624 55.295C31.626 55.295 31.626 55.295 31.626 55.295H31.624ZM31.668 55.289C31.669 55.289 31.669 55.289 31.67 55.289H31.668ZM39.218 53.0919C40.618 52.4549 41.954 51.703 43.219 50.85C43.207 50.879 43.194 50.889 43.18 50.899C48.477 47.348 52.472 42.006 54.301 35.74C52.421 42.184 48.248 47.65 42.726 51.197C42.875 51.101 43.026 51.003 43.174 50.903C43.13 50.932 43.066 50.975 42.888 51.089C42.711 51.202 42.421 51.386 42.275 51.478L42.132 51.569C41.373 52.03 40.589 52.4549 39.783 52.8419C39.597 52.9249 39.411 53.0079 39.218 53.0919ZM42.263 51.489C42.284 51.476 42.307 51.462 42.327 51.448C42.306 51.462 42.284 51.476 42.263 51.489ZM42.331 51.446C42.341 51.441 42.351 51.4339 42.36 51.4279C42.351 51.4339 42.341 51.44 42.331 51.446ZM42.405 51.3999C42.412 51.3959 42.42 51.3909 42.425 51.3869C42.419 51.3909 42.412 51.3959 42.405 51.3999ZM42.564 51.3009C42.565 51.2999 42.565 51.2999 42.566 51.299C42.564 51.2999 42.564 51.2999 42.564 51.3009ZM5.38 43.923C5.372 43.913 5.36399 43.902 5.35699 43.892C5.36399 43.903 5.372 43.912 5.38 43.923ZM5.355 43.89C5.325 43.848 5.295 43.805 5.265 43.763C5.296 43.805 5.325 43.847 5.355 43.89ZM5.263 43.757C5.256 43.748 5.249 43.7389 5.243 43.7299C5.249 43.7389 5.257 43.748 5.263 43.757ZM5.24001 43.725C5.23301 43.715 5.227 43.707 5.22 43.697C5.227 43.707 5.23301 43.716 5.24001 43.725ZM5.21899 43.694C5.19599 43.662 5.17399 43.63 5.15199 43.598C5.17399 43.629 5.19599 43.662 5.21899 43.694ZM5.14799 43.593C5.142 43.584 5.136 43.575 5.13 43.567C5.137 43.575 5.14299 43.585 5.14799 43.593ZM5.10201 43.526C5.09701 43.519 5.09201 43.512 5.08701 43.504C5.09301 43.512 5.098 43.519 5.10201 43.526ZM5.082 43.4949C5.075 43.486 5.069 43.478 5.063 43.468C5.069 43.477 5.075 43.486 5.082 43.4949ZM5.061 43.464C5.054 43.454 5.04699 43.443 5.03999 43.433C5.04699 43.444 5.054 43.453 5.061 43.464ZM5.035 43.427C5.029 43.418 5.02401 43.4099 5.01801 43.4019C5.02301 43.4099 5.029 43.419 5.035 43.427ZM5.01199 43.391C5.00699 43.385 5.00299 43.3779 4.99699 43.3699C5.00199 43.3769 5.00699 43.385 5.01199 43.391ZM4.96899 43.328C4.96399 43.321 4.96 43.315 4.955 43.307C4.96 43.314 4.96399 43.321 4.96899 43.328ZM4.94701 43.297C4.94101 43.288 4.935 43.278 4.929 43.269C4.936 43.2789 4.94101 43.287 4.94701 43.297ZM4.924 43.2599C4.919 43.2529 4.912 43.2429 4.907 43.2359C4.912 43.2439 4.918 43.2519 4.924 43.2599ZM4.89799 43.224C4.89399 43.217 4.891 43.212 4.886 43.205C4.891 43.211 4.895 43.218 4.89799 43.224ZM4.87801 43.1909C4.87401 43.1859 4.87 43.18 4.866 43.174C4.87 43.18 4.87401 43.1849 4.87801 43.1909ZM4.856 43.16C4.853 43.154 4.84899 43.149 4.84599 43.143C4.84999 43.149 4.852 43.154 4.856 43.16ZM4.70599 42.927C4.70299 42.926 4.703 42.924 4.701 42.922C4.703 42.924 4.70299 42.925 4.70599 42.927ZM4.61501 42.7879C4.61301 42.785 4.612 42.782 4.61 42.779C4.611 42.782 4.61301 42.785 4.61501 42.7879ZM4.52499 42.645C4.52399 42.644 4.522 42.641 4.521 42.639C4.522 42.641 4.52399 42.643 4.52499 42.645ZM4.487 42.585C4.486 42.583 4.48599 42.5829 4.48399 42.5809C4.48499 42.5819 4.486 42.584 4.487 42.585ZM54.301 35.74C54.306 35.723 54.311 35.707 54.316 35.6889C54.31 35.7059 54.306 35.723 54.301 35.74ZM54.432 35.2769C54.446 35.2269 54.46 35.176 54.473 35.125C54.46 35.176 54.445 35.2269 54.432 35.2769ZM54.474 35.1219C54.478 35.1059 54.482 35.091 54.487 35.074C54.482 35.09 54.477 35.1059 54.474 35.1219ZM54.487 35.071C54.501 35.02 54.513 34.97 54.526 34.919C54.514 34.97 54.501 35.02 54.487 35.071ZM54.527 34.914C54.531 34.899 54.535 34.8829 54.539 34.868C54.537 34.8829 54.531 34.899 54.527 34.914ZM54.581 34.707C54.585 34.692 54.589 34.6759 54.593 34.6609C54.589 34.6759 54.585 34.691 54.581 34.707ZM54.594 34.657C54.606 34.606 54.618 34.556 54.631 34.505C54.618 34.556 54.605 34.606 54.594 34.657ZM54.632 34.498C54.636 34.483 54.64 34.468 54.643 34.453C54.64 34.469 54.636 34.483 54.632 34.498ZM54.644 34.448C54.653 34.414 54.661 34.3799 54.669 34.3459C54.66 34.3809 54.652 34.414 54.644 34.448ZM54.717 34.1349C54.721 34.1199 54.724 34.104 54.728 34.089C54.725 34.104 54.721 34.1199 54.717 34.1349ZM54.775 33.871C54.778 33.855 54.782 33.841 54.785 33.825C54.782 33.841 54.779 33.855 54.775 33.871ZM54.787 33.821C54.794 33.787 54.802 33.752 54.809 33.718C54.801 33.753 54.794 33.786 54.787 33.821ZM54.809 33.715C54.813 33.7 54.816 33.684 54.819 33.669C54.815 33.684 54.813 33.7 54.809 33.715ZM54.82 33.66C54.823 33.645 54.826 33.63 54.831 33.614C54.826 33.629 54.823 33.645 54.82 33.66ZM54.852 33.504C54.855 33.489 54.858 33.4729 54.861 33.4579C54.858 33.4739 54.855 33.488 54.852 33.504ZM54.863 33.449C54.866 33.434 54.87 33.419 54.873 33.403C54.87 33.418 54.866 33.434 54.863 33.449ZM54.905 33.237C54.908 33.222 54.91 33.207 54.914 33.192C54.91 33.208 54.908 33.221 54.905 33.237ZM54.914 33.188C54.922 33.154 54.928 33.119 54.934 33.086C54.928 33.12 54.922 33.154 54.914 33.188ZM54.935 33.078C54.937 33.063 54.94 33.05 54.943 33.035C54.94 33.05 54.938 33.064 54.935 33.078ZM54.974 32.866C54.977 32.852 54.979 32.837 54.982 32.823C54.978 32.837 54.977 32.852 54.974 32.866ZM54.991 32.763C54.998 32.729 55.004 32.695 55.01 32.6609C55.004 32.695 54.998 32.73 54.991 32.763ZM55.02 32.599C55.022 32.584 55.025 32.5679 55.027 32.5529C55.025 32.5689 55.022 32.583 55.02 32.599ZM55.037 32.4949C55.039 32.4789 55.043 32.464 55.045 32.448C55.043 32.464 55.039 32.4799 55.037 32.4949ZM55.047 32.437C55.049 32.424 55.051 32.4119 55.054 32.3979C55.051 32.4109 55.049 32.424 55.047 32.437ZM55.063 32.336C55.066 32.319 55.069 32.301 55.072 32.284C55.068 32.302 55.065 32.318 55.063 32.336ZM55.071 32.281C55.073 32.265 55.077 32.2489 55.078 32.2339C55.077 32.2499 55.074 32.265 55.071 32.281ZM55.112 32.0079C55.114 31.9949 55.116 31.982 55.118 31.97C55.116 31.982 55.114 31.996 55.112 32.0079ZM55.128 31.907C55.13 31.889 55.132 31.8729 55.135 31.8549C55.133 31.872 55.13 31.89 55.128 31.907ZM55.144 31.793C55.145 31.78 55.147 31.768 55.149 31.755C55.146 31.767 55.145 31.78 55.144 31.793ZM55.164 31.63C55.166 31.617 55.169 31.604 55.171 31.591C55.169 31.604 55.166 31.616 55.164 31.63ZM55.172 31.576C55.174 31.564 55.176 31.551 55.177 31.539C55.176 31.552 55.174 31.563 55.172 31.576ZM55.179 31.5249C55.181 31.5089 55.183 31.493 55.185 31.478C55.183 31.493 55.181 31.5099 55.179 31.5249ZM55.185 31.476C55.187 31.459 55.189 31.442 55.192 31.425C55.189 31.442 55.186 31.459 55.185 31.476ZM55.198 31.36C55.2 31.348 55.202 31.335 55.204 31.323C55.202 31.335 55.2 31.347 55.198 31.36ZM55.219 31.197C55.22 31.184 55.222 31.171 55.223 31.158C55.222 31.17 55.22 31.184 55.219 31.197ZM55.225 31.143C55.226 31.13 55.228 31.119 55.229 31.106C55.227 31.119 55.226 31.131 55.225 31.143ZM55.23 31.0919C55.233 31.0589 55.237 31.025 55.241 30.991C55.237 31.025 55.233 31.0579 55.23 31.0919ZM55.249 30.927C55.25 30.914 55.251 30.8999 55.253 30.8869C55.251 30.9009 55.25 30.913 55.249 30.927ZM55.265 30.7619C55.267 30.7489 55.268 30.736 55.269 30.723C55.268 30.736 55.267 30.7479 55.265 30.7619ZM55.27 30.709C55.271 30.696 55.272 30.684 55.273 30.67C55.272 30.683 55.271 30.696 55.27 30.709ZM55.275 30.658C55.276 30.641 55.278 30.6239 55.279 30.6069C55.278 30.6229 55.276 30.641 55.275 30.658ZM55.291 30.491C55.291 30.478 55.293 30.464 55.294 30.451C55.293 30.465 55.291 30.477 55.291 30.491ZM55.31 30.271C55.311 30.259 55.312 30.2459 55.313 30.2339C55.311 30.2459 55.31 30.259 55.31 30.271ZM55.314 30.22C55.315 30.203 55.316 30.186 55.318 30.169C55.315 30.187 55.314 30.203 55.314 30.22ZM55.317 30.167C55.318 30.151 55.319 30.135 55.321 30.119C55.32 30.134 55.318 30.152 55.317 30.167ZM55.327 30.0529C55.327 30.0389 55.329 30.027 55.329 30.015C55.329 30.026 55.327 30.0399 55.327 30.0529ZM55.329 30.001C55.331 29.985 55.333 29.967 55.334 29.951C55.333 29.968 55.331 29.984 55.329 30.001ZM55.342 29.832C55.343 29.82 55.344 29.807 55.344 29.795C55.344 29.808 55.343 29.82 55.342 29.832ZM55.352 29.664C55.353 29.653 55.354 29.641 55.354 29.629C55.353 29.641 55.352 29.652 55.352 29.664ZM55.357 29.562C55.358 29.544 55.359 29.528 55.36 29.511C55.359 29.527 55.358 29.545 55.357 29.562ZM55.361 29.501C55.361 29.488 55.362 29.473 55.363 29.46C55.362 29.474 55.361 29.487 55.361 29.501ZM55.366 29.392C55.367 29.379 55.367 29.365 55.368 29.352C55.367 29.366 55.367 29.379 55.366 29.392ZM55.369 29.341C55.369 29.324 55.371 29.308 55.372 29.291C55.371 29.307 55.369 29.325 55.369 29.341ZM55.373 29.279C55.373 29.266 55.374 29.253 55.374 29.24C55.374 29.253 55.373 29.265 55.373 29.279ZM55.377 29.171C55.378 29.159 55.378 29.145 55.379 29.132C55.378 29.145 55.378 29.158 55.377 29.171ZM55.384 29.001C55.384 28.989 55.385 28.9779 55.385 28.9669C55.385 28.9789 55.384 28.989 55.384 29.001ZM55.387 28.8979C55.388 28.8879 55.388 28.879 55.388 28.868C55.388 28.863 55.388 28.857 55.389 28.851C55.388 28.867 55.388 28.8829 55.387 28.8979ZM55.388 27.1369C55.388 27.1339 55.388 27.131 55.387 27.128C55.387 27.126 55.387 27.1259 55.387 27.1239C55.387 27.1279 55.388 27.1329 55.388 27.1369ZM55.387 27.1219C55.387 27.1209 55.387 27.1209 55.387 27.1199C55.387 27.1179 55.387 27.116 55.387 27.114C55.387 27.116 55.387 27.1199 55.387 27.1219ZM55.383 26.993C55.383 26.985 55.382 26.979 55.382 26.972C55.382 26.98 55.383 26.985 55.383 26.993ZM55.381 26.952C55.381 26.945 55.381 26.9369 55.381 26.9299C55.381 26.9379 55.381 26.945 55.381 26.952ZM55.38 26.912C55.38 26.904 55.379 26.897 55.379 26.889C55.379 26.896 55.38 26.905 55.38 26.912ZM55.378 26.869C55.378 26.862 55.378 26.854 55.377 26.847C55.378 26.855 55.378 26.862 55.378 26.869ZM55.376 26.828C55.376 26.82 55.376 26.814 55.375 26.807C55.376 26.813 55.376 26.821 55.376 26.828ZM55.375 26.7859C55.374 26.7789 55.374 26.771 55.374 26.764C55.374 26.772 55.374 26.7789 55.375 26.7859ZM55.373 26.746C55.372 26.737 55.372 26.729 55.372 26.722C55.372 26.731 55.372 26.737 55.373 26.746ZM55.371 26.703C55.371 26.697 55.369 26.689 55.369 26.682C55.369 26.69 55.371 26.696 55.371 26.703ZM55.368 26.6609C55.368 26.6549 55.367 26.648 55.367 26.642C55.367 26.649 55.368 26.6549 55.368 26.6609ZM55.366 26.6199C55.366 26.6139 55.365 26.607 55.365 26.601C55.365 26.607 55.366 26.6129 55.366 26.6199ZM55.35 26.313C55.35 26.306 55.349 26.299 55.349 26.291C55.349 26.299 55.349 26.306 55.35 26.313ZM55.347 26.272C55.347 26.264 55.346 26.2569 55.346 26.2489C55.346 26.2569 55.347 26.265 55.347 26.272ZM55.337 26.1069C55.336 26.0979 55.335 26.087 55.335 26.077C55.335 26.0879 55.336 26.0969 55.337 26.1069ZM55.329 26.0079C55.329 26 55.329 25.993 55.327 25.985C55.329 25.992 55.329 26 55.329 26.0079ZM55.323 25.923C55.322 25.917 55.321 25.909 55.321 25.903C55.322 25.91 55.322 25.916 55.323 25.923ZM55.319 25.8829C55.319 25.8759 55.318 25.869 55.318 25.862C55.318 25.868 55.319 25.8769 55.319 25.8829ZM55.314 25.8009C55.313 25.7929 55.313 25.787 55.312 25.779C55.313 25.786 55.314 25.7939 55.314 25.8009ZM55.31 25.7599C55.309 25.7529 55.309 25.745 55.308 25.738C55.31 25.745 55.31 25.7519 55.31 25.7599ZM55.307 25.7189C55.307 25.7119 55.306 25.705 55.306 25.698C55.306 25.704 55.307 25.7119 55.307 25.7189ZM55.304 25.677C55.303 25.67 55.303 25.664 55.302 25.657C55.303 25.664 55.303 25.671 55.304 25.677ZM55.276 25.3719C55.275 25.3649 55.274 25.359 55.274 25.353C55.274 25.359 55.275 25.3659 55.276 25.3719ZM55.272 25.3309C55.271 25.3249 55.271 25.318 55.27 25.312C55.271 25.319 55.271 25.3239 55.272 25.3309ZM55.269 25.2899C55.268 25.2859 55.268 25.2779 55.267 25.2729C55.268 25.2779 55.268 25.2839 55.269 25.2899ZM55.261 25.209C55.26 25.202 55.26 25.1969 55.259 25.1909C55.259 25.1969 55.26 25.203 55.261 25.209ZM55.252 25.128C55.252 25.125 55.252 25.121 55.251 25.119C55.252 25.122 55.252 25.124 55.252 25.128ZM55.241 25.0249C55.24 25.0199 55.239 25.0129 55.239 25.0079C55.239 25.014 55.24 25.0189 55.241 25.0249ZM55.232 24.945C55.231 24.938 55.231 24.934 55.23 24.927C55.23 24.933 55.231 24.939 55.232 24.945ZM55.227 24.904C55.227 24.899 55.226 24.8919 55.225 24.8869C55.227 24.8919 55.227 24.898 55.227 24.904ZM55.224 24.865C55.223 24.858 55.222 24.8529 55.222 24.8459C55.222 24.8519 55.223 24.858 55.224 24.865ZM55.214 24.783C55.214 24.777 55.213 24.773 55.212 24.767C55.213 24.772 55.214 24.777 55.214 24.783ZM55.21 24.742C55.209 24.737 55.208 24.732 55.208 24.726C55.208 24.731 55.209 24.737 55.21 24.742ZM55.204 24.703C55.204 24.698 55.202 24.691 55.202 24.684C55.202 24.691 55.204 24.697 55.204 24.703ZM55.186 24.556C55.185 24.552 55.185 24.547 55.184 24.544C55.185 24.548 55.185 24.552 55.186 24.556ZM55.182 24.519C55.182 24.513 55.181 24.509 55.18 24.503C55.181 24.508 55.182 24.514 55.182 24.519ZM55.177 24.4799C55.177 24.4739 55.176 24.469 55.175 24.463C55.176 24.468 55.177 24.4739 55.177 24.4799ZM55.172 24.44C55.171 24.435 55.171 24.428 55.17 24.423C55.171 24.429 55.171 24.434 55.172 24.44ZM55.162 24.3589C55.16 24.3549 55.16 24.348 55.158 24.343C55.16 24.349 55.16 24.3529 55.162 24.3589ZM55.15 24.279C55.149 24.274 55.149 24.269 55.148 24.264C55.149 24.269 55.149 24.273 55.15 24.279ZM55.113 24.013C55.112 24.009 55.112 24.007 55.111 24.002C55.111 24.006 55.112 24.01 55.113 24.013ZM55.035 23.514C55.035 23.51 55.035 23.507 55.035 23.504C55.035 23.507 55.035 23.511 55.035 23.514ZM55.029 23.475C55.028 23.472 55.028 23.468 55.027 23.464C55.028 23.468 55.028 23.471 55.029 23.475ZM55.022 23.436C55.022 23.432 55.021 23.4289 55.021 23.4259C55.021 23.4289 55.022 23.433 55.022 23.436ZM55.017 23.396C55.016 23.393 55.016 23.3909 55.015 23.3869C55.016 23.3899 55.016 23.3939 55.017 23.396ZM55.01 23.3569C55.009 23.3539 55.009 23.352 55.009 23.348C55.009 23.351 55.01 23.3539 55.01 23.3569ZM55.003 23.3179C55.003 23.3149 55.002 23.313 55.002 23.31C55.003 23.313 55.003 23.3149 55.003 23.3179ZM54.997 23.278L54.996 23.276C54.996 23.277 54.996 23.278 54.997 23.278ZM54.97 23.129C54.97 23.127 54.97 23.127 54.97 23.125C54.97 23.126 54.97 23.128 54.97 23.129ZM54.956 23.057C54.956 23.053 54.956 23.05 54.954 23.047C54.956 23.05 54.956 23.054 54.956 23.057ZM54.949 23.019C54.949 23.016 54.948 23.011 54.947 23.007C54.948 23.011 54.949 23.015 54.949 23.019ZM54.942 22.9799C54.942 22.976 54.941 22.972 54.94 22.968C54.941 22.972 54.941 22.976 54.942 22.9799ZM54.935 22.94C54.934 22.937 54.934 22.9339 54.933 22.9299C54.935 22.9339 54.935 22.937 54.935 22.94ZM54.928 22.8999C54.928 22.8979 54.928 22.896 54.927 22.893C54.927 22.896 54.928 22.8979 54.928 22.8999ZM54.921 22.8609C54.921 22.8599 54.92 22.858 54.92 22.856C54.921 22.858 54.921 22.8589 54.921 22.8609ZM54.847 22.4839C54.847 22.4819 54.846 22.481 54.846 22.479C54.846 22.481 54.847 22.4829 54.847 22.4839ZM54.839 22.445C54.839 22.445 54.839 22.443 54.838 22.442C54.839 22.443 54.839 22.444 54.839 22.445ZM54.831 22.407C54.831 22.406 54.831 22.406 54.831 22.404C54.831 22.405 54.831 22.406 54.831 22.407ZM54.751 22.032C54.751 22.031 54.749 22.03 54.749 22.029C54.751 22.03 54.751 22.03 54.751 22.032ZM36.809 1.95395L36.806 1.95296C36.807 1.95396 36.807 1.95395 36.809 1.95395ZM36.771 1.94196C36.77 1.94096 36.771 1.94095 36.77 1.94095L36.771 1.94196ZM36.414 1.82196C36.412 1.82196 36.412 1.82095 36.41 1.82095C36.41 1.82095 36.412 1.82196 36.414 1.82196ZM36.016 1.69595C36.016 1.69495 36.014 1.69495 36.013 1.69395C36.015 1.69495 36.015 1.69495 36.016 1.69595ZM35.98 1.68495C35.977 1.68495 35.977 1.68495 35.974 1.68295C35.977 1.68295 35.978 1.68395 35.98 1.68495ZM35.87 1.65096C35.868 1.64996 35.868 1.64995 35.865 1.64995C35.866 1.64995 35.868 1.64996 35.87 1.65096ZM35.582 1.56496C35.578 1.56396 35.576 1.56396 35.573 1.56296C35.576 1.56296 35.58 1.56396 35.582 1.56496ZM35.508 1.54396C35.505 1.54296 35.503 1.54195 35.499 1.54095C35.502 1.54195 35.505 1.54296 35.508 1.54396ZM35.396 1.51096C35.393 1.51096 35.391 1.50996 35.388 1.50896C35.391 1.50996 35.393 1.50996 35.396 1.51096ZM35.105 1.43095C35.102 1.42995 35.098 1.42895 35.095 1.42795C35.099 1.42895 35.102 1.42995 35.105 1.43095ZM35.068 1.42096C35.064 1.41996 35.06 1.41895 35.057 1.41795C35.06 1.41895 35.065 1.41996 35.068 1.42096ZM35.03 1.41095C35.026 1.40995 35.022 1.40895 35.018 1.40695C35.022 1.40795 35.027 1.40995 35.03 1.41095ZM34.992 1.39995C34.988 1.39895 34.985 1.39896 34.981 1.39696C34.985 1.39796 34.988 1.39895 34.992 1.39995ZM34.738 1.33395C34.735 1.33295 34.731 1.33195 34.728 1.33095C34.732 1.33195 34.734 1.33295 34.738 1.33395ZM34.701 1.32396C34.698 1.32296 34.693 1.32195 34.69 1.32095C34.693 1.32195 34.697 1.32296 34.701 1.32396ZM34.665 1.31496C34.661 1.31396 34.655 1.31296 34.651 1.31096C34.655 1.31296 34.659 1.31396 34.665 1.31496ZM34.473 1.26695C34.47 1.26595 34.464 1.26496 34.461 1.26396C34.465 1.26496 34.469 1.26595 34.473 1.26695ZM34.435 1.25696C34.432 1.25696 34.428 1.25596 34.424 1.25496C34.427 1.25596 34.432 1.25696 34.435 1.25696ZM34.332 1.23195C34.327 1.23095 34.325 1.23095 34.32 1.22995C34.323 1.23095 34.328 1.23195 34.332 1.23195ZM34.298 1.22395C34.293 1.22295 34.286 1.22195 34.281 1.22095C34.288 1.22195 34.293 1.22295 34.298 1.22395ZM34.221 1.20595C34.215 1.20495 34.211 1.20395 34.205 1.20195C34.21 1.20295 34.216 1.20495 34.221 1.20595ZM34.143 1.18796C34.138 1.18696 34.132 1.18496 34.127 1.18396C34.133 1.18496 34.138 1.18596 34.143 1.18796ZM34.104 1.17896C34.099 1.17796 34.093 1.17596 34.088 1.17496C34.094 1.17596 34.099 1.17696 34.104 1.17896ZM34.065 1.16995C34.059 1.16795 34.054 1.16695 34.048 1.16595C34.055 1.16695 34.06 1.16895 34.065 1.16995ZM34.026 1.16095C34.02 1.15995 34.015 1.15795 34.009 1.15695C34.016 1.15795 34.021 1.15895 34.026 1.16095ZM33.987 1.15195C33.982 1.15095 33.976 1.14895 33.971 1.14795C33.977 1.14995 33.982 1.15095 33.987 1.15195ZM33.848 1.12096C33.844 1.11996 33.839 1.11795 33.835 1.11795C33.839 1.11895 33.843 1.11896 33.848 1.12096ZM33.81 1.11195C33.805 1.11095 33.799 1.10995 33.794 1.10895C33.801 1.10995 33.805 1.11095 33.81 1.11195ZM33.772 1.10396C33.766 1.10296 33.761 1.10196 33.755 1.09996C33.762 1.10196 33.768 1.10296 33.772 1.10396ZM33.733 1.09496C33.728 1.09396 33.721 1.09295 33.716 1.09195C33.722 1.09295 33.727 1.09396 33.733 1.09496ZM33.694 1.08696C33.688 1.08596 33.683 1.08495 33.677 1.08295C33.684 1.08495 33.689 1.08596 33.694 1.08696ZM33.655 1.07895C33.649 1.07695 33.643 1.07595 33.637 1.07495C33.644 1.07595 33.649 1.07695 33.655 1.07895ZM33.577 1.06195C33.571 1.06095 33.565 1.05995 33.56 1.05795C33.565 1.05995 33.57 1.06095 33.577 1.06195ZM33.498 1.04596C33.494 1.04396 33.489 1.04395 33.483 1.04295C33.488 1.04295 33.494 1.04496 33.498 1.04596ZM33.439 1.03296C33.433 1.03196 33.427 1.03095 33.421 1.02995C33.428 1.03095 33.435 1.03196 33.439 1.03296ZM33.401 1.02596C33.394 1.02396 33.389 1.02296 33.382 1.02196C33.389 1.02296 33.396 1.02396 33.401 1.02596ZM33.361 1.01695C33.355 1.01595 33.349 1.01496 33.343 1.01396C33.35 1.01496 33.355 1.01595 33.361 1.01695ZM33.323 1.00995C33.317 1.00795 33.309 1.00695 33.303 1.00595C33.31 1.00695 33.316 1.00795 33.323 1.00995ZM33.283 1.00195C33.276 0.999953 33.27 0.998955 33.263 0.997955C33.271 0.998955 33.277 0.999953 33.283 1.00195ZM33.244 0.993958C33.237 0.992958 33.231 0.99096 33.224 0.98996C33.23 0.99096 33.237 0.992958 33.244 0.993958ZM33.204 0.985947C33.198 0.984947 33.19 0.982949 33.184 0.981949C33.191 0.983949 33.197 0.984947 33.204 0.985947ZM33.087 0.962952C33.079 0.961952 33.07 0.959954 33.064 0.958954C33.071 0.959954 33.079 0.961952 33.087 0.962952ZM33.008 0.947952C32.993 0.944952 32.982 0.942948 32.968 0.940948C32.98 0.942948 32.994 0.945952 33.008 0.947952ZM32.914 0.929947C32.905 0.928947 32.896 0.926949 32.889 0.925949C32.897 0.926949 32.904 0.928947 32.914 0.929947ZM32.873 0.922958C32.864 0.920958 32.856 0.919953 32.849 0.917953C32.855 0.919953 32.864 0.920958 32.873 0.922958ZM32.833 0.915955C32.824 0.914955 32.815 0.913957 32.809 0.911957C32.816 0.912957 32.823 0.913955 32.833 0.915955ZM32.791 0.907959C32.785 0.906959 32.776 0.904961 32.769 0.903961C32.776 0.904961 32.783 0.906959 32.791 0.907959ZM32.552 0.865952C32.541 0.863952 32.527 0.861955 32.517 0.859955C32.528 0.861955 32.539 0.863952 32.552 0.865952ZM32.454 0.848953C32.448 0.847953 32.441 0.846947 32.435 0.845947C32.442 0.846947 32.448 0.847953 32.454 0.848953Z" fill="#502815"/>
<path fill-rule="evenodd" clip-rule="evenodd" d="M27.926 55.55C27.936 55.55 27.944 55.55 27.953 55.55C27.943 55.55 27.935 55.55 27.926 55.55ZM27.978 55.55C27.985 55.55 27.992 55.55 27.999 55.55C27.992 55.55 27.984 55.55 27.978 55.55ZM28.078 55.549C28.081 55.549 28.083 55.549 28.085 55.549C28.084 55.549 28.081 55.549 28.078 55.549ZM25.986 55.313C25.274 55.313 24.645 55.219 24.172 55.08C23.295 54.823 22.945 54.418 23.124 54.027C23.301 53.637 24.004 53.262 24.284 53.004C24.516 52.791 24.461 52.658 23.892 52.658C23.772 52.658 23.63 52.664 23.464 52.677C22.794 52.725 21.726 52.877 20.8 52.877C20.397 52.877 20.021 52.848 19.715 52.77C18.708 52.512 18.474 51.716 17.746 51.06C17.02 50.404 15.803 49.888 14.795 49.115C14.567 48.941 14.351 48.753 14.154 48.56C17.547 49.918 20.91 50.533 24.145 50.533C36.303 50.533 46.678 41.853 50.224 31.328C50.278 31.675 50.354 32.008 50.475 32.294C50.804 33.067 51.459 33.489 52.045 33.887C52.631 34.285 53.146 34.66 53.432 35.209C53.717 35.758 53.772 36.48 53.7 37.102C53.626 37.723 53.424 38.244 52.787 38.936C52.15 39.63 51.078 40.496 50.262 41.093C49.446 41.69 48.883 42.018 48.485 42.439C48.088 42.861 47.853 43.376 47.83 43.798C47.807 44.22 47.994 44.548 47.946 44.923C47.899 45.298 47.619 45.719 47.081 46.118C46.541 46.516 45.745 46.891 45.111 47.289C44.479 47.687 44.01 48.109 43.729 48.706C43.448 49.303 43.354 50.074 43.296 50.467C43.261 50.702 43.239 50.802 43.218 50.851C41.953 51.705 40.617 52.456 39.217 53.093C38.89 53.235 38.542 53.382 38.138 53.54C37.57 53.762 36.889 54.007 36.085 54.007C35.976 54.007 35.865 54.002 35.753 53.993C34.975 53.927 34.088 53.619 33.055 53.619C32.826 53.619 32.591 53.634 32.347 53.67C31.005 53.87 29.432 54.71 27.943 55.077C27.26 55.245 26.593 55.313 25.986 55.313ZM55.388 28.868C55.388 28.862 55.389 28.855 55.389 28.849V28.851C55.388 28.857 55.388 28.863 55.388 28.868ZM55.389 28.833C55.39 28.822 55.39 28.809 55.39 28.797C55.39 28.809 55.39 28.821 55.389 28.833ZM55.391 28.779C55.391 28.768 55.391 28.756 55.392 28.744C55.391 28.755 55.391 28.768 55.391 28.779ZM55.392 28.728C55.392 28.714 55.393 28.7 55.393 28.686C55.393 28.699 55.392 28.714 55.392 28.728ZM55.395 28.611C55.395 28.599 55.395 28.587 55.396 28.576C55.395 28.588 55.395 28.599 55.395 28.611ZM55.395 28.557C55.395 28.545 55.395 28.534 55.396 28.522C55.395 28.533 55.395 28.546 55.395 28.557ZM55.4 28.165C55.4 28.153 55.4 28.141 55.4 28.13C55.4 28.142 55.4 28.153 55.4 28.165ZM55.4 28.06C55.4 28.043 55.4 28.026 55.4 28.009C55.4 28.026 55.4 28.044 55.4 28.06ZM55.4 27.866C55.4 27.859 55.4 27.849 55.4 27.842C55.4 27.85 55.4 27.857 55.4 27.866ZM55.399 27.782C55.399 27.774 55.399 27.764 55.399 27.758C55.399 27.766 55.399 27.774 55.399 27.782ZM55.398 27.655C55.398 27.647 55.398 27.641 55.398 27.632C55.398 27.64 55.398 27.648 55.398 27.655ZM55.398 27.614C55.397 27.607 55.397 27.597 55.397 27.59C55.397 27.598 55.397 27.605 55.398 27.614ZM55.389 27.178C55.389 27.17 55.389 27.164 55.388 27.156C55.389 27.164 55.389 27.171 55.389 27.178ZM55.387 27.128C55.387 27.126 55.387 27.123 55.387 27.12C55.387 27.121 55.387 27.121 55.387 27.122C55.387 27.123 55.387 27.123 55.387 27.124C55.387 27.126 55.387 27.126 55.387 27.128Z" fill="#E2784B"/>
<path fill-rule="evenodd" clip-rule="evenodd" d="M42.131 51.569L42.274 51.478C42.421 51.386 42.711 51.202 42.887 51.089C43.065 50.975 43.129 50.932 43.173 50.903C43.025 51.003 42.874 51.101 42.725 51.197C42.722 51.2 42.718 51.202 42.715 51.204C42.708 51.208 42.701 51.213 42.694 51.217C42.688 51.221 42.681 51.225 42.676 51.229C42.672 51.232 42.668 51.234 42.664 51.236C42.654 51.242 42.646 51.247 42.639 51.253C42.636 51.254 42.634 51.256 42.631 51.258C42.62 51.264 42.61 51.27 42.601 51.277C42.6 51.277 42.599 51.278 42.598 51.279C42.587 51.286 42.576 51.293 42.565 51.299C42.564 51.3 42.564 51.3 42.563 51.301C42.517 51.33 42.472 51.358 42.425 51.387C42.418 51.391 42.411 51.396 42.405 51.4C42.4 51.403 42.396 51.405 42.392 51.408C42.383 51.414 42.374 51.419 42.365 51.425C42.363 51.426 42.362 51.427 42.36 51.428C42.35 51.434 42.34 51.44 42.331 51.446C42.329 51.447 42.329 51.447 42.327 51.448C42.306 51.462 42.284 51.475 42.263 51.488C42.23 51.508 42.197 51.529 42.164 51.549H42.162C42.152 51.556 42.142 51.562 42.131 51.569ZM43.18 50.899C43.194 50.889 43.207 50.879 43.219 50.85C43.24 50.801 43.262 50.701 43.297 50.466C43.355 50.073 43.448 49.302 43.73 48.705C44.011 48.108 44.48 47.686 45.112 47.288C45.746 46.89 46.542 46.515 47.082 46.117C47.62 45.718 47.9 45.297 47.947 44.922C47.995 44.547 47.807 44.219 47.831 43.797C47.854 43.375 48.089 42.86 48.486 42.438C48.884 42.017 49.447 41.689 50.263 41.092C51.079 40.495 52.152 39.629 52.788 38.935C53.425 38.243 53.627 37.722 53.701 37.101C53.773 36.48 53.719 35.758 53.433 35.208C53.147 34.66 52.632 34.285 52.046 33.886C51.46 33.488 50.805 33.066 50.476 32.293C50.355 32.007 50.279 31.674 50.225 31.327C53.262 22.312 51.291 11.944 41.139 4.51997C37.819 2.09197 35.127 1.46897 32.435 0.844971C32.441 0.845971 32.448 0.846977 32.454 0.847977C32.461 0.848977 32.467 0.848967 32.473 0.850967C32.482 0.852967 32.491 0.854972 32.501 0.855972C32.507 0.856972 32.511 0.857963 32.517 0.858963C32.528 0.860963 32.541 0.862975 32.552 0.864975C32.556 0.865975 32.561 0.865974 32.565 0.866974C32.574 0.868974 32.584 0.869964 32.592 0.871964C32.597 0.872964 32.602 0.873962 32.608 0.873962C32.616 0.875962 32.625 0.876967 32.632 0.878967C32.638 0.879967 32.643 0.880973 32.649 0.881973C32.657 0.882973 32.665 0.883971 32.672 0.885971C32.677 0.887971 32.684 0.887977 32.689 0.888977C32.697 0.889977 32.705 0.890975 32.712 0.892975C32.717 0.893975 32.724 0.894966 32.73 0.895966C32.737 0.896966 32.744 0.898963 32.752 0.899963C32.759 0.900963 32.764 0.901969 32.77 0.902969C32.778 0.903969 32.787 0.905967 32.792 0.906967C32.798 0.907967 32.805 0.908973 32.81 0.909973C32.817 0.911973 32.826 0.912971 32.834 0.913971C32.839 0.913971 32.845 0.91597 32.85 0.91597C32.857 0.91797 32.866 0.918975 32.874 0.920975C32.879 0.921975 32.884 0.922965 32.89 0.923965C32.898 0.924965 32.907 0.926963 32.915 0.927963C32.92 0.928963 32.925 0.929969 32.929 0.930969C32.94 0.932969 32.951 0.934966 32.963 0.936966C32.966 0.937966 32.967 0.937965 32.969 0.938965C32.983 0.940965 32.994 0.942969 33.009 0.945969C33.014 0.946969 33.017 0.947968 33.022 0.947968C33.03 0.949968 33.039 0.951972 33.048 0.952972C33.053 0.953972 33.06 0.95597 33.065 0.95697C33.072 0.95797 33.081 0.959968 33.088 0.960968C33.093 0.961968 33.1 0.962974 33.105 0.963974C33.113 0.965974 33.12 0.966964 33.128 0.968964C33.134 0.969964 33.141 0.97097 33.146 0.97197C33.153 0.97297 33.16 0.974967 33.167 0.975967C33.173 0.977967 33.18 0.978965 33.186 0.979965C33.192 0.980965 33.2 0.982963 33.206 0.983963C33.213 0.984963 33.22 0.986976 33.226 0.987976C33.233 0.988976 33.239 0.990974 33.246 0.991974C33.254 0.992974 33.259 0.993972 33.266 0.995972C33.273 0.996972 33.279 0.997969 33.286 0.999969C33.294 1.00097 33.3 1.00197 33.306 1.00397C33.312 1.00497 33.32 1.00597 33.326 1.00797C33.332 1.00897 33.34 1.00996 33.347 1.01196C33.353 1.01296 33.359 1.01397 33.365 1.01497C33.373 1.01697 33.38 1.01797 33.386 1.01997C33.393 1.02097 33.398 1.02197 33.405 1.02397C33.412 1.02497 33.419 1.02597 33.426 1.02797C33.432 1.02897 33.438 1.02998 33.444 1.03098C33.46 1.03398 33.473 1.03697 33.488 1.04097C33.494 1.04197 33.499 1.04198 33.503 1.04398C33.512 1.04498 33.518 1.04697 33.526 1.04797C33.532 1.04897 33.538 1.05097 33.545 1.05197C33.552 1.05297 33.559 1.05497 33.566 1.05597C33.572 1.05797 33.578 1.05897 33.583 1.05997C33.591 1.06197 33.598 1.06297 33.605 1.06497C33.611 1.06597 33.617 1.06696 33.624 1.06796C33.63 1.06996 33.638 1.07097 33.645 1.07297C33.651 1.07397 33.657 1.07497 33.663 1.07697C33.67 1.07797 33.678 1.07996 33.685 1.08096C33.691 1.08296 33.696 1.08398 33.702 1.08498C33.71 1.08698 33.718 1.08797 33.724 1.08997C33.729 1.09097 33.736 1.09197 33.741 1.09297C33.75 1.09497 33.756 1.09698 33.763 1.09798C33.769 1.09998 33.774 1.10097 33.78 1.10197C33.787 1.10397 33.795 1.10496 33.802 1.10696C33.807 1.10796 33.813 1.10897 33.818 1.10997C33.826 1.11197 33.835 1.11397 33.843 1.11597C33.847 1.11597 33.852 1.11697 33.856 1.11897C33.865 1.11997 33.873 1.12196 33.881 1.12396C33.883 1.12496 33.886 1.12498 33.889 1.12598C33.907 1.12998 33.928 1.13498 33.948 1.13898C33.951 1.13998 33.954 1.13998 33.957 1.14098C33.966 1.14298 33.973 1.14497 33.98 1.14597C33.985 1.14697 33.991 1.14896 33.996 1.14996C34.003 1.15196 34.012 1.15297 34.018 1.15497C34.024 1.15597 34.029 1.15797 34.035 1.15897C34.042 1.16097 34.051 1.16197 34.057 1.16397C34.063 1.16497 34.068 1.16597 34.074 1.16797C34.082 1.16997 34.09 1.17097 34.097 1.17297C34.102 1.17397 34.108 1.17597 34.113 1.17697C34.12 1.17797 34.128 1.17998 34.136 1.18198C34.141 1.18198 34.147 1.18397 34.152 1.18597C34.16 1.18797 34.167 1.18896 34.174 1.19096C34.181 1.19196 34.186 1.19398 34.192 1.19498C34.199 1.19698 34.206 1.19797 34.214 1.19997C34.22 1.20197 34.224 1.20296 34.23 1.20396C34.237 1.20596 34.246 1.20797 34.253 1.20897C34.257 1.21097 34.263 1.21197 34.269 1.21297C34.276 1.21497 34.283 1.21696 34.29 1.21896C34.295 1.21996 34.302 1.22097 34.307 1.22197C34.315 1.22397 34.323 1.22597 34.329 1.22797C34.334 1.22897 34.336 1.22897 34.341 1.22997C34.371 1.23797 34.402 1.24498 34.433 1.25298C34.437 1.25398 34.441 1.25497 34.444 1.25497C34.453 1.25797 34.461 1.25996 34.47 1.26196C34.473 1.26296 34.479 1.26397 34.482 1.26497C34.491 1.26697 34.498 1.26897 34.507 1.27097C34.512 1.27197 34.516 1.27296 34.521 1.27496C34.529 1.27596 34.538 1.27897 34.545 1.27997C34.549 1.28197 34.554 1.28297 34.559 1.28397C34.567 1.28597 34.575 1.28796 34.582 1.28996C34.589 1.29096 34.593 1.29198 34.599 1.29398C34.606 1.29598 34.614 1.29797 34.622 1.29997C34.626 1.30097 34.633 1.30196 34.637 1.30296C34.646 1.30496 34.653 1.30698 34.661 1.30898C34.665 1.31098 34.671 1.31197 34.675 1.31297C34.683 1.31497 34.692 1.31697 34.7 1.31897C34.703 1.31997 34.708 1.32098 34.711 1.32198C34.72 1.32398 34.729 1.32696 34.738 1.32896C34.741 1.32996 34.745 1.33097 34.748 1.33197C34.759 1.33397 34.768 1.33697 34.776 1.33897C34.777 1.33897 34.779 1.33997 34.78 1.33997C34.826 1.35197 34.872 1.36398 34.918 1.37598C34.921 1.37698 34.923 1.37698 34.927 1.37798C34.935 1.37998 34.945 1.38296 34.953 1.38496C34.957 1.38696 34.961 1.38697 34.965 1.38797C34.975 1.39097 34.983 1.39297 34.991 1.39497C34.995 1.39697 34.998 1.39696 35.002 1.39796C35.012 1.40096 35.02 1.40297 35.028 1.40497C35.032 1.40697 35.036 1.40797 35.04 1.40897C35.05 1.41097 35.058 1.41297 35.067 1.41597C35.07 1.41697 35.074 1.41798 35.078 1.41898C35.088 1.42098 35.096 1.42396 35.105 1.42596C35.108 1.42696 35.112 1.42897 35.115 1.42897C35.125 1.43097 35.135 1.43397 35.144 1.43697C35.146 1.43697 35.148 1.43796 35.151 1.43896C35.161 1.44096 35.171 1.44398 35.181 1.44698C35.184 1.44798 35.185 1.44797 35.188 1.44897C35.198 1.45197 35.208 1.45397 35.219 1.45697C35.22 1.45797 35.221 1.45796 35.222 1.45796C35.27 1.47096 35.317 1.48497 35.365 1.49797L35.366 1.49896C35.376 1.50096 35.388 1.50397 35.397 1.50697C35.4 1.50797 35.402 1.50897 35.405 1.50897C35.415 1.51197 35.425 1.51497 35.434 1.51797C35.437 1.51797 35.439 1.51897 35.442 1.51997C35.452 1.52297 35.461 1.52497 35.471 1.52797C35.474 1.52897 35.477 1.52998 35.48 1.53098C35.489 1.53298 35.499 1.53597 35.508 1.53897C35.512 1.53997 35.514 1.54098 35.517 1.54198C35.526 1.54398 35.536 1.54697 35.545 1.54997C35.549 1.55097 35.552 1.55197 35.555 1.55197C35.565 1.55497 35.573 1.55797 35.582 1.56097C35.585 1.56197 35.587 1.56197 35.591 1.56297C35.602 1.56597 35.611 1.56898 35.62 1.57198C35.622 1.57198 35.625 1.57297 35.627 1.57397C35.638 1.57697 35.648 1.57996 35.658 1.58296C35.659 1.58296 35.659 1.58296 35.66 1.58296C35.731 1.60396 35.803 1.62596 35.874 1.64796C35.877 1.64796 35.877 1.64797 35.879 1.64897C35.889 1.65197 35.899 1.65497 35.909 1.65797C35.911 1.65897 35.913 1.65897 35.916 1.65997C35.927 1.66297 35.937 1.66598 35.946 1.66898C35.948 1.66998 35.95 1.67097 35.953 1.67097C35.964 1.67497 35.973 1.67797 35.983 1.68097C35.986 1.68297 35.986 1.68297 35.989 1.68297C36 1.68597 36.011 1.68897 36.021 1.69197C36.022 1.69297 36.024 1.69297 36.024 1.69397C36.036 1.69697 36.045 1.69996 36.058 1.70396C36.058 1.70396 36.06 1.70397 36.06 1.70497C36.144 1.73097 36.228 1.75697 36.312 1.78397C36.323 1.78797 36.334 1.79097 36.345 1.79497C36.347 1.79497 36.348 1.79597 36.35 1.79597C36.36 1.79997 36.371 1.80298 36.382 1.80698C36.382 1.80698 36.384 1.80698 36.386 1.80698C36.396 1.81098 36.407 1.81396 36.418 1.81796C36.42 1.81796 36.42 1.81897 36.422 1.81897C36.434 1.82297 36.443 1.82597 36.454 1.82997C36.455 1.82997 36.456 1.82996 36.457 1.83096C36.469 1.83396 36.48 1.83796 36.491 1.84196C36.491 1.84196 36.492 1.84196 36.493 1.84196C36.589 1.87396 36.683 1.90597 36.778 1.93797C36.779 1.93797 36.778 1.93796 36.779 1.93896C36.79 1.94196 36.802 1.94597 36.813 1.94997L36.816 1.95097C36.826 1.95497 36.838 1.95897 36.849 1.96297C36.849 1.96297 36.85 1.96297 36.852 1.96397C36.863 1.96697 36.875 1.97098 36.886 1.97498L36.887 1.97597C45.676 5.01997 52.444 12.391 54.645 21.541V21.542C54.648 21.554 54.651 21.566 54.654 21.578C54.684 21.703 54.714 21.828 54.741 21.951C54.744 21.963 54.746 21.976 54.749 21.988C54.749 21.987 54.749 21.989 54.749 21.988C54.753 22 54.756 22.013 54.757 22.025C54.757 22.026 54.759 22.027 54.759 22.028C54.762 22.04 54.764 22.053 54.767 22.063V22.065C54.77 22.077 54.772 22.088 54.775 22.101C54.775 22.102 54.775 22.102 54.775 22.103C54.797 22.201 54.818 22.301 54.839 22.4C54.839 22.402 54.839 22.402 54.839 22.403C54.842 22.415 54.844 22.426 54.846 22.438C54.847 22.439 54.847 22.441 54.847 22.441C54.849 22.452 54.852 22.464 54.854 22.475C54.854 22.477 54.855 22.478 54.855 22.48C54.857 22.491 54.86 22.502 54.862 22.513C54.862 22.515 54.862 22.517 54.863 22.518C54.865 22.529 54.867 22.54 54.869 22.551C54.87 22.553 54.87 22.555 54.87 22.556C54.891 22.655 54.909 22.753 54.929 22.852C54.929 22.854 54.93 22.856 54.93 22.857C54.932 22.868 54.934 22.879 54.936 22.889C54.937 22.892 54.937 22.894 54.937 22.896C54.939 22.907 54.941 22.916 54.943 22.926C54.944 22.93 54.944 22.933 54.945 22.936C54.947 22.946 54.948 22.955 54.95 22.964C54.951 22.968 54.952 22.972 54.952 22.976C54.954 22.984 54.956 22.994 54.957 23.003C54.958 23.007 54.959 23.012 54.959 23.015C54.962 23.025 54.963 23.033 54.964 23.043C54.966 23.046 54.966 23.049 54.966 23.053C54.969 23.062 54.971 23.073 54.973 23.082C54.973 23.085 54.974 23.088 54.974 23.09C54.976 23.101 54.978 23.111 54.98 23.121C54.98 23.123 54.98 23.123 54.98 23.125C54.989 23.174 54.998 23.223 55.006 23.272L55.007 23.274C55.008 23.285 55.01 23.296 55.012 23.306C55.012 23.309 55.013 23.311 55.013 23.314C55.015 23.324 55.017 23.335 55.019 23.344C55.019 23.348 55.019 23.35 55.02 23.353C55.022 23.363 55.023 23.373 55.025 23.383C55.026 23.387 55.026 23.389 55.027 23.392C55.028 23.402 55.03 23.411 55.032 23.422C55.032 23.425 55.033 23.428 55.033 23.432C55.035 23.441 55.037 23.451 55.038 23.46C55.039 23.464 55.039 23.468 55.04 23.471C55.041 23.481 55.043 23.49 55.046 23.5C55.046 23.503 55.046 23.506 55.046 23.51C55.048 23.519 55.05 23.529 55.052 23.539C55.052 23.542 55.052 23.545 55.054 23.548C55.055 23.559 55.057 23.569 55.059 23.579C55.059 23.58 55.059 23.582 55.059 23.583C55.067 23.632 55.075 23.682 55.082 23.731C55.082 23.732 55.082 23.732 55.082 23.733C55.084 23.743 55.085 23.753 55.088 23.764C55.088 23.766 55.088 23.77 55.088 23.773C55.09 23.783 55.092 23.791 55.092 23.801C55.094 23.804 55.095 23.809 55.095 23.813C55.097 23.822 55.098 23.83 55.099 23.84C55.1 23.844 55.101 23.848 55.101 23.853C55.103 23.861 55.104 23.87 55.105 23.879C55.106 23.883 55.107 23.888 55.107 23.892C55.109 23.901 55.11 23.91 55.111 23.919C55.112 23.923 55.113 23.927 55.113 23.932C55.114 23.941 55.116 23.95 55.117 23.959C55.118 23.963 55.118 23.966 55.119 23.97C55.12 23.98 55.122 23.989 55.123 23.998C55.124 24.003 55.124 24.005 55.125 24.009C55.126 24.019 55.127 24.029 55.129 24.038C55.129 24.041 55.13 24.044 55.13 24.047C55.133 24.057 55.134 24.067 55.135 24.078C55.136 24.079 55.136 24.081 55.136 24.082C55.141 24.117 55.146 24.153 55.151 24.188C55.151 24.19 55.152 24.193 55.152 24.194C55.153 24.203 55.154 24.212 55.155 24.221C55.156 24.226 55.157 24.23 55.157 24.235C55.158 24.243 55.16 24.252 55.161 24.26C55.162 24.265 55.162 24.27 55.163 24.275C55.164 24.283 55.165 24.291 55.166 24.299C55.167 24.304 55.168 24.31 55.168 24.315C55.169 24.323 55.17 24.331 55.171 24.339C55.173 24.344 55.173 24.351 55.175 24.355C55.175 24.363 55.177 24.371 55.177 24.379C55.177 24.384 55.179 24.39 55.179 24.395C55.181 24.403 55.182 24.412 55.183 24.419C55.184 24.424 55.184 24.431 55.185 24.436C55.186 24.444 55.187 24.451 55.188 24.459C55.189 24.465 55.19 24.47 55.19 24.476C55.191 24.484 55.192 24.491 55.193 24.499C55.194 24.505 55.195 24.509 55.195 24.515C55.196 24.523 55.197 24.532 55.198 24.54C55.199 24.543 55.199 24.548 55.2 24.552C55.204 24.585 55.208 24.617 55.212 24.65C55.212 24.653 55.213 24.655 55.213 24.658C55.214 24.666 55.216 24.673 55.216 24.68C55.216 24.686 55.218 24.693 55.218 24.699C55.22 24.707 55.22 24.714 55.222 24.722C55.222 24.728 55.223 24.733 55.224 24.738C55.225 24.746 55.226 24.755 55.226 24.763C55.227 24.769 55.228 24.773 55.228 24.779C55.229 24.787 55.23 24.795 55.231 24.803C55.232 24.808 55.232 24.814 55.233 24.819C55.234 24.827 55.235 24.835 55.236 24.842C55.236 24.849 55.237 24.854 55.238 24.861C55.239 24.868 55.239 24.876 55.24 24.883C55.241 24.888 55.242 24.895 55.242 24.9C55.243 24.908 55.244 24.915 55.245 24.923C55.246 24.93 55.246 24.934 55.247 24.941C55.248 24.948 55.248 24.956 55.249 24.964C55.25 24.969 55.251 24.975 55.251 24.98C55.252 24.989 55.253 24.996 55.254 25.004C55.254 25.009 55.255 25.016 55.256 25.021C55.256 25.029 55.257 25.037 55.258 25.045C55.259 25.049 55.259 25.052 55.259 25.057C55.262 25.075 55.265 25.096 55.266 25.115C55.267 25.117 55.267 25.121 55.267 25.124C55.268 25.131 55.269 25.139 55.27 25.146C55.27 25.152 55.271 25.158 55.272 25.164C55.272 25.172 55.273 25.18 55.274 25.187C55.275 25.193 55.275 25.198 55.276 25.205C55.277 25.213 55.277 25.22 55.278 25.228C55.279 25.234 55.279 25.239 55.28 25.245C55.281 25.253 55.281 25.261 55.282 25.269C55.283 25.274 55.283 25.282 55.284 25.286C55.285 25.293 55.285 25.301 55.286 25.308C55.287 25.314 55.287 25.321 55.288 25.327C55.288 25.334 55.289 25.342 55.29 25.349C55.29 25.355 55.291 25.361 55.292 25.368C55.292 25.375 55.293 25.382 55.294 25.389C55.294 25.396 55.295 25.402 55.295 25.408C55.296 25.416 55.297 25.423 55.298 25.429C55.298 25.436 55.299 25.443 55.299 25.449C55.301 25.456 55.301 25.463 55.301 25.469C55.303 25.476 55.303 25.484 55.303 25.49C55.305 25.497 55.305 25.503 55.305 25.511C55.307 25.517 55.307 25.525 55.307 25.532C55.307 25.538 55.309 25.544 55.31 25.55C55.31 25.559 55.311 25.566 55.312 25.575C55.313 25.587 55.314 25.598 55.315 25.61C55.315 25.617 55.316 25.624 55.317 25.631C55.317 25.637 55.318 25.645 55.318 25.651C55.319 25.658 55.319 25.664 55.32 25.671C55.321 25.679 55.321 25.684 55.322 25.692C55.322 25.699 55.323 25.706 55.323 25.713C55.324 25.719 55.324 25.725 55.325 25.732C55.326 25.739 55.326 25.747 55.327 25.754C55.327 25.76 55.328 25.767 55.328 25.773C55.329 25.781 55.329 25.787 55.33 25.795C55.331 25.802 55.331 25.808 55.332 25.814C55.332 25.821 55.333 25.829 55.333 25.836C55.334 25.843 55.334 25.849 55.335 25.856C55.335 25.863 55.336 25.87 55.336 25.877C55.337 25.884 55.337 25.89 55.338 25.897C55.338 25.903 55.339 25.911 55.34 25.917C55.34 25.924 55.341 25.932 55.341 25.938C55.342 25.945 55.342 25.952 55.344 25.959C55.344 25.966 55.344 25.972 55.344 25.979C55.346 25.987 55.346 25.994 55.346 26.002C55.346 26.008 55.348 26.013 55.348 26.02C55.348 26.033 55.35 26.047 55.351 26.06C55.351 26.063 55.351 26.068 55.352 26.071C55.352 26.081 55.353 26.092 55.354 26.101C55.354 26.106 55.354 26.111 55.355 26.116C55.355 26.125 55.356 26.134 55.356 26.143C55.357 26.148 55.357 26.154 55.358 26.159C55.358 26.167 55.359 26.176 55.359 26.184C55.36 26.19 55.36 26.195 55.36 26.202C55.361 26.209 55.361 26.218 55.362 26.225C55.362 26.232 55.363 26.237 55.363 26.243C55.363 26.251 55.364 26.258 55.364 26.266C55.365 26.273 55.365 26.279 55.366 26.285C55.366 26.293 55.367 26.3 55.367 26.307C55.367 26.313 55.368 26.321 55.368 26.326C55.369 26.334 55.369 26.341 55.369 26.349C55.37 26.355 55.37 26.362 55.371 26.367C55.371 26.376 55.371 26.383 55.372 26.392C55.372 26.398 55.373 26.402 55.373 26.408C55.373 26.416 55.374 26.426 55.374 26.433C55.375 26.438 55.375 26.444 55.375 26.45C55.376 26.459 55.376 26.467 55.377 26.476C55.377 26.481 55.377 26.487 55.378 26.491C55.378 26.502 55.379 26.513 55.379 26.524C55.38 26.53 55.38 26.534 55.38 26.54C55.381 26.551 55.381 26.562 55.382 26.573C55.382 26.58 55.383 26.587 55.383 26.594C55.383 26.6 55.384 26.607 55.384 26.613C55.384 26.62 55.385 26.628 55.385 26.635C55.385 26.641 55.386 26.648 55.386 26.654C55.386 26.661 55.387 26.669 55.387 26.675C55.387 26.682 55.389 26.69 55.389 26.696C55.389 26.702 55.39 26.71 55.39 26.715C55.39 26.723 55.39 26.73 55.391 26.739C55.391 26.744 55.391 26.751 55.392 26.757C55.392 26.764 55.392 26.772 55.393 26.779C55.393 26.786 55.393 26.792 55.393 26.799C55.394 26.807 55.394 26.813 55.394 26.82C55.395 26.827 55.395 26.833 55.395 26.839C55.396 26.846 55.396 26.854 55.396 26.861C55.396 26.868 55.397 26.874 55.397 26.881C55.397 26.889 55.398 26.896 55.398 26.904C55.398 26.91 55.398 26.916 55.399 26.922C55.399 26.929 55.399 26.937 55.399 26.944C55.4 26.951 55.4 26.957 55.4 26.964C55.4 26.971 55.401 26.977 55.401 26.985C55.401 26.995 55.402 27.006 55.402 27.016C55.402 27.026 55.403 27.036 55.403 27.046C55.403 27.052 55.403 27.056 55.404 27.062C55.404 27.07 55.404 27.079 55.404 27.087C55.405 27.094 55.405 27.099 55.405 27.106C55.405 27.108 55.405 27.11 55.405 27.112C55.405 27.115 55.405 27.118 55.405 27.12C55.406 27.123 55.406 27.126 55.406 27.129C55.406 27.135 55.406 27.142 55.406 27.148C55.407 27.156 55.407 27.162 55.407 27.17C55.407 27.176 55.407 27.183 55.408 27.189C55.408 27.196 55.408 27.205 55.408 27.212C55.408 27.219 55.409 27.225 55.409 27.232C55.409 27.238 55.409 27.246 55.409 27.253C55.41 27.26 55.41 27.267 55.41 27.274C55.41 27.28 55.41 27.288 55.41 27.294C55.411 27.302 55.411 27.308 55.411 27.316C55.411 27.323 55.411 27.33 55.411 27.337C55.412 27.343 55.412 27.35 55.412 27.356C55.412 27.364 55.412 27.372 55.412 27.38C55.413 27.386 55.413 27.392 55.413 27.398C55.413 27.406 55.413 27.414 55.413 27.423C55.413 27.428 55.414 27.434 55.414 27.439C55.414 27.448 55.414 27.457 55.414 27.465C55.414 27.471 55.414 27.476 55.415 27.482C55.415 27.495 55.415 27.509 55.415 27.523C55.415 27.526 55.415 27.528 55.415 27.531C55.416 27.542 55.416 27.553 55.416 27.564C55.416 27.57 55.416 27.576 55.416 27.582C55.416 27.589 55.416 27.599 55.417 27.606C55.417 27.612 55.417 27.619 55.417 27.624C55.417 27.633 55.417 27.639 55.417 27.647C55.417 27.654 55.417 27.66 55.417 27.666C55.417 27.674 55.418 27.682 55.418 27.69C55.418 27.696 55.418 27.702 55.418 27.708C55.418 27.716 55.418 27.723 55.418 27.731C55.418 27.737 55.418 27.743 55.418 27.75C55.418 27.757 55.418 27.766 55.418 27.774C55.418 27.778 55.418 27.786 55.419 27.792C55.419 27.8 55.419 27.807 55.419 27.815C55.419 27.821 55.419 27.828 55.419 27.834C55.419 27.841 55.419 27.851 55.419 27.858C55.419 27.864 55.419 27.87 55.419 27.876C55.419 27.884 55.419 27.892 55.419 27.9C55.419 27.906 55.419 27.912 55.419 27.918C55.419 27.927 55.419 27.935 55.419 27.944C55.419 27.949 55.419 27.954 55.419 27.959C55.419 27.973 55.419 27.987 55.419 28.001C55.419 28.018 55.419 28.035 55.419 28.052C55.419 28.058 55.419 28.062 55.419 28.067C55.419 28.079 55.419 28.092 55.419 28.104C55.419 28.11 55.419 28.116 55.419 28.122C55.419 28.133 55.419 28.145 55.419 28.157C55.419 28.163 55.419 28.168 55.419 28.173C55.419 28.19 55.419 28.207 55.418 28.224C55.418 28.226 55.418 28.228 55.418 28.23C55.418 28.245 55.418 28.26 55.418 28.275C55.418 28.281 55.418 28.286 55.418 28.292C55.418 28.303 55.418 28.315 55.417 28.326C55.417 28.333 55.417 28.338 55.417 28.345C55.417 28.356 55.417 28.369 55.417 28.38C55.417 28.386 55.417 28.391 55.417 28.396C55.416 28.413 55.416 28.43 55.416 28.446C55.416 28.449 55.416 28.452 55.416 28.455C55.415 28.469 55.415 28.483 55.415 28.497C55.415 28.503 55.415 28.509 55.415 28.514C55.414 28.526 55.414 28.537 55.414 28.549C55.414 28.555 55.414 28.561 55.414 28.568C55.413 28.579 55.413 28.591 55.413 28.603C55.413 28.607 55.413 28.614 55.413 28.619C55.412 28.635 55.412 28.652 55.411 28.669C55.411 28.672 55.411 28.674 55.411 28.678C55.411 28.692 55.41 28.706 55.41 28.72C55.41 28.726 55.41 28.731 55.41 28.736C55.409 28.748 55.409 28.76 55.409 28.771C55.409 28.778 55.408 28.783 55.408 28.789C55.408 28.801 55.408 28.814 55.407 28.825C55.407 28.831 55.407 28.835 55.407 28.841C55.407 28.847 55.406 28.854 55.406 28.86C55.406 28.871 55.406 28.88 55.405 28.89C55.405 28.894 55.405 28.899 55.405 28.903C55.404 28.915 55.404 28.928 55.404 28.941C55.403 28.947 55.403 28.953 55.403 28.959C55.403 28.971 55.402 28.981 55.402 28.993C55.402 28.998 55.401 29.006 55.401 29.011C55.401 29.024 55.4 29.036 55.4 29.049C55.4 29.053 55.399 29.058 55.399 29.061C55.399 29.078 55.398 29.095 55.397 29.112C55.397 29.115 55.397 29.12 55.397 29.124C55.396 29.137 55.396 29.151 55.395 29.163C55.395 29.169 55.395 29.174 55.395 29.18C55.394 29.191 55.394 29.203 55.393 29.215C55.393 29.22 55.393 29.226 55.392 29.232C55.392 29.245 55.391 29.258 55.391 29.271C55.39 29.275 55.39 29.279 55.39 29.283C55.389 29.3 55.387 29.316 55.387 29.333C55.386 29.337 55.386 29.341 55.386 29.344C55.385 29.357 55.385 29.371 55.384 29.384C55.384 29.389 55.384 29.395 55.383 29.399C55.383 29.412 55.382 29.424 55.382 29.437C55.381 29.441 55.381 29.448 55.381 29.452C55.38 29.465 55.379 29.48 55.379 29.493C55.378 29.496 55.378 29.499 55.378 29.503C55.377 29.52 55.376 29.536 55.375 29.554C55.375 29.557 55.375 29.562 55.375 29.565C55.374 29.579 55.373 29.591 55.372 29.605C55.372 29.61 55.372 29.616 55.371 29.621C55.371 29.633 55.37 29.645 55.369 29.656C55.369 29.662 55.369 29.667 55.368 29.673C55.368 29.687 55.367 29.7 55.366 29.715C55.366 29.717 55.366 29.721 55.365 29.724C55.364 29.741 55.363 29.758 55.362 29.775C55.362 29.779 55.362 29.783 55.361 29.788C55.361 29.8 55.36 29.813 55.359 29.825C55.359 29.831 55.358 29.836 55.358 29.842C55.357 29.854 55.356 29.866 55.355 29.878C55.355 29.883 55.355 29.888 55.354 29.893C55.353 29.908 55.352 29.922 55.351 29.937C55.351 29.939 55.351 29.942 55.351 29.944C55.35 29.96 55.348 29.978 55.346 29.994C55.346 29.998 55.346 30.003 55.346 30.007C55.346 30.02 55.344 30.032 55.344 30.045C55.342 30.05 55.342 30.054 55.342 30.06C55.341 30.072 55.34 30.085 55.339 30.097C55.338 30.102 55.338 30.106 55.338 30.111C55.336 30.127 55.335 30.143 55.334 30.159C55.334 30.16 55.334 30.16 55.334 30.161C55.332 30.178 55.331 30.195 55.33 30.212C55.329 30.217 55.329 30.221 55.329 30.226C55.328 30.238 55.327 30.251 55.326 30.263C55.325 30.269 55.325 30.274 55.324 30.279C55.323 30.292 55.322 30.302 55.321 30.316C55.321 30.32 55.321 30.326 55.32 30.33C55.317 30.364 55.314 30.398 55.312 30.432C55.311 30.435 55.311 30.439 55.31 30.443C55.309 30.456 55.307 30.47 55.307 30.483C55.307 30.487 55.305 30.493 55.305 30.497C55.305 30.51 55.303 30.522 55.301 30.535C55.301 30.539 55.301 30.544 55.301 30.548C55.299 30.565 55.297 30.582 55.295 30.598C55.295 30.597 55.295 30.599 55.295 30.598C55.294 30.615 55.292 30.633 55.291 30.65C55.29 30.654 55.29 30.658 55.289 30.662C55.288 30.675 55.287 30.688 55.286 30.701C55.285 30.705 55.285 30.71 55.284 30.715C55.283 30.728 55.282 30.741 55.28 30.754C55.28 30.758 55.28 30.762 55.279 30.766C55.276 30.8 55.272 30.833 55.269 30.867C55.269 30.871 55.268 30.876 55.268 30.879C55.266 30.892 55.265 30.906 55.264 30.919C55.263 30.923 55.263 30.928 55.262 30.932C55.261 30.945 55.258 30.959 55.257 30.972C55.257 30.976 55.256 30.98 55.256 30.983C55.252 31.017 55.248 31.051 55.245 31.084C55.244 31.089 55.244 31.093 55.243 31.098C55.242 31.111 55.24 31.122 55.239 31.135C55.238 31.14 55.238 31.145 55.237 31.15C55.236 31.163 55.234 31.176 55.233 31.189C55.232 31.193 55.232 31.196 55.231 31.2C55.228 31.234 55.224 31.268 55.22 31.301C55.218 31.305 55.218 31.31 55.218 31.316C55.216 31.328 55.214 31.34 55.212 31.353C55.212 31.357 55.211 31.363 55.211 31.368C55.209 31.381 55.208 31.393 55.206 31.406C55.206 31.41 55.205 31.414 55.205 31.418C55.202 31.435 55.2 31.452 55.198 31.469C55.198 31.471 55.198 31.471 55.198 31.471C55.196 31.486 55.194 31.502 55.192 31.518C55.191 31.523 55.191 31.528 55.19 31.532C55.189 31.544 55.187 31.557 55.185 31.569C55.185 31.573 55.184 31.579 55.184 31.584C55.182 31.597 55.179 31.61 55.177 31.623C55.177 31.626 55.177 31.63 55.177 31.634C55.175 31.651 55.171 31.668 55.169 31.685C55.169 31.686 55.169 31.686 55.169 31.686C55.167 31.702 55.165 31.718 55.163 31.734C55.162 31.739 55.161 31.742 55.161 31.748C55.159 31.761 55.157 31.773 55.156 31.786C55.155 31.789 55.154 31.795 55.154 31.798C55.152 31.813 55.15 31.827 55.148 31.841C55.147 31.843 55.147 31.846 55.147 31.848C55.144 31.866 55.142 31.882 55.14 31.9C55.139 31.902 55.139 31.902 55.139 31.903C55.137 31.919 55.135 31.934 55.133 31.949C55.132 31.954 55.13 31.958 55.13 31.963C55.128 31.975 55.126 31.988 55.124 32.001C55.124 32.005 55.123 32.009 55.122 32.013C55.12 32.028 55.118 32.041 55.116 32.057C55.116 32.059 55.115 32.063 55.115 32.064C55.112 32.082 55.11 32.099 55.107 32.116C55.107 32.117 55.107 32.118 55.107 32.119C55.104 32.134 55.102 32.15 55.1 32.166C55.099 32.169 55.099 32.173 55.098 32.177C55.096 32.191 55.094 32.204 55.092 32.218C55.09 32.222 55.09 32.225 55.089 32.228C55.088 32.243 55.084 32.259 55.082 32.275C55.082 32.275 55.082 32.277 55.082 32.278C55.079 32.295 55.076 32.313 55.073 32.33C55.073 32.331 55.073 32.334 55.073 32.335C55.07 32.35 55.068 32.364 55.065 32.379C55.065 32.384 55.064 32.387 55.064 32.392C55.061 32.405 55.059 32.418 55.057 32.431C55.057 32.435 55.056 32.438 55.055 32.442C55.053 32.458 55.049 32.473 55.047 32.489V32.492C55.043 32.51 55.041 32.526 55.038 32.544C55.038 32.545 55.037 32.546 55.037 32.547C55.035 32.562 55.032 32.578 55.03 32.593C55.029 32.597 55.028 32.601 55.028 32.605C55.025 32.618 55.023 32.631 55.021 32.645C55.02 32.648 55.02 32.652 55.019 32.656C55.013 32.689 55.007 32.723 55 32.758C55 32.76 55 32.76 55 32.762C54.997 32.777 54.994 32.793 54.992 32.808C54.991 32.811 54.991 32.814 54.99 32.818C54.987 32.832 54.985 32.847 54.982 32.861C54.982 32.864 54.982 32.865 54.981 32.868C54.975 32.902 54.969 32.937 54.962 32.971C54.961 32.972 54.961 32.973 54.961 32.974C54.958 32.989 54.955 33.005 54.953 33.02C54.952 33.024 54.951 33.027 54.951 33.03C54.948 33.045 54.945 33.059 54.943 33.073C54.942 33.076 54.942 33.077 54.941 33.081C54.935 33.114 54.929 33.149 54.921 33.183C54.921 33.184 54.921 33.186 54.921 33.187C54.917 33.202 54.915 33.217 54.912 33.232C54.911 33.236 54.91 33.239 54.91 33.243C54.907 33.257 54.904 33.271 54.902 33.285C54.901 33.287 54.9 33.291 54.9 33.292C54.893 33.327 54.887 33.361 54.88 33.395C54.88 33.397 54.88 33.396 54.879 33.398C54.876 33.414 54.872 33.429 54.869 33.444C54.869 33.447 54.868 33.45 54.867 33.453C54.864 33.468 54.861 33.484 54.858 33.499C54.858 33.499 54.858 33.502 54.857 33.503C54.85 33.537 54.843 33.572 54.836 33.606C54.836 33.607 54.836 33.608 54.836 33.609C54.831 33.625 54.828 33.64 54.825 33.655C54.824 33.659 54.824 33.66 54.823 33.664C54.82 33.679 54.817 33.695 54.813 33.71C54.813 33.711 54.813 33.712 54.813 33.713C54.806 33.747 54.798 33.782 54.791 33.816C54.791 33.817 54.789 33.82 54.789 33.82C54.786 33.836 54.782 33.85 54.779 33.866C54.779 33.868 54.778 33.871 54.778 33.873C54.774 33.889 54.771 33.905 54.767 33.921C54.767 33.922 54.767 33.922 54.767 33.923C54.759 33.957 54.752 33.991 54.744 34.025C54.744 34.027 54.743 34.029 54.743 34.031C54.74 34.046 54.736 34.06 54.733 34.075C54.732 34.078 54.732 34.081 54.731 34.084C54.727 34.099 54.724 34.115 54.72 34.13C54.72 34.131 54.72 34.131 54.72 34.132C54.712 34.167 54.703 34.201 54.696 34.235C54.696 34.237 54.696 34.237 54.696 34.239C54.692 34.254 54.688 34.27 54.685 34.285C54.684 34.287 54.684 34.289 54.683 34.292C54.679 34.308 54.676 34.324 54.672 34.341C54.663 34.375 54.655 34.409 54.647 34.443C54.647 34.444 54.647 34.447 54.646 34.448C54.643 34.463 54.639 34.478 54.635 34.493C54.635 34.495 54.634 34.498 54.634 34.5C54.621 34.551 54.609 34.601 54.597 34.652C54.596 34.652 54.596 34.655 54.596 34.656C54.592 34.671 54.588 34.687 54.584 34.702C54.584 34.704 54.583 34.706 54.583 34.707C54.569 34.758 54.557 34.809 54.544 34.859C54.544 34.861 54.544 34.861 54.542 34.863C54.538 34.878 54.534 34.894 54.53 34.909C54.53 34.911 54.53 34.913 54.529 34.914C54.516 34.965 54.504 35.015 54.49 35.066C54.489 35.067 54.489 35.069 54.489 35.069C54.484 35.086 54.48 35.101 54.476 35.117C54.476 35.118 54.476 35.119 54.475 35.12C54.462 35.171 54.448 35.222 54.434 35.272C54.434 35.273 54.434 35.274 54.433 35.275C54.429 35.291 54.425 35.307 54.42 35.323C54.42 35.324 54.42 35.325 54.418 35.326C54.404 35.377 54.391 35.428 54.376 35.479C54.356 35.548 54.338 35.615 54.317 35.684C54.312 35.702 54.307 35.718 54.302 35.735C52.472 42.006 48.477 47.348 43.18 50.899Z" fill="#C4633E"/>
<path fill-rule="evenodd" clip-rule="evenodd" d="M27.859 55.55C27.846 55.55 27.834 55.55 27.819 55.55C27.815 55.55 27.81 55.55 27.806 55.55C27.797 55.55 27.789 55.55 27.779 55.55C27.774 55.55 27.769 55.55 27.764 55.55C27.756 55.55 27.747 55.55 27.739 55.55C27.733 55.55 27.729 55.55 27.724 55.55C27.716 55.55 27.706 55.55 27.698 55.55C27.692 55.55 27.688 55.55 27.683 55.549C27.673 55.549 27.663 55.549 27.653 55.549C27.65 55.549 27.646 55.549 27.643 55.549C27.63 55.549 27.618 55.549 27.603 55.549C27.601 55.549 27.597 55.549 27.595 55.549C27.584 55.549 27.573 55.549 27.563 55.548C27.559 55.548 27.554 55.548 27.55 55.548C27.54 55.548 27.531 55.548 27.523 55.548C27.518 55.548 27.513 55.548 27.508 55.548C27.498 55.548 27.49 55.548 27.482 55.548C27.478 55.547 27.473 55.547 27.468 55.547C27.458 55.547 27.449 55.547 27.44 55.547C27.436 55.547 27.432 55.547 27.428 55.547C27.415 55.547 27.402 55.546 27.389 55.546H27.388C27.375 55.546 27.361 55.546 27.348 55.545C27.344 55.545 27.34 55.545 27.336 55.545C27.327 55.545 27.316 55.545 27.308 55.545C27.303 55.545 27.299 55.544 27.294 55.544C27.284 55.544 27.276 55.544 27.267 55.544C27.263 55.544 27.257 55.544 27.253 55.543C27.244 55.543 27.234 55.543 27.227 55.543C27.223 55.543 27.217 55.543 27.212 55.543C27.202 55.542 27.194 55.542 27.186 55.542C27.181 55.542 27.177 55.542 27.172 55.542C27.159 55.541 27.146 55.541 27.133 55.541C27.131 55.541 27.129 55.541 27.127 55.541C27.117 55.54 27.104 55.54 27.093 55.54C27.089 55.539 27.083 55.539 27.079 55.539C27.069 55.539 27.061 55.539 27.053 55.538C27.049 55.538 27.043 55.538 27.038 55.538C27.028 55.538 27.02 55.538 27.013 55.537C27.008 55.537 27.003 55.537 26.998 55.537C26.987 55.537 26.978 55.536 26.97 55.536C26.966 55.536 26.962 55.536 26.959 55.536C26.946 55.535 26.934 55.535 26.923 55.534C26.923 55.534 26.92 55.534 26.918 55.534C26.904 55.534 26.892 55.532 26.878 55.532C26.875 55.532 26.871 55.532 26.869 55.532C26.858 55.532 26.848 55.532 26.838 55.53C26.834 55.53 26.83 55.53 26.825 55.53C26.814 55.53 26.807 55.529 26.798 55.529C26.793 55.529 26.79 55.529 26.784 55.528C26.774 55.528 26.765 55.528 26.757 55.527C26.752 55.527 26.748 55.527 26.744 55.527C26.733 55.526 26.721 55.526 26.711 55.526C26.709 55.525 26.706 55.525 26.704 55.525C26.69 55.525 26.678 55.524 26.664 55.524C26.649 55.523 26.637 55.522 26.623 55.522C26.619 55.522 26.617 55.522 26.613 55.521C26.603 55.521 26.593 55.521 26.585 55.52C26.579 55.52 26.575 55.52 26.57 55.519C26.561 55.519 26.552 55.519 26.544 55.518C26.539 55.518 26.535 55.518 26.53 55.518C26.52 55.517 26.512 55.517 26.503 55.516C26.499 55.516 26.494 55.516 26.489 55.516C26.477 55.515 26.468 55.515 26.456 55.514C26.454 55.514 26.452 55.514 26.45 55.514C26.436 55.513 26.424 55.512 26.41 55.512C26.408 55.512 26.407 55.511 26.405 55.511C26.393 55.511 26.383 55.51 26.369 55.509C26.367 55.509 26.363 55.509 26.359 55.509C26.35 55.508 26.339 55.508 26.331 55.507C26.327 55.507 26.321 55.507 26.317 55.507C26.308 55.506 26.298 55.506 26.289 55.505C26.285 55.505 26.282 55.505 26.278 55.504C26.266 55.504 26.257 55.503 26.245 55.503C26.242 55.502 26.24 55.502 26.237 55.502C26.212 55.501 26.183 55.499 26.157 55.497C26.154 55.497 26.151 55.497 26.149 55.497C26.138 55.496 26.128 55.496 26.115 55.495C26.112 55.495 26.111 55.495 26.108 55.494C26.097 55.494 26.086 55.493 26.075 55.492C26.072 55.492 26.069 55.492 26.066 55.492C26.055 55.49 26.046 55.489 26.035 55.489C26.031 55.488 26.028 55.488 26.025 55.488C26.013 55.487 26.001 55.486 25.988 55.486C25.987 55.485 25.986 55.485 25.986 55.485C25.959 55.484 25.931 55.482 25.904 55.48C25.901 55.48 25.898 55.479 25.896 55.479C25.886 55.478 25.875 55.478 25.864 55.477C25.861 55.477 25.857 55.476 25.854 55.476C25.844 55.475 25.833 55.475 25.823 55.474C25.819 55.474 25.817 55.474 25.813 55.473C25.803 55.472 25.792 55.472 25.78 55.471C25.778 55.471 25.776 55.471 25.773 55.47C25.747 55.468 25.718 55.466 25.691 55.464H25.69C25.677 55.463 25.666 55.462 25.652 55.461C25.65 55.461 25.646 55.461 25.644 55.46C25.633 55.459 25.622 55.459 25.611 55.458C25.608 55.457 25.606 55.457 25.603 55.457C25.591 55.456 25.579 55.455 25.568 55.454C25.567 55.454 25.565 55.454 25.563 55.454C25.523 55.45 25.481 55.447 25.441 55.443C25.439 55.443 25.436 55.443 25.435 55.443C25.424 55.442 25.412 55.441 25.4 55.44C25.398 55.44 25.395 55.439 25.393 55.439C25.382 55.438 25.37 55.437 25.359 55.436C25.356 55.436 25.355 55.436 25.352 55.436C25.34 55.434 25.33 55.433 25.317 55.432C25.315 55.432 25.314 55.432 25.312 55.432C25.271 55.428 25.23 55.424 25.189 55.42C25.187 55.42 25.186 55.42 25.184 55.42C25.171 55.419 25.162 55.418 25.149 55.417C25.147 55.416 25.144 55.416 25.142 55.416C25.13 55.415 25.12 55.414 25.107 55.412C25.105 55.412 25.104 55.412 25.102 55.412C25.048 55.407 24.993 55.401 24.938 55.395C24.937 55.395 24.936 55.395 24.935 55.395C24.923 55.393 24.91 55.392 24.898 55.391C24.896 55.391 24.894 55.39 24.893 55.39C24.881 55.389 24.868 55.387 24.855 55.386H24.853C24.811 55.381 24.77 55.377 24.729 55.372C24.728 55.372 24.728 55.372 24.728 55.372C24.714 55.37 24.701 55.369 24.687 55.368C24.687 55.367 24.686 55.367 24.686 55.367C24.672 55.366 24.66 55.364 24.646 55.363H24.644C24.589 55.356 24.535 55.35 24.479 55.343H24.478C16.601 54.379 9.75201 50.09 5.37801 43.922C5.37001 43.911 5.362 43.901 5.355 43.89C5.354 43.89 5.354 43.89 5.353 43.888C5.323 43.845 5.293 43.803 5.263 43.761C5.262 43.759 5.26099 43.758 5.25999 43.756C5.25399 43.747 5.24601 43.738 5.24001 43.729C5.24001 43.728 5.237 43.725 5.237 43.724C5.23 43.715 5.224 43.706 5.217 43.696C5.216 43.695 5.215 43.694 5.215 43.693C5.192 43.661 5.17 43.628 5.14799 43.597C5.147 43.595 5.146 43.594 5.145 43.592C5.139 43.584 5.133 43.574 5.127 43.566C5.125 43.563 5.12299 43.56 5.12199 43.558C5.11599 43.55 5.11 43.543 5.105 43.535C5.103 43.532 5.10101 43.529 5.09801 43.525C5.09301 43.518 5.08799 43.511 5.08299 43.503C5.08199 43.501 5.079 43.497 5.077 43.494C5.07 43.485 5.064 43.476 5.058 43.467C5.057 43.466 5.05599 43.464 5.05499 43.463C5.04799 43.452 5.041 43.443 5.034 43.432C5.032 43.429 5.032 43.428 5.03 43.426C5.024 43.418 5.018 43.409 5.013 43.401C5.011 43.398 5.008 43.394 5.006 43.39C5.001 43.384 4.996 43.376 4.991 43.369C4.989 43.365 4.987 43.361 4.983 43.357C4.979 43.351 4.975 43.345 4.97 43.338C4.968 43.334 4.96501 43.33 4.96201 43.326C4.95701 43.319 4.953 43.312 4.948 43.305C4.945 43.302 4.943 43.299 4.94 43.295C4.934 43.285 4.928 43.277 4.922 43.267C4.92 43.265 4.918 43.261 4.916 43.258C4.91 43.25 4.904 43.242 4.899 43.234C4.896 43.23 4.893 43.226 4.89 43.222C4.887 43.216 4.88201 43.209 4.87801 43.203C4.87501 43.198 4.872 43.194 4.869 43.189C4.865 43.183 4.86099 43.178 4.85699 43.172C4.85299 43.167 4.851 43.163 4.847 43.158C4.843 43.152 4.84001 43.147 4.83701 43.141C4.83401 43.136 4.829 43.13 4.826 43.125C4.823 43.12 4.82 43.115 4.815 43.11C4.812 43.104 4.80899 43.1 4.80499 43.094C4.80199 43.089 4.79801 43.083 4.79401 43.078C4.78801 43.068 4.782 43.058 4.774 43.048C4.771 43.044 4.768 43.04 4.765 43.035C4.761 43.029 4.758 43.024 4.754 43.018C4.751 43.014 4.748 43.009 4.746 43.005C4.742 42.999 4.737 42.992 4.733 42.987C4.731 42.982 4.72701 42.978 4.72501 42.974C4.72101 42.968 4.716 42.961 4.713 42.955C4.71 42.952 4.70799 42.949 4.70599 42.945C4.70099 42.938 4.69699 42.932 4.69299 42.924C4.68999 42.922 4.69 42.921 4.688 42.919C4.677 42.902 4.66701 42.884 4.65601 42.867C4.65101 42.859 4.64401 42.851 4.63901 42.843C4.63801 42.841 4.63699 42.839 4.63499 42.837C4.63099 42.83 4.625 42.822 4.621 42.815C4.619 42.812 4.618 42.809 4.616 42.806C4.61 42.799 4.606 42.792 4.601 42.785C4.599 42.782 4.59699 42.779 4.59599 42.776C4.59099 42.769 4.58599 42.761 4.58099 42.753C4.58099 42.753 4.57999 42.751 4.57899 42.75C4.55599 42.714 4.534 42.679 4.511 42.642C4.51 42.64 4.508 42.638 4.507 42.636C4.502 42.628 4.497 42.62 4.492 42.613C4.491 42.61 4.49001 42.608 4.48801 42.606C4.48201 42.599 4.478 42.59 4.472 42.582C4.471 42.581 4.46999 42.579 4.46899 42.578C4.44099 42.531 4.411 42.484 4.382 42.438V42.436C4.376 42.427 4.37 42.418 4.364 42.408C3.151 40.435 2.179 38.297 1.492 36.036C2.779 39.361 4.06601 42.685 8.41101 45.542C10.32 46.797 12.234 47.794 14.14 48.557C14.336 48.75 14.553 48.938 14.781 49.112C15.789 49.885 17.007 50.401 17.732 51.057C18.459 51.713 18.694 52.51 19.701 52.767C20.007 52.845 20.383 52.874 20.786 52.874C21.712 52.874 22.78 52.722 23.45 52.674C23.616 52.661 23.758 52.655 23.878 52.655C24.446 52.655 24.502 52.788 24.27 53.001C23.99 53.259 23.287 53.634 23.11 54.024C22.931 54.415 23.281 54.82 24.158 55.077C24.632 55.216 25.26 55.31 25.972 55.31C26.579 55.31 27.245 55.242 27.929 55.073C29.418 54.706 30.992 53.866 32.333 53.666C32.577 53.63 32.812 53.615 33.041 53.615C34.074 53.615 34.961 53.923 35.739 53.989C35.851 53.998 35.962 54.003 36.071 54.003C36.875 54.003 37.555 53.758 38.124 53.536C38.528 53.378 38.876 53.231 39.203 53.089C39.396 53.005 39.582 52.922 39.767 52.839C37.251 54.05 34.525 54.889 31.655 55.286C31.654 55.286 31.654 55.286 31.653 55.286C31.638 55.288 31.626 55.29 31.612 55.292C31.612 55.292 31.611 55.292 31.609 55.292C31.51 55.305 31.412 55.318 31.311 55.331C31.311 55.331 31.309 55.331 31.308 55.331C31.295 55.333 31.283 55.335 31.27 55.336C31.268 55.336 31.265 55.337 31.263 55.337C31.25 55.338 31.239 55.34 31.225 55.342C31.223 55.342 31.222 55.342 31.22 55.342C31.207 55.344 31.195 55.345 31.181 55.347C31.181 55.347 31.177 55.347 31.176 55.348C31.162 55.349 31.151 55.351 31.137 55.352H31.135C31.067 55.361 30.994 55.369 30.925 55.377C30.923 55.377 30.92 55.377 30.918 55.377C30.907 55.379 30.894 55.38 30.883 55.381C30.879 55.382 30.876 55.382 30.873 55.382C30.862 55.384 30.85 55.385 30.839 55.386C30.835 55.386 30.831 55.387 30.827 55.387C30.814 55.389 30.805 55.39 30.794 55.391C30.79 55.391 30.787 55.392 30.783 55.392C30.772 55.393 30.76 55.395 30.749 55.396C30.746 55.396 30.742 55.396 30.738 55.397C30.726 55.398 30.715 55.399 30.704 55.4C30.703 55.4 30.702 55.401 30.702 55.401C30.662 55.405 30.621 55.409 30.581 55.413C30.578 55.413 30.575 55.413 30.572 55.414C30.562 55.415 30.55 55.416 30.54 55.417C30.536 55.417 30.531 55.418 30.526 55.418C30.515 55.419 30.505 55.42 30.496 55.421C30.491 55.422 30.485 55.422 30.48 55.423C30.469 55.424 30.46 55.424 30.451 55.425C30.445 55.426 30.439 55.426 30.435 55.428C30.424 55.429 30.414 55.43 30.405 55.43C30.399 55.43 30.393 55.432 30.388 55.432C30.378 55.432 30.368 55.434 30.359 55.435C30.355 55.435 30.348 55.436 30.344 55.436C30.334 55.437 30.323 55.438 30.314 55.439C30.31 55.439 30.305 55.44 30.301 55.44C30.264 55.443 30.228 55.446 30.191 55.449C30.187 55.45 30.183 55.45 30.179 55.45C30.17 55.451 30.159 55.452 30.149 55.453C30.145 55.453 30.138 55.454 30.133 55.454C30.124 55.455 30.113 55.456 30.105 55.457C30.098 55.457 30.092 55.458 30.087 55.458C30.077 55.459 30.069 55.459 30.058 55.46C30.053 55.461 30.047 55.461 30.041 55.462C30.031 55.462 30.021 55.463 30.012 55.464C30.006 55.464 30.001 55.465 29.995 55.465C29.985 55.466 29.975 55.467 29.967 55.467C29.961 55.468 29.954 55.468 29.948 55.469C29.939 55.469 29.93 55.47 29.92 55.471C29.915 55.471 29.91 55.472 29.905 55.472C29.871 55.475 29.836 55.477 29.801 55.479C29.795 55.48 29.79 55.48 29.784 55.481C29.776 55.481 29.765 55.482 29.758 55.482C29.751 55.483 29.744 55.483 29.737 55.484C29.728 55.484 29.719 55.485 29.712 55.486C29.705 55.486 29.698 55.487 29.692 55.487C29.682 55.488 29.674 55.488 29.667 55.489C29.66 55.489 29.653 55.49 29.645 55.49C29.637 55.492 29.629 55.492 29.621 55.492C29.614 55.492 29.607 55.493 29.6 55.493C29.591 55.494 29.583 55.494 29.576 55.495C29.568 55.495 29.561 55.495 29.555 55.496C29.546 55.496 29.537 55.497 29.53 55.497C29.522 55.498 29.516 55.498 29.51 55.499C29.501 55.499 29.493 55.5 29.483 55.5C29.481 55.5 29.481 55.5 29.479 55.501C29.457 55.502 29.435 55.503 29.414 55.504C29.408 55.505 29.4 55.505 29.393 55.505C29.385 55.506 29.377 55.506 29.37 55.507C29.362 55.507 29.354 55.507 29.347 55.508C29.339 55.508 29.332 55.509 29.324 55.509C29.317 55.51 29.308 55.51 29.301 55.51C29.294 55.511 29.286 55.511 29.279 55.512C29.27 55.512 29.262 55.512 29.254 55.513C29.247 55.513 29.239 55.514 29.232 55.514C29.224 55.514 29.216 55.515 29.209 55.515C29.201 55.515 29.194 55.516 29.187 55.516C29.178 55.517 29.169 55.517 29.162 55.517C29.155 55.518 29.146 55.518 29.14 55.518C29.13 55.519 29.12 55.519 29.11 55.52C29.104 55.52 29.099 55.52 29.093 55.521C29.081 55.521 29.07 55.522 29.057 55.522C29.047 55.523 29.038 55.523 29.028 55.523C29.019 55.524 29.01 55.524 29.001 55.524C28.994 55.525 28.987 55.525 28.98 55.525C28.971 55.526 28.962 55.526 28.954 55.526C28.947 55.527 28.94 55.527 28.933 55.527C28.924 55.528 28.915 55.528 28.907 55.528C28.899 55.528 28.893 55.529 28.886 55.529C28.878 55.529 28.87 55.53 28.861 55.53C28.853 55.53 28.845 55.53 28.839 55.53C28.83 55.53 28.821 55.53 28.814 55.532C28.806 55.532 28.799 55.532 28.793 55.532C28.784 55.533 28.775 55.533 28.767 55.533C28.761 55.533 28.752 55.534 28.746 55.534C28.735 55.534 28.726 55.534 28.717 55.535C28.712 55.535 28.704 55.535 28.699 55.535C28.685 55.536 28.672 55.536 28.659 55.536C28.653 55.537 28.644 55.537 28.639 55.537C28.627 55.537 28.616 55.538 28.605 55.538C28.599 55.538 28.594 55.538 28.589 55.538C28.578 55.539 28.567 55.539 28.558 55.539C28.551 55.539 28.545 55.54 28.539 55.54C28.528 55.54 28.519 55.54 28.51 55.54C28.503 55.541 28.498 55.541 28.489 55.541C28.48 55.541 28.471 55.541 28.463 55.541C28.456 55.542 28.449 55.542 28.441 55.542C28.432 55.542 28.424 55.542 28.415 55.542C28.409 55.543 28.401 55.543 28.394 55.543C28.385 55.543 28.376 55.543 28.367 55.543C28.36 55.543 28.353 55.544 28.346 55.544C28.337 55.544 28.328 55.544 28.317 55.544C28.311 55.544 28.305 55.544 28.299 55.544C28.286 55.545 28.273 55.545 28.26 55.545C28.253 55.545 28.248 55.545 28.241 55.545C28.228 55.546 28.217 55.546 28.205 55.546C28.2 55.546 28.192 55.546 28.187 55.546C28.177 55.546 28.167 55.546 28.158 55.546C28.152 55.546 28.143 55.547 28.138 55.547C28.129 55.547 28.12 55.547 28.11 55.547C28.103 55.547 28.097 55.547 28.09 55.547C28.085 55.547 28.082 55.547 28.077 55.547C28.075 55.547 28.073 55.547 28.07 55.547C28.069 55.547 28.065 55.547 28.062 55.547C28.055 55.547 28.048 55.547 28.042 55.547C28.04 55.547 28.038 55.547 28.036 55.547C28.031 55.547 28.025 55.548 28.02 55.548C28.018 55.548 28.016 55.548 28.014 55.548C28.007 55.548 28 55.548 27.994 55.548C27.994 55.548 27.992 55.548 27.991 55.548C27.984 55.548 27.977 55.548 27.97 55.548C27.968 55.548 27.967 55.548 27.965 55.548C27.959 55.548 27.953 55.548 27.945 55.548H27.944C27.934 55.548 27.926 55.548 27.917 55.548C27.916 55.548 27.915 55.548 27.914 55.548C27.909 55.548 27.903 55.548 27.898 55.548C27.897 55.548 27.898 55.548 27.897 55.548C27.892 55.55 27.876 55.55 27.859 55.55Z" fill="#C4633E"/>
<path fill-rule="evenodd" clip-rule="evenodd" d="M18.003 17.159C17.846 16.752 17.935 16.373 18.076 16.058C18.286 15.59 18.614 15.262 18.942 14.957C19.27 14.652 19.598 14.371 19.903 13.973C20.208 13.575 20.488 13.058 20.652 12.403C20.816 11.747 20.863 10.951 21.027 9.96703C21.191 8.98303 21.472 7.81102 21.191 7.10902C20.911 6.40602 20.067 6.17203 20.512 5.77303C20.957 5.37503 22.691 4.81303 23.909 4.53203C24.753 4.33703 25.348 4.27702 25.767 4.16502C26.333 4.40302 26.777 4.75303 27.073 5.22203C28.645 7.71803 25.366 12.609 19.75 16.147C19.169 16.514 18.585 16.851 18.003 17.159ZM18.176 4.99403C19.009 4.79903 19.678 4.66303 20.324 4.48503C20.904 4.32503 21.467 4.13102 22.289 3.87402C21.04 4.03302 19.64 4.41103 18.176 4.99403Z" fill="#FCA370"/>
<path fill-rule="evenodd" clip-rule="evenodd" d="M10.228 19.466C8.59599 19.466 7.34399 19.001 6.73399 18.031C5.16199 15.535 8.44 10.644 14.057 7.10698C15.439 6.23598 16.834 5.52899 18.175 4.99399C19.008 4.79899 19.677 4.66299 20.323 4.48499C20.903 4.32499 21.466 4.13098 22.288 3.87398C22.738 3.81598 23.171 3.78699 23.578 3.78699C24.422 3.78699 25.164 3.91098 25.767 4.16498C25.348 4.27698 24.752 4.33698 23.909 4.53198C22.69 4.81298 20.957 5.37498 20.512 5.77298C20.067 6.17198 20.91 6.40598 21.191 7.10898C21.472 7.81098 21.191 8.98298 21.027 9.96698C20.863 10.951 20.816 11.747 20.652 12.403C20.488 13.059 20.208 13.575 19.903 13.973C19.598 14.371 19.27 14.652 18.942 14.957C18.614 15.262 18.286 15.59 18.076 16.058C17.934 16.373 17.846 16.752 18.003 17.159C15.15 18.669 12.364 19.466 10.228 19.466Z" fill="#E58F67"/>
</svg>

