<?xml version="1.0" encoding="UTF-8" standalone="no"?>
<svg
   width="55.101006"
   height="55.082981"
   viewBox="0 0 55.101006 55.082981"
   fill="none"
   version="1.1"
   id="svg1575"
   sodipodi:docname="venus.svg"
   inkscape:version="1.2.2 (b0a8486541, 2022-12-01)"
   xmlns:inkscape="http://www.inkscape.org/namespaces/inkscape"
   xmlns:sodipodi="http://sodipodi.sourceforge.net/DTD/sodipodi-0.dtd"
   xmlns="http://www.w3.org/2000/svg"
   xmlns:svg="http://www.w3.org/2000/svg">
  <defs
     id="defs1579" />
  <sodipodi:namedview
     id="namedview1577"
     pagecolor="#ffffff"
     bordercolor="#000000"
     borderopacity="0.25"
     inkscape:showpageshadow="2"
     inkscape:pageopacity="0.0"
     inkscape:pagecheckerboard="0"
     inkscape:deskcolor="#d1d1d1"
     showgrid="false"
     inkscape:zoom="6.0632911"
     inkscape:cx="3.7933194"
     inkscape:cy="39.087683"
     inkscape:window-width="1280"
     inkscape:window-height="651"
     inkscape:window-x="0"
     inkscape:window-y="32"
     inkscape:window-maximized="1"
     inkscape:current-layer="svg1575" />
  <path
     d="m 27.541007,55.081982 c 15.2105,0 27.541,-12.3305 27.541,-27.541 C 55.082007,12.330482 42.751507,0 27.541007,0 12.330507,0 0,12.330482 0,27.540982 c 0,15.2105 12.330507,27.541 27.541007,27.541 z"
     fill="#f98b54"
     id="path1555" />
  <path
     fill-rule="evenodd"
     clip-rule="evenodd"
     d="m 29.355007,24.867982 c -0.938,-0.094 -1.546,-0.328 -2.319,-0.516 -0.773,-0.187 -1.71,-0.328 -2.343,0.047 -0.633,0.375 -0.961,1.265 -0.938,1.804 0.023,0.539 0.398,0.726 0.258,1.125 -0.141,0.398 -0.796,1.007 -1.312,1.312 -0.516,0.304 -0.891,0.304 -1.921,-0.047 -1.031,-0.352 -2.718,-1.054 -3.585,-1.687 -0.867,-0.633 -0.914,-1.195 -0.539,-1.757 0.375,-0.562 1.172,-1.125 1.593,-1.546 0.422,-0.422 0.47,-0.703 0.773,-1.219 0.305,-0.515 0.867,-1.265 1.336,-1.827 0.469,-0.562 0.843,-0.937 0.328,-1.453 -0.517,-0.515 -1.921,-1.171 -2.577,-1.804 -0.656,-0.632 -0.563,-1.241 -0.352,-1.71 0.21,-0.468 0.538,-0.796 0.866,-1.101 0.328,-0.305 0.656,-0.586 0.961,-0.984 0.305,-0.398 0.585,-0.915 0.749,-1.57 0.164,-0.656 0.211,-1.452 0.375,-2.436 0.164,-0.984 0.445,-2.15601 0.164,-2.85801 -0.28,-0.703 -1.124,-0.937 -0.679,-1.336 0.445,-0.398 2.179,-0.95999 3.397,-1.24099 1.218,-0.282 1.92,-0.28201 2.318,-0.56301 0.399,-0.281 0.492,-0.84299 -0.21,-0.91299 -0.703,-0.071 -2.203,0.351 -3.28,0.679 -1.077,0.328 -1.733,0.562 -2.414,0.75 -0.679,0.187 -1.382,0.32799 -2.271,0.53799 -0.89,0.211 -1.968,0.49302 -2.647,0.49302 -0.68,0 -0.961,-0.28202 -1.105,-0.56002 -0.147,-0.278 -0.155,-0.554 0.421,-0.974 0.577,-0.421 1.741,-0.98498 2.903,-1.54998 -9.60103,3.846 -16.53301,12.94199 -17.245009,23.73699 0.098,-0.862 0.194994,-1.725 0.899989,-2.145 0.704,-0.42 2.015,-0.398 2.928,-0.222 0.913,0.175 1.42901,0.503 1.89601,0.901 0.469,0.398 0.89098,0.867 1.10298,1.311 0.211,0.445 0.21103,0.867 0.11603,1.289 -0.094,0.421 -0.28003,0.843 -0.28003,1.148 0,0.304 0.18602,0.492 0.79602,0.726 0.608,0.234 1.63999,0.515 2.71801,1.078 1.078,0.562 2.202,1.405 2.038,2.577 -0.164,1.171 -1.616,2.671 -2.155,3.514 -0.53903,0.843 -0.164,1.031 0.561,1.195 0.727,0.164 1.805,0.304 2.578,0.398 0.772,0.094 1.241,0.141 1.944,0.117 0.702,-0.023 1.641,-0.117 2.389,-0.023 0.751,0.094 1.313,0.375 1.781,0.703 0.468,0.328 0.844,0.702 1.429,0.89 0.586,0.187 1.383,0.187 1.969,0.375 0.586,0.187 0.96,0.562 1.054,0.89 0.094,0.328 -0.094,0.609 -0.164,1.007 -0.069,0.399 -0.023,0.914 0,1.172 0.024,0.258 0.024,0.258 0.328,0.492 0.305,0.234 0.914,0.703 1.921,0.937 1.008,0.234 2.413,0.234 3.655,-0.515 1.242,-0.75 2.318,-2.25 3.842,-2.788 1.523,-0.539 3.491,-0.118 4.897,0.046 1.404,0.165 2.249,0.071 2.787,-0.07 0.539,-0.14 0.773,-0.328 1.288,-0.492 0.517,-0.164 1.313,-0.304 1.523,-0.679 0.211,-0.375 -0.164,-0.984 -0.094,-1.336 0.07,-0.351 0.586,-0.445 0.914,-0.609 0.328,-0.164 0.469,-0.398 0.422,-0.796 -0.048,-0.399 -0.281,-0.961 -0.492,-1.383 -0.211,-0.421 -0.398,-0.702 -0.422,-0.984 -0.023,-0.281 0.117,-0.562 0.047,-0.89 -0.07,-0.328 -0.352,-0.703 -0.492,-1.148 -0.141,-0.445 -0.141,-0.96 -0.608,-1.499 -0.47,-0.539 -1.406,-1.101 -2.063,-1.406 -0.656,-0.305 -1.031,-0.351 -1.288,-0.562 -0.258,-0.211 -0.398,-0.586 -0.305,-0.984 0.094,-0.398 0.422,-0.82 0.422,-1.195 0,-0.375 -0.328,-0.703 -0.727,-1.242 -0.398,-0.538 -0.866,-1.288 -1.429,-1.827 -0.563,-0.539 -1.219,-0.867 -2.061,-0.633 -0.845,0.235 -1.874,1.031 -3.023,1.453 -1.147,0.423 -2.412,0.469 -3.348,0.376 z"
     fill="#c4633e"
     id="path1557" />
  <path
     fill-rule="evenodd"
     clip-rule="evenodd"
     d="m 39.639007,15.308982 c 0.445,0.937 0.54,1.734 0.984,2.202 0.445,0.469 1.242,0.609 2.671,0.773 1.43,0.164 3.491,0.352 4.779,0.773 1.289,0.422 1.804,1.078 2.061,1.711 0.259,0.632 0.259,1.241 -0.116,1.851 -0.375,0.609 -1.125,1.218 -1.477,1.85 -0.352,0.633 -0.305,1.289 -0.141,1.781 0.164,0.492 0.446,0.82 0.703,1.218 0.258,0.399 0.491,0.867 0.608,1.664 0.118,0.796 0.118,1.921 0.445,2.694 0.329,0.773 0.984,1.195 1.57,1.593 0.586,0.398 1.101,0.773 1.387,1.322 0.285,0.549 0.34,1.271 0.268,1.893 -0.074,0.621 -0.276,1.142 -0.913,1.834 -0.637,0.694 -1.709,1.56 -2.525,2.157 -0.816,0.597 -1.379,0.925 -1.777,1.346 -0.397,0.422 -0.632,0.937 -0.655,1.359 -0.023,0.422 0.164,0.75 0.116,1.125 -0.047,0.375 -0.327,0.796 -0.865,1.195 -0.54,0.398 -1.336,0.773 -1.97,1.171 -0.632,0.398 -1.101,0.82 -1.382,1.417 -0.281,0.597 -0.375,1.368 -0.433,1.761 -0.059,0.394 -0.08,0.409 -0.123,0.437 7.374,-4.941 12.227,-13.351 12.227,-22.894 0,-14.859 -11.766,-26.96896 -26.488,-27.521963 1.08,0.552003 2.162,1.102993 2.703,1.659993 0.541,0.557 0.541,1.11899 0.236,1.75199 -0.304,0.633 -0.914,1.33501 -1.218,1.96801 -0.306,0.632 -0.306,1.19501 0.022,1.89801 0.328,0.702 0.984,1.54599 1.477,2.01399 0.492,0.46897 0.819,0.56297 0.726,0.74997 -0.093,0.188 -0.609,0.469 -0.609,0.656 0,0.188 0.517,0.281 0.939,0.234 0.421,-0.047 0.749,-0.234 1.218,-0.538 0.469,-0.305 1.077,-0.727 1.452,-1.10197 0.375,-0.374 0.517,-0.702 0.914,-0.632 0.398,0.07 1.054,0.539 1.289,1.19497 0.234,0.656 0.047,1.499 0.351,2.46 0.306,0.959 1.102,2.037 1.546,2.974 z m 3.217,35.126 c -0.342,0.23 -0.69,0.452 -1.043,0.666 l 0.143,-0.091 c 0.147,-0.092 0.437,-0.276 0.613,-0.389 0.178,-0.114 0.243,-0.157 0.287,-0.186 z"
     fill="#c4633e"
     id="path1559" />
  <path
     fill-rule="evenodd"
     clip-rule="evenodd"
     d="m 16.095007,44.921982 c 1.593,-0.328 3.467,-0.702 3.583,-1.241 0.118,-0.539 -1.522,-1.242 -2.482,-1.968 -0.96,-0.727 -1.242,-1.4759 -2.296,-1.8739 -1.054,-0.398 -2.881,-0.4451 -4.123,-0.2811 -1.242,0.164 -1.89801,0.539 -2.69501,0.633 -0.796,0.094 -1.73199,-0.094 -2.29599,-0.469 -0.563,-0.375 -0.749,-0.937 -0.843,-1.8509 -0.095,-0.913 -0.095,-2.1781 -0.164,-2.9521 -0.07,-0.773 -0.211,-1.054 -0.39799,-0.656 -0.18801,0.399 -0.422,1.476 -0.586,2.062 -0.164,0.586 -0.25801,0.68 -0.64301,0.589 -0.385,-0.09 -1.062,-0.364 -1.627,-1.676 -0.565,-1.311 -1.020005,-3.661 -1.473005,-6.01 0.870005,14.425 12.846005,25.855 27.489005,25.855 4.273,0 8.318,-0.973 11.927,-2.709 -0.5,0.222 -1.003,0.446 -1.647,0.698 -0.646,0.252 -1.435,0.533 -2.385,0.453 -0.951,-0.08 -2.064,-0.522 -3.406,-0.323 -1.342,0.2 -2.915,1.04 -4.404,1.407 -1.488,0.367 -2.895,0.26 -3.771,0.004 -0.877,-0.257 -1.227,-0.662 -1.048,-1.053 0.177,-0.39 0.88,-0.7649 1.16,-1.0229 0.281,-0.257 0.141,-0.3981 -0.819,-0.3271 -0.961,0.07 -2.741,0.351 -3.749,0.093 -1.007,-0.258 -1.241,-1.0539 -1.969,-1.7099 -0.726,-0.656 -1.943,-1.1721 -2.951,-1.9451 -1.007,-0.773 -1.805,-1.8039 -1.547,-2.4599 0.258,-0.657 1.569,-0.9381 3.163,-1.2661 z"
     fill="#c4633e"
     id="path1561" />
  <path
     fill-rule="evenodd"
     clip-rule="evenodd"
     d="m 27.541007,55.081982 c -0.013,0 -0.025,0 -0.04,0 0.015,0 0.028,0 0.04,0 0.017,0 0.032,0 0.047,0 10e-4,0 0,0 10e-4,0 -0.015,0 -0.031,0 -0.048,0 z m -0.052,0 c -0.009,0 -0.017,0 -0.027,0 0.009,0 0.018,0 0.027,0 z m 0.116,0 c 0.001,0 0.002,0 0.003,0 0.009,0 0.018,0 0.027,0 h 10e-4 c -0.01,0 -0.021,0 -0.031,0 z m 0.051,0 c 0.002,0 0.003,0 0.005,0 0.006,0 0.014,0 0.021,0 0.001,0 0.002,0 0.002,0 -0.01,0 -0.019,0 -0.028,0 z m 0.048,0 c 0.002,0 0.004,0 0.006,0 0.005,0 0.011,-0.001 0.016,-0.001 0.002,0 0.004,0 0.006,0 -0.009,0 -0.019,0.001 -0.028,0.001 z m 0.048,-0.001 c 0.003,0 0.007,0 0.008,0 0.003,0 0.006,0 0.007,0 0.005,0 0.008,0 0.013,0 -0.009,0 -0.02,0 -0.028,0 z m -0.474,0 c -0.012,0 -0.022,0 -0.032,-10e-4 0.01,10e-4 0.021,10e-4 0.032,10e-4 z m 0.57,-10e-4 c 0.01,0 0.02,0 0.029,0 -0.01,0 -0.019,0 -0.029,0 z m -0.657,0 c -0.008,0 -0.019,0 -0.026,0 0.008,0 0.016,0 0.026,0 z m 0.759,-10e-4 c 0.013,0 0.026,0 0.039,-0.001 -0.013,0.001 -0.027,0.001 -0.039,0.001 z m -0.839,0 c -0.013,0 -0.026,-0.001 -0.039,-0.001 0.012,0 0.026,0.001 0.039,0.001 z m -0.04,-0.001 c -0.013,0 -0.027,0 -0.04,-10e-4 0.012,10e-4 0.027,10e-4 0.04,10e-4 z m 0.985,-10e-4 c 0.01,0 0.019,0 0.027,0 -0.008,0 -0.018,0 -0.027,0 z m -1.12,-0.002 c -0.011,0 -0.018,0 -0.026,0 0.007,0 0.017,0 0.026,0 z m 1.263,-10e-4 c 0.01,0 0.019,0 0.029,0 -0.009,0 -0.02,0 -0.029,0 z m -1.344,0 c -0.015,-10e-4 -0.026,-10e-4 -0.039,-10e-4 0.012,0 0.026,0 0.039,10e-4 z m 1.391,-10e-4 c 0.01,0 0.021,-1e-4 0.031,-0.0011 -0.009,10e-4 -0.021,0.0011 -0.031,0.0011 z m -1.436,0 c -0.012,-0.001 -0.022,-0.0011 -0.034,-0.0011 0.01,0 0.024,10e-5 0.034,0.0011 z m 1.483,-0.0011 c 0.012,0 0.022,-9e-4 0.034,-9e-4 -0.01,0 -0.022,9e-4 -0.034,9e-4 z m 0.055,-0.002 c 0.013,0 0.026,1e-4 0.04,-9e-4 -0.015,0.001 -0.026,9e-4 -0.04,9e-4 z m -1.627,0 c -0.01,0 -0.017,1e-4 -0.025,-9e-4 0.007,0.001 0.015,9e-4 0.025,9e-4 z m 1.685,-9e-4 c 0.01,-10e-4 0.019,-0.0011 0.029,-0.0011 -0.011,0 -0.02,1e-4 -0.029,0.0011 z m -1.805,-0.003 c -0.014,0 -0.026,-0.002 -0.04,-0.002 0.014,10e-4 0.026,0.002 0.04,0.002 z m 1.902,0 c 0.008,-0.002 0.017,-0.002 0.025,-0.002 -0.008,10e-4 -0.017,10e-4 -0.025,0.002 z m -1.951,-10e-4 c -0.012,0 -0.021,0 -0.031,-0.002 0.01,0.001 0.02,0.001 0.031,0.002 z m -0.044,-0.002 c -0.01,0 -0.019,-10e-4 -0.027,-10e-4 0.01,0 0.016,10e-4 0.027,10e-4 z m 2.089,-10e-4 c 0.009,0 0.018,0 0.026,-10e-4 -0.007,0 -0.017,10e-4 -0.026,10e-4 z m -2.13,-10e-4 c -0.009,0 -0.019,0 -0.027,-0.001 0.009,0.001 0.017,0.001 0.027,0.001 z m 2.178,-0.001 c 0.009,0 0.018,-10e-5 0.026,-0.0011 -0.009,0.001 -0.016,0.0011 -0.026,0.0011 z m -2.218,0 c -0.012,-10e-4 -0.022,-0.0011 -0.033,-0.0011 0.01,0 0.022,1e-4 0.033,0.0011 z m -0.04,-0.002 c -0.013,0 -0.026,-0.0011 -0.04,-0.0011 0.014,0 0.026,0.0011 0.04,0.0011 z m 2.361,-0.002 c 0.013,0 0.024,-0.0011 0.036,-0.0011 -0.011,0 -0.023,0.0011 -0.036,0.0011 z m 0.105,-0.005 c 0.008,0 0.017,0 0.025,-10e-4 -0.01,10e-4 -0.016,10e-4 -0.025,10e-4 z m -2.64,0 c -0.009,-10e-4 -0.019,-10e-4 -0.027,-0.002 0.01,10e-4 0.017,10e-4 0.027,0.002 z m 2.688,-0.002 c 0.008,0 0.016,-0.001 0.023,-0.001 -0.008,0 -0.015,0.001 -0.023,0.001 z m -2.729,0 c -0.011,-0.001 -0.022,-0.002 -0.033,-0.002 0.012,10e-4 0.021,10e-4 0.033,0.002 z m -0.084,-0.0051 c -0.012,0 -0.023,-0.001 -0.036,-0.002 0.014,10e-4 0.025,0.002 0.036,0.002 z m 2.907,0 c 0.008,0 0.017,10e-5 0.023,-9e-4 -0.007,10e-4 -0.017,9e-4 -0.023,9e-4 z m 0.046,-0.002 c 0.008,-10e-4 0.016,-9e-4 0.023,-9e-4 -0.007,0 -0.015,9e-4 -0.023,9e-4 z m -3.041,-0.002 c -0.009,-9e-4 -0.019,-9e-4 -0.028,-0.0019 0.01,10e-4 0.02,10e-4 0.028,0.0019 z m -0.039,-0.0029 c -0.011,0 -0.022,-0.001 -0.033,-0.001 0.013,0 0.022,0.001 0.033,0.001 z m -0.041,-0.002 c -0.025,-10e-4 -0.054,-0.003 -0.08,-0.005 0.027,0.002 0.055,0.004 0.08,0.005 z m 3.254,0 c 0.002,-10e-4 0.002,-10e-4 0.004,-10e-4 0,0 -0.004,0 -0.004,10e-4 z m 0.031,-0.002 c 0.007,-10e-4 0.013,-0.0011 0.02,-0.0021 -0.006,0.001 -0.014,0.0011 -0.02,0.0021 z m -3.373,-0.003 c -0.011,-10e-4 -0.022,-0.002 -0.034,-0.002 0.013,10e-4 0.024,10e-4 0.034,0.002 z m -0.041,-0.0031 c -0.011,0 -0.022,-10e-4 -0.033,-0.0019 0.012,9e-4 0.023,0.0019 0.033,0.0019 z m -0.042,-0.0019 c -0.011,-0.002 -0.02,-0.003 -0.031,-0.003 0.011,10e-4 0.021,0.002 0.031,0.003 z m 3.594,-0.001 c 0.009,0 0.016,-10e-4 0.022,-10e-4 -0.007,0 -0.013,10e-4 -0.022,10e-4 z m -3.635,-0.002 c -0.012,-0.001 -0.024,-0.002 -0.037,-0.002 0.013,0 0.026,10e-4 0.037,0.002 z m -0.039,-0.003 c -0.027,-10e-4 -0.055,-0.0031 -0.082,-0.0051 0.028,0.002 0.055,0.0041 0.082,0.0051 z m 3.768,-0.0011 c 0.007,-10e-4 0.014,-10e-4 0.021,-0.002 -0.007,0.001 -0.013,0.001 -0.021,0.002 z m -3.858,-0.0049 c -0.011,-10e-4 -0.02,-10e-4 -0.032,-0.002 0.011,0.001 0.023,0.001 0.032,0.002 z m -0.042,-0.003 c -0.01,0 -0.021,-10e-4 -0.031,-0.002 0.011,0.001 0.022,0.001 0.031,0.002 z m -0.041,-0.003 c -0.01,0 -0.021,-10e-4 -0.033,-0.002 0.012,0.001 0.024,0.001 0.033,0.002 z m 4.108,-10e-4 c 0.005,0 0.01,-0.001 0.015,-0.001 -0.005,0 -0.009,0.001 -0.015,0.001 z m 0.043,-0.0031 c 0.006,-10e-4 0.013,-10e-4 0.019,-0.002 -0.007,0.001 -0.012,0.001 -0.019,0.002 z m 0.047,-0.004 c 0.006,0 0.011,-9e-4 0.017,-9e-4 -0.006,0 -0.012,9e-4 -0.017,9e-4 z m -4.32,-9e-4 c -0.013,-10e-4 -0.027,-0.002 -0.039,-0.003 0.014,10e-4 0.027,0.002 0.039,0.003 z m 4.366,-0.002 c 0.006,-10e-4 0.012,-10e-4 0.017,-0.002 -0.006,10e-4 -0.012,10e-4 -0.017,0.002 z m -4.454,-0.005 c -0.012,-0.001 -0.022,-0.0021 -0.035,-0.0031 0.011,10e-4 0.024,0.0021 0.035,0.0031 z m 4.545,-0.0031 c 0.005,0 0.012,-9e-4 0.016,-9e-4 -0.006,0 -0.01,9e-4 -0.016,9e-4 z m 0.046,-0.0039 c 0.004,0 0.008,0 0.012,-10e-4 -0.005,10e-4 -0.006,10e-4 -0.012,10e-4 z m -4.759,-0.007 c -0.012,-10e-4 -0.023,-0.002 -0.035,-0.003 0.012,10e-4 0.025,0.002 0.035,0.003 z m 4.881,-0.003 c 0.004,0 0.009,-0.0011 0.013,-0.0011 -0.006,0 -0.009,1e-4 -0.013,0.0011 z m -4.922,-0.0011 c -0.011,-10e-4 -0.023,-0.0019 -0.034,-0.0029 0.01,10e-4 0.023,0.0019 0.034,0.0029 z m -0.042,-0.0029 c -0.011,-0.001 -0.023,-0.003 -0.035,-0.004 0.013,0.001 0.024,0.002 0.035,0.004 z m 5.051,-0.004 c 0.005,0 0.011,-0.002 0.017,-0.002 -0.006,10e-4 -0.012,0.002 -0.017,0.002 z m -5.09,0 c -0.041,-0.004 -0.082,-0.008 -0.123,-0.012 0.04,0.004 0.081,0.008 0.123,0.012 z m -0.129,-0.012 c -0.011,-0.001 -0.024,-0.002 -0.035,-0.003 0.013,10e-4 0.023,0.002 0.035,0.003 z m -0.041,-0.004 c -0.012,-10e-4 -0.022,-0.002 -0.035,-0.004 0.012,0.002 0.023,0.003 0.035,0.004 z m 5.444,-10e-4 c 0.003,-10e-4 0.006,-10e-4 0.009,-10e-4 -0.004,0 -0.006,0 -0.009,10e-4 z m -5.485,-0.003 c -0.055,-0.006 -0.109,-0.011 -0.164,-0.017 0.055,0.006 0.111,0.012 0.164,0.017 z m 5.615,-0.01 c 0,0 0.001,-0.001 0.002,-0.001 -0.001,0 -0.001,0.001 -0.002,0.001 z m -5.782,-0.007 c -0.013,-0.002 -0.025,-0.003 -0.037,-0.004 0.012,10e-4 0.026,0.002 0.037,0.004 z m 5.863,-0.002 c 0.004,0 0.007,-0.001 0.011,-0.001 -0.004,0 -0.008,0.001 -0.011,0.001 z m -5.904,-0.003 c -0.013,-0.001 -0.025,-0.002 -0.038,-0.004 0.012,0.001 0.026,0.003 0.038,0.004 z m 5.948,-0.002 c 0.004,0 0.008,-10e-4 0.012,-10e-4 -0.003,0 -0.008,10e-4 -0.012,10e-4 z m -6.115,-0.0161 c -0.013,-10e-4 -0.026,-0.003 -0.04,-0.004 0.014,10e-4 0.028,0.002 0.04,0.004 z m -0.04,-0.004 c -0.014,-10e-4 -0.026,-0.0039 -0.04,-0.0049 0.013,10e-4 0.026,0.0039 0.04,0.0049 z m 6.462,-0.015 h 0.002 c 0,0 -0.001,0 -0.002,0 z m 0.474,-0.0599 c 0.002,0 0.002,0 0.002,0 z m 0.044,-0.006 c 10e-4,0 10e-4,0 0.002,0 z m 7.55,-2.1971 c 1.4,-0.637 2.736,-1.3889 4.001,-2.2419 -0.012,0.029 -0.025,0.039 -0.039,0.049 5.297,-3.551 9.292,-8.893 11.121,-15.159 -1.88,6.444 -6.053,11.91 -11.575,15.457 0.149,-0.096 0.3,-0.194 0.448,-0.294 -0.044,0.029 -0.108,0.072 -0.286,0.186 -0.177,0.113 -0.467,0.297 -0.613,0.389 l -0.143,0.091 c -0.759,0.461 -1.543,0.8859 -2.349,1.2729 -0.186,0.083 -0.372,0.166 -0.565,0.25 z m 3.045,-1.6029 c 0.021,-0.013 0.044,-0.027 0.064,-0.041 -0.021,0.014 -0.043,0.028 -0.064,0.041 z m 0.068,-0.043 c 0.01,-0.005 0.02,-0.0121 0.029,-0.0181 -0.009,0.006 -0.019,0.0121 -0.029,0.0181 z m 0.074,-0.0461 c 0.007,-0.004 0.015,-0.009 0.02,-0.013 -0.006,0.004 -0.013,0.009 -0.02,0.013 z m 0.159,-0.099 c 0.001,-10e-4 0.001,-10e-4 0.002,-0.0019 -0.002,9e-4 -0.002,9e-4 -0.002,0.0019 z m -37.184,-7.3779 c -0.008,-0.01 -0.01601,-0.021 -0.02301,-0.031 0.007,0.011 0.01501,0.02 0.02301,0.031 z m -0.025,-0.033 c -0.03,-0.042 -0.06,-0.085 -0.09,-0.127 0.031,0.042 0.06,0.084 0.09,0.127 z m -0.092,-0.133 c -0.007,-0.009 -0.014,-0.0181 -0.02,-0.0271 0.006,0.009 0.014,0.0181 0.02,0.0271 z m -0.02299,-0.032 c -0.007,-0.01 -0.01301,-0.018 -0.02001,-0.028 0.007,0.01 0.01301,0.019 0.02001,0.028 z m -0.02102,-0.031 c -0.023,-0.032 -0.045,-0.064 -0.067,-0.096 0.022,0.031 0.044,0.064 0.067,0.096 z m -0.071,-0.101 c -0.00599,-0.009 -0.01199,-0.018 -0.01799,-0.026 0.007,0.008 0.01299,0.018 0.01799,0.026 z m -0.04598,-0.067 c -0.005,-0.007 -0.01,-0.014 -0.015,-0.022 0.006,0.008 0.01099,0.015 0.015,0.022 z m -0.02001,-0.0311 c -0.007,-0.0089 -0.013,-0.0169 -0.019,-0.0269 0.006,0.009 0.012,0.018 0.019,0.0269 z m -0.021,-0.0309 c -0.007,-0.01 -0.01401,-0.021 -0.02101,-0.031 0.007,0.011 0.01401,0.02 0.02101,0.031 z m -0.026,-0.037 c -0.006,-0.009 -0.01099,-0.0171 -0.01699,-0.0251 0.005,0.008 0.01099,0.0171 0.01699,0.0251 z m -0.02301,-0.036 c -0.005,-0.006 -0.009,-0.0131 -0.015,-0.0211 0.005,0.007 0.01,0.0151 0.015,0.0211 z m -0.043,-0.063 c -0.005,-0.007 -0.00899,-0.013 -0.01399,-0.021 0.005,0.007 0.00899,0.014 0.01399,0.021 z m -0.02198,-0.031 c -0.006,-0.009 -0.01201,-0.019 -0.01801,-0.028 0.007,0.0099 0.01201,0.018 0.01801,0.028 z m -0.02301,-0.0371 c -0.005,-0.007 -0.012,-0.017 -0.017,-0.024 0.005,0.008 0.011,0.016 0.017,0.024 z m -0.02601,-0.0359 c -0.004,-0.007 -0.00699,-0.012 -0.01199,-0.019 0.005,0.006 0.009,0.013 0.01199,0.019 z m -0.01998,-0.0331 c -0.004,-0.005 -0.00801,-0.0109 -0.01201,-0.0169 0.004,0.006 0.00801,0.0109 0.01201,0.0169 z m -0.02201,-0.0309 c -0.003,-0.006 -0.00701,-0.011 -0.01001,-0.017 0.004,0.006 0.00601,0.011 0.01001,0.017 z m -0.15001,-0.233 c -0.003,-10e-4 -0.00299,-0.003 -0.00499,-0.005 0.002,0.002 0.00199,0.003 0.00499,0.005 z m -0.09098,-0.1391 c -0.002,-0.0029 -0.00301,-0.0059 -0.00501,-0.0089 0.001,0.003 0.00301,0.006 0.00501,0.0089 z m -0.09002,-0.1429 c -0.001,-0.001 -0.00299,-0.004 -0.00399,-0.006 10e-4,0.002 0.00299,0.004 0.00399,0.006 z m -0.03799,-0.06 c -10e-4,-0.002 -0.00101,-0.0021 -0.00301,-0.0041 0.001,10e-4 0.00201,0.0031 0.00301,0.0041 z m 49.814,-6.845 c 0.005,-0.017 0.01,-0.033 0.015,-0.0511 -0.006,0.017 -0.01,0.0341 -0.015,0.0511 z m 0.131,-0.4631 c 0.014,-0.05 0.028,-0.1009 0.041,-0.1519 -0.013,0.051 -0.028,0.1019 -0.041,0.1519 z m 0.042,-0.155 c 0.004,-0.016 0.008,-0.0309 0.013,-0.0479 -0.005,0.016 -0.01,0.0319 -0.013,0.0479 z m 0.013,-0.0509 c 0.014,-0.051 0.026,-0.101 0.039,-0.152 -0.012,0.051 -0.025,0.101 -0.039,0.152 z m 0.04,-0.157 c 0.004,-0.015 0.008,-0.0311 0.012,-0.046 -0.002,0.0149 -0.008,0.031 -0.012,0.046 z m 0.054,-0.207 c 0.004,-0.015 0.008,-0.0311 0.012,-0.0461 -0.004,0.015 -0.008,0.0301 -0.012,0.0461 z m 0.013,-0.05 c 0.012,-0.051 0.024,-0.101 0.037,-0.152 -0.013,0.051 -0.026,0.101 -0.037,0.152 z m 0.038,-0.159 c 0.004,-0.015 0.008,-0.03 0.011,-0.045 -0.003,0.016 -0.007,0.03 -0.011,0.045 z m 0.012,-0.05 c 0.009,-0.034 0.017,-0.0681 0.025,-0.1021 -0.009,0.035 -0.017,0.0681 -0.025,0.1021 z m 0.073,-0.3131 c 0.004,-0.015 0.007,-0.0309 0.011,-0.0459 -0.003,0.015 -0.007,0.0309 -0.011,0.0459 z m 0.058,-0.2639 c 0.003,-0.016 0.007,-0.03 0.01,-0.046 -0.003,0.016 -0.006,0.03 -0.01,0.046 z m 0.012,-0.05 c 0.007,-0.034 0.015,-0.069 0.022,-0.103 -0.008,0.035 -0.015,0.068 -0.022,0.103 z m 0.022,-0.106 c 0.004,-0.015 0.007,-0.031 0.01,-0.046 -0.004,0.015 -0.006,0.031 -0.01,0.046 z m 0.011,-0.055 c 0.003,-0.015 0.006,-0.03 0.011,-0.046 -0.005,0.015 -0.008,0.031 -0.011,0.046 z m 0.032,-0.156 c 0.003,-0.015 0.006,-0.0311 0.009,-0.0461 -0.003,0.016 -0.006,0.0301 -0.009,0.0461 z m 0.011,-0.055 c 0.003,-0.015 0.007,-0.03 0.01,-0.046 -0.003,0.015 -0.007,0.031 -0.01,0.046 z m 0.042,-0.212 c 0.003,-0.015 0.005,-0.03 0.009,-0.045 -0.004,0.016 -0.006,0.029 -0.009,0.045 z m 0.009,-0.049 c 0.008,-0.034 0.014,-0.069 0.02,-0.102 -0.006,0.034 -0.012,0.068 -0.02,0.102 z m 0.021,-0.11 c 0.002,-0.015 0.005,-0.028 0.008,-0.043 -0.003,0.015 -0.005,0.029 -0.008,0.043 z m 0.039,-0.212 c 0.003,-0.014 0.005,-0.029 0.008,-0.043 -0.004,0.014 -0.005,0.029 -0.008,0.043 z m 0.017,-0.103 c 0.007,-0.034 0.013,-0.068 0.019,-0.1021 -0.006,0.0341 -0.012,0.0691 -0.019,0.1021 z m 0.029,-0.164 c 0.002,-0.015 0.005,-0.0311 0.007,-0.0461 -0.002,0.016 -0.005,0.0301 -0.007,0.0461 z m 0.017,-0.1041 c 0.002,-0.016 0.006,-0.0309 0.008,-0.0469 -0.002,0.016 -0.006,0.0319 -0.008,0.0469 z m 0.01,-0.0579 c 0.002,-0.013 0.004,-0.0251 0.007,-0.0391 -0.003,0.013 -0.005,0.0261 -0.007,0.0391 z m 0.016,-0.101 c 0.003,-0.017 0.006,-0.035 0.009,-0.052 -0.004,0.018 -0.007,0.034 -0.009,0.052 z m 0.008,-0.055 c 0.002,-0.016 0.006,-0.0321 0.007,-0.0471 -0.001,0.016 -0.004,0.0311 -0.007,0.0471 z m 0.041,-0.2731 c 0.002,-0.013 0.004,-0.0259 0.006,-0.0379 -0.002,0.012 -0.004,0.026 -0.006,0.0379 z m 0.016,-0.1009 c 0.002,-0.018 0.004,-0.0341 0.007,-0.0521 -0.002,0.0171 -0.005,0.0351 -0.007,0.0521 z m 0.016,-0.114 c 0.001,-0.013 0.003,-0.025 0.005,-0.038 -0.003,0.012 -0.004,0.025 -0.005,0.038 z m 0.02,-0.163 c 0.002,-0.013 0.005,-0.026 0.007,-0.039 -0.002,0.013 -0.005,0.025 -0.007,0.039 z m 0.008,-0.054 c 0.002,-0.012 0.004,-0.025 0.005,-0.037 -10e-4,0.013 -0.003,0.024 -0.005,0.037 z m 0.007,-0.0511 c 0.002,-0.016 0.004,-0.0319 0.006,-0.0469 -0.002,0.015 -0.004,0.0319 -0.006,0.0469 z m 0.006,-0.0489 c 0.002,-0.017 0.004,-0.034 0.007,-0.051 -0.003,0.017 -0.006,0.034 -0.007,0.051 z m 0.013,-0.116 c 0.002,-0.012 0.004,-0.025 0.006,-0.037 -0.002,0.012 -0.004,0.024 -0.006,0.037 z m 0.021,-0.163 c 10e-4,-0.013 0.003,-0.026 0.004,-0.039 -10e-4,0.012 -0.003,0.026 -0.004,0.039 z m 0.006,-0.054 c 10e-4,-0.013 0.003,-0.024 0.004,-0.037 -0.002,0.013 -0.003,0.025 -0.004,0.037 z m 0.005,-0.0511 c 0.003,-0.033 0.007,-0.0669 0.011,-0.1009 -0.004,0.034 -0.008,0.0669 -0.011,0.1009 z m 0.019,-0.1649 c 10e-4,-0.013 0.002,-0.0271 0.004,-0.0401 -0.002,0.014 -0.003,0.0261 -0.004,0.0401 z m 0.016,-0.1651 c 0.002,-0.013 0.003,-0.0259 0.004,-0.0389 -10e-4,0.013 -0.002,0.0249 -0.004,0.0389 z m 0.005,-0.0529 c 10e-4,-0.013 0.002,-0.025 0.003,-0.039 -0.001,0.013 -0.002,0.026 -0.003,0.039 z m 0.005,-0.051 c 0.001,-0.017 0.003,-0.0341 0.004,-0.0511 -0.001,0.016 -0.003,0.0341 -0.004,0.0511 z m 0.016,-0.167 c 0,-0.013 0.002,-0.027 0.003,-0.04 -0.001,0.014 -0.003,0.026 -0.003,0.04 z m 0.019,-0.22 c 10e-4,-0.012 0.002,-0.0251 0.003,-0.0371 -0.002,0.012 -0.003,0.0251 -0.003,0.0371 z m 0.004,-0.051 c 0.001,-0.017 0.002,-0.034 0.004,-0.051 -0.003,0.018 -0.004,0.034 -0.004,0.051 z m 0.003,-0.053 c 10e-4,-0.016 0.002,-0.032 0.004,-0.048 -10e-4,0.015 -0.003,0.033 -0.004,0.048 z m 0.01,-0.1141 c 0,-0.014 0.002,-0.0259 0.002,-0.0379 0,0.011 -0.002,0.0249 -0.002,0.0379 z m 0.002,-0.0519 c 0.002,-0.016 0.004,-0.034 0.005,-0.05 -0.001,0.017 -0.003,0.033 -0.005,0.05 z m 0.013,-0.169 c 0.001,-0.012 0.002,-0.025 0.002,-0.037 0,0.013 -10e-4,0.025 -0.002,0.037 z m 0.01,-0.168 c 10e-4,-0.011 0.002,-0.023 0.002,-0.035 -10e-4,0.012 -0.002,0.023 -0.002,0.035 z m 0.005,-0.102 c 0.001,-0.018 0.002,-0.034 0.003,-0.051 -10e-4,0.016 -0.002,0.034 -0.003,0.051 z m 0.004,-0.061 c 0,-0.013 10e-4,-0.028 0.002,-0.041 -10e-4,0.014 -0.002,0.027 -0.002,0.041 z m 0.005,-0.109 c 0.001,-0.013 0.001,-0.027 0.002,-0.04 -10e-4,0.014 -10e-4,0.027 -0.002,0.04 z m 0.003,-0.051 c 0,-0.017 0.002,-0.033 0.003,-0.05 -10e-4,0.016 -0.003,0.034 -0.003,0.05 z m 0.004,-0.062 c 0,-0.013 10e-4,-0.026 10e-4,-0.039 0,0.013 -10e-4,0.025 -10e-4,0.039 z m 0.004,-0.108 c 10e-4,-0.012 10e-4,-0.026 0.002,-0.039 -10e-4,0.013 -10e-4,0.026 -0.002,0.039 z m 0.007,-0.17 c 0,-0.012 10e-4,-0.0231 10e-4,-0.0341 0,0.012 -10e-4,0.0221 -10e-4,0.0341 z m 0.003,-0.1031 c 10e-4,-0.01 10e-4,-0.0189 10e-4,-0.0299 0,-0.005 0,-0.011 0.001,-0.017 -0.001,0.016 -0.001,0.0319 -0.002,0.0469 z m 10e-4,-1.761 c 0,-0.003 0,-0.0059 -10e-4,-0.0089 0,-0.002 0,-0.0021 0,-0.0041 0,0.004 10e-4,0.009 10e-4,0.013 z m -10e-4,-0.015 c 0,-10e-4 0,-10e-4 0,-0.002 0,-0.002 0,-0.0039 0,-0.0059 0,0.002 0,0.0059 0,0.0079 z m -0.004,-0.1289 c 0,-0.008 -0.001,-0.014 -0.001,-0.021 0,0.008 0.001,0.013 0.001,0.021 z m -0.002,-0.041 c 0,-0.007 0,-0.0151 0,-0.0221 0,0.008 0,0.0151 0,0.0221 z m -10e-4,-0.04 c 0,-0.008 -0.001,-0.015 -0.001,-0.023 0,0.007 0.001,0.016 0.001,0.023 z m -0.002,-0.043 c 0,-0.007 0,-0.015 -10e-4,-0.022 10e-4,0.008 10e-4,0.015 10e-4,0.022 z m -0.002,-0.041 c 0,-0.008 0,-0.014 -0.001,-0.021 0.001,0.006 0.001,0.014 0.001,0.021 z m -0.001,-0.0421 c -10e-4,-0.007 -10e-4,-0.0149 -10e-4,-0.0219 0,0.008 0,0.0149 10e-4,0.0219 z m -0.002,-0.0399 c -0.001,-0.009 -0.001,-0.017 -0.001,-0.024 0,0.009 0,0.015 0.001,0.024 z m -0.002,-0.043 c 0,-0.006 -0.002,-0.014 -0.002,-0.021 0,0.008 0.002,0.014 0.002,0.021 z m -0.003,-0.0421 c 0,-0.006 -10e-4,-0.0129 -10e-4,-0.0189 0,0.007 10e-4,0.0129 10e-4,0.0189 z m -0.002,-0.041 c 0,-0.006 -10e-4,-0.0129 -10e-4,-0.0189 0,0.006 10e-4,0.0119 10e-4,0.0189 z m -0.016,-0.3069 c 0,-0.007 -10e-4,-0.014 -10e-4,-0.022 0,0.008 0,0.015 10e-4,0.022 z m -0.003,-0.041 c 0,-0.008 -10e-4,-0.0151 -10e-4,-0.0231 0,0.008 10e-4,0.0161 10e-4,0.0231 z m -0.01,-0.1651 c -0.001,-0.009 -0.002,-0.0199 -0.002,-0.0299 0,0.0109 10e-4,0.0199 0.002,0.0299 z m -0.008,-0.099 c 0,-0.0079 0,-0.0149 -0.002,-0.0229 0.002,0.007 0.002,0.015 0.002,0.0229 z m -0.006,-0.0849 c -10e-4,-0.006 -0.002,-0.014 -0.002,-0.02 0.001,0.007 0.001,0.013 0.002,0.02 z m -0.004,-0.0401 c 0,-0.007 -0.001,-0.0139 -0.001,-0.0209 0,0.006 0.001,0.0149 0.001,0.0209 z m -0.005,-0.082 c -10e-4,-0.008 -10e-4,-0.0139 -0.002,-0.0219 10e-4,0.007 0.002,0.0149 0.002,0.0219 z m -0.004,-0.041 c -10e-4,-0.007 -10e-4,-0.0149 -0.002,-0.0219 0.002,0.007 0.002,0.0139 0.002,0.0219 z m -0.003,-0.041 c 0,-0.007 -10e-4,-0.0139 -10e-4,-0.0209 0,0.006 10e-4,0.0139 10e-4,0.0209 z m -0.003,-0.0419 c -10e-4,-0.007 -10e-4,-0.013 -0.002,-0.02 0.001,0.007 0.001,0.014 0.002,0.02 z m -0.028,-0.3051 c -0.001,-0.007 -0.002,-0.0129 -0.002,-0.0189 0,0.006 10e-4,0.0129 0.002,0.0189 z m -0.004,-0.041 c -10e-4,-0.006 -10e-4,-0.0129 -0.002,-0.0189 10e-4,0.007 10e-4,0.0119 0.002,0.0189 z m -0.003,-0.041 c -10e-4,-0.004 -10e-4,-0.012 -0.002,-0.017 10e-4,0.005 10e-4,0.011 0.002,0.017 z m -0.008,-0.0809 c -0.001,-0.007 -0.001,-0.0121 -0.002,-0.0181 0,0.006 10e-4,0.0121 0.002,0.0181 z m -0.009,-0.081 c 0,-0.003 0,-0.007 -10e-4,-0.009 10e-4,0.003 10e-4,0.005 10e-4,0.009 z m -0.011,-0.1031 c -10e-4,-0.005 -0.002,-0.012 -0.002,-0.017 0,0.0061 10e-4,0.011 0.002,0.017 z m -0.009,-0.0799 c -10e-4,-0.007 -10e-4,-0.011 -0.002,-0.018 0,0.006 10e-4,0.012 0.002,0.018 z m -0.005,-0.041 c 0,-0.005 -0.001,-0.0121 -0.002,-0.0171 0.002,0.005 0.002,0.0111 0.002,0.0171 z m -0.003,-0.039 c -0.001,-0.007 -0.002,-0.0121 -0.002,-0.0191 0,0.006 10e-4,0.0121 0.002,0.0191 z m -0.01,-0.082 c 0,-0.006 -10e-4,-0.01 -0.002,-0.016 10e-4,0.005 0.002,0.01 0.002,0.016 z m -0.004,-0.041 c -10e-4,-0.005 -0.002,-0.01 -0.002,-0.016 0,0.005 0.001,0.011 0.002,0.016 z m -0.006,-0.039 c 0,-0.005 -0.002,-0.012 -0.002,-0.019 0,0.007 0.002,0.013 0.002,0.019 z m -0.018,-0.147 c -10e-4,-0.004 -10e-4,-0.009 -0.002,-0.012 10e-4,0.004 10e-4,0.008 0.002,0.012 z m -0.004,-0.037 c 0,-0.006 -10e-4,-0.01 -0.002,-0.016 0.001,0.005 0.002,0.011 0.002,0.016 z m -0.005,-0.0391 c 0,-0.006 -10e-4,-0.0109 -0.002,-0.0169 10e-4,0.005 0.002,0.0109 0.002,0.0169 z m -0.005,-0.0399 c -0.001,-0.005 -0.001,-0.012 -0.002,-0.017 10e-4,0.006 10e-4,0.011 0.002,0.017 z m -0.01,-0.0811 c -0.002,-0.004 -0.002,-0.0109 -0.004,-0.0159 0.002,0.006 0.002,0.0099 0.004,0.0159 z m -0.012,-0.0799 c -10e-4,-0.005 -10e-4,-0.01 -0.002,-0.015 10e-4,0.005 10e-4,0.009 0.002,0.015 z m -0.037,-0.266 c -10e-4,-0.004 -10e-4,-0.006 -0.002,-0.011 0,0.004 10e-4,0.008 0.002,0.011 z m -0.078,-0.499 c 0,-0.004 0,-0.007 0,-0.01 0,0.003 0,0.007 0,0.01 z m -0.006,-0.039 c -0.001,-0.003 -0.001,-0.007 -0.002,-0.011 10e-4,0.004 10e-4,0.007 0.002,0.011 z m -0.007,-0.039 c 0,-0.004 -10e-4,-0.0071 -10e-4,-0.0101 0,0.003 10e-4,0.0071 10e-4,0.0101 z m -0.005,-0.04 c -0.001,-0.003 -0.001,-0.0051 -0.002,-0.0091 10e-4,0.003 10e-4,0.007 0.002,0.0091 z m -0.007,-0.0391 c -10e-4,-0.003 -10e-4,-0.0049 -10e-4,-0.0089 0,0.003 10e-4,0.0059 10e-4,0.0089 z m -0.007,-0.039 c 0,-0.003 -10e-4,-0.0049 -10e-4,-0.0079 10e-4,0.003 10e-4,0.0049 10e-4,0.0079 z m -0.006,-0.0399 -10e-4,-0.002 c 0,0.001 0,0.002 10e-4,0.002 z m -0.027,-0.149 c 0,-0.002 0,-0.002 0,-0.004 0,0.001 0,0.003 0,0.004 z m -0.014,-0.072 c 0,-0.004 0,-0.007 -0.002,-0.01 0.002,0.003 0.002,0.007 0.002,0.01 z m -0.007,-0.038 c 0,-0.003 -10e-4,-0.008 -0.002,-0.012 10e-4,0.004 0.002,0.008 0.002,0.012 z m -0.007,-0.0391 c 0,-0.0039 -10e-4,-0.0079 -0.002,-0.0119 10e-4,0.004 10e-4,0.008 0.002,0.0119 z m -0.007,-0.0399 c -10e-4,-0.003 -10e-4,-0.0061 -0.002,-0.0101 0.002,0.004 0.002,0.0071 0.002,0.0101 z m -0.007,-0.0401 c 0,-0.002 0,-0.0039 -0.001,-0.0069 0,0.003 0.001,0.0049 0.001,0.0069 z m -0.007,-0.039 c 0,-0.001 -10e-4,-0.0029 -10e-4,-0.0049 10e-4,0.002 10e-4,0.0029 10e-4,0.0049 z m -0.074,-0.377 c 0,-0.002 -10e-4,-0.0029 -10e-4,-0.0049 0,0.002 10e-4,0.0039 10e-4,0.0049 z m -0.008,-0.0389 c 0,0 0,-0.002 -10e-4,-0.003 10e-4,0.001 10e-4,0.002 10e-4,0.003 z m -0.008,-0.038 c 0,-10e-4 0,-10e-4 0,-0.003 0,0.001 0,0.002 0,0.003 z m -0.08,-0.375 c 0,-10e-4 -0.002,-0.002 -0.002,-0.003 0.002,0.001 0.002,0.001 0.002,0.003 z m -17.942,-20.07805 -0.003,-9.9e-4 c 10e-4,0.001 10e-4,9.9e-4 0.003,9.9e-4 z m -0.038,-0.01199 c -10e-4,-0.001 0,-0.00101 -10e-4,-0.00101 z m -0.357,-0.12 c -0.002,0 -0.002,-0.00101 -0.004,-0.00101 0,0 0.002,0.00101 0.004,0.00101 z m -0.398,-0.12601 c 0,-0.001 -0.002,-0.001 -0.003,-0.002 0.002,10e-4 0.002,10e-4 0.003,0.002 z m -0.036,-0.011 c -0.003,0 -0.003,0 -0.006,-0.002 0.003,0 0.004,0.001 0.006,0.002 z m -0.11,-0.03399 c -0.002,-10e-4 -0.002,-0.00101 -0.005,-0.00101 10e-4,0 0.003,1e-5 0.005,0.00101 z m -0.288,-0.086 c -0.004,-0.001 -0.006,-0.001 -0.009,-0.002 0.003,0 0.007,10e-4 0.009,0.002 z m -0.074,-0.021 c -0.003,-10e-4 -0.005,-0.00201 -0.009,-0.00301 0.003,0.001 0.006,0.00201 0.009,0.00301 z m -0.112,-0.033 c -0.003,0 -0.005,-0.001 -0.008,-0.002 0.003,10e-4 0.005,10e-4 0.008,0.002 z m -0.291,-0.08001 c -0.003,-0.001 -0.007,-0.002 -0.01,-0.003 0.004,0.001 0.007,0.002 0.01,0.003 z m -0.037,-0.00999 c -0.004,-0.001 -0.008,-0.00201 -0.011,-0.00301 0.003,0.001 0.008,0.00201 0.011,0.00301 z m -0.038,-0.01001 c -0.004,-0.001 -0.008,-0.002 -0.012,-0.004 0.004,0.001 0.009,0.003 0.012,0.004 z m -0.038,-0.011 c -0.004,-0.001 -0.007,-9.9e-4 -0.011,-0.00299 0.004,0.001 0.007,0.00199 0.011,0.00299 z m -0.254,-0.066 c -0.003,-0.001 -0.007,-0.002 -0.01,-0.003 0.004,0.001 0.006,0.002 0.01,0.003 z m -0.037,-0.00999 c -0.003,-0.001 -0.008,-0.00201 -0.011,-0.00301 0.003,0.001 0.007,0.00201 0.011,0.00301 z m -0.036,-0.009 c -0.004,-0.001 -0.01,-0.002 -0.014,-0.004 0.004,0.002 0.008,0.003 0.014,0.004 z m -0.192,-0.04801 c -0.003,-0.001 -0.009,-0.00199 -0.012,-0.00299 0.004,0.001 0.008,0.00199 0.012,0.00299 z m -0.038,-0.00999 c -0.003,0 -0.007,-0.001 -0.011,-0.002 0.003,0.001 0.008,0.002 0.011,0.002 z m -0.103,-0.02501 c -0.005,-0.001 -0.007,-0.001 -0.012,-0.002 0.003,0.001 0.008,0.002 0.012,0.002 z m -0.034,-0.008 c -0.005,-0.001 -0.012,-0.002 -0.017,-0.003 0.007,0.001 0.012,0.002 0.017,0.003 z m -0.077,-0.018 c -0.006,-0.001 -0.01,-0.002 -0.016,-0.004 0.005,0.001 0.011,0.003 0.016,0.004 z m -0.078,-0.01799 c -0.005,-0.001 -0.011,-0.003 -0.016,-0.004 0.006,0.001 0.011,0.002 0.016,0.004 z m -0.039,-0.009 c -0.005,-0.001 -0.011,-0.003 -0.016,-0.004 0.006,0.001 0.011,0.002 0.016,0.004 z m -0.039,-0.00901 c -0.006,-0.002 -0.011,-0.003 -0.017,-0.004 0.007,0.001 0.012,0.003 0.017,0.004 z m -0.039,-0.009 c -0.006,-0.001 -0.011,-0.003 -0.017,-0.004 0.007,0.001 0.012,0.002 0.017,0.004 z m -0.039,-0.009 c -0.005,-0.001 -0.011,-0.003 -0.016,-0.004 0.006,0.002 0.011,0.003 0.016,0.004 z m -0.139,-0.03099 c -0.004,-0.001 -0.009,-0.00301 -0.013,-0.00301 0.004,0.001 0.008,0.00101 0.013,0.00301 z m -0.038,-0.00901 c -0.005,-0.001 -0.011,-0.002 -0.016,-0.003 0.007,0.001 0.011,0.002 0.016,0.003 z m -0.038,-0.00799 c -0.006,-0.001 -0.011,-0.002 -0.017,-0.004 0.007,0.002 0.013,0.003 0.017,0.004 z m -0.039,-0.009 c -0.005,-0.001 -0.012,-0.00201 -0.017,-0.00301 0.006,0.001 0.011,0.00201 0.017,0.00301 z m -0.039,-0.008 c -0.006,-0.001 -0.011,-0.00201 -0.017,-0.00401 0.007,0.002 0.012,0.00301 0.017,0.00401 z m -0.039,-0.00801 c -0.006,-0.002 -0.012,-0.003 -0.018,-0.004 0.007,0.001 0.012,0.002 0.018,0.004 z m -0.078,-0.017 c -0.006,-0.001 -0.012,-0.002 -0.017,-0.004 0.005,0.002 0.01,0.003 0.017,0.004 z m -0.079,-0.01599 c -0.004,-0.002 -0.009,-0.00201 -0.015,-0.00301 0.005,0 0.011,0.00201 0.015,0.00301 z m -0.059,-0.013 c -0.006,-0.001 -0.012,-0.00201 -0.018,-0.00301 0.007,0.001 0.014,0.00201 0.018,0.00301 z m -0.038,-0.007 c -0.007,-0.002 -0.012,-0.003 -0.019,-0.004 0.007,0.001 0.014,0.002 0.019,0.004 z m -0.04,-0.00901 c -0.006,-0.001 -0.012,-0.00199 -0.018,-0.00299 0.007,0.001 0.012,0.00199 0.018,0.00299 z m -0.038,-0.007 c -0.006,-0.002 -0.014,-0.003 -0.02,-0.004 0.007,0.001 0.013,0.002 0.02,0.004 z m -0.04,-0.008 c -0.007,-0.001997 -0.013,-0.002995 -0.02,-0.003995 0.008,0.001 0.014,0.001998 0.02,0.003995 z m -0.039,-0.007992 c -0.007,-0.001 -0.013,-0.002998 -0.02,-0.003998 0.006,0.001 0.013,0.002998 0.02,0.003998 z m -0.04,-0.008011 c -0.006,-0.001 -0.014,-0.002998 -0.02,-0.003998 0.007,0.002 0.013,0.002998 0.02,0.003998 z m -0.117,-0.022995 c -0.008,-0.001 -0.017,-0.002998 -0.023,-0.003998 0.007,0.001 0.015,0.002998 0.023,0.003998 z m -0.079,-0.015 c -0.015,-0.003 -0.026,-0.005004 -0.04,-0.007004 0.012,0.002 0.026,0.005004 0.04,0.007004 z m -0.094,-0.018005 c -0.009,-0.001 -0.018,-0.002998 -0.025,-0.003998 0.008,0.001 0.015,0.002998 0.025,0.003998 z m -0.041,-0.006989 c -0.009,-0.002 -0.017,-0.003005 -0.024,-0.005005 0.006,0.002 0.015,0.003005 0.024,0.005005 z m -0.04,-0.007003 c -0.009,-0.001 -0.018,-0.001998 -0.024,-0.003998 0.007,0.001 0.014,0.001998 0.024,0.003998 z m -0.042,-0.007996 c -0.006,-0.001 -0.015,-0.002998 -0.022,-0.003998 0.007,0.001 0.014,0.002998 0.022,0.003998 z m -0.239,-0.042007 c -0.011,-0.002 -0.025,-0.003997 -0.035,-0.005997 0.011,0.002 0.022,0.003997 0.035,0.005997 z m -0.098,-0.016999 c -0.006,-0.001 -0.013,-0.002006 -0.019,-0.003006 0.007,0.001 0.013,0.002006 0.019,0.003006 z"
     fill="#502815"
     id="path1563" />
  <path
     fill-rule="evenodd"
     clip-rule="evenodd"
     d="m 27.608007,55.081982 c 0.01,0 0.018,0 0.027,0 -0.01,0 -0.018,0 -0.027,0 z m 0.052,0 c 0.007,0 0.014,0 0.021,0 -0.007,0 -0.015,0 -0.021,0 z m 0.1,-0.001 c 0.003,0 0.005,0 0.007,0 -0.001,0 -0.004,0 -0.007,0 z m -2.092,-0.236 c -0.712,0 -1.341,-0.094 -1.814,-0.233 -0.877,-0.257 -1.227,-0.662 -1.048,-1.053 0.177,-0.39 0.88,-0.765 1.16,-1.023 0.232,-0.213 0.177,-0.346 -0.392,-0.346 -0.12,0 -0.262,0.006 -0.428,0.019 -0.67,0.048 -1.738,0.2 -2.664,0.2 -0.403,0 -0.779,-0.029 -1.085,-0.107 -1.007,-0.258 -1.241,-1.054 -1.969,-1.71 -0.726,-0.656 -1.943,-1.172 -2.951,-1.945 -0.228,-0.174 -0.444,-0.362 -0.641,-0.555 3.393,1.358 6.756,1.973 9.991,1.973 12.158,0 22.533,-8.68 26.079,-19.205 0.054,0.347 0.13,0.68 0.251,0.966 0.329,0.773 0.984,1.195 1.57,1.593 0.586,0.398 1.101,0.773 1.387,1.322 0.285,0.549 0.34,1.271 0.268,1.893 -0.074,0.621 -0.276,1.142 -0.913,1.834 -0.637,0.694 -1.709,1.56 -2.525,2.157 -0.816,0.597 -1.379,0.925 -1.777,1.346 -0.397,0.422 -0.632,0.937 -0.655,1.359 -0.023,0.422 0.164,0.75 0.116,1.125 -0.047,0.375 -0.327,0.796 -0.865,1.195 -0.54,0.398 -1.336,0.773 -1.97,1.171 -0.632,0.398 -1.101,0.82 -1.382,1.417 -0.281,0.597 -0.375,1.368 -0.433,1.761 -0.035,0.235 -0.057,0.335 -0.078,0.384 -1.265,0.854 -2.601,1.605 -4.001,2.242 -0.327,0.142 -0.675,0.289 -1.079,0.447 -0.568,0.222 -1.249,0.467 -2.053,0.467 -0.109,0 -0.22,-0.005 -0.332,-0.014 -0.778,-0.066 -1.665,-0.374 -2.698,-0.374 -0.229,0 -0.464,0.015 -0.708,0.051 -1.342,0.2 -2.915,1.04 -4.404,1.407 -0.683,0.168 -1.35,0.236 -1.957,0.236 z m 29.402,-26.445 c 0,-0.006 0.001,-0.013 0.001,-0.019 v 0.002 c -0.001,0.006 -0.001,0.012 -0.001,0.017 z m 0.001,-0.035 c 10e-4,-0.011 10e-4,-0.024 10e-4,-0.036 0,0.012 0,0.024 -10e-4,0.036 z m 0.002,-0.054 c 0,-0.011 0,-0.023 0.001,-0.035 -0.001,0.011 -0.001,0.024 -0.001,0.035 z m 0.001,-0.051 c 0,-0.014 10e-4,-0.028 10e-4,-0.042 0,0.013 -10e-4,0.028 -10e-4,0.042 z m 0.003,-0.117 c 0,-0.012 0,-0.024 10e-4,-0.035 -10e-4,0.012 -10e-4,0.023 -10e-4,0.035 z m 0,-0.054 c 0,-0.012 0,-0.023 10e-4,-0.035 -10e-4,0.011 -10e-4,0.024 -10e-4,0.035 z m 0.005,-0.392 c 0,-0.012 0,-0.024 0,-0.035 0,0.012 0,0.023 0,0.035 z m 0,-0.105 c 0,-0.017 0,-0.034 0,-0.051 0,0.017 0,0.035 0,0.051 z m 0,-0.194 c 0,-0.007 0,-0.017 0,-0.024 0,0.008 0,0.015 0,0.024 z m -10e-4,-0.084 c 0,-0.008 0,-0.018 0,-0.024 0,0.008 0,0.016 0,0.024 z m -10e-4,-0.127 c 0,-0.008 0,-0.014 0,-0.023 0,0.008 0,0.016 0,0.023 z m 0,-0.041 c -0.001,-0.007 -0.001,-0.017 -0.001,-0.024 0,0.008 0,0.015 0.001,0.024 z m -0.009,-0.436 c 0,-0.008 0,-0.014 -0.001,-0.022 0.001,0.008 0.001,0.015 0.001,0.022 z m -0.002,-0.05 c 0,-0.002 0,-0.005 0,-0.008 0,0.001 0,0.001 0,0.002 0,0.001 0,0.001 0,0.002 0,0.002 0,0.002 0,0.004 z"
     fill="#e2784b"
     id="path1565" />
  <path
     fill-rule="evenodd"
     clip-rule="evenodd"
     d="m 41.813007,51.100982 0.143,-0.091 c 0.147,-0.092 0.437,-0.276 0.613,-0.389 0.178,-0.114 0.242,-0.157 0.286,-0.186 -0.148,0.1 -0.299,0.198 -0.448,0.294 -0.003,0.003 -0.007,0.005 -0.01,0.007 -0.007,0.004 -0.014,0.009 -0.021,0.013 -0.006,0.004 -0.013,0.008 -0.018,0.012 -0.004,0.003 -0.008,0.005 -0.012,0.007 -0.01,0.006 -0.018,0.011 -0.025,0.017 -0.003,10e-4 -0.005,0.003 -0.008,0.005 -0.011,0.006 -0.021,0.012 -0.03,0.019 -10e-4,0 -0.002,10e-4 -0.003,0.002 -0.011,0.007 -0.022,0.014 -0.033,0.02 -0.001,0.001 -0.001,0.001 -0.002,0.002 -0.046,0.029 -0.091,0.057 -0.138,0.086 -0.007,0.004 -0.014,0.009 -0.02,0.013 -0.005,0.003 -0.009,0.005 -0.013,0.008 -0.009,0.006 -0.018,0.011 -0.027,0.017 -0.002,10e-4 -0.003,0.002 -0.005,0.003 -0.01,0.006 -0.02,0.012 -0.029,0.018 -0.002,0.001 -0.002,0.001 -0.004,0.002 -0.021,0.014 -0.043,0.027 -0.064,0.04 -0.033,0.02 -0.066,0.041 -0.099,0.061 h -0.002 c -0.01,0.007 -0.02,0.013 -0.031,0.02 z m 1.049,-0.67 c 0.014,-0.01 0.027,-0.02 0.039,-0.049 0.021,-0.049 0.043,-0.149 0.078,-0.384 0.058,-0.393 0.151,-1.164 0.433,-1.761 0.281,-0.597 0.75,-1.019 1.382,-1.417 0.634,-0.398 1.43,-0.773 1.97,-1.171 0.538,-0.399 0.818,-0.82 0.865,-1.195 0.048,-0.375 -0.14,-0.703 -0.116,-1.125 0.023,-0.422 0.258,-0.937 0.655,-1.359 0.398,-0.421 0.961,-0.749 1.777,-1.346 0.816,-0.597 1.889,-1.463 2.525,-2.157 0.637,-0.692 0.839,-1.213 0.913,-1.834 0.072,-0.621 0.018,-1.343 -0.268,-1.893 -0.286,-0.548 -0.801,-0.923 -1.387,-1.322 -0.586,-0.398 -1.241,-0.82 -1.57,-1.593 -0.121,-0.286 -0.197,-0.619 -0.251,-0.966 3.037,-9.015 1.066,-19.383 -9.086,-26.80703 -3.32,-2.428 -6.012,-3.051 -8.704,-3.674999 0.006,0.001 0.013,0.002006 0.019,0.003006 0.007,0.001 0.013,9.9e-4 0.019,0.00299 0.009,0.002 0.018,0.004005 0.028,0.005005 0.006,0.001 0.01,0.001991 0.016,0.002991 0.011,0.002 0.024,0.004012 0.035,0.006012 0.004,0.001 0.009,9.99e-4 0.013,0.001999 0.009,0.002 0.019,0.00299 0.027,0.00499 0.005,10e-4 0.01,0.001998 0.016,0.001998 0.008,0.002 0.017,0.003005 0.024,0.005005 0.006,0.001 0.011,0.002006 0.017,0.003006 0.008,0.001 0.016,0.001998 0.023,0.003998 0.005,0.002 0.012,0.002006 0.017,0.003006 0.008,10e-4 0.016,0.001998 0.023,0.003998 0.005,0.001 0.012,0.001991 0.018,0.002991 0.007,0.001 0.014,0.002997 0.022,0.003997 0.007,0.001 0.012,0.002006 0.018,0.003006 0.008,0.001 0.017,0.002998 0.022,0.003998 0.006,0.001 0.013,0.002006 0.018,0.003006 0.007,0.002 0.016,0.002998 0.024,0.003998 0.005,0 0.011,0.001999 0.016,0.001999 0.007,0.002 0.016,0.003005 0.024,0.005005 0.005,0.001 0.01,0.00199 0.016,0.00299 0.008,0.001 0.017,0.002998 0.025,0.003998 0.005,0.001 0.01,0.002006 0.014,0.003006 0.011,0.002 0.022,0.003997 0.034,0.005997 0.003,0.001 0.004,9.99e-4 0.006,0.001999 0.014,0.002 0.025,0.004004 0.04,0.007004 0.005,0.001 0.008,0.001999 0.013,0.001999 0.008,0.002 0.017,0.004004 0.026,0.005004 0.005,0.001 0.012,0.002998 0.017,0.003998 0.007,0.001 0.016,0.002998 0.023,0.003998 0.005,0.001 0.012,0.002006 0.017,0.003006 0.008,0.002 0.015,0.00299 0.023,0.00499 0.006,0.001 0.013,0.002006 0.018,0.003006 0.007,0.001 0.014,0.002997 0.021,0.003997 0.006,0.002 0.013,0.002998 0.019,0.003998 0.006,0.001 0.014,0.002998 0.02,0.003998 0.007,0.001 0.014,0.003013 0.02,0.004013 0.007,0.001 0.013,0.002998 0.02,0.003998 0.008,0.001 0.013,0.001998 0.02,0.003998 0.007,0.001 0.013,0.001997 0.02,0.003997 0.008,0.001001 0.014,0.002001 0.02,0.004001 0.006,0.001 0.014,0.002 0.02,0.004 0.006,0.001 0.014,0.00199 0.021,0.00399 0.006,0.001 0.012,0.00201 0.018,0.00301 0.008,0.002 0.015,0.003 0.021,0.005 0.007,0.001 0.012,0.002 0.019,0.004 0.007,0.001 0.014,0.002 0.021,0.004 0.006,0.001 0.012,0.00201 0.018,0.00301 0.016,0.003 0.029,0.00599 0.044,0.00999 0.006,0.001 0.011,0.00101 0.015,0.00301 0.009,0.001 0.015,0.00299 0.023,0.00399 0.006,0.001 0.012,0.003 0.019,0.004 0.007,0.001 0.014,0.003 0.021,0.004 0.006,0.002 0.012,0.003 0.017,0.004 0.008,0.002 0.015,0.003 0.022,0.005 0.006,0.001 0.012,0.00199 0.019,0.00299 0.006,0.002 0.014,0.00301 0.021,0.00501 0.006,0.001 0.012,0.002 0.018,0.004 0.007,0.001 0.015,0.00299 0.022,0.00399 0.006,0.002 0.011,0.00302 0.017,0.00402 0.008,0.002 0.016,0.00299 0.022,0.00499 0.005,0.001 0.012,0.002 0.017,0.003 0.009,0.002 0.015,0.00401 0.022,0.00501 0.006,0.002 0.011,0.00299 0.017,0.00399 0.007,0.002 0.015,0.00299 0.022,0.00499 0.005,0.001 0.011,0.00201 0.016,0.00301 0.008,0.002 0.017,0.004 0.025,0.006 0.004,0 0.009,0.001 0.013,0.003 0.009,0.001 0.017,0.00299 0.025,0.00499 0.002,0.001 0.005,0.00102 0.008,0.00202 0.018,0.004 0.039,0.009 0.059,0.013 0.003,0.001 0.006,0.001 0.009,0.002 0.009,0.002 0.016,0.00399 0.023,0.00499 0.005,0.001 0.011,0.00299 0.016,0.00399 0.007,0.002 0.016,0.00301 0.022,0.00501 0.006,0.001 0.011,0.003 0.017,0.004 0.007,0.002 0.016,0.003 0.022,0.005 0.006,0.001 0.011,0.002 0.017,0.004 0.008,0.002 0.016,0.003 0.023,0.005 0.005,0.001 0.011,0.003 0.016,0.004 0.007,0.001 0.015,0.00301 0.023,0.00501 0.005,0 0.011,0.00199 0.016,0.00399 0.008,0.002 0.015,0.00299 0.022,0.00499 0.007,0.001 0.012,0.00302 0.018,0.00402 0.007,0.002 0.014,0.00299 0.022,0.00499 0.006,0.002 0.01,0.00299 0.016,0.00399 0.007,0.002 0.016,0.00401 0.023,0.00501 0.004,0.002 0.01,0.003 0.016,0.004 0.007,0.002 0.014,0.00399 0.021,0.00599 0.005,0.001 0.012,0.00201 0.017,0.00301 0.008,0.002 0.016,0.004 0.022,0.006 0.005,0.001 0.007,0.001 0.012,0.002 0.03,0.008 0.061,0.01501 0.092,0.02301 0.004,0.001 0.008,0.00199 0.011,0.00199 0.009,0.003 0.017,0.00499 0.026,0.00699 0.003,0.001 0.009,0.00201 0.012,0.00301 0.009,0.002 0.016,0.004 0.025,0.006 0.005,0.001 0.009,0.00199 0.014,0.00399 0.008,0.001 0.017,0.00401 0.024,0.00501 0.004,0.002 0.009,0.003 0.014,0.004 0.008,0.002 0.016,0.00399 0.023,0.00599 0.007,0.001 0.011,0.00202 0.017,0.00402 0.007,0.002 0.015,0.00399 0.023,0.00599 0.004,0.001 0.011,0.00199 0.015,0.00299 0.009,0.002 0.016,0.00402 0.024,0.00602 0.004,0.002 0.01,0.00299 0.014,0.00399 0.008,0.002 0.017,0.004 0.025,0.006 0.003,0.001 0.008,0.00201 0.011,0.00301 0.009,0.002 0.018,0.00498 0.027,0.00698 0.003,0.001 0.007,0.00201 0.01,0.00301 0.011,0.002 0.02,0.005 0.028,0.007 10e-4,0 0.003,0.001 0.004,0.001 0.046,0.012 0.092,0.02401 0.138,0.03601 0.003,0.001 0.005,0.001 0.009,0.002 0.008,0.002 0.018,0.00498 0.026,0.00698 0.004,0.002 0.008,0.00201 0.012,0.00301 0.01,0.003 0.018,0.005 0.026,0.007 0.004,0.002 0.007,0.00199 0.011,0.00299 0.01,0.003 0.018,0.00501 0.026,0.00701 0.004,0.002 0.008,0.003 0.012,0.004 0.01,0.002 0.018,0.004 0.027,0.007 0.003,0.001 0.007,0.00201 0.011,0.00301 0.01,0.002 0.018,0.00498 0.027,0.00698 0.003,0.001 0.007,0.00301 0.01,0.00301 0.01,0.002 0.02,0.005 0.029,0.008 0.002,0 0.004,9.9e-4 0.007,0.00199 0.01,0.002 0.02,0.00502 0.03,0.00802 0.003,0.001 0.004,9.9e-4 0.007,0.00199 0.01,0.003 0.02,0.005 0.031,0.008 10e-4,0.001 0.002,9.9e-4 0.003,9.9e-4 0.048,0.013 0.095,0.02701 0.143,0.04001 l 10e-4,9.9e-4 c 0.01,0.002 0.022,0.00501 0.031,0.00801 0.003,10e-4 0.005,0.002 0.008,0.002 0.01,0.003 0.02,0.006 0.029,0.009 0.003,0 0.005,0.001 0.008,0.002 0.01,0.003 0.019,0.005 0.029,0.008 0.003,10e-4 0.006,0.00201 0.009,0.00301 0.009,0.002 0.019,0.00499 0.028,0.00799 0.004,0.001 0.006,0.00201 0.009,0.00301 0.009,0.002 0.019,0.00499 0.028,0.00799 0.004,10e-4 0.007,0.002 0.01,0.002 0.01,0.003 0.018,0.006 0.027,0.009 0.003,0.001 0.005,0.001 0.009,0.002 0.011,0.003 0.02,0.00601 0.029,0.00901 0.002,0 0.005,9.9e-4 0.007,0.00199 0.011,0.003 0.021,0.00599 0.031,0.00899 10e-4,0 10e-4,0 0.002,0 0.071,0.021 0.143,0.043 0.214,0.065 0.003,0 0.003,10e-6 0.005,0.00101 0.01,0.003 0.02,0.006 0.03,0.009 0.002,0.001 0.004,0.001 0.007,0.002 0.011,0.003 0.021,0.00601 0.03,0.00901 0.002,10e-4 0.004,0.00199 0.007,0.00199 0.011,0.004 0.02,0.007 0.03,0.01 0.003,0.002 0.003,0.002 0.006,0.002 0.011,0.003 0.022,0.006 0.032,0.009 10e-4,0.001 0.003,0.001 0.003,0.002 0.012,0.003 0.021,0.00599 0.034,0.00999 0,0 0.002,10e-6 0.002,0.00101 0.084,0.026 0.168,0.052 0.252,0.079 0.011,0.004 0.022,0.007 0.033,0.011 0.002,0 0.003,0.001 0.005,0.001 0.01,0.004 0.021,0.00701 0.032,0.01101 0,0 0.002,0 0.004,0 0.01,0.004 0.021,0.00698 0.032,0.01098 0.002,0 0.002,0.00101 0.004,0.00101 0.012,0.004 0.021,0.007 0.032,0.011 10e-4,0 0.002,-1e-5 0.003,9.9e-4 0.012,0.003 0.023,0.007 0.034,0.011 0,0 0.001,0 0.002,0 0.096,0.032 0.19,0.06401 0.285,0.09601 0.001,0 0,-10e-6 0.001,9.9e-4 0.011,0.003 0.023,0.00701 0.034,0.01101 l 0.003,0.001 c 0.01,0.004 0.022,0.008 0.033,0.012 0,0 10e-4,0 0.003,10e-4 0.011,0.003 0.023,0.00701 0.034,0.01101 l 10e-4,9.9e-4 c 8.789,3.044 15.557,10.41503 17.758,19.56503 v 0.001 c 0.003,0.012 0.006,0.024 0.009,0.036 0.03,0.125 0.06,0.25 0.087,0.373 0.003,0.012 0.005,0.025 0.008,0.037 0,-10e-4 0,0.001 0,0 0.004,0.012 0.007,0.025 0.008,0.037 0,10e-4 0.002,0.002 0.002,0.003 0.003,0.012 0.005,0.025 0.008,0.035 v 0.002 c 0.003,0.012 0.005,0.023 0.008,0.036 0,0.001 0,0.001 0,0.002 0.022,0.098 0.043,0.198 0.064,0.297 0,0.002 0,0.002 0,0.003 0.003,0.012 0.005,0.023 0.007,0.035 10e-4,10e-4 10e-4,0.003 10e-4,0.003 0.002,0.011 0.005,0.023 0.007,0.034 0,0.002 0.001,0.003 0.001,0.005 0.002,0.011 0.005,0.022 0.007,0.033 0,0.002 0,0.004 10e-4,0.005 0.002,0.011 0.004,0.022 0.006,0.033 0.001,0.002 0.001,0.004 0.001,0.005 0.021,0.099 0.039,0.197 0.059,0.296 0,0.002 10e-4,0.004 10e-4,0.005 0.002,0.011 0.004,0.022 0.006,0.032 0.001,0.003 0.001,0.005 0.001,0.007 0.002,0.011 0.004,0.02 0.006,0.03 0.001,0.004 0.001,0.007 0.002,0.01 0.002,0.01 0.003,0.019 0.005,0.028 10e-4,0.004 0.002,0.008 0.002,0.012 0.002,0.008 0.004,0.018 0.005,0.027 10e-4,0.004 0.002,0.009 0.002,0.012 0.003,0.01 0.004,0.018 0.005,0.028 0.002,0.003 0.002,0.006 0.002,0.01 0.003,0.009 0.005,0.02 0.007,0.029 0,0.003 0.001,0.006 0.001,0.008 0.002,0.011 0.004,0.021 0.006,0.031 0,0.002 0,0.002 0,0.004 0.009,0.049 0.018,0.098 0.026,0.147 l 10e-4,0.002 c 0.001,0.011 0.003,0.022 0.005,0.032 0,0.003 10e-4,0.005 10e-4,0.008 0.002,0.01 0.004,0.021 0.006,0.03 0,0.004 0,0.006 0.001,0.009 0.002,0.01 0.003,0.02 0.005,0.03 0.001,0.004 0.001,0.006 0.002,0.009 10e-4,0.01 0.003,0.019 0.005,0.03 0,0.003 10e-4,0.006 10e-4,0.01 0.002,0.009 0.004,0.019 0.005,0.028 10e-4,0.004 10e-4,0.008 0.002,0.011 0.001,0.01 0.003,0.019 0.006,0.029 0,0.003 0,0.006 0,0.01 0.002,0.009 0.004,0.019 0.006,0.029 0,0.003 0,0.006 0.002,0.009 10e-4,0.011 0.003,0.021 0.005,0.031 0,0.001 0,0.003 0,0.004 0.008,0.049 0.016,0.099 0.023,0.148 0,10e-4 0,10e-4 0,0.002 0.002,0.01 0.003,0.02 0.006,0.031 0,0.002 0,0.006 0,0.009 0.002,0.01 0.004,0.018 0.004,0.028 0.002,0.003 0.003,0.008 0.003,0.012 0.002,0.009 0.003,0.017 0.004,0.027 10e-4,0.004 0.002,0.008 0.002,0.013 0.002,0.008 0.003,0.017 0.004,0.026 10e-4,0.004 0.002,0.009 0.002,0.013 0.002,0.009 0.003,0.018 0.004,0.027 10e-4,0.004 0.002,0.008 0.002,0.013 0.001,0.009 0.003,0.018 0.004,0.027 10e-4,0.004 10e-4,0.007 0.002,0.011 0.001,0.01 0.003,0.019 0.004,0.028 10e-4,0.005 10e-4,0.007 0.002,0.011 0.001,0.01 0.002,0.02 0.004,0.029 0,0.003 0.001,0.006 0.001,0.009 0.003,0.01 0.004,0.02 0.005,0.031 0.001,0.001 0.001,0.003 0.001,0.004 0.005,0.035 0.01,0.071 0.015,0.106 0,0.002 10e-4,0.005 10e-4,0.006 10e-4,0.009 0.002,0.018 0.003,0.027 10e-4,0.005 0.002,0.009 0.002,0.014 10e-4,0.008 0.003,0.017 0.004,0.025 10e-4,0.005 10e-4,0.01 0.002,0.015 10e-4,0.008 0.002,0.016 0.003,0.024 10e-4,0.005 0.002,0.011 0.002,0.016 0.001,0.008 0.002,0.016 0.003,0.024 0.002,0.005 0.002,0.012 0.004,0.016 0,0.008 0.002,0.016 0.002,0.024 0,0.005 0.002,0.011 0.002,0.016 0.002,0.008 0.003,0.017 0.004,0.024 0.001,0.005 0.001,0.012 0.002,0.017 10e-4,0.008 0.002,0.015 0.003,0.023 10e-4,0.006 0.002,0.011 0.002,0.017 10e-4,0.008 0.002,0.015 0.003,0.023 0.001,0.006 0.002,0.01 0.002,0.016 10e-4,0.008 0.002,0.017 0.003,0.025 10e-4,0.003 10e-4,0.008 0.002,0.012 0.004,0.033 0.008,0.065 0.012,0.098 0,0.003 10e-4,0.005 10e-4,0.008 10e-4,0.008 0.003,0.015 0.003,0.022 0,0.006 0.002,0.013 0.002,0.019 0.002,0.008 0.002,0.015 0.004,0.023 0,0.006 10e-4,0.011 0.002,0.016 10e-4,0.008 0.002,0.017 0.002,0.025 0.001,0.006 0.002,0.01 0.002,0.016 10e-4,0.008 0.002,0.016 0.003,0.024 10e-4,0.005 10e-4,0.011 0.002,0.016 10e-4,0.008 0.002,0.016 0.003,0.023 0,0.007 10e-4,0.012 0.002,0.019 0.001,0.007 0.001,0.015 0.002,0.022 10e-4,0.005 0.002,0.012 0.002,0.017 10e-4,0.008 0.002,0.015 0.003,0.023 10e-4,0.007 10e-4,0.011 0.002,0.018 0.001,0.007 0.001,0.015 0.002,0.023 10e-4,0.005 0.002,0.011 0.002,0.016 10e-4,0.009 0.002,0.016 0.003,0.024 0,0.005 0.001,0.012 0.002,0.017 0,0.008 10e-4,0.016 0.002,0.024 10e-4,0.004 10e-4,0.007 10e-4,0.012 0.003,0.018 0.006,0.039 0.007,0.058 0.001,0.002 0.001,0.006 0.001,0.009 10e-4,0.007 0.002,0.015 0.003,0.022 0,0.006 10e-4,0.012 0.002,0.018 0,0.008 0.001,0.016 0.002,0.023 10e-4,0.006 10e-4,0.011 0.002,0.018 10e-4,0.008 10e-4,0.015 0.002,0.023 0.001,0.006 0.001,0.011 0.002,0.017 10e-4,0.008 10e-4,0.016 0.002,0.024 10e-4,0.005 10e-4,0.013 0.002,0.017 0.001,0.007 0.001,0.015 0.002,0.022 10e-4,0.006 10e-4,0.013 0.002,0.019 0,0.007 10e-4,0.015 0.002,0.022 0,0.006 0.001,0.012 0.002,0.019 0,0.007 10e-4,0.014 0.002,0.021 0,0.007 10e-4,0.013 10e-4,0.019 10e-4,0.008 0.002,0.015 0.003,0.021 0,0.007 10e-4,0.014 10e-4,0.02 0.002,0.007 0.002,0.014 0.002,0.02 0.002,0.007 0.002,0.015 0.002,0.021 0.002,0.007 0.002,0.013 0.002,0.021 0.002,0.006 0.002,0.014 0.002,0.021 0,0.006 0.002,0.012 0.003,0.018 0,0.009 10e-4,0.016 0.002,0.025 10e-4,0.012 0.002,0.023 0.003,0.035 0,0.007 10e-4,0.014 0.002,0.021 0,0.006 10e-4,0.014 10e-4,0.02 0.001,0.007 0.001,0.013 0.002,0.02 10e-4,0.008 10e-4,0.013 0.002,0.021 0,0.007 10e-4,0.014 10e-4,0.021 10e-4,0.006 10e-4,0.012 0.002,0.019 10e-4,0.007 10e-4,0.015 0.002,0.022 0,0.006 0.001,0.013 0.001,0.019 10e-4,0.008 10e-4,0.014 0.002,0.022 0.001,0.007 0.001,0.013 0.002,0.019 0,0.007 10e-4,0.015 10e-4,0.022 0.001,0.007 0.001,0.013 0.002,0.02 0,0.007 10e-4,0.014 10e-4,0.021 0.001,0.007 0.001,0.013 0.002,0.02 0,0.006 10e-4,0.014 0.002,0.02 0,0.007 10e-4,0.015 10e-4,0.021 10e-4,0.007 10e-4,0.014 0.003,0.021 0,0.007 0,0.013 0,0.02 0.002,0.008 0.002,0.015 0.002,0.023 0,0.006 0.002,0.011 0.002,0.018 0,0.013 0.002,0.027 0.003,0.04 0,0.003 0,0.008 0.001,0.011 0,0.01 10e-4,0.021 0.002,0.03 0,0.005 0,0.01 0.001,0.015 0,0.009 10e-4,0.018 10e-4,0.027 10e-4,0.005 10e-4,0.011 0.002,0.016 0,0.008 10e-4,0.017 10e-4,0.025 10e-4,0.006 10e-4,0.011 10e-4,0.018 0.001,0.007 0.001,0.016 0.002,0.023 0,0.007 10e-4,0.012 10e-4,0.018 0,0.008 0.001,0.015 0.001,0.023 10e-4,0.007 10e-4,0.013 0.002,0.019 0,0.008 0.001,0.015 0.001,0.022 0,0.006 10e-4,0.014 10e-4,0.019 10e-4,0.008 10e-4,0.015 10e-4,0.023 0.001,0.006 0.001,0.013 0.002,0.018 0,0.009 0,0.016 10e-4,0.025 0,0.006 0.001,0.01 0.001,0.016 0,0.008 10e-4,0.018 10e-4,0.025 10e-4,0.005 10e-4,0.011 10e-4,0.017 0.001,0.009 0.001,0.017 0.002,0.026 0,0.005 0,0.011 10e-4,0.015 0,0.011 10e-4,0.022 10e-4,0.033 0.001,0.006 0.001,0.01 0.001,0.016 10e-4,0.011 10e-4,0.022 0.002,0.033 0,0.007 0.001,0.014 0.001,0.021 0,0.006 10e-4,0.013 10e-4,0.019 0,0.007 10e-4,0.015 10e-4,0.022 0,0.006 0.001,0.013 0.001,0.019 0,0.007 10e-4,0.015 10e-4,0.021 0,0.007 0.002,0.015 0.002,0.021 0,0.006 10e-4,0.014 10e-4,0.019 0,0.008 0,0.015 10e-4,0.024 0,0.005 0,0.012 0.001,0.018 0,0.007 0,0.015 10e-4,0.022 0,0.007 0,0.013 0,0.02 10e-4,0.008 10e-4,0.014 10e-4,0.021 0.001,0.007 0.001,0.013 0.001,0.019 10e-4,0.007 10e-4,0.015 10e-4,0.022 0,0.007 10e-4,0.013 10e-4,0.02 0,0.008 0.001,0.015 0.001,0.023 0,0.006 0,0.012 10e-4,0.018 0,0.007 0,0.015 0,0.022 10e-4,0.007 10e-4,0.013 10e-4,0.02 0,0.007 0.001,0.013 0.001,0.021 0,0.01 10e-4,0.021 10e-4,0.031 0,0.01 10e-4,0.02 10e-4,0.03 0,0.006 0,0.01 0.001,0.016 0,0.008 0,0.017 0,0.025 10e-4,0.007 10e-4,0.012 10e-4,0.019 0,0.002 0,0.004 0,0.006 0,0.003 0,0.006 0,0.008 10e-4,0.003 10e-4,0.006 10e-4,0.009 0,0.006 0,0.013 0,0.019 0.001,0.008 0.001,0.014 0.001,0.022 0,0.006 0,0.013 10e-4,0.019 0,0.007 0,0.016 0,0.023 0,0.007 10e-4,0.013 10e-4,0.02 0,0.006 0,0.014 0,0.021 0.001,0.007 0.001,0.014 0.001,0.021 0,0.006 0,0.014 0,0.02 10e-4,0.008 10e-4,0.014 10e-4,0.022 0,0.007 0,0.014 0,0.021 10e-4,0.006 10e-4,0.013 10e-4,0.019 0,0.008 0,0.016 0,0.024 0.001,0.006 0.001,0.012 0.001,0.018 0,0.008 0,0.016 0,0.025 0,0.005 10e-4,0.011 10e-4,0.016 0,0.009 0,0.018 0,0.026 0,0.006 0,0.011 10e-4,0.017 0,0.013 0,0.027 0,0.041 0,0.003 0,0.005 0,0.008 0.001,0.011 0.001,0.022 0.001,0.033 0,0.006 0,0.012 0,0.018 0,0.007 0,0.017 10e-4,0.024 0,0.006 0,0.013 0,0.018 0,0.009 0,0.015 0,0.023 0,0.007 0,0.013 0,0.019 0,0.008 10e-4,0.016 10e-4,0.024 0,0.006 0,0.012 0,0.018 0,0.008 0,0.015 0,0.023 0,0.006 0,0.012 0,0.019 0,0.007 0,0.016 0,0.024 0,0.004 0,0.012 0.001,0.018 0,0.008 0,0.015 0,0.023 0,0.006 0,0.013 0,0.019 0,0.007 0,0.017 0,0.024 0,0.006 0,0.012 0,0.018 0,0.008 0,0.016 0,0.024 0,0.006 0,0.012 0,0.018 0,0.009 0,0.017 0,0.026 0,0.005 0,0.01 0,0.015 0,0.014 0,0.028 0,0.042 0,0.017 0,0.034 0,0.051 0,0.006 0,0.01 0,0.015 0,0.012 0,0.025 0,0.037 0,0.006 0,0.012 0,0.018 0,0.011 0,0.023 0,0.035 0,0.006 0,0.011 0,0.016 0,0.017 0,0.034 -0.001,0.051 0,0.002 0,0.004 0,0.006 0,0.015 0,0.03 0,0.045 0,0.006 0,0.011 0,0.017 0,0.011 0,0.023 -10e-4,0.034 0,0.007 0,0.012 0,0.019 0,0.011 0,0.024 0,0.035 0,0.006 0,0.011 0,0.016 -10e-4,0.017 -10e-4,0.034 -10e-4,0.05 0,0.003 0,0.006 0,0.009 -0.001,0.014 -0.001,0.028 -0.001,0.042 0,0.006 0,0.012 0,0.017 -10e-4,0.012 -10e-4,0.023 -10e-4,0.035 0,0.006 0,0.012 0,0.019 -10e-4,0.011 -10e-4,0.023 -10e-4,0.035 0,0.004 0,0.011 0,0.016 -0.001,0.016 -0.001,0.033 -0.002,0.05 0,0.003 0,0.005 0,0.009 0,0.014 -10e-4,0.028 -10e-4,0.042 0,0.006 0,0.011 0,0.016 -0.001,0.012 -0.001,0.024 -0.001,0.035 0,0.007 -10e-4,0.012 -10e-4,0.018 0,0.012 0,0.025 -10e-4,0.036 0,0.006 0,0.01 0,0.016 0,0.006 -0.001,0.013 -0.001,0.019 0,0.011 0,0.02 -10e-4,0.03 0,0.004 0,0.009 0,0.013 -10e-4,0.012 -10e-4,0.025 -10e-4,0.038 -0.001,0.006 -0.001,0.012 -0.001,0.018 0,0.012 -10e-4,0.022 -10e-4,0.034 0,0.005 -10e-4,0.013 -10e-4,0.018 0,0.013 -0.001,0.025 -0.001,0.038 0,0.004 -10e-4,0.009 -10e-4,0.012 0,0.017 -10e-4,0.034 -0.002,0.051 0,0.003 0,0.008 0,0.012 -10e-4,0.013 -10e-4,0.027 -0.002,0.039 0,0.006 0,0.011 0,0.017 -0.001,0.011 -0.001,0.023 -0.002,0.035 0,0.005 0,0.011 -10e-4,0.017 0,0.013 -0.001,0.026 -0.001,0.039 -10e-4,0.004 -10e-4,0.008 -10e-4,0.012 -10e-4,0.017 -0.003,0.033 -0.003,0.05 -10e-4,0.004 -10e-4,0.008 -10e-4,0.011 -0.001,0.013 -0.001,0.027 -0.002,0.04 0,0.005 0,0.011 -10e-4,0.015 0,0.013 -0.001,0.025 -0.001,0.038 -10e-4,0.004 -10e-4,0.011 -10e-4,0.015 -10e-4,0.013 -0.002,0.028 -0.002,0.041 -10e-4,0.003 -10e-4,0.006 -10e-4,0.01 -10e-4,0.017 -0.002,0.033 -0.003,0.051 0,0.003 0,0.008 0,0.011 -10e-4,0.014 -0.002,0.026 -0.003,0.04 0,0.005 0,0.011 -10e-4,0.016 0,0.012 -10e-4,0.024 -0.002,0.035 0,0.006 0,0.011 -10e-4,0.017 0,0.014 -10e-4,0.027 -0.002,0.042 0,0.002 0,0.006 -10e-4,0.009 -10e-4,0.017 -0.002,0.034 -0.003,0.051 0,0.004 0,0.008 -10e-4,0.013 0,0.012 -0.001,0.025 -0.002,0.037 0,0.006 -10e-4,0.011 -10e-4,0.017 -0.001,0.012 -0.002,0.024 -0.003,0.036 0,0.005 0,0.01 -0.001,0.015 -10e-4,0.015 -0.002,0.029 -0.003,0.044 0,0.002 0,0.005 0,0.007 -10e-4,0.016 -0.003,0.034 -0.005,0.05 0,0.004 0,0.009 0,0.013 0,0.013 -0.002,0.025 -0.002,0.038 -0.002,0.005 -0.002,0.009 -0.002,0.015 -10e-4,0.012 -0.002,0.025 -0.003,0.037 -10e-4,0.005 -10e-4,0.009 -10e-4,0.014 -0.002,0.016 -0.003,0.032 -0.004,0.048 0,10e-4 0,10e-4 0,0.002 -0.002,0.017 -0.003,0.034 -0.004,0.051 -10e-4,0.005 -10e-4,0.009 -10e-4,0.014 -10e-4,0.012 -0.002,0.025 -0.003,0.037 -10e-4,0.006 -10e-4,0.011 -0.002,0.016 -10e-4,0.013 -0.002,0.023 -0.003,0.037 0,0.004 0,0.01 -10e-4,0.014 -0.003,0.034 -0.006,0.068 -0.008,0.102 -0.001,0.003 -0.001,0.007 -0.002,0.011 -10e-4,0.013 -0.003,0.027 -0.003,0.04 0,0.004 -0.002,0.01 -0.002,0.014 0,0.013 -0.002,0.025 -0.004,0.038 0,0.004 0,0.009 0,0.013 -0.002,0.017 -0.004,0.034 -0.006,0.05 0,-10e-4 0,0.001 0,0 -10e-4,0.017 -0.003,0.035 -0.004,0.052 -0.001,0.004 -0.001,0.008 -0.002,0.012 -10e-4,0.013 -0.002,0.026 -0.003,0.039 -10e-4,0.004 -10e-4,0.009 -0.002,0.014 -10e-4,0.013 -0.002,0.026 -0.004,0.039 0,0.004 0,0.008 -10e-4,0.012 -0.003,0.034 -0.007,0.067 -0.01,0.101 0,0.004 -10e-4,0.009 -10e-4,0.012 -0.002,0.013 -0.003,0.027 -0.004,0.04 -0.001,0.004 -0.001,0.009 -0.002,0.013 -10e-4,0.013 -0.004,0.027 -0.005,0.04 0,0.004 -10e-4,0.008 -10e-4,0.011 -0.004,0.034 -0.008,0.068 -0.011,0.101 -0.001,0.005 -0.001,0.009 -0.002,0.014 -10e-4,0.013 -0.003,0.024 -0.004,0.037 -0.001,0.005 -0.001,0.01 -0.002,0.015 -10e-4,0.013 -0.003,0.026 -0.004,0.039 -0.001,0.004 -0.001,0.007 -0.002,0.011 -0.003,0.034 -0.007,0.068 -0.011,0.101 -0.002,0.004 -0.002,0.009 -0.002,0.015 -0.002,0.012 -0.004,0.024 -0.006,0.037 0,0.004 -0.001,0.01 -0.001,0.015 -0.002,0.013 -0.003,0.025 -0.005,0.038 0,0.004 -0.001,0.008 -0.001,0.012 -0.003,0.017 -0.005,0.034 -0.007,0.051 0,0.002 0,0.002 0,0.002 -0.002,0.015 -0.004,0.031 -0.006,0.047 -10e-4,0.005 -10e-4,0.01 -0.002,0.014 -0.001,0.012 -0.003,0.025 -0.005,0.037 0,0.004 -10e-4,0.01 -10e-4,0.015 -0.002,0.013 -0.005,0.026 -0.007,0.039 0,0.003 0,0.007 0,0.011 -0.002,0.017 -0.006,0.034 -0.008,0.051 0,10e-4 0,10e-4 0,10e-4 -0.002,0.016 -0.004,0.032 -0.006,0.048 -0.001,0.005 -0.002,0.008 -0.002,0.014 -0.002,0.013 -0.004,0.025 -0.005,0.038 -10e-4,0.003 -0.002,0.009 -0.002,0.012 -0.002,0.015 -0.004,0.029 -0.006,0.043 -0.001,0.002 -0.001,0.005 -0.001,0.007 -0.003,0.018 -0.005,0.034 -0.007,0.052 -10e-4,0.002 -10e-4,0.002 -10e-4,0.003 -0.002,0.016 -0.004,0.031 -0.006,0.046 -0.001,0.005 -0.003,0.009 -0.003,0.014 -0.002,0.012 -0.004,0.025 -0.006,0.038 0,0.004 -10e-4,0.008 -0.002,0.012 -0.002,0.015 -0.004,0.028 -0.006,0.044 0,0.002 -10e-4,0.006 -10e-4,0.007 -0.003,0.018 -0.005,0.035 -0.008,0.052 0,0.001 0,0.002 0,0.003 -0.003,0.015 -0.005,0.031 -0.007,0.047 -10e-4,0.003 -10e-4,0.007 -0.002,0.011 -0.002,0.014 -0.004,0.027 -0.006,0.041 -0.002,0.004 -0.002,0.007 -0.003,0.01 -10e-4,0.015 -0.005,0.031 -0.007,0.047 0,0 0,0.002 0,0.003 -0.003,0.017 -0.006,0.035 -0.009,0.052 0,10e-4 0,0.004 0,0.005 -0.003,0.015 -0.005,0.029 -0.008,0.044 0,0.005 -0.001,0.008 -0.001,0.013 -0.003,0.013 -0.005,0.026 -0.007,0.039 0,0.004 -10e-4,0.007 -0.002,0.011 -0.002,0.016 -0.006,0.031 -0.008,0.047 v 0.003 c -0.004,0.018 -0.006,0.034 -0.009,0.052 0,10e-4 -0.001,0.002 -0.001,0.003 -0.002,0.015 -0.005,0.031 -0.007,0.046 -10e-4,0.004 -0.002,0.008 -0.002,0.012 -0.003,0.013 -0.005,0.026 -0.007,0.04 -10e-4,0.003 -10e-4,0.007 -0.002,0.011 -0.006,0.033 -0.012,0.067 -0.019,0.102 0,0.002 0,0.002 0,0.004 -0.003,0.015 -0.006,0.031 -0.008,0.046 -0.001,0.003 -0.001,0.006 -0.002,0.01 -0.003,0.014 -0.005,0.029 -0.008,0.043 0,0.003 0,0.004 -10e-4,0.007 -0.006,0.034 -0.012,0.069 -0.019,0.103 -0.001,10e-4 -0.001,0.002 -0.001,0.003 -0.003,0.015 -0.006,0.031 -0.008,0.046 -0.001,0.004 -0.002,0.007 -0.002,0.01 -0.003,0.015 -0.006,0.029 -0.008,0.043 -10e-4,0.003 -10e-4,0.004 -0.002,0.008 -0.006,0.033 -0.012,0.068 -0.02,0.102 0,10e-4 0,0.003 0,0.004 -0.004,0.015 -0.006,0.03 -0.009,0.045 -10e-4,0.004 -0.002,0.007 -0.002,0.011 -0.003,0.014 -0.006,0.028 -0.008,0.042 -10e-4,0.002 -0.002,0.006 -0.002,0.007 -0.007,0.035 -0.013,0.069 -0.02,0.103 0,0.002 0,10e-4 -0.001,0.003 -0.003,0.016 -0.007,0.031 -0.01,0.046 0,0.003 -10e-4,0.006 -0.002,0.009 -0.003,0.015 -0.006,0.031 -0.009,0.046 0,0 0,0.003 -0.001,0.004 -0.007,0.034 -0.014,0.069 -0.021,0.103 0,10e-4 0,0.002 0,0.003 -0.005,0.016 -0.008,0.031 -0.011,0.046 -0.001,0.004 -0.001,0.005 -0.002,0.009 -0.003,0.015 -0.006,0.031 -0.01,0.046 0,10e-4 0,0.002 0,0.003 -0.007,0.034 -0.015,0.069 -0.022,0.103 0,10e-4 -0.002,0.004 -0.002,0.004 -0.003,0.016 -0.007,0.03 -0.01,0.046 0,0.002 -0.001,0.005 -0.001,0.007 -0.004,0.016 -0.007,0.032 -0.011,0.048 0,0.001 0,0.001 0,0.002 -0.008,0.034 -0.015,0.068 -0.023,0.102 0,0.002 -10e-4,0.004 -10e-4,0.006 -0.003,0.015 -0.007,0.029 -0.01,0.044 -0.001,0.003 -0.001,0.006 -0.002,0.009 -0.004,0.015 -0.007,0.031 -0.011,0.046 0,10e-4 0,10e-4 0,0.002 -0.008,0.035 -0.017,0.069 -0.024,0.103 0,0.002 0,0.002 0,0.004 -0.004,0.015 -0.008,0.031 -0.011,0.046 -10e-4,0.002 -10e-4,0.004 -0.002,0.007 -0.004,0.016 -0.007,0.032 -0.011,0.049 -0.009,0.034 -0.017,0.068 -0.025,0.102 0,0.001 0,0.004 -10e-4,0.005 -0.003,0.015 -0.007,0.03 -0.011,0.045 0,0.002 -10e-4,0.005 -10e-4,0.007 -0.013,0.051 -0.025,0.101 -0.037,0.152 -10e-4,0 -10e-4,0.003 -10e-4,0.004 -0.004,0.015 -0.008,0.031 -0.012,0.046 0,0.002 -0.001,0.004 -0.001,0.005 -0.014,0.051 -0.026,0.102 -0.039,0.152 0,0.002 0,0.002 -0.002,0.004 -0.004,0.015 -0.008,0.031 -0.012,0.046 0,0.002 0,0.004 -10e-4,0.005 -0.013,0.051 -0.025,0.101 -0.039,0.152 -10e-4,10e-4 -10e-4,0.003 -10e-4,0.003 -0.005,0.017 -0.009,0.032 -0.013,0.048 0,0.001 0,0.002 -10e-4,0.003 -0.013,0.051 -0.027,0.102 -0.041,0.152 0,0.001 0,0.002 -0.001,0.003 -0.004,0.016 -0.008,0.032 -0.013,0.048 0,10e-4 0,0.002 -0.002,0.003 -0.014,0.051 -0.027,0.102 -0.042,0.153 -0.02,0.069 -0.038,0.136 -0.059,0.205 -0.005,0.018 -0.01,0.034 -0.015,0.051 -1.83,6.271 -5.825,11.613 -11.122,15.164 z"
     fill="#c4633e"
     id="path1567" />
  <path
     fill-rule="evenodd"
     clip-rule="evenodd"
     d="m 27.541007,55.081982 c -0.013,0 -0.025,0 -0.04,0 -0.004,0 -0.009,0 -0.013,0 -0.009,0 -0.017,0 -0.027,0 -0.005,0 -0.01,0 -0.015,0 -0.008,0 -0.017,0 -0.025,0 -0.006,0 -0.01,0 -0.015,0 -0.008,0 -0.018,0 -0.026,0 -0.006,0 -0.01,0 -0.015,-0.001 -0.01,0 -0.02,0 -0.03,0 -0.003,0 -0.007,0 -0.01,0 -0.013,0 -0.025,0 -0.04,0 -0.002,0 -0.006,0 -0.008,0 -0.011,0 -0.022,0 -0.032,-10e-4 -0.004,0 -0.009,0 -0.013,0 -0.01,0 -0.019,0 -0.027,0 -0.005,0 -0.01,0 -0.015,0 -0.01,0 -0.018,0 -0.026,0 -0.004,-10e-4 -0.009,-10e-4 -0.014,-10e-4 -0.01,0 -0.019,0 -0.028,0 -0.004,0 -0.008,0 -0.012,0 -0.013,0 -0.026,-0.001 -0.039,-0.001 h -0.001 c -0.013,0 -0.027,0 -0.04,-10e-4 -0.004,0 -0.008,0 -0.012,0 -0.009,0 -0.02,0 -0.028,0 -0.005,0 -0.009,-10e-4 -0.014,-10e-4 -0.01,0 -0.018,0 -0.027,0 -0.004,0 -0.01,0 -0.014,-0.001 -0.009,0 -0.019,0 -0.026,0 -0.004,0 -0.01,0 -0.015,0 -0.01,-10e-4 -0.018,-10e-4 -0.026,-10e-4 -0.005,0 -0.009,0 -0.014,0 -0.013,-10e-4 -0.026,-10e-4 -0.039,-10e-4 -0.002,0 -0.004,0 -0.006,0 -0.01,-0.001 -0.023,-0.001 -0.034,-0.001 -0.004,-10e-4 -0.01,-10e-4 -0.014,-10e-4 -0.01,0 -0.018,0 -0.026,-10e-4 -0.004,0 -0.01,0 -0.015,0 -0.01,0 -0.018,0 -0.025,-0.001 -0.005,0 -0.01,0 -0.015,0 -0.011,0 -0.02,-10e-4 -0.028,-10e-4 -0.004,0 -0.008,0 -0.011,0 -0.013,-10e-4 -0.025,-10e-4 -0.036,-0.002 0,0 -0.003,0 -0.005,0 -0.014,0 -0.026,-0.002 -0.04,-0.002 -0.003,0 -0.007,0 -0.009,0 -0.011,0 -0.021,0 -0.031,-0.002 -0.004,0 -0.008,0 -0.013,0 -0.011,0 -0.018,-10e-4 -0.027,-10e-4 -0.005,0 -0.008,0 -0.014,-0.001 -0.01,0 -0.019,0 -0.027,-10e-4 -0.005,0 -0.009,0 -0.013,0 -0.011,-10e-4 -0.023,-10e-4 -0.033,-10e-4 -0.002,-0.001 -0.005,-0.001 -0.007,-0.001 -0.014,0 -0.026,-10e-4 -0.04,-10e-4 -0.015,-10e-4 -0.027,-0.002 -0.041,-0.002 -0.004,0 -0.006,0 -0.01,-10e-4 -0.01,0 -0.02,0 -0.028,-10e-4 -0.006,0 -0.01,0 -0.015,-0.001 -0.009,0 -0.018,0 -0.026,-10e-4 -0.005,0 -0.009,0 -0.014,0 -0.01,-10e-4 -0.018,-10e-4 -0.027,-0.002 -0.004,0 -0.009,0 -0.014,0 -0.012,-10e-4 -0.021,-10e-4 -0.033,-0.002 -0.002,0 -0.004,0 -0.006,0 -0.014,-0.001 -0.026,-0.002 -0.04,-0.002 -0.002,0 -0.003,-10e-4 -0.005,-10e-4 -0.012,0 -0.022,-0.001 -0.036,-0.002 -0.002,0 -0.006,0 -0.01,0 -0.009,-10e-4 -0.02,-10e-4 -0.028,-0.002 -0.004,0 -0.01,0 -0.014,0 -0.009,-10e-4 -0.019,-10e-4 -0.028,-0.002 -0.004,0 -0.007,0 -0.011,-0.001 -0.012,0 -0.021,-10e-4 -0.033,-10e-4 -0.003,-10e-4 -0.005,-10e-4 -0.008,-10e-4 -0.025,-0.001 -0.054,-0.003 -0.08,-0.005 -0.003,0 -0.006,0 -0.008,0 -0.011,-10e-4 -0.021,-10e-4 -0.034,-0.002 -0.003,0 -0.004,0 -0.007,-10e-4 -0.011,0 -0.022,-10e-4 -0.033,-0.002 -0.003,0 -0.006,0 -0.009,0 -0.011,-0.002 -0.02,-0.003 -0.031,-0.003 -0.004,-10e-4 -0.007,-10e-4 -0.01,-10e-4 -0.012,-10e-4 -0.024,-0.002 -0.037,-0.002 -10e-4,-0.001 -0.002,-0.001 -0.002,-0.001 -0.027,-10e-4 -0.055,-0.003 -0.082,-0.005 -0.003,0 -0.006,-0.001 -0.008,-0.001 -0.01,-10e-4 -0.021,-10e-4 -0.032,-0.002 -0.003,0 -0.007,-0.001 -0.01,-0.001 -0.01,-10e-4 -0.021,-10e-4 -0.031,-0.002 -0.004,0 -0.006,0 -0.01,-0.001 -0.01,-10e-4 -0.021,-10e-4 -0.033,-0.002 -0.002,0 -0.004,0 -0.007,-0.001 -0.026,-0.002 -0.055,-0.004 -0.082,-0.006 h -0.001 c -0.013,-10e-4 -0.024,-0.002 -0.038,-0.003 -0.002,0 -0.006,0 -0.008,-10e-4 -0.011,-10e-4 -0.022,-10e-4 -0.033,-0.002 -0.003,-10e-4 -0.005,-10e-4 -0.008,-10e-4 -0.012,-10e-4 -0.024,-0.002 -0.035,-0.003 -0.001,0 -0.003,0 -0.005,0 -0.04,-0.004 -0.082,-0.007 -0.122,-0.011 -0.002,0 -0.005,0 -0.006,0 -0.011,-10e-4 -0.023,-0.002 -0.035,-0.003 -0.002,0 -0.005,-10e-4 -0.007,-10e-4 -0.011,-10e-4 -0.023,-0.002 -0.034,-0.003 -0.003,0 -0.004,0 -0.007,0 -0.012,-0.002 -0.022,-0.003 -0.035,-0.004 -0.002,0 -0.003,0 -0.005,0 -0.041,-0.004 -0.082,-0.008 -0.123,-0.012 -0.002,0 -0.003,0 -0.005,0 -0.013,-10e-4 -0.022,-0.002 -0.035,-0.003 -0.002,-10e-4 -0.005,-10e-4 -0.007,-10e-4 -0.012,-0.001 -0.022,-0.002 -0.035,-0.004 -0.002,0 -0.003,0 -0.005,0 -0.054,-0.005 -0.109,-0.011 -0.164,-0.017 -0.001,0 -0.002,0 -0.003,0 -0.012,-0.002 -0.025,-0.003 -0.037,-0.004 -0.002,0 -0.004,-10e-4 -0.005,-10e-4 -0.012,-10e-4 -0.025,-0.003 -0.038,-0.004 h -0.002 c -0.042,-0.005 -0.083,-0.009 -0.124,-0.014 -0.001,0 -0.001,0 -0.001,0 -0.014,-0.002 -0.027,-0.003 -0.041,-0.004 0,-0.001 -0.001,-0.001 -0.001,-0.001 -0.014,-10e-4 -0.026,-0.003 -0.04,-0.004 h -0.002 c -0.055,-0.007 -0.109,-0.013 -0.165,-0.02 h -0.001 c -7.877,-0.964 -14.72599,-5.253 -19.09999,-11.421 -0.008,-0.011 -0.01601,-0.021 -0.02301,-0.032 -0.001,0 -0.001,0 -0.002,-0.002 -0.03,-0.043 -0.06,-0.085 -0.09,-0.127 -0.001,-0.002 -0.00201,-0.003 -0.00301,-0.005 -0.006,-0.009 -0.01398,-0.018 -0.01998,-0.027 0,-10e-4 -0.00301,-0.004 -0.00301,-0.005 -0.007,-0.009 -0.013,-0.018 -0.02,-0.028 -0.001,-10e-4 -0.002,-0.002 -0.002,-0.003 -0.023,-0.032 -0.045,-0.065 -0.06701,-0.096 -9.9e-4,-0.002 -0.00199,-0.003 -0.00299,-0.005 -0.006,-0.008 -0.012,-0.018 -0.018,-0.026 -0.002,-0.003 -0.00401,-0.006 -0.00501,-0.008 -0.006,-0.008 -0.01199,-0.015 -0.01699,-0.023 -0.002,-0.003 -0.00399,-0.006 -0.00699,-0.01 -0.005,-0.007 -0.01002,-0.014 -0.01502,-0.022 -0.001,-0.002 -0.00399,-0.006 -0.00599,-0.009 -0.007,-0.009 -0.013,-0.018 -0.019,-0.027 -0.001,-10e-4 -0.00201,-0.003 -0.00301,-0.004 -0.007,-0.011 -0.01399,-0.02 -0.02099,-0.031 -0.002,-0.003 -0.002,-0.004 -0.004,-0.006 -0.006,-0.008 -0.012,-0.017 -0.017,-0.025 -0.002,-0.003 -0.005,-0.007 -0.007,-0.011 -0.005,-0.006 -0.01,-0.014 -0.015,-0.021 -0.002,-0.004 -0.004,-0.008 -0.008,-0.012 -0.004,-0.006 -0.008,-0.012 -0.013,-0.019 -0.002,-0.004 -0.00499,-0.008 -0.00799,-0.012 -0.005,-0.007 -0.00901,-0.014 -0.01401,-0.021 -0.003,-0.003 -0.005,-0.006 -0.008,-0.01 -0.006,-0.01 -0.012,-0.018 -0.018,-0.028 -0.002,-0.002 -0.004,-0.006 -0.006,-0.009 -0.006,-0.008 -0.012,-0.016 -0.017,-0.024 -0.003,-0.004 -0.006,-0.008 -0.009,-0.012 -0.003,-0.006 -0.00799,-0.013 -0.01199,-0.019 -0.003,-0.005 -0.00601,-0.009 -0.00901,-0.014 -0.004,-0.006 -0.00801,-0.011 -0.01201,-0.017 -0.004,-0.005 -0.00599,-0.009 -0.00999,-0.014 -0.004,-0.006 -0.00699,-0.011 -0.00999,-0.017 -0.003,-0.005 -0.00801,-0.011 -0.01101,-0.016 -0.003,-0.005 -0.006,-0.01 -0.011,-0.015 -0.003,-0.006 -0.00601,-0.01 -0.01001,-0.016 -0.003,-0.005 -0.00698,-0.011 -0.01098,-0.016 -0.006,-0.01 -0.01201,-0.02 -0.02001,-0.03 -0.003,-0.004 -0.006,-0.008 -0.009,-0.013 -0.004,-0.006 -0.007,-0.011 -0.011,-0.017 -0.003,-0.004 -0.006,-0.009 -0.008,-0.013 -0.004,-0.006 -0.009,-0.013 -0.013,-0.018 -0.002,-0.005 -0.00599,-0.009 -0.00799,-0.013 -0.004,-0.006 -0.00901,-0.013 -0.01201,-0.019 -0.003,-0.003 -0.00501,-0.006 -0.00701,-0.01 -0.005,-0.007 -0.009,-0.013 -0.013,-0.021 -0.003,-0.002 -0.00299,-0.003 -0.00499,-0.005 -0.011,-0.017 -0.02099,-0.035 -0.03199,-0.052 -0.005,-0.008 -0.012,-0.016 -0.017,-0.024 -0.001,-0.002 -0.00202,-0.004 -0.00402,-0.006 -0.004,-0.007 -0.00999,-0.015 -0.01399,-0.022 -0.002,-0.003 -0.003,-0.006 -0.005,-0.009 -0.006,-0.007 -0.01,-0.014 -0.015,-0.021 -0.002,-0.003 -0.00401,-0.006 -0.00501,-0.009 -0.005,-0.007 -0.01,-0.015 -0.015,-0.023 0,0 -0.001,-0.002 -0.002,-0.003 -0.023,-0.036 -0.04499,-0.071 -0.06799,-0.108 -10e-4,-0.002 -0.003,-0.004 -0.004,-0.006 -0.005,-0.008 -0.01,-0.016 -0.015,-0.023 -10e-4,-0.003 -0.00199,-0.005 -0.00399,-0.007 -0.006,-0.007 -0.01001,-0.016 -0.01601,-0.024 -0.001,-10e-4 -0.00201,-0.003 -0.00301,-0.004 -0.028,-0.047 -0.05799,-0.094 -0.08699,-0.14 v -0.002 c -0.006,-0.009 -0.012,-0.018 -0.018,-0.028 -1.213,-1.973 -2.185,-4.111 -2.872,-6.372 1.287,3.325 2.57401,6.649 6.91901,9.506 1.90899,1.255 3.82299,2.252 5.72899,3.015 0.196,0.193 0.413,0.381 0.641,0.555 1.008,0.773 2.226,1.289 2.951,1.945 0.727,0.656 0.962,1.453 1.969,1.71 0.306,0.078 0.682,0.107 1.085,0.107 0.926,0 1.994,-0.152 2.664,-0.2 0.166,-0.013 0.308,-0.019 0.428,-0.019 0.568,0 0.624,0.133 0.392,0.346 -0.28,0.258 -0.983,0.633 -1.16,1.023 -0.179,0.391 0.171,0.796 1.048,1.053 0.474,0.139 1.102,0.233 1.814,0.233 0.607,0 1.273,-0.068 1.957,-0.237 1.489,-0.367 3.063,-1.207 4.404,-1.407 0.244,-0.036 0.479,-0.051 0.708,-0.051 1.033,0 1.92,0.308 2.698,0.374 0.112,0.009 0.223,0.014 0.332,0.014 0.804,0 1.484,-0.245 2.053,-0.467 0.404,-0.158 0.752,-0.305 1.079,-0.447 0.193,-0.084 0.379,-0.167 0.564,-0.25 -2.516,1.211 -5.242,2.05 -8.112,2.447 -0.001,0 -0.001,0 -0.002,0 -0.015,0.002 -0.027,0.004 -0.041,0.006 0,0 -0.001,0 -0.003,0 -0.099,0.013 -0.197,0.026 -0.298,0.039 0,0 -0.002,0 -0.003,0 -0.013,0.002 -0.025,0.004 -0.038,0.005 -0.002,0 -0.005,0.001 -0.007,0.001 -0.013,10e-4 -0.024,0.003 -0.038,0.005 -0.002,0 -0.003,0 -0.005,0 -0.013,0.002 -0.025,0.003 -0.039,0.005 0,0 -0.004,0 -0.005,10e-4 -0.014,0.001 -0.025,0.003 -0.039,0.004 h -0.002 c -0.068,0.009 -0.141,0.017 -0.21,0.025 -0.002,0 -0.005,0 -0.007,0 -0.011,0.002 -0.024,0.003 -0.035,0.004 -0.004,10e-4 -0.007,10e-4 -0.01,10e-4 -0.011,0.002 -0.023,0.003 -0.034,0.004 -0.004,0 -0.008,10e-4 -0.012,10e-4 -0.013,0.002 -0.022,0.003 -0.033,0.004 -0.004,0 -0.007,0.001 -0.011,0.001 -0.011,10e-4 -0.023,0.003 -0.034,0.004 -0.003,0 -0.007,0 -0.011,10e-4 -0.012,0.001 -0.023,0.002 -0.034,0.003 -10e-4,0 -0.002,0.001 -0.002,0.001 -0.04,0.004 -0.081,0.008 -0.121,0.012 -0.003,0 -0.006,0 -0.009,10e-4 -0.01,10e-4 -0.022,0.002 -0.032,0.003 -0.004,0 -0.009,10e-4 -0.014,10e-4 -0.011,0.001 -0.021,0.002 -0.03,0.003 -0.005,0.001 -0.011,0.001 -0.016,0.002 -0.011,10e-4 -0.02,10e-4 -0.029,0.002 -0.006,10e-4 -0.012,10e-4 -0.016,0.003 -0.011,0.001 -0.021,0.002 -0.03,0.002 -0.006,0 -0.012,0.002 -0.017,0.002 -0.01,0 -0.02,0.002 -0.029,0.003 -0.004,0 -0.011,10e-4 -0.015,10e-4 -0.01,10e-4 -0.021,0.002 -0.03,0.003 -0.004,0 -0.009,10e-4 -0.013,10e-4 -0.037,0.003 -0.073,0.006 -0.11,0.009 -0.004,0.001 -0.008,0.001 -0.012,0.001 -0.009,10e-4 -0.02,0.002 -0.03,0.003 -0.004,0 -0.011,10e-4 -0.016,10e-4 -0.009,10e-4 -0.02,0.002 -0.028,0.003 -0.007,0 -0.013,10e-4 -0.018,10e-4 -0.01,0.001 -0.018,0.001 -0.029,0.002 -0.005,10e-4 -0.011,10e-4 -0.017,0.002 -0.01,0 -0.02,10e-4 -0.029,0.002 -0.006,0 -0.011,0.001 -0.017,0.001 -0.01,10e-4 -0.02,0.002 -0.028,0.002 -0.006,0.001 -0.013,0.001 -0.019,0.002 -0.009,0 -0.018,10e-4 -0.028,0.002 -0.005,0 -0.01,10e-4 -0.015,10e-4 -0.034,0.003 -0.069,0.005 -0.104,0.007 -0.006,0.001 -0.011,0.001 -0.017,0.002 -0.008,0 -0.019,10e-4 -0.026,10e-4 -0.007,0.001 -0.014,0.001 -0.021,0.002 -0.009,0 -0.018,10e-4 -0.025,0.002 -0.007,0 -0.014,10e-4 -0.02,10e-4 -0.01,10e-4 -0.018,10e-4 -0.025,0.002 -0.007,0 -0.014,0.001 -0.022,0.001 -0.008,0.002 -0.016,0.002 -0.024,0.002 -0.007,0 -0.014,0.001 -0.021,0.001 -0.009,10e-4 -0.017,10e-4 -0.024,0.002 -0.008,0 -0.015,0 -0.021,0.001 -0.009,0 -0.018,10e-4 -0.025,10e-4 -0.008,10e-4 -0.014,10e-4 -0.02,0.002 -0.009,0 -0.017,10e-4 -0.027,10e-4 -0.002,0 -0.002,0 -0.004,10e-4 -0.022,0.001 -0.044,0.002 -0.065,0.003 -0.006,0.001 -0.014,0.001 -0.021,0.001 -0.008,10e-4 -0.016,10e-4 -0.023,0.002 -0.008,0 -0.016,0 -0.023,0.001 -0.008,0 -0.015,10e-4 -0.023,10e-4 -0.007,10e-4 -0.016,10e-4 -0.023,10e-4 -0.007,0.001 -0.015,0.001 -0.022,0.002 -0.009,0 -0.017,0 -0.025,10e-4 -0.007,0 -0.015,0.001 -0.022,0.001 -0.008,0 -0.016,10e-4 -0.023,10e-4 -0.008,0 -0.015,10e-4 -0.022,10e-4 -0.009,0.001 -0.018,0.001 -0.025,0.001 -0.007,10e-4 -0.016,10e-4 -0.022,10e-4 -0.01,10e-4 -0.02,10e-4 -0.03,0.002 -0.006,0 -0.011,0 -0.017,10e-4 -0.012,0 -0.023,10e-4 -0.036,10e-4 -0.01,0.001 -0.019,0.001 -0.029,0.001 -0.009,10e-4 -0.018,10e-4 -0.027,10e-4 -0.007,10e-4 -0.014,10e-4 -0.021,10e-4 -0.009,0.001 -0.018,0.001 -0.026,0.001 -0.007,10e-4 -0.014,10e-4 -0.021,10e-4 -0.009,10e-4 -0.018,10e-4 -0.026,10e-4 -0.008,0 -0.014,0.001 -0.021,0.001 -0.008,0 -0.016,10e-4 -0.025,10e-4 -0.008,0 -0.016,0 -0.022,0 -0.009,0 -0.018,0 -0.025,0.002 -0.008,0 -0.015,0 -0.021,0 -0.009,10e-4 -0.018,10e-4 -0.026,10e-4 -0.006,0 -0.015,10e-4 -0.021,10e-4 -0.011,0 -0.02,0 -0.029,0.001 -0.005,0 -0.013,0 -0.018,0 -0.014,10e-4 -0.027,10e-4 -0.04,10e-4 -0.006,10e-4 -0.015,10e-4 -0.02,10e-4 -0.012,0 -0.023,0.001 -0.034,0.001 -0.006,0 -0.011,0 -0.016,0 -0.011,10e-4 -0.022,10e-4 -0.031,10e-4 -0.007,0 -0.013,10e-4 -0.019,10e-4 -0.011,0 -0.02,0 -0.029,0 -0.007,0.001 -0.012,0.001 -0.021,0.001 -0.009,0 -0.018,0 -0.026,0 -0.007,10e-4 -0.014,10e-4 -0.022,10e-4 -0.009,0 -0.017,0 -0.026,0 -0.006,10e-4 -0.014,10e-4 -0.021,10e-4 -0.009,0 -0.018,0 -0.027,0 -0.007,0 -0.014,0.001 -0.021,0.001 -0.009,0 -0.018,0 -0.029,0 -0.006,0 -0.012,0 -0.018,0 -0.013,10e-4 -0.026,10e-4 -0.039,10e-4 -0.007,0 -0.012,0 -0.019,0 -0.013,10e-4 -0.024,10e-4 -0.036,10e-4 -0.005,0 -0.013,0 -0.018,0 -0.01,0 -0.02,0 -0.029,0 -0.006,0 -0.015,0.001 -0.02,0.001 -0.009,0 -0.018,0 -0.028,0 -0.007,0 -0.013,0 -0.02,0 -0.005,0 -0.008,0 -0.013,0 -0.002,0 -0.004,0 -0.007,0 -10e-4,0 -0.005,0 -0.008,0 -0.007,0 -0.014,0 -0.02,0 -0.002,0 -0.004,0 -0.006,0 -0.005,0 -0.011,10e-4 -0.016,10e-4 -0.002,0 -0.004,0 -0.006,0 -0.007,0 -0.014,0 -0.02,0 0,0 -0.002,0 -0.003,0 -0.007,0 -0.014,0 -0.021,0 -0.002,0 -0.003,0 -0.005,0 -0.006,0 -0.012,0 -0.02,0 h -10e-4 c -0.01,0 -0.018,0 -0.027,0 -0.001,0 -0.002,0 -0.003,0 -0.005,0 -0.011,0 -0.016,0 -10e-4,0 0,0 -10e-4,0 -0.005,0.002 -0.021,0.002 -0.038,0.002 z"
     fill="#c4633e"
     id="path1569" />
  <path
     fill-rule="evenodd"
     clip-rule="evenodd"
     d="m 17.685007,16.690982 c -0.157,-0.407 -0.068,-0.786 0.073,-1.101 0.21,-0.468 0.538,-0.796 0.866,-1.101 0.328,-0.305 0.656,-0.586 0.961,-0.984 0.305,-0.398 0.585,-0.915 0.749,-1.57 0.164,-0.656 0.211,-1.452 0.375,-2.43597 0.164,-0.984 0.445,-2.15601 0.164,-2.85801 -0.28,-0.703 -1.124,-0.93699 -0.679,-1.33599 0.445,-0.398 2.179,-0.96 3.397,-1.241 0.844,-0.195 1.439,-0.25501 1.858,-0.36701 0.566,0.238 1.01,0.58801 1.306,1.05701 1.572,2.496 -1.707,7.38697 -7.323,10.92497 -0.581,0.367 -1.165,0.704 -1.747,1.012 z m 0.173,-12.16497 c 0.833,-0.195 1.502,-0.331 2.148,-0.509 0.58,-0.16 1.143,-0.35401 1.965,-0.61101 -1.249,0.159 -2.649,0.53701 -4.113,1.12001 z"
     fill="#fca370"
     id="path1571" />
  <path
     fill-rule="evenodd"
     clip-rule="evenodd"
     d="m 9.910007,18.997982 c -1.63201,0 -2.88401,-0.465 -3.49401,-1.435 -1.572,-2.496 1.70601,-7.387 7.32301,-10.92402 1.382,-0.871 2.777,-1.57799 4.118,-2.11299 0.833,-0.195 1.502,-0.331 2.148,-0.509 0.58,-0.16 1.143,-0.35401 1.965,-0.61101 0.45,-0.058 0.883,-0.08699 1.29,-0.08699 0.844,0 1.586,0.12399 2.189,0.37799 -0.419,0.112 -1.015,0.172 -1.858,0.367 -1.219,0.281 -2.952,0.843 -3.397,1.241 -0.445,0.399 0.398,0.633 0.679,1.336 0.281,0.702 0,1.874 -0.164,2.858 -0.164,0.98402 -0.211,1.78002 -0.375,2.43602 -0.164,0.656 -0.444,1.172 -0.749,1.57 -0.305,0.398 -0.633,0.679 -0.961,0.984 -0.328,0.305 -0.656,0.633 -0.866,1.101 -0.142,0.315 -0.23,0.694 -0.073,1.101 -2.853,1.51 -5.639,2.307 -7.775,2.307 z"
     fill="#e58f67"
     id="path1573" />
</svg>
