<?xml version="1.0" encoding="UTF-8" standalone="no"?>
<svg
   height="56.7px"
   id="Layer_1"
   style="enable-background:new 0 0 56.7 56.7;"
   version="1.1"
   viewBox="0 0 56.7 56.7"
   width="56.7px"
   xml:space="preserve"
   sodipodi:docname="Gmail.svg"
   inkscape:version="1.2.2 (b0a8486541, 2022-12-01)"
   xmlns:inkscape="http://www.inkscape.org/namespaces/inkscape"
   xmlns:sodipodi="http://sodipodi.sourceforge.net/DTD/sodipodi-0.dtd"
   xmlns="http://www.w3.org/2000/svg"
   xmlns:svg="http://www.w3.org/2000/svg"><defs
     id="defs449" /><sodipodi:namedview
     id="namedview447"
     pagecolor="#ffffff"
     bordercolor="#000000"
     borderopacity="0.25"
     inkscape:showpageshadow="2"
     inkscape:pageopacity="0.0"
     inkscape:pagecheckerboard="0"
     inkscape:deskcolor="#d1d1d1"
     showgrid="false"
     inkscape:zoom="8.4479717"
     inkscape:cx="12.84332"
     inkscape:cy="28.290815"
     inkscape:window-width="1280"
     inkscape:window-height="651"
     inkscape:window-x="0"
     inkscape:window-y="32"
     inkscape:window-maximized="1"
     inkscape:current-layer="Layer_1" /><path
     d="M53.1719,14.5953l0.0011-0.0011l-0.0011,0.0008v-1.184c0-2.2468-1.8384-4.0852-4.0853-4.0852l-0.0012,0.0011l-0.0024,0.0018  l0.0036-0.0029H7.3962l0.0161,0.0131l-0.0161-0.012c-2.2468,0-4.0853,1.8384-4.0853,4.0853v27.9073  c0,2.2468,1.8384,4.0851,4.0853,4.0851h1.4543h38.6578v-0.001c4.2856-0.0498,5.5728-1.1102,5.6702-4.0809L53.1719,14.5953z   M46.0429,10.3258L28.1753,23.487L10.4239,10.3258H46.0429z M9.8608,20.5521l16.5508,11.4004l0.0166,0.0115L9.8513,43.4907  L9.8608,20.5521z M10.2886,44.4046l17.0151-11.8314l0.2985,0.2077c0.1716,0.1194,0.3714,0.1792,0.5712,0.1792  c0.1982,0,0.8773-0.39,0.8773-0.39l17.0197,11.8345H10.2886z M46.4973,43.4836L29.9305,31.9641l9.2394-6.3642l7.3274-5.0472V43.4836  z"
     id="path444"
     style="fill:#ffffff;fill-opacity:1" /></svg>
