<?xml version="1.0" encoding="UTF-8" standalone="no"?>
<!-- Created with Inkscape (http://www.inkscape.org/) -->

<svg
   version="1.1"
   id="svg2"
   width="717.56494"
   height="645.11609"
   viewBox="0 0 717.56494 645.11609"
   sodipodi:docname="MarsRover.svg"
   xml:space="preserve"
   inkscape:version="1.2.2 (b0a8486541, 2022-12-01)"
   xmlns:inkscape="http://www.inkscape.org/namespaces/inkscape"
   xmlns:sodipodi="http://sodipodi.sourceforge.net/DTD/sodipodi-0.dtd"
   xmlns="http://www.w3.org/2000/svg"
   xmlns:svg="http://www.w3.org/2000/svg"><defs
     id="defs6" /><sodipodi:namedview
     id="namedview4"
     pagecolor="#ffffff"
     bordercolor="#000000"
     borderopacity="0.25"
     inkscape:showpageshadow="2"
     inkscape:pageopacity="0.0"
     inkscape:pagecheckerboard="0"
     inkscape:deskcolor="#d1d1d1"
     showgrid="false"
     inkscape:zoom="0.33076577"
     inkscape:cx="40.81438"
     inkscape:cy="178.37396"
     inkscape:window-width="1280"
     inkscape:window-height="651"
     inkscape:window-x="0"
     inkscape:window-y="32"
     inkscape:window-maximized="1"
     inkscape:current-layer="g8" /><g
     inkscape:groupmode="layer"
     inkscape:label="Image"
     id="g8"
     transform="translate(-128.95273,-141.09487)"><path
       id="path3301"
       style="display:inline;fill:#ffffff;fill-rule:evenodd;stroke:none;stroke-width:0.837766;stroke-linecap:round;stroke-linejoin:round;stroke-miterlimit:24;stroke-dasharray:none;stroke-opacity:1;paint-order:normal;fill-opacity:1"
       d="m 242.64892,317.20408 c -19.0421,-0.74512 -39.5625,10.95743 -51.6094,31.35352 l -52.373,88.67187 c -16.0626,27.19479 -10.7985,59.24186 11.8027,71.85547 l 119.3262,66.5957 c 2.9664,1.65553 6.0842,2.86844 9.291,3.70508 3.763,2.03983 7.818,3.20899 12.0762,3.20899 h 458.5 c 19.2239,0 34.6992,-22.69203 34.6992,-50.87891 V 421.45213 c 0,-28.18688 -15.4753,-50.87891 -34.6992,-50.87891 0,0 -367.0019,9.4379 -402.2246,0 -31.9344,-8.5568 -86.6075,-48.33593 -86.6075,-48.33593 -5.6503,-3.15341 -11.8342,-4.78483 -18.1816,-5.03321 z"
       sodipodi:nodetypes="scccccsssssscs" /><rect
       style="fill:#ffffff;fill-rule:evenodd;stroke-linejoin:round;stroke-miterlimit:24;stroke:none;fill-opacity:1"
       id="rect3303"
       width="94.13208"
       height="97.109177"
       x="671.23706"
       y="-164.11594"
       ry="24.977194"
       transform="rotate(25.068087)"
       rx="14.628517" /><rect
       style="fill:#ffffff;fill-rule:evenodd;stroke-width:0.850103;stroke-linejoin:round;stroke-miterlimit:24;stroke:none;fill-opacity:1"
       id="rect3305"
       width="56.229027"
       height="164.07858"
       x="664.08374"
       y="227.2636" /><rect
       style="fill:#ffffff;fill-rule:evenodd;stroke-width:0.426745;stroke-linejoin:round;stroke-miterlimit:24;fill-opacity:1"
       id="rect3309"
       width="56.229027"
       height="41.347172"
       x="286.57788"
       y="571.0813" /><rect
       style="fill:#ffffff;fill-rule:evenodd;stroke-width:0.584039;stroke-linejoin:round;stroke-miterlimit:24;fill-opacity:1"
       id="rect3311"
       width="52.231823"
       height="83.371521"
       x="-126.47727"
       y="695.6626"
       transform="rotate(-45)" /><rect
       style="fill:#ffffff;fill-rule:evenodd;stroke-width:0.582944;stroke-linejoin:round;stroke-miterlimit:24;fill-opacity:1"
       id="rect3313"
       width="56.229027"
       height="77.15477"
       x="728.55469"
       y="529.23041" /><ellipse
       style="display:none;fill:none;fill-rule:evenodd;stroke:#000000;stroke-width:39.391;stroke-linejoin:round;stroke-miterlimit:24;stroke-dasharray:none;stroke-opacity:1"
       id="ellipse3317"
       cx="755.60632"
       cy="690.93958"
       rx="71.21582"
       ry="71.924088" /><rect
       style="fill:#ffffff;fill-rule:evenodd;stroke-width:0.735447;stroke-linejoin:round;stroke-miterlimit:24;stroke:none;stroke-opacity:1;fill-opacity:1"
       id="rect3323"
       width="102.11639"
       height="67.620369"
       x="367.98389"
       y="334.61926"
       ry="23.077749" /><path
       id="path4137"
       style="fill:#ffffff;fill-opacity:1;fill-rule:evenodd;stroke:none;stroke-width:3.95692;stroke-linecap:round;stroke-linejoin:round;stroke-miterlimit:24;stroke-dasharray:none;stroke-opacity:1;paint-order:normal"
       d="M 753.92148 602.23354 A 92.100761 92.100761 0 0 0 661.81992 694.3351 A 92.100761 92.100761 0 0 0 753.92148 786.43667 A 92.100761 92.100761 0 0 0 846.02109 694.3351 A 92.100761 92.100761 0 0 0 753.92148 602.23354 z M 753.92148 646.41518 A 47.920429 47.920429 0 0 1 801.8414 694.3351 A 47.920429 47.920429 0 0 1 753.92148 742.25503 A 47.920429 47.920429 0 0 1 706.00156 694.3351 A 47.920429 47.920429 0 0 1 753.92148 646.41518 z " /><path
       id="path4142"
       style="fill:#ffffff;fill-opacity:1;fill-rule:evenodd;stroke:none;stroke-width:3.95692;stroke-linecap:round;stroke-linejoin:round;stroke-miterlimit:24;stroke-dasharray:none;stroke-opacity:1;paint-order:normal"
       d="m 510.04843,602.23354 a 92.100761,92.100761 0 0 0 -92.10156,92.10156 92.100761,92.100761 0 0 0 92.10156,92.10157 92.100761,92.100761 0 0 0 92.09961,-92.10157 92.100761,92.100761 0 0 0 -92.09961,-92.10156 z m 0,44.18164 a 47.920429,47.920429 0 0 1 47.91992,47.91992 47.920429,47.920429 0 0 1 -47.91992,47.91993 47.920429,47.920429 0 0 1 -47.91992,-47.91993 47.920429,47.920429 0 0 1 47.91992,-47.91992 z" /><path
       id="path4144"
       style="fill:#ffffff;fill-opacity:1;fill-rule:evenodd;stroke:none;stroke-width:3.95692;stroke-linecap:round;stroke-linejoin:round;stroke-miterlimit:24;stroke-dasharray:none;stroke-opacity:1;paint-order:normal"
       d="m 309.58631,602.23354 a 92.100761,92.100761 0 0 0 -92.10156,92.10156 92.100761,92.100761 0 0 0 92.10156,92.10157 92.100761,92.100761 0 0 0 92.09961,-92.10157 92.100761,92.100761 0 0 0 -92.09961,-92.10156 z m 0,44.18164 a 47.920429,47.920429 0 0 1 47.91992,47.91992 47.920429,47.920429 0 0 1 -47.91992,47.91993 47.920429,47.920429 0 0 1 -47.91992,-47.91993 47.920429,47.920429 0 0 1 47.91992,-47.91992 z" /></g></svg>
