<?xml version="1.0" encoding="UTF-8" standalone="no"?>
<!-- Uploaded to: SVG Repo, www.svgrepo.com, Generator: SVG Repo Mixer Tools -->

<svg
   fill="#000000"
   height="624.65753"
   width="800"
   version="1.1"
   id="Capa_1"
   viewBox="0 0 511 399"
   xml:space="preserve"
   sodipodi:docname="mars-rover-svgrepo-com.svg"
   inkscape:version="1.2.2 (b0a8486541, 2022-12-01)"
   xmlns:inkscape="http://www.inkscape.org/namespaces/inkscape"
   xmlns:sodipodi="http://sodipodi.sourceforge.net/DTD/sodipodi-0.dtd"
   xmlns="http://www.w3.org/2000/svg"
   xmlns:svg="http://www.w3.org/2000/svg"><defs
   id="defs7" /><sodipodi:namedview
   id="namedview5"
   pagecolor="#ffffff"
   bordercolor="#000000"
   borderopacity="0.25"
   inkscape:showpageshadow="2"
   inkscape:pageopacity="0.0"
   inkscape:pagecheckerboard="0"
   inkscape:deskcolor="#d1d1d1"
   showgrid="false"
   inkscape:zoom="0.299375"
   inkscape:cx="489.35282"
   inkscape:cy="230.48017"
   inkscape:window-width="1280"
   inkscape:window-height="651"
   inkscape:window-x="0"
   inkscape:window-y="32"
   inkscape:window-maximized="1"
   inkscape:current-layer="Capa_1" />
<path
   d="M 494.744,304.256 C 485.832,295.344 474.619,290.112 463,288.54 V 247.5 c 0,-4.142 -3.358,-7.5 -7.5,-7.5 -4.142,0 -7.5,3.358 -7.5,7.5 v 3.865 l -17.23,-8.615 c 0.148,-1.063 0.23,-2.147 0.23,-3.25 v -36.086 c 2.668,-2.249 6.769,-6.213 13.475,-13.424 C 451.262,182.692 455,173.157 455,163.143 V 63 h 8.5 c 4.142,0 7.5,-3.358 7.5,-7.5 v -5.594 l 14.128,4.709 c 0.774,0.258 1.575,0.385 2.371,0.385 1.555,0 3.092,-0.483 4.386,-1.416 C 493.841,52.174 495,49.911 495,47.5 v -32 c 0,-2.411 -1.159,-4.675 -3.115,-6.084 -1.956,-1.41 -4.469,-1.793 -6.757,-1.031 L 471,13.094 V 7.5 C 471,3.358 467.642,0 463.5,0 h -16 C 434.542,0 424,10.542 424,23.5 v 16 c 0,10.336 6.71,19.128 16,22.266 v 101.377 c 0,6.211 -2.312,12.118 -6.509,16.632 -0.892,0.959 -1.71,1.828 -2.491,2.653 V 175.5 c 0,-4.142 -3.358,-7.5 -7.5,-7.5 H 399 v -8.5 c 0,-4.142 -3.358,-7.5 -7.5,-7.5 -4.142,0 -7.5,3.358 -7.5,7.5 v 8.5 h -9 v -8.5 c 0,-4.142 -3.358,-7.5 -7.5,-7.5 -4.142,0 -7.5,3.358 -7.5,7.5 v 8.5 h -9 v -8.5 c 0,-4.142 -3.358,-7.5 -7.5,-7.5 -4.142,0 -7.5,3.358 -7.5,7.5 v 8.5 h -81 v -12.16 c 1.983,0.535 4.048,0.817 6.157,0.817 6.277,0 12.179,-2.444 16.617,-6.883 l 11.313,-11.313 c 2.929,-2.929 2.929,-7.677 0,-10.606 L 255.146,93.914 c -2.928,-2.929 -7.677,-2.929 -10.606,0 l -11.314,11.314 c -9.162,9.162 -9.162,24.071 0,33.234 L 240,145.236 V 168 H 225.391 L 130.159,116.721 C 124.423,113.632 117.947,112 111.432,112 H 111 V 95 h 8.5 c 4.142,0 7.5,-3.358 7.5,-7.5 v -16 C 127,58.542 116.458,48 103.5,48 90.542,48 80,58.542 80,71.5 v 16 c 0,4.142 3.358,7.5 7.5,7.5 H 96 v 17 h -8.5 c -4.142,0 -7.5,3.358 -7.5,7.5 v 0.367 l -5.901,-3.177 c -3.646,-1.963 -7.836,-2.389 -11.802,-1.199 -3.965,1.19 -7.23,3.852 -9.193,7.498 l -30.344,56.35 c -4.052,7.525 -1.227,16.944 6.299,20.996 L 80,227.765 v 3.735 c 0,17.369 14.131,31.5 31.5,31.5 h 117.329 l -58.438,15.938 C 166.811,274.701 161.468,272 155.5,272 c -5.968,0 -11.311,2.701 -14.891,6.938 L 63,257.771 V 247.5 c 0,-4.142 -3.358,-7.5 -7.5,-7.5 -4.142,0 -7.5,3.358 -7.5,7.5 v 41.04 C 36.381,290.112 25.167,295.344 16.256,304.255 5.773,314.738 0,328.675 0,343.5 0,358.325 5.773,372.262 16.256,382.744 26.738,393.227 40.675,399 55.5,399 70.325,399 84.262,393.227 94.744,382.744 105.227,372.262 111,358.325 111,343.5 111,328.675 105.227,314.738 94.744,304.256 85.833,295.344 74.619,290.112 63,288.54 v -15.221 l 73.089,19.933 c 0.89,9.933 9.25,17.747 19.411,17.747 10.161,0 18.521,-7.814 19.411,-17.747 L 248,273.319 v 15.201 c -27.067,3.675 -48,26.921 -48,54.979 0,30.603 24.897,55.5 55.5,55.5 30.603,0 55.5,-24.897 55.5,-55.5 0,-28.058 -20.933,-51.305 -48,-54.979 V 263 h 144.5 c 6.451,0 12.303,-2.614 16.554,-6.838 L 448,268.135 v 20.405 c -11.619,1.572 -22.833,6.804 -31.744,15.716 C 405.773,314.738 400,328.675 400,343.5 c 0,14.825 5.773,28.762 16.255,39.244 10.483,10.483 24.42,16.256 39.245,16.256 14.825,0 28.762,-5.773 39.244,-16.256 C 505.227,372.262 511,358.325 511,343.5 c 0,-14.825 -5.773,-28.762 -16.256,-39.244 z M 480,25.906 v 11.188 l -9,-3 V 28.906 Z M 439,23.5 c 0,-4.687 3.813,-8.5 8.5,-8.5 h 8.5 v 8.633 c 0,0.008 0,0.016 0,0.024 v 15.688 c 0,0.008 0,0.016 0,0.024 V 48 h -8.5 c -4.687,0 -8.5,-3.813 -8.5,-8.5 z m -195.167,92.333 6.011,-6.01 23.334,23.334 -6.01,6.01 c -1.605,1.605 -3.74,2.49 -6.011,2.49 -2.271,0 -4.405,-0.884 -6.01,-2.49 l -11.313,-11.313 c -3.315,-3.314 -3.315,-8.707 -0.001,-12.021 z M 95,71.5 c 0,-4.687 3.813,-8.5 8.5,-8.5 4.687,0 8.5,3.813 8.5,8.5 V 80 H 95 Z M 55.5,303.019 c 4.537,0 9.073,0.755 13.403,2.266 L 55.5,328.5 42.097,305.285 c 4.33,-1.511 8.866,-2.266 13.403,-2.266 z m -28.638,11.843 v 0 c 0.727,-0.727 1.482,-1.409 2.249,-2.069 L 42.51,336 H 15.698 c 1.483,-7.961 5.314,-15.288 11.164,-21.138 z M 15.698,351 H 42.51 l -13.4,23.209 c -0.769,-0.662 -1.523,-1.346 -2.248,-2.071 C 21.012,366.288 17.181,358.961 15.698,351 Z M 42.088,381.731 55.5,358.5 68.912,381.731 C 64.659,383.219 60.14,384 55.5,384 c -4.64,0 -9.159,-0.781 -13.412,-2.269 z m 42.05,-9.593 c -0.725,0.725 -1.479,1.409 -2.248,2.071 L 68.49,351 h 26.812 c -1.483,7.961 -5.314,15.288 -11.164,21.138 z M 95.302,336 H 68.49 l 13.399,-23.207 c 0.767,0.66 1.522,1.342 2.249,2.069 5.85,5.85 9.681,13.177 11.164,21.138 z M 416,183 v 52.365 l -17,-8.5 V 183 Z M 111.432,127 c 4.041,0 8.058,1.013 11.616,2.928 L 193.752,168 H 95 v -41 z m -45.121,3.1 c 0.024,-0.045 0.098,-0.182 0.296,-0.242 0.199,-0.06 0.335,0.014 0.381,0.039 L 80,136.903 v 42.641 L 48.747,162.715 Z M 36.17,187.127 c -0.045,-0.024 -0.182,-0.098 -0.242,-0.297 -0.06,-0.199 0.014,-0.336 0.039,-0.381 L 41.636,175.921 80,196.58 v 14.148 z M 155.5,296 c -2.481,0 -4.5,-2.019 -4.5,-4.5 0,-2.481 2.019,-4.5 4.5,-4.5 2.481,0 4.5,2.019 4.5,4.5 0,2.481 -2.019,4.5 -4.5,4.5 z m 122.826,14.067 -18.944,18.944 -6.936,-25.884 c 1.009,-0.076 2.025,-0.127 3.053,-0.127 8.462,0 16.323,2.612 22.827,7.067 z m -40.371,-3.066 6.938,25.893 L 219,325.956 c 3.987,-8.26 10.696,-14.969 18.955,-18.955 z m -22.828,33.446 25.884,6.936 -18.944,18.944 C 217.612,359.822 215,351.961 215,343.5 c 0,-1.028 0.051,-2.044 0.127,-3.053 z m 17.547,36.486 18.944,-18.944 6.936,25.884 c -1.009,0.076 -2.025,0.127 -3.053,0.127 -8.462,0 -16.323,-2.612 -22.827,-7.067 z m 40.371,3.066 -6.938,-25.893 25.893,6.938 c -3.987,8.26 -10.696,14.969 -18.955,18.955 z m 22.828,-33.446 -25.884,-6.936 18.944,-18.944 c 4.455,6.504 7.067,14.365 7.067,22.826 0,1.029 -0.051,2.045 -0.127,3.054 z M 407.5,248 H 263 v -0.5 c 0,-4.142 -3.358,-7.5 -7.5,-7.5 -4.142,0 -7.5,3.358 -7.5,7.5 V 248 H 111.5 C 102.402,248 95,240.598 95,231.5 V 183 H 223.5 336 v 48.5 c 0,4.142 3.358,7.5 7.5,7.5 4.142,0 7.5,-3.358 7.5,-7.5 V 183 h 9 v 48.5 c 0,4.142 3.358,7.5 7.5,7.5 4.142,0 7.5,-3.358 7.5,-7.5 V 183 h 9 v 48.5 c 0,0.033 0.005,0.065 0.005,0.098 0.002,0.153 0.012,0.304 0.023,0.456 0.008,0.104 0.014,0.207 0.026,0.309 0.015,0.126 0.036,0.25 0.057,0.375 0.021,0.124 0.04,0.249 0.067,0.371 0.022,0.098 0.049,0.195 0.075,0.292 0.037,0.142 0.074,0.284 0.119,0.422 0.027,0.082 0.059,0.161 0.089,0.242 0.053,0.146 0.106,0.292 0.168,0.434 0.037,0.085 0.08,0.167 0.121,0.25 0.063,0.13 0.124,0.261 0.194,0.387 0.057,0.104 0.122,0.203 0.185,0.304 0.062,0.1 0.121,0.201 0.187,0.298 0.082,0.12 0.172,0.234 0.261,0.349 0.056,0.073 0.109,0.147 0.168,0.218 0.1,0.12 0.208,0.233 0.316,0.347 0.058,0.062 0.114,0.125 0.174,0.184 0.104,0.103 0.216,0.2 0.327,0.297 0.075,0.066 0.148,0.133 0.225,0.196 0.097,0.078 0.2,0.152 0.302,0.226 0.103,0.075 0.205,0.15 0.311,0.22 0.085,0.056 0.175,0.107 0.263,0.16 0.132,0.079 0.264,0.156 0.4,0.226 0.029,0.015 0.055,0.033 0.085,0.048 l 19.562,9.781 c -0.072,0.001 -0.14,0.01 -0.21,0.01 z m 87.802,88 H 468.49 l 13.399,-23.207 c 0.767,0.66 1.522,1.342 2.249,2.069 5.85,5.85 9.681,13.177 11.164,21.138 z M 455.5,303.019 c 4.537,0 9.073,0.755 13.403,2.266 L 455.5,328.5 442.097,305.285 c 4.33,-1.511 8.866,-2.266 13.403,-2.266 z m -28.638,11.843 c 0.727,-0.727 1.482,-1.409 2.249,-2.069 L 442.51,336 h -26.812 c 1.483,-7.961 5.314,-15.288 11.164,-21.138 z M 415.698,351 h 26.812 l -13.4,23.209 c -0.769,-0.662 -1.523,-1.346 -2.248,-2.071 -5.85,-5.85 -9.681,-13.177 -11.164,-21.138 z m 26.39,30.731 13.412,-23.231 13.412,23.231 C 464.659,383.219 460.14,384 455.5,384 c -4.64,0 -9.159,-0.781 -13.412,-2.269 z m 42.05,-9.593 c -0.725,0.725 -1.479,1.409 -2.248,2.071 L 468.49,351 h 26.812 c -1.483,7.961 -5.314,15.288 -11.164,21.138 z"
   id="path2"
   style="fill:#ffffff" />
</svg>
