<?xml version="1.0" encoding="UTF-8" standalone="no"?>
<!-- Created with Inkscape (http://www.inkscape.org/) -->

<svg
   width="108.5766mm"
   height="155.25543mm"
   viewBox="0 0 108.5766 155.25543"
   version="1.1"
   id="svg5"
   xml:space="preserve"
   sodipodi:docname="Orbiter.svg"
   inkscape:version="1.2.2 (b0a8486541, 2022-12-01)"
   xmlns:inkscape="http://www.inkscape.org/namespaces/inkscape"
   xmlns:sodipodi="http://sodipodi.sourceforge.net/DTD/sodipodi-0.dtd"
   xmlns="http://www.w3.org/2000/svg"
   xmlns:svg="http://www.w3.org/2000/svg"><sodipodi:namedview
     id="namedview7"
     pagecolor="#ffffff"
     bordercolor="#000000"
     borderopacity="0.25"
     inkscape:showpageshadow="2"
     inkscape:pageopacity="0.0"
     inkscape:pagecheckerboard="0"
     inkscape:deskcolor="#d1d1d1"
     inkscape:document-units="mm"
     showgrid="false"
     showguides="false"
     inkscape:zoom="0.25"
     inkscape:cx="-448"
     inkscape:cy="248"
     inkscape:window-width="1280"
     inkscape:window-height="651"
     inkscape:window-x="0"
     inkscape:window-y="32"
     inkscape:window-maximized="1"
     inkscape:current-layer="layer1" /><defs
     id="defs2" /><g
     inkscape:label="Capa 1"
     inkscape:groupmode="layer"
     id="layer1"
     transform="translate(-111.816,-85.192205)"><path
       style="fill:#ffffff;fill-rule:evenodd;stroke:none;stroke-width:1.76;stroke-linecap:round;stroke-linejoin:round;stroke-miterlimit:24;fill-opacity:1"
       d="m 116.7174,200.58571 c 0,0 0.48632,5.36912 1.3746,7.88482 3.11864,8.83234 13.626,24.57555 13.626,24.57555 V 164.0797 c 0,0 -10.73651,16.00169 -13.626,25.06046 -1.16772,3.66088 -1.3746,11.44555 -1.3746,11.44555 z"
       id="path1068"
       sodipodi:nodetypes="caccac" /><rect
       style="display:inline;fill:#ffffff;fill-rule:evenodd;stroke:none;stroke-width:1.10176;stroke-linecap:round;stroke-linejoin:round;stroke-miterlimit:24;fill-opacity:1"
       id="rect1231"
       width="10.53791"
       height="74.2033"
       x="32.93195"
       y="214.71632"
       ry="0"
       transform="rotate(-40.003607)" /><ellipse
       style="display:inline;fill:#ffffff;fill-rule:evenodd;stroke:none;stroke-width:1.76895;stroke-linecap:round;stroke-linejoin:round;stroke-miterlimit:24;fill-opacity:1"
       id="path1233"
       cx="215.0244"
       cy="196.79167"
       rx="5.3682017"
       ry="5.1202397" /><path
       style="display:inline;fill:#ffffff;fill-rule:evenodd;stroke:none;stroke-width:1.76;stroke-linecap:round;stroke-linejoin:round;stroke-miterlimit:24;fill-opacity:1"
       d="m 163.877,229.49029 c -6.36827,-0.0363 -17.36227,-7.97229 -17.36227,-7.97229 l -0.0426,-48.162 -5.39104,-10.906 h 45.59182 l -4.89771,10.906 v 48.162 c 0,0 -11.36716,8.00956 -17.8982,7.97229 z"
       id="path1237"
       sodipodi:nodetypes="acccccca" /><path
       style="display:inline;fill:#ffffff;fill-rule:evenodd;stroke:none;stroke-width:1.76;stroke-linecap:round;stroke-linejoin:round;stroke-miterlimit:24;fill-opacity:1"
       d="m 152.79297,221.38429 -16.02861,19.06334 20.92038,-13.91026 -14.36472,7.87581 z"
       id="path1239"
       sodipodi:nodetypes="ccccc" /><path
       style="display:inline;fill:#ffffff;fill-rule:evenodd;stroke:none;stroke-width:1.76;stroke-linecap:round;stroke-linejoin:round;stroke-miterlimit:24;fill-opacity:1"
       d="m 180.91495,221.38429 16.02861,19.06334 -20.92038,-13.91026 14.36472,7.87581 z"
       id="path1241"
       sodipodi:nodetypes="ccccc" /><path
       id="path1255"
       style="display:inline;fill:#ffffff;fill-rule:evenodd;stroke:none;stroke-width:1.84038;stroke-linecap:round;stroke-linejoin:round;stroke-miterlimit:24;fill-opacity:1"
       d="m 132.16558,184.45903 v 28.20344 a 7.7118883,14.105954 0 0 0 7.61142,-14.0994 7.7118883,14.105954 0 0 0 -7.61142,-14.10404 z m -5.75934,4.52323 a 7.7118883,14.105954 0 0 0 -2.05311,9.58081 7.7118883,14.105954 0 0 0 2.05311,9.5803 z" /><path
       style="display:inline;fill:none;fill-rule:evenodd;stroke:#ffffff;stroke-width:1.76;stroke-linecap:round;stroke-linejoin:round;stroke-miterlimit:24;stroke-opacity:1"
       d="m 161.32654,97.011306 9.81413,17.157464"
       id="path1378"
       sodipodi:nodetypes="cc" /><path
       id="ellipse1154"
       style="display:inline;fill:#ffffff;fill-opacity:1;fill-rule:evenodd;stroke:none;stroke-width:1.60811;stroke-linecap:round;stroke-linejoin:round;stroke-miterlimit:24;stroke-opacity:1"
       d="m 169.30439,94.338428 0.55863,1.021643 c 0,0 -3.77712,1.071276 -5.71542,1.071252 -1.93801,-2.5e-5 -5.71438,-1.071252 -5.71438,-1.071252 l 0.55759,-1.020093 a 7.4322262,2.2557888 0 0 0 -2.27479,1.62264 7.4322262,2.2557888 0 0 0 7.4321,2.256193 7.4322262,2.2557888 0 0 0 7.4321,-2.256193 7.4322262,2.2557888 0 0 0 -2.27583,-1.62419 z" /><path
       style="display:inline;fill:#ffffff;fill-rule:evenodd;stroke:none;stroke-width:1.76;stroke-linecap:round;stroke-linejoin:round;stroke-miterlimit:24;fill-opacity:1"
       d="m 164.14784,85.192205 -5.43311,9.936903 c 0,0 3.59055,1.018182 5.43311,1.018206 1.84282,2.3e-5 5.43387,-1.018206 5.43387,-1.018206 z"
       id="path1313"
       sodipodi:nodetypes="ccacc" /><path
       style="display:inline;fill:#8236ff;fill-opacity:1;fill-rule:evenodd;stroke:#ffffff;stroke-width:1.76;stroke-linecap:round;stroke-linejoin:round;stroke-miterlimit:24;stroke-opacity:1"
       d="M 157.5918,95.950724 144.22451,113.7604"
       id="path2098"
       sodipodi:nodetypes="cc" /><path
       style="display:inline;fill:#000000;fill-opacity:1;fill-rule:evenodd;stroke:#ffffff;stroke-width:1.76;stroke-linecap:round;stroke-linejoin:round;stroke-miterlimit:24;stroke-opacity:1"
       d="m 170.71431,96.318414 6.30253,17.444976"
       id="path2100"
       sodipodi:nodetypes="cc" /><path
       style="display:inline;fill:#ffffff;fill-opacity:1;fill-rule:evenodd;stroke:none;stroke-width:1.76;stroke-linecap:round;stroke-linejoin:round;stroke-miterlimit:24;stroke-opacity:1"
       d="m 159.878,135.088 c 19.09867,0.32688 52.67719,-22.559 52.67719,-22.559 -16.95112,2.25543 -33.78598,3.84452 -51.73569,3.67234 -17.14335,-0.23014 -49.0035,-3.67234 -49.0035,-3.67234 0,0 30.36693,22.25615 48.062,22.559 z"
       id="path2102"
       sodipodi:nodetypes="accca" /><path
       id="path476"
       style="display:inline;fill:#ffffff;fill-rule:evenodd;stroke:none;stroke-width:0;stroke-linecap:round;stroke-linejoin:round;stroke-miterlimit:24;stroke-dasharray:none;fill-opacity:1"
       d="m 136.7038,134.04298 v 24.04194 l 27.17302,3.23547 11.97343,-1.42576 -13.92577,-16.692 7.9375,-6.63681 -5.98516,0.71262 z m 54.34604,0 -18.44125,2.19573 18.24488,21.86947 0.19637,-0.0233 z" /><path
       id="ellipse1325"
       style="display:inline;fill:#ffffff;fill-rule:evenodd;stroke:none;stroke-width:1.64631;stroke-linecap:round;stroke-linejoin:round;stroke-miterlimit:24;fill-opacity:1"
       d="m 162.19527,102.33949 a 50.343773,6.3435779 0 0 0 -7.48637,0.0708 l -9.09815,12.26178 a 50.343773,6.3435779 0 0 0 16.58452,0.3545 50.343773,6.3435779 0 0 0 7.58817,-0.0729 l -7.28276,-12.6137 a 50.343773,6.3435779 0 0 0 -0.30541,-5.2e-4 z m 3.91655,0.0196 7.15461,12.39149 -0.21756,0.12557 a 50.343773,6.3435779 0 0 0 2.65255,-0.0827 l -4.43435,-12.35015 a 50.343773,6.3435779 0 0 0 -5.15525,-0.0842 z m -15.35668,0.14727 a 50.343773,6.3435779 0 0 0 -38.90357,6.17637 50.343773,6.3435779 0 0 0 32.67242,5.93917 l -1.77921,-1.31981 z m 23.85797,0.0289 4.35271,12.12226 -0.0181,0.006 a 50.343773,6.3435779 0 0 0 33.59123,-5.98103 50.343773,6.3435779 0 0 0 -37.92585,-6.14743 z" /></g></svg>
