<?xml version="1.0" encoding="UTF-8" standalone="no"?>
<!-- Created with Inkscape (http://www.inkscape.org/) -->

<svg
   width="119.02337mm"
   height="119.02338mm"
   viewBox="0 0 119.02337 119.02338"
   version="1.1"
   id="svg4890"
   xml:space="preserve"
   inkscape:version="1.2.2 (b0a8486541, 2022-12-01)"
   sodipodi:docname="Planet.svg"
   xmlns:inkscape="http://www.inkscape.org/namespaces/inkscape"
   xmlns:sodipodi="http://sodipodi.sourceforge.net/DTD/sodipodi-0.dtd"
   xmlns="http://www.w3.org/2000/svg"
   xmlns:svg="http://www.w3.org/2000/svg"><sodipodi:namedview
     id="namedview4892"
     pagecolor="#ffffff"
     bordercolor="#000000"
     borderopacity="0.25"
     inkscape:showpageshadow="2"
     inkscape:pageopacity="0.0"
     inkscape:pagecheckerboard="0"
     inkscape:deskcolor="#d1d1d1"
     inkscape:document-units="mm"
     showgrid="false"
     inkscape:zoom="0.6034712"
     inkscape:cx="101.91041"
     inkscape:cy="356.27218"
     inkscape:window-width="1280"
     inkscape:window-height="651"
     inkscape:window-x="0"
     inkscape:window-y="32"
     inkscape:window-maximized="1"
     inkscape:current-layer="layer1" /><defs
     id="defs4887" /><g
     inkscape:label="Capa 1"
     inkscape:groupmode="layer"
     id="layer1"
     transform="translate(-10.79351,-45.900557)"><circle
       style="display:inline;fill:#adadad;fill-opacity:1;fill-rule:evenodd;stroke:none;stroke-width:0.566726;stroke-linecap:round;stroke-linejoin:round;stroke-miterlimit:24"
       id="path5438"
       cx="70.305122"
       cy="105.41232"
       r="59.511612" /><path
       id="path26325"
       style="display:inline;fill:#ffffff;fill-opacity:1;fill-rule:evenodd;stroke:none;stroke-width:0.529167;stroke-linecap:round;stroke-linejoin:round;stroke-miterlimit:24"
       d="m 113.09269,84.639794 c -0.72322,-0.03228 -1.42099,0.08041 -2.08049,0.368453 -12.460306,5.44216 4.33104,30.023453 -4.25245,40.568583 -8.658279,10.637 -26.069321,16.46867 -39.199679,12.5057 -9.698565,-2.92721 -9.619919,-19.90901 -19.009176,-23.71328 -6.438815,-2.60884 -13.854113,3.90042 -20.678841,2.60139 -6.330602,-1.20498 -16.924099,-9.25987 -16.979842,-9.30228 a 59.511612,59.511612 0 0 0 59.412911,57.25542 59.511612,59.511612 0 0 0 59.511617,-59.51161 59.511612,59.511612 0 0 0 -0.0253,-1.68724 c -0.0106,-0.36437 -0.0287,-0.72835 -0.046,-1.09244 a 59.511612,59.511612 0 0 0 -0.0253,-0.56637 c -0.0267,-0.46862 -0.0609,-0.93718 -0.0987,-1.40508 a 59.511612,59.511612 0 0 0 -0.0176,-0.23565 c -0.0441,-0.519465 -0.0953,-1.038215 -0.15296,-1.55649 a 59.511612,59.511612 0 0 0 -0.006,-0.05684 c -0.002,-0.0031 -9.36162,-13.860235 -16.35198,-14.172262 z" /><path
       id="circle15909"
       style="display:none;fill:#d3c3b8;fill-opacity:1;fill-rule:evenodd;stroke:none;stroke-width:0.566726;stroke-linecap:round;stroke-linejoin:round;stroke-miterlimit:24"
       d="m 19.846334,136.88674 c 10.857773,17.42349 29.929228,28.02037 50.458935,28.03704 9.545065,-0.0139 18.946758,-2.32349 27.411764,-6.73395 0,0 -6.365872,-0.86801 -9.568925,-0.87902 -3.639342,-0.0125 -7.23958,0.91177 -10.878923,0.92398 -6.829277,0.0229 -13.870243,0.318 -20.425626,-1.59681 -13.419024,-3.91967 -36.997225,-19.75124 -36.997225,-19.75124 z"
       sodipodi:nodetypes="cccaaac" /><path
       id="path22470"
       style="display:inline;fill:#ffffff;fill-opacity:1;fill-rule:evenodd;stroke:none;stroke-width:0.529167;stroke-linecap:round;stroke-linejoin:round;stroke-miterlimit:24"
       d="m 70.305269,45.900557 c -23.034683,6.92e-4 -44.000365,13.29431 -53.825138,34.128667 0,0 17.154016,7.987546 26.288224,7.764158 C 55.698409,87.477162 68.080159,81.254906 79.39927,74.996789 88.327235,70.06069 103.31152,55.895296 103.31152,55.895296 93.537046,49.379073 82.052673,45.90145 70.305269,45.900557 Z"
       sodipodi:nodetypes="ccaacc" /><path
       id="path22459"
       style="display:none;fill:#a5a5a5;fill-opacity:0.972549;fill-rule:evenodd;stroke:none;stroke-width:0.529167;stroke-linecap:round;stroke-linejoin:round;stroke-miterlimit:24"
       d="m 76.924504,46.272111 c 0,0 -10.463208,8.959433 -16.906979,10.632943 -7.250412,1.883002 -22.441007,-1.195276 -22.441007,-1.195276 -4.262769,2.816433 -8.145107,6.170079 -11.551233,9.978202 0,0 19.862121,6.09089 29.963029,5.221904 C 71.995421,69.532785 101.36022,54.646277 101.36022,54.646277 93.92632,50.099528 85.58461,47.240808 76.924504,46.272111 Z"
       sodipodi:nodetypes="caccacc" /></g></svg>
