<svg width="80" height="45" viewBox="0 0 80 45" fill="none" xmlns="http://www.w3.org/2000/svg">
<path d="M14.3063 12.9434L13.8126 12.6643L13.3197 12.9447L1.53261 19.6498L1.02626 8.26375L13.5749 1.16234L26.0289 8.89187L26.5264 9.20062L27.0391 8.91791L40.6153 1.43205L53.2898 9.35668L53.8001 9.67572L54.3209 9.37426L68.1806 1.35216L78.9796 8.04636L78.5836 18.9487L69.0119 12.9007L68.5072 12.5819L67.9871 12.8747L53.8799 20.8178L42.7413 12.9242L42.2506 12.5764L41.7134 12.847L27.1276 20.1917L14.3063 12.9434Z" fill="#E03F3F" stroke="#782424" stroke-width="2"/>
<path d="M14.3063 35.9434L13.8126 35.6643L13.3197 35.9447L1.53261 42.6498L1.02626 31.2638L13.5749 24.1623L26.0289 31.8919L26.5264 32.2006L27.0391 31.9179L40.6153 24.4321L53.2898 32.3567L53.8001 32.6757L54.3209 32.3742L68.1807 24.3522L78.9796 31.0464L78.5836 41.9486L69.0119 35.9007L68.5072 35.5818L67.9871 35.8747L53.8799 43.8178L42.7413 35.9242L42.2506 35.5764L41.7134 35.8469L27.1276 43.1917L14.3063 35.9434Z" fill="#E03F3F" stroke="#782424" stroke-width="2"/>
</svg>

