<?xml version="1.0" encoding="UTF-8" standalone="no"?>
<!-- Created with Inkscape (http://www.inkscape.org/) -->

<svg
   width="75.798195mm"
   height="188.69888mm"
   viewBox="0 0 75.798195 188.69888"
   version="1.1"
   id="svg5"
   xml:space="preserve"
   sodipodi:docname="Transbordador.svg"
   inkscape:version="1.2.2 (b0a8486541, 2022-12-01)"
   xmlns:inkscape="http://www.inkscape.org/namespaces/inkscape"
   xmlns:sodipodi="http://sodipodi.sourceforge.net/DTD/sodipodi-0.dtd"
   xmlns="http://www.w3.org/2000/svg"
   xmlns:svg="http://www.w3.org/2000/svg"><sodipodi:namedview
     id="namedview7"
     pagecolor="#ffffff"
     bordercolor="#000000"
     borderopacity="0.25"
     inkscape:showpageshadow="2"
     inkscape:pageopacity="0.0"
     inkscape:pagecheckerboard="0"
     inkscape:deskcolor="#d1d1d1"
     inkscape:document-units="mm"
     showgrid="false"
     inkscape:zoom="0.39375701"
     inkscape:cx="-199.36153"
     inkscape:cy="215.86917"
     inkscape:window-width="1280"
     inkscape:window-height="651"
     inkscape:window-x="0"
     inkscape:window-y="32"
     inkscape:window-maximized="1"
     inkscape:current-layer="layer1" /><defs
     id="defs2" /><g
     inkscape:label="Capa 1"
     inkscape:groupmode="layer"
     id="layer1"
     transform="translate(-134.91589,-115.14476)"><g
       id="g1030"
       inkscape:label="Fuego"><path
         style="fill:#efcb4c;fill-opacity:1;fill-rule:evenodd;stroke:none;stroke-width:0.529167;stroke-linejoin:round;stroke-miterlimit:24;stroke-opacity:1"
         d="m 139.34089,259.20025 c 0,0 8.13204,44.64179 10.0625,44.6434 1.90881,0.002 10.0625,-44.29792 10.0625,-44.29792 z"
         id="path319"
         sodipodi:nodetypes="cscc" /><path
         style="fill:#ffffff;fill-opacity:1;fill-rule:evenodd;stroke:none;stroke-width:0.529167;stroke-linejoin:round;stroke-miterlimit:24"
         d="m 143.99023,260.48872 c 0,0 4.59637,19.89211 5.41316,19.89211 0.80297,0 5.65332,-19.79648 5.65332,-19.79648 z"
         id="path418"
         sodipodi:nodetypes="cscc"
         transform="translate(1.1666667e-6)" /></g><g
       id="g1050"
       inkscape:label="Fuego"
       transform="translate(45.845377)"><path
         style="fill:#efcb4c;fill-opacity:1;fill-rule:evenodd;stroke:none;stroke-width:0.529167;stroke-linejoin:round;stroke-miterlimit:24;stroke-opacity:1"
         d="m 139.34089,259.20025 c 0,0 8.13204,44.64179 10.0625,44.6434 1.90881,0.002 10.0625,-44.29792 10.0625,-44.29792 z"
         id="path1046"
         sodipodi:nodetypes="cscc" /><path
         style="fill:#ffffff;fill-opacity:1;fill-rule:evenodd;stroke:none;stroke-width:0.529167;stroke-linejoin:round;stroke-miterlimit:24"
         d="m 143.99023,260.48872 c 0,0 4.59637,19.89211 5.41316,19.89211 0.80297,0 5.65332,-19.79648 5.65332,-19.79648 z"
         id="path1048"
         sodipodi:nodetypes="cscc"
         transform="translate(1.1666667e-6)" /></g><g
       id="g1042"><path
         style="fill:#ffffff;fill-opacity:1;fill-rule:evenodd;stroke:#f98b49;stroke-width:0.529167;stroke-linejoin:round;stroke-miterlimit:24;stroke-opacity:1"
         d="m 156.3863,141.3233 c 0,0 10.39251,2.15467 15.6637,2.1727 5.94814,0.0203 17.69164,-2.33078 17.69164,-2.33078 0,0 -11.7435,2.35112 -17.69164,2.33078 -5.27119,-0.018 -15.6637,-2.1727 -15.6637,-2.1727 z"
         id="path15897"
         sodipodi:nodetypes="cacac" /><path
         style="display:inline;fill:#d15e38;fill-opacity:1;fill-rule:evenodd;stroke:#000000;stroke-width:0.529167;stroke-linejoin:round;stroke-miterlimit:24;stroke-opacity:1"
         d="M 156.3196,244.73028 156.32,141.1 c 0,0 6.88034,-25.86748 17.31514,-25.68974 10.2307,0.17427 16.06409,25.68974 16.06409,25.68974 v 102.65363 z"
         id="path14392"
         sodipodi:nodetypes="ccsccc"
         transform="translate(1.1666667e-6)" /><path
         style="fill:#ffffff;fill-opacity:1;fill-rule:evenodd;stroke:#f98b49;stroke-width:0.529167;stroke-linejoin:round;stroke-miterlimit:24;stroke-opacity:1"
         d="m 156.3863,161.34445 c 0,0 10.39251,2.15467 15.6637,2.1727 5.94814,0.0203 17.69164,-2.33078 17.69164,-2.33078 0,0 -11.7435,2.35112 -17.69164,2.33078 -5.27119,-0.018 -15.6637,-2.1727 -15.6637,-2.1727 z"
         id="path15899"
         sodipodi:nodetypes="cacac" /></g><g
       id="g14314"
       inkscape:label="Cohete"
       style="display:inline"><path
         style="fill:#bfbdbe;fill-opacity:1;fill-rule:evenodd;stroke:#0b0b0b;stroke-width:0.529167;stroke-linejoin:round;stroke-miterlimit:24"
         d="M 189.889,247.22385 V 164.656 c 0,0 3.97453,-13.14179 6.28,-13.10895 2.73555,0.039 6.28,13.10895 6.28,13.10895 v 82.41411 l -6.28,2.0069 z"
         id="path4313"
         sodipodi:nodetypes="ccscccc" /><path
         style="fill:#000000;fill-opacity:1;fill-rule:evenodd;stroke:#000000;stroke-width:0.522459;stroke-linejoin:round;stroke-miterlimit:24;stroke-opacity:1"
         d="m 189.93723,218.98698 6.43215,0.1802 6.0748,-0.2621 -6.06829,0.27293 z"
         id="path13568"
         sodipodi:nodetypes="ccccc" /><path
         id="path502"
         style="display:inline;fill:#bfbfbe;fill-opacity:1;fill-rule:evenodd;stroke:#0b0b0b;stroke-width:0.529167;stroke-linejoin:round;stroke-miterlimit:24;stroke-opacity:1"
         d="m 187.6702,252.99179 -2.40296,6.07818 c 0,0 5.10823,4.10391 10.67842,4.09691 6.33674,-0.008 10.4898,-3.62252 10.4898,-3.62252 l -2.05155,-5.93865 -0.39378,-0.0145 c -0.6979,0.39218 -1.54101,0.75497 -2.54299,1.00976 -2.44097,0.6207 -5.49709,1.04301 -9.24544,0.15916 -1.67078,-0.39396 -3.26794,-1.10096 -4.5315,-1.76837 z" /><path
         style="display:inline;fill:#bfbfbe;fill-opacity:1;fill-rule:evenodd;stroke:#0b0b0b;stroke-width:0.529167;stroke-linejoin:round;stroke-miterlimit:24;stroke-opacity:1"
         d="m 202.4637,245.46253 4.19548,5.84595 c 0,0 -1.55836,2.36335 -5.21226,3.29248 -2.44097,0.6207 -5.49703,1.04322 -9.24538,0.15937 -3.78519,-0.89253 -7.19507,-3.39392 -7.19507,-3.39392 l 5.1417,-6.25825 c 0,0 3.95165,1.60461 6.03931,1.67055 2.13652,0.0675 6.27622,-1.31618 6.27622,-1.31618 z"
         id="path6886"
         sodipodi:nodetypes="ccssccac" /><path
         style="fill:#000000;fill-opacity:1;fill-rule:evenodd;stroke:#000000;stroke-width:0.522459;stroke-linejoin:round;stroke-miterlimit:24;stroke-opacity:1"
         d="m 189.93723,199.49259 6.43215,0.1802 6.0748,-0.2621 -6.06829,0.27293 z"
         id="path13570"
         sodipodi:nodetypes="ccccc" /><path
         style="fill:#000000;fill-opacity:1;fill-rule:evenodd;stroke:#000000;stroke-width:0.522459;stroke-linejoin:round;stroke-miterlimit:24;stroke-opacity:1"
         d="m 189.93723,233.50814 6.43215,0.1802 6.0748,-0.2621 -6.06829,0.27293 z"
         id="path14298"
         sodipodi:nodetypes="ccccc" /><path
         style="fill:#000000;fill-opacity:1;fill-rule:evenodd;stroke:#000000;stroke-width:0.522459;stroke-linejoin:round;stroke-miterlimit:24;stroke-opacity:1"
         d="m 189.93723,180.28651 6.43215,0.1802 6.0748,-0.2621 -6.06829,0.27293 z"
         id="path14304"
         sodipodi:nodetypes="ccccc" /><path
         style="fill:#000000;fill-opacity:1;fill-rule:evenodd;stroke:#000000;stroke-width:0.522459;stroke-linejoin:round;stroke-miterlimit:24;stroke-opacity:1"
         d="m 189.93723,164.92049 6.43215,0.1802 6.0748,-0.2621 -6.06829,0.27293 z"
         id="path14306"
         sodipodi:nodetypes="ccccc" /></g><g
       id="g14336"
       inkscape:label="Cohete"
       style="display:inline"
       transform="translate(-46.4675)"><path
         style="fill:#bfbdbe;fill-opacity:1;fill-rule:evenodd;stroke:#0b0b0b;stroke-width:0.529167;stroke-linejoin:round;stroke-miterlimit:24"
         d="M 189.889,247.22385 V 164.656 c 0,0 3.97453,-13.14179 6.28,-13.10895 2.73555,0.039 6.28,13.10895 6.28,13.10895 v 82.41411 l -6.28,2.0069 z"
         id="path14320"
         sodipodi:nodetypes="ccscccc" /><path
         style="fill:#000000;fill-opacity:1;fill-rule:evenodd;stroke:#000000;stroke-width:0.522459;stroke-linejoin:round;stroke-miterlimit:24;stroke-opacity:1"
         d="m 189.93723,218.98698 6.43215,0.1802 6.0748,-0.2621 -6.06829,0.27293 z"
         id="path14322"
         sodipodi:nodetypes="ccccc" /><path
         id="path14324"
         style="display:inline;fill:#bfbfbe;fill-opacity:1;fill-rule:evenodd;stroke:#0b0b0b;stroke-width:0.529167;stroke-linejoin:round;stroke-miterlimit:24;stroke-opacity:1"
         d="m 187.6702,252.99179 -2.40296,6.07818 c 0,0 5.10823,4.10391 10.67842,4.09691 6.33674,-0.008 10.4898,-3.62252 10.4898,-3.62252 l -2.05155,-5.93865 -0.39378,-0.0145 c -0.6979,0.39218 -1.54101,0.75497 -2.54299,1.00976 -2.44097,0.6207 -5.49709,1.04301 -9.24544,0.15916 -1.67078,-0.39396 -3.26794,-1.10096 -4.5315,-1.76837 z" /><path
         style="display:inline;fill:#bfbfbe;fill-opacity:1;fill-rule:evenodd;stroke:#0b0b0b;stroke-width:0.529167;stroke-linejoin:round;stroke-miterlimit:24;stroke-opacity:1"
         d="m 202.4637,245.46253 4.19548,5.84595 c 0,0 -1.55836,2.36335 -5.21226,3.29248 -2.44097,0.6207 -5.49703,1.04322 -9.24538,0.15937 -3.78519,-0.89253 -7.19507,-3.39392 -7.19507,-3.39392 l 5.1417,-6.25825 c 0,0 3.95165,1.60461 6.03931,1.67055 2.13652,0.0675 6.27622,-1.31618 6.27622,-1.31618 z"
         id="path14326"
         sodipodi:nodetypes="ccssccac" /><path
         style="fill:#000000;fill-opacity:1;fill-rule:evenodd;stroke:#000000;stroke-width:0.522459;stroke-linejoin:round;stroke-miterlimit:24;stroke-opacity:1"
         d="m 189.93723,199.49259 6.43215,0.1802 6.0748,-0.2621 -6.06829,0.27293 z"
         id="path14328"
         sodipodi:nodetypes="ccccc" /><path
         style="fill:#000000;fill-opacity:1;fill-rule:evenodd;stroke:#000000;stroke-width:0.522459;stroke-linejoin:round;stroke-miterlimit:24;stroke-opacity:1"
         d="m 189.93723,233.50814 6.43215,0.1802 6.0748,-0.2621 -6.06829,0.27293 z"
         id="path14330"
         sodipodi:nodetypes="ccccc" /><path
         style="fill:#000000;fill-opacity:1;fill-rule:evenodd;stroke:#000000;stroke-width:0.522459;stroke-linejoin:round;stroke-miterlimit:24;stroke-opacity:1"
         d="m 189.93723,180.28651 6.43215,0.1802 6.0748,-0.2621 -6.06829,0.27293 z"
         id="path14332"
         sodipodi:nodetypes="ccccc" /><path
         style="fill:#000000;fill-opacity:1;fill-rule:evenodd;stroke:#000000;stroke-width:0.522459;stroke-linejoin:round;stroke-miterlimit:24;stroke-opacity:1"
         d="m 189.93723,164.92049 6.43215,0.1802 6.0748,-0.2621 -6.06829,0.27293 z"
         id="path14334"
         sodipodi:nodetypes="ccccc" /></g><g
       id="g3584"
       inkscape:label="Nave"
       style="display:inline"><path
         style="display:inline;fill:#fefefe;fill-opacity:1;fill-rule:evenodd;stroke:#0b0b0b;stroke-width:0.529167;stroke-linejoin:round;stroke-miterlimit:24"
         d="m 172.9295,175.34225 c -4.84234,0.009 -10.0855,10.49075 -10.0855,10.49075 l -0.22209,57.35305 -1.4306,7.05631 2.27969,2.77485 h 18.473 l 2.57601,-3.48809 -1.50501,-6.25239 V 185.833 c 0,0 -5.22615,-10.49961 -10.0855,-10.49075 z"
         id="path417"
         sodipodi:nodetypes="sccccccccs" /><path
         style="display:inline;fill:none;fill-rule:evenodd;stroke:#0b0b0b;stroke-width:0.529167;stroke-linejoin:round;stroke-miterlimit:24"
         d="m 183.015,211.4747 c 0,0 2.35555,4.9096 6.89266,8.87332 8.44909,7.38132 21.61668,14.82867 20.47176,24.53378 -0.25899,2.1954 -5.13275,4.19958 -5.13275,4.19958 l -20.54084,1.12478 -1.46887,-7.00953 z"
         id="path6884"
         sodipodi:nodetypes="csscccc" /><path
         style="display:inline;fill:#ffffff;fill-opacity:1;fill-rule:evenodd;stroke:#0b0b0b;stroke-width:0.529167;stroke-linejoin:round;stroke-miterlimit:24"
         d="m 162.83862,211.4747 c 0,0 -2.35555,4.9096 -6.89266,8.87332 -8.44909,7.38132 -21.61668,14.82867 -20.47176,24.53378 0.25899,2.1954 5.13275,4.19958 5.13275,4.19958 l 20.54084,1.12478 1.46887,-7.00953 z"
         id="path1119"
         sodipodi:nodetypes="csscccc" /><path
         style="display:inline;fill:#010101;fill-opacity:1;fill-rule:evenodd;stroke:#0b0b0b;stroke-width:0.529167;stroke-linejoin:round;stroke-miterlimit:24"
         d="m 166.16546,193.64911 -0.0495,-2.36426 c 0,0 4.05273,-3.71669 6.579,-3.76511 2.59493,-0.0497 6.90106,3.60563 6.90106,3.60563 l 0.12125,2.29422 c 0,0 -4.37386,-3.80179 -7.02287,-3.72638 -2.5436,0.0724 -6.52894,3.9559 -6.52894,3.9559 z"
         id="path1121"
         sodipodi:nodetypes="ccaccac" /><ellipse
         style="display:inline;fill:#010101;fill-opacity:1;fill-rule:evenodd;stroke:#0b0b0b;stroke-width:0.529167;stroke-linejoin:round;stroke-miterlimit:24"
         id="path2009"
         cx="152.826"
         cy="234.21298"
         rx="5.4377236"
         ry="5.1266742" /><path
         style="display:inline;fill:#010101;fill-opacity:1;fill-rule:evenodd;stroke:#0b0b0b;stroke-width:0.529167;stroke-linejoin:round;stroke-miterlimit:24"
         d="m 169.317,253.82918 3.404,6.3709 3.377,-6.41474 -3.40415,-28.45411 z"
         id="path3463"
         sodipodi:nodetypes="ccccc" /><path
         style="display:inline;fill:#ffffff;fill-opacity:1;fill-rule:evenodd;stroke:#0b0b0b;stroke-width:0.529167;stroke-linejoin:round;stroke-miterlimit:24"
         d="m 183.015,211.4747 c 0,0 2.35555,4.9096 6.89266,8.87332 8.44909,7.38132 21.61668,14.82867 20.47176,24.53378 -0.25899,2.1954 -5.13275,4.19958 -5.13275,4.19958 l -20.54084,1.12478 -1.46887,-7.00953 z"
         id="path3503"
         sodipodi:nodetypes="csscccc" /><rect
         style="display:inline;fill:#010101;fill-opacity:1;fill-rule:evenodd;stroke:#0b0b0b;stroke-width:0.529167;stroke-linejoin:round;stroke-miterlimit:24"
         id="rect1955"
         width="7.8782864"
         height="1.5752354"
         x="189.39304"
         y="234.01506" /><path
         id="path3505"
         style="display:inline;fill:#010101;fill-opacity:1;fill-rule:evenodd;stroke:#0b0b0b;stroke-width:0.529167;stroke-linejoin:round;stroke-miterlimit:24"
         d="m 209.84869,240.85197 c 0,0 -4.85072,2.31796 -9.67641,2.8732 -5.52454,0.63565 -16.68115,0.24702 -16.68115,0.24702 l -0.0181,0.3514 1.19579,5.70404 0.0269,-0.0356 3.47369,0.0243 17.07751,-0.93482 c 0,0 4.87352,-2.00435 5.13251,-4.19975 0.0705,-0.59791 0.0864,-1.18707 0.0527,-1.76836 z"
         sodipodi:nodetypes="csccccccscc" /><path
         id="path3573"
         style="display:inline;fill:#010101;fill-opacity:1;fill-rule:evenodd;stroke:#0b0b0b;stroke-width:0.529167;stroke-linejoin:round;stroke-miterlimit:24"
         d="m 135.78089,240.95168 c 0,0 4.85072,2.31796 9.67641,2.8732 5.52454,0.63565 16.68115,0.24702 16.68115,0.24702 l 0.0181,0.3514 -1.19579,5.70404 -0.0269,-0.0356 -3.47369,0.0243 -17.07751,-0.93482 c 0,0 -4.87352,-2.00435 -5.13251,-4.19975 -0.0705,-0.59791 -0.0864,-1.18707 -0.0527,-1.76836 z"
         sodipodi:nodetypes="csccccccscc" /></g></g></svg>
