<?xml version="1.0" encoding="UTF-8" standalone="no"?>
<svg
   height="48"
   viewBox="0 0 48 48"
   width="48"
   version="1.1"
   id="svg188"
   sodipodi:docname="link.svg"
   inkscape:version="1.2.2 (b0a8486541, 2022-12-01)"
   xmlns:inkscape="http://www.inkscape.org/namespaces/inkscape"
   xmlns:sodipodi="http://sodipodi.sourceforge.net/DTD/sodipodi-0.dtd"
   xmlns="http://www.w3.org/2000/svg"
   xmlns:svg="http://www.w3.org/2000/svg">
  <defs
     id="defs192" />
  <sodipodi:namedview
     id="namedview190"
     pagecolor="#ffffff"
     bordercolor="#000000"
     borderopacity="0.25"
     inkscape:showpageshadow="2"
     inkscape:pageopacity="0.0"
     inkscape:pagecheckerboard="0"
     inkscape:deskcolor="#d1d1d1"
     showgrid="false"
     inkscape:zoom="9.9791667"
     inkscape:cx="17.536534"
     inkscape:cy="24.050104"
     inkscape:window-width="1280"
     inkscape:window-height="651"
     inkscape:window-x="0"
     inkscape:window-y="32"
     inkscape:window-maximized="1"
     inkscape:current-layer="svg188" />
  <path
     d="M0 0h48v48h-48z"
     fill="none"
     id="path184" />
  <path
     d="M7.8 24c0-3.42 2.78-6.2 6.2-6.2h8v-3.8h-8c-5.52 0-10 4.48-10 10s4.48 10 10 10h8v-3.8h-8c-3.42 0-6.2-2.78-6.2-6.2zm8.2 2h16v-4h-16v4zm18-12h-8v3.8h8c3.42 0 6.2 2.78 6.2 6.2s-2.78 6.2-6.2 6.2h-8v3.8h8c5.52 0 10-4.48 10-10s-4.48-10-10-10z"
     id="path186"
     style="fill:#ffffff;fill-opacity:1" />
</svg>
